<svg width="6" height="7" viewBox="0 0 6 7" fill="none" xmlns="http://www.w3.org/2000/svg">
<g clip-path="url(#clip0_264_2179)">
<path fill-rule="evenodd" clip-rule="evenodd" d="M3.24724 6.1583C4.68538 6.1583 5.85123 4.99245 5.85123 3.55431C5.85123 2.11616 4.68538 0.950317 3.24724 0.950317C1.8091 0.950317 0.64325 2.11616 0.64325 3.55431C0.64325 4.99245 1.8091 6.1583 3.24724 6.1583ZM2.78782 2.46658C2.73048 2.43075 2.65821 2.42885 2.59908 2.46163C2.53994 2.4944 2.50324 2.5567 2.50324 2.62431V4.4843C2.50324 4.55192 2.53994 4.61421 2.59908 4.64699C2.65821 4.67975 2.73048 4.67785 2.78782 4.64203L4.27581 3.71203C4.3302 3.67804 4.36323 3.61844 4.36323 3.55431C4.36323 3.49018 4.3302 3.43057 4.27581 3.39658L2.78782 2.46658Z" fill="white"/>
</g>
<defs>
<clipPath id="clip0_264_2179">
<rect width="5.20798" height="5.20798" fill="white" transform="translate(0.642639 0.950439)"/>
</clipPath>
</defs>
</svg>
