<svg width="4" height="4" viewBox="0 0 4 4" fill="none" xmlns="http://www.w3.org/2000/svg">
<g clip-path="url(#clip0_264_2182)">
<path fill-rule="evenodd" clip-rule="evenodd" d="M1.16464 0.204686C0.950675 0.0524167 0.649675 0.202684 0.649675 0.46782V2.64083C0.649675 2.90598 0.950675 3.05625 1.16464 2.90398L2.69129 1.81746C2.87267 1.68838 2.87267 1.42027 2.69129 1.29119L1.16464 0.204686ZM3.03664 0.360838C3.03664 0.240992 3.1338 0.143839 3.25364 0.143839C3.37349 0.143839 3.47064 0.240992 3.47064 0.360838V2.74783C3.47064 2.86768 3.37349 2.96483 3.25364 2.96483C3.1338 2.96483 3.03664 2.86768 3.03664 2.74783V0.360838Z" fill="white"/>
</g>
<defs>
<clipPath id="clip0_264_2182">
<rect width="3.03799" height="3.03799" fill="white" transform="matrix(-1 0 0 1 3.5777 0.0355225)"/>
</clipPath>
</defs>
</svg>
