<svg width="594" height="73" viewBox="0 0 594 73" fill="none" xmlns="http://www.w3.org/2000/svg">
<mask id="path-1-outside-1_315_197" maskUnits="userSpaceOnUse" x="0.621582" y="0.0598145" width="593" height="73" fill="black">
<rect fill="white" x="0.621582" y="0.0598145" width="593" height="73"/>
<path d="M4.52489 27.4946C13.7818 28.7344 21.9642 36.5035 21.3856 46.339C21.055 51.1327 18.8235 55.5132 15.848 59.2325C14.2777 61.2987 12.542 63.1171 10.641 64.8527C9.23598 66.1751 7.83092 68.1587 5.59935 67.6628C5.59935 67.6628 5.59935 67.5802 5.5167 67.5802C4.60754 67.9108 3.53309 67.4975 3.28513 66.4231C3.11983 66.0925 3.03718 65.7619 2.95453 65.3486C2.87188 64.8527 2.95453 64.4395 3.11983 64.0262C2.87188 52.2898 2.37598 40.5534 1.63212 28.817C1.46682 27.2467 3.28513 26.7508 4.35959 27.4946C4.44224 27.4946 4.44224 27.4946 4.52489 27.4946ZM14.1124 55.6785C16.2613 52.7031 17.8317 49.0664 17.8317 45.3472C17.749 37.9912 11.9635 32.7843 5.26875 31.2139C6.01261 42.0411 6.42586 52.8684 6.67381 63.7783C7.08707 63.2824 7.99622 62.4559 8.16152 62.2906C8.90538 61.6293 9.64924 60.8855 10.3931 60.1416C11.7155 58.7366 13.0379 57.3315 14.1124 55.6785Z"/>
<path d="M45.889 61.712C45.8063 62.7038 45.8063 63.6956 45.8063 64.6874L45.7237 65.266C45.1451 67.4149 41.8391 66.919 41.8391 64.6874C41.8391 53.4469 41.5911 42.2064 40.9299 30.9659C40.7646 28.4038 44.7319 28.4038 44.8145 30.9659C45.4757 41.0493 45.7237 51.1327 45.8063 61.2161C45.8063 61.2161 45.8063 61.2987 45.889 61.3814C45.889 61.464 45.889 61.6293 45.889 61.712Z"/>
<path d="M95.1553 56.5877C95.8991 54.1908 99.701 55.1826 98.9572 57.6621C97.4695 63.2824 92.6757 67.6628 86.9728 68.82C81.8485 69.8944 76.5588 68.2414 72.5916 64.9354C67.9632 61.1334 65.9796 55.4305 65.9796 49.5623C65.9796 43.8594 67.302 37.9912 71.0212 33.5281C74.4099 29.3956 79.6996 27.164 84.9892 28.0732C87.4687 28.4864 86.4769 32.2883 83.9148 31.8751C78.2119 30.9659 73.4181 35.4291 71.4345 40.3881C69.4509 45.6778 69.0376 52.6204 71.6825 57.6621C74.162 62.2079 79.0384 65.3486 84.1627 65.1833C89.2044 65.1007 93.8328 61.464 95.1553 56.5877Z"/>
<path d="M141.872 65.3486C142.285 67.5802 138.897 68.4894 138.401 66.2578C137.244 60.3069 136.004 54.2734 134.764 48.2399C134.599 47.4134 134.434 46.6696 134.268 45.8431C132.119 46.0084 129.888 46.1737 127.656 46.339C125.425 53.199 123.441 60.059 121.705 67.0016C121.127 69.2332 117.656 68.3241 118.234 66.0925C121.54 53.3643 125.507 40.884 130.136 28.5691C130.797 26.8334 133.442 27.164 133.69 28.6517C135.26 29.9741 135.26 32.8669 135.673 34.6852C136.335 37.9912 136.996 41.2973 137.657 44.6033C139.062 51.546 140.467 58.406 141.872 65.3486ZM128.896 42.7023C130.466 42.6197 132.037 42.4544 133.607 42.3717L133.029 39.3963C132.698 37.9086 132.367 36.3382 132.037 34.8505C132.037 34.5199 131.954 34.272 131.871 34.024C130.88 36.9168 129.805 39.8096 128.896 42.7023Z"/>
<path d="M171.43 50.9674C173.827 53.5296 174.902 56.8356 173.744 60.2243C172.67 63.2824 170.108 65.7619 166.884 66.3404C164.653 66.7537 163.661 63.365 165.975 62.9518C170.19 62.2079 172.009 57.2489 169.281 53.9428C167.876 52.2072 165.975 50.9674 164.405 49.397C162.917 47.9093 161.76 46.1737 161.099 44.1901C159.611 39.9749 160.52 35.1811 163.413 31.7924C164.57 30.3874 166.471 28.5691 168.289 28.2385C169.86 27.9905 171.678 28.8997 171.513 30.6353C171.265 32.2883 169.447 32.7016 168.455 32.0404C168.372 32.123 168.289 32.2057 168.124 32.2057C167.959 32.371 167.711 32.5363 167.546 32.619C167.132 32.9496 166.802 33.2802 166.471 33.6108C165.81 34.3546 165.231 35.1811 164.818 36.0903C163.909 38.0739 163.744 40.3055 164.24 42.3717C165.314 46.339 168.868 48.1573 171.43 50.9674Z"/>
<path d="M233.693 27.4946C242.95 28.7344 251.133 36.5035 250.554 46.339C250.223 51.1327 247.992 55.5132 245.016 59.2325C243.446 61.2987 241.71 63.1171 239.809 64.8527C238.404 66.1751 236.999 68.1587 234.768 67.6628C234.768 67.6628 234.768 67.5802 234.685 67.5802C233.776 67.9108 232.701 67.4975 232.454 66.4231C232.288 66.0925 232.206 65.7619 232.123 65.3486C232.04 64.8527 232.123 64.4395 232.288 64.0262C232.04 52.2898 231.544 40.5534 230.801 28.817C230.635 27.2467 232.454 26.7508 233.528 27.4946C233.611 27.4946 233.611 27.4946 233.693 27.4946ZM243.281 55.6785C245.43 52.7031 247 49.0664 247 45.3472C246.917 37.9912 241.132 32.7843 234.437 31.2139C235.181 42.0411 235.594 52.8684 235.842 63.7783C236.255 63.2824 237.165 62.4559 237.33 62.2906C238.074 61.6293 238.818 60.8855 239.561 60.1416C240.884 58.7366 242.206 57.3315 243.281 55.6785Z"/>
<path d="M293.158 64.6874C295.224 63.1997 297.208 66.5884 295.142 68.0761C291.505 70.5556 286.959 72.126 282.661 70.5556C278.446 68.9853 276.71 65.3486 275.967 61.1334C274.396 52.1245 273.322 43.0329 272.413 33.9414C270.346 34.272 269.107 31.3792 271.008 30.3047C271.255 30.1394 271.503 30.0568 271.751 29.9741C271.834 29.9741 271.917 29.9741 271.999 29.9741C273.322 29.6435 274.644 29.3956 275.884 29.065C277.206 28.817 278.446 28.6517 279.768 28.5691C281.091 28.5691 282.413 28.5691 283.736 28.5691C285.885 28.6517 286.463 31.9577 284.232 32.4537C284.066 32.5363 283.901 32.5363 283.736 32.5363C283.57 32.5363 283.488 32.5363 283.405 32.5363C283.322 32.5363 283.24 32.5363 283.075 32.5363C282.165 32.5363 281.174 32.5363 280.182 32.5363C278.942 32.5363 277.702 32.7016 276.462 32.9496C276.38 32.9496 276.297 33.0322 276.297 33.0322C276.628 36.6688 277.041 40.3055 277.454 43.8594C277.702 43.9421 277.868 44.0247 278.033 44.1074C278.115 44.1901 278.198 44.1901 278.281 44.1901C278.363 44.2727 278.529 44.3554 278.611 44.438C278.942 44.3554 279.355 44.2727 279.521 44.2727C280.347 44.1074 281.091 44.0248 281.835 43.8594C283.405 43.6115 284.975 43.3635 286.463 43.1156C289.025 42.7023 290.017 46.5043 287.538 46.9175C285.389 47.2481 283.157 47.6614 281.008 47.992C280.016 48.1573 279.025 48.4052 278.033 48.4879C278.363 50.8848 278.777 53.2816 279.107 55.5958C279.603 58.9845 279.603 64.1915 282.827 66.2578C286.215 68.4067 290.182 66.671 293.158 64.6874Z"/>
<path d="M497.786 18.1551C499.934 17.3286 500.844 20.7999 498.695 21.5438C485.966 26.1722 472.081 23.3621 459.684 18.8163C448.195 14.6011 437.203 8.81555 425.218 6.00543C414.226 3.44326 402.655 4.10447 392.323 8.7329C387.529 10.8818 382.901 13.8572 379.182 17.5765C375.958 20.9652 373.561 25.0151 371.661 29.3129C368.437 36.5035 366.619 44.3554 365.627 52.2072C365.71 52.2072 365.792 52.2072 365.792 52.2072C365.379 56.3397 365.048 60.5549 364.801 64.7701C364.635 66.671 361.742 67.2496 361.329 65.266C360.007 59.8937 358.684 54.5214 357.279 49.1491C356.535 46.5043 355.874 43.9421 355.13 41.2973C354.552 39.231 354.139 36.9994 353.395 34.8505C353.312 34.8505 353.312 34.8505 353.229 34.7679C353.229 34.7679 353.147 34.6852 353.064 34.6852C353.147 34.6852 353.229 34.6852 353.312 34.6026C353.229 34.3546 353.147 34.1893 353.147 33.9414C352.981 33.6934 352.899 33.3628 352.816 33.0322C352.486 32.371 352.32 31.5445 353.064 30.9659C353.973 30.2221 354.717 30.47 355.378 31.1312C355.461 31.2139 355.544 31.2965 355.626 31.4618C355.792 31.6271 355.957 31.8751 356.04 32.2057C357.197 33.7761 357.445 36.3382 357.941 38.1565C358.767 40.9667 359.511 43.8594 360.255 46.6696C360.833 48.8185 361.412 51.0501 361.99 53.199C362.156 51.2154 362.486 49.3144 362.734 47.4134C362.734 47.3308 362.817 47.3308 362.817 47.2481C362.817 47.2481 362.817 47.2481 362.817 47.3308C364.057 39.5616 366.288 31.8751 369.76 24.9324C380.008 4.93097 404.638 -2.25964 425.466 2.45145C449.022 7.65844 472.66 27.164 497.786 18.1551Z"/>
<path d="M396.906 61.712C396.823 62.7038 396.823 63.6956 396.823 64.6874L396.741 65.266C396.162 67.4149 392.856 66.919 392.856 64.6874C392.856 53.4469 392.608 42.2064 391.947 30.9659C391.781 28.4038 395.749 28.4038 395.831 30.9659C396.493 41.0493 396.741 51.1327 396.823 61.2161C396.823 61.2161 396.823 61.2987 396.906 61.3814C396.906 61.464 396.906 61.6293 396.906 61.712Z"/>
<path d="M442.453 65.3486C442.866 67.5802 439.477 68.4894 438.981 66.2578C437.824 60.3069 436.585 54.2734 435.345 48.2399C435.18 47.4134 435.014 46.6696 434.849 45.8431C432.7 46.0084 430.468 46.1737 428.237 46.339C426.005 53.199 424.022 60.059 422.286 67.0016C421.707 69.2332 418.236 68.3241 418.815 66.0925C422.121 53.3643 426.088 40.884 430.716 28.5691C431.378 26.8334 434.022 27.164 434.27 28.6517C435.841 29.9741 435.841 32.8669 436.254 34.6852C436.915 37.9912 437.576 41.2973 438.238 44.6033C439.643 51.546 441.048 58.406 442.453 65.3486ZM429.477 42.7023C431.047 42.6197 432.617 42.4544 434.188 42.3717L433.609 39.3963C433.279 37.9086 432.948 36.3382 432.617 34.8505C432.617 34.5199 432.535 34.272 432.452 34.024C431.46 36.9168 430.386 39.8096 429.477 42.7023Z"/>
<path d="M489.205 57.4142C489.453 57.8274 489.536 58.3233 489.371 58.9019C489.371 58.9845 489.371 59.0672 489.371 59.1498C489.371 59.2325 489.371 59.3151 489.371 59.3151C489.371 59.9763 489.123 60.4722 488.627 60.8028C486.478 64.9354 481.601 66.8363 476.973 66.0098C471.435 65.018 466.724 60.3896 464.327 55.5132C461.683 50.2235 461.187 44.0247 463.088 38.4045C464.575 34.1893 468.873 26.2548 474.494 27.7426C476.973 28.4864 475.899 32.2883 473.419 31.6271C471.601 31.1312 469.369 34.7679 468.625 36.0076C467.551 37.7433 466.807 39.5616 466.311 41.5452C465.402 45.5951 465.898 49.8103 467.716 53.4469C469.534 57.1662 472.593 60.5549 476.56 61.7946C479.866 62.8691 483.833 61.96 485.321 58.7366C485.321 58.5713 485.321 58.406 485.321 58.2407C485.073 54.2734 484.825 50.3062 484.577 46.339C481.436 46.1737 478.295 46.339 475.072 46.7522C472.593 47.0828 472.593 43.1156 475.072 42.785C478.874 42.2891 482.593 42.2064 486.395 42.4544C486.726 42.4544 487.056 42.537 487.304 42.7023C487.8 42.8676 488.214 43.2809 488.379 44.0247C488.461 44.3554 488.461 44.6033 488.544 44.9339C488.627 45.2645 488.627 45.5951 488.544 45.8431C488.792 49.7276 488.957 53.6122 489.205 57.4142Z"/>
<path d="M534.433 64.6874C536.5 63.1997 538.483 66.5884 536.417 68.0761C532.78 70.5556 528.235 72.126 523.937 70.5556C519.722 68.9853 517.986 65.3486 517.242 61.1334C515.672 52.1245 514.597 43.0329 513.688 33.9414C511.622 34.272 510.382 31.3792 512.283 30.3047C512.531 30.1394 512.779 30.0568 513.027 29.9741C513.109 29.9741 513.192 29.9741 513.275 29.9741C514.597 29.6435 515.92 29.3956 517.159 29.065C518.482 28.817 519.722 28.6517 521.044 28.5691C522.366 28.5691 523.689 28.5691 525.011 28.5691C527.16 28.6517 527.739 31.9577 525.507 32.4537C525.342 32.5363 525.176 32.5363 525.011 32.5363C524.846 32.5363 524.763 32.5363 524.681 32.5363C524.598 32.5363 524.515 32.5363 524.35 32.5363C523.441 32.5363 522.449 32.5363 521.457 32.5363C520.217 32.5363 518.978 32.7016 517.738 32.9496C517.655 32.9496 517.573 33.0322 517.573 33.0322C517.903 36.6688 518.316 40.3055 518.73 43.8594C518.978 43.9421 519.143 44.0247 519.308 44.1074C519.391 44.1901 519.474 44.1901 519.556 44.1901C519.639 44.2727 519.804 44.3554 519.887 44.438C520.217 44.3554 520.631 44.2727 520.796 44.2727C521.622 44.1074 522.366 44.0248 523.11 43.8594C524.681 43.6115 526.251 43.3635 527.739 43.1156C530.301 42.7023 531.293 46.5043 528.813 46.9175C526.664 47.2481 524.433 47.6614 522.284 47.992C521.292 48.1573 520.3 48.4052 519.308 48.4879C519.639 50.8848 520.052 53.2816 520.383 55.5958C520.879 58.9845 520.879 64.1915 524.102 66.2578C527.491 68.4067 531.458 66.671 534.433 64.6874Z"/>
<path d="M590.884 29.8088C591.298 43.0329 591.794 56.3397 592.372 69.5638C592.537 71.5474 589.397 71.9607 588.901 70.0597C588.818 69.5638 588.735 69.0679 588.57 68.6547C588.487 68.1587 588.57 67.7455 588.735 67.4149C588.322 57.2489 587.909 47.0828 587.578 36.9168V36.9994C587.496 37.0821 587.496 37.0821 587.413 37.1647C585.677 39.5616 584.024 42.0411 582.454 44.5207C582.454 44.686 582.371 44.8513 582.289 45.0166C579.644 49.3144 577.412 53.8602 575.511 58.6539C575.015 59.811 573.858 60.059 572.949 59.7284C572.288 59.7284 571.627 59.3151 571.296 58.4886C569.065 52.2898 566.502 46.1737 563.61 40.2228C564.271 48.2399 564.519 56.1744 564.436 64.1915C564.601 64.5221 564.684 64.9354 564.601 65.3486C564.519 65.9272 564.436 66.5057 564.353 67.0843C564.023 69.0679 560.799 68.572 560.882 66.5884C561.047 54.5214 560.469 42.537 559.147 30.5527C558.816 28.3211 562.453 28.3211 562.7 30.5527V30.6353C566.833 38.2392 570.387 46.1737 573.528 54.2734C574.685 51.6286 575.842 48.9838 577.247 46.5043C580.057 40.2228 583.776 34.1893 587.413 28.3211C587.413 28.2385 587.496 28.1558 587.496 28.0732C587.992 25.8416 591.463 26.8334 590.884 29.065C590.884 29.1476 590.884 29.2303 590.802 29.3129C590.884 29.4782 590.884 29.6435 590.884 29.8088Z"/>
</mask>
<path d="M4.52489 27.4946C13.7818 28.7344 21.9642 36.5035 21.3856 46.339C21.055 51.1327 18.8235 55.5132 15.848 59.2325C14.2777 61.2987 12.542 63.1171 10.641 64.8527C9.23598 66.1751 7.83092 68.1587 5.59935 67.6628C5.59935 67.6628 5.59935 67.5802 5.5167 67.5802C4.60754 67.9108 3.53309 67.4975 3.28513 66.4231C3.11983 66.0925 3.03718 65.7619 2.95453 65.3486C2.87188 64.8527 2.95453 64.4395 3.11983 64.0262C2.87188 52.2898 2.37598 40.5534 1.63212 28.817C1.46682 27.2467 3.28513 26.7508 4.35959 27.4946C4.44224 27.4946 4.44224 27.4946 4.52489 27.4946ZM14.1124 55.6785C16.2613 52.7031 17.8317 49.0664 17.8317 45.3472C17.749 37.9912 11.9635 32.7843 5.26875 31.2139C6.01261 42.0411 6.42586 52.8684 6.67381 63.7783C7.08707 63.2824 7.99622 62.4559 8.16152 62.2906C8.90538 61.6293 9.64924 60.8855 10.3931 60.1416C11.7155 58.7366 13.0379 57.3315 14.1124 55.6785Z" fill="white"/>
<path d="M45.889 61.712C45.8063 62.7038 45.8063 63.6956 45.8063 64.6874L45.7237 65.266C45.1451 67.4149 41.8391 66.919 41.8391 64.6874C41.8391 53.4469 41.5911 42.2064 40.9299 30.9659C40.7646 28.4038 44.7319 28.4038 44.8145 30.9659C45.4757 41.0493 45.7237 51.1327 45.8063 61.2161C45.8063 61.2161 45.8063 61.2987 45.889 61.3814C45.889 61.464 45.889 61.6293 45.889 61.712Z" fill="white"/>
<path d="M95.1553 56.5877C95.8991 54.1908 99.701 55.1826 98.9572 57.6621C97.4695 63.2824 92.6757 67.6628 86.9728 68.82C81.8485 69.8944 76.5588 68.2414 72.5916 64.9354C67.9632 61.1334 65.9796 55.4305 65.9796 49.5623C65.9796 43.8594 67.302 37.9912 71.0212 33.5281C74.4099 29.3956 79.6996 27.164 84.9892 28.0732C87.4687 28.4864 86.4769 32.2883 83.9148 31.8751C78.2119 30.9659 73.4181 35.4291 71.4345 40.3881C69.4509 45.6778 69.0376 52.6204 71.6825 57.6621C74.162 62.2079 79.0384 65.3486 84.1627 65.1833C89.2044 65.1007 93.8328 61.464 95.1553 56.5877Z" fill="white"/>
<path d="M141.872 65.3486C142.285 67.5802 138.897 68.4894 138.401 66.2578C137.244 60.3069 136.004 54.2734 134.764 48.2399C134.599 47.4134 134.434 46.6696 134.268 45.8431C132.119 46.0084 129.888 46.1737 127.656 46.339C125.425 53.199 123.441 60.059 121.705 67.0016C121.127 69.2332 117.656 68.3241 118.234 66.0925C121.54 53.3643 125.507 40.884 130.136 28.5691C130.797 26.8334 133.442 27.164 133.69 28.6517C135.26 29.9741 135.26 32.8669 135.673 34.6852C136.335 37.9912 136.996 41.2973 137.657 44.6033C139.062 51.546 140.467 58.406 141.872 65.3486ZM128.896 42.7023C130.466 42.6197 132.037 42.4544 133.607 42.3717L133.029 39.3963C132.698 37.9086 132.367 36.3382 132.037 34.8505C132.037 34.5199 131.954 34.272 131.871 34.024C130.88 36.9168 129.805 39.8096 128.896 42.7023Z" fill="white"/>
<path d="M171.43 50.9674C173.827 53.5296 174.902 56.8356 173.744 60.2243C172.67 63.2824 170.108 65.7619 166.884 66.3404C164.653 66.7537 163.661 63.365 165.975 62.9518C170.19 62.2079 172.009 57.2489 169.281 53.9428C167.876 52.2072 165.975 50.9674 164.405 49.397C162.917 47.9093 161.76 46.1737 161.099 44.1901C159.611 39.9749 160.52 35.1811 163.413 31.7924C164.57 30.3874 166.471 28.5691 168.289 28.2385C169.86 27.9905 171.678 28.8997 171.513 30.6353C171.265 32.2883 169.447 32.7016 168.455 32.0404C168.372 32.123 168.289 32.2057 168.124 32.2057C167.959 32.371 167.711 32.5363 167.546 32.619C167.132 32.9496 166.802 33.2802 166.471 33.6108C165.81 34.3546 165.231 35.1811 164.818 36.0903C163.909 38.0739 163.744 40.3055 164.24 42.3717C165.314 46.339 168.868 48.1573 171.43 50.9674Z" fill="white"/>
<path d="M233.693 27.4946C242.95 28.7344 251.133 36.5035 250.554 46.339C250.223 51.1327 247.992 55.5132 245.016 59.2325C243.446 61.2987 241.71 63.1171 239.809 64.8527C238.404 66.1751 236.999 68.1587 234.768 67.6628C234.768 67.6628 234.768 67.5802 234.685 67.5802C233.776 67.9108 232.701 67.4975 232.454 66.4231C232.288 66.0925 232.206 65.7619 232.123 65.3486C232.04 64.8527 232.123 64.4395 232.288 64.0262C232.04 52.2898 231.544 40.5534 230.801 28.817C230.635 27.2467 232.454 26.7508 233.528 27.4946C233.611 27.4946 233.611 27.4946 233.693 27.4946ZM243.281 55.6785C245.43 52.7031 247 49.0664 247 45.3472C246.917 37.9912 241.132 32.7843 234.437 31.2139C235.181 42.0411 235.594 52.8684 235.842 63.7783C236.255 63.2824 237.165 62.4559 237.33 62.2906C238.074 61.6293 238.818 60.8855 239.561 60.1416C240.884 58.7366 242.206 57.3315 243.281 55.6785Z" fill="white"/>
<path d="M293.158 64.6874C295.224 63.1997 297.208 66.5884 295.142 68.0761C291.505 70.5556 286.959 72.126 282.661 70.5556C278.446 68.9853 276.71 65.3486 275.967 61.1334C274.396 52.1245 273.322 43.0329 272.413 33.9414C270.346 34.272 269.107 31.3792 271.008 30.3047C271.255 30.1394 271.503 30.0568 271.751 29.9741C271.834 29.9741 271.917 29.9741 271.999 29.9741C273.322 29.6435 274.644 29.3956 275.884 29.065C277.206 28.817 278.446 28.6517 279.768 28.5691C281.091 28.5691 282.413 28.5691 283.736 28.5691C285.885 28.6517 286.463 31.9577 284.232 32.4537C284.066 32.5363 283.901 32.5363 283.736 32.5363C283.57 32.5363 283.488 32.5363 283.405 32.5363C283.322 32.5363 283.24 32.5363 283.075 32.5363C282.165 32.5363 281.174 32.5363 280.182 32.5363C278.942 32.5363 277.702 32.7016 276.462 32.9496C276.38 32.9496 276.297 33.0322 276.297 33.0322C276.628 36.6688 277.041 40.3055 277.454 43.8594C277.702 43.9421 277.868 44.0247 278.033 44.1074C278.115 44.1901 278.198 44.1901 278.281 44.1901C278.363 44.2727 278.529 44.3554 278.611 44.438C278.942 44.3554 279.355 44.2727 279.521 44.2727C280.347 44.1074 281.091 44.0248 281.835 43.8594C283.405 43.6115 284.975 43.3635 286.463 43.1156C289.025 42.7023 290.017 46.5043 287.538 46.9175C285.389 47.2481 283.157 47.6614 281.008 47.992C280.016 48.1573 279.025 48.4052 278.033 48.4879C278.363 50.8848 278.777 53.2816 279.107 55.5958C279.603 58.9845 279.603 64.1915 282.827 66.2578C286.215 68.4067 290.182 66.671 293.158 64.6874Z" fill="white"/>
<path d="M497.786 18.1551C499.934 17.3286 500.844 20.7999 498.695 21.5438C485.966 26.1722 472.081 23.3621 459.684 18.8163C448.195 14.6011 437.203 8.81555 425.218 6.00543C414.226 3.44326 402.655 4.10447 392.323 8.7329C387.529 10.8818 382.901 13.8572 379.182 17.5765C375.958 20.9652 373.561 25.0151 371.661 29.3129C368.437 36.5035 366.619 44.3554 365.627 52.2072C365.71 52.2072 365.792 52.2072 365.792 52.2072C365.379 56.3397 365.048 60.5549 364.801 64.7701C364.635 66.671 361.742 67.2496 361.329 65.266C360.007 59.8937 358.684 54.5214 357.279 49.1491C356.535 46.5043 355.874 43.9421 355.13 41.2973C354.552 39.231 354.139 36.9994 353.395 34.8505C353.312 34.8505 353.312 34.8505 353.229 34.7679C353.229 34.7679 353.147 34.6852 353.064 34.6852C353.147 34.6852 353.229 34.6852 353.312 34.6026C353.229 34.3546 353.147 34.1893 353.147 33.9414C352.981 33.6934 352.899 33.3628 352.816 33.0322C352.486 32.371 352.32 31.5445 353.064 30.9659C353.973 30.2221 354.717 30.47 355.378 31.1312C355.461 31.2139 355.544 31.2965 355.626 31.4618C355.792 31.6271 355.957 31.8751 356.04 32.2057C357.197 33.7761 357.445 36.3382 357.941 38.1565C358.767 40.9667 359.511 43.8594 360.255 46.6696C360.833 48.8185 361.412 51.0501 361.99 53.199C362.156 51.2154 362.486 49.3144 362.734 47.4134C362.734 47.3308 362.817 47.3308 362.817 47.2481C362.817 47.2481 362.817 47.2481 362.817 47.3308C364.057 39.5616 366.288 31.8751 369.76 24.9324C380.008 4.93097 404.638 -2.25964 425.466 2.45145C449.022 7.65844 472.66 27.164 497.786 18.1551Z" fill="white"/>
<path d="M396.906 61.712C396.823 62.7038 396.823 63.6956 396.823 64.6874L396.741 65.266C396.162 67.4149 392.856 66.919 392.856 64.6874C392.856 53.4469 392.608 42.2064 391.947 30.9659C391.781 28.4038 395.749 28.4038 395.831 30.9659C396.493 41.0493 396.741 51.1327 396.823 61.2161C396.823 61.2161 396.823 61.2987 396.906 61.3814C396.906 61.464 396.906 61.6293 396.906 61.712Z" fill="white"/>
<path d="M442.453 65.3486C442.866 67.5802 439.477 68.4894 438.981 66.2578C437.824 60.3069 436.585 54.2734 435.345 48.2399C435.18 47.4134 435.014 46.6696 434.849 45.8431C432.7 46.0084 430.468 46.1737 428.237 46.339C426.005 53.199 424.022 60.059 422.286 67.0016C421.707 69.2332 418.236 68.3241 418.815 66.0925C422.121 53.3643 426.088 40.884 430.716 28.5691C431.378 26.8334 434.022 27.164 434.27 28.6517C435.841 29.9741 435.841 32.8669 436.254 34.6852C436.915 37.9912 437.576 41.2973 438.238 44.6033C439.643 51.546 441.048 58.406 442.453 65.3486ZM429.477 42.7023C431.047 42.6197 432.617 42.4544 434.188 42.3717L433.609 39.3963C433.279 37.9086 432.948 36.3382 432.617 34.8505C432.617 34.5199 432.535 34.272 432.452 34.024C431.46 36.9168 430.386 39.8096 429.477 42.7023Z" fill="white"/>
<path d="M489.205 57.4142C489.453 57.8274 489.536 58.3233 489.371 58.9019C489.371 58.9845 489.371 59.0672 489.371 59.1498C489.371 59.2325 489.371 59.3151 489.371 59.3151C489.371 59.9763 489.123 60.4722 488.627 60.8028C486.478 64.9354 481.601 66.8363 476.973 66.0098C471.435 65.018 466.724 60.3896 464.327 55.5132C461.683 50.2235 461.187 44.0247 463.088 38.4045C464.575 34.1893 468.873 26.2548 474.494 27.7426C476.973 28.4864 475.899 32.2883 473.419 31.6271C471.601 31.1312 469.369 34.7679 468.625 36.0076C467.551 37.7433 466.807 39.5616 466.311 41.5452C465.402 45.5951 465.898 49.8103 467.716 53.4469C469.534 57.1662 472.593 60.5549 476.56 61.7946C479.866 62.8691 483.833 61.96 485.321 58.7366C485.321 58.5713 485.321 58.406 485.321 58.2407C485.073 54.2734 484.825 50.3062 484.577 46.339C481.436 46.1737 478.295 46.339 475.072 46.7522C472.593 47.0828 472.593 43.1156 475.072 42.785C478.874 42.2891 482.593 42.2064 486.395 42.4544C486.726 42.4544 487.056 42.537 487.304 42.7023C487.8 42.8676 488.214 43.2809 488.379 44.0247C488.461 44.3554 488.461 44.6033 488.544 44.9339C488.627 45.2645 488.627 45.5951 488.544 45.8431C488.792 49.7276 488.957 53.6122 489.205 57.4142Z" fill="white"/>
<path d="M534.433 64.6874C536.5 63.1997 538.483 66.5884 536.417 68.0761C532.78 70.5556 528.235 72.126 523.937 70.5556C519.722 68.9853 517.986 65.3486 517.242 61.1334C515.672 52.1245 514.597 43.0329 513.688 33.9414C511.622 34.272 510.382 31.3792 512.283 30.3047C512.531 30.1394 512.779 30.0568 513.027 29.9741C513.109 29.9741 513.192 29.9741 513.275 29.9741C514.597 29.6435 515.92 29.3956 517.159 29.065C518.482 28.817 519.722 28.6517 521.044 28.5691C522.366 28.5691 523.689 28.5691 525.011 28.5691C527.16 28.6517 527.739 31.9577 525.507 32.4537C525.342 32.5363 525.176 32.5363 525.011 32.5363C524.846 32.5363 524.763 32.5363 524.681 32.5363C524.598 32.5363 524.515 32.5363 524.35 32.5363C523.441 32.5363 522.449 32.5363 521.457 32.5363C520.217 32.5363 518.978 32.7016 517.738 32.9496C517.655 32.9496 517.573 33.0322 517.573 33.0322C517.903 36.6688 518.316 40.3055 518.73 43.8594C518.978 43.9421 519.143 44.0247 519.308 44.1074C519.391 44.1901 519.474 44.1901 519.556 44.1901C519.639 44.2727 519.804 44.3554 519.887 44.438C520.217 44.3554 520.631 44.2727 520.796 44.2727C521.622 44.1074 522.366 44.0248 523.11 43.8594C524.681 43.6115 526.251 43.3635 527.739 43.1156C530.301 42.7023 531.293 46.5043 528.813 46.9175C526.664 47.2481 524.433 47.6614 522.284 47.992C521.292 48.1573 520.3 48.4052 519.308 48.4879C519.639 50.8848 520.052 53.2816 520.383 55.5958C520.879 58.9845 520.879 64.1915 524.102 66.2578C527.491 68.4067 531.458 66.671 534.433 64.6874Z" fill="white"/>
<path d="M590.884 29.8088C591.298 43.0329 591.794 56.3397 592.372 69.5638C592.537 71.5474 589.397 71.9607 588.901 70.0597C588.818 69.5638 588.735 69.0679 588.57 68.6547C588.487 68.1587 588.57 67.7455 588.735 67.4149C588.322 57.2489 587.909 47.0828 587.578 36.9168V36.9994C587.496 37.0821 587.496 37.0821 587.413 37.1647C585.677 39.5616 584.024 42.0411 582.454 44.5207C582.454 44.686 582.371 44.8513 582.289 45.0166C579.644 49.3144 577.412 53.8602 575.511 58.6539C575.015 59.811 573.858 60.059 572.949 59.7284C572.288 59.7284 571.627 59.3151 571.296 58.4886C569.065 52.2898 566.502 46.1737 563.61 40.2228C564.271 48.2399 564.519 56.1744 564.436 64.1915C564.601 64.5221 564.684 64.9354 564.601 65.3486C564.519 65.9272 564.436 66.5057 564.353 67.0843C564.023 69.0679 560.799 68.572 560.882 66.5884C561.047 54.5214 560.469 42.537 559.147 30.5527C558.816 28.3211 562.453 28.3211 562.7 30.5527V30.6353C566.833 38.2392 570.387 46.1737 573.528 54.2734C574.685 51.6286 575.842 48.9838 577.247 46.5043C580.057 40.2228 583.776 34.1893 587.413 28.3211C587.413 28.2385 587.496 28.1558 587.496 28.0732C587.992 25.8416 591.463 26.8334 590.884 29.065C590.884 29.1476 590.884 29.2303 590.802 29.3129C590.884 29.4782 590.884 29.6435 590.884 29.8088Z" fill="white"/>
<path d="M4.52489 27.4946C13.7818 28.7344 21.9642 36.5035 21.3856 46.339C21.055 51.1327 18.8235 55.5132 15.848 59.2325C14.2777 61.2987 12.542 63.1171 10.641 64.8527C9.23598 66.1751 7.83092 68.1587 5.59935 67.6628C5.59935 67.6628 5.59935 67.5802 5.5167 67.5802C4.60754 67.9108 3.53309 67.4975 3.28513 66.4231C3.11983 66.0925 3.03718 65.7619 2.95453 65.3486C2.87188 64.8527 2.95453 64.4395 3.11983 64.0262C2.87188 52.2898 2.37598 40.5534 1.63212 28.817C1.46682 27.2467 3.28513 26.7508 4.35959 27.4946C4.44224 27.4946 4.44224 27.4946 4.52489 27.4946ZM14.1124 55.6785C16.2613 52.7031 17.8317 49.0664 17.8317 45.3472C17.749 37.9912 11.9635 32.7843 5.26875 31.2139C6.01261 42.0411 6.42586 52.8684 6.67381 63.7783C7.08707 63.2824 7.99622 62.4559 8.16152 62.2906C8.90538 61.6293 9.64924 60.8855 10.3931 60.1416C11.7155 58.7366 13.0379 57.3315 14.1124 55.6785Z" stroke="white" stroke-width="1.55845" mask="url(#path-1-outside-1_315_197)"/>
<path d="M45.889 61.712C45.8063 62.7038 45.8063 63.6956 45.8063 64.6874L45.7237 65.266C45.1451 67.4149 41.8391 66.919 41.8391 64.6874C41.8391 53.4469 41.5911 42.2064 40.9299 30.9659C40.7646 28.4038 44.7319 28.4038 44.8145 30.9659C45.4757 41.0493 45.7237 51.1327 45.8063 61.2161C45.8063 61.2161 45.8063 61.2987 45.889 61.3814C45.889 61.464 45.889 61.6293 45.889 61.712Z" stroke="white" stroke-width="1.55845" mask="url(#path-1-outside-1_315_197)"/>
<path d="M95.1553 56.5877C95.8991 54.1908 99.701 55.1826 98.9572 57.6621C97.4695 63.2824 92.6757 67.6628 86.9728 68.82C81.8485 69.8944 76.5588 68.2414 72.5916 64.9354C67.9632 61.1334 65.9796 55.4305 65.9796 49.5623C65.9796 43.8594 67.302 37.9912 71.0212 33.5281C74.4099 29.3956 79.6996 27.164 84.9892 28.0732C87.4687 28.4864 86.4769 32.2883 83.9148 31.8751C78.2119 30.9659 73.4181 35.4291 71.4345 40.3881C69.4509 45.6778 69.0376 52.6204 71.6825 57.6621C74.162 62.2079 79.0384 65.3486 84.1627 65.1833C89.2044 65.1007 93.8328 61.464 95.1553 56.5877Z" stroke="white" stroke-width="1.55845" mask="url(#path-1-outside-1_315_197)"/>
<path d="M141.872 65.3486C142.285 67.5802 138.897 68.4894 138.401 66.2578C137.244 60.3069 136.004 54.2734 134.764 48.2399C134.599 47.4134 134.434 46.6696 134.268 45.8431C132.119 46.0084 129.888 46.1737 127.656 46.339C125.425 53.199 123.441 60.059 121.705 67.0016C121.127 69.2332 117.656 68.3241 118.234 66.0925C121.54 53.3643 125.507 40.884 130.136 28.5691C130.797 26.8334 133.442 27.164 133.69 28.6517C135.26 29.9741 135.26 32.8669 135.673 34.6852C136.335 37.9912 136.996 41.2973 137.657 44.6033C139.062 51.546 140.467 58.406 141.872 65.3486ZM128.896 42.7023C130.466 42.6197 132.037 42.4544 133.607 42.3717L133.029 39.3963C132.698 37.9086 132.367 36.3382 132.037 34.8505C132.037 34.5199 131.954 34.272 131.871 34.024C130.88 36.9168 129.805 39.8096 128.896 42.7023Z" stroke="white" stroke-width="1.55845" mask="url(#path-1-outside-1_315_197)"/>
<path d="M171.43 50.9674C173.827 53.5296 174.902 56.8356 173.744 60.2243C172.67 63.2824 170.108 65.7619 166.884 66.3404C164.653 66.7537 163.661 63.365 165.975 62.9518C170.19 62.2079 172.009 57.2489 169.281 53.9428C167.876 52.2072 165.975 50.9674 164.405 49.397C162.917 47.9093 161.76 46.1737 161.099 44.1901C159.611 39.9749 160.52 35.1811 163.413 31.7924C164.57 30.3874 166.471 28.5691 168.289 28.2385C169.86 27.9905 171.678 28.8997 171.513 30.6353C171.265 32.2883 169.447 32.7016 168.455 32.0404C168.372 32.123 168.289 32.2057 168.124 32.2057C167.959 32.371 167.711 32.5363 167.546 32.619C167.132 32.9496 166.802 33.2802 166.471 33.6108C165.81 34.3546 165.231 35.1811 164.818 36.0903C163.909 38.0739 163.744 40.3055 164.24 42.3717C165.314 46.339 168.868 48.1573 171.43 50.9674Z" stroke="white" stroke-width="1.55845" mask="url(#path-1-outside-1_315_197)"/>
<path d="M233.693 27.4946C242.95 28.7344 251.133 36.5035 250.554 46.339C250.223 51.1327 247.992 55.5132 245.016 59.2325C243.446 61.2987 241.71 63.1171 239.809 64.8527C238.404 66.1751 236.999 68.1587 234.768 67.6628C234.768 67.6628 234.768 67.5802 234.685 67.5802C233.776 67.9108 232.701 67.4975 232.454 66.4231C232.288 66.0925 232.206 65.7619 232.123 65.3486C232.04 64.8527 232.123 64.4395 232.288 64.0262C232.04 52.2898 231.544 40.5534 230.801 28.817C230.635 27.2467 232.454 26.7508 233.528 27.4946C233.611 27.4946 233.611 27.4946 233.693 27.4946ZM243.281 55.6785C245.43 52.7031 247 49.0664 247 45.3472C246.917 37.9912 241.132 32.7843 234.437 31.2139C235.181 42.0411 235.594 52.8684 235.842 63.7783C236.255 63.2824 237.165 62.4559 237.33 62.2906C238.074 61.6293 238.818 60.8855 239.561 60.1416C240.884 58.7366 242.206 57.3315 243.281 55.6785Z" stroke="white" stroke-width="1.55845" mask="url(#path-1-outside-1_315_197)"/>
<path d="M293.158 64.6874C295.224 63.1997 297.208 66.5884 295.142 68.0761C291.505 70.5556 286.959 72.126 282.661 70.5556C278.446 68.9853 276.71 65.3486 275.967 61.1334C274.396 52.1245 273.322 43.0329 272.413 33.9414C270.346 34.272 269.107 31.3792 271.008 30.3047C271.255 30.1394 271.503 30.0568 271.751 29.9741C271.834 29.9741 271.917 29.9741 271.999 29.9741C273.322 29.6435 274.644 29.3956 275.884 29.065C277.206 28.817 278.446 28.6517 279.768 28.5691C281.091 28.5691 282.413 28.5691 283.736 28.5691C285.885 28.6517 286.463 31.9577 284.232 32.4537C284.066 32.5363 283.901 32.5363 283.736 32.5363C283.57 32.5363 283.488 32.5363 283.405 32.5363C283.322 32.5363 283.24 32.5363 283.075 32.5363C282.165 32.5363 281.174 32.5363 280.182 32.5363C278.942 32.5363 277.702 32.7016 276.462 32.9496C276.38 32.9496 276.297 33.0322 276.297 33.0322C276.628 36.6688 277.041 40.3055 277.454 43.8594C277.702 43.9421 277.868 44.0247 278.033 44.1074C278.115 44.1901 278.198 44.1901 278.281 44.1901C278.363 44.2727 278.529 44.3554 278.611 44.438C278.942 44.3554 279.355 44.2727 279.521 44.2727C280.347 44.1074 281.091 44.0248 281.835 43.8594C283.405 43.6115 284.975 43.3635 286.463 43.1156C289.025 42.7023 290.017 46.5043 287.538 46.9175C285.389 47.2481 283.157 47.6614 281.008 47.992C280.016 48.1573 279.025 48.4052 278.033 48.4879C278.363 50.8848 278.777 53.2816 279.107 55.5958C279.603 58.9845 279.603 64.1915 282.827 66.2578C286.215 68.4067 290.182 66.671 293.158 64.6874Z" stroke="white" stroke-width="1.55845" mask="url(#path-1-outside-1_315_197)"/>
<path d="M497.786 18.1551C499.934 17.3286 500.844 20.7999 498.695 21.5438C485.966 26.1722 472.081 23.3621 459.684 18.8163C448.195 14.6011 437.203 8.81555 425.218 6.00543C414.226 3.44326 402.655 4.10447 392.323 8.7329C387.529 10.8818 382.901 13.8572 379.182 17.5765C375.958 20.9652 373.561 25.0151 371.661 29.3129C368.437 36.5035 366.619 44.3554 365.627 52.2072C365.71 52.2072 365.792 52.2072 365.792 52.2072C365.379 56.3397 365.048 60.5549 364.801 64.7701C364.635 66.671 361.742 67.2496 361.329 65.266C360.007 59.8937 358.684 54.5214 357.279 49.1491C356.535 46.5043 355.874 43.9421 355.13 41.2973C354.552 39.231 354.139 36.9994 353.395 34.8505C353.312 34.8505 353.312 34.8505 353.229 34.7679C353.229 34.7679 353.147 34.6852 353.064 34.6852C353.147 34.6852 353.229 34.6852 353.312 34.6026C353.229 34.3546 353.147 34.1893 353.147 33.9414C352.981 33.6934 352.899 33.3628 352.816 33.0322C352.486 32.371 352.32 31.5445 353.064 30.9659C353.973 30.2221 354.717 30.47 355.378 31.1312C355.461 31.2139 355.544 31.2965 355.626 31.4618C355.792 31.6271 355.957 31.8751 356.04 32.2057C357.197 33.7761 357.445 36.3382 357.941 38.1565C358.767 40.9667 359.511 43.8594 360.255 46.6696C360.833 48.8185 361.412 51.0501 361.99 53.199C362.156 51.2154 362.486 49.3144 362.734 47.4134C362.734 47.3308 362.817 47.3308 362.817 47.2481C362.817 47.2481 362.817 47.2481 362.817 47.3308C364.057 39.5616 366.288 31.8751 369.76 24.9324C380.008 4.93097 404.638 -2.25964 425.466 2.45145C449.022 7.65844 472.66 27.164 497.786 18.1551Z" stroke="white" stroke-width="1.55845" mask="url(#path-1-outside-1_315_197)"/>
<path d="M396.906 61.712C396.823 62.7038 396.823 63.6956 396.823 64.6874L396.741 65.266C396.162 67.4149 392.856 66.919 392.856 64.6874C392.856 53.4469 392.608 42.2064 391.947 30.9659C391.781 28.4038 395.749 28.4038 395.831 30.9659C396.493 41.0493 396.741 51.1327 396.823 61.2161C396.823 61.2161 396.823 61.2987 396.906 61.3814C396.906 61.464 396.906 61.6293 396.906 61.712Z" stroke="white" stroke-width="1.55845" mask="url(#path-1-outside-1_315_197)"/>
<path d="M442.453 65.3486C442.866 67.5802 439.477 68.4894 438.981 66.2578C437.824 60.3069 436.585 54.2734 435.345 48.2399C435.18 47.4134 435.014 46.6696 434.849 45.8431C432.7 46.0084 430.468 46.1737 428.237 46.339C426.005 53.199 424.022 60.059 422.286 67.0016C421.707 69.2332 418.236 68.3241 418.815 66.0925C422.121 53.3643 426.088 40.884 430.716 28.5691C431.378 26.8334 434.022 27.164 434.27 28.6517C435.841 29.9741 435.841 32.8669 436.254 34.6852C436.915 37.9912 437.576 41.2973 438.238 44.6033C439.643 51.546 441.048 58.406 442.453 65.3486ZM429.477 42.7023C431.047 42.6197 432.617 42.4544 434.188 42.3717L433.609 39.3963C433.279 37.9086 432.948 36.3382 432.617 34.8505C432.617 34.5199 432.535 34.272 432.452 34.024C431.46 36.9168 430.386 39.8096 429.477 42.7023Z" stroke="white" stroke-width="1.55845" mask="url(#path-1-outside-1_315_197)"/>
<path d="M489.205 57.4142C489.453 57.8274 489.536 58.3233 489.371 58.9019C489.371 58.9845 489.371 59.0672 489.371 59.1498C489.371 59.2325 489.371 59.3151 489.371 59.3151C489.371 59.9763 489.123 60.4722 488.627 60.8028C486.478 64.9354 481.601 66.8363 476.973 66.0098C471.435 65.018 466.724 60.3896 464.327 55.5132C461.683 50.2235 461.187 44.0247 463.088 38.4045C464.575 34.1893 468.873 26.2548 474.494 27.7426C476.973 28.4864 475.899 32.2883 473.419 31.6271C471.601 31.1312 469.369 34.7679 468.625 36.0076C467.551 37.7433 466.807 39.5616 466.311 41.5452C465.402 45.5951 465.898 49.8103 467.716 53.4469C469.534 57.1662 472.593 60.5549 476.56 61.7946C479.866 62.8691 483.833 61.96 485.321 58.7366C485.321 58.5713 485.321 58.406 485.321 58.2407C485.073 54.2734 484.825 50.3062 484.577 46.339C481.436 46.1737 478.295 46.339 475.072 46.7522C472.593 47.0828 472.593 43.1156 475.072 42.785C478.874 42.2891 482.593 42.2064 486.395 42.4544C486.726 42.4544 487.056 42.537 487.304 42.7023C487.8 42.8676 488.214 43.2809 488.379 44.0247C488.461 44.3554 488.461 44.6033 488.544 44.9339C488.627 45.2645 488.627 45.5951 488.544 45.8431C488.792 49.7276 488.957 53.6122 489.205 57.4142Z" stroke="white" stroke-width="1.55845" mask="url(#path-1-outside-1_315_197)"/>
<path d="M534.433 64.6874C536.5 63.1997 538.483 66.5884 536.417 68.0761C532.78 70.5556 528.235 72.126 523.937 70.5556C519.722 68.9853 517.986 65.3486 517.242 61.1334C515.672 52.1245 514.597 43.0329 513.688 33.9414C511.622 34.272 510.382 31.3792 512.283 30.3047C512.531 30.1394 512.779 30.0568 513.027 29.9741C513.109 29.9741 513.192 29.9741 513.275 29.9741C514.597 29.6435 515.92 29.3956 517.159 29.065C518.482 28.817 519.722 28.6517 521.044 28.5691C522.366 28.5691 523.689 28.5691 525.011 28.5691C527.16 28.6517 527.739 31.9577 525.507 32.4537C525.342 32.5363 525.176 32.5363 525.011 32.5363C524.846 32.5363 524.763 32.5363 524.681 32.5363C524.598 32.5363 524.515 32.5363 524.35 32.5363C523.441 32.5363 522.449 32.5363 521.457 32.5363C520.217 32.5363 518.978 32.7016 517.738 32.9496C517.655 32.9496 517.573 33.0322 517.573 33.0322C517.903 36.6688 518.316 40.3055 518.73 43.8594C518.978 43.9421 519.143 44.0247 519.308 44.1074C519.391 44.1901 519.474 44.1901 519.556 44.1901C519.639 44.2727 519.804 44.3554 519.887 44.438C520.217 44.3554 520.631 44.2727 520.796 44.2727C521.622 44.1074 522.366 44.0248 523.11 43.8594C524.681 43.6115 526.251 43.3635 527.739 43.1156C530.301 42.7023 531.293 46.5043 528.813 46.9175C526.664 47.2481 524.433 47.6614 522.284 47.992C521.292 48.1573 520.3 48.4052 519.308 48.4879C519.639 50.8848 520.052 53.2816 520.383 55.5958C520.879 58.9845 520.879 64.1915 524.102 66.2578C527.491 68.4067 531.458 66.671 534.433 64.6874Z" stroke="white" stroke-width="1.55845" mask="url(#path-1-outside-1_315_197)"/>
<path d="M590.884 29.8088C591.298 43.0329 591.794 56.3397 592.372 69.5638C592.537 71.5474 589.397 71.9607 588.901 70.0597C588.818 69.5638 588.735 69.0679 588.57 68.6547C588.487 68.1587 588.57 67.7455 588.735 67.4149C588.322 57.2489 587.909 47.0828 587.578 36.9168V36.9994C587.496 37.0821 587.496 37.0821 587.413 37.1647C585.677 39.5616 584.024 42.0411 582.454 44.5207C582.454 44.686 582.371 44.8513 582.289 45.0166C579.644 49.3144 577.412 53.8602 575.511 58.6539C575.015 59.811 573.858 60.059 572.949 59.7284C572.288 59.7284 571.627 59.3151 571.296 58.4886C569.065 52.2898 566.502 46.1737 563.61 40.2228C564.271 48.2399 564.519 56.1744 564.436 64.1915C564.601 64.5221 564.684 64.9354 564.601 65.3486C564.519 65.9272 564.436 66.5057 564.353 67.0843C564.023 69.0679 560.799 68.572 560.882 66.5884C561.047 54.5214 560.469 42.537 559.147 30.5527C558.816 28.3211 562.453 28.3211 562.7 30.5527V30.6353C566.833 38.2392 570.387 46.1737 573.528 54.2734C574.685 51.6286 575.842 48.9838 577.247 46.5043C580.057 40.2228 583.776 34.1893 587.413 28.3211C587.413 28.2385 587.496 28.1558 587.496 28.0732C587.992 25.8416 591.463 26.8334 590.884 29.065C590.884 29.1476 590.884 29.2303 590.802 29.3129C590.884 29.4782 590.884 29.6435 590.884 29.8088Z" stroke="white" stroke-width="1.55845" mask="url(#path-1-outside-1_315_197)"/>
</svg>
