<svg width="378" height="47" viewBox="0 0 378 47" fill="none" xmlns="http://www.w3.org/2000/svg">
<mask id="path-1-outside-1_318_683" maskUnits="userSpaceOnUse" x="0" y="0.121582" width="378" height="47" fill="black">
<rect fill="white" y="0.121582" width="378" height="47"/>
<path d="M2.84788 17.9466C8.73962 18.7357 13.9475 23.6805 13.5793 29.9405C13.3688 32.9916 11.9485 35.7796 10.0547 38.1468C9.05525 39.462 7.95055 40.6193 6.74063 41.724C5.84635 42.5656 4.95207 43.8282 3.53174 43.5125C3.53174 43.5125 3.53174 43.4599 3.47913 43.4599C2.90048 43.6704 2.21662 43.4073 2.0588 42.7235C1.95359 42.513 1.90099 42.3026 1.84838 42.0396C1.79578 41.724 1.84838 41.4609 1.95359 41.1979C1.79578 33.728 1.48015 26.2581 1.00671 18.7883C0.901497 17.7888 2.0588 17.4731 2.74267 17.9466C2.79527 17.9466 2.79527 17.9466 2.84788 17.9466ZM8.95004 35.8848C10.3178 33.9911 11.3173 31.6764 11.3173 29.3092C11.2647 24.6274 7.58231 21.3133 3.32132 20.3138C3.79476 27.205 4.05779 34.0963 4.2156 41.0401C4.47863 40.7245 5.05728 40.1984 5.16249 40.0932C5.63593 39.6724 6.10938 39.1989 6.58282 38.7255C7.4245 37.8312 8.26617 36.9369 8.95004 35.8848Z"/>
<path d="M29.175 39.725C29.1223 40.3562 29.1223 40.9875 29.1223 41.6188L29.0697 41.987C28.7015 43.3547 26.5973 43.0391 26.5973 41.6188C26.5973 34.4645 26.4395 27.3102 26.0187 20.156C25.9135 18.5252 28.4385 18.5252 28.4911 20.156C28.9119 26.5738 29.0697 32.9916 29.1223 39.4094C29.1223 39.4094 29.1223 39.462 29.175 39.5146C29.175 39.5672 29.175 39.6724 29.175 39.725Z"/>
<path d="M60.5315 36.4635C61.005 34.9379 63.4248 35.5692 62.9514 37.1474C62.0045 40.7245 58.9534 43.5125 55.3237 44.249C52.0622 44.9329 48.6955 43.8808 46.1704 41.7766C43.2246 39.3568 41.962 35.727 41.962 31.9921C41.962 28.3623 42.8037 24.6274 45.1709 21.7867C47.3277 19.1565 50.6944 17.7362 54.0612 18.3148C55.6393 18.5778 55.008 20.9977 53.3773 20.7346C49.7476 20.156 46.6965 22.9967 45.434 26.1529C44.1714 29.5197 43.9084 33.9385 45.5918 37.1474C47.1699 40.0406 50.2736 42.0396 53.5351 41.9344C56.744 41.8818 59.6899 39.5672 60.5315 36.4635Z"/>
<path d="M90.2656 42.0396C90.5286 43.4599 88.3718 44.0386 88.0562 42.6183C87.3197 38.8307 86.5306 34.9906 85.7416 31.1504C85.6364 30.6244 85.5312 30.1509 85.4259 29.6249C84.0582 29.7301 82.6379 29.8353 81.2176 29.9405C79.7972 34.3067 78.5347 38.6729 77.43 43.0917C77.0618 44.512 74.8524 43.9334 75.2206 42.513C77.3248 34.4119 79.8498 26.4686 82.7957 18.6304C83.2165 17.5257 84.8999 17.7362 85.0577 18.6831C86.0572 19.5247 86.0572 21.3659 86.3202 22.5232C86.7411 24.6274 87.1619 26.7316 87.5827 28.8358C88.477 33.2546 89.3713 37.6208 90.2656 42.0396ZM82.0066 27.6259C83.0061 27.5733 84.0056 27.4681 85.0051 27.4155L84.6369 25.5217C84.4265 24.5748 84.216 23.5753 84.0056 22.6284C84.0056 22.418 83.953 22.2602 83.9004 22.1024C83.2691 23.9435 82.5853 25.7847 82.0066 27.6259Z"/>
<path d="M109.078 32.8864C110.604 34.5171 111.288 36.6213 110.551 38.7781C109.867 40.7245 108.237 42.3026 106.185 42.6709C104.765 42.9339 104.134 40.7771 105.606 40.5141C108.289 40.0406 109.447 36.8843 107.711 34.7801C106.816 33.6754 105.606 32.8864 104.607 31.8869C103.66 30.94 102.924 29.8353 102.503 28.5728C101.556 25.8899 102.135 22.8388 103.976 20.682C104.712 19.7878 105.922 18.6304 107.079 18.42C108.079 18.2622 109.236 18.8409 109.131 19.9456C108.973 20.9977 107.816 21.2607 107.185 20.8399C107.132 20.8925 107.079 20.9451 106.974 20.9451C106.869 21.0503 106.711 21.1555 106.606 21.2081C106.343 21.4185 106.133 21.6289 105.922 21.8393C105.501 22.3128 105.133 22.8388 104.87 23.4175C104.291 24.68 104.186 26.1003 104.502 27.4155C105.186 29.9405 107.448 31.0978 109.078 32.8864Z"/>
<path d="M148.707 17.9466C154.599 18.7357 159.807 23.6805 159.438 29.9405C159.228 32.9916 157.808 35.7796 155.914 38.1468C154.914 39.462 153.81 40.6193 152.6 41.724C151.706 42.5656 150.811 43.8282 149.391 43.5125C149.391 43.5125 149.391 43.4599 149.338 43.4599C148.76 43.6704 148.076 43.4073 147.918 42.7235C147.813 42.513 147.76 42.3026 147.708 42.0396C147.655 41.724 147.708 41.4609 147.813 41.1979C147.655 33.728 147.339 26.2581 146.866 18.7883C146.761 17.7888 147.918 17.4731 148.602 17.9466C148.655 17.9466 148.655 17.9466 148.707 17.9466ZM154.809 35.8848C156.177 33.9911 157.176 31.6764 157.176 29.3092C157.124 24.6274 153.442 21.3133 149.181 20.3138C149.654 27.205 149.917 34.0963 150.075 41.0401C150.338 40.7245 150.917 40.1984 151.022 40.0932C151.495 39.6724 151.969 39.1989 152.442 38.7255C153.284 37.8312 154.125 36.9369 154.809 35.8848Z"/>
<path d="M186.555 41.6188C187.87 40.6719 189.132 42.8287 187.817 43.7756C185.503 45.3537 182.609 46.3532 179.874 45.3537C177.191 44.3542 176.086 42.0396 175.613 39.3568C174.613 33.6228 173.93 27.8363 173.351 22.0498C172.036 22.2602 171.247 20.419 172.457 19.7351C172.614 19.6299 172.772 19.5773 172.93 19.5247C172.983 19.5247 173.035 19.5247 173.088 19.5247C173.93 19.3143 174.771 19.1565 175.56 18.9461C176.402 18.7883 177.191 18.6831 178.033 18.6304C178.874 18.6304 179.716 18.6304 180.558 18.6304C181.925 18.6831 182.294 20.7872 180.873 21.1029C180.768 21.1555 180.663 21.1555 180.558 21.1555C180.453 21.1555 180.4 21.1555 180.347 21.1555C180.295 21.1555 180.242 21.1555 180.137 21.1555C179.558 21.1555 178.927 21.1555 178.296 21.1555C177.507 21.1555 176.718 21.2607 175.928 21.4185C175.876 21.4185 175.823 21.4711 175.823 21.4711C176.034 23.7857 176.297 26.1003 176.56 28.3623C176.718 28.4149 176.823 28.4676 176.928 28.5202C176.981 28.5728 177.033 28.5728 177.086 28.5728C177.138 28.6254 177.244 28.678 177.296 28.7306C177.507 28.678 177.77 28.6254 177.875 28.6254C178.401 28.5202 178.874 28.4676 179.348 28.3623C180.347 28.2045 181.347 28.0467 182.294 27.8889C183.924 27.6259 184.556 30.0457 182.978 30.3087C181.61 30.5191 180.189 30.7822 178.822 30.9926C178.19 31.0978 177.559 31.2556 176.928 31.3082C177.138 32.8338 177.401 34.3593 177.612 35.8322C177.927 37.989 177.927 41.3031 179.979 42.6183C182.136 43.986 184.661 42.8813 186.555 41.6188Z"/>
<path d="M316.794 12.0022C318.162 11.4762 318.741 13.6856 317.373 14.159C309.272 17.1049 300.434 15.3163 292.544 12.4231C285.231 9.74023 278.235 6.05789 270.607 4.26933C263.611 2.63858 256.246 3.05942 249.671 6.00529C246.62 7.37301 243.674 9.26679 241.306 11.634C239.255 13.7908 237.729 16.3684 236.519 19.1039C234.468 23.6805 233.31 28.678 232.679 33.6754C232.732 33.6754 232.784 33.6754 232.784 33.6754C232.521 36.3057 232.311 38.9885 232.153 41.6714C232.048 42.8813 230.207 43.2495 229.944 41.987C229.102 38.5677 228.26 35.1484 227.366 31.7291C226.893 30.0457 226.472 28.4149 225.998 26.7316C225.63 25.4165 225.367 23.9961 224.894 22.6284C224.841 22.6284 224.841 22.6284 224.788 22.5758C224.788 22.5758 224.736 22.5232 224.683 22.5232C224.736 22.5232 224.788 22.5232 224.841 22.4706C224.788 22.3128 224.736 22.2076 224.736 22.0498C224.631 21.8919 224.578 21.6815 224.525 21.4711C224.315 21.0503 224.21 20.5242 224.683 20.156C225.262 19.6825 225.735 19.8404 226.156 20.2612C226.209 20.3138 226.261 20.3664 226.314 20.4716C226.419 20.5768 226.524 20.7346 226.577 20.9451C227.314 21.9446 227.471 23.5753 227.787 24.7326C228.313 26.5212 228.786 28.3623 229.26 30.1509C229.628 31.5186 229.996 32.939 230.365 34.3067C230.47 33.0442 230.68 31.8343 230.838 30.6244C230.838 30.5717 230.891 30.5717 230.891 30.5191C230.891 30.5191 230.891 30.5191 230.891 30.5717C231.68 25.6269 233.1 20.7346 235.309 16.3158C241.832 3.58546 257.509 -0.991157 270.765 2.00732C285.758 5.32142 300.802 17.7362 316.794 12.0022Z"/>
<path d="M252.587 39.725C252.535 40.3562 252.535 40.9875 252.535 41.6188L252.482 41.987C252.114 43.3547 250.01 43.0391 250.01 41.6188C250.01 34.4645 249.852 27.3102 249.431 20.156C249.326 18.5252 251.851 18.5252 251.903 20.156C252.324 26.5738 252.482 32.9916 252.535 39.4094C252.535 39.4094 252.535 39.462 252.587 39.5146C252.587 39.5672 252.587 39.6724 252.587 39.725Z"/>
<path d="M281.577 42.0396C281.84 43.4599 279.683 44.0386 279.367 42.6183C278.631 38.8307 277.842 34.9906 277.053 31.1504C276.947 30.6244 276.842 30.1509 276.737 29.6249C275.369 29.7301 273.949 29.8353 272.529 29.9405C271.108 34.3067 269.846 38.6729 268.741 43.0917C268.373 44.512 266.163 43.9334 266.532 42.513C268.636 34.4119 271.161 26.4686 274.107 18.6304C274.528 17.5257 276.211 17.7362 276.369 18.6831C277.368 19.5247 277.368 21.3659 277.631 22.5232C278.052 24.6274 278.473 26.7316 278.894 28.8358C279.788 33.2546 280.682 37.6208 281.577 42.0396ZM273.318 27.6259C274.317 27.5733 275.317 27.4681 276.316 27.4155L275.948 25.5217C275.738 24.5748 275.527 23.5753 275.317 22.6284C275.317 22.418 275.264 22.2602 275.211 22.1024C274.58 23.9435 273.896 25.7847 273.318 27.6259Z"/>
<path d="M311.333 36.9895C311.491 37.2526 311.544 37.5682 311.439 37.9364C311.439 37.989 311.439 38.0416 311.439 38.0942C311.439 38.1468 311.439 38.1994 311.439 38.1994C311.439 38.6203 311.281 38.9359 310.965 39.1463C309.597 41.7766 306.494 42.9865 303.548 42.4604C300.023 41.8292 297.025 38.8833 295.499 35.7796C293.816 32.4129 293.5 28.4676 294.71 24.8904C295.657 22.2076 298.393 17.1575 301.97 18.1044C303.548 18.5778 302.864 20.9977 301.286 20.5768C300.129 20.2612 298.708 22.5758 298.235 23.3649C297.551 24.4696 297.077 25.6269 296.762 26.8894C296.183 29.467 296.499 32.1499 297.656 34.4645C298.813 36.8317 300.76 38.9885 303.285 39.7776C305.389 40.4615 307.914 39.8828 308.861 37.8312C308.861 37.726 308.861 37.6208 308.861 37.5156C308.703 34.9906 308.545 32.4655 308.387 29.9405C306.388 29.8353 304.39 29.9405 302.338 30.2035C300.76 30.4139 300.76 27.8889 302.338 27.6785C304.758 27.3629 307.125 27.3102 309.545 27.4681C309.755 27.4681 309.966 27.5207 310.123 27.6259C310.439 27.7311 310.702 27.9941 310.807 28.4676C310.86 28.678 310.86 28.8358 310.913 29.0462C310.965 29.2566 310.965 29.467 310.913 29.6249C311.07 32.0973 311.176 34.5697 311.333 36.9895Z"/>
<path d="M340.12 41.6188C341.435 40.6719 342.697 42.8287 341.382 43.7756C339.068 45.3537 336.174 46.3532 333.439 45.3537C330.756 44.3542 329.651 42.0396 329.178 39.3568C328.178 33.6228 327.495 27.8363 326.916 22.0498C325.601 22.2602 324.812 20.419 326.022 19.7351C326.179 19.6299 326.337 19.5773 326.495 19.5247C326.548 19.5247 326.6 19.5247 326.653 19.5247C327.495 19.3143 328.336 19.1565 329.125 18.9461C329.967 18.7883 330.756 18.6831 331.598 18.6304C332.439 18.6304 333.281 18.6304 334.123 18.6304C335.49 18.6831 335.859 20.7872 334.438 21.1029C334.333 21.1555 334.228 21.1555 334.123 21.1555C334.018 21.1555 333.965 21.1555 333.912 21.1555C333.86 21.1555 333.807 21.1555 333.702 21.1555C333.123 21.1555 332.492 21.1555 331.861 21.1555C331.072 21.1555 330.283 21.2607 329.494 21.4185C329.441 21.4185 329.388 21.4711 329.388 21.4711C329.599 23.7857 329.862 26.1003 330.125 28.3623C330.283 28.4149 330.388 28.4676 330.493 28.5202C330.546 28.5728 330.598 28.5728 330.651 28.5728C330.703 28.6254 330.809 28.678 330.861 28.7306C331.072 28.678 331.335 28.6254 331.44 28.6254C331.966 28.5202 332.439 28.4676 332.913 28.3623C333.912 28.2045 334.912 28.0467 335.859 27.8889C337.489 27.6259 338.121 30.0457 336.543 30.3087C335.175 30.5191 333.755 30.7822 332.387 30.9926C331.756 31.0978 331.124 31.2556 330.493 31.3082C330.703 32.8338 330.966 34.3593 331.177 35.8322C331.492 37.989 331.492 41.3031 333.544 42.6183C335.701 43.986 338.226 42.8813 340.12 41.6188Z"/>
<path d="M376.049 19.4195C376.312 27.8363 376.628 36.3057 376.996 44.7224C377.101 45.985 375.102 46.248 374.787 45.0381C374.734 44.7224 374.681 44.4068 374.576 44.1438C374.524 43.8282 374.576 43.5651 374.681 43.3547C374.418 36.8843 374.155 30.4139 373.945 23.9435V23.9961C373.892 24.0487 373.892 24.0487 373.84 24.1014C372.735 25.6269 371.683 27.205 370.683 28.7832C370.683 28.8884 370.631 28.9936 370.578 29.0988C368.895 31.8343 367.475 34.7275 366.265 37.7786C365.949 38.5151 365.213 38.6729 364.634 38.4625C364.213 38.4625 363.792 38.1994 363.582 37.6734C362.161 33.728 360.531 29.8353 358.69 26.0477C359.11 31.1504 359.268 36.2005 359.216 41.3031C359.321 41.5136 359.373 41.7766 359.321 42.0396C359.268 42.4078 359.216 42.7761 359.163 43.1443C358.953 44.4068 356.901 44.0912 356.954 42.8287C357.059 35.1484 356.691 27.5207 355.849 19.893C355.638 18.4726 357.953 18.4726 358.111 19.893V19.9456C360.741 24.7852 363.003 29.8353 365.002 34.9906C365.739 33.3072 366.475 31.6238 367.369 30.0457C369.158 26.0477 371.525 22.2076 373.84 18.4726C373.84 18.42 373.892 18.3674 373.892 18.3148C374.208 16.8945 376.417 17.5257 376.049 18.9461C376.049 18.9987 376.049 19.0513 375.997 19.1039C376.049 19.2091 376.049 19.3143 376.049 19.4195Z"/>
</mask>
<path d="M2.84788 17.9466C8.73962 18.7357 13.9475 23.6805 13.5793 29.9405C13.3688 32.9916 11.9485 35.7796 10.0547 38.1468C9.05525 39.462 7.95055 40.6193 6.74063 41.724C5.84635 42.5656 4.95207 43.8282 3.53174 43.5125C3.53174 43.5125 3.53174 43.4599 3.47913 43.4599C2.90048 43.6704 2.21662 43.4073 2.0588 42.7235C1.95359 42.513 1.90099 42.3026 1.84838 42.0396C1.79578 41.724 1.84838 41.4609 1.95359 41.1979C1.79578 33.728 1.48015 26.2581 1.00671 18.7883C0.901497 17.7888 2.0588 17.4731 2.74267 17.9466C2.79527 17.9466 2.79527 17.9466 2.84788 17.9466ZM8.95004 35.8848C10.3178 33.9911 11.3173 31.6764 11.3173 29.3092C11.2647 24.6274 7.58231 21.3133 3.32132 20.3138C3.79476 27.205 4.05779 34.0963 4.2156 41.0401C4.47863 40.7245 5.05728 40.1984 5.16249 40.0932C5.63593 39.6724 6.10938 39.1989 6.58282 38.7255C7.4245 37.8312 8.26617 36.9369 8.95004 35.8848Z" fill="white"/>
<path d="M29.175 39.725C29.1223 40.3562 29.1223 40.9875 29.1223 41.6188L29.0697 41.987C28.7015 43.3547 26.5973 43.0391 26.5973 41.6188C26.5973 34.4645 26.4395 27.3102 26.0187 20.156C25.9135 18.5252 28.4385 18.5252 28.4911 20.156C28.9119 26.5738 29.0697 32.9916 29.1223 39.4094C29.1223 39.4094 29.1223 39.462 29.175 39.5146C29.175 39.5672 29.175 39.6724 29.175 39.725Z" fill="white"/>
<path d="M60.5315 36.4635C61.005 34.9379 63.4248 35.5692 62.9514 37.1474C62.0045 40.7245 58.9534 43.5125 55.3237 44.249C52.0622 44.9329 48.6955 43.8808 46.1704 41.7766C43.2246 39.3568 41.962 35.727 41.962 31.9921C41.962 28.3623 42.8037 24.6274 45.1709 21.7867C47.3277 19.1565 50.6944 17.7362 54.0612 18.3148C55.6393 18.5778 55.008 20.9977 53.3773 20.7346C49.7476 20.156 46.6965 22.9967 45.434 26.1529C44.1714 29.5197 43.9084 33.9385 45.5918 37.1474C47.1699 40.0406 50.2736 42.0396 53.5351 41.9344C56.744 41.8818 59.6899 39.5672 60.5315 36.4635Z" fill="white"/>
<path d="M90.2656 42.0396C90.5286 43.4599 88.3718 44.0386 88.0562 42.6183C87.3197 38.8307 86.5306 34.9906 85.7416 31.1504C85.6364 30.6244 85.5312 30.1509 85.4259 29.6249C84.0582 29.7301 82.6379 29.8353 81.2176 29.9405C79.7972 34.3067 78.5347 38.6729 77.43 43.0917C77.0618 44.512 74.8524 43.9334 75.2206 42.513C77.3248 34.4119 79.8498 26.4686 82.7957 18.6304C83.2165 17.5257 84.8999 17.7362 85.0577 18.6831C86.0572 19.5247 86.0572 21.3659 86.3202 22.5232C86.7411 24.6274 87.1619 26.7316 87.5827 28.8358C88.477 33.2546 89.3713 37.6208 90.2656 42.0396ZM82.0066 27.6259C83.0061 27.5733 84.0056 27.4681 85.0051 27.4155L84.6369 25.5217C84.4265 24.5748 84.216 23.5753 84.0056 22.6284C84.0056 22.418 83.953 22.2602 83.9004 22.1024C83.2691 23.9435 82.5853 25.7847 82.0066 27.6259Z" fill="white"/>
<path d="M109.078 32.8864C110.604 34.5171 111.288 36.6213 110.551 38.7781C109.867 40.7245 108.237 42.3026 106.185 42.6709C104.765 42.9339 104.134 40.7771 105.606 40.5141C108.289 40.0406 109.447 36.8843 107.711 34.7801C106.816 33.6754 105.606 32.8864 104.607 31.8869C103.66 30.94 102.924 29.8353 102.503 28.5728C101.556 25.8899 102.135 22.8388 103.976 20.682C104.712 19.7878 105.922 18.6304 107.079 18.42C108.079 18.2622 109.236 18.8409 109.131 19.9456C108.973 20.9977 107.816 21.2607 107.185 20.8399C107.132 20.8925 107.079 20.9451 106.974 20.9451C106.869 21.0503 106.711 21.1555 106.606 21.2081C106.343 21.4185 106.133 21.6289 105.922 21.8393C105.501 22.3128 105.133 22.8388 104.87 23.4175C104.291 24.68 104.186 26.1003 104.502 27.4155C105.186 29.9405 107.448 31.0978 109.078 32.8864Z" fill="white"/>
<path d="M148.707 17.9466C154.599 18.7357 159.807 23.6805 159.438 29.9405C159.228 32.9916 157.808 35.7796 155.914 38.1468C154.914 39.462 153.81 40.6193 152.6 41.724C151.706 42.5656 150.811 43.8282 149.391 43.5125C149.391 43.5125 149.391 43.4599 149.338 43.4599C148.76 43.6704 148.076 43.4073 147.918 42.7235C147.813 42.513 147.76 42.3026 147.708 42.0396C147.655 41.724 147.708 41.4609 147.813 41.1979C147.655 33.728 147.339 26.2581 146.866 18.7883C146.761 17.7888 147.918 17.4731 148.602 17.9466C148.655 17.9466 148.655 17.9466 148.707 17.9466ZM154.809 35.8848C156.177 33.9911 157.176 31.6764 157.176 29.3092C157.124 24.6274 153.442 21.3133 149.181 20.3138C149.654 27.205 149.917 34.0963 150.075 41.0401C150.338 40.7245 150.917 40.1984 151.022 40.0932C151.495 39.6724 151.969 39.1989 152.442 38.7255C153.284 37.8312 154.125 36.9369 154.809 35.8848Z" fill="white"/>
<path d="M186.555 41.6188C187.87 40.6719 189.132 42.8287 187.817 43.7756C185.503 45.3537 182.609 46.3532 179.874 45.3537C177.191 44.3542 176.086 42.0396 175.613 39.3568C174.613 33.6228 173.93 27.8363 173.351 22.0498C172.036 22.2602 171.247 20.419 172.457 19.7351C172.614 19.6299 172.772 19.5773 172.93 19.5247C172.983 19.5247 173.035 19.5247 173.088 19.5247C173.93 19.3143 174.771 19.1565 175.56 18.9461C176.402 18.7883 177.191 18.6831 178.033 18.6304C178.874 18.6304 179.716 18.6304 180.558 18.6304C181.925 18.6831 182.294 20.7872 180.873 21.1029C180.768 21.1555 180.663 21.1555 180.558 21.1555C180.453 21.1555 180.4 21.1555 180.347 21.1555C180.295 21.1555 180.242 21.1555 180.137 21.1555C179.558 21.1555 178.927 21.1555 178.296 21.1555C177.507 21.1555 176.718 21.2607 175.928 21.4185C175.876 21.4185 175.823 21.4711 175.823 21.4711C176.034 23.7857 176.297 26.1003 176.56 28.3623C176.718 28.4149 176.823 28.4676 176.928 28.5202C176.981 28.5728 177.033 28.5728 177.086 28.5728C177.138 28.6254 177.244 28.678 177.296 28.7306C177.507 28.678 177.77 28.6254 177.875 28.6254C178.401 28.5202 178.874 28.4676 179.348 28.3623C180.347 28.2045 181.347 28.0467 182.294 27.8889C183.924 27.6259 184.556 30.0457 182.978 30.3087C181.61 30.5191 180.189 30.7822 178.822 30.9926C178.19 31.0978 177.559 31.2556 176.928 31.3082C177.138 32.8338 177.401 34.3593 177.612 35.8322C177.927 37.989 177.927 41.3031 179.979 42.6183C182.136 43.986 184.661 42.8813 186.555 41.6188Z" fill="white"/>
<path d="M316.794 12.0022C318.162 11.4762 318.741 13.6856 317.373 14.159C309.272 17.1049 300.434 15.3163 292.544 12.4231C285.231 9.74023 278.235 6.05789 270.607 4.26933C263.611 2.63858 256.246 3.05942 249.671 6.00529C246.62 7.37301 243.674 9.26679 241.306 11.634C239.255 13.7908 237.729 16.3684 236.519 19.1039C234.468 23.6805 233.31 28.678 232.679 33.6754C232.732 33.6754 232.784 33.6754 232.784 33.6754C232.521 36.3057 232.311 38.9885 232.153 41.6714C232.048 42.8813 230.207 43.2495 229.944 41.987C229.102 38.5677 228.26 35.1484 227.366 31.7291C226.893 30.0457 226.472 28.4149 225.998 26.7316C225.63 25.4165 225.367 23.9961 224.894 22.6284C224.841 22.6284 224.841 22.6284 224.788 22.5758C224.788 22.5758 224.736 22.5232 224.683 22.5232C224.736 22.5232 224.788 22.5232 224.841 22.4706C224.788 22.3128 224.736 22.2076 224.736 22.0498C224.631 21.8919 224.578 21.6815 224.525 21.4711C224.315 21.0503 224.21 20.5242 224.683 20.156C225.262 19.6825 225.735 19.8404 226.156 20.2612C226.209 20.3138 226.261 20.3664 226.314 20.4716C226.419 20.5768 226.524 20.7346 226.577 20.9451C227.314 21.9446 227.471 23.5753 227.787 24.7326C228.313 26.5212 228.786 28.3623 229.26 30.1509C229.628 31.5186 229.996 32.939 230.365 34.3067C230.47 33.0442 230.68 31.8343 230.838 30.6244C230.838 30.5717 230.891 30.5717 230.891 30.5191C230.891 30.5191 230.891 30.5191 230.891 30.5717C231.68 25.6269 233.1 20.7346 235.309 16.3158C241.832 3.58546 257.509 -0.991157 270.765 2.00732C285.758 5.32142 300.802 17.7362 316.794 12.0022Z" fill="white"/>
<path d="M252.587 39.725C252.535 40.3562 252.535 40.9875 252.535 41.6188L252.482 41.987C252.114 43.3547 250.01 43.0391 250.01 41.6188C250.01 34.4645 249.852 27.3102 249.431 20.156C249.326 18.5252 251.851 18.5252 251.903 20.156C252.324 26.5738 252.482 32.9916 252.535 39.4094C252.535 39.4094 252.535 39.462 252.587 39.5146C252.587 39.5672 252.587 39.6724 252.587 39.725Z" fill="white"/>
<path d="M281.577 42.0396C281.84 43.4599 279.683 44.0386 279.367 42.6183C278.631 38.8307 277.842 34.9906 277.053 31.1504C276.947 30.6244 276.842 30.1509 276.737 29.6249C275.369 29.7301 273.949 29.8353 272.529 29.9405C271.108 34.3067 269.846 38.6729 268.741 43.0917C268.373 44.512 266.163 43.9334 266.532 42.513C268.636 34.4119 271.161 26.4686 274.107 18.6304C274.528 17.5257 276.211 17.7362 276.369 18.6831C277.368 19.5247 277.368 21.3659 277.631 22.5232C278.052 24.6274 278.473 26.7316 278.894 28.8358C279.788 33.2546 280.682 37.6208 281.577 42.0396ZM273.318 27.6259C274.317 27.5733 275.317 27.4681 276.316 27.4155L275.948 25.5217C275.738 24.5748 275.527 23.5753 275.317 22.6284C275.317 22.418 275.264 22.2602 275.211 22.1024C274.58 23.9435 273.896 25.7847 273.318 27.6259Z" fill="white"/>
<path d="M311.333 36.9895C311.491 37.2526 311.544 37.5682 311.439 37.9364C311.439 37.989 311.439 38.0416 311.439 38.0942C311.439 38.1468 311.439 38.1994 311.439 38.1994C311.439 38.6203 311.281 38.9359 310.965 39.1463C309.597 41.7766 306.494 42.9865 303.548 42.4604C300.023 41.8292 297.025 38.8833 295.499 35.7796C293.816 32.4129 293.5 28.4676 294.71 24.8904C295.657 22.2076 298.393 17.1575 301.97 18.1044C303.548 18.5778 302.864 20.9977 301.286 20.5768C300.129 20.2612 298.708 22.5758 298.235 23.3649C297.551 24.4696 297.077 25.6269 296.762 26.8894C296.183 29.467 296.499 32.1499 297.656 34.4645C298.813 36.8317 300.76 38.9885 303.285 39.7776C305.389 40.4615 307.914 39.8828 308.861 37.8312C308.861 37.726 308.861 37.6208 308.861 37.5156C308.703 34.9906 308.545 32.4655 308.387 29.9405C306.388 29.8353 304.39 29.9405 302.338 30.2035C300.76 30.4139 300.76 27.8889 302.338 27.6785C304.758 27.3629 307.125 27.3102 309.545 27.4681C309.755 27.4681 309.966 27.5207 310.123 27.6259C310.439 27.7311 310.702 27.9941 310.807 28.4676C310.86 28.678 310.86 28.8358 310.913 29.0462C310.965 29.2566 310.965 29.467 310.913 29.6249C311.07 32.0973 311.176 34.5697 311.333 36.9895Z" fill="white"/>
<path d="M340.12 41.6188C341.435 40.6719 342.697 42.8287 341.382 43.7756C339.068 45.3537 336.174 46.3532 333.439 45.3537C330.756 44.3542 329.651 42.0396 329.178 39.3568C328.178 33.6228 327.495 27.8363 326.916 22.0498C325.601 22.2602 324.812 20.419 326.022 19.7351C326.179 19.6299 326.337 19.5773 326.495 19.5247C326.548 19.5247 326.6 19.5247 326.653 19.5247C327.495 19.3143 328.336 19.1565 329.125 18.9461C329.967 18.7883 330.756 18.6831 331.598 18.6304C332.439 18.6304 333.281 18.6304 334.123 18.6304C335.49 18.6831 335.859 20.7872 334.438 21.1029C334.333 21.1555 334.228 21.1555 334.123 21.1555C334.018 21.1555 333.965 21.1555 333.912 21.1555C333.86 21.1555 333.807 21.1555 333.702 21.1555C333.123 21.1555 332.492 21.1555 331.861 21.1555C331.072 21.1555 330.283 21.2607 329.494 21.4185C329.441 21.4185 329.388 21.4711 329.388 21.4711C329.599 23.7857 329.862 26.1003 330.125 28.3623C330.283 28.4149 330.388 28.4676 330.493 28.5202C330.546 28.5728 330.598 28.5728 330.651 28.5728C330.703 28.6254 330.809 28.678 330.861 28.7306C331.072 28.678 331.335 28.6254 331.44 28.6254C331.966 28.5202 332.439 28.4676 332.913 28.3623C333.912 28.2045 334.912 28.0467 335.859 27.8889C337.489 27.6259 338.121 30.0457 336.543 30.3087C335.175 30.5191 333.755 30.7822 332.387 30.9926C331.756 31.0978 331.124 31.2556 330.493 31.3082C330.703 32.8338 330.966 34.3593 331.177 35.8322C331.492 37.989 331.492 41.3031 333.544 42.6183C335.701 43.986 338.226 42.8813 340.12 41.6188Z" fill="white"/>
<path d="M376.049 19.4195C376.312 27.8363 376.628 36.3057 376.996 44.7224C377.101 45.985 375.102 46.248 374.787 45.0381C374.734 44.7224 374.681 44.4068 374.576 44.1438C374.524 43.8282 374.576 43.5651 374.681 43.3547C374.418 36.8843 374.155 30.4139 373.945 23.9435V23.9961C373.892 24.0487 373.892 24.0487 373.84 24.1014C372.735 25.6269 371.683 27.205 370.683 28.7832C370.683 28.8884 370.631 28.9936 370.578 29.0988C368.895 31.8343 367.475 34.7275 366.265 37.7786C365.949 38.5151 365.213 38.6729 364.634 38.4625C364.213 38.4625 363.792 38.1994 363.582 37.6734C362.161 33.728 360.531 29.8353 358.69 26.0477C359.11 31.1504 359.268 36.2005 359.216 41.3031C359.321 41.5136 359.373 41.7766 359.321 42.0396C359.268 42.4078 359.216 42.7761 359.163 43.1443C358.953 44.4068 356.901 44.0912 356.954 42.8287C357.059 35.1484 356.691 27.5207 355.849 19.893C355.638 18.4726 357.953 18.4726 358.111 19.893V19.9456C360.741 24.7852 363.003 29.8353 365.002 34.9906C365.739 33.3072 366.475 31.6238 367.369 30.0457C369.158 26.0477 371.525 22.2076 373.84 18.4726C373.84 18.42 373.892 18.3674 373.892 18.3148C374.208 16.8945 376.417 17.5257 376.049 18.9461C376.049 18.9987 376.049 19.0513 375.997 19.1039C376.049 19.2091 376.049 19.3143 376.049 19.4195Z" fill="white"/>
<path d="M2.84788 17.9466C8.73962 18.7357 13.9475 23.6805 13.5793 29.9405C13.3688 32.9916 11.9485 35.7796 10.0547 38.1468C9.05525 39.462 7.95055 40.6193 6.74063 41.724C5.84635 42.5656 4.95207 43.8282 3.53174 43.5125C3.53174 43.5125 3.53174 43.4599 3.47913 43.4599C2.90048 43.6704 2.21662 43.4073 2.0588 42.7235C1.95359 42.513 1.90099 42.3026 1.84838 42.0396C1.79578 41.724 1.84838 41.4609 1.95359 41.1979C1.79578 33.728 1.48015 26.2581 1.00671 18.7883C0.901497 17.7888 2.0588 17.4731 2.74267 17.9466C2.79527 17.9466 2.79527 17.9466 2.84788 17.9466ZM8.95004 35.8848C10.3178 33.9911 11.3173 31.6764 11.3173 29.3092C11.2647 24.6274 7.58231 21.3133 3.32132 20.3138C3.79476 27.205 4.05779 34.0963 4.2156 41.0401C4.47863 40.7245 5.05728 40.1984 5.16249 40.0932C5.63593 39.6724 6.10938 39.1989 6.58282 38.7255C7.4245 37.8312 8.26617 36.9369 8.95004 35.8848Z" stroke="white" stroke-width="0.991911" mask="url(#path-1-outside-1_318_683)"/>
<path d="M29.175 39.725C29.1223 40.3562 29.1223 40.9875 29.1223 41.6188L29.0697 41.987C28.7015 43.3547 26.5973 43.0391 26.5973 41.6188C26.5973 34.4645 26.4395 27.3102 26.0187 20.156C25.9135 18.5252 28.4385 18.5252 28.4911 20.156C28.9119 26.5738 29.0697 32.9916 29.1223 39.4094C29.1223 39.4094 29.1223 39.462 29.175 39.5146C29.175 39.5672 29.175 39.6724 29.175 39.725Z" stroke="white" stroke-width="0.991911" mask="url(#path-1-outside-1_318_683)"/>
<path d="M60.5315 36.4635C61.005 34.9379 63.4248 35.5692 62.9514 37.1474C62.0045 40.7245 58.9534 43.5125 55.3237 44.249C52.0622 44.9329 48.6955 43.8808 46.1704 41.7766C43.2246 39.3568 41.962 35.727 41.962 31.9921C41.962 28.3623 42.8037 24.6274 45.1709 21.7867C47.3277 19.1565 50.6944 17.7362 54.0612 18.3148C55.6393 18.5778 55.008 20.9977 53.3773 20.7346C49.7476 20.156 46.6965 22.9967 45.434 26.1529C44.1714 29.5197 43.9084 33.9385 45.5918 37.1474C47.1699 40.0406 50.2736 42.0396 53.5351 41.9344C56.744 41.8818 59.6899 39.5672 60.5315 36.4635Z" stroke="white" stroke-width="0.991911" mask="url(#path-1-outside-1_318_683)"/>
<path d="M90.2656 42.0396C90.5286 43.4599 88.3718 44.0386 88.0562 42.6183C87.3197 38.8307 86.5306 34.9906 85.7416 31.1504C85.6364 30.6244 85.5312 30.1509 85.4259 29.6249C84.0582 29.7301 82.6379 29.8353 81.2176 29.9405C79.7972 34.3067 78.5347 38.6729 77.43 43.0917C77.0618 44.512 74.8524 43.9334 75.2206 42.513C77.3248 34.4119 79.8498 26.4686 82.7957 18.6304C83.2165 17.5257 84.8999 17.7362 85.0577 18.6831C86.0572 19.5247 86.0572 21.3659 86.3202 22.5232C86.7411 24.6274 87.1619 26.7316 87.5827 28.8358C88.477 33.2546 89.3713 37.6208 90.2656 42.0396ZM82.0066 27.6259C83.0061 27.5733 84.0056 27.4681 85.0051 27.4155L84.6369 25.5217C84.4265 24.5748 84.216 23.5753 84.0056 22.6284C84.0056 22.418 83.953 22.2602 83.9004 22.1024C83.2691 23.9435 82.5853 25.7847 82.0066 27.6259Z" stroke="white" stroke-width="0.991911" mask="url(#path-1-outside-1_318_683)"/>
<path d="M109.078 32.8864C110.604 34.5171 111.288 36.6213 110.551 38.7781C109.867 40.7245 108.237 42.3026 106.185 42.6709C104.765 42.9339 104.134 40.7771 105.606 40.5141C108.289 40.0406 109.447 36.8843 107.711 34.7801C106.816 33.6754 105.606 32.8864 104.607 31.8869C103.66 30.94 102.924 29.8353 102.503 28.5728C101.556 25.8899 102.135 22.8388 103.976 20.682C104.712 19.7878 105.922 18.6304 107.079 18.42C108.079 18.2622 109.236 18.8409 109.131 19.9456C108.973 20.9977 107.816 21.2607 107.185 20.8399C107.132 20.8925 107.079 20.9451 106.974 20.9451C106.869 21.0503 106.711 21.1555 106.606 21.2081C106.343 21.4185 106.133 21.6289 105.922 21.8393C105.501 22.3128 105.133 22.8388 104.87 23.4175C104.291 24.68 104.186 26.1003 104.502 27.4155C105.186 29.9405 107.448 31.0978 109.078 32.8864Z" stroke="white" stroke-width="0.991911" mask="url(#path-1-outside-1_318_683)"/>
<path d="M148.707 17.9466C154.599 18.7357 159.807 23.6805 159.438 29.9405C159.228 32.9916 157.808 35.7796 155.914 38.1468C154.914 39.462 153.81 40.6193 152.6 41.724C151.706 42.5656 150.811 43.8282 149.391 43.5125C149.391 43.5125 149.391 43.4599 149.338 43.4599C148.76 43.6704 148.076 43.4073 147.918 42.7235C147.813 42.513 147.76 42.3026 147.708 42.0396C147.655 41.724 147.708 41.4609 147.813 41.1979C147.655 33.728 147.339 26.2581 146.866 18.7883C146.761 17.7888 147.918 17.4731 148.602 17.9466C148.655 17.9466 148.655 17.9466 148.707 17.9466ZM154.809 35.8848C156.177 33.9911 157.176 31.6764 157.176 29.3092C157.124 24.6274 153.442 21.3133 149.181 20.3138C149.654 27.205 149.917 34.0963 150.075 41.0401C150.338 40.7245 150.917 40.1984 151.022 40.0932C151.495 39.6724 151.969 39.1989 152.442 38.7255C153.284 37.8312 154.125 36.9369 154.809 35.8848Z" stroke="white" stroke-width="0.991911" mask="url(#path-1-outside-1_318_683)"/>
<path d="M186.555 41.6188C187.87 40.6719 189.132 42.8287 187.817 43.7756C185.503 45.3537 182.609 46.3532 179.874 45.3537C177.191 44.3542 176.086 42.0396 175.613 39.3568C174.613 33.6228 173.93 27.8363 173.351 22.0498C172.036 22.2602 171.247 20.419 172.457 19.7351C172.614 19.6299 172.772 19.5773 172.93 19.5247C172.983 19.5247 173.035 19.5247 173.088 19.5247C173.93 19.3143 174.771 19.1565 175.56 18.9461C176.402 18.7883 177.191 18.6831 178.033 18.6304C178.874 18.6304 179.716 18.6304 180.558 18.6304C181.925 18.6831 182.294 20.7872 180.873 21.1029C180.768 21.1555 180.663 21.1555 180.558 21.1555C180.453 21.1555 180.4 21.1555 180.347 21.1555C180.295 21.1555 180.242 21.1555 180.137 21.1555C179.558 21.1555 178.927 21.1555 178.296 21.1555C177.507 21.1555 176.718 21.2607 175.928 21.4185C175.876 21.4185 175.823 21.4711 175.823 21.4711C176.034 23.7857 176.297 26.1003 176.56 28.3623C176.718 28.4149 176.823 28.4676 176.928 28.5202C176.981 28.5728 177.033 28.5728 177.086 28.5728C177.138 28.6254 177.244 28.678 177.296 28.7306C177.507 28.678 177.77 28.6254 177.875 28.6254C178.401 28.5202 178.874 28.4676 179.348 28.3623C180.347 28.2045 181.347 28.0467 182.294 27.8889C183.924 27.6259 184.556 30.0457 182.978 30.3087C181.61 30.5191 180.189 30.7822 178.822 30.9926C178.19 31.0978 177.559 31.2556 176.928 31.3082C177.138 32.8338 177.401 34.3593 177.612 35.8322C177.927 37.989 177.927 41.3031 179.979 42.6183C182.136 43.986 184.661 42.8813 186.555 41.6188Z" stroke="white" stroke-width="0.991911" mask="url(#path-1-outside-1_318_683)"/>
<path d="M316.794 12.0022C318.162 11.4762 318.741 13.6856 317.373 14.159C309.272 17.1049 300.434 15.3163 292.544 12.4231C285.231 9.74023 278.235 6.05789 270.607 4.26933C263.611 2.63858 256.246 3.05942 249.671 6.00529C246.62 7.37301 243.674 9.26679 241.306 11.634C239.255 13.7908 237.729 16.3684 236.519 19.1039C234.468 23.6805 233.31 28.678 232.679 33.6754C232.732 33.6754 232.784 33.6754 232.784 33.6754C232.521 36.3057 232.311 38.9885 232.153 41.6714C232.048 42.8813 230.207 43.2495 229.944 41.987C229.102 38.5677 228.26 35.1484 227.366 31.7291C226.893 30.0457 226.472 28.4149 225.998 26.7316C225.63 25.4165 225.367 23.9961 224.894 22.6284C224.841 22.6284 224.841 22.6284 224.788 22.5758C224.788 22.5758 224.736 22.5232 224.683 22.5232C224.736 22.5232 224.788 22.5232 224.841 22.4706C224.788 22.3128 224.736 22.2076 224.736 22.0498C224.631 21.8919 224.578 21.6815 224.525 21.4711C224.315 21.0503 224.21 20.5242 224.683 20.156C225.262 19.6825 225.735 19.8404 226.156 20.2612C226.209 20.3138 226.261 20.3664 226.314 20.4716C226.419 20.5768 226.524 20.7346 226.577 20.9451C227.314 21.9446 227.471 23.5753 227.787 24.7326C228.313 26.5212 228.786 28.3623 229.26 30.1509C229.628 31.5186 229.996 32.939 230.365 34.3067C230.47 33.0442 230.68 31.8343 230.838 30.6244C230.838 30.5717 230.891 30.5717 230.891 30.5191C230.891 30.5191 230.891 30.5191 230.891 30.5717C231.68 25.6269 233.1 20.7346 235.309 16.3158C241.832 3.58546 257.509 -0.991157 270.765 2.00732C285.758 5.32142 300.802 17.7362 316.794 12.0022Z" stroke="white" stroke-width="0.991911" mask="url(#path-1-outside-1_318_683)"/>
<path d="M252.587 39.725C252.535 40.3562 252.535 40.9875 252.535 41.6188L252.482 41.987C252.114 43.3547 250.01 43.0391 250.01 41.6188C250.01 34.4645 249.852 27.3102 249.431 20.156C249.326 18.5252 251.851 18.5252 251.903 20.156C252.324 26.5738 252.482 32.9916 252.535 39.4094C252.535 39.4094 252.535 39.462 252.587 39.5146C252.587 39.5672 252.587 39.6724 252.587 39.725Z" stroke="white" stroke-width="0.991911" mask="url(#path-1-outside-1_318_683)"/>
<path d="M281.577 42.0396C281.84 43.4599 279.683 44.0386 279.367 42.6183C278.631 38.8307 277.842 34.9906 277.053 31.1504C276.947 30.6244 276.842 30.1509 276.737 29.6249C275.369 29.7301 273.949 29.8353 272.529 29.9405C271.108 34.3067 269.846 38.6729 268.741 43.0917C268.373 44.512 266.163 43.9334 266.532 42.513C268.636 34.4119 271.161 26.4686 274.107 18.6304C274.528 17.5257 276.211 17.7362 276.369 18.6831C277.368 19.5247 277.368 21.3659 277.631 22.5232C278.052 24.6274 278.473 26.7316 278.894 28.8358C279.788 33.2546 280.682 37.6208 281.577 42.0396ZM273.318 27.6259C274.317 27.5733 275.317 27.4681 276.316 27.4155L275.948 25.5217C275.738 24.5748 275.527 23.5753 275.317 22.6284C275.317 22.418 275.264 22.2602 275.211 22.1024C274.58 23.9435 273.896 25.7847 273.318 27.6259Z" stroke="white" stroke-width="0.991911" mask="url(#path-1-outside-1_318_683)"/>
<path d="M311.333 36.9895C311.491 37.2526 311.544 37.5682 311.439 37.9364C311.439 37.989 311.439 38.0416 311.439 38.0942C311.439 38.1468 311.439 38.1994 311.439 38.1994C311.439 38.6203 311.281 38.9359 310.965 39.1463C309.597 41.7766 306.494 42.9865 303.548 42.4604C300.023 41.8292 297.025 38.8833 295.499 35.7796C293.816 32.4129 293.5 28.4676 294.71 24.8904C295.657 22.2076 298.393 17.1575 301.97 18.1044C303.548 18.5778 302.864 20.9977 301.286 20.5768C300.129 20.2612 298.708 22.5758 298.235 23.3649C297.551 24.4696 297.077 25.6269 296.762 26.8894C296.183 29.467 296.499 32.1499 297.656 34.4645C298.813 36.8317 300.76 38.9885 303.285 39.7776C305.389 40.4615 307.914 39.8828 308.861 37.8312C308.861 37.726 308.861 37.6208 308.861 37.5156C308.703 34.9906 308.545 32.4655 308.387 29.9405C306.388 29.8353 304.39 29.9405 302.338 30.2035C300.76 30.4139 300.76 27.8889 302.338 27.6785C304.758 27.3629 307.125 27.3102 309.545 27.4681C309.755 27.4681 309.966 27.5207 310.123 27.6259C310.439 27.7311 310.702 27.9941 310.807 28.4676C310.86 28.678 310.86 28.8358 310.913 29.0462C310.965 29.2566 310.965 29.467 310.913 29.6249C311.07 32.0973 311.176 34.5697 311.333 36.9895Z" stroke="white" stroke-width="0.991911" mask="url(#path-1-outside-1_318_683)"/>
<path d="M340.12 41.6188C341.435 40.6719 342.697 42.8287 341.382 43.7756C339.068 45.3537 336.174 46.3532 333.439 45.3537C330.756 44.3542 329.651 42.0396 329.178 39.3568C328.178 33.6228 327.495 27.8363 326.916 22.0498C325.601 22.2602 324.812 20.419 326.022 19.7351C326.179 19.6299 326.337 19.5773 326.495 19.5247C326.548 19.5247 326.6 19.5247 326.653 19.5247C327.495 19.3143 328.336 19.1565 329.125 18.9461C329.967 18.7883 330.756 18.6831 331.598 18.6304C332.439 18.6304 333.281 18.6304 334.123 18.6304C335.49 18.6831 335.859 20.7872 334.438 21.1029C334.333 21.1555 334.228 21.1555 334.123 21.1555C334.018 21.1555 333.965 21.1555 333.912 21.1555C333.86 21.1555 333.807 21.1555 333.702 21.1555C333.123 21.1555 332.492 21.1555 331.861 21.1555C331.072 21.1555 330.283 21.2607 329.494 21.4185C329.441 21.4185 329.388 21.4711 329.388 21.4711C329.599 23.7857 329.862 26.1003 330.125 28.3623C330.283 28.4149 330.388 28.4676 330.493 28.5202C330.546 28.5728 330.598 28.5728 330.651 28.5728C330.703 28.6254 330.809 28.678 330.861 28.7306C331.072 28.678 331.335 28.6254 331.44 28.6254C331.966 28.5202 332.439 28.4676 332.913 28.3623C333.912 28.2045 334.912 28.0467 335.859 27.8889C337.489 27.6259 338.121 30.0457 336.543 30.3087C335.175 30.5191 333.755 30.7822 332.387 30.9926C331.756 31.0978 331.124 31.2556 330.493 31.3082C330.703 32.8338 330.966 34.3593 331.177 35.8322C331.492 37.989 331.492 41.3031 333.544 42.6183C335.701 43.986 338.226 42.8813 340.12 41.6188Z" stroke="white" stroke-width="0.991911" mask="url(#path-1-outside-1_318_683)"/>
<path d="M376.049 19.4195C376.312 27.8363 376.628 36.3057 376.996 44.7224C377.101 45.985 375.102 46.248 374.787 45.0381C374.734 44.7224 374.681 44.4068 374.576 44.1438C374.524 43.8282 374.576 43.5651 374.681 43.3547C374.418 36.8843 374.155 30.4139 373.945 23.9435V23.9961C373.892 24.0487 373.892 24.0487 373.84 24.1014C372.735 25.6269 371.683 27.205 370.683 28.7832C370.683 28.8884 370.631 28.9936 370.578 29.0988C368.895 31.8343 367.475 34.7275 366.265 37.7786C365.949 38.5151 365.213 38.6729 364.634 38.4625C364.213 38.4625 363.792 38.1994 363.582 37.6734C362.161 33.728 360.531 29.8353 358.69 26.0477C359.11 31.1504 359.268 36.2005 359.216 41.3031C359.321 41.5136 359.373 41.7766 359.321 42.0396C359.268 42.4078 359.216 42.7761 359.163 43.1443C358.953 44.4068 356.901 44.0912 356.954 42.8287C357.059 35.1484 356.691 27.5207 355.849 19.893C355.638 18.4726 357.953 18.4726 358.111 19.893V19.9456C360.741 24.7852 363.003 29.8353 365.002 34.9906C365.739 33.3072 366.475 31.6238 367.369 30.0457C369.158 26.0477 371.525 22.2076 373.84 18.4726C373.84 18.42 373.892 18.3674 373.892 18.3148C374.208 16.8945 376.417 17.5257 376.049 18.9461C376.049 18.9987 376.049 19.0513 375.997 19.1039C376.049 19.2091 376.049 19.3143 376.049 19.4195Z" stroke="white" stroke-width="0.991911" mask="url(#path-1-outside-1_318_683)"/>
</svg>
