<svg width="42" height="39" viewBox="0 0 42 39" fill="none" xmlns="http://www.w3.org/2000/svg">
<g clip-path="url(#clip0_258_1488)">
<path d="M41.4655 20.334C41.5037 20.1597 41.5347 19.9638 41.518 19.7465C41.4989 19.5434 41.4583 19.3762 41.4225 19.2186C41.3508 18.9057 41.2983 18.6167 41.2744 18.3133C41.2505 18.0124 41.2529 17.7066 41.272 17.4009C41.2791 17.2432 41.2983 17.1023 41.3126 16.9303C41.3341 16.6963 41.2911 16.4789 41.2314 16.2926C41.1048 15.92 40.9185 15.6262 40.7537 15.3467C40.6701 15.2106 40.5912 15.0768 40.5339 14.9574C40.479 14.8427 40.4527 14.7496 40.4312 14.611C40.381 14.291 40.4169 13.8587 40.2831 13.3953C40.1422 12.9247 39.8532 12.5688 39.5857 12.2679C39.4519 12.1174 39.3205 11.9789 39.213 11.8451C39.1892 11.814 39.1581 11.7734 39.1438 11.7519C39.1294 11.7328 39.1151 11.7066 39.1032 11.6779C39.0769 11.6158 39.053 11.5417 39.0363 11.4558C38.9599 11.1166 38.9336 10.6843 38.7616 10.2639C38.7186 10.1588 38.6637 10.0537 38.604 9.95575C38.5442 9.86498 38.4798 9.77421 38.4057 9.68823C38.26 9.51386 38.0809 9.37055 37.9113 9.2559C37.7417 9.14125 37.584 9.04093 37.436 8.93105C37.2926 8.82118 37.135 8.69459 37.0442 8.58471C36.9487 8.46528 36.8937 8.33869 36.8675 8.16194C36.8388 7.98996 36.8316 7.77499 36.76 7.55046C36.6931 7.32594 36.545 7.12769 36.3874 6.9796C36.2345 6.8339 36.0625 6.7073 35.881 6.6046C35.4511 6.35618 35.0139 6.15793 34.6413 5.96207C34.5816 5.93341 34.5124 5.8928 34.4646 5.86414C34.4264 5.84026 34.3858 5.80204 34.3452 5.75666C34.2639 5.66589 34.1899 5.54407 34.1159 5.41748C33.9701 5.1619 33.8292 4.88244 33.6477 4.61731C33.5522 4.48355 33.4662 4.35935 33.3252 4.23037C33.1867 4.11333 33.0314 4.03212 32.8762 3.97001C32.5633 3.85297 32.2504 3.80759 31.947 3.76937L31.498 3.71444C31.3523 3.69294 31.2161 3.66905 31.1254 3.60456C30.9223 3.46842 30.7623 3.18179 30.5712 2.94293C30.3801 2.69691 30.1532 2.47 29.8929 2.29086C29.6301 2.10216 29.3005 2.00662 28.9876 2.00184C28.7273 1.99228 28.4693 2.02334 28.2209 2.05678C27.9725 2.08783 27.7241 2.12127 27.4995 2.08305C27.2941 2.03767 27.1078 1.87763 26.9382 1.70327C26.7663 1.5289 26.6038 1.33782 26.4247 1.15629C26.2479 0.977147 26.0568 0.800393 25.818 0.6738C25.6962 0.618863 25.5576 0.566314 25.4167 0.568703C25.2782 0.563926 25.142 0.587811 25.0178 0.626028C24.521 0.781285 24.1126 1.0703 23.6396 1.13957C22.6388 1.33065 22.0154 0.112488 20.931 0.153093C20.5345 0.153093 20.1523 0.310738 19.8323 0.52332C19.5074 0.728737 19.2112 0.977147 18.8601 1.09419C18.5114 1.216 18.1292 1.16584 17.7829 1.03208C17.4294 0.90549 17.0974 0.700074 16.7009 0.626028C16.505 0.587811 16.2853 0.611697 16.1061 0.707239C15.9246 0.798005 15.7741 0.926987 15.6356 1.06075C15.3561 1.32827 15.122 1.634 14.8426 1.88241C14.7016 2.00184 14.5464 2.1141 14.3696 2.1356C14.1905 2.1571 13.997 2.1356 13.8083 2.12366C13.4285 2.09499 13.0392 2.06633 12.6594 2.13799C12.571 2.15471 12.4755 2.17859 12.3871 2.20726C12.3059 2.23114 12.2295 2.25503 12.1554 2.28608C11.9094 2.39117 11.6897 2.5536 11.501 2.74468C11.3099 2.93338 11.1522 3.15074 10.997 3.35615C10.9014 3.47797 10.7987 3.61173 10.6984 3.66189C10.5909 3.71205 10.4213 3.73116 10.2685 3.75027C9.95318 3.78848 9.62595 3.81715 9.3011 3.90074C9.13868 3.94135 8.97387 4.00106 8.81622 4.08466C8.7374 4.12527 8.66336 4.18021 8.58931 4.23753C8.52004 4.30202 8.45316 4.37129 8.40539 4.43817C8.1952 4.70569 8.03994 5.00426 7.89185 5.28611C7.79153 5.47481 7.69599 5.6635 7.57895 5.80682C7.55029 5.84264 7.51924 5.8737 7.48818 5.89997C7.46191 5.92386 7.42131 5.95013 7.37353 5.97879C7.28755 6.03373 7.19678 6.0815 7.10363 6.12927C6.7334 6.31319 6.30585 6.45412 5.92368 6.7073C5.72304 6.84106 5.5439 6.98438 5.38386 7.18263C5.22383 7.38088 5.14023 7.64601 5.11635 7.88009C5.09007 8.11655 5.07335 8.31719 4.98975 8.48439C4.90615 8.64681 4.75567 8.77819 4.58131 8.91911C4.41172 9.05526 4.23258 9.1723 4.04149 9.30128C3.85041 9.43026 3.64977 9.59268 3.4969 9.79093C3.34642 9.97963 3.21266 10.2161 3.14339 10.4526C3.06696 10.689 3.02874 10.9255 2.9953 11.1476C2.95709 11.3865 2.92126 11.623 2.84005 11.7734C2.82333 11.8045 2.79466 11.8475 2.75884 11.8905C2.7254 11.9335 2.68957 11.9789 2.65135 12.0218L2.4125 12.2894C2.24768 12.4733 2.07571 12.6715 1.93478 12.9056C1.79386 13.1301 1.67921 13.412 1.6386 13.6843C1.55022 14.2289 1.6171 14.6994 1.42124 15.0267C1.2206 15.416 0.888594 15.8149 0.707063 16.3643C0.66168 16.498 0.635406 16.6485 0.630629 16.8061L0.633018 16.928L0.640183 17.0211L0.652126 17.1907C0.666458 17.4176 0.671235 17.6445 0.66168 17.869C0.647349 18.3205 0.575692 18.7456 0.456264 19.1923C0.427602 19.307 0.394162 19.424 0.367888 19.5601C0.341613 19.6891 0.322505 19.8587 0.334448 20.0092C0.355945 20.3054 0.422824 20.5514 0.489704 20.7903C0.556584 21.0196 0.637795 21.2632 0.666458 21.4232C0.668846 21.4638 0.673623 21.4376 0.666458 21.4853L0.642572 21.6621C0.628241 21.7839 0.613909 21.9057 0.604355 22.0299C0.578081 22.3572 0.566138 22.6892 0.618686 23.0522C0.633018 23.143 0.652126 23.2385 0.685566 23.3365C0.721394 23.4439 0.757223 23.5228 0.797828 23.6016C0.876651 23.7592 0.965028 23.9025 1.0534 24.0363L1.30659 24.4209C1.34481 24.4806 1.38064 24.5403 1.40213 24.5881C1.4308 24.6549 1.41647 24.6 1.45468 24.7648C1.52395 24.9893 1.62427 25.1207 1.69593 25.2497C1.77236 25.3835 1.82491 25.479 1.87985 25.6319C1.89657 25.682 1.92762 25.7226 1.94911 25.7704C1.98255 25.811 2.01361 25.8516 2.04705 25.8898C2.11631 25.9543 2.16886 25.9997 2.22858 26.0427C2.34562 26.1311 2.46027 26.2027 2.57492 26.2744C2.80661 26.4153 3.0383 26.5419 3.27238 26.6661C3.73815 26.9121 4.20869 27.1438 4.67924 27.3755C4.98497 27.526 5.2501 27.7553 5.55584 27.901C6.18164 28.2043 6.80983 28.5005 7.43086 28.8087C7.66255 29.2386 7.87035 29.6829 8.08533 30.12C8.34807 30.6622 8.60603 31.2044 8.85444 31.7514C9.09807 32.3007 9.3441 32.8477 9.55429 33.4042L9.70955 33.8222L9.84808 34.2402L9.96512 34.6654C10.0153 34.8183 10.0439 34.9783 10.1156 35.1264C10.364 35.7259 10.8083 36.2586 11.3624 36.5858C11.9142 36.9178 12.5233 37.1065 13.1324 37.2092C13.7414 37.3191 14.3553 37.3382 14.9644 37.3263C15.5472 37.3143 16.1252 37.2546 16.6985 37.1734C16.8275 37.3 16.9612 37.4266 17.1045 37.5412C17.5392 37.9019 18.0289 38.2005 18.552 38.4083C19.0751 38.6185 19.634 38.7403 20.1929 38.7833C20.3243 38.7976 20.4748 38.8096 20.5823 38.8024C20.7089 38.8 20.8761 38.8024 20.9262 38.8024C20.8952 38.8 20.814 38.7952 20.7327 38.7857C21.1293 38.7809 21.4135 38.7618 21.6953 38.726C22.4071 38.6304 23.107 38.4226 23.7591 38.1073C24.2726 37.8541 24.7551 37.5388 25.1946 37.171C25.7654 37.2522 26.3387 37.3119 26.9191 37.3215C27.5282 37.3334 28.1421 37.3143 28.7511 37.2044C29.3602 37.1017 29.9693 36.913 30.5211 36.581C31.0752 36.2562 31.5195 35.7211 31.7679 35.1216C31.8396 34.9735 31.8682 34.8135 31.9184 34.6606L32.0354 34.2355L32.174 33.8175L32.3292 33.3995C32.5394 32.8429 32.7854 32.2959 33.0291 31.7466C33.2775 31.1996 33.533 30.655 33.7982 30.1152C34.0084 29.69 34.209 29.2601 34.4311 28.8421C34.455 28.8301 34.4789 28.8158 34.5028 28.8039L36.1485 27.9774C36.7958 27.6526 37.4455 27.3277 38.088 26.9862C38.4105 26.8142 38.7306 26.6398 39.0482 26.4488C39.2083 26.3556 39.3659 26.2529 39.5236 26.143C39.6024 26.0881 39.6812 26.0284 39.7624 25.9567C39.8388 25.8946 39.9535 25.7608 40.0013 25.6271C40.049 25.479 40.0992 25.3787 40.1685 25.2497C40.2353 25.1231 40.3261 24.9941 40.3954 24.7911C40.4121 24.7433 40.424 24.6741 40.4312 24.6334C40.4312 24.6287 40.4384 24.612 40.4455 24.5905C40.4646 24.5451 40.4957 24.4854 40.5291 24.428C40.6008 24.3086 40.682 24.182 40.7656 24.0506C40.8492 23.9193 40.9328 23.7807 41.0092 23.6326C41.0475 23.5562 41.0833 23.4822 41.1167 23.3962C41.1525 23.3006 41.1764 23.2075 41.1932 23.1191C41.2553 22.7656 41.2409 22.4431 41.2218 22.1255C41.2099 21.9559 41.1908 21.7887 41.1717 21.6263C41.1621 21.5498 41.1478 21.4423 41.1526 21.4423C41.1549 21.4184 41.1717 21.342 41.1884 21.2775C41.2672 20.9981 41.389 20.6828 41.4655 20.334ZM14.9715 37.0922C14.3744 37.0492 13.7797 36.9799 13.2088 36.8438C12.6379 36.7052 12.0814 36.5165 11.6085 36.2036C11.1284 35.9051 10.7677 35.4584 10.5599 34.9449C10.4954 34.8207 10.4715 34.6797 10.4237 34.5484L10.2947 34.1017C10.1968 33.8079 10.0941 33.5189 9.97468 33.237C9.73343 32.6757 9.47547 32.124 9.19123 31.5889C8.91177 31.0515 9.80986 30.2513 10.1634 30.5165C10.751 30.956 11.2788 31.4695 11.8306 31.9496C12.915 32.9026 13.9707 33.8987 14.8951 35.0117C15.4994 35.714 16.0225 36.4998 16.6889 37.1591C16.1109 37.1447 15.54 37.1423 14.9715 37.0922ZM33.5928 30.0101C33.2799 30.5284 32.9741 31.0515 32.6947 31.5913C32.4104 32.1264 32.1501 32.6781 31.9112 33.2394C31.7918 33.5213 31.6891 33.8103 31.5911 34.1041L31.4622 34.5508C31.4144 34.6821 31.3905 34.823 31.326 34.9473C31.1158 35.4608 30.7575 35.9075 30.2774 36.206C29.8045 36.5189 29.248 36.7076 28.6771 36.8462C28.1038 36.9823 27.5091 37.0516 26.9143 37.0946C26.3506 37.1447 25.7822 37.1471 25.2137 37.1638C25.4525 36.9632 25.6795 36.7482 25.892 36.5189C26.1978 36.1845 26.4605 35.8382 26.7376 35.5014C27.0194 35.1694 27.2989 34.8326 27.5927 34.5125C28.3761 33.6407 29.1715 32.7737 30.0481 31.9926C30.9677 31.1829 31.9327 30.4257 32.9431 29.7426C33.1891 29.5682 33.7528 29.7521 33.5928 30.0101ZM40.8588 20.6684C40.8014 20.8715 40.7298 21.0626 40.6868 21.2942C39.4925 22.0204 38.3436 22.7919 37.209 23.592C36.0745 24.397 34.9638 25.2354 33.8818 26.1096C32.7998 26.9838 31.7583 27.9058 30.748 28.8612C29.7472 29.8262 28.8013 30.8461 27.9175 31.9162C28.83 30.87 29.8021 29.8811 30.8292 28.9472C31.8611 28.0228 32.9263 27.1343 34.0275 26.2959C35.131 25.4575 36.2584 24.6549 37.4097 23.8858C38.4893 23.1693 39.588 22.4766 40.7059 21.8317C40.7202 21.9463 40.7322 22.061 40.7417 22.1756C40.7632 22.4694 40.7728 22.7704 40.7202 23.0427C40.6756 23.2893 40.5132 23.5451 40.3579 23.7897C40.3553 23.7939 40.3526 23.7981 40.35 23.8022C40.2688 23.9288 40.1828 24.0554 40.1016 24.1916C40.061 24.2608 40.0204 24.3325 39.9845 24.4185C39.9678 24.4639 39.9511 24.5116 39.9415 24.569C39.9344 24.6024 39.9296 24.6215 39.9201 24.6478C39.8388 24.858 39.6143 25.1565 39.5236 25.4599C39.5068 25.4981 39.4925 25.5196 39.4519 25.553C39.4113 25.5913 39.3564 25.6319 39.3062 25.6725C39.1963 25.7513 39.0817 25.8277 38.9599 25.8994C38.721 26.0475 38.4702 26.186 38.2194 26.3245C37.7154 26.5992 37.2043 26.8644 36.6931 27.1319C35.6302 27.698 34.5553 28.2187 33.4972 28.8421C32.4677 29.5109 31.5099 30.2466 30.5927 31.042C29.6755 31.8326 28.8109 32.6829 28.0011 33.581C27.7981 33.8055 27.5975 34.03 27.404 34.2617C27.2057 34.491 27.0147 34.7227 26.8284 34.9616C26.4414 35.4226 26.107 35.9337 25.7225 36.3852C24.9892 37.2427 24.0218 37.9091 22.9541 38.2912C22.2519 38.542 21.4326 38.7594 20.7065 38.7809C20.7017 38.7809 20.6993 38.7809 20.6945 38.7809C20.6038 38.7737 20.5058 38.7642 20.4007 38.7546C20.298 38.7403 20.1905 38.7236 20.0902 38.7092C19.7558 38.6591 19.4286 38.5898 19.1085 38.4895C18.5377 38.3032 18.0098 38.0118 17.5416 37.6487C17.0711 37.288 16.6698 36.8462 16.3044 36.378C15.9437 35.9098 15.5997 35.3987 15.22 34.921C15.0336 34.6797 14.8449 34.4409 14.6467 34.2092C14.4532 33.9727 14.2526 33.741 14.0472 33.5165C13.001 32.3437 11.8425 31.2713 10.61 30.2943C9.9914 29.8071 9.35365 29.3461 8.69202 28.9161C8.35045 28.6892 7.99695 28.5077 7.65061 28.3238L6.60681 27.7935L4.34723 26.6828C3.97222 26.4965 3.602 26.3078 3.23894 26.1048C3.05741 26.0045 2.87826 25.8994 2.71107 25.7895C2.62747 25.7346 2.54625 25.6772 2.47221 25.6175C2.39816 25.5507 2.35756 25.522 2.33367 25.4575C2.25963 25.2234 2.10915 24.9774 2.00644 24.7863C1.96822 24.7123 1.94195 24.6454 1.93001 24.5857C1.91329 24.4662 1.86074 24.3588 1.81774 24.2752C1.72459 24.1032 1.62188 23.9527 1.52634 23.7998C1.4308 23.6494 1.34242 23.4989 1.26837 23.3436C1.23016 23.2648 1.20149 23.1931 1.18239 23.1191C1.16328 23.0427 1.14895 22.9591 1.14178 22.8755C1.10834 22.5363 1.137 22.1804 1.17761 21.8269C2.28829 22.4622 3.38225 23.1454 4.45233 23.8524C5.59883 24.612 6.71907 25.4073 7.81542 26.2386C8.91177 27.0698 9.96751 27.9512 10.9946 28.8684C12.0145 29.7927 12.9795 30.7768 13.8847 31.8158C13.0081 30.7529 12.0694 29.7378 11.0758 28.78C10.075 27.8317 9.03836 26.9145 7.96351 26.0475C6.88627 25.1828 5.78275 24.3492 4.65296 23.5538C3.52795 22.7632 2.38622 22.0013 1.2015 21.2871C1.19672 21.268 1.19433 21.2489 1.18955 21.2298C1.14417 21.0411 1.08684 20.8691 1.0343 20.6971C0.933976 20.3555 0.826491 20.0116 0.879039 19.6963C0.936365 19.3714 1.04385 19.0156 1.09162 18.6573C2.30979 19.4957 3.49212 20.3842 4.64341 21.3014C5.87113 22.2807 7.06063 23.3102 8.2167 24.3731C9.37754 25.4336 10.4882 26.5491 11.5535 27.7051L12.3465 28.5793L13.1109 29.4798L13.493 29.9313L13.8561 30.397L14.5822 31.3286L13.88 30.3803L13.5289 29.905L13.1586 29.444L12.4182 28.5244L11.6467 27.6287C10.6076 26.444 9.52085 25.2975 8.3839 24.2035C7.25172 23.1048 6.08132 22.0442 4.87271 21.0267C3.67127 20.0164 2.44355 19.0466 1.15611 18.1294C1.16806 17.9288 1.17044 17.7305 1.16328 17.5299C1.15372 17.346 1.14178 17.162 1.12506 16.9781C1.1179 16.8778 1.10834 16.8181 1.12028 16.7345C1.12506 16.658 1.14417 16.5768 1.16806 16.498C1.28748 16.1158 1.54545 15.7695 1.77475 15.3849C1.77714 15.3802 1.78192 15.373 1.7843 15.3682C3.06457 16.4264 4.30662 17.5538 5.51046 18.7098C6.76923 19.9256 7.98501 21.1868 9.15301 22.4885C10.3282 23.7855 11.4245 25.1518 12.4779 26.5515C13.5265 27.9559 14.4747 29.4321 15.3513 30.9512C14.5106 29.413 13.5957 27.9129 12.5758 26.4822C11.5535 25.0562 10.4834 23.6589 9.33215 22.3309C8.18803 20.9981 6.99853 19.7035 5.76126 18.4542C4.54548 17.2313 3.30104 16.049 1.98733 14.9168C2.00644 14.8499 2.02316 14.7854 2.03271 14.7185C2.07332 14.4845 2.08049 14.2623 2.10198 14.0545C2.12109 13.8467 2.15453 13.6508 2.22141 13.4789C2.28829 13.3069 2.39339 13.1373 2.51281 12.9773C2.63463 12.8172 2.77556 12.6644 2.92126 12.4996C2.96903 12.447 3.0168 12.3873 3.06457 12.33C4.36395 13.5816 5.61317 14.9048 6.817 16.2592C8.08294 17.6899 9.29633 19.1684 10.4524 20.6923C11.5965 22.2234 12.669 23.8094 13.6578 25.4456C14.6204 27.0984 15.4803 28.811 16.1802 30.5953C15.5185 28.7967 14.6921 27.0626 13.7605 25.3858C12.8027 23.7234 11.7613 22.1111 10.6459 20.5514C9.51846 18.9988 8.33135 17.4893 7.0893 16.0251C5.88785 14.6158 4.6458 13.2448 3.33209 11.9263C3.33687 11.9168 3.34403 11.9072 3.34642 11.8976C3.44196 11.6397 3.46107 11.4104 3.49212 11.193C3.52079 10.9757 3.55184 10.7726 3.60678 10.5839C3.65932 10.3929 3.74531 10.24 3.86235 10.0776C3.977 9.92231 4.11554 9.7981 4.28513 9.6739C4.45471 9.54969 4.64819 9.41832 4.82494 9.26784C4.84166 9.25351 4.85599 9.23918 4.87271 9.22723C6.10282 10.7607 7.27321 12.3586 8.39345 13.9805C9.55907 15.6763 10.6674 17.4152 11.7159 19.1875C12.7741 20.9551 13.7319 22.7823 14.6324 24.6334C15.5329 26.487 16.302 28.4026 16.9947 30.3445C16.3402 28.3883 15.6045 26.4583 14.7399 24.5833C13.8728 22.7107 12.9484 20.8619 11.9214 19.0681C10.9038 17.2695 9.82659 15.5068 8.68963 13.7822C7.58612 12.115 6.43722 10.4788 5.2095 8.89045C5.25249 8.83551 5.29071 8.77819 5.32415 8.71369C5.4603 8.47006 5.47463 8.1906 5.48896 7.98518C5.50329 7.77021 5.53673 7.6054 5.63227 7.45492C5.72543 7.30683 5.88068 7.16113 6.04072 7.03931C6.20075 6.91511 6.38228 6.81479 6.57576 6.72402C6.76923 6.63326 6.97464 6.54966 7.17767 6.45173C7.25411 6.4159 7.33054 6.3729 7.40697 6.32991C8.51527 8.14999 9.55668 10.0226 10.5527 11.9144C11.5702 13.8515 12.528 15.8197 13.4333 17.8141C14.3481 19.8038 15.1626 21.8364 15.9317 23.8858C16.6937 25.94 17.341 28.0348 17.9095 30.151C17.3792 28.0252 16.7701 25.9161 16.044 23.8476C15.3131 21.7815 14.532 19.7297 13.6531 17.7186C12.7836 15.705 11.8569 13.7153 10.8728 11.7519C9.90063 9.82199 8.88788 7.9183 7.79153 6.04567C7.94679 5.85936 8.04233 5.65873 8.13787 5.46764C8.13858 5.46616 8.13928 5.46468 8.13999 5.4632C8.23479 5.26411 8.32735 5.06975 8.43167 4.88244C8.53915 4.69852 8.6538 4.50983 8.80667 4.38323C8.96432 4.25186 9.16495 4.16587 9.37037 4.10377C9.74299 3.98673 10.1395 3.95807 10.5336 3.87925L10.5002 3.89597C11.4819 5.94058 12.3489 8.05923 13.161 10.1898C13.966 12.3252 14.7207 14.4797 15.3919 16.6628C16.0631 18.846 16.6961 21.0411 17.2335 23.26C17.5201 24.3659 17.759 25.4838 18.0098 26.5968C18.2582 27.7123 18.4588 28.8373 18.6858 29.9576C18.4779 28.8349 18.2964 27.7051 18.0671 26.5849C17.8354 25.4647 17.6157 24.3444 17.3482 23.2314C16.849 21.0004 16.2542 18.791 15.6188 16.5912C14.9835 14.3937 14.2645 12.2201 13.4954 10.0632C12.7167 7.90875 11.8903 5.77815 10.9301 3.68339L10.911 3.69294C10.9803 3.62367 11.04 3.54724 11.0949 3.47319C11.2215 3.3036 11.3385 3.13163 11.4723 2.97637C11.6562 2.75424 11.8736 2.53927 12.1315 2.38162C12.1936 2.3434 12.2581 2.30996 12.325 2.27891C12.4827 2.22636 12.6546 2.18815 12.8195 2.17859C13.2709 2.14276 13.7175 2.2192 14.1785 2.24786H14.1762C14.8211 4.48594 15.3919 6.75746 15.927 9.03376C16.4572 11.3101 16.9564 13.5959 17.4031 15.8913C17.8498 18.1867 18.2701 20.4893 18.6308 22.799C19.0082 25.1088 19.3163 27.4281 19.6077 29.7497C19.3546 27.4233 19.087 25.0968 18.7479 22.7799C18.4254 20.4606 18.0456 18.1509 17.6372 15.8459C17.2311 13.541 16.7701 11.2432 16.2757 8.95255C15.7813 6.67864 15.2534 4.41429 14.6467 2.16187C14.7064 2.13321 14.7637 2.09977 14.8163 2.06155C14.993 1.93735 15.1411 1.78687 15.2868 1.63878C15.5735 1.34737 15.8505 1.02492 16.1897 0.864884C16.5217 0.702462 16.8967 0.869662 17.2622 1.04403C17.5751 1.19212 17.9214 1.3617 18.3131 1.39992L19.4071 15.4924L19.9374 22.6199C20.1069 24.9965 20.2813 27.3731 20.4079 29.7521C20.3219 27.3707 20.1858 24.9917 20.0568 22.6127L19.646 15.4781L18.7861 1.37604C18.9294 1.3426 19.0655 1.29483 19.1897 1.2375C19.3952 1.14196 19.5743 1.02253 19.7487 0.910267C20.0926 0.685742 20.4198 0.494658 20.7686 0.465995C21.1221 0.434944 21.4541 0.535263 21.7694 0.745456C22.0918 0.946095 22.4071 1.24467 22.8681 1.4262C22.9374 1.45486 23.0114 1.47636 23.0855 1.49546L22.1707 15.4733L21.7312 22.6103C21.5926 24.9893 21.4469 27.3683 21.3609 29.7497C21.4875 27.3707 21.6738 24.9941 21.8506 22.6175L22.4095 15.49L23.556 1.53846C23.6444 1.53368 23.7328 1.52652 23.8164 1.5098C24.1245 1.45486 24.392 1.33782 24.638 1.23511C24.8817 1.13001 25.111 1.03686 25.2949 1.01536C25.3857 1.00581 25.4573 1.02014 25.529 1.04403C25.6054 1.07508 25.6914 1.12763 25.7774 1.19451C25.9494 1.33304 26.1213 1.51935 26.2981 1.71521C26.4772 1.91107 26.6635 2.12366 26.9263 2.31713C26.9932 2.3649 27.072 2.41267 27.1604 2.45089C26.5967 4.61015 26.1022 6.77896 25.6365 8.95733C25.1516 11.248 24.7001 13.5434 24.2989 15.8507C23.8976 18.1557 23.5202 20.4654 23.2025 22.7847C22.8681 25.1016 22.6006 27.4257 22.3498 29.7497C22.6412 27.4281 22.9493 25.1112 23.3219 22.8014C23.6802 20.4917 24.0935 18.1891 24.5353 15.8937C24.9748 13.5983 25.4669 11.3124 25.9876 9.03376C26.4892 6.86256 27.0242 4.69375 27.6237 2.55121C27.7312 2.5536 27.8316 2.54643 27.9271 2.53927C28.2185 2.5106 28.4693 2.46283 28.7082 2.4485C28.947 2.42939 29.1596 2.45089 29.3483 2.51538C29.3961 2.52971 29.4391 2.55599 29.4844 2.57271C29.5274 2.60137 29.568 2.62286 29.6134 2.65392C29.7066 2.7208 29.7973 2.79245 29.8785 2.87366C30.0481 3.03131 30.1891 3.21762 30.3395 3.43259C30.416 3.54007 30.4924 3.65472 30.5999 3.77893C30.6572 3.84581 30.7313 3.91985 30.8196 3.98434C29.9192 5.97879 29.1285 8.00668 28.3905 10.0561C27.6214 12.2105 26.9024 14.3865 26.267 16.584C25.6341 18.7815 25.0393 20.9909 24.5377 23.2242C24.2702 24.3349 24.0505 25.4575 23.8188 26.5777C23.5895 27.698 23.4079 28.8254 23.2001 29.9504C23.427 28.8301 23.6277 27.7051 23.8761 26.5897C24.1269 25.4742 24.3657 24.3588 24.6524 23.2529C25.1898 21.0339 25.8228 18.8364 26.494 16.6557C27.1651 14.4725 27.9199 12.318 28.7249 10.1827C29.4988 8.14999 30.3252 6.12927 31.252 4.17304C31.3451 4.19454 31.4311 4.20648 31.5147 4.22081L31.9112 4.27575C32.1644 4.31158 32.4104 4.35457 32.6182 4.43101C32.7257 4.46683 32.8165 4.5146 32.8953 4.56715C32.9741 4.62448 33.0195 4.66986 33.0983 4.77257C33.2393 4.95888 33.3611 5.17624 33.4829 5.40793C33.5593 5.55124 33.6381 5.70172 33.7313 5.85698C33.8006 5.96924 33.8818 6.08867 33.9988 6.20093C32.9383 8.02101 31.9542 9.87215 31.0083 11.7496C30.0242 13.7106 29.0975 15.7026 28.2281 17.7162C27.3491 19.7273 26.568 21.7791 25.8371 23.8452C25.111 25.9161 24.5019 28.0228 23.9716 30.1486C24.5401 28.0324 25.1874 25.9376 25.9494 23.8834C26.7161 21.8341 27.533 19.799 28.4478 17.8117C29.3531 15.8197 30.3133 13.8515 31.3284 11.912C32.2982 10.068 33.3157 8.24076 34.3929 6.46367C34.6342 6.58788 34.873 6.67386 35.0975 6.76224C35.3985 6.87689 35.6612 7.0011 35.8929 7.18024C36.1414 7.37132 36.2871 7.5433 36.3372 7.81321C36.3659 7.94697 36.3707 8.11178 36.4065 8.29808C36.4399 8.48439 36.5187 8.68742 36.6406 8.84506C36.6501 8.8594 36.6621 8.87134 36.674 8.88567C35.4439 10.4765 34.2974 12.1126 33.1915 13.7822C32.0545 15.5068 30.9773 17.2719 29.9598 19.0681C28.9327 20.8595 28.0083 22.7107 27.1413 24.5833C26.2766 26.4583 25.5409 28.3907 24.8865 30.3445C25.5791 28.4026 26.3506 26.487 27.2487 24.6334C28.1516 22.7823 29.107 20.9551 30.1652 19.1875C31.2138 17.4152 32.322 15.6787 33.4877 13.9805C34.6103 12.3515 35.7831 10.7487 37.018 9.2129C37.0227 9.21768 37.0275 9.22246 37.0323 9.22485C37.166 9.33233 37.307 9.43265 37.4455 9.5258C37.725 9.70972 37.9543 9.87453 38.1215 10.1253C38.2982 10.3618 38.377 10.6484 38.4296 10.9637C38.4726 11.2002 38.4917 11.4486 38.5634 11.7137C38.5753 11.7615 38.5944 11.8117 38.6135 11.8618C37.2735 13.1994 36.0124 14.5919 34.7918 16.0251C33.5498 17.4893 32.3626 18.9988 31.2352 20.5514C30.1174 22.1111 29.076 23.7258 28.1206 25.3858C27.189 27.0626 26.3626 28.7967 25.701 30.5953C26.4008 28.811 27.2607 27.0984 28.2233 25.4456C29.2121 23.8094 30.2822 22.2234 31.4287 20.6923C32.5848 19.1684 33.7958 17.6899 35.0641 16.2592C36.2871 14.8833 37.5554 13.5386 38.8786 12.2703C38.9169 12.3156 38.9551 12.361 38.9933 12.4064C39.3253 12.7766 39.6454 13.1373 39.7624 13.572C39.8197 13.7894 39.8341 14.0259 39.846 14.2743C39.858 14.4725 39.8675 14.6827 39.9224 14.8929C38.5992 16.0299 37.3452 17.2217 36.1222 18.4542C34.885 19.7035 33.6955 20.9981 32.5513 22.3309C31.4001 23.6589 30.3324 25.0562 29.3077 26.4822C28.2878 27.9129 27.3729 29.413 26.5322 30.9512C27.4088 29.4321 28.357 27.9559 29.4056 26.5515C30.459 25.1518 31.5553 23.7855 32.7305 22.4885C33.9009 21.1868 35.1143 19.9256 36.373 18.7098C37.5817 17.549 38.8285 16.4168 40.1135 15.3539C40.1852 15.4853 40.2616 15.6071 40.3357 15.7313C40.4623 15.9415 40.5841 16.1517 40.6701 16.3666C40.7131 16.4741 40.7417 16.5816 40.7608 16.6891C40.7752 16.799 40.768 16.8897 40.7537 17.0259C40.7274 17.2767 40.7178 17.5299 40.7154 17.7807C40.7154 17.8931 40.72 18.0055 40.7247 18.1202C40.7248 18.1225 40.7249 18.1248 40.725 18.127C39.4376 19.0418 38.2098 20.014 37.0084 21.0243C35.7998 22.0419 34.6294 23.1024 33.4972 24.2011C32.3603 25.2951 31.2759 26.4416 30.2344 27.6263L29.4629 28.522L28.7225 29.4416L28.3523 29.9026L28.0011 30.3779L27.2989 31.3262L28.025 30.3947L28.3881 29.9289L28.7703 29.4774L29.5346 28.577L30.3276 27.7027C31.3953 26.5467 32.506 25.4312 33.6644 24.3707C34.8205 23.3054 36.01 22.2783 37.2377 21.299C38.389 20.3794 39.5737 19.4909 40.7847 18.6644C40.8158 18.8722 40.854 19.08 40.9041 19.2831C40.9615 19.5267 41.026 19.756 41.0068 19.971C40.9925 20.2003 40.928 20.4344 40.8588 20.6684Z" fill="#02676A"/>
<path d="M40.8588 20.6684C40.8014 20.8715 40.7298 21.0626 40.6868 21.2942C39.4925 22.0204 38.3436 22.7919 37.209 23.592C36.0745 24.397 34.9638 25.2354 33.8818 26.1096C32.7998 26.9838 31.7583 27.9058 30.748 28.8612C29.7472 29.8262 28.8013 30.8461 27.9175 31.9162C28.83 30.87 29.8021 29.8811 30.8292 28.9472C31.8611 28.0228 32.9263 27.1343 34.0275 26.2959C35.131 25.4575 36.2584 24.6549 37.4097 23.8858C38.4893 23.1693 39.588 22.4766 40.7059 21.8317C40.7202 21.9463 40.7322 22.061 40.7417 22.1756C40.7632 22.4694 40.7728 22.7704 40.7202 23.0427C40.6756 23.2893 40.5132 23.5451 40.3579 23.7897L40.35 23.8022C40.2688 23.9288 40.1828 24.0554 40.1016 24.1916C40.061 24.2608 40.0204 24.3325 39.9845 24.4185C39.9678 24.4639 39.9511 24.5116 39.9415 24.569C39.9344 24.6024 39.9296 24.6215 39.9201 24.6478C39.8388 24.858 39.6143 25.1565 39.5236 25.4599C39.5068 25.4981 39.4925 25.5196 39.4519 25.553C39.4113 25.5913 39.3564 25.6319 39.3062 25.6725C39.1963 25.7513 39.0817 25.8277 38.9599 25.8994C38.721 26.0475 38.4702 26.186 38.2194 26.3245C37.7154 26.5992 37.2043 26.8644 36.6931 27.1319C35.6302 27.698 34.5553 28.2187 33.4972 28.8421C32.4677 29.5109 31.5099 30.2466 30.5927 31.042C29.6755 31.8326 28.8109 32.6829 28.0011 33.581C27.7981 33.8055 27.5975 34.03 27.404 34.2617C27.2057 34.491 27.0147 34.7227 26.8284 34.9616C26.4414 35.4226 26.107 35.9337 25.7225 36.3852C24.9892 37.2427 24.0218 37.9091 22.9541 38.2912C22.2519 38.542 21.4326 38.7594 20.7065 38.7809H20.6945C20.6038 38.7737 20.5058 38.7642 20.4007 38.7546C20.298 38.7403 20.1905 38.7236 20.0902 38.7092C19.7558 38.6591 19.4286 38.5898 19.1085 38.4895C18.5377 38.3032 18.0098 38.0118 17.5416 37.6487C17.0711 37.288 16.6698 36.8462 16.3044 36.378C15.9437 35.9098 15.5997 35.3987 15.22 34.921C15.0336 34.6797 14.8449 34.4409 14.6467 34.2092C14.4532 33.9727 14.2526 33.741 14.0472 33.5165C13.001 32.3437 11.8425 31.2713 10.61 30.2943C9.9914 29.8071 9.35365 29.3461 8.69202 28.9161C8.35045 28.6892 7.99695 28.5077 7.65061 28.3238L6.60681 27.7935L4.34723 26.6828C3.97222 26.4965 3.602 26.3078 3.23894 26.1048C3.05741 26.0045 2.87826 25.8994 2.71107 25.7895C2.62747 25.7346 2.54625 25.6772 2.47221 25.6175C2.39816 25.5507 2.35756 25.522 2.33367 25.4575C2.25963 25.2234 2.10915 24.9774 2.00644 24.7863C1.96822 24.7123 1.94195 24.6454 1.93001 24.5857C1.91329 24.4662 1.86074 24.3588 1.81774 24.2752C1.72459 24.1032 1.62188 23.9527 1.52634 23.7998C1.4308 23.6494 1.34242 23.4989 1.26837 23.3436C1.23016 23.2648 1.20149 23.1931 1.18239 23.1191C1.16328 23.0427 1.14895 22.9591 1.14178 22.8755C1.10834 22.5363 1.137 22.1804 1.17761 21.8269C2.28829 22.4622 3.38225 23.1454 4.45233 23.8524C5.59883 24.612 6.71907 25.4073 7.81542 26.2386C8.91177 27.0698 9.96751 27.9512 10.9946 28.8684C12.0145 29.7927 12.9795 30.7768 13.8847 31.8158C13.0081 30.7529 12.0694 29.7378 11.0758 28.78C10.075 27.8317 9.03836 26.9145 7.96351 26.0475C6.88627 25.1828 5.78275 24.3492 4.65296 23.5538C3.52795 22.7632 2.38622 22.0013 1.2015 21.2871C1.19672 21.268 1.19433 21.2489 1.18955 21.2298C1.14417 21.0411 1.08684 20.8691 1.0343 20.6971C0.933976 20.3555 0.826491 20.0116 0.879039 19.6963C0.936365 19.3714 1.04385 19.0156 1.09162 18.6573C2.30979 19.4957 3.49212 20.3842 4.64341 21.3014C5.87113 22.2807 7.06063 23.3102 8.2167 24.3731C9.37754 25.4336 10.4882 26.5491 11.5535 27.7051L12.3465 28.5793L13.1109 29.4798L13.493 29.9313L13.8561 30.397L14.5822 31.3286L13.88 30.3803L13.5289 29.905L13.1586 29.444L12.4182 28.5244L11.6467 27.6287C10.6076 26.444 9.52085 25.2975 8.3839 24.2035C7.25172 23.1048 6.08132 22.0442 4.87271 21.0267C3.67127 20.0164 2.44355 19.0466 1.15611 18.1294C1.16806 17.9288 1.17044 17.7305 1.16328 17.5299C1.15372 17.346 1.14178 17.162 1.12506 16.9781C1.1179 16.8778 1.10834 16.8181 1.12028 16.7345C1.12506 16.658 1.14417 16.5768 1.16806 16.498C1.28748 16.1158 1.54545 15.7695 1.77475 15.3849C1.77714 15.3802 1.78192 15.373 1.7843 15.3682C3.06457 16.4264 4.30662 17.5538 5.51046 18.7098C6.76923 19.9256 7.98501 21.1868 9.15301 22.4885C10.3282 23.7855 11.4245 25.1518 12.4779 26.5515C13.5265 27.9559 14.4747 29.4321 15.3513 30.9512C14.5106 29.413 13.5957 27.9129 12.5758 26.4822C11.5535 25.0562 10.4834 23.6589 9.33215 22.3309C8.18803 20.9981 6.99853 19.7035 5.76126 18.4542C4.54548 17.2313 3.30104 16.049 1.98733 14.9168C2.00644 14.8499 2.02316 14.7854 2.03271 14.7185C2.07332 14.4845 2.08049 14.2623 2.10198 14.0545C2.12109 13.8467 2.15453 13.6508 2.22141 13.4789C2.28829 13.3069 2.39339 13.1373 2.51281 12.9773C2.63463 12.8172 2.77556 12.6644 2.92126 12.4996C2.96903 12.447 3.0168 12.3873 3.06457 12.33C4.36395 13.5816 5.61317 14.9048 6.817 16.2592C8.08294 17.6899 9.29633 19.1684 10.4524 20.6923C11.5965 22.2234 12.669 23.8094 13.6578 25.4456C14.6204 27.0984 15.4803 28.811 16.1802 30.5953C15.5185 28.7967 14.6921 27.0626 13.7605 25.3858C12.8027 23.7234 11.7613 22.1111 10.6459 20.5514C9.51846 18.9988 8.33135 17.4893 7.0893 16.0251C5.88785 14.6158 4.6458 13.2448 3.33209 11.9263C3.33687 11.9168 3.34403 11.9072 3.34642 11.8976C3.44196 11.6397 3.46107 11.4104 3.49212 11.193C3.52079 10.9757 3.55184 10.7726 3.60678 10.5839C3.65932 10.3929 3.74531 10.24 3.86235 10.0776C3.977 9.92231 4.11554 9.7981 4.28513 9.6739C4.45471 9.54969 4.64819 9.41832 4.82494 9.26784C4.84166 9.25351 4.85599 9.23918 4.87271 9.22723C6.10282 10.7607 7.27321 12.3586 8.39345 13.9805C9.55907 15.6763 10.6674 17.4152 11.7159 19.1875C12.7741 20.9551 13.7319 22.7823 14.6324 24.6334C15.5329 26.487 16.302 28.4026 16.9947 30.3445C16.3402 28.3883 15.6045 26.4583 14.7399 24.5833C13.8728 22.7107 12.9484 20.8619 11.9214 19.0681C10.9038 17.2695 9.82659 15.5068 8.68963 13.7822C7.58612 12.115 6.43722 10.4788 5.2095 8.89045C5.25249 8.83551 5.29071 8.77819 5.32415 8.71369C5.4603 8.47006 5.47463 8.1906 5.48896 7.98518C5.50329 7.77021 5.53673 7.6054 5.63227 7.45492C5.72543 7.30683 5.88068 7.16113 6.04072 7.03931C6.20075 6.91511 6.38228 6.81479 6.57576 6.72402C6.76923 6.63326 6.97464 6.54966 7.17767 6.45173C7.25411 6.4159 7.33054 6.3729 7.40697 6.32991C8.51527 8.14999 9.55668 10.0226 10.5527 11.9144C11.5702 13.8515 12.528 15.8197 13.4333 17.8141C14.3481 19.8038 15.1626 21.8364 15.9317 23.8858C16.6937 25.94 17.341 28.0348 17.9095 30.151C17.3792 28.0252 16.7701 25.9161 16.044 23.8476C15.3131 21.7815 14.532 19.7297 13.6531 17.7186C12.7836 15.705 11.8569 13.7153 10.8728 11.7519C9.90063 9.82199 8.88788 7.9183 7.79153 6.04567C7.94679 5.85936 8.04233 5.65873 8.13787 5.46764L8.13999 5.4632C8.23479 5.26411 8.32735 5.06975 8.43167 4.88244C8.53915 4.69852 8.6538 4.50983 8.80667 4.38323C8.96432 4.25186 9.16495 4.16587 9.37037 4.10377C9.74299 3.98673 10.1395 3.95807 10.5336 3.87925L10.5002 3.89597C11.4819 5.94058 12.3489 8.05923 13.161 10.1898C13.966 12.3252 14.7207 14.4797 15.3919 16.6628C16.0631 18.846 16.6961 21.0411 17.2335 23.26C17.5201 24.3659 17.759 25.4838 18.0098 26.5968C18.2582 27.7123 18.4588 28.8373 18.6858 29.9576C18.4779 28.8349 18.2964 27.7051 18.0671 26.5849C17.8354 25.4647 17.6157 24.3444 17.3482 23.2314C16.849 21.0004 16.2542 18.791 15.6188 16.5912C14.9835 14.3937 14.2645 12.2201 13.4954 10.0632C12.7167 7.90875 11.8903 5.77815 10.9301 3.68339L10.911 3.69294C10.9803 3.62367 11.04 3.54724 11.0949 3.47319C11.2215 3.3036 11.3385 3.13163 11.4723 2.97637C11.6562 2.75424 11.8736 2.53927 12.1315 2.38162C12.1936 2.3434 12.2581 2.30996 12.325 2.27891C12.4827 2.22636 12.6546 2.18815 12.8195 2.17859C13.2709 2.14276 13.7175 2.2192 14.1785 2.24786H14.1762C14.8211 4.48594 15.3919 6.75746 15.927 9.03376C16.4572 11.3101 16.9564 13.5959 17.4031 15.8913C17.8498 18.1867 18.2701 20.4893 18.6308 22.799C19.0082 25.1088 19.3163 27.4281 19.6077 29.7497C19.3546 27.4233 19.087 25.0968 18.7479 22.7799C18.4254 20.4606 18.0456 18.1509 17.6372 15.8459C17.2311 13.541 16.7701 11.2432 16.2757 8.95255C15.7813 6.67864 15.2534 4.41429 14.6467 2.16187C14.7064 2.13321 14.7637 2.09977 14.8163 2.06155C14.993 1.93735 15.1411 1.78687 15.2868 1.63878C15.5735 1.34737 15.8505 1.02492 16.1897 0.864884C16.5217 0.702462 16.8967 0.869662 17.2622 1.04403C17.5751 1.19212 17.9214 1.3617 18.3131 1.39992L19.4071 15.4924L19.9374 22.6199C20.1069 24.9965 20.2813 27.3731 20.4079 29.7521C20.3219 27.3707 20.1858 24.9917 20.0568 22.6127L19.646 15.4781L18.7861 1.37604C18.9294 1.3426 19.0655 1.29483 19.1897 1.2375C19.3952 1.14196 19.5743 1.02253 19.7487 0.910267C20.0926 0.685742 20.4198 0.494658 20.7686 0.465995C21.1221 0.434944 21.4541 0.535263 21.7694 0.745456C22.0918 0.946095 22.4071 1.24467 22.8681 1.4262C22.9374 1.45486 23.0114 1.47636 23.0855 1.49546L22.1707 15.4733L21.7312 22.6103C21.5926 24.9893 21.4469 27.3683 21.3609 29.7497C21.4875 27.3707 21.6738 24.9941 21.8506 22.6175L22.4095 15.49L23.556 1.53846C23.6444 1.53368 23.7328 1.52652 23.8164 1.5098C24.1245 1.45486 24.392 1.33782 24.638 1.23511C24.8817 1.13001 25.111 1.03686 25.2949 1.01536C25.3857 1.00581 25.4573 1.02014 25.529 1.04403C25.6054 1.07508 25.6914 1.12763 25.7774 1.19451C25.9494 1.33304 26.1213 1.51935 26.2981 1.71521C26.4772 1.91107 26.6635 2.12366 26.9263 2.31713C26.9932 2.3649 27.072 2.41267 27.1604 2.45089C26.5967 4.61015 26.1022 6.77896 25.6365 8.95733C25.1516 11.248 24.7001 13.5434 24.2989 15.8507C23.8976 18.1557 23.5202 20.4654 23.2025 22.7847C22.8681 25.1016 22.6006 27.4257 22.3498 29.7497C22.6412 27.4281 22.9493 25.1112 23.3219 22.8014C23.6802 20.4917 24.0935 18.1891 24.5353 15.8937C24.9748 13.5983 25.4669 11.3124 25.9876 9.03376C26.4892 6.86256 27.0242 4.69375 27.6237 2.55121C27.7312 2.5536 27.8316 2.54643 27.9271 2.53927C28.2185 2.5106 28.4693 2.46283 28.7082 2.4485C28.947 2.42939 29.1596 2.45089 29.3483 2.51538C29.3961 2.52971 29.4391 2.55599 29.4844 2.57271C29.5274 2.60137 29.568 2.62286 29.6134 2.65392C29.7066 2.7208 29.7973 2.79245 29.8785 2.87366C30.0481 3.03131 30.1891 3.21762 30.3395 3.43259C30.416 3.54007 30.4924 3.65472 30.5999 3.77893C30.6572 3.84581 30.7313 3.91985 30.8196 3.98434C29.9192 5.97879 29.1285 8.00668 28.3905 10.0561C27.6214 12.2105 26.9024 14.3865 26.267 16.584C25.6341 18.7815 25.0393 20.9909 24.5377 23.2242C24.2702 24.3349 24.0505 25.4575 23.8188 26.5777C23.5895 27.698 23.4079 28.8254 23.2001 29.9504C23.427 28.8301 23.6277 27.7051 23.8761 26.5897C24.1269 25.4742 24.3657 24.3588 24.6524 23.2529C25.1898 21.0339 25.8228 18.8364 26.494 16.6557C27.1651 14.4725 27.9199 12.318 28.7249 10.1827C29.4988 8.14999 30.3252 6.12927 31.252 4.17304C31.3451 4.19454 31.4311 4.20648 31.5147 4.22081L31.9112 4.27575C32.1644 4.31158 32.4104 4.35457 32.6182 4.43101C32.7257 4.46683 32.8165 4.5146 32.8953 4.56715C32.9741 4.62448 33.0195 4.66986 33.0983 4.77257C33.2393 4.95888 33.3611 5.17624 33.4829 5.40793C33.5593 5.55124 33.6381 5.70172 33.7313 5.85698C33.8006 5.96924 33.8818 6.08867 33.9988 6.20093C32.9383 8.02101 31.9542 9.87215 31.0083 11.7496C30.0242 13.7106 29.0975 15.7026 28.2281 17.7162C27.3491 19.7273 26.568 21.7791 25.8371 23.8452C25.111 25.9161 24.5019 28.0228 23.9716 30.1486C24.5401 28.0324 25.1874 25.9376 25.9494 23.8834C26.7161 21.8341 27.533 19.799 28.4478 17.8117C29.3531 15.8197 30.3133 13.8515 31.3284 11.912C32.2982 10.068 33.3157 8.24076 34.3929 6.46367C34.6342 6.58788 34.873 6.67386 35.0975 6.76224C35.3985 6.87689 35.6612 7.0011 35.8929 7.18024C36.1414 7.37132 36.2871 7.5433 36.3372 7.81321C36.3659 7.94697 36.3707 8.11178 36.4065 8.29808C36.4399 8.48439 36.5187 8.68742 36.6406 8.84506C36.6501 8.8594 36.6621 8.87134 36.674 8.88567C35.4439 10.4765 34.2974 12.1126 33.1915 13.7822C32.0545 15.5068 30.9773 17.2719 29.9598 19.0681C28.9327 20.8595 28.0083 22.7107 27.1413 24.5833C26.2766 26.4583 25.5409 28.3907 24.8865 30.3445C25.5791 28.4026 26.3506 26.487 27.2487 24.6334C28.1516 22.7823 29.107 20.9551 30.1652 19.1875C31.2138 17.4152 32.322 15.6787 33.4877 13.9805C34.6103 12.3515 35.7831 10.7487 37.018 9.2129C37.0227 9.21768 37.0275 9.22246 37.0323 9.22485C37.166 9.33233 37.307 9.43265 37.4455 9.5258C37.725 9.70972 37.9543 9.87453 38.1215 10.1253C38.2982 10.3618 38.377 10.6484 38.4296 10.9637C38.4726 11.2002 38.4917 11.4486 38.5634 11.7137C38.5753 11.7615 38.5944 11.8117 38.6135 11.8618C37.2735 13.1994 36.0124 14.5919 34.7918 16.0251C33.5498 17.4893 32.3626 18.9988 31.2352 20.5514C30.1174 22.1111 29.076 23.7258 28.1206 25.3858C27.189 27.0626 26.3626 28.7967 25.701 30.5953C26.4008 28.811 27.2607 27.0984 28.2233 25.4456C29.2121 23.8094 30.2822 22.2234 31.4287 20.6923C32.5848 19.1684 33.7958 17.6899 35.0641 16.2592C36.2871 14.8833 37.5554 13.5386 38.8786 12.2703L38.9933 12.4064C39.3253 12.7766 39.6454 13.1373 39.7624 13.572C39.8197 13.7894 39.8341 14.0259 39.846 14.2743C39.858 14.4725 39.8675 14.6827 39.9224 14.8929C38.5992 16.0299 37.3452 17.2217 36.1222 18.4542C34.885 19.7035 33.6955 20.9981 32.5513 22.3309C31.4001 23.6589 30.3324 25.0562 29.3077 26.4822C28.2878 27.9129 27.3729 29.413 26.5322 30.9512C27.4088 29.4321 28.357 27.9559 29.4056 26.5515C30.459 25.1518 31.5553 23.7855 32.7305 22.4885C33.9009 21.1868 35.1143 19.9256 36.373 18.7098C37.5817 17.549 38.8285 16.4168 40.1135 15.3539C40.1852 15.4853 40.2616 15.6071 40.3357 15.7313C40.4623 15.9415 40.5841 16.1517 40.6701 16.3666C40.7131 16.4741 40.7417 16.5816 40.7608 16.6891C40.7752 16.799 40.768 16.8897 40.7537 17.0259C40.7274 17.2767 40.7178 17.5299 40.7154 17.7807C40.7154 17.8931 40.72 18.0055 40.7247 18.1202L40.725 18.127C39.4376 19.0418 38.2098 20.014 37.0084 21.0243C35.7998 22.0419 34.6294 23.1024 33.4972 24.2011C32.3603 25.2951 31.2759 26.4416 30.2344 27.6263L29.4629 28.522L28.7225 29.4416L28.3523 29.9026L28.0011 30.3779L27.2989 31.3262L28.025 30.3947L28.3881 29.9289L28.7703 29.4774L29.5346 28.577L30.3276 27.7027C31.3953 26.5467 32.506 25.4312 33.6644 24.3707C34.8205 23.3054 36.01 22.2783 37.2377 21.299C38.389 20.3794 39.5737 19.4909 40.7847 18.6644C40.8158 18.8722 40.854 19.08 40.9041 19.2831C40.9615 19.5267 41.026 19.756 41.0068 19.971C40.9925 20.2003 40.928 20.4344 40.8588 20.6684Z" fill="#02676A"/>
<path d="M14.9715 37.0922C14.3744 37.0492 13.7797 36.9799 13.2088 36.8438C12.6379 36.7052 12.0814 36.5165 11.6085 36.2036C11.1284 35.9051 10.7677 35.4584 10.5599 34.9449C10.4954 34.8207 10.4715 34.6797 10.4237 34.5484L10.2947 34.1017C10.1968 33.8079 10.0941 33.5189 9.97468 33.237C9.73343 32.6757 9.47547 32.124 9.19123 31.5889C8.91177 31.0515 9.80986 30.2513 10.1634 30.5165C10.751 30.956 11.2788 31.4695 11.8306 31.9496C12.915 32.9026 13.9707 33.8987 14.8951 35.0117C15.4994 35.714 16.0225 36.4998 16.6889 37.1591C16.1109 37.1447 15.54 37.1423 14.9715 37.0922Z" fill="#02676A"/>
<path d="M33.5928 30.0101C33.2799 30.5284 32.9741 31.0515 32.6947 31.5913C32.4104 32.1264 32.1501 32.6781 31.9112 33.2394C31.7918 33.5213 31.6891 33.8103 31.5911 34.1041L31.4622 34.5508C31.4144 34.6821 31.3905 34.823 31.326 34.9473C31.1158 35.4608 30.7575 35.9075 30.2774 36.206C29.8045 36.5189 29.248 36.7076 28.6771 36.8462C28.1038 36.9823 27.5091 37.0516 26.9143 37.0946C26.3506 37.1447 25.7822 37.1471 25.2137 37.1638C25.4525 36.9632 25.6795 36.7482 25.892 36.5189C26.1978 36.1845 26.4605 35.8382 26.7376 35.5014C27.0194 35.1694 27.2989 34.8326 27.5927 34.5125C28.3761 33.6407 29.1715 32.7737 30.0481 31.9926C30.9677 31.1829 31.9327 30.4257 32.9431 29.7426C33.1891 29.5682 33.7528 29.7521 33.5928 30.0101Z" fill="#02676A"/>
<path d="M41.4655 20.334C41.5037 20.1597 41.5347 19.9638 41.518 19.7465C41.4989 19.5434 41.4583 19.3762 41.4225 19.2186C41.3508 18.9057 41.2983 18.6167 41.2744 18.3133C41.2505 18.0124 41.2529 17.7066 41.272 17.4009C41.2791 17.2432 41.2983 17.1023 41.3126 16.9303C41.3341 16.6963 41.2911 16.4789 41.2314 16.2926C41.1048 15.92 40.9185 15.6262 40.7537 15.3467C40.6701 15.2106 40.5912 15.0768 40.5339 14.9574C40.479 14.8427 40.4527 14.7496 40.4312 14.611C40.381 14.291 40.4169 13.8587 40.2831 13.3953C40.1422 12.9247 39.8532 12.5688 39.5857 12.2679C39.4519 12.1174 39.3205 11.9789 39.213 11.8451C39.1892 11.814 39.1581 11.7734 39.1438 11.7519C39.1294 11.7328 39.1151 11.7066 39.1032 11.6779C39.0769 11.6158 39.053 11.5417 39.0363 11.4558C38.9599 11.1166 38.9336 10.6843 38.7616 10.2639C38.7186 10.1588 38.6637 10.0537 38.604 9.95575C38.5442 9.86498 38.4798 9.77421 38.4057 9.68823C38.26 9.51386 38.0809 9.37055 37.9113 9.2559C37.7417 9.14125 37.584 9.04093 37.436 8.93105C37.2926 8.82118 37.135 8.69459 37.0442 8.58471C36.9487 8.46528 36.8937 8.33869 36.8675 8.16194C36.8388 7.98996 36.8316 7.77499 36.76 7.55046C36.6931 7.32594 36.545 7.12769 36.3874 6.9796C36.2345 6.8339 36.0625 6.7073 35.881 6.6046C35.4511 6.35618 35.0139 6.15793 34.6413 5.96207C34.5816 5.93341 34.5124 5.8928 34.4646 5.86414C34.4264 5.84026 34.3858 5.80204 34.3452 5.75666C34.2639 5.66589 34.1899 5.54407 34.1159 5.41748C33.9701 5.1619 33.8292 4.88244 33.6477 4.61731C33.5522 4.48355 33.4662 4.35935 33.3252 4.23037C33.1867 4.11333 33.0314 4.03212 32.8762 3.97001C32.5633 3.85297 32.2504 3.80759 31.947 3.76937L31.498 3.71444C31.3523 3.69294 31.2161 3.66905 31.1254 3.60456C30.9223 3.46842 30.7623 3.18179 30.5712 2.94293C30.3801 2.69691 30.1532 2.47 29.8929 2.29086C29.6301 2.10216 29.3005 2.00662 28.9876 2.00184C28.7273 1.99228 28.4693 2.02334 28.2209 2.05678C27.9725 2.08783 27.7241 2.12127 27.4995 2.08305C27.2941 2.03767 27.1078 1.87763 26.9382 1.70327C26.7663 1.5289 26.6038 1.33782 26.4247 1.15629C26.2479 0.977147 26.0568 0.800393 25.818 0.6738C25.6962 0.618863 25.5576 0.566314 25.4167 0.568703C25.2782 0.563926 25.142 0.587811 25.0178 0.626028C24.521 0.781285 24.1126 1.0703 23.6396 1.13957C22.6388 1.33065 22.0154 0.112488 20.931 0.153093C20.5345 0.153093 20.1523 0.310738 19.8323 0.52332C19.5074 0.728737 19.2112 0.977147 18.8601 1.09419C18.5114 1.216 18.1292 1.16584 17.7829 1.03208C17.4294 0.90549 17.0974 0.700074 16.7009 0.626028C16.505 0.587811 16.2853 0.611697 16.1061 0.707239C15.9246 0.798005 15.7741 0.926987 15.6356 1.06075C15.3561 1.32827 15.122 1.634 14.8426 1.88241C14.7016 2.00184 14.5464 2.1141 14.3696 2.1356C14.1905 2.1571 13.997 2.1356 13.8083 2.12366C13.4285 2.09499 13.0392 2.06633 12.6594 2.13799C12.571 2.15471 12.4755 2.17859 12.3871 2.20726C12.3059 2.23114 12.2295 2.25503 12.1554 2.28608C11.9094 2.39117 11.6897 2.5536 11.501 2.74468C11.3099 2.93338 11.1522 3.15074 10.997 3.35615C10.9014 3.47797 10.7987 3.61173 10.6984 3.66189C10.5909 3.71205 10.4213 3.73116 10.2685 3.75027C9.95318 3.78848 9.62595 3.81715 9.3011 3.90074C9.13868 3.94135 8.97387 4.00106 8.81622 4.08466C8.7374 4.12527 8.66336 4.18021 8.58931 4.23753C8.52004 4.30202 8.45316 4.37129 8.40539 4.43817C8.1952 4.70569 8.03994 5.00426 7.89185 5.28611C7.79153 5.47481 7.69599 5.6635 7.57895 5.80682C7.55029 5.84264 7.51924 5.8737 7.48818 5.89997C7.46191 5.92386 7.42131 5.95013 7.37353 5.97879C7.28755 6.03373 7.19678 6.0815 7.10363 6.12927C6.7334 6.31319 6.30585 6.45412 5.92368 6.7073C5.72304 6.84106 5.5439 6.98438 5.38386 7.18263C5.22383 7.38088 5.14023 7.64601 5.11635 7.88009C5.09007 8.11655 5.07335 8.31719 4.98975 8.48439C4.90615 8.64681 4.75567 8.77819 4.58131 8.91911C4.41172 9.05526 4.23258 9.1723 4.04149 9.30128C3.85041 9.43026 3.64977 9.59268 3.4969 9.79093C3.34642 9.97963 3.21266 10.2161 3.14339 10.4526C3.06696 10.689 3.02874 10.9255 2.9953 11.1476C2.95709 11.3865 2.92126 11.623 2.84005 11.7734C2.82333 11.8045 2.79466 11.8475 2.75884 11.8905C2.7254 11.9335 2.68957 11.9789 2.65135 12.0218L2.4125 12.2894C2.24768 12.4733 2.07571 12.6715 1.93478 12.9056C1.79386 13.1301 1.67921 13.412 1.6386 13.6843C1.55022 14.2289 1.6171 14.6994 1.42124 15.0267C1.2206 15.416 0.888594 15.8149 0.707063 16.3643C0.66168 16.498 0.635406 16.6485 0.630629 16.8061L0.633018 16.928L0.640183 17.0211L0.652126 17.1907C0.666458 17.4176 0.671235 17.6445 0.66168 17.869C0.647349 18.3205 0.575692 18.7456 0.456264 19.1923C0.427602 19.307 0.394162 19.424 0.367888 19.5601C0.341613 19.6891 0.322505 19.8587 0.334448 20.0092C0.355945 20.3054 0.422824 20.5514 0.489704 20.7903C0.556584 21.0196 0.637795 21.2632 0.666458 21.4232C0.668846 21.4638 0.673623 21.4376 0.666458 21.4853L0.642572 21.6621C0.628241 21.7839 0.613909 21.9057 0.604355 22.0299C0.578081 22.3572 0.566138 22.6892 0.618686 23.0522C0.633018 23.143 0.652126 23.2385 0.685566 23.3365C0.721394 23.4439 0.757223 23.5228 0.797828 23.6016C0.876651 23.7592 0.965028 23.9025 1.0534 24.0363L1.30659 24.4209C1.34481 24.4806 1.38064 24.5403 1.40213 24.5881C1.4308 24.6549 1.41647 24.6 1.45468 24.7648C1.52395 24.9893 1.62427 25.1207 1.69593 25.2497C1.77236 25.3835 1.82491 25.479 1.87985 25.6319C1.89657 25.682 1.92762 25.7226 1.94911 25.7704C1.98255 25.811 2.01361 25.8516 2.04705 25.8898C2.11631 25.9543 2.16886 25.9997 2.22858 26.0427C2.34562 26.1311 2.46027 26.2027 2.57492 26.2744C2.80661 26.4153 3.0383 26.5419 3.27238 26.6661C3.73815 26.9121 4.20869 27.1438 4.67924 27.3755C4.98497 27.526 5.2501 27.7553 5.55584 27.901C6.18164 28.2043 6.80983 28.5005 7.43086 28.8087C7.66255 29.2386 7.87035 29.6829 8.08533 30.12C8.34807 30.6622 8.60603 31.2044 8.85444 31.7514C9.09807 32.3007 9.3441 32.8477 9.55429 33.4042L9.70955 33.8222L9.84808 34.2402L9.96512 34.6654C10.0153 34.8183 10.0439 34.9783 10.1156 35.1264C10.364 35.7259 10.8083 36.2586 11.3624 36.5858C11.9142 36.9178 12.5233 37.1065 13.1324 37.2092C13.7414 37.3191 14.3553 37.3382 14.9644 37.3263C15.5472 37.3143 16.1252 37.2546 16.6985 37.1734C16.8275 37.3 16.9612 37.4266 17.1045 37.5412C17.5392 37.9019 18.0289 38.2005 18.552 38.4083C19.0751 38.6185 19.634 38.7403 20.1929 38.7833C20.3243 38.7976 20.4748 38.8096 20.5823 38.8024C20.7089 38.8 20.8761 38.8024 20.9262 38.8024C20.8952 38.8 20.814 38.7952 20.7327 38.7857C21.1293 38.7809 21.4135 38.7618 21.6953 38.726C22.4071 38.6304 23.107 38.4226 23.7591 38.1073C24.2726 37.8541 24.7551 37.5388 25.1946 37.171C25.7654 37.2522 26.3387 37.3119 26.9191 37.3215C27.5282 37.3334 28.1421 37.3143 28.7511 37.2044C29.3602 37.1017 29.9693 36.913 30.5211 36.581C31.0752 36.2562 31.5195 35.7211 31.7679 35.1216C31.8396 34.9735 31.8682 34.8135 31.9184 34.6606L32.0354 34.2355L32.174 33.8175L32.3292 33.3995C32.5394 32.8429 32.7854 32.2959 33.0291 31.7466C33.2775 31.1996 33.533 30.655 33.7982 30.1152C34.0084 29.69 34.209 29.2601 34.4311 28.8421C34.455 28.8301 34.4789 28.8158 34.5028 28.8039L36.1485 27.9774C36.7958 27.6526 37.4455 27.3277 38.088 26.9862C38.4105 26.8142 38.7306 26.6398 39.0482 26.4488C39.2083 26.3556 39.3659 26.2529 39.5236 26.143C39.6024 26.0881 39.6812 26.0284 39.7624 25.9567C39.8388 25.8946 39.9535 25.7608 40.0013 25.6271C40.049 25.479 40.0992 25.3787 40.1685 25.2497C40.2353 25.1231 40.3261 24.9941 40.3954 24.7911C40.4121 24.7433 40.424 24.6741 40.4312 24.6334C40.4312 24.6287 40.4384 24.612 40.4455 24.5905C40.4646 24.5451 40.4957 24.4854 40.5291 24.428C40.6008 24.3086 40.682 24.182 40.7656 24.0506C40.8492 23.9193 40.9328 23.7807 41.0092 23.6326C41.0475 23.5562 41.0833 23.4822 41.1167 23.3962C41.1525 23.3006 41.1764 23.2075 41.1932 23.1191C41.2553 22.7656 41.2409 22.4431 41.2218 22.1255C41.2099 21.9559 41.1908 21.7887 41.1717 21.6263C41.1621 21.5498 41.1478 21.4423 41.1526 21.4423C41.1549 21.4184 41.1717 21.342 41.1884 21.2775C41.2672 20.9981 41.389 20.6828 41.4655 20.334ZM14.9715 37.0922C14.3744 37.0492 13.7797 36.9799 13.2088 36.8438C12.6379 36.7052 12.0814 36.5165 11.6085 36.2036C11.1284 35.9051 10.7677 35.4584 10.5599 34.9449C10.4954 34.8207 10.4715 34.6797 10.4237 34.5484L10.2947 34.1017C10.1968 33.8079 10.0941 33.5189 9.97468 33.237C9.73343 32.6757 9.47547 32.124 9.19123 31.5889C8.91177 31.0515 9.80986 30.2513 10.1634 30.5165C10.751 30.956 11.2788 31.4695 11.8306 31.9496C12.915 32.9026 13.9707 33.8987 14.8951 35.0117C15.4994 35.714 16.0225 36.4998 16.6889 37.1591C16.1109 37.1447 15.54 37.1423 14.9715 37.0922ZM33.5928 30.0101C33.2799 30.5284 32.9741 31.0515 32.6947 31.5913C32.4104 32.1264 32.1501 32.6781 31.9112 33.2394C31.7918 33.5213 31.6891 33.8103 31.5911 34.1041L31.4622 34.5508C31.4144 34.6821 31.3905 34.823 31.326 34.9473C31.1158 35.4608 30.7575 35.9075 30.2774 36.206C29.8045 36.5189 29.248 36.7076 28.6771 36.8462C28.1038 36.9823 27.5091 37.0516 26.9143 37.0946C26.3506 37.1447 25.7822 37.1471 25.2137 37.1638C25.4525 36.9632 25.6795 36.7482 25.892 36.5189C26.1978 36.1845 26.4605 35.8382 26.7376 35.5014C27.0194 35.1694 27.2989 34.8326 27.5927 34.5125C28.3761 33.6407 29.1715 32.7737 30.0481 31.9926C30.9677 31.1829 31.9327 30.4257 32.9431 29.7426C33.1891 29.5682 33.7528 29.7521 33.5928 30.0101ZM40.8588 20.6684C40.8014 20.8715 40.7298 21.0626 40.6868 21.2942C39.4925 22.0204 38.3436 22.7919 37.209 23.592C36.0745 24.397 34.9638 25.2354 33.8818 26.1096C32.7998 26.9838 31.7583 27.9058 30.748 28.8612C29.7472 29.8262 28.8013 30.8461 27.9175 31.9162C28.83 30.87 29.8021 29.8811 30.8292 28.9472C31.8611 28.0228 32.9263 27.1343 34.0275 26.2959C35.131 25.4575 36.2584 24.6549 37.4097 23.8858C38.4893 23.1693 39.588 22.4766 40.7059 21.8317C40.7202 21.9463 40.7322 22.061 40.7417 22.1756C40.7632 22.4694 40.7728 22.7704 40.7202 23.0427C40.6748 23.2935 40.5076 23.5538 40.35 23.8022C40.2688 23.9288 40.1828 24.0554 40.1016 24.1916C40.061 24.2608 40.0204 24.3325 39.9845 24.4185C39.9678 24.4639 39.9511 24.5116 39.9415 24.569C39.9344 24.6024 39.9296 24.6215 39.9201 24.6478C39.8388 24.858 39.6143 25.1565 39.5236 25.4599C39.5068 25.4981 39.4925 25.5196 39.4519 25.553C39.4113 25.5913 39.3564 25.6319 39.3062 25.6725C39.1963 25.7513 39.0817 25.8277 38.9599 25.8994C38.721 26.0475 38.4702 26.186 38.2194 26.3245C37.7154 26.5992 37.2043 26.8644 36.6931 27.1319C35.6302 27.698 34.5553 28.2187 33.4972 28.8421C32.4677 29.5109 31.5099 30.2466 30.5927 31.042C29.6755 31.8326 28.8109 32.6829 28.0011 33.581C27.7981 33.8055 27.5975 34.03 27.404 34.2617C27.2057 34.491 27.0147 34.7227 26.8284 34.9616C26.4414 35.4226 26.107 35.9337 25.7225 36.3852C24.9892 37.2427 24.0218 37.9091 22.9541 38.2912C22.2519 38.542 21.4326 38.7594 20.7065 38.7809C20.7017 38.7809 20.6993 38.7809 20.6945 38.7809C20.6038 38.7737 20.5058 38.7642 20.4007 38.7546C20.298 38.7403 20.1905 38.7236 20.0902 38.7092C19.7558 38.6591 19.4286 38.5898 19.1085 38.4895C18.5377 38.3032 18.0098 38.0118 17.5416 37.6487C17.0711 37.288 16.6698 36.8462 16.3044 36.378C15.9437 35.9098 15.5997 35.3987 15.22 34.921C15.0336 34.6797 14.8449 34.4409 14.6467 34.2092C14.4532 33.9727 14.2526 33.741 14.0472 33.5165C13.001 32.3437 11.8425 31.2713 10.61 30.2943C9.9914 29.8071 9.35365 29.3461 8.69202 28.9161C8.35045 28.6892 7.99695 28.5077 7.65061 28.3238L6.60681 27.7935L4.34723 26.6828C3.97222 26.4965 3.602 26.3078 3.23894 26.1048C3.05741 26.0045 2.87826 25.8994 2.71107 25.7895C2.62747 25.7346 2.54625 25.6772 2.47221 25.6175C2.39816 25.5507 2.35756 25.522 2.33367 25.4575C2.25963 25.2234 2.10915 24.9774 2.00644 24.7863C1.96822 24.7123 1.94195 24.6454 1.93001 24.5857C1.91329 24.4662 1.86074 24.3588 1.81774 24.2752C1.72459 24.1032 1.62188 23.9527 1.52634 23.7998C1.4308 23.6494 1.34242 23.4989 1.26837 23.3436C1.23016 23.2648 1.20149 23.1931 1.18239 23.1191C1.16328 23.0427 1.14895 22.9591 1.14178 22.8755C1.10834 22.5363 1.137 22.1804 1.17761 21.8269C2.28829 22.4622 3.38225 23.1454 4.45233 23.8524C5.59883 24.612 6.71907 25.4073 7.81542 26.2386C8.91177 27.0698 9.96751 27.9512 10.9946 28.8684C12.0145 29.7927 12.9795 30.7768 13.8847 31.8158C13.0081 30.7529 12.0694 29.7378 11.0758 28.78C10.075 27.8317 9.03836 26.9145 7.96351 26.0475C6.88627 25.1828 5.78275 24.3492 4.65296 23.5538C3.52795 22.7632 2.38622 22.0013 1.2015 21.2871C1.19672 21.268 1.19433 21.2489 1.18955 21.2298C1.14417 21.0411 1.08684 20.8691 1.0343 20.6971C0.933976 20.3555 0.826491 20.0116 0.879039 19.6963C0.936365 19.3714 1.04385 19.0156 1.09162 18.6573C2.30979 19.4957 3.49212 20.3842 4.64341 21.3014C5.87113 22.2807 7.06063 23.3102 8.2167 24.3731C9.37754 25.4336 10.4882 26.5491 11.5535 27.7051L12.3465 28.5793L13.1109 29.4798L13.493 29.9313L13.8561 30.397L14.5822 31.3286L13.88 30.3803L13.5289 29.905L13.1586 29.444L12.4182 28.5244L11.6467 27.6287C10.6076 26.444 9.52085 25.2975 8.3839 24.2035C7.25172 23.1048 6.08132 22.0442 4.87271 21.0267C3.67127 20.0164 2.44355 19.0466 1.15611 18.1294C1.16806 17.9288 1.17044 17.7305 1.16328 17.5299C1.15372 17.346 1.14178 17.162 1.12506 16.9781C1.1179 16.8778 1.10834 16.8181 1.12028 16.7345C1.12506 16.658 1.14417 16.5768 1.16806 16.498C1.28748 16.1158 1.54545 15.7695 1.77475 15.3849C1.77714 15.3802 1.78192 15.373 1.7843 15.3682C3.06457 16.4264 4.30662 17.5538 5.51046 18.7098C6.76923 19.9256 7.98501 21.1868 9.15301 22.4885C10.3282 23.7855 11.4245 25.1518 12.4779 26.5515C13.5265 27.9559 14.4747 29.4321 15.3513 30.9512C14.5106 29.413 13.5957 27.9129 12.5758 26.4822C11.5535 25.0562 10.4834 23.6589 9.33215 22.3309C8.18803 20.9981 6.99853 19.7035 5.76126 18.4542C4.54548 17.2313 3.30104 16.049 1.98733 14.9168C2.00644 14.8499 2.02316 14.7854 2.03271 14.7185C2.07332 14.4845 2.08049 14.2623 2.10198 14.0545C2.12109 13.8467 2.15453 13.6508 2.22141 13.4789C2.28829 13.3069 2.39339 13.1373 2.51281 12.9773C2.63463 12.8172 2.77556 12.6644 2.92126 12.4996C2.96903 12.447 3.0168 12.3873 3.06457 12.33C4.36395 13.5816 5.61317 14.9048 6.817 16.2592C8.08294 17.6899 9.29633 19.1684 10.4524 20.6923C11.5965 22.2234 12.669 23.8094 13.6578 25.4456C14.6204 27.0984 15.4803 28.811 16.1802 30.5953C15.5185 28.7967 14.6921 27.0626 13.7605 25.3858C12.8027 23.7234 11.7613 22.1111 10.6459 20.5514C9.51846 18.9988 8.33135 17.4893 7.0893 16.0251C5.88785 14.6158 4.6458 13.2448 3.33209 11.9263C3.33687 11.9168 3.34403 11.9072 3.34642 11.8976C3.44196 11.6397 3.46107 11.4104 3.49212 11.193C3.52079 10.9757 3.55184 10.7726 3.60678 10.5839C3.65932 10.3929 3.74531 10.24 3.86235 10.0776C3.977 9.92231 4.11554 9.7981 4.28513 9.6739C4.45471 9.54969 4.64819 9.41832 4.82494 9.26784C4.84166 9.25351 4.85599 9.23918 4.87271 9.22723C6.10282 10.7607 7.27321 12.3586 8.39345 13.9805C9.55907 15.6763 10.6674 17.4152 11.7159 19.1875C12.7741 20.9551 13.7319 22.7823 14.6324 24.6334C15.5329 26.487 16.302 28.4026 16.9947 30.3445C16.3402 28.3883 15.6045 26.4583 14.7399 24.5833C13.8728 22.7107 12.9484 20.8619 11.9214 19.0681C10.9038 17.2695 9.82659 15.5068 8.68963 13.7822C7.58612 12.115 6.43722 10.4788 5.2095 8.89045C5.25249 8.83551 5.29071 8.77819 5.32415 8.71369C5.4603 8.47006 5.47463 8.1906 5.48896 7.98518C5.50329 7.77021 5.53673 7.6054 5.63227 7.45492C5.72543 7.30683 5.88068 7.16113 6.04072 7.03931C6.20075 6.91511 6.38228 6.81479 6.57576 6.72402C6.76923 6.63326 6.97464 6.54966 7.17767 6.45173C7.25411 6.4159 7.33054 6.3729 7.40697 6.32991C8.51527 8.14999 9.55668 10.0226 10.5527 11.9144C11.5702 13.8515 12.528 15.8197 13.4333 17.8141C14.3481 19.8038 15.1626 21.8364 15.9317 23.8858C16.6937 25.94 17.341 28.0348 17.9095 30.151C17.3792 28.0252 16.7701 25.9161 16.044 23.8476C15.3131 21.7815 14.532 19.7297 13.6531 17.7186C12.7836 15.705 11.8569 13.7153 10.8728 11.7519C9.90063 9.82199 8.88788 7.9183 7.79153 6.04567C7.94679 5.85936 8.04233 5.65873 8.13787 5.46764C8.23342 5.267 8.32657 5.07114 8.43167 4.88244C8.53915 4.69852 8.6538 4.50983 8.80667 4.38323C8.96432 4.25186 9.16495 4.16587 9.37037 4.10377C9.74299 3.98673 10.1395 3.95807 10.5336 3.87925L10.5002 3.89597C11.4819 5.94058 12.3489 8.05923 13.161 10.1898C13.966 12.3252 14.7207 14.4797 15.3919 16.6628C16.0631 18.846 16.6961 21.0411 17.2335 23.26C17.5201 24.3659 17.759 25.4838 18.0098 26.5968C18.2582 27.7123 18.4588 28.8373 18.6858 29.9576C18.4779 28.8349 18.2964 27.7051 18.0671 26.5849C17.8354 25.4647 17.6157 24.3444 17.3482 23.2314C16.849 21.0004 16.2542 18.791 15.6188 16.5912C14.9835 14.3937 14.2645 12.2201 13.4954 10.0632C12.7167 7.90875 11.8903 5.77815 10.9301 3.68339L10.911 3.69294C10.9803 3.62367 11.04 3.54724 11.0949 3.47319C11.2215 3.3036 11.3385 3.13163 11.4723 2.97637C11.6562 2.75424 11.8736 2.53927 12.1315 2.38162C12.1936 2.3434 12.2581 2.30996 12.325 2.27891C12.4827 2.22636 12.6546 2.18815 12.8195 2.17859C13.2709 2.14276 13.7175 2.2192 14.1785 2.24786H14.1762C14.8211 4.48594 15.3919 6.75746 15.927 9.03376C16.4572 11.3101 16.9564 13.5959 17.4031 15.8913C17.8498 18.1867 18.2701 20.4893 18.6308 22.799C19.0082 25.1088 19.3163 27.4281 19.6077 29.7497C19.3546 27.4233 19.087 25.0968 18.7479 22.7799C18.4254 20.4606 18.0456 18.1509 17.6372 15.8459C17.2311 13.541 16.7701 11.2432 16.2757 8.95255C15.7813 6.67864 15.2534 4.41429 14.6467 2.16187C14.7064 2.13321 14.7637 2.09977 14.8163 2.06155C14.993 1.93735 15.1411 1.78687 15.2868 1.63878C15.5735 1.34737 15.8505 1.02492 16.1897 0.864884C16.5217 0.702462 16.8967 0.869662 17.2622 1.04403C17.5751 1.19212 17.9214 1.3617 18.3131 1.39992L19.4071 15.4924L19.9374 22.6199C20.1069 24.9965 20.2813 27.3731 20.4079 29.7521C20.3219 27.3707 20.1858 24.9917 20.0568 22.6127L19.646 15.4781L18.7861 1.37604C18.9294 1.3426 19.0655 1.29483 19.1897 1.2375C19.3952 1.14196 19.5743 1.02253 19.7487 0.910267C20.0926 0.685742 20.4198 0.494658 20.7686 0.465995C21.1221 0.434944 21.4541 0.535263 21.7694 0.745456C22.0918 0.946095 22.4071 1.24467 22.8681 1.4262C22.9374 1.45486 23.0114 1.47636 23.0855 1.49546L22.1707 15.4733L21.7312 22.6103C21.5926 24.9893 21.4469 27.3683 21.3609 29.7497C21.4875 27.3707 21.6738 24.9941 21.8506 22.6175L22.4095 15.49L23.556 1.53846C23.6444 1.53368 23.7328 1.52652 23.8164 1.5098C24.1245 1.45486 24.392 1.33782 24.638 1.23511C24.8817 1.13001 25.111 1.03686 25.2949 1.01536C25.3857 1.00581 25.4573 1.02014 25.529 1.04403C25.6054 1.07508 25.6914 1.12763 25.7774 1.19451C25.9494 1.33304 26.1213 1.51935 26.2981 1.71521C26.4772 1.91107 26.6635 2.12366 26.9263 2.31713C26.9932 2.3649 27.072 2.41267 27.1604 2.45089C26.5967 4.61015 26.1022 6.77896 25.6365 8.95733C25.1516 11.248 24.7001 13.5434 24.2989 15.8507C23.8976 18.1557 23.5202 20.4654 23.2025 22.7847C22.8681 25.1016 22.6006 27.4257 22.3498 29.7497C22.6412 27.4281 22.9493 25.1112 23.3219 22.8014C23.6802 20.4917 24.0935 18.1891 24.5353 15.8937C24.9748 13.5983 25.4669 11.3124 25.9876 9.03376C26.4892 6.86256 27.0242 4.69375 27.6237 2.55121C27.7312 2.5536 27.8316 2.54643 27.9271 2.53927C28.2185 2.5106 28.4693 2.46283 28.7082 2.4485C28.947 2.42939 29.1596 2.45089 29.3483 2.51538C29.3961 2.52971 29.4391 2.55599 29.4844 2.57271C29.5274 2.60137 29.568 2.62286 29.6134 2.65392C29.7066 2.7208 29.7973 2.79245 29.8785 2.87366C30.0481 3.03131 30.1891 3.21762 30.3395 3.43259C30.416 3.54007 30.4924 3.65472 30.5999 3.77893C30.6572 3.84581 30.7313 3.91985 30.8196 3.98434C29.9192 5.97879 29.1285 8.00668 28.3905 10.0561C27.6214 12.2105 26.9024 14.3865 26.267 16.584C25.6341 18.7815 25.0393 20.9909 24.5377 23.2242C24.2702 24.3349 24.0505 25.4575 23.8188 26.5777C23.5895 27.698 23.4079 28.8254 23.2001 29.9504C23.427 28.8301 23.6277 27.7051 23.8761 26.5897C24.1269 25.4742 24.3657 24.3588 24.6524 23.2529C25.1898 21.0339 25.8228 18.8364 26.494 16.6557C27.1651 14.4725 27.9199 12.318 28.7249 10.1827C29.4988 8.14999 30.3252 6.12927 31.252 4.17304C31.3451 4.19454 31.4311 4.20648 31.5147 4.22081L31.9112 4.27575C32.1644 4.31158 32.4104 4.35457 32.6182 4.43101C32.7257 4.46683 32.8165 4.5146 32.8953 4.56715C32.9741 4.62448 33.0195 4.66986 33.0983 4.77257C33.2393 4.95888 33.3611 5.17624 33.4829 5.40793C33.5593 5.55124 33.6381 5.70172 33.7313 5.85698C33.8006 5.96924 33.8818 6.08867 33.9988 6.20093C32.9383 8.02101 31.9542 9.87215 31.0083 11.7496C30.0242 13.7106 29.0975 15.7026 28.2281 17.7162C27.3491 19.7273 26.568 21.7791 25.8371 23.8452C25.111 25.9161 24.5019 28.0228 23.9716 30.1486C24.5401 28.0324 25.1874 25.9376 25.9494 23.8834C26.7161 21.8341 27.533 19.799 28.4478 17.8117C29.3531 15.8197 30.3133 13.8515 31.3284 11.912C32.2982 10.068 33.3157 8.24076 34.3929 6.46367C34.6342 6.58788 34.873 6.67386 35.0975 6.76224C35.3985 6.87689 35.6612 7.0011 35.8929 7.18024C36.1414 7.37132 36.2871 7.5433 36.3372 7.81321C36.3659 7.94697 36.3707 8.11178 36.4065 8.29808C36.4399 8.48439 36.5187 8.68742 36.6406 8.84506C36.6501 8.8594 36.6621 8.87134 36.674 8.88567C35.4439 10.4765 34.2974 12.1126 33.1915 13.7822C32.0545 15.5068 30.9773 17.2719 29.9598 19.0681C28.9327 20.8595 28.0083 22.7107 27.1413 24.5833C26.2766 26.4583 25.5409 28.3907 24.8865 30.3445C25.5791 28.4026 26.3506 26.487 27.2487 24.6334C28.1516 22.7823 29.107 20.9551 30.1652 19.1875C31.2138 17.4152 32.322 15.6787 33.4877 13.9805C34.6103 12.3515 35.7831 10.7487 37.018 9.2129C37.0227 9.21768 37.0275 9.22246 37.0323 9.22485C37.166 9.33233 37.307 9.43265 37.4455 9.5258C37.725 9.70972 37.9543 9.87453 38.1215 10.1253C38.2982 10.3618 38.377 10.6484 38.4296 10.9637C38.4726 11.2002 38.4917 11.4486 38.5634 11.7137C38.5753 11.7615 38.5944 11.8117 38.6135 11.8618C37.2735 13.1994 36.0124 14.5919 34.7918 16.0251C33.5498 17.4893 32.3626 18.9988 31.2352 20.5514C30.1174 22.1111 29.076 23.7258 28.1206 25.3858C27.189 27.0626 26.3626 28.7967 25.701 30.5953C26.4008 28.811 27.2607 27.0984 28.2233 25.4456C29.2121 23.8094 30.2822 22.2234 31.4287 20.6923C32.5848 19.1684 33.7958 17.6899 35.0641 16.2592C36.2871 14.8833 37.5554 13.5386 38.8786 12.2703C38.9169 12.3156 38.9551 12.361 38.9933 12.4064C39.3253 12.7766 39.6454 13.1373 39.7624 13.572C39.8197 13.7894 39.8341 14.0259 39.846 14.2743C39.858 14.4725 39.8675 14.6827 39.9224 14.8929C38.5992 16.0299 37.3452 17.2217 36.1222 18.4542C34.885 19.7035 33.6955 20.9981 32.5513 22.3309C31.4001 23.6589 30.3324 25.0562 29.3077 26.4822C28.2878 27.9129 27.3729 29.413 26.5322 30.9512C27.4088 29.4321 28.357 27.9559 29.4056 26.5515C30.459 25.1518 31.5553 23.7855 32.7305 22.4885C33.9009 21.1868 35.1143 19.9256 36.373 18.7098C37.5817 17.549 38.8285 16.4168 40.1135 15.3539C40.1852 15.4853 40.2616 15.6071 40.3357 15.7313C40.4623 15.9415 40.5841 16.1517 40.6701 16.3666C40.7131 16.4741 40.7417 16.5816 40.7608 16.6891C40.7752 16.799 40.768 16.8897 40.7537 17.0259C40.7274 17.2767 40.7178 17.5299 40.7154 17.7807C40.7154 17.8953 40.7202 18.01 40.725 18.127C39.4376 19.0418 38.2098 20.014 37.0084 21.0243C35.7998 22.0419 34.6294 23.1024 33.4972 24.2011C32.3603 25.2951 31.2759 26.4416 30.2344 27.6263L29.4629 28.522L28.7225 29.4416L28.3523 29.9026L28.0011 30.3779L27.2989 31.3262L28.025 30.3947L28.3881 29.9289L28.7703 29.4774L29.5346 28.577L30.3276 27.7027C31.3953 26.5467 32.506 25.4312 33.6644 24.3707C34.8205 23.3054 36.01 22.2783 37.2377 21.299C38.389 20.3794 39.5737 19.4909 40.7847 18.6644C40.8158 18.8722 40.854 19.08 40.9041 19.2831C40.9615 19.5267 41.026 19.756 41.0068 19.971C40.9925 20.2003 40.928 20.4344 40.8588 20.6684Z" fill="#ECC4AD"/>
</g>
<defs>
<clipPath id="clip0_258_1488">
<rect width="41.1931" height="38.6588" fill="white" transform="translate(0.329102 0.148926)"/>
</clipPath>
</defs>
</svg>
