<svg width="42" height="40" viewBox="0 0 42 40" fill="none" xmlns="http://www.w3.org/2000/svg">
<g clip-path="url(#clip0_258_1475)">
<path d="M41.5079 21.1744C41.5461 21 41.5772 20.8041 41.5605 20.5868C41.5414 20.3838 41.5008 20.2166 41.4649 20.0589C41.3933 19.746 41.3407 19.457 41.3168 19.1537C41.293 18.8527 41.2954 18.547 41.3145 18.2412C41.3216 18.0836 41.3407 17.9427 41.3551 17.7707C41.3766 17.5366 41.3336 17.3192 41.2739 17.1329C41.1473 16.7603 40.961 16.4665 40.7961 16.1871C40.7125 16.0509 40.6337 15.9172 40.5764 15.7977C40.5215 15.6831 40.4952 15.5899 40.4737 15.4514C40.4235 15.1313 40.4594 14.699 40.3256 14.2356C40.1847 13.7651 39.8957 13.4092 39.6281 13.1082C39.4944 12.9577 39.363 12.8192 39.2555 12.6854C39.2316 12.6544 39.2006 12.6138 39.1863 12.5923C39.1719 12.5732 39.1576 12.5469 39.1456 12.5182C39.1194 12.4561 39.0955 12.3821 39.0788 12.2961C39.0023 11.9569 38.9761 11.5246 38.8041 11.1042C38.7611 10.9991 38.7062 10.894 38.6464 10.7961C38.5867 10.7053 38.5222 10.6145 38.4482 10.5286C38.3025 10.3542 38.1233 10.2109 37.9538 10.0962C37.7842 9.98158 37.6265 9.88126 37.4784 9.77138C37.3351 9.66151 37.1775 9.53492 37.0867 9.42504C36.9912 9.30562 36.9362 9.17902 36.91 9.00227C36.8813 8.83029 36.8741 8.61532 36.8025 8.3908C36.7356 8.16627 36.5875 7.96802 36.4299 7.81993C36.277 7.67423 36.105 7.54764 35.9235 7.44493C35.4935 7.19652 35.0564 6.99827 34.6838 6.8024C34.6241 6.77374 34.5548 6.73314 34.5071 6.70447C34.4688 6.68059 34.4282 6.64237 34.3876 6.59699C34.3064 6.50622 34.2324 6.38441 34.1583 6.25781C34.0126 6.00224 33.8717 5.72277 33.6902 5.45764C33.5946 5.32389 33.5086 5.19968 33.3677 5.0707C33.2292 4.95366 33.0739 4.87245 32.9187 4.81035C32.6058 4.69331 32.2929 4.64792 31.9895 4.60971L31.5405 4.55477C31.3948 4.53327 31.2586 4.50939 31.1679 4.4449C30.9648 4.30875 30.8048 4.02212 30.6137 3.78326C30.4226 3.53724 30.1957 3.31033 29.9354 3.13119C29.6726 2.94249 29.343 2.84695 29.0301 2.84217C28.7697 2.83262 28.5118 2.86367 28.2634 2.89711C28.015 2.92816 27.7665 2.9616 27.542 2.92338C27.3366 2.878 27.1503 2.71797 26.9807 2.5436C26.8087 2.36924 26.6463 2.17815 26.4672 1.99662C26.2904 1.81748 26.0993 1.64073 25.8605 1.51413C25.7387 1.45919 25.6001 1.40665 25.4592 1.40904C25.3207 1.40426 25.1845 1.42814 25.0603 1.46636C24.5635 1.62162 24.155 1.91063 23.6821 1.9799C22.6813 2.17099 22.0579 0.95282 20.9735 0.993426C20.577 0.993426 20.1948 1.15107 19.8747 1.36365C19.5499 1.56907 19.2537 1.81748 18.9026 1.93452C18.5539 2.05633 18.1717 2.00618 17.8254 1.87242C17.4719 1.74582 17.1398 1.54041 16.7433 1.46636C16.5475 1.42814 16.3277 1.45203 16.1486 1.54757C15.9671 1.63834 15.8166 1.76732 15.678 1.90108C15.3986 2.1686 15.1645 2.47433 14.885 2.72274C14.7441 2.84217 14.5889 2.95443 14.4121 2.97593C14.233 2.99743 14.0395 2.97593 13.8508 2.96399C13.471 2.93533 13.0817 2.90666 12.7019 2.97832C12.6135 2.99504 12.518 3.01892 12.4296 3.04759C12.3484 3.07147 12.272 3.09536 12.1979 3.12641C11.9519 3.23151 11.7321 3.39393 11.5434 3.58501C11.3524 3.77371 11.1947 3.99107 11.0395 4.19649C10.9439 4.3183 10.8412 4.45206 10.7409 4.50222C10.6334 4.55238 10.4638 4.57149 10.3109 4.5906C9.99566 4.62881 9.66843 4.65748 9.34358 4.74108C9.18116 4.78168 9.01635 4.8414 8.8587 4.925C8.77988 4.9656 8.70584 5.02054 8.63179 5.07786C8.56252 5.14236 8.49564 5.21162 8.44787 5.2785C8.23768 5.54602 8.08242 5.84459 7.93433 6.12644C7.83401 6.31514 7.73847 6.50383 7.62143 6.64715C7.59277 6.68298 7.56172 6.71403 7.53067 6.7403C7.50439 6.76419 7.46379 6.79046 7.41601 6.81912C7.33003 6.87406 7.23926 6.92183 7.14611 6.9696C6.77588 7.15352 6.34833 7.29445 5.96616 7.54763C5.76552 7.68139 5.58638 7.82471 5.42634 8.02296C5.26631 8.22121 5.18271 8.48634 5.15883 8.72042C5.13255 8.95689 5.11583 9.15753 5.03223 9.32472C4.94863 9.48715 4.79815 9.61852 4.62379 9.75944C4.4542 9.89559 4.27506 10.0126 4.08397 10.1416C3.89289 10.2706 3.69225 10.433 3.53938 10.6313C3.3889 10.82 3.25514 11.0564 3.18587 11.2929C3.10944 11.5294 3.07122 11.7658 3.03778 11.988C2.99957 12.2268 2.96374 12.4633 2.88253 12.6138C2.86581 12.6448 2.83715 12.6878 2.80132 12.7308C2.76788 12.7738 2.73205 12.8192 2.69383 12.8622L2.45498 13.1297C2.29016 13.3136 2.11819 13.5119 1.97726 13.7459C1.83634 13.9705 1.72169 14.2523 1.68108 14.5246C1.59271 15.0692 1.65958 15.5398 1.46372 15.867C1.26308 16.2563 0.931074 16.6552 0.749544 17.2046C0.704161 17.3383 0.677887 17.4888 0.67311 17.6465L0.675498 17.7683L0.682664 17.8614L0.694607 18.031C0.708938 18.2579 0.713715 18.4849 0.704161 18.7094C0.68983 19.1608 0.618173 19.586 0.498745 20.0326C0.470082 20.1473 0.436642 20.2643 0.410368 20.4005C0.384094 20.5295 0.364985 20.699 0.376928 20.8495C0.398425 21.1457 0.465305 21.3917 0.532185 21.6306C0.599064 21.8599 0.680275 22.1035 0.708938 22.2636C0.711327 22.3042 0.716104 22.2779 0.708938 22.3257L0.685052 22.5024C0.670721 22.6242 0.65639 22.746 0.646835 22.8702C0.620561 23.1975 0.608618 23.5295 0.661167 23.8926C0.675498 23.9833 0.694607 24.0789 0.728046 24.1768C0.763875 24.2843 0.799703 24.3631 0.840309 24.4419C0.919131 24.5996 1.00751 24.7429 1.09588 24.8766L1.34907 25.2612C1.38729 25.3209 1.42312 25.3806 1.44461 25.4284C1.47328 25.4953 1.45895 25.4403 1.49716 25.6052C1.56643 25.8297 1.66675 25.961 1.73841 26.09C1.81484 26.2238 1.86739 26.3193 1.92233 26.4722C1.93905 26.5224 1.9701 26.563 1.99159 26.6107C2.02503 26.6513 2.05609 26.6919 2.08953 26.7302C2.15879 26.7947 2.21134 26.84 2.27106 26.883C2.3881 26.9714 2.50275 27.0431 2.6174 27.1147C2.84909 27.2556 3.08078 27.3822 3.31486 27.5064C3.78063 27.7525 4.25117 27.9842 4.72172 28.2158C5.02745 28.3663 5.29258 28.5956 5.59832 28.7413C6.22412 29.0447 6.85231 29.3409 7.47334 29.649C7.70503 30.0789 7.91284 30.5232 8.12781 30.9603C8.39055 31.5025 8.64851 32.0447 8.89692 32.5917C9.14055 33.1411 9.38658 33.688 9.59677 34.2446L9.75203 34.6626L9.89056 35.0806L10.0076 35.5057C10.0578 35.6586 10.0864 35.8186 10.1581 35.9667C10.4065 36.5663 10.8508 37.0989 11.4049 37.4261C11.9567 37.7581 12.5657 37.9468 13.1748 38.0496C13.7839 38.1594 14.3978 38.1785 15.0069 38.1666C15.5897 38.1546 16.1677 38.0949 16.741 38.0137C16.8699 38.1403 17.0037 38.2669 17.147 38.3816C17.5817 38.7422 18.0714 39.0408 18.5945 39.2486C19.1176 39.4588 19.6765 39.5806 20.2354 39.6236C20.3668 39.6379 20.5173 39.6499 20.6248 39.6427C20.7513 39.6403 20.9185 39.6427 20.9687 39.6427C20.9377 39.6403 20.8564 39.6356 20.7752 39.626C21.1717 39.6212 21.456 39.6021 21.7378 39.5663C22.4496 39.4707 23.1495 39.2629 23.8015 38.9476C24.3151 38.6945 24.7976 38.3792 25.2371 38.0113C25.8079 38.0925 26.3812 38.1523 26.9616 38.1618C27.5707 38.1738 28.1845 38.1546 28.7936 38.0448C29.4027 37.9421 30.0118 37.7534 30.5635 37.4214C31.1177 37.0965 31.562 36.5615 31.8104 35.9619C31.882 35.8139 31.9107 35.6538 31.9609 35.501L32.0779 35.0758L32.2164 34.6578L32.3717 34.2398C32.5819 33.6833 32.8279 33.1363 33.0715 32.5869C33.3199 32.0399 33.5755 31.4953 33.8407 30.9555C34.0508 30.5304 34.2515 30.1004 34.4736 29.6824C34.4975 29.6705 34.5214 29.6561 34.5453 29.6442L36.191 28.8178C36.8383 28.4929 37.488 28.1681 38.1305 27.8265C38.453 27.6545 38.773 27.4802 39.0907 27.2891C39.2507 27.1959 39.4084 27.0932 39.566 26.9834C39.6449 26.9284 39.7237 26.8687 39.8049 26.797C39.8813 26.7349 39.996 26.6012 40.0437 26.4674C40.0915 26.3193 40.1417 26.219 40.2109 26.09C40.2778 25.9634 40.3686 25.8345 40.4379 25.6314C40.4546 25.5837 40.4665 25.5144 40.4737 25.4738C40.4737 25.469 40.4808 25.4523 40.488 25.4308C40.5071 25.3854 40.5382 25.3257 40.5716 25.2684C40.6433 25.1489 40.7245 25.0223 40.8081 24.891C40.8917 24.7596 40.9753 24.6211 41.0517 24.473C41.0899 24.3965 41.1258 24.3225 41.1592 24.2365C41.195 24.141 41.2189 24.0478 41.2356 23.9594C41.2977 23.6059 41.2834 23.2835 41.2643 22.9658C41.2524 22.7962 41.2332 22.629 41.2141 22.4666C41.2046 22.3901 41.1903 22.2827 41.195 22.2827C41.1974 22.2588 41.2141 22.1823 41.2309 22.1179C41.3097 21.8384 41.4315 21.5231 41.5079 21.1744ZM15.014 37.9325C14.4169 37.8895 13.8221 37.8202 13.2513 37.6841C12.6804 37.5456 12.1239 37.3569 11.6509 37.044C11.1708 36.7454 10.8102 36.2987 10.6024 35.7852C10.5379 35.661 10.514 35.5201 10.4662 35.3887L10.3372 34.942C10.2393 34.6482 10.1366 34.3592 10.0172 34.0774C9.77591 33.5161 9.51795 32.9643 9.23371 32.4293C8.95425 31.8918 9.85235 31.0917 10.2059 31.3568C10.7934 31.7963 11.3213 32.3098 11.8731 32.7899C12.9575 33.743 14.0132 34.739 14.9376 35.8521C15.5419 36.5543 16.065 37.3401 16.7314 37.9994C16.1534 37.9851 15.5825 37.9827 15.014 37.9325ZM33.6352 30.8504C33.3223 31.3687 33.0166 31.8918 32.7371 32.4317C32.4529 32.9667 32.1925 33.5184 31.9537 34.0798C31.8343 34.3616 31.7316 34.6506 31.6336 34.9444L31.5046 35.3911C31.4569 35.5225 31.433 35.6634 31.3685 35.7876C31.1583 36.3011 30.8 36.7478 30.3199 37.0464C29.847 37.3593 29.2904 37.548 28.7196 37.6865C28.1463 37.8226 27.5516 37.8919 26.9568 37.9349C26.3931 37.9851 25.8246 37.9874 25.2562 38.0042C25.495 37.8035 25.7219 37.5886 25.9345 37.3593C26.2403 37.0249 26.503 36.6785 26.7801 36.3417C27.0619 36.0097 27.3414 35.6729 27.6352 35.3529C28.4186 34.481 29.214 33.614 30.0906 32.8329C31.0102 32.0232 31.9752 31.266 32.9855 30.5829C33.2316 30.4085 33.7953 30.5925 33.6352 30.8504ZM40.9012 21.5088C40.8439 21.7118 40.7723 21.9029 40.7293 22.1346C39.535 22.8607 38.3861 23.6322 37.2515 24.4324C36.1169 25.2373 35.0063 26.0757 33.9243 26.9499C32.8422 27.8241 31.8008 28.7461 30.7905 29.7015C29.7897 30.6665 28.8438 31.6864 27.96 32.7565C28.8724 31.7103 29.8446 30.7214 30.8717 29.7875C31.9035 28.8631 32.9688 27.9746 34.07 27.1362C35.1735 26.2978 36.3009 25.4953 37.4522 24.7262C38.5318 24.0096 39.6305 23.3169 40.7484 22.672C40.7627 22.7866 40.7746 22.9013 40.7842 23.016C40.8057 23.3097 40.8153 23.6107 40.7627 23.883C40.7181 24.1296 40.5557 24.3854 40.4004 24.6301C40.3978 24.6342 40.3951 24.6384 40.3925 24.6426C40.3113 24.7692 40.2253 24.8957 40.1441 25.0319C40.1035 25.1012 40.0629 25.1728 40.027 25.2588C40.0103 25.3042 39.9936 25.352 39.984 25.4093C39.9769 25.4427 39.9721 25.4618 39.9625 25.4881C39.8813 25.6983 39.6568 25.9969 39.566 26.3002C39.5493 26.3384 39.535 26.3599 39.4944 26.3934C39.4538 26.4316 39.3988 26.4722 39.3487 26.5128C39.2388 26.5916 39.1241 26.6681 39.0023 26.7397C38.7635 26.8878 38.5127 27.0263 38.2619 27.1649C37.7579 27.4396 37.2467 27.7047 36.7356 27.9722C35.6727 28.5383 34.5978 29.059 33.5397 29.6824C32.5102 30.3512 31.5524 31.0869 30.6352 31.8823C29.718 32.6729 28.8533 33.5232 28.0436 34.4213C27.8406 34.6459 27.64 34.8704 27.4465 35.1021C27.2482 35.3314 27.0571 35.5631 26.8708 35.8019C26.4839 36.2629 26.1495 36.7741 25.7649 37.2255C25.0316 38.083 24.0643 38.7494 22.9966 39.1316C22.2944 39.3824 21.4751 39.5997 20.749 39.6212C20.7442 39.6212 20.7418 39.6212 20.737 39.6212C20.6462 39.6141 20.5483 39.6045 20.4432 39.595C20.3405 39.5806 20.233 39.5639 20.1327 39.5496C19.7983 39.4994 19.4711 39.4301 19.151 39.3298C18.5801 39.1435 18.0523 38.8521 17.5841 38.489C17.1136 38.1284 16.7123 37.6865 16.3468 37.2183C15.9862 36.7502 15.6422 36.239 15.2624 35.7613C15.0761 35.5201 14.8874 35.2812 14.6892 35.0495C14.4957 34.8131 14.2951 34.5814 14.0897 34.3568C13.0435 33.1841 11.885 32.1116 10.6525 31.1347C10.0339 30.6474 9.39613 30.1864 8.7345 29.7565C8.39294 29.5296 8.03943 29.348 7.69309 29.1641L6.64929 28.6338L4.38971 27.5232C4.01471 27.3369 3.64448 27.1482 3.28142 26.9451C3.09989 26.8448 2.92074 26.7397 2.75355 26.6298C2.66995 26.5749 2.58873 26.5176 2.51469 26.4579C2.44064 26.391 2.40004 26.3623 2.37615 26.2978C2.30211 26.0638 2.15163 25.8177 2.04892 25.6266C2.0107 25.5526 1.98443 25.4857 1.97249 25.426C1.95577 25.3066 1.90322 25.1991 1.86022 25.1155C1.76707 24.9435 1.66436 24.793 1.56882 24.6402C1.47328 24.4897 1.3849 24.3392 1.31086 24.184C1.27264 24.1051 1.24398 24.0335 1.22487 23.9594C1.20576 23.883 1.19143 23.7994 1.18426 23.7158C1.15082 23.3766 1.17948 23.0207 1.22009 22.6672C2.33077 23.3026 3.42473 23.9857 4.49481 24.6927C5.64131 25.4523 6.76155 26.2477 7.8579 27.0789C8.95425 27.9101 10.01 28.7915 11.0371 29.7087C12.057 30.6331 13.022 31.6172 13.9272 32.6562C13.0506 31.5933 12.1119 30.5781 11.1183 29.6203C10.1175 28.6721 9.08084 27.7549 8.00599 26.8878C6.92875 26.0231 5.82523 25.1895 4.69544 24.3942C3.57043 23.6035 2.4287 22.8416 1.24398 22.1274C1.2392 22.1083 1.23681 22.0892 1.23203 22.0701C1.18665 21.8814 1.12932 21.7094 1.07678 21.5374C0.976457 21.1959 0.868972 20.8519 0.92152 20.5366C0.978845 20.2118 1.08633 19.8559 1.1341 19.4976C2.35227 20.336 3.5346 21.2245 4.68589 22.1417C5.91361 23.121 7.10311 24.1505 8.25918 25.2134C9.42002 26.2739 10.5307 27.3894 11.596 28.5455L12.389 29.4197L13.1533 30.3202L13.5355 30.7716L13.8986 31.2374L14.6247 32.1689L13.9225 31.2207L13.5713 30.7453L13.2011 30.2843L12.4607 29.3647L11.6891 28.469C10.6501 27.2843 9.56333 26.1378 8.42638 25.0438C7.2942 23.9451 6.1238 22.8846 4.91519 21.8671C3.71375 20.8567 2.48603 19.8869 1.19859 18.9697C1.21054 18.7691 1.21292 18.5708 1.20576 18.3702C1.1962 18.1863 1.18426 18.0024 1.16754 17.8184C1.16038 17.7181 1.15082 17.6584 1.16276 17.5748C1.16754 17.4984 1.18665 17.4172 1.21054 17.3383C1.32996 16.9562 1.58793 16.6098 1.81723 16.2253C1.81962 16.2205 1.8244 16.2133 1.82678 16.2086C3.10705 17.2667 4.3491 18.3941 5.55294 19.5502C6.81171 20.7659 8.02749 22.0271 9.19549 23.3289C10.3707 24.6258 11.467 25.9921 12.5204 27.3918C13.5689 28.7963 14.5172 30.2724 15.3938 31.7915C14.553 30.2533 13.6382 28.7533 12.6183 27.3225C11.596 25.8966 10.5259 24.4992 9.37463 23.1712C8.23051 21.8384 7.04101 20.5438 5.80374 19.2946C4.58796 18.0716 3.34352 16.8893 2.02981 15.7571C2.04892 15.6902 2.06564 15.6257 2.07519 15.5589C2.1158 15.3248 2.12297 15.1027 2.14446 14.8948C2.16357 14.687 2.19701 14.4912 2.26389 14.3192C2.33077 14.1472 2.43587 13.9776 2.5553 13.8176C2.67711 13.6576 2.81804 13.5047 2.96374 13.3399C3.01151 13.2873 3.05928 13.2276 3.10705 13.1703C4.40643 14.4219 5.65565 15.7452 6.85948 17.0995C8.12542 18.5302 9.33881 20.0088 10.4949 21.5327C11.639 23.0637 12.7115 24.6497 13.7003 26.2859C14.6629 27.9388 15.5228 29.6514 16.2226 31.4356C15.561 29.637 14.7346 27.9029 13.803 26.2262C12.8452 24.5637 11.8038 22.9515 10.6883 21.3917C9.56094 19.8392 8.37383 18.3296 7.13178 16.8654C5.93033 15.4562 4.68828 14.0851 3.37457 12.7666C3.37935 12.7571 3.38651 12.7475 3.3889 12.738C3.48444 12.48 3.50355 12.2507 3.5346 12.0334C3.56327 11.816 3.59432 11.613 3.64926 11.4243C3.7018 11.2332 3.78779 11.0803 3.90483 10.9179C4.01948 10.7626 4.15802 10.6384 4.32761 10.5142C4.49719 10.39 4.69067 10.2587 4.86742 10.1082C4.88414 10.0938 4.89847 10.0795 4.91519 10.0676C6.1453 11.601 7.31569 13.199 8.43593 14.8208C9.60155 16.5167 10.7098 18.2556 11.7584 20.0279C12.8165 21.7954 13.7744 23.6226 14.6748 25.4738C15.5753 27.3273 16.3445 29.2429 17.0371 31.1848C16.3827 29.2286 15.647 27.2986 14.7823 25.4236C13.9153 23.551 12.9909 21.7022 11.9638 19.9084C10.9463 18.1098 9.86907 16.3471 8.73211 14.6226C7.6286 12.9553 6.4797 11.3192 5.25198 9.73078C5.29497 9.67584 5.33319 9.61852 5.36663 9.55403C5.50278 9.31039 5.51711 9.03093 5.53144 8.82552C5.54577 8.61054 5.57921 8.44573 5.67475 8.29525C5.76791 8.14716 5.92316 8.00146 6.0832 7.87965C6.24323 7.75544 6.42476 7.65512 6.61824 7.56436C6.81171 7.47359 7.01713 7.38999 7.22015 7.29206C7.29659 7.25623 7.37302 7.21324 7.44945 7.17024C8.55775 8.99033 9.59916 10.863 10.5952 12.7547C11.6127 14.6918 12.5705 16.66 13.4758 18.6544C14.3906 20.6441 15.2051 22.6768 15.9742 24.7262C16.7362 26.7803 17.3835 28.8751 17.952 30.9914C17.4217 28.8655 16.8126 26.7564 16.0865 24.6879C15.3556 22.6218 14.5745 20.5701 13.6955 18.5589C12.8261 16.5453 11.8993 14.5557 10.9153 12.5923C9.94311 10.6623 8.93036 8.75864 7.83401 6.886C7.98927 6.6997 8.08481 6.49906 8.18035 6.30797C8.18106 6.30649 8.18176 6.30501 8.18247 6.30353C8.27727 6.10444 8.36983 5.91008 8.47415 5.72277C8.58163 5.53886 8.69628 5.35016 8.84915 5.22357C9.0068 5.0922 9.20743 5.00621 9.41285 4.9441C9.78547 4.82706 10.182 4.7984 10.5761 4.71958L10.5426 4.7363C11.5243 6.78091 12.3914 8.89956 13.2035 11.0302C14.0084 13.1655 14.7632 15.32 15.4344 17.5032C16.1056 19.6863 16.7386 21.8814 17.276 24.1004C17.5626 25.2063 17.8015 26.3241 18.0523 27.4372C18.3007 28.5526 18.5013 29.6776 18.7282 30.7979C18.5204 29.6753 18.3389 28.5455 18.1096 27.4252C17.8779 26.305 17.6582 25.1848 17.3906 24.0717C16.8914 21.8408 16.2967 19.6314 15.6613 17.4315C15.026 15.234 14.307 13.0604 13.5379 10.9036C12.7592 8.74908 11.9328 6.61849 10.9726 4.52372L10.9535 4.53327C11.0227 4.464 11.0825 4.38757 11.1374 4.31352C11.264 4.14394 11.381 3.97196 11.5148 3.8167C11.6987 3.59457 11.9161 3.3796 12.174 3.22195C12.2361 3.18374 12.3006 3.1503 12.3675 3.11924C12.5251 3.0667 12.6971 3.02848 12.8619 3.01892C13.3134 2.9831 13.76 3.05953 14.221 3.08819H14.2186C14.8635 5.32627 15.4344 7.5978 15.9694 9.87409C16.4997 12.1504 16.9989 14.4362 17.4456 16.7317C17.8922 19.0271 18.3126 21.3296 18.6733 23.6394C19.0507 25.9491 19.3588 28.2684 19.6502 30.5901C19.397 28.2636 19.1295 25.9372 18.7903 23.6203C18.4679 21.301 18.0881 18.9912 17.6797 16.6863C17.2736 14.3813 16.8126 12.0835 16.3182 9.79288C15.8237 7.51897 15.2959 5.25462 14.6892 3.0022C14.7489 2.97354 14.8062 2.9401 14.8588 2.90189C15.0355 2.77768 15.1836 2.6272 15.3293 2.47911C15.6159 2.18771 15.893 1.86525 16.2322 1.70522C16.5642 1.54279 16.9392 1.70999 17.3047 1.88436C17.6176 2.03245 17.9639 2.20204 18.3556 2.24025L19.4496 16.3328L19.9798 23.4602C20.1494 25.8368 20.3238 28.2135 20.4504 30.5925C20.3644 28.2111 20.2282 25.8321 20.0993 23.4531L19.6884 16.3184L18.8286 2.21637C18.9719 2.18293 19.108 2.13516 19.2322 2.07783C19.4376 1.98229 19.6168 1.86286 19.7911 1.7506C20.1351 1.52607 20.4623 1.33499 20.8111 1.30633C21.1646 1.27528 21.4966 1.3756 21.8119 1.58579C22.1343 1.78643 22.4496 2.085 22.9106 2.26653C22.9799 2.29519 23.0539 2.31669 23.128 2.3358L22.2131 16.3137L21.7736 23.4507C21.6351 25.8297 21.4894 28.2087 21.4034 30.5901C21.53 28.2111 21.7163 25.8345 21.8931 23.4578L22.452 16.3304L23.5985 2.37879C23.6869 2.37401 23.7753 2.36685 23.8589 2.35013C24.167 2.29519 24.4345 2.17815 24.6805 2.07544C24.9242 1.97035 25.1535 1.87719 25.3374 1.8557C25.4281 1.84614 25.4998 1.86047 25.5715 1.88436C25.6479 1.91541 25.7339 1.96796 25.8199 2.03484C25.9918 2.17337 26.1638 2.35968 26.3406 2.55554C26.5197 2.75141 26.706 2.96399 26.9688 3.15746C27.0356 3.20523 27.1145 3.253 27.2028 3.29122C26.6391 5.45048 26.1447 7.61929 25.6789 9.79766C25.1941 12.0883 24.7426 14.3837 24.3413 16.691C23.9401 18.996 23.5627 21.3057 23.245 23.625C22.9106 25.9419 22.6431 28.266 22.3923 30.5901C22.6837 28.2684 22.9918 25.9515 23.3644 23.6418C23.7227 21.332 24.1359 19.0294 24.5778 16.734C25.0173 14.4386 25.5094 12.1528 26.0301 9.87409C26.5317 7.70289 27.0667 5.53408 27.6662 3.39154C27.7737 3.39393 27.874 3.38676 27.9696 3.3796C28.261 3.35093 28.5118 3.30316 28.7506 3.28883C28.9895 3.26972 29.2021 3.29122 29.3908 3.35571C29.4385 3.37004 29.4815 3.39632 29.5269 3.41304C29.5699 3.4417 29.6105 3.4632 29.6559 3.49425C29.749 3.56113 29.8398 3.63278 29.921 3.714C30.0906 3.87164 30.2315 4.05795 30.382 4.27292C30.4585 4.3804 30.5349 4.49506 30.6424 4.61926C30.6997 4.68614 30.7737 4.76019 30.8621 4.82468C29.9616 6.81912 29.171 8.84701 28.433 10.8964C27.6638 13.0509 26.9449 15.2269 26.3095 17.4243C25.6766 19.6218 25.0818 21.8312 24.5802 24.0645C24.3127 25.1752 24.0929 26.2978 23.8612 27.4181C23.6319 28.5383 23.4504 29.6657 23.2426 30.7907C23.4695 29.6705 23.6702 28.5455 23.9186 27.43C24.1694 26.3146 24.4082 25.1991 24.6949 24.0932C25.2323 21.8742 25.8653 19.6767 26.5364 17.496C27.2076 15.3128 27.9624 13.1584 28.7674 11.023C29.5412 8.99033 30.3677 6.9696 31.2944 5.01337C31.3876 5.03487 31.4736 5.04681 31.5572 5.06114L31.9537 5.11608C32.2069 5.15191 32.4529 5.1949 32.6607 5.27134C32.7682 5.30717 32.859 5.35494 32.9378 5.40749C33.0166 5.46481 33.062 5.51019 33.1408 5.6129C33.2817 5.79921 33.4035 6.01657 33.5254 6.24826C33.6018 6.39157 33.6806 6.54205 33.7738 6.69731C33.843 6.80957 33.9243 6.929 34.0413 7.04126C32.9808 8.86134 31.9967 10.7125 31.0508 12.5899C30.0667 14.5509 29.14 16.543 28.2705 18.5565C27.3915 20.5677 26.6105 22.6195 25.8796 24.6856C25.1535 26.7564 24.5444 28.8631 24.0141 30.989C24.5826 28.8727 25.2299 26.7779 25.9918 24.7238C26.7586 22.6744 27.5755 20.6393 28.4903 18.6521C29.3955 16.66 30.3557 14.6918 31.3709 12.7523C32.3406 10.9083 33.3582 9.08109 34.4354 7.304C34.6766 7.42821 34.9155 7.5142 35.14 7.60257C35.441 7.71722 35.7037 7.84143 35.9354 8.02057C36.1838 8.21166 36.3295 8.38363 36.3797 8.65354C36.4084 8.7873 36.4131 8.95211 36.449 9.13842C36.4824 9.32472 36.5612 9.52775 36.683 9.6854C36.6926 9.69973 36.7045 9.71167 36.7165 9.726C35.4864 11.3168 34.3399 12.9529 33.234 14.6226C32.097 16.3471 31.0198 18.1122 30.0022 19.9084C28.9752 21.6999 28.0508 23.551 27.1837 25.4236C26.3191 27.2986 25.5834 29.231 24.9289 31.1848C25.6216 29.2429 26.3931 27.3273 27.2912 25.4738C28.1941 23.6226 29.1495 21.7954 30.2077 20.0279C31.2562 18.2556 32.3645 16.5191 33.5301 14.8208C34.6528 13.1918 35.8255 11.5891 37.0604 10.0532C37.0652 10.058 37.07 10.0628 37.0748 10.0652C37.2085 10.1727 37.3494 10.273 37.488 10.3661C37.7674 10.5501 37.9967 10.7149 38.1639 10.9657C38.3407 11.2021 38.4195 11.4888 38.4721 11.804C38.5151 12.0405 38.5342 12.2889 38.6058 12.5541C38.6178 12.6018 38.6369 12.652 38.656 12.7021C37.316 14.0397 36.0548 15.4323 34.8343 16.8654C33.5922 18.3296 32.4051 19.8392 31.2777 21.3917C30.1599 22.9515 29.1185 24.5661 28.163 26.2262C27.2315 27.9029 26.4051 29.637 25.7434 31.4356C26.4433 29.6514 27.3032 27.9388 28.2658 26.2859C29.2546 24.6497 30.3247 23.0637 31.4712 21.5327C32.6273 20.0088 33.8383 18.5302 35.1066 17.0995C36.3295 15.7237 37.5979 14.3789 38.9211 13.1106C38.9593 13.156 38.9976 13.2014 39.0358 13.2467C39.3678 13.617 39.6878 13.9776 39.8049 14.4124C39.8622 14.6297 39.8765 14.8662 39.8885 15.1146C39.9004 15.3128 39.91 15.523 39.9649 15.7332C38.6417 16.8702 37.3877 18.0621 36.1647 19.2946C34.9274 20.5438 33.7379 21.8384 32.5938 23.1712C31.4425 24.4992 30.3749 25.8966 29.3502 27.3225C28.3302 28.7533 27.4154 30.2533 26.5747 31.7915C27.4513 30.2724 28.3995 28.7963 29.4481 27.3918C30.5014 25.9921 31.5978 24.6258 32.773 23.3289C33.9434 22.0271 35.1567 20.7659 36.4155 19.5502C37.6241 18.3893 38.871 17.2571 40.156 16.1942C40.2277 16.3256 40.3041 16.4474 40.3781 16.5716C40.5047 16.7818 40.6266 16.992 40.7125 17.207C40.7555 17.3145 40.7842 17.4219 40.8033 17.5294C40.8176 17.6393 40.8105 17.7301 40.7961 17.8662C40.7699 18.117 40.7603 18.3702 40.7579 18.621C40.7579 18.7334 40.7625 18.8459 40.7672 18.9606C40.7673 18.9628 40.7674 18.9651 40.7675 18.9673C39.48 19.8822 38.2523 20.8543 37.0509 21.8647C35.8423 22.8822 34.6719 23.9427 33.5397 25.0415C32.4027 26.1354 31.3183 27.2819 30.2769 28.4666L29.5054 29.3624L28.765 30.282L28.3947 30.7429L28.0436 31.2183L27.3414 32.1665L28.0675 31.235L28.4306 30.7692L28.8127 30.3178L29.5771 29.4173L30.3701 28.5431C31.4378 27.387 32.5484 26.2716 33.7069 25.211C34.863 24.1457 36.0525 23.1187 37.2802 22.1394C38.4315 21.2198 39.6162 20.3312 40.8272 19.5048C40.8582 19.7126 40.8965 19.9204 40.9466 20.1234C41.0039 20.367 41.0684 20.5963 41.0493 20.8113C41.035 21.0406 40.9705 21.2747 40.9012 21.5088Z" fill="#02676A"/>
<path d="M40.9012 21.5088C40.8439 21.7118 40.7723 21.9029 40.7293 22.1346C39.535 22.8607 38.3861 23.6322 37.2515 24.4324C36.1169 25.2373 35.0063 26.0757 33.9243 26.9499C32.8422 27.8241 31.8008 28.7461 30.7905 29.7015C29.7897 30.6665 28.8438 31.6864 27.96 32.7565C28.8724 31.7103 29.8446 30.7214 30.8717 29.7875C31.9035 28.8631 32.9688 27.9746 34.07 27.1362C35.1735 26.2978 36.3009 25.4953 37.4522 24.7262C38.5318 24.0096 39.6305 23.3169 40.7484 22.672C40.7627 22.7866 40.7746 22.9013 40.7842 23.016C40.8057 23.3097 40.8153 23.6107 40.7627 23.883C40.7181 24.1296 40.5557 24.3854 40.4004 24.6301L40.3925 24.6426C40.3113 24.7692 40.2253 24.8957 40.1441 25.0319C40.1035 25.1012 40.0629 25.1728 40.027 25.2588C40.0103 25.3042 39.9936 25.352 39.984 25.4093C39.9769 25.4427 39.9721 25.4618 39.9625 25.4881C39.8813 25.6983 39.6568 25.9969 39.566 26.3002C39.5493 26.3384 39.535 26.3599 39.4944 26.3934C39.4538 26.4316 39.3988 26.4722 39.3487 26.5128C39.2388 26.5916 39.1241 26.6681 39.0023 26.7397C38.7635 26.8878 38.5127 27.0263 38.2619 27.1649C37.7579 27.4396 37.2467 27.7047 36.7356 27.9722C35.6727 28.5383 34.5978 29.059 33.5397 29.6824C32.5102 30.3512 31.5524 31.0869 30.6352 31.8823C29.718 32.6729 28.8533 33.5232 28.0436 34.4213C27.8406 34.6459 27.64 34.8704 27.4465 35.1021C27.2482 35.3314 27.0571 35.5631 26.8708 35.8019C26.4839 36.2629 26.1495 36.7741 25.7649 37.2255C25.0316 38.083 24.0643 38.7494 22.9966 39.1316C22.2944 39.3824 21.4751 39.5997 20.749 39.6212H20.737C20.6462 39.6141 20.5483 39.6045 20.4432 39.595C20.3405 39.5806 20.233 39.5639 20.1327 39.5496C19.7983 39.4994 19.4711 39.4301 19.151 39.3298C18.5801 39.1435 18.0523 38.8521 17.5841 38.489C17.1136 38.1284 16.7123 37.6865 16.3468 37.2183C15.9862 36.7502 15.6422 36.239 15.2624 35.7613C15.0761 35.5201 14.8874 35.2812 14.6892 35.0495C14.4957 34.8131 14.2951 34.5814 14.0897 34.3568C13.0435 33.1841 11.885 32.1116 10.6525 31.1347C10.0339 30.6474 9.39613 30.1864 8.7345 29.7565C8.39294 29.5296 8.03943 29.348 7.69309 29.1641L6.64929 28.6338L4.38971 27.5232C4.01471 27.3369 3.64448 27.1482 3.28142 26.9451C3.09989 26.8448 2.92074 26.7397 2.75355 26.6298C2.66995 26.5749 2.58873 26.5176 2.51469 26.4579C2.44064 26.391 2.40004 26.3623 2.37615 26.2978C2.30211 26.0638 2.15163 25.8177 2.04892 25.6266C2.0107 25.5526 1.98443 25.4857 1.97249 25.426C1.95577 25.3066 1.90322 25.1991 1.86022 25.1155C1.76707 24.9435 1.66436 24.793 1.56882 24.6402C1.47328 24.4897 1.3849 24.3392 1.31086 24.184C1.27264 24.1051 1.24398 24.0335 1.22487 23.9594C1.20576 23.883 1.19143 23.7994 1.18426 23.7158C1.15082 23.3766 1.17948 23.0207 1.22009 22.6672C2.33077 23.3026 3.42473 23.9857 4.49481 24.6927C5.64131 25.4523 6.76155 26.2477 7.8579 27.0789C8.95425 27.9101 10.01 28.7915 11.0371 29.7087C12.057 30.6331 13.022 31.6172 13.9272 32.6562C13.0506 31.5933 12.1119 30.5781 11.1183 29.6203C10.1175 28.6721 9.08084 27.7549 8.00599 26.8878C6.92875 26.0231 5.82523 25.1895 4.69544 24.3942C3.57043 23.6035 2.4287 22.8416 1.24398 22.1274C1.2392 22.1083 1.23681 22.0892 1.23203 22.0701C1.18665 21.8814 1.12932 21.7094 1.07678 21.5374C0.976457 21.1959 0.868972 20.8519 0.92152 20.5366C0.978845 20.2118 1.08633 19.8559 1.1341 19.4976C2.35227 20.336 3.5346 21.2245 4.68589 22.1417C5.91361 23.121 7.10311 24.1505 8.25918 25.2134C9.42002 26.2739 10.5307 27.3894 11.596 28.5455L12.389 29.4197L13.1533 30.3202L13.5355 30.7716L13.8986 31.2374L14.6247 32.1689L13.9225 31.2207L13.5713 30.7453L13.2011 30.2843L12.4607 29.3647L11.6891 28.469C10.6501 27.2843 9.56333 26.1378 8.42638 25.0438C7.2942 23.9451 6.1238 22.8846 4.91519 21.8671C3.71375 20.8567 2.48603 19.8869 1.19859 18.9697C1.21054 18.7691 1.21292 18.5708 1.20576 18.3702C1.1962 18.1863 1.18426 18.0024 1.16754 17.8184C1.16038 17.7181 1.15082 17.6584 1.16276 17.5748C1.16754 17.4984 1.18665 17.4172 1.21054 17.3383C1.32996 16.9562 1.58793 16.6098 1.81723 16.2253C1.81962 16.2205 1.8244 16.2133 1.82678 16.2086C3.10705 17.2667 4.3491 18.3941 5.55294 19.5502C6.81171 20.7659 8.02749 22.0271 9.19549 23.3289C10.3707 24.6258 11.467 25.9921 12.5204 27.3918C13.5689 28.7963 14.5172 30.2724 15.3938 31.7915C14.553 30.2533 13.6382 28.7533 12.6183 27.3225C11.596 25.8966 10.5259 24.4992 9.37463 23.1712C8.23051 21.8384 7.04101 20.5438 5.80374 19.2946C4.58796 18.0716 3.34352 16.8893 2.02981 15.7571C2.04892 15.6902 2.06564 15.6257 2.07519 15.5589C2.1158 15.3248 2.12297 15.1027 2.14446 14.8948C2.16357 14.687 2.19701 14.4912 2.26389 14.3192C2.33077 14.1472 2.43587 13.9776 2.5553 13.8176C2.67711 13.6576 2.81804 13.5047 2.96374 13.3399C3.01151 13.2873 3.05928 13.2276 3.10705 13.1703C4.40643 14.4219 5.65565 15.7452 6.85948 17.0995C8.12542 18.5302 9.33881 20.0088 10.4949 21.5327C11.639 23.0637 12.7115 24.6497 13.7003 26.2859C14.6629 27.9388 15.5228 29.6514 16.2226 31.4356C15.561 29.637 14.7346 27.9029 13.803 26.2262C12.8452 24.5637 11.8038 22.9515 10.6883 21.3917C9.56094 19.8392 8.37383 18.3296 7.13178 16.8654C5.93033 15.4562 4.68828 14.0851 3.37457 12.7666C3.37935 12.7571 3.38651 12.7475 3.3889 12.738C3.48444 12.48 3.50355 12.2507 3.5346 12.0334C3.56327 11.816 3.59432 11.613 3.64926 11.4243C3.7018 11.2332 3.78779 11.0803 3.90483 10.9179C4.01948 10.7626 4.15802 10.6384 4.32761 10.5142C4.49719 10.39 4.69067 10.2587 4.86742 10.1082C4.88414 10.0938 4.89847 10.0795 4.91519 10.0676C6.1453 11.601 7.31569 13.199 8.43593 14.8208C9.60155 16.5167 10.7098 18.2556 11.7584 20.0279C12.8165 21.7954 13.7744 23.6226 14.6748 25.4738C15.5753 27.3273 16.3445 29.2429 17.0371 31.1848C16.3827 29.2286 15.647 27.2986 14.7823 25.4236C13.9153 23.551 12.9909 21.7022 11.9638 19.9084C10.9463 18.1098 9.86907 16.3471 8.73211 14.6226C7.6286 12.9553 6.4797 11.3192 5.25198 9.73078C5.29497 9.67584 5.33319 9.61852 5.36663 9.55403C5.50278 9.31039 5.51711 9.03093 5.53144 8.82552C5.54577 8.61054 5.57921 8.44573 5.67475 8.29525C5.76791 8.14716 5.92316 8.00146 6.0832 7.87965C6.24323 7.75544 6.42476 7.65512 6.61824 7.56436C6.81171 7.47359 7.01713 7.38999 7.22015 7.29206C7.29659 7.25623 7.37302 7.21324 7.44945 7.17024C8.55775 8.99033 9.59916 10.863 10.5952 12.7547C11.6127 14.6918 12.5705 16.66 13.4758 18.6544C14.3906 20.6441 15.2051 22.6768 15.9742 24.7262C16.7362 26.7803 17.3835 28.8751 17.952 30.9914C17.4217 28.8655 16.8126 26.7564 16.0865 24.6879C15.3556 22.6218 14.5745 20.5701 13.6955 18.5589C12.8261 16.5453 11.8993 14.5557 10.9153 12.5923C9.94311 10.6623 8.93036 8.75864 7.83401 6.886C7.98927 6.6997 8.08481 6.49906 8.18035 6.30797L8.18247 6.30353C8.27727 6.10444 8.36983 5.91008 8.47415 5.72277C8.58163 5.53886 8.69628 5.35016 8.84915 5.22357C9.0068 5.0922 9.20743 5.00621 9.41285 4.9441C9.78547 4.82706 10.182 4.7984 10.5761 4.71958L10.5426 4.7363C11.5243 6.78091 12.3914 8.89956 13.2035 11.0302C14.0084 13.1655 14.7632 15.32 15.4344 17.5032C16.1056 19.6863 16.7386 21.8814 17.276 24.1004C17.5626 25.2063 17.8015 26.3241 18.0523 27.4372C18.3007 28.5526 18.5013 29.6776 18.7282 30.7979C18.5204 29.6753 18.3389 28.5455 18.1096 27.4252C17.8779 26.305 17.6582 25.1848 17.3906 24.0717C16.8914 21.8408 16.2967 19.6314 15.6613 17.4315C15.026 15.234 14.307 13.0604 13.5379 10.9036C12.7592 8.74908 11.9328 6.61849 10.9726 4.52372L10.9535 4.53327C11.0227 4.464 11.0825 4.38757 11.1374 4.31352C11.264 4.14394 11.381 3.97196 11.5148 3.8167C11.6987 3.59457 11.9161 3.3796 12.174 3.22195C12.2361 3.18374 12.3006 3.1503 12.3675 3.11924C12.5251 3.0667 12.6971 3.02848 12.8619 3.01892C13.3134 2.9831 13.76 3.05953 14.221 3.08819H14.2186C14.8635 5.32627 15.4344 7.5978 15.9694 9.87409C16.4997 12.1504 16.9989 14.4362 17.4456 16.7317C17.8922 19.0271 18.3126 21.3296 18.6733 23.6394C19.0507 25.9491 19.3588 28.2684 19.6502 30.5901C19.397 28.2636 19.1295 25.9372 18.7903 23.6203C18.4679 21.301 18.0881 18.9912 17.6797 16.6863C17.2736 14.3813 16.8126 12.0835 16.3182 9.79288C15.8237 7.51897 15.2959 5.25462 14.6892 3.0022C14.7489 2.97354 14.8062 2.9401 14.8588 2.90189C15.0355 2.77768 15.1836 2.6272 15.3293 2.47911C15.6159 2.18771 15.893 1.86525 16.2322 1.70522C16.5642 1.54279 16.9392 1.70999 17.3047 1.88436C17.6176 2.03245 17.9639 2.20204 18.3556 2.24025L19.4496 16.3328L19.9798 23.4602C20.1494 25.8368 20.3238 28.2135 20.4504 30.5925C20.3644 28.2111 20.2282 25.8321 20.0993 23.4531L19.6884 16.3184L18.8286 2.21637C18.9719 2.18293 19.108 2.13516 19.2322 2.07783C19.4376 1.98229 19.6168 1.86286 19.7911 1.7506C20.1351 1.52607 20.4623 1.33499 20.8111 1.30633C21.1646 1.27528 21.4966 1.3756 21.8119 1.58579C22.1343 1.78643 22.4496 2.085 22.9106 2.26653C22.9799 2.29519 23.0539 2.31669 23.128 2.3358L22.2131 16.3137L21.7736 23.4507C21.6351 25.8297 21.4894 28.2087 21.4034 30.5901C21.53 28.2111 21.7163 25.8345 21.8931 23.4578L22.452 16.3304L23.5985 2.37879C23.6869 2.37401 23.7753 2.36685 23.8589 2.35013C24.167 2.29519 24.4345 2.17815 24.6805 2.07544C24.9242 1.97035 25.1535 1.87719 25.3374 1.8557C25.4281 1.84614 25.4998 1.86047 25.5715 1.88436C25.6479 1.91541 25.7339 1.96796 25.8199 2.03484C25.9918 2.17337 26.1638 2.35968 26.3406 2.55554C26.5197 2.75141 26.706 2.96399 26.9688 3.15746C27.0356 3.20523 27.1145 3.253 27.2028 3.29122C26.6391 5.45048 26.1447 7.61929 25.6789 9.79766C25.1941 12.0883 24.7426 14.3837 24.3413 16.691C23.9401 18.996 23.5627 21.3057 23.245 23.625C22.9106 25.9419 22.6431 28.266 22.3923 30.5901C22.6837 28.2684 22.9918 25.9515 23.3644 23.6418C23.7227 21.332 24.1359 19.0294 24.5778 16.734C25.0173 14.4386 25.5094 12.1528 26.0301 9.87409C26.5317 7.70289 27.0667 5.53408 27.6662 3.39154C27.7737 3.39393 27.874 3.38676 27.9696 3.3796C28.261 3.35093 28.5118 3.30316 28.7506 3.28883C28.9895 3.26972 29.2021 3.29122 29.3908 3.35571C29.4385 3.37004 29.4815 3.39632 29.5269 3.41304C29.5699 3.4417 29.6105 3.4632 29.6559 3.49425C29.749 3.56113 29.8398 3.63278 29.921 3.714C30.0906 3.87164 30.2315 4.05795 30.382 4.27292C30.4585 4.3804 30.5349 4.49506 30.6424 4.61926C30.6997 4.68614 30.7737 4.76019 30.8621 4.82468C29.9616 6.81912 29.171 8.84701 28.433 10.8964C27.6638 13.0509 26.9449 15.2269 26.3095 17.4243C25.6766 19.6218 25.0818 21.8312 24.5802 24.0645C24.3127 25.1752 24.0929 26.2978 23.8612 27.4181C23.6319 28.5383 23.4504 29.6657 23.2426 30.7907C23.4695 29.6705 23.6702 28.5455 23.9186 27.43C24.1694 26.3146 24.4082 25.1991 24.6949 24.0932C25.2323 21.8742 25.8653 19.6767 26.5364 17.496C27.2076 15.3128 27.9624 13.1584 28.7674 11.023C29.5412 8.99033 30.3677 6.9696 31.2944 5.01337C31.3876 5.03487 31.4736 5.04681 31.5572 5.06114L31.9537 5.11608C32.2069 5.15191 32.4529 5.1949 32.6607 5.27134C32.7682 5.30717 32.859 5.35494 32.9378 5.40749C33.0166 5.46481 33.062 5.51019 33.1408 5.6129C33.2817 5.79921 33.4035 6.01657 33.5254 6.24826C33.6018 6.39157 33.6806 6.54205 33.7738 6.69731C33.843 6.80957 33.9243 6.929 34.0413 7.04126C32.9808 8.86134 31.9967 10.7125 31.0508 12.5899C30.0667 14.5509 29.14 16.543 28.2705 18.5565C27.3915 20.5677 26.6105 22.6195 25.8796 24.6856C25.1535 26.7564 24.5444 28.8631 24.0141 30.989C24.5826 28.8727 25.2299 26.7779 25.9918 24.7238C26.7586 22.6744 27.5755 20.6393 28.4903 18.6521C29.3955 16.66 30.3557 14.6918 31.3709 12.7523C32.3406 10.9083 33.3582 9.08109 34.4354 7.304C34.6766 7.42821 34.9155 7.5142 35.14 7.60257C35.441 7.71722 35.7037 7.84143 35.9354 8.02057C36.1838 8.21166 36.3295 8.38363 36.3797 8.65354C36.4084 8.7873 36.4131 8.95211 36.449 9.13842C36.4824 9.32472 36.5612 9.52775 36.683 9.6854C36.6926 9.69973 36.7045 9.71167 36.7165 9.726C35.4864 11.3168 34.3399 12.9529 33.234 14.6226C32.097 16.3471 31.0198 18.1122 30.0022 19.9084C28.9752 21.6999 28.0508 23.551 27.1837 25.4236C26.3191 27.2986 25.5834 29.231 24.9289 31.1848C25.6216 29.2429 26.3931 27.3273 27.2912 25.4738C28.1941 23.6226 29.1495 21.7954 30.2077 20.0279C31.2562 18.2556 32.3645 16.5191 33.5301 14.8208C34.6528 13.1918 35.8255 11.5891 37.0604 10.0532C37.0652 10.058 37.07 10.0628 37.0748 10.0652C37.2085 10.1727 37.3494 10.273 37.488 10.3661C37.7674 10.5501 37.9967 10.7149 38.1639 10.9657C38.3407 11.2021 38.4195 11.4888 38.4721 11.804C38.5151 12.0405 38.5342 12.2889 38.6058 12.5541C38.6178 12.6018 38.6369 12.652 38.656 12.7021C37.316 14.0397 36.0548 15.4323 34.8343 16.8654C33.5922 18.3296 32.4051 19.8392 31.2777 21.3917C30.1599 22.9515 29.1185 24.5661 28.163 26.2262C27.2315 27.9029 26.4051 29.637 25.7434 31.4356C26.4433 29.6514 27.3032 27.9388 28.2658 26.2859C29.2546 24.6497 30.3247 23.0637 31.4712 21.5327C32.6273 20.0088 33.8383 18.5302 35.1066 17.0995C36.3295 15.7237 37.5979 14.3789 38.9211 13.1106L39.0358 13.2467C39.3678 13.617 39.6878 13.9776 39.8049 14.4124C39.8622 14.6297 39.8765 14.8662 39.8885 15.1146C39.9004 15.3128 39.91 15.523 39.9649 15.7332C38.6417 16.8702 37.3877 18.0621 36.1647 19.2946C34.9274 20.5438 33.7379 21.8384 32.5938 23.1712C31.4425 24.4992 30.3749 25.8966 29.3502 27.3225C28.3302 28.7533 27.4154 30.2533 26.5747 31.7915C27.4513 30.2724 28.3995 28.7963 29.4481 27.3918C30.5014 25.9921 31.5978 24.6258 32.773 23.3289C33.9434 22.0271 35.1567 20.7659 36.4155 19.5502C37.6241 18.3893 38.871 17.2571 40.156 16.1942C40.2277 16.3256 40.3041 16.4474 40.3781 16.5716C40.5047 16.7818 40.6266 16.992 40.7125 17.207C40.7555 17.3145 40.7842 17.4219 40.8033 17.5294C40.8176 17.6393 40.8105 17.7301 40.7961 17.8662C40.7699 18.117 40.7603 18.3702 40.7579 18.621C40.7579 18.7334 40.7625 18.8459 40.7672 18.9606L40.7675 18.9673C39.48 19.8822 38.2523 20.8543 37.0509 21.8647C35.8423 22.8822 34.6719 23.9427 33.5397 25.0415C32.4027 26.1354 31.3183 27.2819 30.2769 28.4666L29.5054 29.3624L28.765 30.282L28.3947 30.7429L28.0436 31.2183L27.3414 32.1665L28.0675 31.235L28.4306 30.7692L28.8127 30.3178L29.5771 29.4173L30.3701 28.5431C31.4378 27.387 32.5484 26.2716 33.7069 25.211C34.863 24.1457 36.0525 23.1187 37.2802 22.1394C38.4315 21.2198 39.6162 20.3312 40.8272 19.5048C40.8582 19.7126 40.8965 19.9204 40.9466 20.1234C41.0039 20.367 41.0684 20.5963 41.0493 20.8113C41.035 21.0406 40.9705 21.2747 40.9012 21.5088Z" fill="#02676A"/>
<path d="M15.014 37.9325C14.4169 37.8895 13.8221 37.8202 13.2513 37.6841C12.6804 37.5456 12.1239 37.3569 11.6509 37.044C11.1708 36.7454 10.8102 36.2987 10.6024 35.7852C10.5379 35.661 10.514 35.5201 10.4662 35.3887L10.3372 34.942C10.2393 34.6482 10.1366 34.3592 10.0172 34.0774C9.77591 33.5161 9.51795 32.9643 9.23371 32.4293C8.95425 31.8918 9.85235 31.0917 10.2059 31.3568C10.7934 31.7963 11.3213 32.3098 11.8731 32.7899C12.9575 33.743 14.0132 34.739 14.9376 35.8521C15.5419 36.5543 16.065 37.3401 16.7314 37.9994C16.1534 37.9851 15.5825 37.9827 15.014 37.9325Z" fill="#02676A"/>
<path d="M33.6352 30.8504C33.3223 31.3687 33.0166 31.8918 32.7371 32.4317C32.4529 32.9667 32.1925 33.5184 31.9537 34.0798C31.8343 34.3616 31.7316 34.6506 31.6336 34.9444L31.5046 35.3911C31.4569 35.5225 31.433 35.6634 31.3685 35.7876C31.1583 36.3011 30.8 36.7478 30.3199 37.0464C29.847 37.3593 29.2904 37.548 28.7196 37.6865C28.1463 37.8226 27.5516 37.8919 26.9568 37.9349C26.3931 37.9851 25.8246 37.9874 25.2562 38.0042C25.495 37.8035 25.7219 37.5886 25.9345 37.3593C26.2403 37.0249 26.503 36.6785 26.7801 36.3417C27.0619 36.0097 27.3414 35.6729 27.6352 35.3529C28.4186 34.481 29.214 33.614 30.0906 32.8329C31.0102 32.0232 31.9752 31.266 32.9855 30.5829C33.2316 30.4085 33.7953 30.5925 33.6352 30.8504Z" fill="#02676A"/>
<path d="M41.5079 21.1744C41.5461 21 41.5772 20.8041 41.5605 20.5868C41.5414 20.3838 41.5008 20.2166 41.4649 20.0589C41.3933 19.746 41.3407 19.457 41.3168 19.1537C41.293 18.8527 41.2954 18.547 41.3145 18.2412C41.3216 18.0836 41.3407 17.9427 41.3551 17.7707C41.3766 17.5366 41.3336 17.3192 41.2739 17.1329C41.1473 16.7603 40.961 16.4665 40.7961 16.1871C40.7125 16.0509 40.6337 15.9172 40.5764 15.7977C40.5215 15.6831 40.4952 15.5899 40.4737 15.4514C40.4235 15.1313 40.4594 14.699 40.3256 14.2356C40.1847 13.7651 39.8957 13.4092 39.6281 13.1082C39.4944 12.9577 39.363 12.8192 39.2555 12.6854C39.2316 12.6544 39.2006 12.6138 39.1863 12.5923C39.1719 12.5732 39.1576 12.5469 39.1456 12.5182C39.1194 12.4561 39.0955 12.3821 39.0788 12.2961C39.0023 11.9569 38.9761 11.5246 38.8041 11.1042C38.7611 10.9991 38.7062 10.894 38.6464 10.7961C38.5867 10.7053 38.5222 10.6145 38.4482 10.5286C38.3025 10.3542 38.1233 10.2109 37.9538 10.0962C37.7842 9.98158 37.6265 9.88126 37.4784 9.77138C37.3351 9.66151 37.1775 9.53492 37.0867 9.42504C36.9912 9.30562 36.9362 9.17902 36.91 9.00227C36.8813 8.83029 36.8741 8.61532 36.8025 8.3908C36.7356 8.16627 36.5875 7.96802 36.4299 7.81993C36.277 7.67423 36.105 7.54764 35.9235 7.44493C35.4935 7.19652 35.0564 6.99827 34.6838 6.8024C34.6241 6.77374 34.5548 6.73314 34.5071 6.70447C34.4688 6.68059 34.4282 6.64237 34.3876 6.59699C34.3064 6.50622 34.2324 6.38441 34.1583 6.25781C34.0126 6.00224 33.8717 5.72277 33.6902 5.45764C33.5946 5.32389 33.5086 5.19968 33.3677 5.0707C33.2292 4.95366 33.0739 4.87245 32.9187 4.81035C32.6058 4.69331 32.2929 4.64792 31.9895 4.60971L31.5405 4.55477C31.3948 4.53327 31.2586 4.50939 31.1679 4.4449C30.9648 4.30875 30.8048 4.02212 30.6137 3.78326C30.4226 3.53724 30.1957 3.31033 29.9354 3.13119C29.6726 2.94249 29.343 2.84695 29.0301 2.84217C28.7697 2.83262 28.5118 2.86367 28.2634 2.89711C28.015 2.92816 27.7665 2.9616 27.542 2.92338C27.3366 2.878 27.1503 2.71797 26.9807 2.5436C26.8087 2.36924 26.6463 2.17815 26.4672 1.99662C26.2904 1.81748 26.0993 1.64073 25.8605 1.51413C25.7387 1.45919 25.6001 1.40665 25.4592 1.40904C25.3207 1.40426 25.1845 1.42814 25.0603 1.46636C24.5635 1.62162 24.155 1.91063 23.6821 1.9799C22.6813 2.17099 22.0579 0.95282 20.9735 0.993426C20.577 0.993426 20.1948 1.15107 19.8747 1.36365C19.5499 1.56907 19.2537 1.81748 18.9026 1.93452C18.5539 2.05633 18.1717 2.00618 17.8254 1.87242C17.4719 1.74582 17.1398 1.54041 16.7433 1.46636C16.5475 1.42814 16.3277 1.45203 16.1486 1.54757C15.9671 1.63834 15.8166 1.76732 15.678 1.90108C15.3986 2.1686 15.1645 2.47433 14.885 2.72274C14.7441 2.84217 14.5889 2.95443 14.4121 2.97593C14.233 2.99743 14.0395 2.97593 13.8508 2.96399C13.471 2.93533 13.0817 2.90666 12.7019 2.97832C12.6135 2.99504 12.518 3.01892 12.4296 3.04759C12.3484 3.07147 12.272 3.09536 12.1979 3.12641C11.9519 3.23151 11.7321 3.39393 11.5434 3.58501C11.3524 3.77371 11.1947 3.99107 11.0395 4.19649C10.9439 4.3183 10.8412 4.45206 10.7409 4.50222C10.6334 4.55238 10.4638 4.57149 10.3109 4.5906C9.99566 4.62881 9.66843 4.65748 9.34358 4.74108C9.18116 4.78168 9.01635 4.8414 8.8587 4.925C8.77988 4.9656 8.70584 5.02054 8.63179 5.07786C8.56252 5.14236 8.49564 5.21162 8.44787 5.2785C8.23768 5.54602 8.08242 5.84459 7.93433 6.12644C7.83401 6.31514 7.73847 6.50383 7.62143 6.64715C7.59277 6.68298 7.56172 6.71403 7.53067 6.7403C7.50439 6.76419 7.46379 6.79046 7.41601 6.81912C7.33003 6.87406 7.23926 6.92183 7.14611 6.9696C6.77588 7.15352 6.34833 7.29445 5.96616 7.54763C5.76552 7.68139 5.58638 7.82471 5.42634 8.02296C5.26631 8.22121 5.18271 8.48634 5.15883 8.72042C5.13255 8.95689 5.11583 9.15753 5.03223 9.32472C4.94863 9.48715 4.79815 9.61852 4.62379 9.75944C4.4542 9.89559 4.27506 10.0126 4.08397 10.1416C3.89289 10.2706 3.69225 10.433 3.53938 10.6313C3.3889 10.82 3.25514 11.0564 3.18587 11.2929C3.10944 11.5294 3.07122 11.7658 3.03778 11.988C2.99957 12.2268 2.96374 12.4633 2.88253 12.6138C2.86581 12.6448 2.83715 12.6878 2.80132 12.7308C2.76788 12.7738 2.73205 12.8192 2.69383 12.8622L2.45498 13.1297C2.29016 13.3136 2.11819 13.5119 1.97726 13.7459C1.83634 13.9705 1.72169 14.2523 1.68108 14.5246C1.59271 15.0692 1.65958 15.5398 1.46372 15.867C1.26308 16.2563 0.931074 16.6552 0.749544 17.2046C0.704161 17.3383 0.677887 17.4888 0.67311 17.6465L0.675498 17.7683L0.682664 17.8614L0.694607 18.031C0.708938 18.2579 0.713715 18.4849 0.704161 18.7094C0.68983 19.1608 0.618173 19.586 0.498745 20.0326C0.470082 20.1473 0.436642 20.2643 0.410368 20.4005C0.384094 20.5295 0.364985 20.699 0.376928 20.8495C0.398425 21.1457 0.465305 21.3917 0.532185 21.6306C0.599064 21.8599 0.680275 22.1035 0.708938 22.2636C0.711327 22.3042 0.716104 22.2779 0.708938 22.3257L0.685052 22.5024C0.670721 22.6242 0.65639 22.746 0.646835 22.8702C0.620561 23.1975 0.608618 23.5295 0.661167 23.8926C0.675498 23.9833 0.694607 24.0789 0.728046 24.1768C0.763875 24.2843 0.799703 24.3631 0.840309 24.4419C0.919131 24.5996 1.00751 24.7429 1.09588 24.8766L1.34907 25.2612C1.38729 25.3209 1.42312 25.3806 1.44461 25.4284C1.47328 25.4953 1.45895 25.4403 1.49716 25.6052C1.56643 25.8297 1.66675 25.961 1.73841 26.09C1.81484 26.2238 1.86739 26.3193 1.92233 26.4722C1.93905 26.5224 1.9701 26.563 1.99159 26.6107C2.02503 26.6513 2.05609 26.6919 2.08953 26.7302C2.15879 26.7947 2.21134 26.84 2.27106 26.883C2.3881 26.9714 2.50275 27.0431 2.6174 27.1147C2.84909 27.2556 3.08078 27.3822 3.31486 27.5064C3.78063 27.7525 4.25117 27.9842 4.72172 28.2158C5.02745 28.3663 5.29258 28.5956 5.59832 28.7413C6.22412 29.0447 6.85231 29.3409 7.47334 29.649C7.70503 30.0789 7.91284 30.5232 8.12781 30.9603C8.39055 31.5025 8.64851 32.0447 8.89692 32.5917C9.14055 33.1411 9.38658 33.688 9.59677 34.2446L9.75203 34.6626L9.89056 35.0806L10.0076 35.5057C10.0578 35.6586 10.0864 35.8186 10.1581 35.9667C10.4065 36.5663 10.8508 37.0989 11.4049 37.4261C11.9567 37.7581 12.5657 37.9468 13.1748 38.0496C13.7839 38.1594 14.3978 38.1785 15.0069 38.1666C15.5897 38.1546 16.1677 38.0949 16.741 38.0137C16.8699 38.1403 17.0037 38.2669 17.147 38.3816C17.5817 38.7422 18.0714 39.0408 18.5945 39.2486C19.1176 39.4588 19.6765 39.5806 20.2354 39.6236C20.3668 39.6379 20.5173 39.6499 20.6248 39.6427C20.7513 39.6403 20.9185 39.6427 20.9687 39.6427C20.9377 39.6403 20.8564 39.6356 20.7752 39.626C21.1717 39.6212 21.456 39.6021 21.7378 39.5663C22.4496 39.4707 23.1495 39.2629 23.8015 38.9476C24.3151 38.6945 24.7976 38.3792 25.2371 38.0113C25.8079 38.0925 26.3812 38.1523 26.9616 38.1618C27.5707 38.1738 28.1845 38.1546 28.7936 38.0448C29.4027 37.9421 30.0118 37.7534 30.5635 37.4214C31.1177 37.0965 31.562 36.5615 31.8104 35.9619C31.882 35.8139 31.9107 35.6538 31.9609 35.501L32.0779 35.0758L32.2164 34.6578L32.3717 34.2398C32.5819 33.6833 32.8279 33.1363 33.0715 32.5869C33.3199 32.0399 33.5755 31.4953 33.8407 30.9555C34.0508 30.5304 34.2515 30.1004 34.4736 29.6824C34.4975 29.6705 34.5214 29.6561 34.5453 29.6442L36.191 28.8178C36.8383 28.4929 37.488 28.1681 38.1305 27.8265C38.453 27.6545 38.773 27.4802 39.0907 27.2891C39.2507 27.1959 39.4084 27.0932 39.566 26.9834C39.6449 26.9284 39.7237 26.8687 39.8049 26.797C39.8813 26.7349 39.996 26.6012 40.0437 26.4674C40.0915 26.3193 40.1417 26.219 40.2109 26.09C40.2778 25.9634 40.3686 25.8345 40.4379 25.6314C40.4546 25.5837 40.4665 25.5144 40.4737 25.4738C40.4737 25.469 40.4808 25.4523 40.488 25.4308C40.5071 25.3854 40.5382 25.3257 40.5716 25.2684C40.6433 25.1489 40.7245 25.0223 40.8081 24.891C40.8917 24.7596 40.9753 24.6211 41.0517 24.473C41.0899 24.3965 41.1258 24.3225 41.1592 24.2365C41.195 24.141 41.2189 24.0478 41.2356 23.9594C41.2977 23.6059 41.2834 23.2835 41.2643 22.9658C41.2524 22.7962 41.2332 22.629 41.2141 22.4666C41.2046 22.3901 41.1903 22.2827 41.195 22.2827C41.1974 22.2588 41.2141 22.1823 41.2309 22.1179C41.3097 21.8384 41.4315 21.5231 41.5079 21.1744ZM15.014 37.9325C14.4169 37.8895 13.8221 37.8202 13.2513 37.6841C12.6804 37.5456 12.1239 37.3569 11.6509 37.044C11.1708 36.7454 10.8102 36.2987 10.6024 35.7852C10.5379 35.661 10.514 35.5201 10.4662 35.3887L10.3372 34.942C10.2393 34.6482 10.1366 34.3592 10.0172 34.0774C9.77591 33.5161 9.51795 32.9643 9.23371 32.4293C8.95425 31.8918 9.85235 31.0917 10.2059 31.3568C10.7934 31.7963 11.3213 32.3098 11.8731 32.7899C12.9575 33.743 14.0132 34.739 14.9376 35.8521C15.5419 36.5543 16.065 37.3401 16.7314 37.9994C16.1534 37.9851 15.5825 37.9827 15.014 37.9325ZM33.6352 30.8504C33.3223 31.3687 33.0166 31.8918 32.7371 32.4317C32.4529 32.9667 32.1925 33.5184 31.9537 34.0798C31.8343 34.3616 31.7316 34.6506 31.6336 34.9444L31.5046 35.3911C31.4569 35.5225 31.433 35.6634 31.3685 35.7876C31.1583 36.3011 30.8 36.7478 30.3199 37.0464C29.847 37.3593 29.2904 37.548 28.7196 37.6865C28.1463 37.8226 27.5516 37.8919 26.9568 37.9349C26.3931 37.9851 25.8246 37.9874 25.2562 38.0042C25.495 37.8035 25.7219 37.5886 25.9345 37.3593C26.2403 37.0249 26.503 36.6785 26.7801 36.3417C27.0619 36.0097 27.3414 35.6729 27.6352 35.3529C28.4186 34.481 29.214 33.614 30.0906 32.8329C31.0102 32.0232 31.9752 31.266 32.9855 30.5829C33.2316 30.4085 33.7953 30.5925 33.6352 30.8504ZM40.9012 21.5088C40.8439 21.7118 40.7723 21.9029 40.7293 22.1346C39.535 22.8607 38.3861 23.6322 37.2515 24.4324C36.1169 25.2373 35.0063 26.0757 33.9243 26.9499C32.8422 27.8241 31.8008 28.7461 30.7905 29.7015C29.7897 30.6665 28.8438 31.6864 27.96 32.7565C28.8724 31.7103 29.8446 30.7214 30.8717 29.7875C31.9035 28.8631 32.9688 27.9746 34.07 27.1362C35.1735 26.2978 36.3009 25.4953 37.4522 24.7262C38.5318 24.0096 39.6305 23.3169 40.7484 22.672C40.7627 22.7866 40.7746 22.9013 40.7842 23.016C40.8057 23.3097 40.8153 23.6107 40.7627 23.883C40.7173 24.1338 40.5501 24.3942 40.3925 24.6426C40.3113 24.7692 40.2253 24.8957 40.1441 25.0319C40.1035 25.1012 40.0629 25.1728 40.027 25.2588C40.0103 25.3042 39.9936 25.352 39.984 25.4093C39.9769 25.4427 39.9721 25.4618 39.9625 25.4881C39.8813 25.6983 39.6568 25.9969 39.566 26.3002C39.5493 26.3384 39.535 26.3599 39.4944 26.3934C39.4538 26.4316 39.3988 26.4722 39.3487 26.5128C39.2388 26.5916 39.1241 26.6681 39.0023 26.7397C38.7635 26.8878 38.5127 27.0263 38.2619 27.1649C37.7579 27.4396 37.2467 27.7047 36.7356 27.9722C35.6727 28.5383 34.5978 29.059 33.5397 29.6824C32.5102 30.3512 31.5524 31.0869 30.6352 31.8823C29.718 32.6729 28.8533 33.5232 28.0436 34.4213C27.8406 34.6459 27.64 34.8704 27.4465 35.1021C27.2482 35.3314 27.0571 35.5631 26.8708 35.8019C26.4839 36.2629 26.1495 36.7741 25.7649 37.2255C25.0316 38.083 24.0643 38.7494 22.9966 39.1316C22.2944 39.3824 21.4751 39.5997 20.749 39.6212C20.7442 39.6212 20.7418 39.6212 20.737 39.6212C20.6462 39.6141 20.5483 39.6045 20.4432 39.595C20.3405 39.5806 20.233 39.5639 20.1327 39.5496C19.7983 39.4994 19.4711 39.4301 19.151 39.3298C18.5801 39.1435 18.0523 38.8521 17.5841 38.489C17.1136 38.1284 16.7123 37.6865 16.3468 37.2183C15.9862 36.7502 15.6422 36.239 15.2624 35.7613C15.0761 35.5201 14.8874 35.2812 14.6892 35.0495C14.4957 34.8131 14.2951 34.5814 14.0897 34.3568C13.0435 33.1841 11.885 32.1116 10.6525 31.1347C10.0339 30.6474 9.39613 30.1864 8.7345 29.7565C8.39294 29.5296 8.03943 29.348 7.69309 29.1641L6.64929 28.6338L4.38971 27.5232C4.01471 27.3369 3.64448 27.1482 3.28142 26.9451C3.09989 26.8448 2.92074 26.7397 2.75355 26.6298C2.66995 26.5749 2.58873 26.5176 2.51469 26.4579C2.44064 26.391 2.40004 26.3623 2.37615 26.2978C2.30211 26.0638 2.15163 25.8177 2.04892 25.6266C2.0107 25.5526 1.98443 25.4857 1.97249 25.426C1.95577 25.3066 1.90322 25.1991 1.86022 25.1155C1.76707 24.9435 1.66436 24.793 1.56882 24.6402C1.47328 24.4897 1.3849 24.3392 1.31086 24.184C1.27264 24.1051 1.24398 24.0335 1.22487 23.9594C1.20576 23.883 1.19143 23.7994 1.18426 23.7158C1.15082 23.3766 1.17948 23.0207 1.22009 22.6672C2.33077 23.3026 3.42473 23.9857 4.49481 24.6927C5.64131 25.4523 6.76155 26.2477 7.8579 27.0789C8.95425 27.9101 10.01 28.7915 11.0371 29.7087C12.057 30.6331 13.022 31.6172 13.9272 32.6562C13.0506 31.5933 12.1119 30.5781 11.1183 29.6203C10.1175 28.6721 9.08084 27.7549 8.00599 26.8878C6.92875 26.0231 5.82523 25.1895 4.69544 24.3942C3.57043 23.6035 2.4287 22.8416 1.24398 22.1274C1.2392 22.1083 1.23681 22.0892 1.23203 22.0701C1.18665 21.8814 1.12932 21.7094 1.07678 21.5374C0.976457 21.1959 0.868972 20.8519 0.92152 20.5366C0.978845 20.2118 1.08633 19.8559 1.1341 19.4976C2.35227 20.336 3.5346 21.2245 4.68589 22.1417C5.91361 23.121 7.10311 24.1505 8.25918 25.2134C9.42002 26.2739 10.5307 27.3894 11.596 28.5455L12.389 29.4197L13.1533 30.3202L13.5355 30.7716L13.8986 31.2374L14.6247 32.1689L13.9225 31.2207L13.5713 30.7453L13.2011 30.2843L12.4607 29.3647L11.6891 28.469C10.6501 27.2843 9.56333 26.1378 8.42638 25.0438C7.2942 23.9451 6.1238 22.8846 4.91519 21.8671C3.71375 20.8567 2.48603 19.8869 1.19859 18.9697C1.21054 18.7691 1.21292 18.5708 1.20576 18.3702C1.1962 18.1863 1.18426 18.0024 1.16754 17.8184C1.16038 17.7181 1.15082 17.6584 1.16276 17.5748C1.16754 17.4984 1.18665 17.4172 1.21054 17.3383C1.32996 16.9562 1.58793 16.6098 1.81723 16.2253C1.81962 16.2205 1.8244 16.2133 1.82678 16.2086C3.10705 17.2667 4.3491 18.3941 5.55294 19.5502C6.81171 20.7659 8.02749 22.0271 9.19549 23.3289C10.3707 24.6258 11.467 25.9921 12.5204 27.3918C13.5689 28.7963 14.5172 30.2724 15.3938 31.7915C14.553 30.2533 13.6382 28.7533 12.6183 27.3225C11.596 25.8966 10.5259 24.4992 9.37463 23.1712C8.23051 21.8384 7.04101 20.5438 5.80374 19.2946C4.58796 18.0716 3.34352 16.8893 2.02981 15.7571C2.04892 15.6902 2.06564 15.6257 2.07519 15.5589C2.1158 15.3248 2.12297 15.1027 2.14446 14.8948C2.16357 14.687 2.19701 14.4912 2.26389 14.3192C2.33077 14.1472 2.43587 13.9776 2.5553 13.8176C2.67711 13.6576 2.81804 13.5047 2.96374 13.3399C3.01151 13.2873 3.05928 13.2276 3.10705 13.1703C4.40643 14.4219 5.65565 15.7452 6.85948 17.0995C8.12542 18.5302 9.33881 20.0088 10.4949 21.5327C11.639 23.0637 12.7115 24.6497 13.7003 26.2859C14.6629 27.9388 15.5228 29.6514 16.2226 31.4356C15.561 29.637 14.7346 27.9029 13.803 26.2262C12.8452 24.5637 11.8038 22.9515 10.6883 21.3917C9.56094 19.8392 8.37383 18.3296 7.13178 16.8654C5.93033 15.4562 4.68828 14.0851 3.37457 12.7666C3.37935 12.7571 3.38651 12.7475 3.3889 12.738C3.48444 12.48 3.50355 12.2507 3.5346 12.0334C3.56327 11.816 3.59432 11.613 3.64926 11.4243C3.7018 11.2332 3.78779 11.0803 3.90483 10.9179C4.01948 10.7626 4.15802 10.6384 4.32761 10.5142C4.49719 10.39 4.69067 10.2587 4.86742 10.1082C4.88414 10.0938 4.89847 10.0795 4.91519 10.0676C6.1453 11.601 7.31569 13.199 8.43593 14.8208C9.60155 16.5167 10.7098 18.2556 11.7584 20.0279C12.8165 21.7954 13.7744 23.6226 14.6748 25.4738C15.5753 27.3273 16.3445 29.2429 17.0371 31.1848C16.3827 29.2286 15.647 27.2986 14.7823 25.4236C13.9153 23.551 12.9909 21.7022 11.9638 19.9084C10.9463 18.1098 9.86907 16.3471 8.73211 14.6226C7.6286 12.9553 6.4797 11.3192 5.25198 9.73078C5.29497 9.67584 5.33319 9.61852 5.36663 9.55403C5.50278 9.31039 5.51711 9.03093 5.53144 8.82552C5.54577 8.61054 5.57921 8.44573 5.67475 8.29525C5.76791 8.14716 5.92316 8.00146 6.0832 7.87965C6.24323 7.75544 6.42476 7.65512 6.61824 7.56436C6.81171 7.47359 7.01713 7.38999 7.22015 7.29206C7.29659 7.25623 7.37302 7.21324 7.44945 7.17024C8.55775 8.99033 9.59916 10.863 10.5952 12.7547C11.6127 14.6918 12.5705 16.66 13.4758 18.6544C14.3906 20.6441 15.2051 22.6768 15.9742 24.7262C16.7362 26.7803 17.3835 28.8751 17.952 30.9914C17.4217 28.8655 16.8126 26.7564 16.0865 24.6879C15.3556 22.6218 14.5745 20.5701 13.6955 18.5589C12.8261 16.5453 11.8993 14.5557 10.9153 12.5923C9.94311 10.6623 8.93036 8.75864 7.83401 6.886C7.98927 6.6997 8.08481 6.49906 8.18035 6.30797C8.2759 6.10733 8.36905 5.91147 8.47415 5.72277C8.58163 5.53886 8.69628 5.35016 8.84915 5.22357C9.0068 5.0922 9.20743 5.00621 9.41285 4.9441C9.78547 4.82706 10.182 4.7984 10.5761 4.71958L10.5426 4.7363C11.5243 6.78091 12.3914 8.89956 13.2035 11.0302C14.0084 13.1655 14.7632 15.32 15.4344 17.5032C16.1056 19.6863 16.7386 21.8814 17.276 24.1004C17.5626 25.2063 17.8015 26.3241 18.0523 27.4372C18.3007 28.5526 18.5013 29.6776 18.7282 30.7979C18.5204 29.6753 18.3389 28.5455 18.1096 27.4252C17.8779 26.305 17.6582 25.1848 17.3906 24.0717C16.8914 21.8408 16.2967 19.6314 15.6613 17.4315C15.026 15.234 14.307 13.0604 13.5379 10.9036C12.7592 8.74908 11.9328 6.61849 10.9726 4.52372L10.9535 4.53327C11.0227 4.464 11.0825 4.38757 11.1374 4.31352C11.264 4.14394 11.381 3.97196 11.5148 3.8167C11.6987 3.59457 11.9161 3.3796 12.174 3.22195C12.2361 3.18374 12.3006 3.1503 12.3675 3.11924C12.5251 3.0667 12.6971 3.02848 12.8619 3.01892C13.3134 2.9831 13.76 3.05953 14.221 3.08819H14.2186C14.8635 5.32627 15.4344 7.5978 15.9694 9.87409C16.4997 12.1504 16.9989 14.4362 17.4456 16.7317C17.8922 19.0271 18.3126 21.3296 18.6733 23.6394C19.0507 25.9491 19.3588 28.2684 19.6502 30.5901C19.397 28.2636 19.1295 25.9372 18.7903 23.6203C18.4679 21.301 18.0881 18.9912 17.6797 16.6863C17.2736 14.3813 16.8126 12.0835 16.3182 9.79288C15.8237 7.51897 15.2959 5.25462 14.6892 3.0022C14.7489 2.97354 14.8062 2.9401 14.8588 2.90189C15.0355 2.77768 15.1836 2.6272 15.3293 2.47911C15.6159 2.18771 15.893 1.86525 16.2322 1.70522C16.5642 1.54279 16.9392 1.70999 17.3047 1.88436C17.6176 2.03245 17.9639 2.20204 18.3556 2.24025L19.4496 16.3328L19.9798 23.4602C20.1494 25.8368 20.3238 28.2135 20.4504 30.5925C20.3644 28.2111 20.2282 25.8321 20.0993 23.4531L19.6884 16.3184L18.8286 2.21637C18.9719 2.18293 19.108 2.13516 19.2322 2.07783C19.4376 1.98229 19.6168 1.86286 19.7911 1.7506C20.1351 1.52607 20.4623 1.33499 20.8111 1.30633C21.1646 1.27528 21.4966 1.3756 21.8119 1.58579C22.1343 1.78643 22.4496 2.085 22.9106 2.26653C22.9799 2.29519 23.0539 2.31669 23.128 2.3358L22.2131 16.3137L21.7736 23.4507C21.6351 25.8297 21.4894 28.2087 21.4034 30.5901C21.53 28.2111 21.7163 25.8345 21.8931 23.4578L22.452 16.3304L23.5985 2.37879C23.6869 2.37401 23.7753 2.36685 23.8589 2.35013C24.167 2.29519 24.4345 2.17815 24.6805 2.07544C24.9242 1.97035 25.1535 1.87719 25.3374 1.8557C25.4281 1.84614 25.4998 1.86047 25.5715 1.88436C25.6479 1.91541 25.7339 1.96796 25.8199 2.03484C25.9918 2.17337 26.1638 2.35968 26.3406 2.55554C26.5197 2.75141 26.706 2.96399 26.9688 3.15746C27.0356 3.20523 27.1145 3.253 27.2028 3.29122C26.6391 5.45048 26.1447 7.61929 25.6789 9.79766C25.1941 12.0883 24.7426 14.3837 24.3413 16.691C23.9401 18.996 23.5627 21.3057 23.245 23.625C22.9106 25.9419 22.6431 28.266 22.3923 30.5901C22.6837 28.2684 22.9918 25.9515 23.3644 23.6418C23.7227 21.332 24.1359 19.0294 24.5778 16.734C25.0173 14.4386 25.5094 12.1528 26.0301 9.87409C26.5317 7.70289 27.0667 5.53408 27.6662 3.39154C27.7737 3.39393 27.874 3.38676 27.9696 3.3796C28.261 3.35093 28.5118 3.30316 28.7506 3.28883C28.9895 3.26972 29.2021 3.29122 29.3908 3.35571C29.4385 3.37004 29.4815 3.39632 29.5269 3.41304C29.5699 3.4417 29.6105 3.4632 29.6559 3.49425C29.749 3.56113 29.8398 3.63278 29.921 3.714C30.0906 3.87164 30.2315 4.05795 30.382 4.27292C30.4585 4.3804 30.5349 4.49506 30.6424 4.61926C30.6997 4.68614 30.7737 4.76019 30.8621 4.82468C29.9616 6.81912 29.171 8.84701 28.433 10.8964C27.6638 13.0509 26.9449 15.2269 26.3095 17.4243C25.6766 19.6218 25.0818 21.8312 24.5802 24.0645C24.3127 25.1752 24.0929 26.2978 23.8612 27.4181C23.6319 28.5383 23.4504 29.6657 23.2426 30.7907C23.4695 29.6705 23.6702 28.5455 23.9186 27.43C24.1694 26.3146 24.4082 25.1991 24.6949 24.0932C25.2323 21.8742 25.8653 19.6767 26.5364 17.496C27.2076 15.3128 27.9624 13.1584 28.7674 11.023C29.5412 8.99033 30.3677 6.9696 31.2944 5.01337C31.3876 5.03487 31.4736 5.04681 31.5572 5.06114L31.9537 5.11608C32.2069 5.15191 32.4529 5.1949 32.6607 5.27134C32.7682 5.30717 32.859 5.35494 32.9378 5.40749C33.0166 5.46481 33.062 5.51019 33.1408 5.6129C33.2817 5.79921 33.4035 6.01657 33.5254 6.24826C33.6018 6.39157 33.6806 6.54205 33.7738 6.69731C33.843 6.80957 33.9243 6.929 34.0413 7.04126C32.9808 8.86134 31.9967 10.7125 31.0508 12.5899C30.0667 14.5509 29.14 16.543 28.2705 18.5565C27.3915 20.5677 26.6105 22.6195 25.8796 24.6856C25.1535 26.7564 24.5444 28.8631 24.0141 30.989C24.5826 28.8727 25.2299 26.7779 25.9918 24.7238C26.7586 22.6744 27.5755 20.6393 28.4903 18.6521C29.3955 16.66 30.3557 14.6918 31.3709 12.7523C32.3406 10.9083 33.3582 9.08109 34.4354 7.304C34.6766 7.42821 34.9155 7.5142 35.14 7.60257C35.441 7.71722 35.7037 7.84143 35.9354 8.02057C36.1838 8.21166 36.3295 8.38363 36.3797 8.65354C36.4084 8.7873 36.4131 8.95211 36.449 9.13842C36.4824 9.32472 36.5612 9.52775 36.683 9.6854C36.6926 9.69973 36.7045 9.71167 36.7165 9.726C35.4864 11.3168 34.3399 12.9529 33.234 14.6226C32.097 16.3471 31.0198 18.1122 30.0022 19.9084C28.9752 21.6999 28.0508 23.551 27.1837 25.4236C26.3191 27.2986 25.5834 29.231 24.9289 31.1848C25.6216 29.2429 26.3931 27.3273 27.2912 25.4738C28.1941 23.6226 29.1495 21.7954 30.2077 20.0279C31.2562 18.2556 32.3645 16.5191 33.5301 14.8208C34.6528 13.1918 35.8255 11.5891 37.0604 10.0532C37.0652 10.058 37.07 10.0628 37.0748 10.0652C37.2085 10.1727 37.3494 10.273 37.488 10.3661C37.7674 10.5501 37.9967 10.7149 38.1639 10.9657C38.3407 11.2021 38.4195 11.4888 38.4721 11.804C38.5151 12.0405 38.5342 12.2889 38.6058 12.5541C38.6178 12.6018 38.6369 12.652 38.656 12.7021C37.316 14.0397 36.0548 15.4323 34.8343 16.8654C33.5922 18.3296 32.4051 19.8392 31.2777 21.3917C30.1599 22.9515 29.1185 24.5661 28.163 26.2262C27.2315 27.9029 26.4051 29.637 25.7434 31.4356C26.4433 29.6514 27.3032 27.9388 28.2658 26.2859C29.2546 24.6497 30.3247 23.0637 31.4712 21.5327C32.6273 20.0088 33.8383 18.5302 35.1066 17.0995C36.3295 15.7237 37.5979 14.3789 38.9211 13.1106C38.9593 13.156 38.9976 13.2014 39.0358 13.2467C39.3678 13.617 39.6878 13.9776 39.8049 14.4124C39.8622 14.6297 39.8765 14.8662 39.8885 15.1146C39.9004 15.3128 39.91 15.523 39.9649 15.7332C38.6417 16.8702 37.3877 18.0621 36.1647 19.2946C34.9274 20.5438 33.7379 21.8384 32.5938 23.1712C31.4425 24.4992 30.3749 25.8966 29.3502 27.3225C28.3302 28.7533 27.4154 30.2533 26.5747 31.7915C27.4513 30.2724 28.3995 28.7963 29.4481 27.3918C30.5014 25.9921 31.5978 24.6258 32.773 23.3289C33.9434 22.0271 35.1567 20.7659 36.4155 19.5502C37.6241 18.3893 38.871 17.2571 40.156 16.1942C40.2277 16.3256 40.3041 16.4474 40.3781 16.5716C40.5047 16.7818 40.6266 16.992 40.7125 17.207C40.7555 17.3145 40.7842 17.4219 40.8033 17.5294C40.8176 17.6393 40.8105 17.7301 40.7961 17.8662C40.7699 18.117 40.7603 18.3702 40.7579 18.621C40.7579 18.7357 40.7627 18.8503 40.7675 18.9673C39.48 19.8822 38.2523 20.8543 37.0509 21.8647C35.8423 22.8822 34.6719 23.9427 33.5397 25.0415C32.4027 26.1354 31.3183 27.2819 30.2769 28.4666L29.5054 29.3624L28.765 30.282L28.3947 30.7429L28.0436 31.2183L27.3414 32.1665L28.0675 31.235L28.4306 30.7692L28.8127 30.3178L29.5771 29.4173L30.3701 28.5431C31.4378 27.387 32.5484 26.2716 33.7069 25.211C34.863 24.1457 36.0525 23.1187 37.2802 22.1394C38.4315 21.2198 39.6162 20.3312 40.8272 19.5048C40.8582 19.7126 40.8965 19.9204 40.9466 20.1234C41.0039 20.367 41.0684 20.5963 41.0493 20.8113C41.035 21.0406 40.9705 21.2747 40.9012 21.5088Z" fill="#ECC4AD"/>
</g>
<defs>
<clipPath id="clip0_258_1475">
<rect width="41.1931" height="38.6588" fill="white" transform="translate(0.369385 0.989014)"/>
</clipPath>
</defs>
</svg>
