<svg width="42" height="39" viewBox="0 0 42 39" fill="none" xmlns="http://www.w3.org/2000/svg">
<g clip-path="url(#clip0_258_1447)">
<path d="M41.3873 20.2635C41.4255 20.0891 41.4566 19.8933 41.4399 19.6759C41.4208 19.4729 41.3802 19.3057 41.3443 19.148C41.2727 18.8351 41.2201 18.5461 41.1962 18.2428C41.1724 17.9418 41.1747 17.6361 41.1939 17.3303C41.201 17.1727 41.2201 17.0318 41.2345 16.8598C41.256 16.6257 41.213 16.4083 41.1532 16.222C41.0267 15.8494 40.8403 15.5556 40.6755 15.2762C40.5919 15.14 40.5131 15.0063 40.4558 14.8868C40.4009 14.7722 40.3746 14.679 40.3531 14.5405C40.3029 14.2204 40.3387 13.7881 40.205 13.3247C40.0641 12.8542 39.775 12.4983 39.5075 12.1973C39.3738 12.0468 39.2424 11.9083 39.1349 11.7745C39.111 11.7435 39.08 11.7029 39.0656 11.6814C39.0513 11.6623 39.037 11.636 39.025 11.6073C38.9988 11.5452 38.9749 11.4712 38.9582 11.3852C38.8817 11.046 38.8555 10.6137 38.6835 10.1933C38.6405 10.0882 38.5855 9.98312 38.5258 9.88519C38.4661 9.79442 38.4016 9.70366 38.3276 9.61767C38.1819 9.4433 38.0027 9.29999 37.8331 9.18534C37.6636 9.07069 37.5059 8.97037 37.3578 8.8605C37.2145 8.75062 37.0569 8.62403 36.9661 8.51415C36.8706 8.39473 36.8156 8.26813 36.7893 8.09138C36.7607 7.9194 36.7535 7.70443 36.6819 7.47991C36.615 7.25538 36.4669 7.05713 36.3092 6.90904C36.1564 6.76334 35.9844 6.63675 35.8029 6.53404C35.3729 6.28563 34.9358 6.08738 34.5632 5.89152C34.5035 5.86285 34.4342 5.82225 34.3865 5.79358C34.3482 5.7697 34.3076 5.73148 34.267 5.6861C34.1858 5.59533 34.1118 5.47352 34.0377 5.34692C33.892 5.09135 33.7511 4.81189 33.5696 4.54676C33.474 4.413 33.388 4.28879 33.2471 4.15981C33.1086 4.04277 32.9533 3.96156 32.7981 3.89946C32.4852 3.78242 32.1723 3.73703 31.8689 3.69882L31.4199 3.64388C31.2742 3.62238 31.138 3.5985 31.0472 3.53401C30.8442 3.39786 30.6842 3.11123 30.4931 2.87238C30.302 2.62635 30.0751 2.39944 29.8148 2.2203C29.552 2.0316 29.2224 1.93606 28.9095 1.93128C28.6491 1.92173 28.3912 1.95278 28.1428 1.98622C27.8943 2.01727 27.6459 2.05071 27.4214 2.01249C27.216 1.96711 27.0297 1.80708 26.8601 1.63271C26.6881 1.45835 26.5257 1.26726 26.3466 1.08573C26.1698 0.90659 25.9787 0.729837 25.7399 0.603243C25.6181 0.548306 25.4795 0.495758 25.3386 0.498146C25.2001 0.493369 25.0639 0.517255 24.9397 0.555472C24.4429 0.710728 24.0344 0.999744 23.5615 1.06901C22.5607 1.2601 21.9373 0.0419313 20.8529 0.0825369C20.4564 0.0825369 20.0742 0.240182 19.7541 0.452764C19.4293 0.65818 19.1331 0.90659 18.782 1.02363C18.4333 1.14545 18.0511 1.09529 17.7048 0.961527C17.3512 0.834933 17.0192 0.629517 16.6227 0.555472C16.4269 0.517255 16.2071 0.54114 16.028 0.636683C15.8465 0.727448 15.696 0.85643 15.5574 0.99019C15.278 1.25771 15.0439 1.56344 14.7644 1.81185C14.6235 1.93128 14.4683 2.04354 14.2915 2.06504C14.1124 2.08654 13.9189 2.06504 13.7302 2.0531C13.3504 2.02444 12.9611 1.99577 12.5813 2.06743C12.4929 2.08415 12.3974 2.10804 12.309 2.1367C12.2278 2.16058 12.1514 2.18447 12.0773 2.21552C11.8313 2.32062 11.6115 2.48304 11.4228 2.67412C11.2318 2.86282 11.0741 3.08018 10.9189 3.2856C10.8233 3.40741 10.7206 3.54117 10.6203 3.59133C10.5128 3.64149 10.3432 3.6606 10.1903 3.67971C9.87505 3.71793 9.54782 3.74659 9.22298 3.83019C9.06056 3.87079 8.89574 3.93051 8.7381 4.01411C8.65928 4.05471 8.58523 4.10965 8.51119 4.16698C8.44192 4.23147 8.37504 4.30073 8.32727 4.36761C8.11707 4.63513 7.96182 4.9337 7.81373 5.21555C7.71341 5.40425 7.61786 5.59295 7.50083 5.73626C7.47216 5.77209 7.44111 5.80314 7.41006 5.82941C7.38379 5.8533 7.34318 5.87957 7.29541 5.90824C7.20942 5.96317 7.11866 6.01094 7.0255 6.05872C6.65528 6.24263 6.22772 6.38356 5.84555 6.63675C5.64491 6.77051 5.46577 6.91382 5.30574 7.11207C5.14571 7.31032 5.06211 7.57545 5.03822 7.80953C5.01195 8.046 4.99523 8.24664 4.91163 8.41384C4.82803 8.57626 4.67755 8.70763 4.50318 8.84855C4.33359 8.9847 4.15445 9.10174 3.96337 9.23072C3.77228 9.35971 3.57164 9.52213 3.41878 9.72038C3.2683 9.90907 3.13454 10.1455 3.06527 10.382C2.98884 10.6185 2.95062 10.8549 2.91718 11.0771C2.87896 11.3159 2.84313 11.5524 2.76192 11.7029C2.7452 11.7339 2.71654 11.7769 2.68071 11.8199C2.64727 11.8629 2.61144 11.9083 2.57323 11.9513L2.33437 12.2188C2.16956 12.4027 1.99758 12.601 1.85666 12.8351C1.71573 13.0596 1.60108 13.3414 1.56048 13.6137C1.4721 14.1583 1.53898 14.6289 1.34312 14.9561C1.14248 15.3454 0.810469 15.7443 0.628938 16.2937C0.583555 16.4275 0.557281 16.5779 0.552504 16.7356L0.554893 16.8574L0.562058 16.9505L0.574001 17.1201C0.588333 17.3471 0.59311 17.574 0.583555 17.7985C0.569224 18.2499 0.497567 18.6751 0.378139 19.1218C0.349477 19.2364 0.316037 19.3534 0.289763 19.4896C0.263488 19.6186 0.24438 19.7882 0.256323 19.9386C0.27782 20.2348 0.344699 20.4808 0.411579 20.7197C0.478459 20.949 0.55967 21.1926 0.588333 21.3527C0.590721 21.3933 0.595498 21.367 0.588333 21.4148L0.564447 21.5915C0.550116 21.7133 0.535784 21.8352 0.52623 21.9594C0.499956 22.2866 0.488013 22.6186 0.540561 22.9817C0.554893 23.0724 0.574001 23.168 0.607441 23.2659C0.643269 23.3734 0.679098 23.4522 0.719703 23.531C0.798526 23.6887 0.886903 23.832 0.975279 23.9658L1.22847 24.3503C1.26668 24.41 1.30251 24.4697 1.32401 24.5175C1.35267 24.5844 1.33834 24.5295 1.37656 24.6943C1.44583 24.9188 1.54615 25.0502 1.6178 25.1791C1.69424 25.3129 1.74678 25.4084 1.80172 25.5613C1.81844 25.6115 1.84949 25.6521 1.87099 25.6998C1.90443 25.7405 1.93548 25.7811 1.96892 25.8193C2.03819 25.8838 2.09074 25.9291 2.15045 25.9721C2.26749 26.0605 2.38214 26.1322 2.49679 26.2038C2.72848 26.3448 2.96017 26.4714 3.19425 26.5956C3.66002 26.8416 4.13057 27.0733 4.60111 27.305C4.90685 27.4554 5.17198 27.6847 5.47771 27.8304C6.10352 28.1338 6.73171 28.43 7.35273 28.7381C7.58442 29.168 7.79223 29.6123 8.0072 30.0494C8.26994 30.5916 8.52791 31.1338 8.77632 31.6808C9.01995 32.2302 9.26597 32.7771 9.47616 33.3337L9.63142 33.7517L9.76996 34.1697L9.887 34.5948C9.93716 34.7477 9.96582 34.9077 10.0375 35.0558C10.2859 35.6554 10.7302 36.188 11.2843 36.5152C11.8361 36.8473 12.4451 37.036 13.0542 37.1387C13.6633 37.2485 14.2772 37.2676 14.8863 37.2557C15.4691 37.2438 16.0471 37.184 16.6203 37.1028C16.7493 37.2294 16.8831 37.356 17.0264 37.4707C17.4611 37.8313 17.9508 38.1299 18.4739 38.3377C18.997 38.5479 19.5559 38.6697 20.1148 38.7127C20.2462 38.7271 20.3967 38.739 20.5041 38.7318C20.6307 38.7294 20.7979 38.7318 20.8481 38.7318C20.817 38.7294 20.7358 38.7247 20.6546 38.7151C21.0511 38.7103 21.3354 38.6912 21.6172 38.6554C22.329 38.5599 23.0289 38.3521 23.6809 38.0368C24.1945 37.7836 24.677 37.4683 25.1165 37.1004C25.6873 37.1817 26.2606 37.2414 26.841 37.2509C27.4501 37.2629 28.0639 37.2438 28.673 37.1339C29.2821 37.0312 29.8912 36.8425 30.4429 36.5105C30.9971 36.1856 31.4414 35.6506 31.6898 35.0511C31.7614 34.903 31.7901 34.7429 31.8403 34.5901L31.9573 34.1649L32.0958 33.7469L32.2511 33.3289C32.4613 32.7724 32.7073 32.2254 32.9509 31.676C33.1993 31.129 33.4549 30.5845 33.72 30.0446C33.9302 29.6195 34.1309 29.1895 34.353 28.7715C34.3769 28.7596 34.4008 28.7453 34.4247 28.7333L36.0704 27.9069C36.7177 27.582 37.3674 27.2572 38.0099 26.9156C38.3324 26.7436 38.6524 26.5693 38.9701 26.3782C39.1301 26.285 39.2878 26.1823 39.4454 26.0725C39.5242 26.0175 39.6031 25.9578 39.6843 25.8862C39.7607 25.8241 39.8754 25.6903 39.9231 25.5565C39.9709 25.4084 40.0211 25.3081 40.0903 25.1791C40.1572 25.0525 40.248 24.9236 40.3173 24.7205C40.334 24.6728 40.3459 24.6035 40.3531 24.5629C40.3531 24.5581 40.3602 24.5414 40.3674 24.5199C40.3865 24.4745 40.4176 24.4148 40.451 24.3575C40.5227 24.238 40.6039 24.1115 40.6875 23.9801C40.7711 23.8487 40.8547 23.7102 40.9311 23.5621C40.9693 23.4857 41.0052 23.4116 41.0386 23.3256C41.0744 23.2301 41.0983 23.1369 41.115 23.0485C41.1771 22.695 41.1628 22.3726 41.1437 22.0549C41.1317 21.8853 41.1126 21.7181 41.0935 21.5557C41.084 21.4793 41.0696 21.3718 41.0744 21.3718C41.0768 21.3479 41.0935 21.2715 41.1103 21.207C41.1891 20.9275 41.3109 20.6122 41.3873 20.2635ZM14.8934 37.0216C14.2963 36.9786 13.7015 36.9094 13.1307 36.7732C12.5598 36.6347 12.0033 36.446 11.5303 36.1331C11.0502 35.8345 10.6896 35.3878 10.4817 34.8743C10.4173 34.7501 10.3934 34.6092 10.3456 34.4778L10.2166 34.0311C10.1187 33.7374 10.016 33.4483 9.89655 33.1665C9.65531 32.6052 9.39734 32.0534 9.1131 31.5184C8.83364 30.981 9.73174 30.1808 10.0852 30.4459C10.6728 30.8854 11.2007 31.399 11.7525 31.8791C12.8369 32.8321 13.8926 33.8281 14.817 34.9412C15.4213 35.6434 15.9444 36.4293 16.6108 37.0885C16.0328 37.0742 15.4619 37.0718 14.8934 37.0216ZM33.5146 29.9395C33.2017 30.4579 32.896 30.981 32.6165 31.5208C32.3323 32.0558 32.0719 32.6076 31.8331 33.1689C31.7137 33.4507 31.611 33.7397 31.513 34.0335L31.384 34.4802C31.3363 34.6116 31.3124 34.7525 31.2479 34.8767C31.0377 35.3902 30.6794 35.8369 30.1993 36.1355C29.7264 36.4484 29.1698 36.6371 28.599 36.7756C28.0257 36.9117 27.431 36.981 26.8362 37.024C26.2725 37.0742 25.704 37.0766 25.1356 37.0933C25.3744 36.8926 25.6013 36.6777 25.8139 36.4484C26.1196 36.114 26.3824 35.7676 26.6595 35.4308C26.9413 35.0988 27.2208 34.762 27.5146 34.442C28.298 33.5702 29.0934 32.7031 29.97 31.922C30.8896 31.1123 31.8546 30.3552 32.8649 29.672C33.111 29.4977 33.6747 29.6816 33.5146 29.9395ZM40.7806 20.5979C40.7233 20.8009 40.6517 20.992 40.6087 21.2237C39.4144 21.9498 38.2655 22.7213 37.1309 23.5215C35.9963 24.3264 34.8857 25.1648 33.8036 26.039C32.7216 26.9132 31.6802 27.8352 30.6699 28.7906C29.669 29.7556 28.7232 30.7755 27.8394 31.8456C28.7518 30.7994 29.724 29.8106 30.7511 28.8766C31.7829 27.9523 32.8482 27.0637 33.9494 26.2253C35.0529 25.3869 36.1803 24.5844 37.3316 23.8153C38.4112 23.0987 39.5099 22.406 40.6278 21.7611C40.6421 21.8758 40.654 21.9904 40.6636 22.1051C40.6851 22.3989 40.6946 22.6998 40.6421 22.9721C40.5975 23.2187 40.4351 23.4745 40.2798 23.7192C40.2772 23.7233 40.2745 23.7275 40.2719 23.7317C40.1907 23.8583 40.1047 23.9849 40.0235 24.121C39.9829 24.1903 39.9422 24.2619 39.9064 24.3479C39.8897 24.3933 39.873 24.4411 39.8634 24.4984C39.8563 24.5318 39.8515 24.5509 39.8419 24.5772C39.7607 24.7874 39.5362 25.086 39.4454 25.3893C39.4287 25.4276 39.4144 25.449 39.3738 25.4825C39.3332 25.5207 39.2782 25.5613 39.2281 25.6019C39.1182 25.6807 39.0035 25.7572 38.8817 25.8288C38.6429 25.9769 38.3921 26.1155 38.1413 26.254C37.6373 26.5287 37.1261 26.7938 36.615 27.0613C35.5521 27.6274 34.4772 28.1481 33.4191 28.7715C32.3896 29.4403 31.4318 30.176 30.5146 30.9714C29.5974 31.762 28.7327 32.6123 27.923 33.5104C27.72 33.735 27.5193 33.9595 27.3259 34.1912C27.1276 34.4205 26.9365 34.6522 26.7502 34.891C26.3633 35.352 26.0289 35.8632 25.6443 36.3146C24.911 37.1721 23.9437 37.8385 22.876 38.2207C22.1737 38.4715 21.3545 38.6888 20.6283 38.7103C20.6236 38.7103 20.6212 38.7103 20.6164 38.7103C20.5256 38.7032 20.4277 38.6936 20.3226 38.6841C20.2199 38.6697 20.1124 38.653 20.0121 38.6387C19.6777 38.5885 19.3505 38.5193 19.0304 38.4189C18.4595 38.2326 17.9317 37.9412 17.4635 37.5782C16.993 37.2175 16.5917 36.7756 16.2262 36.3074C15.8656 35.8393 15.5216 35.3281 15.1418 34.8504C14.9555 34.6092 14.7668 34.3703 14.5686 34.1386C14.3751 33.9022 14.1745 33.6705 13.969 33.4459C12.9229 32.2732 11.7644 31.2007 10.5319 30.2238C9.91327 29.7365 9.27553 29.2755 8.61389 28.8456C8.27233 28.6187 7.91882 28.4371 7.57248 28.2532L6.52868 27.723L4.2691 26.6123C3.8941 26.426 3.52387 26.2373 3.16081 26.0342C2.97928 25.9339 2.80014 25.8288 2.63294 25.719C2.54934 25.664 2.46813 25.6067 2.39408 25.547C2.32004 25.4801 2.27943 25.4514 2.25555 25.3869C2.1815 25.1529 2.03102 24.9068 1.92831 24.7158C1.8901 24.6417 1.86382 24.5748 1.85188 24.5151C1.83516 24.3957 1.78261 24.2882 1.73962 24.2046C1.64646 24.0326 1.54376 23.8822 1.44821 23.7293C1.35267 23.5788 1.2643 23.4283 1.19025 23.2731C1.15203 23.1942 1.12337 23.1226 1.10426 23.0485C1.08515 22.9721 1.07082 22.8885 1.06366 22.8049C1.03022 22.4657 1.05888 22.1098 1.09948 21.7563C2.21016 22.3917 3.30413 23.0748 4.3742 23.7818C5.52071 24.5414 6.64094 25.3368 7.73729 26.168C8.83364 26.9992 9.88939 27.8806 10.9165 28.7978C11.9364 29.7222 12.9014 30.7063 13.8066 31.7453C12.93 30.6824 11.9913 29.6672 10.9977 28.7094C9.99687 27.7612 8.96024 26.844 7.88538 25.9769C6.80814 25.1123 5.70463 24.2787 4.57484 23.4833C3.44983 22.6926 2.3081 21.9307 1.12337 21.2165C1.11859 21.1974 1.1162 21.1783 1.11143 21.1592C1.06604 20.9705 1.00872 20.7985 0.956171 20.6265C0.855851 20.285 0.748366 19.941 0.800914 19.6257C0.85824 19.3009 0.965725 18.945 1.0135 18.5867C2.23166 19.4251 3.414 20.3136 4.56528 21.2308C5.793 22.2102 6.98251 23.2396 8.13857 24.3025C9.29941 25.3631 10.4101 26.4785 11.4754 27.6346L12.2684 28.5088L13.0327 29.4093L13.4149 29.8607L13.778 30.3265L14.5041 31.258L13.8018 30.3098L13.4507 29.8344L13.0805 29.3735L12.34 28.4539L11.5685 27.5581C10.5295 26.3734 9.44273 25.2269 8.30577 24.133C7.17359 23.0342 6.0032 21.9737 4.79459 20.9562C3.59314 19.9458 2.36542 18.976 1.07799 18.0588C1.08993 17.8582 1.09232 17.66 1.08515 17.4593C1.0756 17.2754 1.06366 17.0915 1.04694 16.9076C1.03977 16.8072 1.03022 16.7475 1.04216 16.6639C1.04694 16.5875 1.06604 16.5063 1.08993 16.4275C1.20936 16.0453 1.46732 15.6989 1.69662 15.3144C1.69901 15.3096 1.70379 15.3024 1.70618 15.2977C2.98645 16.3558 4.2285 17.4832 5.43233 18.6393C6.6911 19.855 7.90688 21.1162 9.07489 22.418C10.2501 23.715 11.3464 25.0812 12.3998 26.4809C13.4483 27.8854 14.3966 29.3615 15.2732 30.8806C14.4324 29.3424 13.5176 27.8424 12.4977 26.4116C11.4754 24.9857 10.4053 23.5884 9.25403 22.2603C8.10991 20.9275 6.92041 19.6329 5.68313 18.3837C4.46735 17.1607 3.22291 15.9784 1.90921 14.8462C1.92831 14.7793 1.94503 14.7149 1.95459 14.648C1.99519 14.4139 2.00236 14.1918 2.02386 13.984C2.04297 13.7762 2.07641 13.5803 2.14329 13.4083C2.21016 13.2363 2.31526 13.0668 2.43469 12.9067C2.55651 12.7467 2.69743 12.5938 2.84313 12.429C2.8909 12.3765 2.93868 12.3167 2.98645 12.2594C4.28582 13.511 5.53504 14.8343 6.73887 16.1886C8.00481 17.6193 9.2182 19.0979 10.3743 20.6218C11.5184 22.1528 12.5908 23.7388 13.5797 25.375C14.5423 27.0279 15.4022 28.7405 16.102 30.5247C15.4404 28.7262 14.614 26.9921 13.6824 25.3153C12.7246 23.6529 11.6832 22.0406 10.5677 20.4808C9.44034 18.9283 8.25322 17.4187 7.01117 15.9545C5.80972 14.5453 4.56767 13.1742 3.25397 11.8558C3.25874 11.8462 3.26591 11.8366 3.2683 11.8271C3.36384 11.5691 3.38295 11.3398 3.414 11.1225C3.44266 10.9051 3.47371 10.7021 3.52865 10.5134C3.5812 10.3223 3.66719 10.1694 3.78423 10.007C3.89888 9.85175 4.03741 9.72754 4.207 9.60334C4.37659 9.47913 4.57006 9.34776 4.74682 9.19728C4.76354 9.18295 4.77787 9.16862 4.79459 9.15668C6.0247 10.6901 7.19509 12.2881 8.31532 13.9099C9.48094 15.6058 10.5892 17.3447 11.6378 19.117C12.6959 20.8845 13.6538 22.7118 14.5542 24.5629C15.4547 26.4164 16.2238 28.332 16.9165 30.2739C16.2621 28.3177 15.5264 26.3878 14.6617 24.5127C13.7947 22.6401 12.8703 20.7914 11.8432 18.9975C10.8257 17.199 9.74846 15.4362 8.61151 13.7117C7.50799 12.0444 6.35909 10.4083 5.13137 8.81989C5.17437 8.76495 5.21258 8.70763 5.24602 8.64314C5.38217 8.3995 5.3965 8.12004 5.41084 7.91463C5.42517 7.69966 5.45861 7.53485 5.55415 7.38437C5.6473 7.23628 5.80256 7.09057 5.96259 6.96876C6.12263 6.84455 6.30416 6.74423 6.49763 6.65347C6.6911 6.5627 6.89652 6.4791 7.09955 6.38117C7.17598 6.34534 7.25241 6.30235 7.32885 6.25935C8.43714 8.07944 9.47855 9.95207 10.4746 11.8438C11.4921 13.7809 12.4499 15.7491 13.3552 17.7436C14.27 19.7332 15.0845 21.7659 15.8536 23.8153C16.6156 25.8694 17.2629 27.9642 17.8313 30.0805C17.3011 27.9546 16.692 25.8455 15.9659 23.7771C15.235 21.711 14.4539 19.6592 13.5749 17.648C12.7055 15.6345 11.7787 13.6448 10.7946 11.6814C9.82251 9.75143 8.80976 7.84775 7.71341 5.97512C7.86866 5.78881 7.96421 5.58817 8.05975 5.39708C8.06045 5.3956 8.06116 5.39412 8.06186 5.39264C8.15667 5.19355 8.24922 4.99919 8.35354 4.81189C8.46103 4.62797 8.57568 4.43927 8.72855 4.31268C8.88619 4.18131 9.08683 4.09532 9.29225 4.03322C9.66486 3.91618 10.0614 3.88751 10.4555 3.80869L10.422 3.82541C11.4037 5.87002 12.2708 7.98867 13.0829 10.1193C13.8878 12.2546 14.6426 14.4091 15.3138 16.5923C15.985 18.7754 16.618 20.9705 17.1554 23.1895C17.442 24.2954 17.6809 25.4132 17.9317 26.5263C18.1801 27.6417 18.3807 28.7668 18.6076 29.887C18.3998 28.7644 18.2183 27.6346 17.989 26.5143C17.7573 25.3941 17.5376 24.2739 17.27 23.1608C16.7708 20.9299 16.1761 18.7205 15.5407 16.5206C14.9054 14.3231 14.1864 12.1495 13.4173 9.99267C12.6386 7.83819 11.8122 5.7076 10.852 3.61283L10.8329 3.62238C10.9021 3.55312 10.9618 3.47668 11.0168 3.40264C11.1434 3.23305 11.2604 3.06107 11.3942 2.90582C11.5781 2.68368 11.7955 2.46871 12.0534 2.31106C12.1155 2.27285 12.18 2.23941 12.2469 2.20836C12.4045 2.15581 12.5765 2.11759 12.7413 2.10804C13.1928 2.07221 13.6394 2.14864 14.1004 2.1773H14.098C14.7429 4.41539 15.3138 6.68691 15.8488 8.9632C16.3791 11.2395 16.8783 13.5254 17.325 15.8208C17.7716 18.1162 18.192 20.4187 18.5527 22.7285C18.9301 25.0382 19.2382 27.3575 19.5296 29.6792C19.2764 27.3527 19.0089 25.0263 18.6697 22.7094C18.3473 20.3901 17.9675 18.0803 17.5591 15.7754C17.153 13.4704 16.692 11.1726 16.1976 8.88199C15.7031 6.60808 15.1753 4.34373 14.5686 2.09132C14.6283 2.06265 14.6856 2.02921 14.7382 1.991C14.9149 1.86679 15.063 1.71631 15.2087 1.56822C15.4953 1.27682 15.7724 0.954361 16.1116 0.794328C16.4436 0.631906 16.8186 0.799105 17.184 0.97347C17.4969 1.12156 17.8433 1.29115 18.235 1.32937L19.329 15.4219L19.8592 22.5493C20.0288 24.926 20.2032 27.3026 20.3298 29.6816C20.2438 27.3002 20.1076 24.9212 19.9787 22.5422L19.5678 15.4075L18.7079 1.30548C18.8513 1.27204 18.9874 1.22427 19.1116 1.16694C19.317 1.0714 19.4962 0.951973 19.6705 0.83971C20.0145 0.615186 20.3417 0.424101 20.6905 0.395438C21.044 0.364387 21.376 0.464706 21.6913 0.6749C22.0137 0.875539 22.329 1.17411 22.79 1.35564C22.8593 1.3843 22.9333 1.4058 23.0074 1.42491L22.0925 15.4028L21.653 22.5398C21.5145 24.9188 21.3688 27.2978 21.2828 29.6792C21.4094 27.3002 21.5957 24.9236 21.7725 22.5469L22.3314 15.4195L23.4779 1.4679C23.5663 1.46312 23.6547 1.45596 23.7383 1.43924C24.0464 1.3843 24.3139 1.26726 24.5599 1.16455C24.8036 1.05946 25.0329 0.966304 25.2168 0.944807C25.3075 0.935253 25.3792 0.949584 25.4509 0.97347C25.5273 1.00452 25.6133 1.05707 25.6993 1.12395C25.8712 1.26249 26.0432 1.44879 26.22 1.64466C26.3991 1.84052 26.5854 2.0531 26.8482 2.24657C26.915 2.29434 26.9939 2.34212 27.0822 2.38033C26.5185 4.53959 26.0241 6.7084 25.5583 8.88677C25.0735 11.1774 24.622 13.4728 24.2207 15.7802C23.8195 18.0851 23.4421 20.3949 23.1244 22.7141C22.79 25.031 22.5225 27.3551 22.2717 29.6792C22.5631 27.3575 22.8712 25.0406 23.2438 22.7309C23.6021 20.4211 24.0153 18.1186 24.4572 15.8231C24.8967 13.5277 25.3888 11.2419 25.9095 8.9632C26.4111 6.792 26.9461 4.62319 27.5456 2.48065C27.6531 2.48304 27.7534 2.47587 27.849 2.46871C28.1404 2.44005 28.3912 2.39227 28.63 2.37794C28.8689 2.35883 29.0815 2.38033 29.2702 2.44482C29.3179 2.45915 29.3609 2.48543 29.4063 2.50215C29.4493 2.53081 29.4899 2.55231 29.5353 2.58336C29.6284 2.65024 29.7192 2.7219 29.8004 2.80311C29.97 2.96075 30.1109 3.14706 30.2614 3.36203C30.3378 3.46952 30.4143 3.58417 30.5218 3.70837C30.5791 3.77525 30.6531 3.8493 30.7415 3.91379C29.841 5.90824 29.0504 7.93612 28.3123 9.98551C27.5432 12.14 26.8243 14.316 26.1889 16.5134C25.5559 18.7109 24.9612 20.9203 24.4596 23.1536C24.1921 24.2643 23.9723 25.3869 23.7406 26.5072C23.5113 27.6274 23.3298 28.7548 23.122 29.8798C23.3489 28.7596 23.5496 27.6346 23.798 26.5191C24.0488 25.4037 24.2876 24.2882 24.5743 23.1823C25.1117 20.9633 25.7446 18.7659 26.4158 16.5851C27.087 14.402 27.8418 12.2475 28.6467 10.1121C29.4206 8.07944 30.2471 6.05871 31.1738 4.10248C31.267 4.12398 31.353 4.13592 31.4366 4.15025L31.8331 4.20519C32.0863 4.24102 32.3323 4.28401 32.5401 4.36045C32.6476 4.39628 32.7383 4.44405 32.8172 4.4966C32.896 4.55392 32.9414 4.5993 33.0202 4.70201C33.1611 4.88832 33.2829 5.10568 33.4048 5.33737C33.4812 5.48068 33.56 5.63116 33.6532 5.78642C33.7224 5.89868 33.8036 6.01811 33.9207 6.13037C32.8602 7.95045 31.8761 9.80159 30.9302 11.679C29.9461 13.64 29.0194 15.6321 28.1499 17.6456C27.2709 19.6568 26.4899 21.7086 25.759 23.7747C25.0329 25.8455 24.4238 27.9523 23.8935 30.0781C24.462 27.9618 25.1093 25.867 25.8712 23.8129C26.638 21.7635 27.4549 19.7284 28.3697 17.7412C29.2749 15.7491 30.2351 13.7809 31.2503 11.8414C32.22 9.99745 33.2376 8.1702 34.3148 6.39311C34.556 6.51732 34.7949 6.60331 35.0194 6.69168C35.3204 6.80633 35.5831 6.93054 35.8148 7.10968C36.0632 7.30077 36.2089 7.47274 36.2591 7.74265C36.2877 7.87641 36.2925 8.04122 36.3284 8.22753C36.3618 8.41384 36.4406 8.61686 36.5624 8.77451C36.572 8.78884 36.5839 8.80078 36.5959 8.81511C35.3658 10.4059 34.2193 12.0421 33.1134 13.7117C31.9764 15.4362 30.8992 17.2013 29.8816 18.9975C28.8546 20.789 27.9302 22.6401 27.0631 24.5127C26.1985 26.3878 25.4628 28.3201 24.8083 30.2739C25.501 28.332 26.2725 26.4164 27.1706 24.5629C28.0735 22.7118 29.0289 20.8845 30.087 19.117C31.1356 17.3447 32.2439 15.6082 33.4095 13.9099C34.5322 12.2809 35.7049 10.6782 36.9398 9.14235C36.9446 9.14712 36.9494 9.1519 36.9542 9.15429C37.0879 9.26177 37.2288 9.36209 37.3674 9.45525C37.6468 9.63917 37.8761 9.80398 38.0433 10.0548C38.2201 10.2912 38.2989 10.5779 38.3515 10.8932C38.3945 11.1296 38.4136 11.378 38.4852 11.6432C38.4972 11.6909 38.5163 11.7411 38.5354 11.7913C37.1954 13.1289 35.9342 14.5214 34.7137 15.9545C33.4716 17.4187 32.2845 18.9283 31.1571 20.4808C30.0393 22.0406 28.9979 23.6552 28.0424 25.3153C27.1109 26.9921 26.2845 28.7262 25.6228 30.5247C26.3227 28.7405 27.1826 27.0279 28.1451 25.375C29.134 23.7388 30.2041 22.1528 31.3506 20.6218C32.5067 19.0979 33.7177 17.6193 34.986 16.1886C36.2089 14.8128 37.4773 13.468 38.8005 12.1997C38.8387 12.2451 38.8769 12.2905 38.9152 12.3359C39.2472 12.7061 39.5672 13.0668 39.6843 13.5015C39.7416 13.7188 39.7559 13.9553 39.7679 14.2037C39.7798 14.402 39.7894 14.6121 39.8443 14.8223C38.5211 15.9593 37.2671 17.1512 36.0441 18.3837C34.8068 19.6329 33.6173 20.9275 32.4732 22.2603C31.3219 23.5884 30.2542 24.9857 29.2296 26.4116C28.2096 27.8424 27.2948 29.3424 26.454 30.8806C27.3306 29.3615 28.2789 27.8854 29.3275 26.4809C30.3808 25.0812 31.4772 23.715 32.6524 22.418C33.8228 21.1162 35.0361 19.855 36.2949 18.6393C37.5035 17.4784 38.7504 16.3462 40.0354 15.2833C40.1071 15.4147 40.1835 15.5365 40.2575 15.6607C40.3841 15.8709 40.5059 16.0811 40.5919 16.2961C40.6349 16.4036 40.6636 16.5111 40.6827 16.6185C40.697 16.7284 40.6899 16.8192 40.6755 16.9553C40.6493 17.2061 40.6397 17.4593 40.6373 17.7101C40.6373 17.8226 40.6419 17.935 40.6466 18.0497C40.6467 18.0519 40.6468 18.0542 40.6469 18.0565C39.3594 18.9713 38.1317 19.9434 36.9303 20.9538C35.7217 21.9713 34.5513 23.0318 33.4191 24.1306C32.2821 25.2245 31.1977 26.371 30.1563 27.5558L29.3848 28.4515L28.6444 29.3711L28.2741 29.8321L27.923 30.3074L27.2208 31.2556L27.9469 30.3241L28.31 29.8583L28.6921 29.4069L29.4565 28.5064L30.2495 27.6322C31.3172 26.4761 32.4278 25.3607 33.5863 24.3002C34.7424 23.2349 35.9319 22.2078 37.1596 21.2285C38.3109 20.3089 39.4956 19.4203 40.7066 18.5939C40.7376 18.8017 40.7759 19.0095 40.826 19.2125C40.8833 19.4561 40.9478 19.6855 40.9287 19.9004C40.9144 20.1297 40.8499 20.3638 40.7806 20.5979Z" fill="#02676A"/>
<path d="M40.7806 20.5979C40.7233 20.8009 40.6517 20.992 40.6087 21.2237C39.4144 21.9498 38.2655 22.7213 37.1309 23.5215C35.9963 24.3264 34.8857 25.1648 33.8036 26.039C32.7216 26.9132 31.6802 27.8352 30.6699 28.7906C29.669 29.7556 28.7232 30.7755 27.8394 31.8456C28.7518 30.7994 29.724 29.8106 30.7511 28.8766C31.7829 27.9523 32.8482 27.0637 33.9494 26.2253C35.0529 25.3869 36.1803 24.5844 37.3316 23.8153C38.4112 23.0987 39.5099 22.406 40.6278 21.7611C40.6421 21.8758 40.654 21.9904 40.6636 22.1051C40.6851 22.3989 40.6946 22.6998 40.6421 22.9721C40.5975 23.2187 40.4351 23.4745 40.2798 23.7192L40.2719 23.7317C40.1907 23.8583 40.1047 23.9849 40.0235 24.121C39.9829 24.1903 39.9422 24.2619 39.9064 24.3479C39.8897 24.3933 39.873 24.4411 39.8634 24.4984C39.8563 24.5318 39.8515 24.5509 39.8419 24.5772C39.7607 24.7874 39.5362 25.086 39.4454 25.3893C39.4287 25.4276 39.4144 25.449 39.3738 25.4825C39.3332 25.5207 39.2782 25.5613 39.2281 25.6019C39.1182 25.6807 39.0035 25.7572 38.8817 25.8288C38.6429 25.9769 38.3921 26.1155 38.1413 26.254C37.6373 26.5287 37.1261 26.7938 36.615 27.0613C35.5521 27.6274 34.4772 28.1481 33.4191 28.7715C32.3896 29.4403 31.4318 30.176 30.5146 30.9714C29.5974 31.762 28.7327 32.6123 27.923 33.5104C27.72 33.735 27.5193 33.9595 27.3259 34.1912C27.1276 34.4205 26.9365 34.6522 26.7502 34.891C26.3633 35.352 26.0289 35.8632 25.6443 36.3146C24.911 37.1721 23.9437 37.8385 22.876 38.2207C22.1737 38.4715 21.3545 38.6888 20.6283 38.7103H20.6164C20.5256 38.7032 20.4277 38.6936 20.3226 38.6841C20.2199 38.6697 20.1124 38.653 20.0121 38.6387C19.6777 38.5885 19.3505 38.5193 19.0304 38.4189C18.4595 38.2326 17.9317 37.9412 17.4635 37.5782C16.993 37.2175 16.5917 36.7756 16.2262 36.3074C15.8656 35.8393 15.5216 35.3281 15.1418 34.8504C14.9555 34.6092 14.7668 34.3703 14.5686 34.1386C14.3751 33.9022 14.1745 33.6705 13.969 33.4459C12.9229 32.2732 11.7644 31.2007 10.5319 30.2238C9.91327 29.7365 9.27553 29.2755 8.61389 28.8456C8.27233 28.6187 7.91882 28.4371 7.57248 28.2532L6.52868 27.723L4.2691 26.6123C3.8941 26.426 3.52387 26.2373 3.16081 26.0342C2.97928 25.9339 2.80014 25.8288 2.63294 25.719C2.54934 25.664 2.46813 25.6067 2.39408 25.547C2.32004 25.4801 2.27943 25.4514 2.25555 25.3869C2.1815 25.1529 2.03102 24.9068 1.92831 24.7158C1.8901 24.6417 1.86382 24.5748 1.85188 24.5151C1.83516 24.3957 1.78261 24.2882 1.73962 24.2046C1.64646 24.0326 1.54376 23.8822 1.44821 23.7293C1.35267 23.5788 1.2643 23.4283 1.19025 23.2731C1.15203 23.1942 1.12337 23.1226 1.10426 23.0485C1.08515 22.9721 1.07082 22.8885 1.06366 22.8049C1.03022 22.4657 1.05888 22.1098 1.09948 21.7563C2.21016 22.3917 3.30413 23.0748 4.3742 23.7818C5.52071 24.5414 6.64094 25.3368 7.73729 26.168C8.83364 26.9992 9.88939 27.8806 10.9165 28.7978C11.9364 29.7222 12.9014 30.7063 13.8066 31.7453C12.93 30.6824 11.9913 29.6672 10.9977 28.7094C9.99687 27.7612 8.96024 26.844 7.88538 25.9769C6.80814 25.1123 5.70463 24.2787 4.57484 23.4833C3.44983 22.6926 2.3081 21.9307 1.12337 21.2165C1.11859 21.1974 1.1162 21.1783 1.11143 21.1592C1.06604 20.9705 1.00872 20.7985 0.956171 20.6265C0.855851 20.285 0.748366 19.941 0.800914 19.6257C0.85824 19.3009 0.965725 18.945 1.0135 18.5867C2.23166 19.4251 3.414 20.3136 4.56528 21.2308C5.793 22.2102 6.98251 23.2396 8.13857 24.3025C9.29941 25.3631 10.4101 26.4785 11.4754 27.6346L12.2684 28.5088L13.0327 29.4093L13.4149 29.8607L13.778 30.3265L14.5041 31.258L13.8018 30.3098L13.4507 29.8344L13.0805 29.3735L12.34 28.4539L11.5685 27.5581C10.5295 26.3734 9.44273 25.2269 8.30577 24.133C7.17359 23.0342 6.0032 21.9737 4.79459 20.9562C3.59314 19.9458 2.36542 18.976 1.07799 18.0588C1.08993 17.8582 1.09232 17.66 1.08515 17.4593C1.0756 17.2754 1.06366 17.0915 1.04694 16.9076C1.03977 16.8072 1.03022 16.7475 1.04216 16.6639C1.04694 16.5875 1.06604 16.5063 1.08993 16.4275C1.20936 16.0453 1.46732 15.6989 1.69662 15.3144C1.69901 15.3096 1.70379 15.3024 1.70618 15.2977C2.98645 16.3558 4.2285 17.4832 5.43233 18.6393C6.6911 19.855 7.90688 21.1162 9.07489 22.418C10.2501 23.715 11.3464 25.0812 12.3998 26.4809C13.4483 27.8854 14.3966 29.3615 15.2732 30.8806C14.4324 29.3424 13.5176 27.8424 12.4977 26.4116C11.4754 24.9857 10.4053 23.5884 9.25403 22.2603C8.10991 20.9275 6.92041 19.6329 5.68313 18.3837C4.46735 17.1607 3.22291 15.9784 1.90921 14.8462C1.92831 14.7793 1.94503 14.7149 1.95459 14.648C1.99519 14.4139 2.00236 14.1918 2.02386 13.984C2.04297 13.7762 2.07641 13.5803 2.14329 13.4083C2.21016 13.2363 2.31526 13.0668 2.43469 12.9067C2.55651 12.7467 2.69743 12.5938 2.84313 12.429C2.8909 12.3765 2.93868 12.3167 2.98645 12.2594C4.28582 13.511 5.53504 14.8343 6.73887 16.1886C8.00481 17.6193 9.2182 19.0979 10.3743 20.6218C11.5184 22.1528 12.5908 23.7388 13.5797 25.375C14.5423 27.0279 15.4022 28.7405 16.102 30.5247C15.4404 28.7262 14.614 26.9921 13.6824 25.3153C12.7246 23.6529 11.6832 22.0406 10.5677 20.4808C9.44034 18.9283 8.25322 17.4187 7.01117 15.9545C5.80972 14.5453 4.56767 13.1742 3.25397 11.8558C3.25874 11.8462 3.26591 11.8366 3.2683 11.8271C3.36384 11.5691 3.38295 11.3398 3.414 11.1225C3.44266 10.9051 3.47371 10.7021 3.52865 10.5134C3.5812 10.3223 3.66719 10.1694 3.78423 10.007C3.89888 9.85175 4.03741 9.72754 4.207 9.60334C4.37659 9.47913 4.57006 9.34776 4.74682 9.19728C4.76354 9.18295 4.77787 9.16862 4.79459 9.15668C6.0247 10.6901 7.19509 12.2881 8.31532 13.9099C9.48094 15.6058 10.5892 17.3447 11.6378 19.117C12.6959 20.8845 13.6538 22.7118 14.5542 24.5629C15.4547 26.4164 16.2238 28.332 16.9165 30.2739C16.2621 28.3177 15.5264 26.3878 14.6617 24.5127C13.7947 22.6401 12.8703 20.7914 11.8432 18.9975C10.8257 17.199 9.74846 15.4362 8.61151 13.7117C7.50799 12.0444 6.35909 10.4083 5.13137 8.81989C5.17437 8.76495 5.21258 8.70763 5.24602 8.64314C5.38217 8.3995 5.3965 8.12004 5.41084 7.91463C5.42517 7.69966 5.45861 7.53485 5.55415 7.38437C5.6473 7.23628 5.80256 7.09057 5.96259 6.96876C6.12263 6.84455 6.30416 6.74423 6.49763 6.65347C6.6911 6.5627 6.89652 6.4791 7.09955 6.38117C7.17598 6.34534 7.25241 6.30235 7.32885 6.25935C8.43714 8.07944 9.47855 9.95207 10.4746 11.8438C11.4921 13.7809 12.4499 15.7491 13.3552 17.7436C14.27 19.7332 15.0845 21.7659 15.8536 23.8153C16.6156 25.8694 17.2629 27.9642 17.8313 30.0805C17.3011 27.9546 16.692 25.8455 15.9659 23.7771C15.235 21.711 14.4539 19.6592 13.5749 17.648C12.7055 15.6345 11.7787 13.6448 10.7946 11.6814C9.82251 9.75143 8.80976 7.84775 7.71341 5.97512C7.86866 5.78881 7.96421 5.58817 8.05975 5.39708L8.06186 5.39264C8.15667 5.19355 8.24922 4.99919 8.35354 4.81189C8.46103 4.62797 8.57568 4.43927 8.72855 4.31268C8.88619 4.18131 9.08683 4.09532 9.29225 4.03322C9.66486 3.91618 10.0614 3.88751 10.4555 3.80869L10.422 3.82541C11.4037 5.87002 12.2708 7.98867 13.0829 10.1193C13.8878 12.2546 14.6426 14.4091 15.3138 16.5923C15.985 18.7754 16.618 20.9705 17.1554 23.1895C17.442 24.2954 17.6809 25.4132 17.9317 26.5263C18.1801 27.6417 18.3807 28.7668 18.6076 29.887C18.3998 28.7644 18.2183 27.6346 17.989 26.5143C17.7573 25.3941 17.5376 24.2739 17.27 23.1608C16.7708 20.9299 16.1761 18.7205 15.5407 16.5206C14.9054 14.3231 14.1864 12.1495 13.4173 9.99267C12.6386 7.83819 11.8122 5.7076 10.852 3.61283L10.8329 3.62238C10.9021 3.55312 10.9618 3.47668 11.0168 3.40264C11.1434 3.23305 11.2604 3.06107 11.3942 2.90582C11.5781 2.68368 11.7955 2.46871 12.0534 2.31106C12.1155 2.27285 12.18 2.23941 12.2469 2.20836C12.4045 2.15581 12.5765 2.11759 12.7413 2.10804C13.1928 2.07221 13.6394 2.14864 14.1004 2.1773H14.098C14.7429 4.41539 15.3138 6.68691 15.8488 8.9632C16.3791 11.2395 16.8783 13.5254 17.325 15.8208C17.7716 18.1162 18.192 20.4187 18.5527 22.7285C18.9301 25.0382 19.2382 27.3575 19.5296 29.6792C19.2764 27.3527 19.0089 25.0263 18.6697 22.7094C18.3473 20.3901 17.9675 18.0803 17.5591 15.7754C17.153 13.4704 16.692 11.1726 16.1976 8.88199C15.7031 6.60808 15.1753 4.34373 14.5686 2.09132C14.6283 2.06265 14.6856 2.02921 14.7382 1.991C14.9149 1.86679 15.063 1.71631 15.2087 1.56822C15.4953 1.27682 15.7724 0.954361 16.1116 0.794328C16.4436 0.631906 16.8186 0.799105 17.184 0.97347C17.4969 1.12156 17.8433 1.29115 18.235 1.32937L19.329 15.4219L19.8592 22.5493C20.0288 24.926 20.2032 27.3026 20.3298 29.6816C20.2438 27.3002 20.1076 24.9212 19.9787 22.5422L19.5678 15.4075L18.7079 1.30548C18.8513 1.27204 18.9874 1.22427 19.1116 1.16694C19.317 1.0714 19.4962 0.951973 19.6705 0.83971C20.0145 0.615186 20.3417 0.424101 20.6905 0.395438C21.044 0.364387 21.376 0.464706 21.6913 0.6749C22.0137 0.875539 22.329 1.17411 22.79 1.35564C22.8593 1.3843 22.9333 1.4058 23.0074 1.42491L22.0925 15.4028L21.653 22.5398C21.5145 24.9188 21.3688 27.2978 21.2828 29.6792C21.4094 27.3002 21.5957 24.9236 21.7725 22.5469L22.3314 15.4195L23.4779 1.4679C23.5663 1.46312 23.6547 1.45596 23.7383 1.43924C24.0464 1.3843 24.3139 1.26726 24.5599 1.16455C24.8036 1.05946 25.0329 0.966304 25.2168 0.944807C25.3075 0.935253 25.3792 0.949584 25.4509 0.97347C25.5273 1.00452 25.6133 1.05707 25.6993 1.12395C25.8712 1.26249 26.0432 1.44879 26.22 1.64466C26.3991 1.84052 26.5854 2.0531 26.8482 2.24657C26.915 2.29434 26.9939 2.34212 27.0822 2.38033C26.5185 4.53959 26.0241 6.7084 25.5583 8.88677C25.0735 11.1774 24.622 13.4728 24.2207 15.7802C23.8195 18.0851 23.4421 20.3949 23.1244 22.7141C22.79 25.031 22.5225 27.3551 22.2717 29.6792C22.5631 27.3575 22.8712 25.0406 23.2438 22.7309C23.6021 20.4211 24.0153 18.1186 24.4572 15.8231C24.8967 13.5277 25.3888 11.2419 25.9095 8.9632C26.4111 6.792 26.9461 4.62319 27.5456 2.48065C27.6531 2.48304 27.7534 2.47587 27.849 2.46871C28.1404 2.44005 28.3912 2.39227 28.63 2.37794C28.8689 2.35883 29.0815 2.38033 29.2702 2.44482C29.3179 2.45915 29.3609 2.48543 29.4063 2.50215C29.4493 2.53081 29.4899 2.55231 29.5353 2.58336C29.6284 2.65024 29.7192 2.7219 29.8004 2.80311C29.97 2.96075 30.1109 3.14706 30.2614 3.36203C30.3378 3.46952 30.4143 3.58417 30.5218 3.70837C30.5791 3.77525 30.6531 3.8493 30.7415 3.91379C29.841 5.90824 29.0504 7.93612 28.3123 9.98551C27.5432 12.14 26.8243 14.316 26.1889 16.5134C25.5559 18.7109 24.9612 20.9203 24.4596 23.1536C24.1921 24.2643 23.9723 25.3869 23.7406 26.5072C23.5113 27.6274 23.3298 28.7548 23.122 29.8798C23.3489 28.7596 23.5496 27.6346 23.798 26.5191C24.0488 25.4037 24.2876 24.2882 24.5743 23.1823C25.1117 20.9633 25.7446 18.7659 26.4158 16.5851C27.087 14.402 27.8418 12.2475 28.6467 10.1121C29.4206 8.07944 30.2471 6.05871 31.1738 4.10248C31.267 4.12398 31.353 4.13592 31.4366 4.15025L31.8331 4.20519C32.0863 4.24102 32.3323 4.28401 32.5401 4.36045C32.6476 4.39628 32.7383 4.44405 32.8172 4.4966C32.896 4.55392 32.9414 4.5993 33.0202 4.70201C33.1611 4.88832 33.2829 5.10568 33.4048 5.33737C33.4812 5.48068 33.56 5.63116 33.6532 5.78642C33.7224 5.89868 33.8036 6.01811 33.9207 6.13037C32.8602 7.95045 31.8761 9.80159 30.9302 11.679C29.9461 13.64 29.0194 15.6321 28.1499 17.6456C27.2709 19.6568 26.4899 21.7086 25.759 23.7747C25.0329 25.8455 24.4238 27.9523 23.8935 30.0781C24.462 27.9618 25.1093 25.867 25.8712 23.8129C26.638 21.7635 27.4549 19.7284 28.3697 17.7412C29.2749 15.7491 30.2351 13.7809 31.2503 11.8414C32.22 9.99745 33.2376 8.1702 34.3148 6.39311C34.556 6.51732 34.7949 6.60331 35.0194 6.69168C35.3204 6.80633 35.5831 6.93054 35.8148 7.10968C36.0632 7.30077 36.2089 7.47274 36.2591 7.74265C36.2877 7.87641 36.2925 8.04122 36.3284 8.22753C36.3618 8.41384 36.4406 8.61686 36.5624 8.77451C36.572 8.78884 36.5839 8.80078 36.5959 8.81511C35.3658 10.4059 34.2193 12.0421 33.1134 13.7117C31.9764 15.4362 30.8992 17.2013 29.8816 18.9975C28.8546 20.789 27.9302 22.6401 27.0631 24.5127C26.1985 26.3878 25.4628 28.3201 24.8083 30.2739C25.501 28.332 26.2725 26.4164 27.1706 24.5629C28.0735 22.7118 29.0289 20.8845 30.087 19.117C31.1356 17.3447 32.2439 15.6082 33.4095 13.9099C34.5322 12.2809 35.7049 10.6782 36.9398 9.14235C36.9446 9.14712 36.9494 9.1519 36.9542 9.15429C37.0879 9.26177 37.2288 9.36209 37.3674 9.45525C37.6468 9.63917 37.8761 9.80398 38.0433 10.0548C38.2201 10.2912 38.2989 10.5779 38.3515 10.8932C38.3945 11.1296 38.4136 11.378 38.4852 11.6432C38.4972 11.6909 38.5163 11.7411 38.5354 11.7913C37.1954 13.1289 35.9342 14.5214 34.7137 15.9545C33.4716 17.4187 32.2845 18.9283 31.1571 20.4808C30.0393 22.0406 28.9979 23.6552 28.0424 25.3153C27.1109 26.9921 26.2845 28.7262 25.6228 30.5247C26.3227 28.7405 27.1826 27.0279 28.1451 25.375C29.134 23.7388 30.2041 22.1528 31.3506 20.6218C32.5067 19.0979 33.7177 17.6193 34.986 16.1886C36.2089 14.8128 37.4773 13.468 38.8005 12.1997L38.9152 12.3359C39.2472 12.7061 39.5672 13.0668 39.6843 13.5015C39.7416 13.7188 39.7559 13.9553 39.7679 14.2037C39.7798 14.402 39.7894 14.6121 39.8443 14.8223C38.5211 15.9593 37.2671 17.1512 36.0441 18.3837C34.8068 19.6329 33.6173 20.9275 32.4732 22.2603C31.3219 23.5884 30.2542 24.9857 29.2296 26.4116C28.2096 27.8424 27.2948 29.3424 26.454 30.8806C27.3306 29.3615 28.2789 27.8854 29.3275 26.4809C30.3808 25.0812 31.4772 23.715 32.6524 22.418C33.8228 21.1162 35.0361 19.855 36.2949 18.6393C37.5035 17.4784 38.7504 16.3462 40.0354 15.2833C40.1071 15.4147 40.1835 15.5365 40.2575 15.6607C40.3841 15.8709 40.5059 16.0811 40.5919 16.2961C40.6349 16.4036 40.6636 16.5111 40.6827 16.6185C40.697 16.7284 40.6899 16.8192 40.6755 16.9553C40.6493 17.2061 40.6397 17.4593 40.6373 17.7101C40.6373 17.8226 40.6419 17.935 40.6466 18.0497L40.6469 18.0565C39.3594 18.9713 38.1317 19.9434 36.9303 20.9538C35.7217 21.9713 34.5513 23.0318 33.4191 24.1306C32.2821 25.2245 31.1977 26.371 30.1563 27.5558L29.3848 28.4515L28.6444 29.3711L28.2741 29.8321L27.923 30.3074L27.2208 31.2556L27.9469 30.3241L28.31 29.8583L28.6921 29.4069L29.4565 28.5064L30.2495 27.6322C31.3172 26.4761 32.4278 25.3607 33.5863 24.3002C34.7424 23.2349 35.9319 22.2078 37.1596 21.2285C38.3109 20.3089 39.4956 19.4203 40.7066 18.5939C40.7376 18.8017 40.7759 19.0095 40.826 19.2125C40.8833 19.4561 40.9478 19.6855 40.9287 19.9004C40.9144 20.1297 40.8499 20.3638 40.7806 20.5979Z" fill="#02676A"/>
<path d="M14.8934 37.0216C14.2963 36.9786 13.7015 36.9094 13.1307 36.7732C12.5598 36.6347 12.0033 36.446 11.5303 36.1331C11.0502 35.8345 10.6896 35.3878 10.4817 34.8743C10.4173 34.7501 10.3934 34.6092 10.3456 34.4778L10.2166 34.0311C10.1187 33.7374 10.016 33.4483 9.89655 33.1665C9.65531 32.6052 9.39734 32.0534 9.1131 31.5184C8.83364 30.981 9.73174 30.1808 10.0852 30.4459C10.6728 30.8854 11.2007 31.399 11.7525 31.8791C12.8369 32.8321 13.8926 33.8281 14.817 34.9412C15.4213 35.6434 15.9444 36.4293 16.6108 37.0885C16.0328 37.0742 15.4619 37.0718 14.8934 37.0216Z" fill="#02676A"/>
<path d="M33.5146 29.9395C33.2017 30.4579 32.896 30.981 32.6165 31.5208C32.3323 32.0558 32.0719 32.6076 31.8331 33.1689C31.7137 33.4507 31.611 33.7397 31.513 34.0335L31.384 34.4802C31.3363 34.6116 31.3124 34.7525 31.2479 34.8767C31.0377 35.3902 30.6794 35.8369 30.1993 36.1355C29.7264 36.4484 29.1698 36.6371 28.599 36.7756C28.0257 36.9117 27.431 36.981 26.8362 37.024C26.2725 37.0742 25.704 37.0766 25.1356 37.0933C25.3744 36.8926 25.6013 36.6777 25.8139 36.4484C26.1196 36.114 26.3824 35.7676 26.6595 35.4308C26.9413 35.0988 27.2208 34.762 27.5146 34.442C28.298 33.5702 29.0934 32.7031 29.97 31.922C30.8896 31.1123 31.8546 30.3552 32.8649 29.672C33.111 29.4977 33.6747 29.6816 33.5146 29.9395Z" fill="#02676A"/>
<path d="M41.3873 20.2635C41.4255 20.0891 41.4566 19.8933 41.4399 19.6759C41.4208 19.4729 41.3802 19.3057 41.3443 19.148C41.2727 18.8351 41.2201 18.5461 41.1962 18.2428C41.1724 17.9418 41.1747 17.6361 41.1939 17.3303C41.201 17.1727 41.2201 17.0318 41.2345 16.8598C41.256 16.6257 41.213 16.4083 41.1532 16.222C41.0267 15.8494 40.8403 15.5556 40.6755 15.2762C40.5919 15.14 40.5131 15.0063 40.4558 14.8868C40.4009 14.7722 40.3746 14.679 40.3531 14.5405C40.3029 14.2204 40.3387 13.7881 40.205 13.3247C40.0641 12.8542 39.775 12.4983 39.5075 12.1973C39.3738 12.0468 39.2424 11.9083 39.1349 11.7745C39.111 11.7435 39.08 11.7029 39.0656 11.6814C39.0513 11.6623 39.037 11.636 39.025 11.6073C38.9988 11.5452 38.9749 11.4712 38.9582 11.3852C38.8817 11.046 38.8555 10.6137 38.6835 10.1933C38.6405 10.0882 38.5855 9.98312 38.5258 9.88519C38.4661 9.79442 38.4016 9.70366 38.3276 9.61767C38.1819 9.4433 38.0027 9.29999 37.8331 9.18534C37.6636 9.07069 37.5059 8.97037 37.3578 8.8605C37.2145 8.75062 37.0569 8.62403 36.9661 8.51415C36.8706 8.39473 36.8156 8.26813 36.7893 8.09138C36.7607 7.9194 36.7535 7.70443 36.6819 7.47991C36.615 7.25538 36.4669 7.05713 36.3092 6.90904C36.1564 6.76334 35.9844 6.63675 35.8029 6.53404C35.3729 6.28563 34.9358 6.08738 34.5632 5.89152C34.5035 5.86285 34.4342 5.82225 34.3865 5.79358C34.3482 5.7697 34.3076 5.73148 34.267 5.6861C34.1858 5.59533 34.1118 5.47352 34.0377 5.34692C33.892 5.09135 33.7511 4.81189 33.5696 4.54676C33.474 4.413 33.388 4.28879 33.2471 4.15981C33.1086 4.04277 32.9533 3.96156 32.7981 3.89946C32.4852 3.78242 32.1723 3.73703 31.8689 3.69882L31.4199 3.64388C31.2742 3.62238 31.138 3.5985 31.0472 3.53401C30.8442 3.39786 30.6842 3.11123 30.4931 2.87238C30.302 2.62635 30.0751 2.39944 29.8148 2.2203C29.552 2.0316 29.2224 1.93606 28.9095 1.93128C28.6491 1.92173 28.3912 1.95278 28.1428 1.98622C27.8943 2.01727 27.6459 2.05071 27.4214 2.01249C27.216 1.96711 27.0297 1.80708 26.8601 1.63271C26.6881 1.45835 26.5257 1.26726 26.3466 1.08573C26.1698 0.90659 25.9787 0.729837 25.7399 0.603243C25.6181 0.548306 25.4795 0.495758 25.3386 0.498146C25.2001 0.493369 25.0639 0.517255 24.9397 0.555472C24.4429 0.710728 24.0344 0.999744 23.5615 1.06901C22.5607 1.2601 21.9373 0.0419313 20.8529 0.0825369C20.4564 0.0825369 20.0742 0.240182 19.7541 0.452764C19.4293 0.65818 19.1331 0.90659 18.782 1.02363C18.4333 1.14545 18.0511 1.09529 17.7048 0.961527C17.3512 0.834933 17.0192 0.629517 16.6227 0.555472C16.4269 0.517255 16.2071 0.54114 16.028 0.636683C15.8465 0.727448 15.696 0.85643 15.5574 0.99019C15.278 1.25771 15.0439 1.56344 14.7644 1.81185C14.6235 1.93128 14.4683 2.04354 14.2915 2.06504C14.1124 2.08654 13.9189 2.06504 13.7302 2.0531C13.3504 2.02444 12.9611 1.99577 12.5813 2.06743C12.4929 2.08415 12.3974 2.10804 12.309 2.1367C12.2278 2.16058 12.1514 2.18447 12.0773 2.21552C11.8313 2.32062 11.6115 2.48304 11.4228 2.67412C11.2318 2.86282 11.0741 3.08018 10.9189 3.2856C10.8233 3.40741 10.7206 3.54117 10.6203 3.59133C10.5128 3.64149 10.3432 3.6606 10.1903 3.67971C9.87505 3.71793 9.54782 3.74659 9.22298 3.83019C9.06056 3.87079 8.89574 3.93051 8.7381 4.01411C8.65928 4.05471 8.58523 4.10965 8.51119 4.16698C8.44192 4.23147 8.37504 4.30073 8.32727 4.36761C8.11707 4.63513 7.96182 4.9337 7.81373 5.21555C7.71341 5.40425 7.61786 5.59295 7.50083 5.73626C7.47216 5.77209 7.44111 5.80314 7.41006 5.82941C7.38379 5.8533 7.34318 5.87957 7.29541 5.90824C7.20942 5.96317 7.11866 6.01094 7.0255 6.05872C6.65528 6.24263 6.22772 6.38356 5.84555 6.63675C5.64491 6.77051 5.46577 6.91382 5.30574 7.11207C5.14571 7.31032 5.06211 7.57545 5.03822 7.80953C5.01195 8.046 4.99523 8.24664 4.91163 8.41384C4.82803 8.57626 4.67755 8.70763 4.50318 8.84855C4.33359 8.9847 4.15445 9.10174 3.96337 9.23072C3.77228 9.35971 3.57164 9.52213 3.41878 9.72038C3.2683 9.90907 3.13454 10.1455 3.06527 10.382C2.98884 10.6185 2.95062 10.8549 2.91718 11.0771C2.87896 11.3159 2.84313 11.5524 2.76192 11.7029C2.7452 11.7339 2.71654 11.7769 2.68071 11.8199C2.64727 11.8629 2.61144 11.9083 2.57323 11.9513L2.33437 12.2188C2.16956 12.4027 1.99758 12.601 1.85666 12.8351C1.71573 13.0596 1.60108 13.3414 1.56048 13.6137C1.4721 14.1583 1.53898 14.6289 1.34312 14.9561C1.14248 15.3454 0.810469 15.7443 0.628938 16.2937C0.583555 16.4275 0.557281 16.5779 0.552504 16.7356L0.554893 16.8574L0.562058 16.9505L0.574001 17.1201C0.588333 17.3471 0.59311 17.574 0.583555 17.7985C0.569224 18.2499 0.497567 18.6751 0.378139 19.1218C0.349477 19.2364 0.316037 19.3534 0.289763 19.4896C0.263488 19.6186 0.24438 19.7882 0.256323 19.9386C0.27782 20.2348 0.344699 20.4808 0.411579 20.7197C0.478459 20.949 0.55967 21.1926 0.588333 21.3527C0.590721 21.3933 0.595498 21.367 0.588333 21.4148L0.564447 21.5915C0.550116 21.7133 0.535784 21.8352 0.52623 21.9594C0.499956 22.2866 0.488013 22.6186 0.540561 22.9817C0.554893 23.0724 0.574001 23.168 0.607441 23.2659C0.643269 23.3734 0.679098 23.4522 0.719703 23.531C0.798526 23.6887 0.886903 23.832 0.975279 23.9658L1.22847 24.3503C1.26668 24.41 1.30251 24.4697 1.32401 24.5175C1.35267 24.5844 1.33834 24.5295 1.37656 24.6943C1.44583 24.9188 1.54615 25.0502 1.6178 25.1791C1.69424 25.3129 1.74678 25.4084 1.80172 25.5613C1.81844 25.6115 1.84949 25.6521 1.87099 25.6998C1.90443 25.7405 1.93548 25.7811 1.96892 25.8193C2.03819 25.8838 2.09074 25.9291 2.15045 25.9721C2.26749 26.0605 2.38214 26.1322 2.49679 26.2038C2.72848 26.3448 2.96017 26.4714 3.19425 26.5956C3.66002 26.8416 4.13057 27.0733 4.60111 27.305C4.90685 27.4554 5.17198 27.6847 5.47771 27.8304C6.10352 28.1338 6.73171 28.43 7.35273 28.7381C7.58442 29.168 7.79223 29.6123 8.0072 30.0494C8.26994 30.5916 8.52791 31.1338 8.77632 31.6808C9.01995 32.2302 9.26597 32.7771 9.47616 33.3337L9.63142 33.7517L9.76996 34.1697L9.887 34.5948C9.93716 34.7477 9.96582 34.9077 10.0375 35.0558C10.2859 35.6554 10.7302 36.188 11.2843 36.5152C11.8361 36.8473 12.4451 37.036 13.0542 37.1387C13.6633 37.2485 14.2772 37.2676 14.8863 37.2557C15.4691 37.2438 16.0471 37.184 16.6203 37.1028C16.7493 37.2294 16.8831 37.356 17.0264 37.4707C17.4611 37.8313 17.9508 38.1299 18.4739 38.3377C18.997 38.5479 19.5559 38.6697 20.1148 38.7127C20.2462 38.7271 20.3967 38.739 20.5041 38.7318C20.6307 38.7294 20.7979 38.7318 20.8481 38.7318C20.817 38.7294 20.7358 38.7247 20.6546 38.7151C21.0511 38.7103 21.3354 38.6912 21.6172 38.6554C22.329 38.5599 23.0289 38.3521 23.6809 38.0368C24.1945 37.7836 24.677 37.4683 25.1165 37.1004C25.6873 37.1817 26.2606 37.2414 26.841 37.2509C27.4501 37.2629 28.0639 37.2438 28.673 37.1339C29.2821 37.0312 29.8912 36.8425 30.4429 36.5105C30.9971 36.1856 31.4414 35.6506 31.6898 35.0511C31.7614 34.903 31.7901 34.7429 31.8403 34.5901L31.9573 34.1649L32.0958 33.7469L32.2511 33.3289C32.4613 32.7724 32.7073 32.2254 32.9509 31.676C33.1993 31.129 33.4549 30.5845 33.72 30.0446C33.9302 29.6195 34.1309 29.1895 34.353 28.7715C34.3769 28.7596 34.4008 28.7453 34.4247 28.7333L36.0704 27.9069C36.7177 27.582 37.3674 27.2572 38.0099 26.9156C38.3324 26.7436 38.6524 26.5693 38.9701 26.3782C39.1301 26.285 39.2878 26.1823 39.4454 26.0725C39.5242 26.0175 39.6031 25.9578 39.6843 25.8862C39.7607 25.8241 39.8754 25.6903 39.9231 25.5565C39.9709 25.4084 40.0211 25.3081 40.0903 25.1791C40.1572 25.0525 40.248 24.9236 40.3173 24.7205C40.334 24.6728 40.3459 24.6035 40.3531 24.5629C40.3531 24.5581 40.3602 24.5414 40.3674 24.5199C40.3865 24.4745 40.4176 24.4148 40.451 24.3575C40.5227 24.238 40.6039 24.1115 40.6875 23.9801C40.7711 23.8487 40.8547 23.7102 40.9311 23.5621C40.9693 23.4857 41.0052 23.4116 41.0386 23.3256C41.0744 23.2301 41.0983 23.1369 41.115 23.0485C41.1771 22.695 41.1628 22.3726 41.1437 22.0549C41.1317 21.8853 41.1126 21.7181 41.0935 21.5557C41.084 21.4793 41.0696 21.3718 41.0744 21.3718C41.0768 21.3479 41.0935 21.2715 41.1103 21.207C41.1891 20.9275 41.3109 20.6122 41.3873 20.2635ZM14.8934 37.0216C14.2963 36.9786 13.7015 36.9094 13.1307 36.7732C12.5598 36.6347 12.0033 36.446 11.5303 36.1331C11.0502 35.8345 10.6896 35.3878 10.4817 34.8743C10.4173 34.7501 10.3934 34.6092 10.3456 34.4778L10.2166 34.0311C10.1187 33.7374 10.016 33.4483 9.89655 33.1665C9.65531 32.6052 9.39734 32.0534 9.1131 31.5184C8.83364 30.981 9.73174 30.1808 10.0852 30.4459C10.6728 30.8854 11.2007 31.399 11.7525 31.8791C12.8369 32.8321 13.8926 33.8281 14.817 34.9412C15.4213 35.6434 15.9444 36.4293 16.6108 37.0885C16.0328 37.0742 15.4619 37.0718 14.8934 37.0216ZM33.5146 29.9395C33.2017 30.4579 32.896 30.981 32.6165 31.5208C32.3323 32.0558 32.0719 32.6076 31.8331 33.1689C31.7137 33.4507 31.611 33.7397 31.513 34.0335L31.384 34.4802C31.3363 34.6116 31.3124 34.7525 31.2479 34.8767C31.0377 35.3902 30.6794 35.8369 30.1993 36.1355C29.7264 36.4484 29.1698 36.6371 28.599 36.7756C28.0257 36.9117 27.431 36.981 26.8362 37.024C26.2725 37.0742 25.704 37.0766 25.1356 37.0933C25.3744 36.8926 25.6013 36.6777 25.8139 36.4484C26.1196 36.114 26.3824 35.7676 26.6595 35.4308C26.9413 35.0988 27.2208 34.762 27.5146 34.442C28.298 33.5702 29.0934 32.7031 29.97 31.922C30.8896 31.1123 31.8546 30.3552 32.8649 29.672C33.111 29.4977 33.6747 29.6816 33.5146 29.9395ZM40.7806 20.5979C40.7233 20.8009 40.6517 20.992 40.6087 21.2237C39.4144 21.9498 38.2655 22.7213 37.1309 23.5215C35.9963 24.3264 34.8857 25.1648 33.8036 26.039C32.7216 26.9132 31.6802 27.8352 30.6699 28.7906C29.669 29.7556 28.7232 30.7755 27.8394 31.8456C28.7518 30.7994 29.724 29.8106 30.7511 28.8766C31.7829 27.9523 32.8482 27.0637 33.9494 26.2253C35.0529 25.3869 36.1803 24.5844 37.3316 23.8153C38.4112 23.0987 39.5099 22.406 40.6278 21.7611C40.6421 21.8758 40.654 21.9904 40.6636 22.1051C40.6851 22.3989 40.6946 22.6998 40.6421 22.9721C40.5967 23.2229 40.4295 23.4833 40.2719 23.7317C40.1907 23.8583 40.1047 23.9849 40.0235 24.121C39.9829 24.1903 39.9422 24.2619 39.9064 24.3479C39.8897 24.3933 39.873 24.4411 39.8634 24.4984C39.8563 24.5318 39.8515 24.5509 39.8419 24.5772C39.7607 24.7874 39.5362 25.086 39.4454 25.3893C39.4287 25.4276 39.4144 25.449 39.3738 25.4825C39.3332 25.5207 39.2782 25.5613 39.2281 25.6019C39.1182 25.6807 39.0035 25.7572 38.8817 25.8288C38.6429 25.9769 38.3921 26.1155 38.1413 26.254C37.6373 26.5287 37.1261 26.7938 36.615 27.0613C35.5521 27.6274 34.4772 28.1481 33.4191 28.7715C32.3896 29.4403 31.4318 30.176 30.5146 30.9714C29.5974 31.762 28.7327 32.6123 27.923 33.5104C27.72 33.735 27.5193 33.9595 27.3259 34.1912C27.1276 34.4205 26.9365 34.6522 26.7502 34.891C26.3633 35.352 26.0289 35.8632 25.6443 36.3146C24.911 37.1721 23.9437 37.8385 22.876 38.2207C22.1737 38.4715 21.3545 38.6888 20.6283 38.7103C20.6236 38.7103 20.6212 38.7103 20.6164 38.7103C20.5256 38.7032 20.4277 38.6936 20.3226 38.6841C20.2199 38.6697 20.1124 38.653 20.0121 38.6387C19.6777 38.5885 19.3505 38.5193 19.0304 38.4189C18.4595 38.2326 17.9317 37.9412 17.4635 37.5782C16.993 37.2175 16.5917 36.7756 16.2262 36.3074C15.8656 35.8393 15.5216 35.3281 15.1418 34.8504C14.9555 34.6092 14.7668 34.3703 14.5686 34.1386C14.3751 33.9022 14.1745 33.6705 13.969 33.4459C12.9229 32.2732 11.7644 31.2007 10.5319 30.2238C9.91327 29.7365 9.27553 29.2755 8.61389 28.8456C8.27233 28.6187 7.91882 28.4371 7.57248 28.2532L6.52868 27.723L4.2691 26.6123C3.8941 26.426 3.52387 26.2373 3.16081 26.0342C2.97928 25.9339 2.80014 25.8288 2.63294 25.719C2.54934 25.664 2.46813 25.6067 2.39408 25.547C2.32004 25.4801 2.27943 25.4514 2.25555 25.3869C2.1815 25.1529 2.03102 24.9068 1.92831 24.7158C1.8901 24.6417 1.86382 24.5748 1.85188 24.5151C1.83516 24.3957 1.78261 24.2882 1.73962 24.2046C1.64646 24.0326 1.54376 23.8822 1.44821 23.7293C1.35267 23.5788 1.2643 23.4283 1.19025 23.2731C1.15203 23.1942 1.12337 23.1226 1.10426 23.0485C1.08515 22.9721 1.07082 22.8885 1.06366 22.8049C1.03022 22.4657 1.05888 22.1098 1.09948 21.7563C2.21016 22.3917 3.30413 23.0748 4.3742 23.7818C5.52071 24.5414 6.64094 25.3368 7.73729 26.168C8.83364 26.9992 9.88939 27.8806 10.9165 28.7978C11.9364 29.7222 12.9014 30.7063 13.8066 31.7453C12.93 30.6824 11.9913 29.6672 10.9977 28.7094C9.99687 27.7612 8.96024 26.844 7.88538 25.9769C6.80814 25.1123 5.70463 24.2787 4.57484 23.4833C3.44983 22.6926 2.3081 21.9307 1.12337 21.2165C1.11859 21.1974 1.1162 21.1783 1.11143 21.1592C1.06604 20.9705 1.00872 20.7985 0.956171 20.6265C0.855851 20.285 0.748366 19.941 0.800914 19.6257C0.85824 19.3009 0.965725 18.945 1.0135 18.5867C2.23166 19.4251 3.414 20.3136 4.56528 21.2308C5.793 22.2102 6.98251 23.2396 8.13857 24.3025C9.29941 25.3631 10.4101 26.4785 11.4754 27.6346L12.2684 28.5088L13.0327 29.4093L13.4149 29.8607L13.778 30.3265L14.5041 31.258L13.8018 30.3098L13.4507 29.8344L13.0805 29.3735L12.34 28.4539L11.5685 27.5581C10.5295 26.3734 9.44273 25.2269 8.30577 24.133C7.17359 23.0342 6.0032 21.9737 4.79459 20.9562C3.59314 19.9458 2.36542 18.976 1.07799 18.0588C1.08993 17.8582 1.09232 17.66 1.08515 17.4593C1.0756 17.2754 1.06366 17.0915 1.04694 16.9076C1.03977 16.8072 1.03022 16.7475 1.04216 16.6639C1.04694 16.5875 1.06604 16.5063 1.08993 16.4275C1.20936 16.0453 1.46732 15.6989 1.69662 15.3144C1.69901 15.3096 1.70379 15.3024 1.70618 15.2977C2.98645 16.3558 4.2285 17.4832 5.43233 18.6393C6.6911 19.855 7.90688 21.1162 9.07489 22.418C10.2501 23.715 11.3464 25.0812 12.3998 26.4809C13.4483 27.8854 14.3966 29.3615 15.2732 30.8806C14.4324 29.3424 13.5176 27.8424 12.4977 26.4116C11.4754 24.9857 10.4053 23.5884 9.25403 22.2603C8.10991 20.9275 6.92041 19.6329 5.68313 18.3837C4.46735 17.1607 3.22291 15.9784 1.90921 14.8462C1.92831 14.7793 1.94503 14.7149 1.95459 14.648C1.99519 14.4139 2.00236 14.1918 2.02386 13.984C2.04297 13.7762 2.07641 13.5803 2.14329 13.4083C2.21016 13.2363 2.31526 13.0668 2.43469 12.9067C2.55651 12.7467 2.69743 12.5938 2.84313 12.429C2.8909 12.3765 2.93868 12.3167 2.98645 12.2594C4.28582 13.511 5.53504 14.8343 6.73887 16.1886C8.00481 17.6193 9.2182 19.0979 10.3743 20.6218C11.5184 22.1528 12.5908 23.7388 13.5797 25.375C14.5423 27.0279 15.4022 28.7405 16.102 30.5247C15.4404 28.7262 14.614 26.9921 13.6824 25.3153C12.7246 23.6529 11.6832 22.0406 10.5677 20.4808C9.44034 18.9283 8.25322 17.4187 7.01117 15.9545C5.80972 14.5453 4.56767 13.1742 3.25397 11.8558C3.25874 11.8462 3.26591 11.8366 3.2683 11.8271C3.36384 11.5691 3.38295 11.3398 3.414 11.1225C3.44266 10.9051 3.47371 10.7021 3.52865 10.5134C3.5812 10.3223 3.66719 10.1694 3.78423 10.007C3.89888 9.85175 4.03741 9.72754 4.207 9.60334C4.37659 9.47913 4.57006 9.34776 4.74682 9.19728C4.76354 9.18295 4.77787 9.16862 4.79459 9.15668C6.0247 10.6901 7.19509 12.2881 8.31532 13.9099C9.48094 15.6058 10.5892 17.3447 11.6378 19.117C12.6959 20.8845 13.6538 22.7118 14.5542 24.5629C15.4547 26.4164 16.2238 28.332 16.9165 30.2739C16.2621 28.3177 15.5264 26.3878 14.6617 24.5127C13.7947 22.6401 12.8703 20.7914 11.8432 18.9975C10.8257 17.199 9.74846 15.4362 8.61151 13.7117C7.50799 12.0444 6.35909 10.4083 5.13137 8.81989C5.17437 8.76495 5.21258 8.70763 5.24602 8.64314C5.38217 8.3995 5.3965 8.12004 5.41084 7.91463C5.42517 7.69966 5.45861 7.53485 5.55415 7.38437C5.6473 7.23628 5.80256 7.09057 5.96259 6.96876C6.12263 6.84455 6.30416 6.74423 6.49763 6.65347C6.6911 6.5627 6.89652 6.4791 7.09955 6.38117C7.17598 6.34534 7.25241 6.30235 7.32885 6.25935C8.43714 8.07944 9.47855 9.95207 10.4746 11.8438C11.4921 13.7809 12.4499 15.7491 13.3552 17.7436C14.27 19.7332 15.0845 21.7659 15.8536 23.8153C16.6156 25.8694 17.2629 27.9642 17.8313 30.0805C17.3011 27.9546 16.692 25.8455 15.9659 23.7771C15.235 21.711 14.4539 19.6592 13.5749 17.648C12.7055 15.6345 11.7787 13.6448 10.7946 11.6814C9.82251 9.75143 8.80976 7.84775 7.71341 5.97512C7.86866 5.78881 7.96421 5.58817 8.05975 5.39708C8.15529 5.19644 8.24844 5.00058 8.35354 4.81189C8.46103 4.62797 8.57568 4.43927 8.72855 4.31268C8.88619 4.18131 9.08683 4.09532 9.29225 4.03322C9.66486 3.91618 10.0614 3.88751 10.4555 3.80869L10.422 3.82541C11.4037 5.87002 12.2708 7.98867 13.0829 10.1193C13.8878 12.2546 14.6426 14.4091 15.3138 16.5923C15.985 18.7754 16.618 20.9705 17.1554 23.1895C17.442 24.2954 17.6809 25.4132 17.9317 26.5263C18.1801 27.6417 18.3807 28.7668 18.6076 29.887C18.3998 28.7644 18.2183 27.6346 17.989 26.5143C17.7573 25.3941 17.5376 24.2739 17.27 23.1608C16.7708 20.9299 16.1761 18.7205 15.5407 16.5206C14.9054 14.3231 14.1864 12.1495 13.4173 9.99267C12.6386 7.83819 11.8122 5.7076 10.852 3.61283L10.8329 3.62238C10.9021 3.55312 10.9618 3.47668 11.0168 3.40264C11.1434 3.23305 11.2604 3.06107 11.3942 2.90582C11.5781 2.68368 11.7955 2.46871 12.0534 2.31106C12.1155 2.27285 12.18 2.23941 12.2469 2.20836C12.4045 2.15581 12.5765 2.11759 12.7413 2.10804C13.1928 2.07221 13.6394 2.14864 14.1004 2.1773H14.098C14.7429 4.41539 15.3138 6.68691 15.8488 8.9632C16.3791 11.2395 16.8783 13.5254 17.325 15.8208C17.7716 18.1162 18.192 20.4187 18.5527 22.7285C18.9301 25.0382 19.2382 27.3575 19.5296 29.6792C19.2764 27.3527 19.0089 25.0263 18.6697 22.7094C18.3473 20.3901 17.9675 18.0803 17.5591 15.7754C17.153 13.4704 16.692 11.1726 16.1976 8.88199C15.7031 6.60808 15.1753 4.34373 14.5686 2.09132C14.6283 2.06265 14.6856 2.02921 14.7382 1.991C14.9149 1.86679 15.063 1.71631 15.2087 1.56822C15.4953 1.27682 15.7724 0.954361 16.1116 0.794328C16.4436 0.631906 16.8186 0.799105 17.184 0.97347C17.4969 1.12156 17.8433 1.29115 18.235 1.32937L19.329 15.4219L19.8592 22.5493C20.0288 24.926 20.2032 27.3026 20.3298 29.6816C20.2438 27.3002 20.1076 24.9212 19.9787 22.5422L19.5678 15.4075L18.7079 1.30548C18.8513 1.27204 18.9874 1.22427 19.1116 1.16694C19.317 1.0714 19.4962 0.951973 19.6705 0.83971C20.0145 0.615186 20.3417 0.424101 20.6905 0.395438C21.044 0.364387 21.376 0.464706 21.6913 0.6749C22.0137 0.875539 22.329 1.17411 22.79 1.35564C22.8593 1.3843 22.9333 1.4058 23.0074 1.42491L22.0925 15.4028L21.653 22.5398C21.5145 24.9188 21.3688 27.2978 21.2828 29.6792C21.4094 27.3002 21.5957 24.9236 21.7725 22.5469L22.3314 15.4195L23.4779 1.4679C23.5663 1.46312 23.6547 1.45596 23.7383 1.43924C24.0464 1.3843 24.3139 1.26726 24.5599 1.16455C24.8036 1.05946 25.0329 0.966304 25.2168 0.944807C25.3075 0.935253 25.3792 0.949584 25.4509 0.97347C25.5273 1.00452 25.6133 1.05707 25.6993 1.12395C25.8712 1.26249 26.0432 1.44879 26.22 1.64466C26.3991 1.84052 26.5854 2.0531 26.8482 2.24657C26.915 2.29434 26.9939 2.34212 27.0822 2.38033C26.5185 4.53959 26.0241 6.7084 25.5583 8.88677C25.0735 11.1774 24.622 13.4728 24.2207 15.7802C23.8195 18.0851 23.4421 20.3949 23.1244 22.7141C22.79 25.031 22.5225 27.3551 22.2717 29.6792C22.5631 27.3575 22.8712 25.0406 23.2438 22.7309C23.6021 20.4211 24.0153 18.1186 24.4572 15.8231C24.8967 13.5277 25.3888 11.2419 25.9095 8.9632C26.4111 6.792 26.9461 4.62319 27.5456 2.48065C27.6531 2.48304 27.7534 2.47587 27.849 2.46871C28.1404 2.44005 28.3912 2.39227 28.63 2.37794C28.8689 2.35883 29.0815 2.38033 29.2702 2.44482C29.3179 2.45915 29.3609 2.48543 29.4063 2.50215C29.4493 2.53081 29.4899 2.55231 29.5353 2.58336C29.6284 2.65024 29.7192 2.7219 29.8004 2.80311C29.97 2.96075 30.1109 3.14706 30.2614 3.36203C30.3378 3.46952 30.4143 3.58417 30.5218 3.70837C30.5791 3.77525 30.6531 3.8493 30.7415 3.91379C29.841 5.90824 29.0504 7.93612 28.3123 9.98551C27.5432 12.14 26.8243 14.316 26.1889 16.5134C25.5559 18.7109 24.9612 20.9203 24.4596 23.1536C24.1921 24.2643 23.9723 25.3869 23.7406 26.5072C23.5113 27.6274 23.3298 28.7548 23.122 29.8798C23.3489 28.7596 23.5496 27.6346 23.798 26.5191C24.0488 25.4037 24.2876 24.2882 24.5743 23.1823C25.1117 20.9633 25.7446 18.7659 26.4158 16.5851C27.087 14.402 27.8418 12.2475 28.6467 10.1121C29.4206 8.07944 30.2471 6.05871 31.1738 4.10248C31.267 4.12398 31.353 4.13592 31.4366 4.15025L31.8331 4.20519C32.0863 4.24102 32.3323 4.28401 32.5401 4.36045C32.6476 4.39628 32.7383 4.44405 32.8172 4.4966C32.896 4.55392 32.9414 4.5993 33.0202 4.70201C33.1611 4.88832 33.2829 5.10568 33.4048 5.33737C33.4812 5.48068 33.56 5.63116 33.6532 5.78642C33.7224 5.89868 33.8036 6.01811 33.9207 6.13037C32.8602 7.95045 31.8761 9.80159 30.9302 11.679C29.9461 13.64 29.0194 15.6321 28.1499 17.6456C27.2709 19.6568 26.4899 21.7086 25.759 23.7747C25.0329 25.8455 24.4238 27.9523 23.8935 30.0781C24.462 27.9618 25.1093 25.867 25.8712 23.8129C26.638 21.7635 27.4549 19.7284 28.3697 17.7412C29.2749 15.7491 30.2351 13.7809 31.2503 11.8414C32.22 9.99745 33.2376 8.1702 34.3148 6.39311C34.556 6.51732 34.7949 6.60331 35.0194 6.69168C35.3204 6.80633 35.5831 6.93054 35.8148 7.10968C36.0632 7.30077 36.2089 7.47274 36.2591 7.74265C36.2877 7.87641 36.2925 8.04122 36.3284 8.22753C36.3618 8.41384 36.4406 8.61686 36.5624 8.77451C36.572 8.78884 36.5839 8.80078 36.5959 8.81511C35.3658 10.4059 34.2193 12.0421 33.1134 13.7117C31.9764 15.4362 30.8992 17.2013 29.8816 18.9975C28.8546 20.789 27.9302 22.6401 27.0631 24.5127C26.1985 26.3878 25.4628 28.3201 24.8083 30.2739C25.501 28.332 26.2725 26.4164 27.1706 24.5629C28.0735 22.7118 29.0289 20.8845 30.087 19.117C31.1356 17.3447 32.2439 15.6082 33.4095 13.9099C34.5322 12.2809 35.7049 10.6782 36.9398 9.14235C36.9446 9.14712 36.9494 9.1519 36.9542 9.15429C37.0879 9.26177 37.2288 9.36209 37.3674 9.45525C37.6468 9.63917 37.8761 9.80398 38.0433 10.0548C38.2201 10.2912 38.2989 10.5779 38.3515 10.8932C38.3945 11.1296 38.4136 11.378 38.4852 11.6432C38.4972 11.6909 38.5163 11.7411 38.5354 11.7913C37.1954 13.1289 35.9342 14.5214 34.7137 15.9545C33.4716 17.4187 32.2845 18.9283 31.1571 20.4808C30.0393 22.0406 28.9979 23.6552 28.0424 25.3153C27.1109 26.9921 26.2845 28.7262 25.6228 30.5247C26.3227 28.7405 27.1826 27.0279 28.1451 25.375C29.134 23.7388 30.2041 22.1528 31.3506 20.6218C32.5067 19.0979 33.7177 17.6193 34.986 16.1886C36.2089 14.8128 37.4773 13.468 38.8005 12.1997C38.8387 12.2451 38.8769 12.2905 38.9152 12.3359C39.2472 12.7061 39.5672 13.0668 39.6843 13.5015C39.7416 13.7188 39.7559 13.9553 39.7679 14.2037C39.7798 14.402 39.7894 14.6121 39.8443 14.8223C38.5211 15.9593 37.2671 17.1512 36.0441 18.3837C34.8068 19.6329 33.6173 20.9275 32.4732 22.2603C31.3219 23.5884 30.2542 24.9857 29.2296 26.4116C28.2096 27.8424 27.2948 29.3424 26.454 30.8806C27.3306 29.3615 28.2789 27.8854 29.3275 26.4809C30.3808 25.0812 31.4772 23.715 32.6524 22.418C33.8228 21.1162 35.0361 19.855 36.2949 18.6393C37.5035 17.4784 38.7504 16.3462 40.0354 15.2833C40.1071 15.4147 40.1835 15.5365 40.2575 15.6607C40.3841 15.8709 40.5059 16.0811 40.5919 16.2961C40.6349 16.4036 40.6636 16.5111 40.6827 16.6185C40.697 16.7284 40.6899 16.8192 40.6755 16.9553C40.6493 17.2061 40.6397 17.4593 40.6373 17.7101C40.6373 17.8248 40.6421 17.9394 40.6469 18.0565C39.3594 18.9713 38.1317 19.9434 36.9303 20.9538C35.7217 21.9713 34.5513 23.0318 33.4191 24.1306C32.2821 25.2245 31.1977 26.371 30.1563 27.5558L29.3848 28.4515L28.6444 29.3711L28.2741 29.8321L27.923 30.3074L27.2208 31.2556L27.9469 30.3241L28.31 29.8583L28.6921 29.4069L29.4565 28.5064L30.2495 27.6322C31.3172 26.4761 32.4278 25.3607 33.5863 24.3002C34.7424 23.2349 35.9319 22.2078 37.1596 21.2285C38.3109 20.3089 39.4956 19.4203 40.7066 18.5939C40.7376 18.8017 40.7759 19.0095 40.826 19.2125C40.8833 19.4561 40.9478 19.6855 40.9287 19.9004C40.9144 20.1297 40.8499 20.3638 40.7806 20.5979Z" fill="#ECC4AD"/>
</g>
<defs>
<clipPath id="clip0_258_1447">
<rect width="41.1931" height="38.6588" fill="white" transform="translate(0.248779 0.0778809)"/>
</clipPath>
</defs>
</svg>
