<svg width="42" height="40" viewBox="0 0 42 40" fill="none" xmlns="http://www.w3.org/2000/svg">
<g clip-path="url(#clip0_258_1461)">
<path d="M41.5419 20.8309C41.5801 20.6565 41.6111 20.4606 41.5944 20.2433C41.5753 20.0403 41.5347 19.8731 41.4989 19.7154C41.4272 19.4025 41.3747 19.1135 41.3508 18.8101C41.3269 18.5092 41.3293 18.2035 41.3484 17.8977C41.3556 17.7401 41.3747 17.5991 41.389 17.4272C41.4105 17.1931 41.3675 16.9757 41.3078 16.7894C41.1812 16.4168 40.9949 16.123 40.8301 15.8436C40.7465 15.7074 40.6677 15.5736 40.6103 15.4542C40.5554 15.3396 40.5291 15.2464 40.5076 15.1079C40.4575 14.7878 40.4933 14.3555 40.3595 13.8921C40.2186 13.4216 39.9296 13.0657 39.6621 12.7647C39.5283 12.6142 39.3969 12.4757 39.2895 12.3419C39.2656 12.3109 39.2345 12.2703 39.2202 12.2488C39.2059 12.2297 39.1915 12.2034 39.1796 12.1747C39.1533 12.1126 39.1294 12.0386 39.1127 11.9526C39.0363 11.6134 39.01 11.1811 38.838 10.7607C38.795 10.6556 38.7401 10.5505 38.6804 10.4526C38.6207 10.3618 38.5562 10.271 38.4821 10.1851C38.3364 10.0107 38.1573 9.86737 37.9877 9.75272C37.8181 9.63807 37.6605 9.53775 37.5124 9.42788C37.3691 9.31801 37.2114 9.19141 37.1206 9.08154C37.0251 8.96211 36.9702 8.83552 36.9439 8.65876C36.9152 8.48679 36.9081 8.27182 36.8364 8.04729C36.7695 7.82277 36.6214 7.62452 36.4638 7.47643C36.3109 7.33072 36.1389 7.20413 35.9574 7.10142C35.5275 6.85301 35.0904 6.65476 34.7177 6.4589C34.658 6.43024 34.5888 6.38963 34.541 6.36097C34.5028 6.33708 34.4622 6.29886 34.4216 6.25348C34.3404 6.16272 34.2663 6.0409 34.1923 5.91431C34.0466 5.65873 33.9056 5.37927 33.7241 5.11414C33.6286 4.98038 33.5426 4.85617 33.4017 4.72719C33.2631 4.61015 33.1079 4.52894 32.9526 4.46684C32.6397 4.3498 32.3268 4.30442 32.0235 4.2662L31.5744 4.21126C31.4287 4.18977 31.2926 4.16588 31.2018 4.10139C30.9988 3.96524 30.8387 3.67861 30.6476 3.43976C30.4566 3.19374 30.2296 2.96682 29.9693 2.78768C29.7066 2.59899 29.3769 2.50344 29.064 2.49867C28.8037 2.48911 28.5457 2.52016 28.2973 2.5536C28.0489 2.58465 27.8005 2.61809 27.576 2.57988C27.3705 2.53449 27.1842 2.37446 27.0146 2.2001C26.8427 2.02573 26.6802 1.83465 26.5011 1.65311C26.3244 1.47397 26.1333 1.29722 25.8944 1.17063C25.7726 1.11569 25.6341 1.06314 25.4931 1.06553C25.3546 1.06075 25.2184 1.08464 25.0942 1.12285C24.5974 1.27811 24.189 1.56713 23.716 1.6364C22.7152 1.82748 22.0918 0.609314 21.0074 0.64992C20.6109 0.64992 20.2287 0.807565 19.9087 1.02015C19.5838 1.22556 19.2877 1.47397 18.9365 1.59101C18.5878 1.71283 18.2056 1.66267 17.8593 1.52891C17.5058 1.40232 17.1738 1.1969 16.7773 1.12285C16.5814 1.08464 16.3617 1.10852 16.1825 1.20407C16.001 1.29483 15.8505 1.42381 15.712 1.55757C15.4325 1.82509 15.1984 2.13083 14.919 2.37924C14.7781 2.49867 14.6228 2.61093 14.446 2.63242C14.2669 2.65392 14.0734 2.63242 13.8847 2.62048C13.5049 2.59182 13.1156 2.56316 12.7358 2.63481C12.6475 2.65153 12.5519 2.67542 12.4635 2.70408C12.3823 2.72797 12.3059 2.75185 12.2318 2.7829C11.9858 2.888 11.7661 3.05042 11.5774 3.24151C11.3863 3.4302 11.2287 3.64756 11.0734 3.85298C10.9779 3.9748 10.8751 4.10856 10.7748 4.15871C10.6673 4.20887 10.4978 4.22798 10.3449 4.24709C10.0296 4.28531 9.70236 4.31397 9.37752 4.39757C9.2151 4.43818 9.05029 4.49789 8.89264 4.58149C8.81382 4.6221 8.73977 4.67703 8.66573 4.73436C8.59646 4.79885 8.52958 4.86812 8.48181 4.935C8.27162 5.20252 8.11636 5.50109 7.96827 5.78294C7.86795 5.97163 7.77241 6.16033 7.65537 6.30364C7.6267 6.33947 7.59565 6.37052 7.5646 6.3968C7.53833 6.42068 7.49772 6.44696 7.44995 6.47562C7.36396 6.53056 7.2732 6.57833 7.18004 6.6261C6.80982 6.81002 6.38226 6.95094 6.00009 7.20413C5.79946 7.33789 5.62031 7.4812 5.46028 7.67945C5.30025 7.8777 5.21665 8.14283 5.19276 8.37691C5.16649 8.61338 5.14977 8.81402 5.06617 8.98122C4.98257 9.14364 4.83209 9.27501 4.65772 9.41594C4.48814 9.55208 4.30899 9.66912 4.11791 9.79811C3.92682 9.92709 3.72619 10.0895 3.57332 10.2878C3.42284 10.4765 3.28908 10.7129 3.21981 10.9494C3.14338 11.1859 3.10516 11.4223 3.07172 11.6445C3.0335 11.8833 2.99767 12.1198 2.91646 12.2703C2.89974 12.3013 2.87108 12.3443 2.83525 12.3873C2.80181 12.4303 2.76598 12.4757 2.72777 12.5187L2.48891 12.7862C2.3241 12.9701 2.15212 13.1684 2.0112 13.4024C1.87027 13.627 1.75562 13.9088 1.71502 14.1811C1.62664 14.7257 1.69352 15.1963 1.49766 15.5235C1.29702 15.9128 0.96501 16.3117 0.783479 16.8611C0.738096 16.9948 0.711822 17.1453 0.707045 17.303L0.709434 17.4248L0.716599 17.5179L0.728542 17.6875C0.742874 17.9144 0.747651 18.1413 0.738096 18.3659C0.723765 18.8173 0.652108 19.2425 0.53268 19.6891C0.504018 19.8038 0.470578 19.9208 0.444304 20.057C0.418029 20.186 0.398921 20.3555 0.410864 20.506C0.432361 20.8022 0.49924 21.0482 0.56612 21.2871C0.633 21.5164 0.714211 21.76 0.742874 21.92C0.745262 21.9607 0.750039 21.9344 0.742874 21.9822L0.718988 22.1589C0.704657 22.2807 0.690325 22.4025 0.680771 22.5267C0.654497 22.854 0.642554 23.186 0.695102 23.549C0.709434 23.6398 0.728542 23.7354 0.761982 23.8333C0.79781 23.9408 0.833639 24.0196 0.874244 24.0984C0.953067 24.2561 1.04144 24.3994 1.12982 24.5331L1.38301 24.9177C1.42122 24.9774 1.45705 25.0371 1.47855 25.0849C1.50721 25.1518 1.49288 25.0968 1.5311 25.2616C1.60037 25.4862 1.70069 25.6175 1.77234 25.7465C1.84878 25.8803 1.90133 25.9758 1.95626 26.1287C1.97298 26.1789 2.00403 26.2195 2.02553 26.2672C2.05897 26.3078 2.09002 26.3484 2.12346 26.3867C2.19273 26.4511 2.24528 26.4965 2.30499 26.5395C2.42203 26.6279 2.53668 26.6996 2.65133 26.7712C2.88302 26.9121 3.11471 27.0387 3.34879 27.1629C3.81456 27.409 4.28511 27.6407 4.75565 27.8723C5.06139 28.0228 5.32652 28.2521 5.63226 28.3978C6.25806 28.7012 6.88625 28.9974 7.50728 29.3055C7.73897 29.7354 7.94677 30.1797 8.16174 30.6168C8.42448 31.159 8.68245 31.7012 8.93086 32.2482C9.17449 32.7976 9.42051 33.3445 9.63071 33.9011L9.78596 34.3191L9.9245 34.7371L10.0415 35.1622C10.0917 35.3151 10.1204 35.4751 10.192 35.6232C10.4404 36.2227 10.8847 36.7554 11.4388 37.0826C11.9906 37.4146 12.5997 37.6033 13.2088 37.706C13.8179 37.8159 14.4317 37.835 15.0408 37.8231C15.6236 37.8111 16.2016 37.7514 16.7749 37.6702C16.9039 37.7968 17.0376 37.9234 17.1809 38.0381C17.6157 38.3987 18.1053 38.6973 18.6284 38.9051C19.1515 39.1153 19.7104 39.2371 20.2694 39.2801C20.4007 39.2944 20.5512 39.3064 20.6587 39.2992C20.7853 39.2968 20.9525 39.2992 21.0026 39.2992C20.9716 39.2968 20.8904 39.292 20.8092 39.2825C21.2057 39.2777 21.4899 39.2586 21.7718 39.2228C22.4835 39.1272 23.1834 38.9194 23.8355 38.6041C24.349 38.351 24.8315 38.0357 25.271 37.6678C25.8419 37.749 26.4151 37.8088 26.9955 37.8183C27.6046 37.8303 28.2185 37.8111 28.8276 37.7013C29.4366 37.5986 30.0457 37.4099 30.5975 37.0779C31.1516 36.753 31.5959 36.218 31.8443 35.6184C31.916 35.4704 31.9446 35.3103 31.9948 35.1575L32.1118 34.7323L32.2504 34.3143L32.4056 33.8963C32.6158 33.3398 32.8618 32.7928 33.1055 32.2434C33.3539 31.6964 33.6095 31.1518 33.8746 30.612C34.0848 30.1869 34.2854 29.7569 34.5076 29.3389C34.5314 29.327 34.5553 29.3126 34.5792 29.3007L36.2249 28.4743C36.8722 28.1494 37.5219 27.8246 38.1644 27.483C38.4869 27.311 38.807 27.1367 39.1246 26.9456C39.2847 26.8524 39.4423 26.7497 39.6 26.6398C39.6788 26.5849 39.7576 26.5252 39.8388 26.4535C39.9153 26.3914 40.0299 26.2577 40.0777 26.1239C40.1254 25.9758 40.1756 25.8755 40.2449 25.7465C40.3118 25.6199 40.4025 25.4909 40.4718 25.2879C40.4885 25.2401 40.5005 25.1709 40.5076 25.1303C40.5076 25.1255 40.5148 25.1088 40.522 25.0873C40.5411 25.0419 40.5721 24.9822 40.6056 24.9249C40.6772 24.8054 40.7584 24.6788 40.842 24.5475C40.9256 24.4161 41.0092 24.2776 41.0857 24.1295C41.1239 24.053 41.1597 23.979 41.1931 23.893C41.229 23.7975 41.2529 23.7043 41.2696 23.6159C41.3317 23.2624 41.3173 22.94 41.2982 22.6223C41.2863 22.4527 41.2672 22.2855 41.2481 22.1231C41.2385 22.0466 41.2242 21.9392 41.229 21.9392C41.2314 21.9153 41.2481 21.8388 41.2648 21.7743C41.3436 21.4949 41.4654 21.1796 41.5419 20.8309ZM15.048 37.589C14.4508 37.546 13.8561 37.4767 13.2852 37.3406C12.7143 37.2021 12.1578 37.0134 11.6849 36.7005C11.2048 36.4019 10.8441 35.9552 10.6363 35.4417C10.5718 35.3175 10.5479 35.1766 10.5001 35.0452L10.3712 34.5985C10.2732 34.3047 10.1705 34.0157 10.0511 33.7339C9.80985 33.1726 9.55188 32.6208 9.26764 32.0858C8.98818 31.5483 9.88628 30.7482 10.2398 31.0133C10.8274 31.4528 11.3552 31.9663 11.907 32.4464C12.9914 33.3995 14.0472 34.3955 14.9715 35.5086C15.5758 36.2108 16.0989 36.9966 16.7653 37.6559C16.1873 37.6416 15.6164 37.6392 15.048 37.589ZM33.6692 30.5069C33.3563 31.0252 33.0505 31.5483 32.7711 32.0882C32.4868 32.6232 32.2265 33.1749 31.9876 33.7363C31.8682 34.0181 31.7655 34.3071 31.6676 34.6009L31.5386 35.0476C31.4908 35.1789 31.4669 35.3199 31.4024 35.4441C31.1922 35.9576 30.834 36.4043 30.3539 36.7029C29.8809 37.0158 29.3244 37.2044 28.7535 37.343C28.1803 37.4791 27.5855 37.5484 26.9908 37.5914C26.4271 37.6416 25.8586 37.6439 25.2901 37.6607C25.529 37.46 25.7559 37.2451 25.9685 37.0158C26.2742 36.6814 26.5369 36.335 26.814 35.9982C27.0959 35.6662 27.3753 35.3294 27.6691 35.0094C28.4526 34.1375 29.2479 33.2705 30.1245 32.4894C31.0441 31.6797 32.0091 30.9225 33.0195 30.2394C33.2655 30.065 33.8292 30.249 33.6692 30.5069ZM40.9352 21.1653C40.8778 21.3683 40.8062 21.5594 40.7632 21.7911C39.5689 22.5172 38.42 23.2887 37.2855 24.0889C36.1509 24.8938 35.0402 25.7322 33.9582 26.6064C32.8762 27.4806 31.8348 28.4026 30.8244 29.358C29.8236 30.323 28.8777 31.3429 27.994 32.413C28.9064 31.3668 29.8785 30.3779 30.9056 29.444C31.9375 28.5196 33.0028 27.6311 34.1039 26.7927C35.2074 25.9543 36.3348 25.1518 37.4861 24.3827C38.5657 23.6661 39.6645 22.9734 40.7823 22.3285C40.7966 22.4431 40.8086 22.5578 40.8181 22.6724C40.8396 22.9662 40.8492 23.2672 40.7966 23.5395C40.752 23.7861 40.5896 24.0419 40.4343 24.2866C40.4317 24.2907 40.4291 24.2949 40.4264 24.2991C40.3452 24.4256 40.2592 24.5522 40.178 24.6884C40.1374 24.7577 40.0968 24.8293 40.061 24.9153C40.0442 24.9607 40.0275 25.0085 40.018 25.0658C40.0108 25.0992 40.006 25.1183 39.9965 25.1446C39.9153 25.3548 39.6907 25.6534 39.6 25.9567C39.5832 25.9949 39.5689 26.0164 39.5283 26.0499C39.4877 26.0881 39.4328 26.1287 39.3826 26.1693C39.2727 26.2481 39.1581 26.3246 39.0363 26.3962C38.7974 26.5443 38.5466 26.6828 38.2958 26.8214C37.7918 27.0961 37.2807 27.3612 36.7695 27.6287C35.7066 28.1948 34.6318 28.7155 33.5736 29.3389C32.5442 30.0077 31.5863 30.7434 30.6691 31.5388C29.7519 32.3294 28.8873 33.1797 28.0776 34.0778C27.8745 34.3023 27.6739 34.5269 27.4804 34.7586C27.2822 34.9879 27.0911 35.2196 26.9048 35.4584C26.5178 35.9194 26.1834 36.4306 25.7989 36.882C25.0656 37.7395 24.0982 38.4059 23.0305 38.7881C22.3283 39.0389 21.509 39.2562 20.7829 39.2777C20.7781 39.2777 20.7757 39.2777 20.7709 39.2777C20.6802 39.2706 20.5823 39.261 20.4772 39.2514C20.3744 39.2371 20.267 39.2204 20.1666 39.2061C19.8322 39.1559 19.505 39.0866 19.1849 38.9863C18.6141 38.8 18.0862 38.5086 17.618 38.1455C17.1475 37.7849 16.7462 37.343 16.3808 36.8748C16.0201 36.4067 15.6762 35.8955 15.2964 35.4178C15.1101 35.1766 14.9214 34.9377 14.7231 34.706C14.5296 34.4695 14.329 34.2379 14.1236 34.0133C13.0774 32.8405 11.9189 31.7681 10.6864 30.7912C10.0678 30.3039 9.43007 29.8429 8.76843 29.413C8.42687 29.1861 8.07336 29.0045 7.72702 28.8206L6.68322 28.2903L4.42364 27.1797C4.04864 26.9934 3.67841 26.8047 3.31535 26.6016C3.13382 26.5013 2.95468 26.3962 2.78748 26.2863C2.70388 26.2314 2.62267 26.1741 2.54863 26.1144C2.47458 26.0475 2.43397 26.0188 2.41009 25.9543C2.33604 25.7202 2.18556 25.4742 2.08286 25.2831C2.04464 25.2091 2.01836 25.1422 2.00642 25.0825C1.9897 24.9631 1.93715 24.8556 1.89416 24.772C1.80101 24.6 1.6983 24.4495 1.60276 24.2967C1.50721 24.1462 1.41884 23.9957 1.34479 23.8405C1.30657 23.7616 1.27791 23.69 1.2588 23.6159C1.23969 23.5395 1.22536 23.4559 1.2182 23.3723C1.18476 23.0331 1.21342 22.6772 1.25403 22.3237C2.36471 22.9591 3.45867 23.6422 4.52874 24.3492C5.67525 25.1088 6.79548 25.9042 7.89183 26.7354C8.98818 27.5666 10.0439 28.448 11.071 29.3652C12.0909 30.2896 13.0559 31.2737 13.9612 32.3127C13.0846 31.2498 12.1459 30.2346 11.1522 29.2768C10.1514 28.3286 9.11478 27.4113 8.03992 26.5443C6.96268 25.6796 5.85917 24.846 4.72938 24.0506C3.60437 23.26 2.46264 22.4981 1.27791 21.7839C1.27313 21.7648 1.27075 21.7457 1.26597 21.7266C1.22059 21.5379 1.16326 21.3659 1.11071 21.1939C1.01039 20.8524 0.902907 20.5084 0.955455 20.1931C1.01278 19.8683 1.12027 19.5124 1.16804 19.1541C2.3862 19.9925 3.56854 20.881 4.71983 21.7982C5.94755 22.7775 7.13705 23.807 8.29311 24.8699C9.45395 25.9304 10.5646 27.0459 11.6299 28.202L12.4229 29.0762L13.1873 29.9767L13.5694 30.4281L13.9325 30.8939L14.6586 31.8254L13.9564 30.8772L13.6053 30.4018L13.235 29.9408L12.4946 29.0212L11.7231 28.1255C10.6841 26.9408 9.59727 25.7943 8.46031 24.7003C7.32813 23.6016 6.15774 22.5411 4.94913 21.5235C3.74768 20.5132 2.51996 19.5434 1.23253 18.6262C1.24447 18.4256 1.24686 18.2273 1.23969 18.0267C1.23014 17.8428 1.2182 17.6589 1.20148 17.4749C1.19431 17.3746 1.18476 17.3149 1.1967 17.2313C1.20148 17.1549 1.22059 17.0737 1.24447 16.9948C1.3639 16.6127 1.62186 16.2663 1.85117 15.8818C1.85355 15.877 1.85833 15.8698 1.86072 15.865C3.14099 16.9232 4.38304 18.0506 5.58687 19.2066C6.84564 20.4224 8.06142 21.6836 9.22943 22.9853C10.4046 24.2823 11.5009 25.6486 12.5543 27.0483C13.6029 28.4528 14.5511 29.9289 15.4277 31.448C14.587 29.9098 13.6721 28.4098 12.6522 26.979C11.6299 25.553 10.5599 24.1557 9.40857 22.8277C8.26445 21.4949 7.07495 20.2003 5.83767 18.9511C4.6219 17.7281 3.37746 16.5458 2.06375 15.4136C2.08286 15.3467 2.09958 15.2822 2.10913 15.2154C2.14974 14.9813 2.1569 14.7591 2.1784 14.5513C2.19751 14.3435 2.23095 14.1477 2.29783 13.9757C2.36471 13.8037 2.4698 13.6341 2.58923 13.4741C2.71105 13.3141 2.85197 13.1612 2.99767 12.9964C3.04545 12.9438 3.09322 12.8841 3.14099 12.8268C4.44036 14.0784 5.68958 15.4017 6.89342 16.756C8.15935 18.1867 9.37274 19.6652 10.5288 21.1892C11.6729 22.7202 12.7454 24.3062 13.7343 25.9424C14.6968 27.5953 15.5567 29.3079 16.2566 31.0921C15.5949 29.2935 14.7685 27.5594 13.837 25.8827C12.8791 24.2202 11.8377 22.608 10.7223 21.0482C9.59488 19.4957 8.40776 17.9861 7.16571 16.5219C5.96427 15.1127 4.72221 13.7416 3.40851 12.4231C3.41328 12.4136 3.42045 12.404 3.42284 12.3945C3.51838 12.1365 3.53749 11.9072 3.56854 11.6898C3.5972 11.4725 3.62825 11.2695 3.68319 11.0808C3.73574 10.8897 3.82173 10.7368 3.93877 10.5744C4.05342 10.4191 4.19195 10.2949 4.36154 10.1707C4.53113 10.0465 4.7246 9.91515 4.90136 9.76467C4.91808 9.75033 4.93241 9.736 4.94913 9.72406C6.17924 11.2575 7.34963 12.8555 8.46986 14.4773C9.63548 16.1732 10.7438 17.912 11.7924 19.6844C12.8505 21.4519 13.8083 23.2791 14.7088 25.1303C15.6093 26.9838 16.3784 28.8994 17.0711 30.8413C16.4166 28.8851 15.6809 26.9551 14.8163 25.0801C13.9492 23.2075 13.0248 21.3587 11.9978 19.5649C10.9802 17.7663 9.903 16.0036 8.76605 14.279C7.66253 12.6118 6.51363 10.9757 5.28591 9.38727C5.32891 9.33234 5.36713 9.27501 5.40057 9.21052C5.53671 8.96689 5.55105 8.68743 5.56538 8.48201C5.57971 8.26704 5.61315 8.10223 5.70869 7.95175C5.80184 7.80366 5.9571 7.65796 6.11713 7.53614C6.27717 7.41193 6.4587 7.31161 6.65217 7.22085C6.84564 7.13008 7.05106 7.04648 7.25409 6.94855C7.33052 6.91272 7.40696 6.86973 7.48339 6.82674C8.59168 8.64682 9.63309 10.5195 10.6291 12.4112C11.6467 14.3483 12.6045 16.3165 13.5097 18.3109C14.4245 20.3006 15.239 22.3333 16.0082 24.3827C16.7701 26.4368 17.4174 28.5316 17.9859 30.6478C17.4556 28.522 16.8465 26.4129 16.1204 24.3444C15.3895 22.2783 14.6085 20.2266 13.7295 18.2154C12.86 16.2018 11.9333 14.2122 10.9492 12.2488C9.97705 10.3188 8.9643 8.41513 7.86795 6.5425C8.0232 6.35619 8.11875 6.15555 8.21429 5.96447C8.21499 5.96299 8.2157 5.9615 8.2164 5.96002C8.31121 5.76094 8.40376 5.56657 8.50808 5.37927C8.61557 5.19535 8.73022 5.00665 8.88309 4.88006C9.04073 4.74869 9.24137 4.6627 9.44679 4.6006C9.8194 4.48356 10.2159 4.4549 10.61 4.37607L10.5766 4.39279C11.5583 6.4374 12.4253 8.55605 13.2374 10.6867C14.0424 12.822 14.7972 14.9765 15.4683 17.1596C16.1395 19.3428 16.7725 21.5379 17.3099 23.7569C17.5966 24.8628 17.8354 25.9806 18.0862 27.0937C18.3346 28.2091 18.5353 29.3341 18.7622 30.4544C18.5544 29.3318 18.3728 28.202 18.1435 27.0817C17.9118 25.9615 17.6921 24.8413 17.4246 23.7282C16.9254 21.4973 16.3306 19.2879 15.6953 17.088C15.0599 14.8905 14.3409 12.7169 13.5718 10.5601C12.7932 8.40557 11.9667 6.27498 11.0065 4.18021L10.9874 4.18977C11.0567 4.1205 11.1164 4.04406 11.1713 3.97002C11.2979 3.80043 11.415 3.62845 11.5487 3.4732C11.7326 3.25106 11.95 3.03609 12.208 2.87845C12.2701 2.84023 12.3346 2.80679 12.4014 2.77574C12.5591 2.72319 12.7311 2.68497 12.8959 2.67542C13.3473 2.63959 13.794 2.71602 14.255 2.74469H14.2526C14.8975 4.98277 15.4683 7.25429 16.0034 9.53059C16.5336 11.8069 17.0329 14.0927 17.4795 16.3881C17.9262 18.6836 18.3466 20.9861 18.7072 23.2959C19.0846 25.6056 19.3927 27.9249 19.6842 30.2466C19.431 27.9201 19.1634 25.5937 18.8243 23.2768C18.5018 20.9575 18.122 18.6477 17.7136 16.3428C17.3075 14.0378 16.8465 11.74 16.3521 9.44938C15.8577 7.17547 15.3298 4.91111 14.7231 2.6587C14.7828 2.63004 14.8402 2.5966 14.8927 2.55838C15.0695 2.43417 15.2175 2.28369 15.3632 2.1356C15.6499 1.8442 15.9269 1.52174 16.2661 1.36171C16.5981 1.19929 16.9731 1.36649 17.3386 1.54085C17.6515 1.68894 17.9978 1.85853 18.3896 1.89675L19.4835 15.9893L20.0138 23.1167C20.1834 25.4933 20.3577 27.87 20.4843 30.249C20.3983 27.8676 20.2622 25.4886 20.1332 23.1096L19.7224 15.9749L18.8625 1.87286C19.0058 1.83942 19.142 1.79165 19.2662 1.73433C19.4716 1.63878 19.6507 1.51936 19.8251 1.40709C20.169 1.18257 20.4963 0.991484 20.845 0.962821C21.1985 0.93177 21.5305 1.03209 21.8458 1.24228C22.1683 1.44292 22.4835 1.74149 22.9445 1.92302C23.0138 1.95168 23.0879 1.97318 23.1619 1.99229L22.2471 15.9701L21.8076 23.1072C21.669 25.4862 21.5233 27.8652 21.4374 30.2466C21.564 27.8676 21.7503 25.4909 21.927 23.1143L22.4859 15.9869L23.6324 2.03528C23.7208 2.03051 23.8092 2.02334 23.8928 2.00662C24.2009 1.95168 24.4684 1.83465 24.7145 1.73194C24.9581 1.62684 25.1874 1.53369 25.3713 1.51219C25.4621 1.50264 25.5337 1.51697 25.6054 1.54085C25.6818 1.5719 25.7678 1.62445 25.8538 1.69133C26.0258 1.82987 26.1978 2.01618 26.3745 2.21204C26.5537 2.4079 26.74 2.62048 27.0027 2.81396C27.0696 2.86173 27.1484 2.9095 27.2368 2.94771C26.6731 5.10697 26.1786 7.27579 25.7129 9.45415C25.228 11.7448 24.7766 14.0402 24.3753 16.3475C23.974 18.6525 23.5966 20.9622 23.2789 23.2815C22.9445 25.5984 22.677 27.9225 22.4262 30.2466C22.7176 27.9249 23.0257 25.608 23.3984 23.2982C23.7566 20.9885 24.1699 18.6859 24.6118 16.3905C25.0512 14.0951 25.5433 11.8093 26.064 9.53059C26.5656 7.35939 27.1006 5.19057 27.7002 3.04803C27.8076 3.05042 27.908 3.04326 28.0035 3.03609C28.2949 3.00743 28.5457 2.95966 28.7846 2.94533C29.0234 2.92622 29.236 2.94771 29.4247 3.01221C29.4725 3.02654 29.5155 3.05281 29.5608 3.06953C29.6038 3.09819 29.6444 3.11969 29.6898 3.15074C29.783 3.21762 29.8738 3.28928 29.955 3.37049C30.1245 3.52813 30.2655 3.71444 30.416 3.92941C30.4924 4.0369 30.5688 4.15155 30.6763 4.27575C30.7336 4.34263 30.8077 4.41668 30.8961 4.48117C29.9956 6.47562 29.205 8.50351 28.4669 10.5529C27.6978 12.7074 26.9788 14.8834 26.3435 17.0808C25.7105 19.2783 25.1157 21.4877 24.6141 23.721C24.3466 24.8317 24.1269 25.9543 23.8952 27.0746C23.6659 28.1948 23.4844 29.3222 23.2765 30.4472C23.5035 29.327 23.7041 28.202 23.9525 27.0865C24.2033 25.971 24.4422 24.8556 24.7288 23.7497C25.2662 21.5307 25.8992 19.3332 26.5704 17.1525C27.2416 14.9693 27.9963 12.8149 28.8013 10.6795C29.5752 8.64682 30.4016 6.6261 31.3284 4.66987C31.4215 4.69136 31.5075 4.70331 31.5911 4.71764L31.9876 4.77258C32.2408 4.8084 32.4868 4.8514 32.6946 4.92783C32.8021 4.96366 32.8929 5.01143 32.9717 5.06398C33.0505 5.1213 33.0959 5.16669 33.1747 5.2694C33.3157 5.4557 33.4375 5.67306 33.5593 5.90475C33.6357 6.04807 33.7146 6.19855 33.8077 6.3538C33.877 6.46606 33.9582 6.58549 34.0752 6.69775C33.0147 8.51784 32.0306 10.369 31.0848 12.2464C30.1007 14.2074 29.1739 16.1994 28.3045 18.213C27.4255 20.2242 26.6444 22.2759 25.9135 24.342C25.1874 26.4129 24.5783 28.5196 24.0481 30.6455C24.6165 28.5292 25.2638 26.4344 26.0258 24.3803C26.7925 22.3309 27.6094 20.2958 28.5242 18.3085C29.4295 16.3165 30.3897 14.3483 31.4048 12.4088C32.3746 10.5648 33.3921 8.73759 34.4693 6.9605C34.7106 7.0847 34.9494 7.17069 35.174 7.25907C35.4749 7.37372 35.7377 7.49792 35.9694 7.67706C36.2178 7.86815 36.3635 8.04013 36.4136 8.31003C36.4423 8.44379 36.4471 8.6086 36.4829 8.79491C36.5163 8.98122 36.5952 9.18425 36.717 9.34189C36.7265 9.35622 36.7385 9.36817 36.7504 9.3825C35.5203 10.9733 34.3738 12.6094 33.2679 14.279C32.1309 16.0036 31.0537 17.7687 30.0362 19.5649C29.0091 21.3563 28.0847 23.2075 27.2177 25.0801C26.353 26.9551 25.6173 28.8875 24.9629 30.8413C25.6556 28.8994 26.4271 26.9838 27.3252 25.1303C28.228 23.2791 29.1835 21.4519 30.2416 19.6844C31.2902 17.912 32.3985 16.1756 33.5641 14.4773C34.6867 12.8483 35.8595 11.2456 37.0944 9.70973C37.0991 9.71451 37.1039 9.71928 37.1087 9.72167C37.2425 9.82916 37.3834 9.92948 37.5219 10.0226C37.8014 10.2065 38.0307 10.3714 38.1979 10.6222C38.3746 10.8586 38.4535 11.1453 38.506 11.4605C38.549 11.697 38.5681 11.9454 38.6398 12.2106C38.6517 12.2583 38.6708 12.3085 38.6899 12.3586C37.3499 13.6962 36.0888 15.0888 34.8682 16.5219C33.6262 17.9861 32.4391 19.4957 31.3117 21.0482C30.1938 22.608 29.1524 24.2226 28.197 25.8827C27.2654 27.5594 26.439 29.2935 25.7774 31.0921C26.4772 29.3079 27.3371 27.5953 28.2997 25.9424C29.2886 24.3062 30.3586 22.7202 31.5051 21.1892C32.6612 19.6652 33.8722 18.1867 35.1405 16.756C36.3635 15.3802 37.6318 14.0354 38.9551 12.7671C38.9933 12.8125 39.0315 12.8579 39.0697 12.9032C39.4017 13.2735 39.7218 13.6341 39.8388 14.0689C39.8961 14.2862 39.9105 14.5227 39.9224 14.7711C39.9344 14.9693 39.9439 15.1795 39.9989 15.3897C38.6756 16.5267 37.4216 17.7186 36.1987 18.9511C34.9614 20.2003 33.7719 21.4949 32.6278 22.8277C31.4765 24.1557 30.4088 25.553 29.3841 26.979C28.3642 28.4098 27.4494 29.9098 26.6086 31.448C27.4852 29.9289 28.4334 28.4528 29.482 27.0483C30.5354 25.6486 31.6317 24.2823 32.8069 22.9853C33.9773 21.6836 35.1907 20.4224 36.4495 19.2066C37.6581 18.0458 38.9049 16.9136 40.1899 15.8507C40.2616 15.9821 40.338 16.1039 40.4121 16.2281C40.5387 16.4383 40.6605 16.6485 40.7465 16.8635C40.7895 16.971 40.8181 17.0784 40.8372 17.1859C40.8516 17.2958 40.8444 17.3866 40.8301 17.5227C40.8038 17.7735 40.7942 18.0267 40.7919 18.2775C40.7919 18.3899 40.7965 18.5024 40.8011 18.6171C40.8012 18.6193 40.8013 18.6216 40.8014 18.6238C39.514 19.5387 38.2863 20.5108 37.0848 21.5212C35.8762 22.5387 34.7058 23.5992 33.5736 24.6979C32.4367 25.7919 31.3523 26.9384 30.3109 28.1231L29.5394 29.0189L28.7989 29.9384L28.4287 30.3994L28.0776 30.8748L27.3753 31.823L28.1014 30.8915L28.4645 30.4257L28.8467 29.9743L29.611 29.0738L30.404 28.1996C31.4717 27.0435 32.5824 25.9281 33.7408 24.8675C34.8969 23.8022 36.0864 22.7752 37.3141 21.7958C38.4654 20.8762 39.6501 19.9877 40.8611 19.1613C40.8922 19.3691 40.9304 19.5769 40.9806 19.7799C41.0379 20.0235 41.1024 20.2528 41.0833 20.4678C41.0689 20.6971 41.0044 20.9312 40.9352 21.1653Z" fill="#02676A"/>
<path d="M40.9352 21.1653C40.8778 21.3683 40.8062 21.5594 40.7632 21.7911C39.5689 22.5172 38.42 23.2887 37.2855 24.0889C36.1509 24.8938 35.0402 25.7322 33.9582 26.6064C32.8762 27.4806 31.8348 28.4026 30.8244 29.358C29.8236 30.323 28.8777 31.3429 27.994 32.413C28.9064 31.3668 29.8785 30.3779 30.9056 29.444C31.9375 28.5196 33.0028 27.6311 34.1039 26.7927C35.2074 25.9543 36.3348 25.1518 37.4861 24.3827C38.5657 23.6661 39.6645 22.9734 40.7823 22.3285C40.7966 22.4431 40.8086 22.5578 40.8181 22.6724C40.8396 22.9662 40.8492 23.2672 40.7966 23.5395C40.752 23.7861 40.5896 24.0419 40.4343 24.2866L40.4264 24.2991C40.3452 24.4256 40.2592 24.5522 40.178 24.6884C40.1374 24.7577 40.0968 24.8293 40.061 24.9153C40.0442 24.9607 40.0275 25.0085 40.018 25.0658C40.0108 25.0992 40.006 25.1183 39.9965 25.1446C39.9153 25.3548 39.6907 25.6534 39.6 25.9567C39.5832 25.9949 39.5689 26.0164 39.5283 26.0499C39.4877 26.0881 39.4328 26.1287 39.3826 26.1693C39.2727 26.2481 39.1581 26.3246 39.0363 26.3962C38.7974 26.5443 38.5466 26.6828 38.2958 26.8214C37.7918 27.0961 37.2807 27.3612 36.7695 27.6287C35.7066 28.1948 34.6318 28.7155 33.5736 29.3389C32.5442 30.0077 31.5863 30.7434 30.6691 31.5388C29.7519 32.3294 28.8873 33.1797 28.0776 34.0778C27.8745 34.3023 27.6739 34.5269 27.4804 34.7586C27.2822 34.9879 27.0911 35.2196 26.9048 35.4584C26.5178 35.9194 26.1834 36.4306 25.7989 36.882C25.0656 37.7395 24.0982 38.4059 23.0305 38.7881C22.3283 39.0389 21.509 39.2562 20.7829 39.2777H20.7709C20.6802 39.2706 20.5823 39.261 20.4772 39.2514C20.3744 39.2371 20.267 39.2204 20.1666 39.2061C19.8322 39.1559 19.505 39.0866 19.1849 38.9863C18.6141 38.8 18.0862 38.5086 17.618 38.1455C17.1475 37.7849 16.7462 37.343 16.3808 36.8748C16.0201 36.4067 15.6762 35.8955 15.2964 35.4178C15.1101 35.1766 14.9214 34.9377 14.7231 34.706C14.5296 34.4695 14.329 34.2379 14.1236 34.0133C13.0774 32.8405 11.9189 31.7681 10.6864 30.7912C10.0678 30.3039 9.43007 29.8429 8.76843 29.413C8.42687 29.1861 8.07336 29.0045 7.72702 28.8206L6.68322 28.2903L4.42364 27.1797C4.04864 26.9934 3.67841 26.8047 3.31535 26.6016C3.13382 26.5013 2.95468 26.3962 2.78748 26.2863C2.70388 26.2314 2.62267 26.1741 2.54863 26.1144C2.47458 26.0475 2.43397 26.0188 2.41009 25.9543C2.33604 25.7202 2.18556 25.4742 2.08286 25.2831C2.04464 25.2091 2.01836 25.1422 2.00642 25.0825C1.9897 24.9631 1.93715 24.8556 1.89416 24.772C1.80101 24.6 1.6983 24.4495 1.60276 24.2967C1.50721 24.1462 1.41884 23.9957 1.34479 23.8405C1.30657 23.7616 1.27791 23.69 1.2588 23.6159C1.23969 23.5395 1.22536 23.4559 1.2182 23.3723C1.18476 23.0331 1.21342 22.6772 1.25403 22.3237C2.36471 22.9591 3.45867 23.6422 4.52874 24.3492C5.67525 25.1088 6.79548 25.9042 7.89183 26.7354C8.98818 27.5666 10.0439 28.448 11.071 29.3652C12.0909 30.2896 13.0559 31.2737 13.9612 32.3127C13.0846 31.2498 12.1459 30.2346 11.1522 29.2768C10.1514 28.3286 9.11478 27.4113 8.03992 26.5443C6.96268 25.6796 5.85917 24.846 4.72938 24.0506C3.60437 23.26 2.46264 22.4981 1.27791 21.7839C1.27313 21.7648 1.27075 21.7457 1.26597 21.7266C1.22059 21.5379 1.16326 21.3659 1.11071 21.1939C1.01039 20.8524 0.902907 20.5084 0.955455 20.1931C1.01278 19.8683 1.12027 19.5124 1.16804 19.1541C2.3862 19.9925 3.56854 20.881 4.71983 21.7982C5.94755 22.7775 7.13705 23.807 8.29311 24.8699C9.45395 25.9304 10.5646 27.0459 11.6299 28.202L12.4229 29.0762L13.1873 29.9767L13.5694 30.4281L13.9325 30.8939L14.6586 31.8254L13.9564 30.8772L13.6053 30.4018L13.235 29.9408L12.4946 29.0212L11.7231 28.1255C10.6841 26.9408 9.59727 25.7943 8.46031 24.7003C7.32813 23.6016 6.15774 22.5411 4.94913 21.5235C3.74768 20.5132 2.51996 19.5434 1.23253 18.6262C1.24447 18.4256 1.24686 18.2273 1.23969 18.0267C1.23014 17.8428 1.2182 17.6589 1.20148 17.4749C1.19431 17.3746 1.18476 17.3149 1.1967 17.2313C1.20148 17.1549 1.22059 17.0737 1.24447 16.9948C1.3639 16.6127 1.62186 16.2663 1.85117 15.8818C1.85355 15.877 1.85833 15.8698 1.86072 15.865C3.14099 16.9232 4.38304 18.0506 5.58687 19.2066C6.84564 20.4224 8.06142 21.6836 9.22943 22.9853C10.4046 24.2823 11.5009 25.6486 12.5543 27.0483C13.6029 28.4528 14.5511 29.9289 15.4277 31.448C14.587 29.9098 13.6721 28.4098 12.6522 26.979C11.6299 25.553 10.5599 24.1557 9.40857 22.8277C8.26445 21.4949 7.07495 20.2003 5.83767 18.9511C4.6219 17.7281 3.37746 16.5458 2.06375 15.4136C2.08286 15.3467 2.09958 15.2822 2.10913 15.2154C2.14974 14.9813 2.1569 14.7591 2.1784 14.5513C2.19751 14.3435 2.23095 14.1477 2.29783 13.9757C2.36471 13.8037 2.4698 13.6341 2.58923 13.4741C2.71105 13.3141 2.85197 13.1612 2.99767 12.9964C3.04545 12.9438 3.09322 12.8841 3.14099 12.8268C4.44036 14.0784 5.68958 15.4017 6.89342 16.756C8.15935 18.1867 9.37274 19.6652 10.5288 21.1892C11.6729 22.7202 12.7454 24.3062 13.7343 25.9424C14.6968 27.5953 15.5567 29.3079 16.2566 31.0921C15.5949 29.2935 14.7685 27.5594 13.837 25.8827C12.8791 24.2202 11.8377 22.608 10.7223 21.0482C9.59488 19.4957 8.40776 17.9861 7.16571 16.5219C5.96427 15.1127 4.72221 13.7416 3.40851 12.4231C3.41328 12.4136 3.42045 12.404 3.42284 12.3945C3.51838 12.1365 3.53749 11.9072 3.56854 11.6898C3.5972 11.4725 3.62825 11.2695 3.68319 11.0808C3.73574 10.8897 3.82173 10.7368 3.93877 10.5744C4.05342 10.4191 4.19195 10.2949 4.36154 10.1707C4.53113 10.0465 4.7246 9.91515 4.90136 9.76467C4.91808 9.75033 4.93241 9.736 4.94913 9.72406C6.17924 11.2575 7.34963 12.8555 8.46986 14.4773C9.63548 16.1732 10.7438 17.912 11.7924 19.6844C12.8505 21.4519 13.8083 23.2791 14.7088 25.1303C15.6093 26.9838 16.3784 28.8994 17.0711 30.8413C16.4166 28.8851 15.6809 26.9551 14.8163 25.0801C13.9492 23.2075 13.0248 21.3587 11.9978 19.5649C10.9802 17.7663 9.903 16.0036 8.76605 14.279C7.66253 12.6118 6.51363 10.9757 5.28591 9.38727C5.32891 9.33234 5.36713 9.27501 5.40057 9.21052C5.53671 8.96689 5.55105 8.68743 5.56538 8.48201C5.57971 8.26704 5.61315 8.10223 5.70869 7.95175C5.80184 7.80366 5.9571 7.65796 6.11713 7.53614C6.27717 7.41193 6.4587 7.31161 6.65217 7.22085C6.84564 7.13008 7.05106 7.04648 7.25409 6.94855C7.33052 6.91272 7.40696 6.86973 7.48339 6.82674C8.59168 8.64682 9.63309 10.5195 10.6291 12.4112C11.6467 14.3483 12.6045 16.3165 13.5097 18.3109C14.4245 20.3006 15.239 22.3333 16.0082 24.3827C16.7701 26.4368 17.4174 28.5316 17.9859 30.6478C17.4556 28.522 16.8465 26.4129 16.1204 24.3444C15.3895 22.2783 14.6085 20.2266 13.7295 18.2154C12.86 16.2018 11.9333 14.2122 10.9492 12.2488C9.97705 10.3188 8.9643 8.41513 7.86795 6.5425C8.0232 6.35619 8.11875 6.15555 8.21429 5.96447L8.2164 5.96002C8.31121 5.76094 8.40376 5.56657 8.50808 5.37927C8.61557 5.19535 8.73022 5.00665 8.88309 4.88006C9.04073 4.74869 9.24137 4.6627 9.44679 4.6006C9.8194 4.48356 10.2159 4.4549 10.61 4.37607L10.5766 4.39279C11.5583 6.4374 12.4253 8.55605 13.2374 10.6867C14.0424 12.822 14.7972 14.9765 15.4683 17.1596C16.1395 19.3428 16.7725 21.5379 17.3099 23.7569C17.5966 24.8628 17.8354 25.9806 18.0862 27.0937C18.3346 28.2091 18.5353 29.3341 18.7622 30.4544C18.5544 29.3318 18.3728 28.202 18.1435 27.0817C17.9118 25.9615 17.6921 24.8413 17.4246 23.7282C16.9254 21.4973 16.3306 19.2879 15.6953 17.088C15.0599 14.8905 14.3409 12.7169 13.5718 10.5601C12.7932 8.40557 11.9667 6.27498 11.0065 4.18021L10.9874 4.18977C11.0567 4.1205 11.1164 4.04406 11.1713 3.97002C11.2979 3.80043 11.415 3.62845 11.5487 3.4732C11.7326 3.25106 11.95 3.03609 12.208 2.87845C12.2701 2.84023 12.3346 2.80679 12.4014 2.77574C12.5591 2.72319 12.7311 2.68497 12.8959 2.67542C13.3473 2.63959 13.794 2.71602 14.255 2.74469H14.2526C14.8975 4.98277 15.4683 7.25429 16.0034 9.53059C16.5336 11.8069 17.0329 14.0927 17.4795 16.3881C17.9262 18.6836 18.3466 20.9861 18.7072 23.2959C19.0846 25.6056 19.3927 27.9249 19.6842 30.2466C19.431 27.9201 19.1634 25.5937 18.8243 23.2768C18.5018 20.9575 18.122 18.6477 17.7136 16.3428C17.3075 14.0378 16.8465 11.74 16.3521 9.44938C15.8577 7.17547 15.3298 4.91111 14.7231 2.6587C14.7828 2.63004 14.8402 2.5966 14.8927 2.55838C15.0695 2.43417 15.2175 2.28369 15.3632 2.1356C15.6499 1.8442 15.9269 1.52174 16.2661 1.36171C16.5981 1.19929 16.9731 1.36649 17.3386 1.54085C17.6515 1.68894 17.9978 1.85853 18.3896 1.89675L19.4835 15.9893L20.0138 23.1167C20.1834 25.4933 20.3577 27.87 20.4843 30.249C20.3983 27.8676 20.2622 25.4886 20.1332 23.1096L19.7224 15.9749L18.8625 1.87286C19.0058 1.83942 19.142 1.79165 19.2662 1.73433C19.4716 1.63878 19.6507 1.51936 19.8251 1.40709C20.169 1.18257 20.4963 0.991484 20.845 0.962821C21.1985 0.93177 21.5305 1.03209 21.8458 1.24228C22.1683 1.44292 22.4835 1.74149 22.9445 1.92302C23.0138 1.95168 23.0879 1.97318 23.1619 1.99229L22.2471 15.9701L21.8076 23.1072C21.669 25.4862 21.5233 27.8652 21.4374 30.2466C21.564 27.8676 21.7503 25.4909 21.927 23.1143L22.4859 15.9869L23.6324 2.03528C23.7208 2.03051 23.8092 2.02334 23.8928 2.00662C24.2009 1.95168 24.4684 1.83465 24.7145 1.73194C24.9581 1.62684 25.1874 1.53369 25.3713 1.51219C25.4621 1.50264 25.5337 1.51697 25.6054 1.54085C25.6818 1.5719 25.7678 1.62445 25.8538 1.69133C26.0258 1.82987 26.1978 2.01618 26.3745 2.21204C26.5537 2.4079 26.74 2.62048 27.0027 2.81396C27.0696 2.86173 27.1484 2.9095 27.2368 2.94771C26.6731 5.10697 26.1786 7.27579 25.7129 9.45415C25.228 11.7448 24.7766 14.0402 24.3753 16.3475C23.974 18.6525 23.5966 20.9622 23.2789 23.2815C22.9445 25.5984 22.677 27.9225 22.4262 30.2466C22.7176 27.9249 23.0257 25.608 23.3984 23.2982C23.7566 20.9885 24.1699 18.6859 24.6118 16.3905C25.0512 14.0951 25.5433 11.8093 26.064 9.53059C26.5656 7.35939 27.1006 5.19057 27.7002 3.04803C27.8076 3.05042 27.908 3.04326 28.0035 3.03609C28.2949 3.00743 28.5457 2.95966 28.7846 2.94533C29.0234 2.92622 29.236 2.94771 29.4247 3.01221C29.4725 3.02654 29.5155 3.05281 29.5608 3.06953C29.6038 3.09819 29.6444 3.11969 29.6898 3.15074C29.783 3.21762 29.8738 3.28928 29.955 3.37049C30.1245 3.52813 30.2655 3.71444 30.416 3.92941C30.4924 4.0369 30.5688 4.15155 30.6763 4.27575C30.7336 4.34263 30.8077 4.41668 30.8961 4.48117C29.9956 6.47562 29.205 8.50351 28.4669 10.5529C27.6978 12.7074 26.9788 14.8834 26.3435 17.0808C25.7105 19.2783 25.1157 21.4877 24.6141 23.721C24.3466 24.8317 24.1269 25.9543 23.8952 27.0746C23.6659 28.1948 23.4844 29.3222 23.2765 30.4472C23.5035 29.327 23.7041 28.202 23.9525 27.0865C24.2033 25.971 24.4422 24.8556 24.7288 23.7497C25.2662 21.5307 25.8992 19.3332 26.5704 17.1525C27.2416 14.9693 27.9963 12.8149 28.8013 10.6795C29.5752 8.64682 30.4016 6.6261 31.3284 4.66987C31.4215 4.69136 31.5075 4.70331 31.5911 4.71764L31.9876 4.77258C32.2408 4.8084 32.4868 4.8514 32.6946 4.92783C32.8021 4.96366 32.8929 5.01143 32.9717 5.06398C33.0505 5.1213 33.0959 5.16669 33.1747 5.2694C33.3157 5.4557 33.4375 5.67306 33.5593 5.90475C33.6357 6.04807 33.7146 6.19855 33.8077 6.3538C33.877 6.46606 33.9582 6.58549 34.0752 6.69775C33.0147 8.51784 32.0306 10.369 31.0848 12.2464C30.1007 14.2074 29.1739 16.1994 28.3045 18.213C27.4255 20.2242 26.6444 22.2759 25.9135 24.342C25.1874 26.4129 24.5783 28.5196 24.0481 30.6455C24.6165 28.5292 25.2638 26.4344 26.0258 24.3803C26.7925 22.3309 27.6094 20.2958 28.5242 18.3085C29.4295 16.3165 30.3897 14.3483 31.4048 12.4088C32.3746 10.5648 33.3921 8.73759 34.4693 6.9605C34.7106 7.0847 34.9494 7.17069 35.174 7.25907C35.4749 7.37372 35.7377 7.49792 35.9694 7.67706C36.2178 7.86815 36.3635 8.04013 36.4136 8.31003C36.4423 8.44379 36.4471 8.6086 36.4829 8.79491C36.5163 8.98122 36.5952 9.18425 36.717 9.34189C36.7265 9.35622 36.7385 9.36817 36.7504 9.3825C35.5203 10.9733 34.3738 12.6094 33.2679 14.279C32.1309 16.0036 31.0537 17.7687 30.0362 19.5649C29.0091 21.3563 28.0847 23.2075 27.2177 25.0801C26.353 26.9551 25.6173 28.8875 24.9629 30.8413C25.6556 28.8994 26.4271 26.9838 27.3252 25.1303C28.228 23.2791 29.1835 21.4519 30.2416 19.6844C31.2902 17.912 32.3985 16.1756 33.5641 14.4773C34.6867 12.8483 35.8595 11.2456 37.0944 9.70973C37.0991 9.71451 37.1039 9.71928 37.1087 9.72167C37.2425 9.82916 37.3834 9.92948 37.5219 10.0226C37.8014 10.2065 38.0307 10.3714 38.1979 10.6222C38.3746 10.8586 38.4535 11.1453 38.506 11.4605C38.549 11.697 38.5681 11.9454 38.6398 12.2106C38.6517 12.2583 38.6708 12.3085 38.6899 12.3586C37.3499 13.6962 36.0888 15.0888 34.8682 16.5219C33.6262 17.9861 32.4391 19.4957 31.3117 21.0482C30.1938 22.608 29.1524 24.2226 28.197 25.8827C27.2654 27.5594 26.439 29.2935 25.7774 31.0921C26.4772 29.3079 27.3371 27.5953 28.2997 25.9424C29.2886 24.3062 30.3586 22.7202 31.5051 21.1892C32.6612 19.6652 33.8722 18.1867 35.1405 16.756C36.3635 15.3802 37.6318 14.0354 38.9551 12.7671L39.0697 12.9032C39.4017 13.2735 39.7218 13.6341 39.8388 14.0689C39.8961 14.2862 39.9105 14.5227 39.9224 14.7711C39.9344 14.9693 39.9439 15.1795 39.9989 15.3897C38.6756 16.5267 37.4216 17.7186 36.1987 18.9511C34.9614 20.2003 33.7719 21.4949 32.6278 22.8277C31.4765 24.1557 30.4088 25.553 29.3841 26.979C28.3642 28.4098 27.4494 29.9098 26.6086 31.448C27.4852 29.9289 28.4334 28.4528 29.482 27.0483C30.5354 25.6486 31.6317 24.2823 32.8069 22.9853C33.9773 21.6836 35.1907 20.4224 36.4495 19.2066C37.6581 18.0458 38.9049 16.9136 40.1899 15.8507C40.2616 15.9821 40.338 16.1039 40.4121 16.2281C40.5387 16.4383 40.6605 16.6485 40.7465 16.8635C40.7895 16.971 40.8181 17.0784 40.8372 17.1859C40.8516 17.2958 40.8444 17.3866 40.8301 17.5227C40.8038 17.7735 40.7942 18.0267 40.7919 18.2775C40.7919 18.3899 40.7965 18.5024 40.8011 18.6171L40.8014 18.6238C39.514 19.5387 38.2863 20.5108 37.0848 21.5212C35.8762 22.5387 34.7058 23.5992 33.5736 24.6979C32.4367 25.7919 31.3523 26.9384 30.3109 28.1231L29.5394 29.0189L28.7989 29.9384L28.4287 30.3994L28.0776 30.8748L27.3753 31.823L28.1014 30.8915L28.4645 30.4257L28.8467 29.9743L29.611 29.0738L30.404 28.1996C31.4717 27.0435 32.5824 25.9281 33.7408 24.8675C34.8969 23.8022 36.0864 22.7752 37.3141 21.7958C38.4654 20.8762 39.6501 19.9877 40.8611 19.1613C40.8922 19.3691 40.9304 19.5769 40.9806 19.7799C41.0379 20.0235 41.1024 20.2528 41.0833 20.4678C41.0689 20.6971 41.0044 20.9312 40.9352 21.1653Z" fill="#02676A"/>
<path d="M15.048 37.589C14.4508 37.546 13.8561 37.4767 13.2852 37.3406C12.7143 37.2021 12.1578 37.0134 11.6849 36.7005C11.2048 36.4019 10.8441 35.9552 10.6363 35.4417C10.5718 35.3175 10.5479 35.1766 10.5001 35.0452L10.3712 34.5985C10.2732 34.3047 10.1705 34.0157 10.0511 33.7339C9.80985 33.1726 9.55188 32.6208 9.26764 32.0858C8.98818 31.5483 9.88628 30.7482 10.2398 31.0133C10.8274 31.4528 11.3552 31.9663 11.907 32.4464C12.9914 33.3995 14.0472 34.3955 14.9715 35.5086C15.5758 36.2108 16.0989 36.9966 16.7653 37.6559C16.1873 37.6416 15.6164 37.6392 15.048 37.589Z" fill="#02676A"/>
<path d="M33.6692 30.5069C33.3563 31.0252 33.0505 31.5483 32.7711 32.0882C32.4868 32.6232 32.2265 33.1749 31.9876 33.7363C31.8682 34.0181 31.7655 34.3071 31.6676 34.6009L31.5386 35.0476C31.4908 35.1789 31.4669 35.3199 31.4024 35.4441C31.1922 35.9576 30.834 36.4043 30.3539 36.7029C29.8809 37.0158 29.3244 37.2044 28.7535 37.343C28.1803 37.4791 27.5855 37.5484 26.9908 37.5914C26.4271 37.6416 25.8586 37.6439 25.2901 37.6607C25.529 37.46 25.7559 37.2451 25.9685 37.0158C26.2742 36.6814 26.5369 36.335 26.814 35.9982C27.0959 35.6662 27.3753 35.3294 27.6691 35.0094C28.4526 34.1375 29.2479 33.2705 30.1245 32.4894C31.0441 31.6797 32.0091 30.9225 33.0195 30.2394C33.2655 30.065 33.8292 30.249 33.6692 30.5069Z" fill="#02676A"/>
<path d="M41.5419 20.8309C41.5801 20.6565 41.6111 20.4606 41.5944 20.2433C41.5753 20.0403 41.5347 19.8731 41.4989 19.7154C41.4272 19.4025 41.3747 19.1135 41.3508 18.8101C41.3269 18.5092 41.3293 18.2035 41.3484 17.8977C41.3556 17.7401 41.3747 17.5991 41.389 17.4272C41.4105 17.1931 41.3675 16.9757 41.3078 16.7894C41.1812 16.4168 40.9949 16.123 40.8301 15.8436C40.7465 15.7074 40.6677 15.5736 40.6103 15.4542C40.5554 15.3396 40.5291 15.2464 40.5076 15.1079C40.4575 14.7878 40.4933 14.3555 40.3595 13.8921C40.2186 13.4216 39.9296 13.0657 39.6621 12.7647C39.5283 12.6142 39.3969 12.4757 39.2895 12.3419C39.2656 12.3109 39.2345 12.2703 39.2202 12.2488C39.2059 12.2297 39.1915 12.2034 39.1796 12.1747C39.1533 12.1126 39.1294 12.0386 39.1127 11.9526C39.0363 11.6134 39.01 11.1811 38.838 10.7607C38.795 10.6556 38.7401 10.5505 38.6804 10.4526C38.6207 10.3618 38.5562 10.271 38.4821 10.1851C38.3364 10.0107 38.1573 9.86737 37.9877 9.75272C37.8181 9.63807 37.6605 9.53775 37.5124 9.42788C37.3691 9.31801 37.2114 9.19141 37.1206 9.08154C37.0251 8.96211 36.9702 8.83552 36.9439 8.65876C36.9152 8.48679 36.9081 8.27182 36.8364 8.04729C36.7695 7.82277 36.6214 7.62452 36.4638 7.47643C36.3109 7.33072 36.1389 7.20413 35.9574 7.10142C35.5275 6.85301 35.0904 6.65476 34.7177 6.4589C34.658 6.43024 34.5888 6.38963 34.541 6.36097C34.5028 6.33708 34.4622 6.29886 34.4216 6.25348C34.3404 6.16272 34.2663 6.0409 34.1923 5.91431C34.0466 5.65873 33.9056 5.37927 33.7241 5.11414C33.6286 4.98038 33.5426 4.85617 33.4017 4.72719C33.2631 4.61015 33.1079 4.52894 32.9526 4.46684C32.6397 4.3498 32.3268 4.30442 32.0235 4.2662L31.5744 4.21126C31.4287 4.18977 31.2926 4.16588 31.2018 4.10139C30.9988 3.96524 30.8387 3.67861 30.6476 3.43976C30.4566 3.19374 30.2296 2.96682 29.9693 2.78768C29.7066 2.59899 29.3769 2.50344 29.064 2.49867C28.8037 2.48911 28.5457 2.52016 28.2973 2.5536C28.0489 2.58465 27.8005 2.61809 27.576 2.57988C27.3705 2.53449 27.1842 2.37446 27.0146 2.2001C26.8427 2.02573 26.6802 1.83465 26.5011 1.65311C26.3244 1.47397 26.1333 1.29722 25.8944 1.17063C25.7726 1.11569 25.6341 1.06314 25.4931 1.06553C25.3546 1.06075 25.2184 1.08464 25.0942 1.12285C24.5974 1.27811 24.189 1.56713 23.716 1.6364C22.7152 1.82748 22.0918 0.609314 21.0074 0.64992C20.6109 0.64992 20.2287 0.807565 19.9087 1.02015C19.5838 1.22556 19.2877 1.47397 18.9365 1.59101C18.5878 1.71283 18.2056 1.66267 17.8593 1.52891C17.5058 1.40232 17.1738 1.1969 16.7773 1.12285C16.5814 1.08464 16.3617 1.10852 16.1825 1.20407C16.001 1.29483 15.8505 1.42381 15.712 1.55757C15.4325 1.82509 15.1984 2.13083 14.919 2.37924C14.7781 2.49867 14.6228 2.61093 14.446 2.63242C14.2669 2.65392 14.0734 2.63242 13.8847 2.62048C13.5049 2.59182 13.1156 2.56316 12.7358 2.63481C12.6475 2.65153 12.5519 2.67542 12.4635 2.70408C12.3823 2.72797 12.3059 2.75185 12.2318 2.7829C11.9858 2.888 11.7661 3.05042 11.5774 3.24151C11.3863 3.4302 11.2287 3.64756 11.0734 3.85298C10.9779 3.9748 10.8751 4.10856 10.7748 4.15871C10.6673 4.20887 10.4978 4.22798 10.3449 4.24709C10.0296 4.28531 9.70236 4.31397 9.37752 4.39757C9.2151 4.43818 9.05029 4.49789 8.89264 4.58149C8.81382 4.6221 8.73977 4.67703 8.66573 4.73436C8.59646 4.79885 8.52958 4.86812 8.48181 4.935C8.27162 5.20252 8.11636 5.50109 7.96827 5.78294C7.86795 5.97163 7.77241 6.16033 7.65537 6.30364C7.6267 6.33947 7.59565 6.37052 7.5646 6.3968C7.53833 6.42068 7.49772 6.44696 7.44995 6.47562C7.36396 6.53056 7.2732 6.57833 7.18004 6.6261C6.80982 6.81002 6.38226 6.95094 6.00009 7.20413C5.79946 7.33789 5.62031 7.4812 5.46028 7.67945C5.30025 7.8777 5.21665 8.14283 5.19276 8.37691C5.16649 8.61338 5.14977 8.81402 5.06617 8.98122C4.98257 9.14364 4.83209 9.27501 4.65772 9.41594C4.48814 9.55208 4.30899 9.66912 4.11791 9.79811C3.92682 9.92709 3.72619 10.0895 3.57332 10.2878C3.42284 10.4765 3.28908 10.7129 3.21981 10.9494C3.14338 11.1859 3.10516 11.4223 3.07172 11.6445C3.0335 11.8833 2.99767 12.1198 2.91646 12.2703C2.89974 12.3013 2.87108 12.3443 2.83525 12.3873C2.80181 12.4303 2.76598 12.4757 2.72777 12.5187L2.48891 12.7862C2.3241 12.9701 2.15212 13.1684 2.0112 13.4024C1.87027 13.627 1.75562 13.9088 1.71502 14.1811C1.62664 14.7257 1.69352 15.1963 1.49766 15.5235C1.29702 15.9128 0.96501 16.3117 0.783479 16.8611C0.738096 16.9948 0.711822 17.1453 0.707045 17.303L0.709434 17.4248L0.716599 17.5179L0.728542 17.6875C0.742874 17.9144 0.747651 18.1413 0.738096 18.3659C0.723765 18.8173 0.652108 19.2425 0.53268 19.6891C0.504018 19.8038 0.470578 19.9208 0.444304 20.057C0.418029 20.186 0.398921 20.3555 0.410864 20.506C0.432361 20.8022 0.49924 21.0482 0.56612 21.2871C0.633 21.5164 0.714211 21.76 0.742874 21.92C0.745262 21.9607 0.750039 21.9344 0.742874 21.9822L0.718988 22.1589C0.704657 22.2807 0.690325 22.4025 0.680771 22.5267C0.654497 22.854 0.642554 23.186 0.695102 23.549C0.709434 23.6398 0.728542 23.7354 0.761982 23.8333C0.79781 23.9408 0.833639 24.0196 0.874244 24.0984C0.953067 24.2561 1.04144 24.3994 1.12982 24.5331L1.38301 24.9177C1.42122 24.9774 1.45705 25.0371 1.47855 25.0849C1.50721 25.1518 1.49288 25.0968 1.5311 25.2616C1.60037 25.4862 1.70069 25.6175 1.77234 25.7465C1.84878 25.8803 1.90133 25.9758 1.95626 26.1287C1.97298 26.1789 2.00403 26.2195 2.02553 26.2672C2.05897 26.3078 2.09002 26.3484 2.12346 26.3867C2.19273 26.4511 2.24528 26.4965 2.30499 26.5395C2.42203 26.6279 2.53668 26.6996 2.65133 26.7712C2.88302 26.9121 3.11471 27.0387 3.34879 27.1629C3.81456 27.409 4.28511 27.6407 4.75565 27.8723C5.06139 28.0228 5.32652 28.2521 5.63226 28.3978C6.25806 28.7012 6.88625 28.9974 7.50728 29.3055C7.73897 29.7354 7.94677 30.1797 8.16174 30.6168C8.42448 31.159 8.68245 31.7012 8.93086 32.2482C9.17449 32.7976 9.42051 33.3445 9.63071 33.9011L9.78596 34.3191L9.9245 34.7371L10.0415 35.1622C10.0917 35.3151 10.1204 35.4751 10.192 35.6232C10.4404 36.2227 10.8847 36.7554 11.4388 37.0826C11.9906 37.4146 12.5997 37.6033 13.2088 37.706C13.8179 37.8159 14.4317 37.835 15.0408 37.8231C15.6236 37.8111 16.2016 37.7514 16.7749 37.6702C16.9039 37.7968 17.0376 37.9234 17.1809 38.0381C17.6157 38.3987 18.1053 38.6973 18.6284 38.9051C19.1515 39.1153 19.7104 39.2371 20.2694 39.2801C20.4007 39.2944 20.5512 39.3064 20.6587 39.2992C20.7853 39.2968 20.9525 39.2992 21.0026 39.2992C20.9716 39.2968 20.8904 39.292 20.8092 39.2825C21.2057 39.2777 21.4899 39.2586 21.7718 39.2228C22.4835 39.1272 23.1834 38.9194 23.8355 38.6041C24.349 38.351 24.8315 38.0357 25.271 37.6678C25.8419 37.749 26.4151 37.8088 26.9955 37.8183C27.6046 37.8303 28.2185 37.8111 28.8276 37.7013C29.4366 37.5986 30.0457 37.4099 30.5975 37.0779C31.1516 36.753 31.5959 36.218 31.8443 35.6184C31.916 35.4704 31.9446 35.3103 31.9948 35.1575L32.1118 34.7323L32.2504 34.3143L32.4056 33.8963C32.6158 33.3398 32.8618 32.7928 33.1055 32.2434C33.3539 31.6964 33.6095 31.1518 33.8746 30.612C34.0848 30.1869 34.2854 29.7569 34.5076 29.3389C34.5314 29.327 34.5553 29.3126 34.5792 29.3007L36.2249 28.4743C36.8722 28.1494 37.5219 27.8246 38.1644 27.483C38.4869 27.311 38.807 27.1367 39.1246 26.9456C39.2847 26.8524 39.4423 26.7497 39.6 26.6398C39.6788 26.5849 39.7576 26.5252 39.8388 26.4535C39.9153 26.3914 40.0299 26.2577 40.0777 26.1239C40.1254 25.9758 40.1756 25.8755 40.2449 25.7465C40.3118 25.6199 40.4025 25.4909 40.4718 25.2879C40.4885 25.2401 40.5005 25.1709 40.5076 25.1303C40.5076 25.1255 40.5148 25.1088 40.522 25.0873C40.5411 25.0419 40.5721 24.9822 40.6056 24.9249C40.6772 24.8054 40.7584 24.6788 40.842 24.5475C40.9256 24.4161 41.0092 24.2776 41.0857 24.1295C41.1239 24.053 41.1597 23.979 41.1931 23.893C41.229 23.7975 41.2529 23.7043 41.2696 23.6159C41.3317 23.2624 41.3173 22.94 41.2982 22.6223C41.2863 22.4527 41.2672 22.2855 41.2481 22.1231C41.2385 22.0466 41.2242 21.9392 41.229 21.9392C41.2314 21.9153 41.2481 21.8388 41.2648 21.7743C41.3436 21.4949 41.4654 21.1796 41.5419 20.8309ZM15.048 37.589C14.4508 37.546 13.8561 37.4767 13.2852 37.3406C12.7143 37.2021 12.1578 37.0134 11.6849 36.7005C11.2048 36.4019 10.8441 35.9552 10.6363 35.4417C10.5718 35.3175 10.5479 35.1766 10.5001 35.0452L10.3712 34.5985C10.2732 34.3047 10.1705 34.0157 10.0511 33.7339C9.80985 33.1726 9.55188 32.6208 9.26764 32.0858C8.98818 31.5483 9.88628 30.7482 10.2398 31.0133C10.8274 31.4528 11.3552 31.9663 11.907 32.4464C12.9914 33.3995 14.0472 34.3955 14.9715 35.5086C15.5758 36.2108 16.0989 36.9966 16.7653 37.6559C16.1873 37.6416 15.6164 37.6392 15.048 37.589ZM33.6692 30.5069C33.3563 31.0252 33.0505 31.5483 32.7711 32.0882C32.4868 32.6232 32.2265 33.1749 31.9876 33.7363C31.8682 34.0181 31.7655 34.3071 31.6676 34.6009L31.5386 35.0476C31.4908 35.1789 31.4669 35.3199 31.4024 35.4441C31.1922 35.9576 30.834 36.4043 30.3539 36.7029C29.8809 37.0158 29.3244 37.2044 28.7535 37.343C28.1803 37.4791 27.5855 37.5484 26.9908 37.5914C26.4271 37.6416 25.8586 37.6439 25.2901 37.6607C25.529 37.46 25.7559 37.2451 25.9685 37.0158C26.2742 36.6814 26.5369 36.335 26.814 35.9982C27.0959 35.6662 27.3753 35.3294 27.6691 35.0094C28.4526 34.1375 29.2479 33.2705 30.1245 32.4894C31.0441 31.6797 32.0091 30.9225 33.0195 30.2394C33.2655 30.065 33.8292 30.249 33.6692 30.5069ZM40.9352 21.1653C40.8778 21.3683 40.8062 21.5594 40.7632 21.7911C39.5689 22.5172 38.42 23.2887 37.2855 24.0889C36.1509 24.8938 35.0402 25.7322 33.9582 26.6064C32.8762 27.4806 31.8348 28.4026 30.8244 29.358C29.8236 30.323 28.8777 31.3429 27.994 32.413C28.9064 31.3668 29.8785 30.3779 30.9056 29.444C31.9375 28.5196 33.0028 27.6311 34.1039 26.7927C35.2074 25.9543 36.3348 25.1518 37.4861 24.3827C38.5657 23.6661 39.6645 22.9734 40.7823 22.3285C40.7966 22.4431 40.8086 22.5578 40.8181 22.6724C40.8396 22.9662 40.8492 23.2672 40.7966 23.5395C40.7513 23.7903 40.5841 24.0506 40.4264 24.2991C40.3452 24.4256 40.2592 24.5522 40.178 24.6884C40.1374 24.7577 40.0968 24.8293 40.061 24.9153C40.0442 24.9607 40.0275 25.0085 40.018 25.0658C40.0108 25.0992 40.006 25.1183 39.9965 25.1446C39.9153 25.3548 39.6907 25.6534 39.6 25.9567C39.5832 25.9949 39.5689 26.0164 39.5283 26.0499C39.4877 26.0881 39.4328 26.1287 39.3826 26.1693C39.2727 26.2481 39.1581 26.3246 39.0363 26.3962C38.7974 26.5443 38.5466 26.6828 38.2958 26.8214C37.7918 27.0961 37.2807 27.3612 36.7695 27.6287C35.7066 28.1948 34.6318 28.7155 33.5736 29.3389C32.5442 30.0077 31.5863 30.7434 30.6691 31.5388C29.7519 32.3294 28.8873 33.1797 28.0776 34.0778C27.8745 34.3023 27.6739 34.5269 27.4804 34.7586C27.2822 34.9879 27.0911 35.2196 26.9048 35.4584C26.5178 35.9194 26.1834 36.4306 25.7989 36.882C25.0656 37.7395 24.0982 38.4059 23.0305 38.7881C22.3283 39.0389 21.509 39.2562 20.7829 39.2777C20.7781 39.2777 20.7757 39.2777 20.7709 39.2777C20.6802 39.2706 20.5823 39.261 20.4772 39.2514C20.3744 39.2371 20.267 39.2204 20.1666 39.2061C19.8322 39.1559 19.505 39.0866 19.1849 38.9863C18.6141 38.8 18.0862 38.5086 17.618 38.1455C17.1475 37.7849 16.7462 37.343 16.3808 36.8748C16.0201 36.4067 15.6762 35.8955 15.2964 35.4178C15.1101 35.1766 14.9214 34.9377 14.7231 34.706C14.5296 34.4695 14.329 34.2379 14.1236 34.0133C13.0774 32.8405 11.9189 31.7681 10.6864 30.7912C10.0678 30.3039 9.43007 29.8429 8.76843 29.413C8.42687 29.1861 8.07336 29.0045 7.72702 28.8206L6.68322 28.2903L4.42364 27.1797C4.04864 26.9934 3.67841 26.8047 3.31535 26.6016C3.13382 26.5013 2.95468 26.3962 2.78748 26.2863C2.70388 26.2314 2.62267 26.1741 2.54863 26.1144C2.47458 26.0475 2.43397 26.0188 2.41009 25.9543C2.33604 25.7202 2.18556 25.4742 2.08286 25.2831C2.04464 25.2091 2.01836 25.1422 2.00642 25.0825C1.9897 24.9631 1.93715 24.8556 1.89416 24.772C1.80101 24.6 1.6983 24.4495 1.60276 24.2967C1.50721 24.1462 1.41884 23.9957 1.34479 23.8405C1.30657 23.7616 1.27791 23.69 1.2588 23.6159C1.23969 23.5395 1.22536 23.4559 1.2182 23.3723C1.18476 23.0331 1.21342 22.6772 1.25403 22.3237C2.36471 22.9591 3.45867 23.6422 4.52874 24.3492C5.67525 25.1088 6.79548 25.9042 7.89183 26.7354C8.98818 27.5666 10.0439 28.448 11.071 29.3652C12.0909 30.2896 13.0559 31.2737 13.9612 32.3127C13.0846 31.2498 12.1459 30.2346 11.1522 29.2768C10.1514 28.3286 9.11478 27.4113 8.03992 26.5443C6.96268 25.6796 5.85917 24.846 4.72938 24.0506C3.60437 23.26 2.46264 22.4981 1.27791 21.7839C1.27313 21.7648 1.27075 21.7457 1.26597 21.7266C1.22059 21.5379 1.16326 21.3659 1.11071 21.1939C1.01039 20.8524 0.902907 20.5084 0.955455 20.1931C1.01278 19.8683 1.12027 19.5124 1.16804 19.1541C2.3862 19.9925 3.56854 20.881 4.71983 21.7982C5.94755 22.7775 7.13705 23.807 8.29311 24.8699C9.45395 25.9304 10.5646 27.0459 11.6299 28.202L12.4229 29.0762L13.1873 29.9767L13.5694 30.4281L13.9325 30.8939L14.6586 31.8254L13.9564 30.8772L13.6053 30.4018L13.235 29.9408L12.4946 29.0212L11.7231 28.1255C10.6841 26.9408 9.59727 25.7943 8.46031 24.7003C7.32813 23.6016 6.15774 22.5411 4.94913 21.5235C3.74768 20.5132 2.51996 19.5434 1.23253 18.6262C1.24447 18.4256 1.24686 18.2273 1.23969 18.0267C1.23014 17.8428 1.2182 17.6589 1.20148 17.4749C1.19431 17.3746 1.18476 17.3149 1.1967 17.2313C1.20148 17.1549 1.22059 17.0737 1.24447 16.9948C1.3639 16.6127 1.62186 16.2663 1.85117 15.8818C1.85355 15.877 1.85833 15.8698 1.86072 15.865C3.14099 16.9232 4.38304 18.0506 5.58687 19.2066C6.84564 20.4224 8.06142 21.6836 9.22943 22.9853C10.4046 24.2823 11.5009 25.6486 12.5543 27.0483C13.6029 28.4528 14.5511 29.9289 15.4277 31.448C14.587 29.9098 13.6721 28.4098 12.6522 26.979C11.6299 25.553 10.5599 24.1557 9.40857 22.8277C8.26445 21.4949 7.07495 20.2003 5.83767 18.9511C4.6219 17.7281 3.37746 16.5458 2.06375 15.4136C2.08286 15.3467 2.09958 15.2822 2.10913 15.2154C2.14974 14.9813 2.1569 14.7591 2.1784 14.5513C2.19751 14.3435 2.23095 14.1477 2.29783 13.9757C2.36471 13.8037 2.4698 13.6341 2.58923 13.4741C2.71105 13.3141 2.85197 13.1612 2.99767 12.9964C3.04545 12.9438 3.09322 12.8841 3.14099 12.8268C4.44036 14.0784 5.68958 15.4017 6.89342 16.756C8.15935 18.1867 9.37274 19.6652 10.5288 21.1892C11.6729 22.7202 12.7454 24.3062 13.7343 25.9424C14.6968 27.5953 15.5567 29.3079 16.2566 31.0921C15.5949 29.2935 14.7685 27.5594 13.837 25.8827C12.8791 24.2202 11.8377 22.608 10.7223 21.0482C9.59488 19.4957 8.40776 17.9861 7.16571 16.5219C5.96427 15.1127 4.72221 13.7416 3.40851 12.4231C3.41328 12.4136 3.42045 12.404 3.42284 12.3945C3.51838 12.1365 3.53749 11.9072 3.56854 11.6898C3.5972 11.4725 3.62825 11.2695 3.68319 11.0808C3.73574 10.8897 3.82173 10.7368 3.93877 10.5744C4.05342 10.4191 4.19195 10.2949 4.36154 10.1707C4.53113 10.0465 4.7246 9.91515 4.90136 9.76467C4.91808 9.75033 4.93241 9.736 4.94913 9.72406C6.17924 11.2575 7.34963 12.8555 8.46986 14.4773C9.63548 16.1732 10.7438 17.912 11.7924 19.6844C12.8505 21.4519 13.8083 23.2791 14.7088 25.1303C15.6093 26.9838 16.3784 28.8994 17.0711 30.8413C16.4166 28.8851 15.6809 26.9551 14.8163 25.0801C13.9492 23.2075 13.0248 21.3587 11.9978 19.5649C10.9802 17.7663 9.903 16.0036 8.76605 14.279C7.66253 12.6118 6.51363 10.9757 5.28591 9.38727C5.32891 9.33234 5.36713 9.27501 5.40057 9.21052C5.53671 8.96689 5.55105 8.68743 5.56538 8.48201C5.57971 8.26704 5.61315 8.10223 5.70869 7.95175C5.80184 7.80366 5.9571 7.65796 6.11713 7.53614C6.27717 7.41193 6.4587 7.31161 6.65217 7.22085C6.84564 7.13008 7.05106 7.04648 7.25409 6.94855C7.33052 6.91272 7.40696 6.86973 7.48339 6.82674C8.59168 8.64682 9.63309 10.5195 10.6291 12.4112C11.6467 14.3483 12.6045 16.3165 13.5097 18.3109C14.4245 20.3006 15.239 22.3333 16.0082 24.3827C16.7701 26.4368 17.4174 28.5316 17.9859 30.6478C17.4556 28.522 16.8465 26.4129 16.1204 24.3444C15.3895 22.2783 14.6085 20.2266 13.7295 18.2154C12.86 16.2018 11.9333 14.2122 10.9492 12.2488C9.97705 10.3188 8.9643 8.41513 7.86795 6.5425C8.0232 6.35619 8.11875 6.15555 8.21429 5.96447C8.30983 5.76383 8.40299 5.56797 8.50808 5.37927C8.61557 5.19535 8.73022 5.00665 8.88309 4.88006C9.04073 4.74869 9.24137 4.6627 9.44679 4.6006C9.8194 4.48356 10.2159 4.4549 10.61 4.37607L10.5766 4.39279C11.5583 6.4374 12.4253 8.55605 13.2374 10.6867C14.0424 12.822 14.7972 14.9765 15.4683 17.1596C16.1395 19.3428 16.7725 21.5379 17.3099 23.7569C17.5966 24.8628 17.8354 25.9806 18.0862 27.0937C18.3346 28.2091 18.5353 29.3341 18.7622 30.4544C18.5544 29.3318 18.3728 28.202 18.1435 27.0817C17.9118 25.9615 17.6921 24.8413 17.4246 23.7282C16.9254 21.4973 16.3306 19.2879 15.6953 17.088C15.0599 14.8905 14.3409 12.7169 13.5718 10.5601C12.7932 8.40557 11.9667 6.27498 11.0065 4.18021L10.9874 4.18977C11.0567 4.1205 11.1164 4.04406 11.1713 3.97002C11.2979 3.80043 11.415 3.62845 11.5487 3.4732C11.7326 3.25106 11.95 3.03609 12.208 2.87845C12.2701 2.84023 12.3346 2.80679 12.4014 2.77574C12.5591 2.72319 12.7311 2.68497 12.8959 2.67542C13.3473 2.63959 13.794 2.71602 14.255 2.74469H14.2526C14.8975 4.98277 15.4683 7.25429 16.0034 9.53059C16.5336 11.8069 17.0329 14.0927 17.4795 16.3881C17.9262 18.6836 18.3466 20.9861 18.7072 23.2959C19.0846 25.6056 19.3927 27.9249 19.6842 30.2466C19.431 27.9201 19.1634 25.5937 18.8243 23.2768C18.5018 20.9575 18.122 18.6477 17.7136 16.3428C17.3075 14.0378 16.8465 11.74 16.3521 9.44938C15.8577 7.17547 15.3298 4.91111 14.7231 2.6587C14.7828 2.63004 14.8402 2.5966 14.8927 2.55838C15.0695 2.43417 15.2175 2.28369 15.3632 2.1356C15.6499 1.8442 15.9269 1.52174 16.2661 1.36171C16.5981 1.19929 16.9731 1.36649 17.3386 1.54085C17.6515 1.68894 17.9978 1.85853 18.3896 1.89675L19.4835 15.9893L20.0138 23.1167C20.1834 25.4933 20.3577 27.87 20.4843 30.249C20.3983 27.8676 20.2622 25.4886 20.1332 23.1096L19.7224 15.9749L18.8625 1.87286C19.0058 1.83942 19.142 1.79165 19.2662 1.73433C19.4716 1.63878 19.6507 1.51936 19.8251 1.40709C20.169 1.18257 20.4963 0.991484 20.845 0.962821C21.1985 0.93177 21.5305 1.03209 21.8458 1.24228C22.1683 1.44292 22.4835 1.74149 22.9445 1.92302C23.0138 1.95168 23.0879 1.97318 23.1619 1.99229L22.2471 15.9701L21.8076 23.1072C21.669 25.4862 21.5233 27.8652 21.4374 30.2466C21.564 27.8676 21.7503 25.4909 21.927 23.1143L22.4859 15.9869L23.6324 2.03528C23.7208 2.03051 23.8092 2.02334 23.8928 2.00662C24.2009 1.95168 24.4684 1.83465 24.7145 1.73194C24.9581 1.62684 25.1874 1.53369 25.3713 1.51219C25.4621 1.50264 25.5337 1.51697 25.6054 1.54085C25.6818 1.5719 25.7678 1.62445 25.8538 1.69133C26.0258 1.82987 26.1978 2.01618 26.3745 2.21204C26.5537 2.4079 26.74 2.62048 27.0027 2.81396C27.0696 2.86173 27.1484 2.9095 27.2368 2.94771C26.6731 5.10697 26.1786 7.27579 25.7129 9.45415C25.228 11.7448 24.7766 14.0402 24.3753 16.3475C23.974 18.6525 23.5966 20.9622 23.2789 23.2815C22.9445 25.5984 22.677 27.9225 22.4262 30.2466C22.7176 27.9249 23.0257 25.608 23.3984 23.2982C23.7566 20.9885 24.1699 18.6859 24.6118 16.3905C25.0512 14.0951 25.5433 11.8093 26.064 9.53059C26.5656 7.35939 27.1006 5.19057 27.7002 3.04803C27.8076 3.05042 27.908 3.04326 28.0035 3.03609C28.2949 3.00743 28.5457 2.95966 28.7846 2.94533C29.0234 2.92622 29.236 2.94771 29.4247 3.01221C29.4725 3.02654 29.5155 3.05281 29.5608 3.06953C29.6038 3.09819 29.6444 3.11969 29.6898 3.15074C29.783 3.21762 29.8738 3.28928 29.955 3.37049C30.1245 3.52813 30.2655 3.71444 30.416 3.92941C30.4924 4.0369 30.5688 4.15155 30.6763 4.27575C30.7336 4.34263 30.8077 4.41668 30.8961 4.48117C29.9956 6.47562 29.205 8.50351 28.4669 10.5529C27.6978 12.7074 26.9788 14.8834 26.3435 17.0808C25.7105 19.2783 25.1157 21.4877 24.6141 23.721C24.3466 24.8317 24.1269 25.9543 23.8952 27.0746C23.6659 28.1948 23.4844 29.3222 23.2765 30.4472C23.5035 29.327 23.7041 28.202 23.9525 27.0865C24.2033 25.971 24.4422 24.8556 24.7288 23.7497C25.2662 21.5307 25.8992 19.3332 26.5704 17.1525C27.2416 14.9693 27.9963 12.8149 28.8013 10.6795C29.5752 8.64682 30.4016 6.6261 31.3284 4.66987C31.4215 4.69136 31.5075 4.70331 31.5911 4.71764L31.9876 4.77258C32.2408 4.8084 32.4868 4.8514 32.6946 4.92783C32.8021 4.96366 32.8929 5.01143 32.9717 5.06398C33.0505 5.1213 33.0959 5.16669 33.1747 5.2694C33.3157 5.4557 33.4375 5.67306 33.5593 5.90475C33.6357 6.04807 33.7146 6.19855 33.8077 6.3538C33.877 6.46606 33.9582 6.58549 34.0752 6.69775C33.0147 8.51784 32.0306 10.369 31.0848 12.2464C30.1007 14.2074 29.1739 16.1994 28.3045 18.213C27.4255 20.2242 26.6444 22.2759 25.9135 24.342C25.1874 26.4129 24.5783 28.5196 24.0481 30.6455C24.6165 28.5292 25.2638 26.4344 26.0258 24.3803C26.7925 22.3309 27.6094 20.2958 28.5242 18.3085C29.4295 16.3165 30.3897 14.3483 31.4048 12.4088C32.3746 10.5648 33.3921 8.73759 34.4693 6.9605C34.7106 7.0847 34.9494 7.17069 35.174 7.25907C35.4749 7.37372 35.7377 7.49792 35.9694 7.67706C36.2178 7.86815 36.3635 8.04013 36.4136 8.31003C36.4423 8.44379 36.4471 8.6086 36.4829 8.79491C36.5163 8.98122 36.5952 9.18425 36.717 9.34189C36.7265 9.35622 36.7385 9.36817 36.7504 9.3825C35.5203 10.9733 34.3738 12.6094 33.2679 14.279C32.1309 16.0036 31.0537 17.7687 30.0362 19.5649C29.0091 21.3563 28.0847 23.2075 27.2177 25.0801C26.353 26.9551 25.6173 28.8875 24.9629 30.8413C25.6556 28.8994 26.4271 26.9838 27.3252 25.1303C28.228 23.2791 29.1835 21.4519 30.2416 19.6844C31.2902 17.912 32.3985 16.1756 33.5641 14.4773C34.6867 12.8483 35.8595 11.2456 37.0944 9.70973C37.0991 9.71451 37.1039 9.71928 37.1087 9.72167C37.2425 9.82916 37.3834 9.92948 37.5219 10.0226C37.8014 10.2065 38.0307 10.3714 38.1979 10.6222C38.3746 10.8586 38.4535 11.1453 38.506 11.4605C38.549 11.697 38.5681 11.9454 38.6398 12.2106C38.6517 12.2583 38.6708 12.3085 38.6899 12.3586C37.3499 13.6962 36.0888 15.0888 34.8682 16.5219C33.6262 17.9861 32.4391 19.4957 31.3117 21.0482C30.1938 22.608 29.1524 24.2226 28.197 25.8827C27.2654 27.5594 26.439 29.2935 25.7774 31.0921C26.4772 29.3079 27.3371 27.5953 28.2997 25.9424C29.2886 24.3062 30.3586 22.7202 31.5051 21.1892C32.6612 19.6652 33.8722 18.1867 35.1405 16.756C36.3635 15.3802 37.6318 14.0354 38.9551 12.7671C38.9933 12.8125 39.0315 12.8579 39.0697 12.9032C39.4017 13.2735 39.7218 13.6341 39.8388 14.0689C39.8961 14.2862 39.9105 14.5227 39.9224 14.7711C39.9344 14.9693 39.9439 15.1795 39.9989 15.3897C38.6756 16.5267 37.4216 17.7186 36.1987 18.9511C34.9614 20.2003 33.7719 21.4949 32.6278 22.8277C31.4765 24.1557 30.4088 25.553 29.3841 26.979C28.3642 28.4098 27.4494 29.9098 26.6086 31.448C27.4852 29.9289 28.4334 28.4528 29.482 27.0483C30.5354 25.6486 31.6317 24.2823 32.8069 22.9853C33.9773 21.6836 35.1907 20.4224 36.4495 19.2066C37.6581 18.0458 38.9049 16.9136 40.1899 15.8507C40.2616 15.9821 40.338 16.1039 40.4121 16.2281C40.5387 16.4383 40.6605 16.6485 40.7465 16.8635C40.7895 16.971 40.8181 17.0784 40.8372 17.1859C40.8516 17.2958 40.8444 17.3866 40.8301 17.5227C40.8038 17.7735 40.7942 18.0267 40.7919 18.2775C40.7919 18.3921 40.7966 18.5068 40.8014 18.6238C39.514 19.5387 38.2863 20.5108 37.0848 21.5212C35.8762 22.5387 34.7058 23.5992 33.5736 24.6979C32.4367 25.7919 31.3523 26.9384 30.3109 28.1231L29.5394 29.0189L28.7989 29.9384L28.4287 30.3994L28.0776 30.8748L27.3753 31.823L28.1014 30.8915L28.4645 30.4257L28.8467 29.9743L29.611 29.0738L30.404 28.1996C31.4717 27.0435 32.5824 25.9281 33.7408 24.8675C34.8969 23.8022 36.0864 22.7752 37.3141 21.7958C38.4654 20.8762 39.6501 19.9877 40.8611 19.1613C40.8922 19.3691 40.9304 19.5769 40.9806 19.7799C41.0379 20.0235 41.1024 20.2528 41.0833 20.4678C41.0689 20.6971 41.0044 20.9312 40.9352 21.1653Z" fill="#ECC4AD"/>
</g>
<defs>
<clipPath id="clip0_258_1461">
<rect width="41.1931" height="38.6588" fill="white" transform="translate(0.40332 0.645752)"/>
</clipPath>
</defs>
</svg>
