<svg width="42" height="40" viewBox="0 0 42 40" fill="none" xmlns="http://www.w3.org/2000/svg">
<g clip-path="url(#clip0_258_1501)">
<path d="M41.6539 20.6746C41.6921 20.5003 41.7232 20.3044 41.7065 20.087C41.6874 19.884 41.6468 19.7168 41.6109 19.5592C41.5393 19.2463 41.4867 18.9572 41.4628 18.6539C41.439 18.3529 41.4413 18.0472 41.4605 17.7415C41.4676 17.5838 41.4867 17.4429 41.5011 17.2709C41.5226 17.0368 41.4796 16.8195 41.4198 16.6332C41.2933 16.2606 41.1069 15.9668 40.9421 15.6873C40.8585 15.5512 40.7797 15.4174 40.7224 15.298C40.6675 15.1833 40.6412 15.0902 40.6197 14.9516C40.5695 14.6316 40.6054 14.1992 40.4716 13.7358C40.3307 13.2653 40.0417 12.9094 39.7741 12.6084C39.6404 12.458 39.509 12.3194 39.4015 12.1857C39.3776 12.1546 39.3466 12.114 39.3322 12.0925C39.3179 12.0734 39.3036 12.0471 39.2916 12.0185C39.2654 11.9564 39.2415 11.8823 39.2248 11.7963C39.1483 11.4572 39.1221 11.0248 38.9501 10.6044C38.9071 10.4993 38.8521 10.3943 38.7924 10.2963C38.7327 10.2056 38.6682 10.1148 38.5942 10.0288C38.4485 9.85444 38.2693 9.71112 38.0997 9.59647C37.9302 9.48182 37.7725 9.3815 37.6244 9.27163C37.4811 9.16176 37.3235 9.03516 37.2327 8.92529C37.1372 8.80586 37.0822 8.67927 37.0559 8.50251C37.0273 8.33054 37.0201 8.11557 36.9485 7.89104C36.8816 7.66652 36.7335 7.46827 36.5759 7.32018C36.423 7.17447 36.251 7.04788 36.0695 6.94517C35.6395 6.69676 35.2024 6.49851 34.8298 6.30265C34.7701 6.27399 34.7008 6.23338 34.6531 6.20472C34.6148 6.18083 34.5742 6.14261 34.5336 6.09723C34.4524 6.00647 34.3784 5.88465 34.3043 5.75806C34.1586 5.50248 34.0177 5.22302 33.8362 4.95789C33.7406 4.82413 33.6546 4.69992 33.5137 4.57094C33.3752 4.4539 33.2199 4.37269 33.0647 4.31059C32.7518 4.19355 32.4389 4.14817 32.1355 4.10995L31.6865 4.05501C31.5408 4.03352 31.4046 4.00963 31.3138 3.94514C31.1108 3.80899 30.9508 3.52236 30.7597 3.28351C30.5686 3.03749 30.3417 2.81057 30.0814 2.63143C29.8186 2.44274 29.489 2.34719 29.1761 2.34242C28.9157 2.33286 28.6578 2.36391 28.4094 2.39735C28.161 2.4284 27.9125 2.46184 27.688 2.42363C27.4826 2.37824 27.2963 2.21821 27.1267 2.04385C26.9547 1.86948 26.7923 1.6784 26.6132 1.49686C26.4364 1.31772 26.2453 1.14097 26.0065 1.01438C25.8847 0.959439 25.7461 0.906891 25.6052 0.909279C25.4667 0.904502 25.3305 0.928388 25.2063 0.966605C24.7095 1.12186 24.301 1.41088 23.8281 1.48015C22.8273 1.67123 22.2039 0.453064 21.1195 0.49367C20.723 0.49367 20.3408 0.651315 20.0207 0.863897C19.6959 1.06931 19.3997 1.31772 19.0486 1.43476C18.6999 1.55658 18.3177 1.50642 17.9714 1.37266C17.6178 1.24607 17.2858 1.04065 16.8893 0.966605C16.6935 0.928388 16.4737 0.952273 16.2946 1.04782C16.1131 1.13858 15.9626 1.26756 15.824 1.40132C15.5446 1.66884 15.3105 1.97458 15.031 2.22299C14.8901 2.34242 14.7349 2.45468 14.5581 2.47617C14.379 2.49767 14.1855 2.47617 13.9968 2.46423C13.617 2.43557 13.2277 2.40691 12.8479 2.47856C12.7595 2.49528 12.664 2.51917 12.5756 2.54783C12.4944 2.57172 12.418 2.5956 12.3439 2.62665C12.0979 2.73175 11.8781 2.89417 11.6894 3.08526C11.4984 3.27395 11.3407 3.49131 11.1855 3.69673C11.0899 3.81855 10.9872 3.95231 10.8869 4.00246C10.7794 4.05262 10.6098 4.07173 10.4569 4.09084C10.1417 4.12906 9.81442 4.15772 9.48958 4.24132C9.32716 4.28193 9.16235 4.34164 9.0047 4.42524C8.92588 4.46585 8.85183 4.52078 8.77779 4.57811C8.70852 4.6426 8.64164 4.71187 8.59387 4.77875C8.38368 5.04627 8.22842 5.34484 8.08033 5.62669C7.98001 5.81538 7.88447 6.00408 7.76743 6.14739C7.73876 6.18322 7.70771 6.21427 7.67666 6.24055C7.65039 6.26443 7.60978 6.29071 7.56201 6.31937C7.47602 6.37431 7.38526 6.42208 7.2921 6.46985C6.92188 6.65377 6.49432 6.79469 6.11215 7.04788C5.91152 7.18164 5.73237 7.32495 5.57234 7.5232C5.41231 7.72145 5.32871 7.98658 5.30482 8.22066C5.27855 8.45713 5.26183 8.65777 5.17823 8.82497C5.09463 8.98739 4.94415 9.11876 4.76978 9.25969C4.6002 9.39583 4.42105 9.51287 4.22997 9.64186C4.03888 9.77084 3.83825 9.93326 3.68538 10.1315C3.5349 10.3202 3.40114 10.5567 3.33187 10.7931C3.25544 11.0296 3.21722 11.2661 3.18378 11.4882C3.14556 11.7271 3.10973 11.9635 3.02852 12.114C3.0118 12.1451 2.98314 12.1881 2.94731 12.2311C2.91387 12.274 2.87804 12.3194 2.83983 12.3624L2.60097 12.6299C2.43616 12.8139 2.26418 13.0121 2.12326 13.2462C1.98233 13.4707 1.86768 13.7526 1.82708 14.0249C1.7387 14.5695 1.80558 15.04 1.60972 15.3672C1.40908 15.7566 1.07707 16.1555 0.89554 16.7048C0.850157 16.8386 0.823883 16.9891 0.819106 17.1467L0.821494 17.2685L0.82866 17.3617L0.840603 17.5313C0.854934 17.7582 0.859711 17.9851 0.850157 18.2096C0.835826 18.6611 0.764169 19.0862 0.644741 19.5329C0.616078 19.6475 0.582638 19.7646 0.556364 19.9007C0.53009 20.0297 0.510981 20.1993 0.522924 20.3498C0.544421 20.646 0.611301 20.892 0.678181 21.1308C0.74506 21.3601 0.826271 21.6038 0.854934 21.7638C0.857323 21.8044 0.8621 21.7781 0.854934 21.8259L0.831048 22.0027C0.816717 22.1245 0.802386 22.2463 0.792832 22.3705C0.766557 22.6977 0.754615 23.0297 0.807163 23.3928C0.821494 23.4836 0.840603 23.5791 0.874043 23.677C0.909871 23.7845 0.945699 23.8633 0.986305 23.9422C1.06513 24.0998 1.1535 24.2431 1.24188 24.3769L1.49507 24.7614C1.53329 24.8212 1.56911 24.8809 1.59061 24.9286C1.61927 24.9955 1.60494 24.9406 1.64316 25.1054C1.71243 25.3299 1.81275 25.4613 1.8844 25.5903C1.96084 25.724 2.01339 25.8196 2.06832 25.9724C2.08504 26.0226 2.11609 26.0632 2.13759 26.111C2.17103 26.1516 2.20208 26.1922 2.23552 26.2304C2.30479 26.2949 2.35734 26.3403 2.41705 26.3833C2.53409 26.4717 2.64874 26.5433 2.76339 26.615C2.99508 26.7559 3.22677 26.8825 3.46085 27.0067C3.92662 27.2527 4.39717 27.4844 4.86771 27.7161C5.17345 27.8666 5.43858 28.0959 5.74432 28.2416C6.37012 28.5449 6.99831 28.8411 7.61934 29.1492C7.85103 29.5792 8.05883 30.0234 8.2738 30.4605C8.53654 31.0028 8.79451 31.545 9.04292 32.0919C9.28655 32.6413 9.53257 33.1883 9.74277 33.7448L9.89802 34.1628L10.0366 34.5808L10.1536 35.006C10.2038 35.1588 10.2324 35.3189 10.3041 35.467C10.5525 36.0665 10.9968 36.5991 11.5509 36.9264C12.1027 37.2584 12.7117 37.4471 13.3208 37.5498C13.9299 37.6597 14.5438 37.6788 15.1529 37.6668C15.7357 37.6549 16.3137 37.5952 16.8869 37.514C17.0159 37.6406 17.1497 37.7672 17.293 37.8818C17.7277 38.2425 18.2174 38.541 18.7405 38.7489C19.2636 38.959 19.8225 39.0809 20.3814 39.1239C20.5128 39.1382 20.6633 39.1501 20.7707 39.143C20.8973 39.1406 21.0645 39.143 21.1147 39.143C21.0836 39.1406 21.0024 39.1358 20.9212 39.1262C21.3177 39.1215 21.602 39.1024 21.8838 39.0665C22.5956 38.971 23.2955 38.7632 23.9475 38.4479C24.4611 38.1947 24.9436 37.8794 25.3831 37.5116C25.9539 37.5928 26.5272 37.6525 27.1076 37.6621C27.7167 37.674 28.3305 37.6549 28.9396 37.545C29.5487 37.4423 30.1578 37.2536 30.7095 36.9216C31.2637 36.5968 31.708 36.0617 31.9564 35.4622C32.028 35.3141 32.0567 35.1541 32.1069 35.0012L32.2239 34.576L32.3624 34.158L32.5177 33.74C32.7279 33.1835 32.9739 32.6365 33.2175 32.0872C33.4659 31.5402 33.7215 30.9956 33.9866 30.4558C34.1968 30.0306 34.3975 29.6007 34.6196 29.1827C34.6435 29.1707 34.6674 29.1564 34.6913 29.1445L36.337 28.318C36.9843 27.9932 37.634 27.6683 38.2765 27.3268C38.599 27.1548 38.919 26.9804 39.2367 26.7893C39.3967 26.6962 39.5544 26.5935 39.712 26.4836C39.7908 26.4287 39.8697 26.3689 39.9509 26.2973C40.0273 26.2352 40.142 26.1014 40.1897 25.9677C40.2375 25.8196 40.2877 25.7193 40.3569 25.5903C40.4238 25.4637 40.5146 25.3347 40.5839 25.1317C40.6006 25.0839 40.6125 25.0146 40.6197 24.974C40.6197 24.9692 40.6268 24.9525 40.634 24.931C40.6531 24.8856 40.6842 24.8259 40.7176 24.7686C40.7893 24.6492 40.8705 24.5226 40.9541 24.3912C41.0377 24.2598 41.1213 24.1213 41.1977 23.9732C41.2359 23.8968 41.2718 23.8227 41.3052 23.7368C41.341 23.6412 41.3649 23.5481 41.3816 23.4597C41.4437 23.1062 41.4294 22.7837 41.4103 22.466C41.3984 22.2964 41.3792 22.1292 41.3601 21.9668C41.3506 21.8904 41.3362 21.7829 41.341 21.7829C41.3434 21.759 41.3601 21.6826 41.3769 21.6181C41.4557 21.3386 41.5775 21.0233 41.6539 20.6746ZM15.16 37.4328C14.5629 37.3898 13.9681 37.3205 13.3973 37.1843C12.8264 37.0458 12.2699 36.8571 11.7969 36.5442C11.3168 36.2456 10.9562 35.799 10.7484 35.2854C10.6839 35.1612 10.66 35.0203 10.6122 34.8889L10.4832 34.4423C10.3853 34.1485 10.2826 33.8595 10.1632 33.5776C9.92191 33.0163 9.66394 32.4646 9.3797 31.9295C9.10024 31.3921 9.99834 30.5919 10.3518 30.857C10.9394 31.2965 11.4673 31.8101 12.0191 32.2902C13.1035 33.2432 14.1592 34.2393 15.0836 35.3523C15.6879 36.0546 16.211 36.8404 16.8774 37.4996C16.2994 37.4853 15.7285 37.4829 15.16 37.4328ZM33.7812 30.3507C33.4683 30.869 33.1626 31.3921 32.8831 31.9319C32.5989 32.4669 32.3385 33.0187 32.0997 33.58C31.9803 33.8619 31.8776 34.1509 31.7796 34.4447L31.6506 34.8913C31.6029 35.0227 31.579 35.1636 31.5145 35.2878C31.3043 35.8014 30.946 36.248 30.4659 36.5466C29.993 36.8595 29.4364 37.0482 28.8656 37.1867C28.2923 37.3229 27.6976 37.3921 27.1028 37.4351C26.5391 37.4853 25.9706 37.4877 25.4022 37.5044C25.641 37.3038 25.8679 37.0888 26.0805 36.8595C26.3863 36.5251 26.649 36.1788 26.9261 35.842C27.2079 35.51 27.4874 35.1732 27.7812 34.8531C28.5646 33.9813 29.36 33.1142 30.2366 32.3332C31.1562 31.5235 32.1212 30.7663 33.1315 30.0832C33.3776 29.9088 33.9413 30.0927 33.7812 30.3507ZM41.0472 21.009C40.9899 21.212 40.9183 21.4031 40.8753 21.6348C39.681 22.3609 38.5321 23.1324 37.3975 23.9326C36.2629 24.7376 35.1523 25.5759 34.0702 26.4502C32.9882 27.3244 31.9468 28.2464 30.9365 29.2018C29.9357 30.1668 28.9898 31.1867 28.106 32.2567C29.0184 31.2106 29.9906 30.2217 31.0177 29.2878C32.0495 28.3634 33.1148 27.4748 34.216 26.6365C35.3195 25.7981 36.4469 24.9955 37.5982 24.2264C38.6778 23.5098 39.7765 22.8172 40.8944 22.1722C40.9087 22.2869 40.9206 22.4015 40.9302 22.5162C40.9517 22.81 40.9612 23.1109 40.9087 23.3832C40.8641 23.6298 40.7017 23.8857 40.5464 24.1303C40.5438 24.1345 40.5411 24.1386 40.5385 24.1428C40.4573 24.2694 40.3713 24.396 40.2901 24.5321C40.2495 24.6014 40.2088 24.6731 40.173 24.7591C40.1563 24.8044 40.1396 24.8522 40.13 24.9095C40.1229 24.943 40.1181 24.9621 40.1085 24.9884C40.0273 25.1985 39.8028 25.4971 39.712 25.8005C39.6953 25.8387 39.681 25.8602 39.6404 25.8936C39.5998 25.9318 39.5448 25.9724 39.4947 26.013C39.3848 26.0919 39.2701 26.1683 39.1483 26.24C38.9095 26.3881 38.6587 26.5266 38.4079 26.6651C37.9039 26.9398 37.3927 27.2049 36.8816 27.4725C35.8187 28.0385 34.7438 28.5593 33.6857 29.1827C32.6562 29.8515 31.6984 30.5871 30.7812 31.3825C29.864 32.1731 28.9993 33.0235 28.1896 33.9216C27.9866 34.1461 27.7859 34.3706 27.5925 34.6023C27.3942 34.8316 27.2031 35.0633 27.0168 35.3022C26.6299 35.7632 26.2955 36.2743 25.9109 36.7257C25.1776 37.5832 24.2103 38.2496 23.1426 38.6318C22.4404 38.8826 21.6211 39.1 20.895 39.1215C20.8902 39.1215 20.8878 39.1215 20.883 39.1215C20.7922 39.1143 20.6943 39.1047 20.5892 39.0952C20.4865 39.0809 20.379 39.0641 20.2787 39.0498C19.9443 38.9997 19.6171 38.9304 19.297 38.8301C18.7261 38.6438 18.1983 38.3524 17.7301 37.9893C17.2596 37.6286 16.8583 37.1867 16.4928 36.7186C16.1322 36.2504 15.7882 35.7393 15.4084 35.2616C15.2221 35.0203 15.0334 34.7815 14.8352 34.5498C14.6417 34.3133 14.4411 34.0816 14.2356 33.8571C13.1895 32.6843 12.031 31.6118 10.7985 30.6349C10.1799 30.1476 9.54213 29.6867 8.8805 29.2567C8.53893 29.0298 8.18542 28.8483 7.83908 28.6644L6.79528 28.1341L4.53571 27.0234C4.1607 26.8371 3.79047 26.6484 3.42741 26.4454C3.24588 26.3451 3.06674 26.24 2.89954 26.1301C2.81594 26.0752 2.73473 26.0178 2.66069 25.9581C2.58664 25.8912 2.54603 25.8626 2.52215 25.7981C2.4481 25.564 2.29762 25.318 2.19492 25.1269C2.1567 25.0528 2.13043 24.986 2.11848 24.9263C2.10176 24.8068 2.04921 24.6993 2.00622 24.6157C1.91307 24.4438 1.81036 24.2933 1.71482 24.1404C1.61927 23.9899 1.5309 23.8395 1.45685 23.6842C1.41863 23.6054 1.38997 23.5337 1.37086 23.4597C1.35175 23.3832 1.33742 23.2996 1.33026 23.216C1.29682 22.8769 1.32548 22.521 1.36609 22.1675C2.47677 22.8028 3.57073 23.486 4.6408 24.193C5.78731 24.9525 6.90755 25.7479 8.00389 26.5791C9.10024 27.4104 10.156 28.2917 11.1831 29.2089C12.203 30.1333 13.168 31.1174 14.0732 32.1564C13.1966 31.0935 12.2579 30.0784 11.2643 29.1206C10.2635 28.1723 9.22684 27.2551 8.15198 26.3881C7.07474 25.5234 5.97123 24.6898 4.84144 23.8944C3.71643 23.1038 2.5747 22.3418 1.38997 21.6277C1.38519 21.6085 1.38281 21.5894 1.37803 21.5703C1.33265 21.3816 1.27532 21.2097 1.22277 21.0377C1.12245 20.6961 1.01497 20.3522 1.06752 20.0369C1.12484 19.712 1.23233 19.3561 1.2801 18.9978C2.49826 19.8362 3.6806 20.7248 4.83189 21.642C6.05961 22.6213 7.24911 23.6508 8.40517 24.7137C9.56601 25.7742 10.6767 26.8897 11.742 28.0457L12.535 28.9199L13.2993 29.8204L13.6815 30.2719L14.0446 30.7376L14.7707 31.6692L14.0684 30.7209L13.7173 30.2456L13.3471 29.7846L12.6066 28.865L11.8351 27.9693C10.7961 26.7846 9.70933 25.638 8.57237 24.5441C7.44019 23.4453 6.2698 22.3848 5.06119 21.3673C3.85974 20.3569 2.63202 19.3872 1.34459 18.47C1.35653 18.2693 1.35892 18.0711 1.35175 17.8704C1.3422 17.6865 1.33026 17.5026 1.31354 17.3187C1.30637 17.2184 1.29682 17.1587 1.30876 17.0751C1.31354 16.9986 1.33265 16.9174 1.35653 16.8386C1.47596 16.4564 1.73392 16.1101 1.96323 15.7255C1.96561 15.7207 1.97039 15.7136 1.97278 15.7088C3.25305 16.7669 4.4951 17.8943 5.69893 19.0504C6.95771 20.2662 8.17348 21.5273 9.34149 22.8291C10.5167 24.1261 11.613 25.4923 12.6664 26.892C13.7149 28.2965 14.6632 29.7726 15.5398 31.2918C14.699 29.7535 13.7842 28.2535 12.7643 26.8228C11.742 25.3968 10.6719 23.9995 9.52063 22.6715C8.37651 21.3386 7.18701 20.044 5.94973 18.7948C4.73396 17.5719 3.48952 16.3895 2.17581 15.2574C2.19492 15.1905 2.21164 15.126 2.22119 15.0591C2.2618 14.825 2.26896 14.6029 2.29046 14.3951C2.30957 14.1873 2.34301 13.9914 2.40989 13.8194C2.47677 13.6475 2.58186 13.4779 2.70129 13.3178C2.82311 13.1578 2.96403 13.0049 3.10973 12.8401C3.15751 12.7876 3.20528 12.7279 3.25305 12.6706C4.55243 13.9222 5.80164 15.2454 7.00548 16.5997C8.27141 18.0305 9.4848 19.509 10.6409 21.0329C11.785 22.564 12.8574 24.15 13.8463 25.7861C14.8089 27.439 15.6688 29.1516 16.3686 30.9359C15.707 29.1373 14.8806 27.4032 13.949 25.7264C12.9912 24.064 11.9498 22.4517 10.8343 20.892C9.70694 19.3394 8.51982 17.8298 7.27777 16.3657C6.07633 14.9564 4.83428 13.5854 3.52057 12.2669C3.52534 12.2573 3.53251 12.2478 3.5349 12.2382C3.63044 11.9803 3.64955 11.751 3.6806 11.5336C3.70926 11.3162 3.74031 11.1132 3.79525 10.9245C3.8478 10.7334 3.93379 10.5806 4.05083 10.4181C4.16548 10.2629 4.30401 10.1387 4.4736 10.0145C4.64319 9.89027 4.83666 9.7589 5.01342 9.60842C5.03014 9.59408 5.04447 9.57975 5.06119 9.56781C6.2913 11.1013 7.46169 12.6992 8.58193 14.321C9.74754 16.0169 10.8558 17.7558 11.9044 19.5281C12.9625 21.2956 13.9204 23.1229 14.8208 24.974C15.7213 26.8275 16.4904 28.7432 17.1831 30.6851C16.5287 28.7288 15.793 26.7989 14.9283 24.9239C14.0613 23.0512 13.1369 21.2025 12.1098 19.4087C11.0923 17.6101 10.0151 15.8473 8.87811 14.1228C7.77459 12.4556 6.6257 10.8194 5.39798 9.23102C5.44097 9.17609 5.47919 9.11876 5.51263 9.05427C5.64877 8.81064 5.66311 8.53118 5.67744 8.32576C5.69177 8.11079 5.72521 7.94598 5.82075 7.7955C5.9139 7.64741 6.06916 7.50171 6.22919 7.37989C6.38923 7.25568 6.57076 7.15536 6.76423 7.0646C6.9577 6.97383 7.16312 6.89023 7.36615 6.7923C7.44258 6.75647 7.51902 6.71348 7.59545 6.67049C8.70374 8.49057 9.74515 10.3632 10.7412 12.2549C11.7587 14.1921 12.7165 16.1602 13.6218 18.1547C14.5366 20.1444 15.3511 22.177 16.1202 24.2264C16.8822 26.2806 17.5295 28.3753 18.0979 30.4916C17.5677 28.3658 16.9586 26.2567 16.2325 24.1882C15.5016 22.1221 14.7205 20.0703 13.8415 18.0591C12.9721 16.0456 12.0453 14.0559 11.0613 12.0925C10.0891 10.1626 9.07636 8.25888 7.98001 6.38625C8.13527 6.19994 8.23081 5.9993 8.32635 5.80822C8.32706 5.80674 8.32776 5.80525 8.32847 5.80377C8.42327 5.60469 8.51582 5.41032 8.62014 5.22302C8.72763 5.0391 8.84228 4.8504 8.99515 4.72381C9.15279 4.59244 9.35343 4.50645 9.55885 4.44435C9.93146 4.32731 10.328 4.29865 10.7221 4.21982L10.6886 4.23654C11.6703 6.28115 12.5374 8.3998 13.3495 10.5304C14.1544 12.6658 14.9092 14.8203 15.5804 17.0034C16.2516 19.1865 16.8846 21.3816 17.422 23.6006C17.7086 24.7065 17.9475 25.8244 18.1983 26.9374C18.4467 28.0529 18.6473 29.1779 18.8742 30.2981C18.6664 29.1755 18.4849 28.0457 18.2556 26.9255C18.0239 25.8052 17.8042 24.685 17.5366 23.5719C17.0374 21.341 16.4427 19.1316 15.8073 16.9317C15.172 14.7343 14.453 12.5607 13.6839 10.4038C12.9052 8.24932 12.0788 6.11873 11.1186 4.02396L11.0995 4.03352C11.1687 3.96425 11.2285 3.88781 11.2834 3.81377C11.41 3.64418 11.527 3.4722 11.6608 3.31695C11.8447 3.09481 12.0621 2.87984 12.32 2.7222C12.3821 2.68398 12.4466 2.65054 12.5135 2.61949C12.6711 2.56694 12.8431 2.52872 13.0079 2.51917C13.4594 2.48334 13.906 2.55977 14.367 2.58844H14.3646C15.0095 4.82652 15.5804 7.09804 16.1154 9.37434C16.6457 11.6506 17.1449 13.9365 17.5916 16.2319C18.0382 18.5273 18.4586 20.8299 18.8193 23.1396C19.1967 25.4493 19.5048 27.7686 19.7962 30.0903C19.543 27.7639 19.2755 25.4374 18.9363 23.1205C18.6139 20.8012 18.2341 18.4915 17.8257 16.1865C17.4196 13.8816 16.9586 11.5838 16.4642 9.29313C15.9697 7.01922 15.4419 4.75486 14.8352 2.50245C14.8949 2.47379 14.9522 2.44035 15.0048 2.40213C15.1815 2.27792 15.3296 2.12744 15.4753 1.97935C15.7619 1.68795 16.039 1.36549 16.3782 1.20546C16.7102 1.04304 17.0852 1.21024 17.4506 1.3846C17.7635 1.53269 18.1099 1.70228 18.5016 1.7405L19.5956 15.833L20.1258 22.9605C20.2954 25.3371 20.4698 27.7137 20.5964 30.0927C20.5104 27.7113 20.3742 25.3323 20.2453 22.9533L19.8344 15.8187L18.9745 1.71661C19.1179 1.68317 19.254 1.6354 19.3782 1.57808C19.5836 1.48253 19.7628 1.36311 19.9371 1.25084C20.2811 1.02632 20.6083 0.835234 20.9571 0.806571C21.3106 0.77552 21.6426 0.875839 21.9579 1.08603C22.2803 1.28667 22.5956 1.58524 23.0566 1.76677C23.1259 1.79543 23.1999 1.81693 23.274 1.83604L22.3591 15.8139L21.9196 22.9509C21.7811 25.3299 21.6354 27.7089 21.5494 30.0903C21.676 27.7113 21.8623 25.3347 22.0391 22.9581L22.598 15.8306L23.7445 1.87903C23.8329 1.87426 23.9213 1.86709 24.0049 1.85037C24.313 1.79543 24.5805 1.6784 24.8265 1.57569C25.0702 1.47059 25.2995 1.37744 25.4834 1.35594C25.5741 1.34639 25.6458 1.36072 25.7175 1.3846C25.7939 1.41565 25.8799 1.4682 25.9659 1.53508C26.1378 1.67362 26.3098 1.85993 26.4866 2.05579C26.6657 2.25165 26.852 2.46423 27.1148 2.65771C27.1816 2.70548 27.2605 2.75325 27.3488 2.79146C26.7851 4.95072 26.2907 7.11954 25.8249 9.2979C25.3401 11.5885 24.8886 13.8839 24.4873 16.1913C24.0861 18.4962 23.7087 20.806 23.391 23.1253C23.0566 25.4422 22.7891 27.7663 22.5383 30.0903C22.8297 27.7686 23.1378 25.4517 23.5104 23.142C23.8687 20.8323 24.2819 18.5297 24.7238 16.2343C25.1633 13.9389 25.6554 11.653 26.1761 9.37434C26.6777 7.20314 27.2127 5.03432 27.8122 2.89178C27.9197 2.89417 28.02 2.88701 28.1156 2.87984C28.407 2.85118 28.6578 2.80341 28.8966 2.78908C29.1355 2.76997 29.3481 2.79146 29.5368 2.85596C29.5845 2.87029 29.6275 2.89656 29.6729 2.91328C29.7159 2.94194 29.7565 2.96344 29.8019 2.99449C29.895 3.06137 29.9858 3.13303 30.067 3.21424C30.2366 3.37188 30.3775 3.55819 30.528 3.77316C30.6044 3.88065 30.6809 3.9953 30.7884 4.1195C30.8457 4.18638 30.9197 4.26043 31.0081 4.32492C30.1076 6.31937 29.317 8.34726 28.579 10.3966C27.8098 12.5511 27.0909 14.7271 26.4555 16.9246C25.8226 19.1221 25.2278 21.3315 24.7262 23.5648C24.4587 24.6755 24.2389 25.7981 24.0072 26.9183C23.7779 28.0385 23.5964 29.1659 23.3886 30.291C23.6155 29.1707 23.8162 28.0457 24.0646 26.9303C24.3154 25.8148 24.5542 24.6993 24.8409 23.5934C25.3783 21.3745 26.0112 19.177 26.6824 16.9962C27.3536 14.8131 28.1084 12.6586 28.9133 10.5232C29.6872 8.49057 30.5137 6.46985 31.4404 4.51362C31.5336 4.53511 31.6196 4.54706 31.7032 4.56139L32.0997 4.61633C32.3529 4.65215 32.5989 4.69515 32.8067 4.77158C32.9142 4.80741 33.005 4.85518 33.0838 4.90773C33.1626 4.96505 33.208 5.01044 33.2868 5.11315C33.4277 5.29945 33.5495 5.51681 33.6714 5.7485C33.7478 5.89182 33.8266 6.0423 33.9198 6.19755C33.989 6.30981 34.0703 6.42924 34.1873 6.5415C33.1268 8.36159 32.1427 10.2127 31.1968 12.0901C30.2127 14.0511 29.286 16.0432 28.4165 18.0568C27.5375 20.0679 26.7565 22.1197 26.0256 24.1858C25.2995 26.2567 24.6904 28.3634 24.1601 30.4892C24.7286 28.3729 25.3759 26.2782 26.1378 24.224C26.9046 22.1746 27.7215 20.1396 28.6363 18.1523C29.5415 16.1602 30.5017 14.1921 31.5169 12.2526C32.4866 10.4086 33.5042 8.58134 34.5814 6.80425C34.8226 6.92845 35.0615 7.01444 35.286 7.10282C35.587 7.21747 35.8497 7.34167 36.0814 7.52081C36.3298 7.7119 36.4755 7.88388 36.5257 8.15378C36.5544 8.28754 36.5591 8.45235 36.595 8.63866C36.6284 8.82497 36.7072 9.028 36.829 9.18564C36.8386 9.19997 36.8505 9.21192 36.8625 9.22625C35.6324 10.817 34.4859 12.4532 33.38 14.1228C32.243 15.8473 31.1658 17.6125 30.1482 19.4087C29.1212 21.2001 28.1968 23.0512 27.3297 24.9239C26.4651 26.7989 25.7294 28.7312 25.0749 30.6851C25.7676 28.7432 26.5391 26.8275 27.4372 24.974C28.3401 23.1229 29.2955 21.2956 30.3537 19.5281C31.4022 17.7558 32.5105 16.0193 33.6761 14.321C34.7988 12.692 35.9715 11.0893 37.2064 9.55348C37.2112 9.55826 37.216 9.56303 37.2208 9.56542C37.3545 9.67291 37.4954 9.77323 37.634 9.86638C37.9134 10.0503 38.1427 10.2151 38.3099 10.4659C38.4867 10.7024 38.5655 10.989 38.6181 11.3043C38.6611 11.5408 38.6802 11.7892 38.7518 12.0543C38.7638 12.1021 38.7829 12.1522 38.802 12.2024C37.462 13.54 36.2008 14.9325 34.9803 16.3657C33.7382 17.8298 32.5511 19.3394 31.4237 20.892C30.3059 22.4517 29.2645 24.0664 28.309 25.7264C27.3775 27.4032 26.5511 29.1373 25.8894 30.9359C26.5893 29.1516 27.4492 27.439 28.4118 25.7861C29.4006 24.15 30.4707 22.564 31.6172 21.0329C32.7733 19.509 33.9843 18.0305 35.2526 16.5997C36.4755 15.2239 37.7439 13.8792 39.0671 12.6108C39.1053 12.6562 39.1435 12.7016 39.1818 12.747C39.5138 13.1172 39.8338 13.4779 39.9509 13.9126C40.0082 14.13 40.0225 14.3664 40.0345 14.6148C40.0464 14.8131 40.056 15.0233 40.1109 15.2335C38.7877 16.3704 37.5337 17.5623 36.3107 18.7948C35.0734 20.044 33.8839 21.3386 32.7398 22.6715C31.5885 23.9995 30.5208 25.3968 29.4962 26.8228C28.4762 28.2535 27.5614 29.7535 26.7206 31.2918C27.5973 29.7726 28.5455 28.2965 29.5941 26.892C30.6474 25.4923 31.7438 24.1261 32.919 22.8291C34.0894 21.5273 35.3027 20.2662 36.5615 19.0504C37.7701 17.8896 39.017 16.7574 40.302 15.6945C40.3737 15.8258 40.4501 15.9477 40.5241 16.0719C40.6507 16.2821 40.7725 16.4922 40.8585 16.7072C40.9015 16.8147 40.9302 16.9222 40.9493 17.0297C40.9636 17.1395 40.9565 17.2303 40.9421 17.3665C40.9159 17.6173 40.9063 17.8704 40.9039 18.1212C40.9039 18.2337 40.9085 18.3461 40.9132 18.4608C40.9133 18.4631 40.9134 18.4653 40.9135 18.4676C39.626 19.3824 38.3983 20.3545 37.1969 21.3649C35.9883 22.3824 34.8179 23.443 33.6857 24.5417C32.5487 25.6357 31.4643 26.7822 30.4229 27.9669L29.6514 28.8626L28.911 29.7822L28.5407 30.2432L28.1896 30.7185L27.4874 31.6668L28.2135 30.7352L28.5766 30.2695L28.9587 29.818L29.7231 28.9175L30.5161 28.0433C31.5838 26.8873 32.6944 25.7718 33.8529 24.7113C35.009 23.646 36.1985 22.6189 37.4262 21.6396C38.5775 20.72 39.7622 19.8315 40.9732 19.005C41.0042 19.2128 41.0425 19.4206 41.0926 19.6236C41.1499 19.8673 41.2144 20.0966 41.1953 20.3116C41.181 20.5409 41.1165 20.7749 41.0472 21.009Z" fill="#02676A"/>
<path d="M41.0472 21.009C40.9899 21.212 40.9183 21.4031 40.8753 21.6348C39.681 22.3609 38.5321 23.1324 37.3975 23.9326C36.2629 24.7376 35.1523 25.5759 34.0702 26.4502C32.9882 27.3244 31.9468 28.2464 30.9365 29.2018C29.9357 30.1668 28.9898 31.1867 28.106 32.2567C29.0184 31.2106 29.9906 30.2217 31.0177 29.2878C32.0495 28.3634 33.1148 27.4748 34.216 26.6365C35.3195 25.7981 36.4469 24.9955 37.5982 24.2264C38.6778 23.5098 39.7765 22.8172 40.8944 22.1722C40.9087 22.2869 40.9206 22.4015 40.9302 22.5162C40.9517 22.81 40.9612 23.1109 40.9087 23.3832C40.8641 23.6298 40.7017 23.8857 40.5464 24.1303L40.5385 24.1428C40.4573 24.2694 40.3713 24.396 40.2901 24.5321C40.2495 24.6014 40.2088 24.6731 40.173 24.7591C40.1563 24.8044 40.1396 24.8522 40.13 24.9095C40.1229 24.943 40.1181 24.9621 40.1085 24.9884C40.0273 25.1985 39.8028 25.4971 39.712 25.8005C39.6953 25.8387 39.681 25.8602 39.6404 25.8936C39.5998 25.9318 39.5448 25.9724 39.4947 26.013C39.3848 26.0919 39.2701 26.1683 39.1483 26.24C38.9095 26.3881 38.6587 26.5266 38.4079 26.6651C37.9039 26.9398 37.3927 27.2049 36.8816 27.4725C35.8187 28.0385 34.7438 28.5593 33.6857 29.1827C32.6562 29.8515 31.6984 30.5871 30.7812 31.3825C29.864 32.1731 28.9993 33.0235 28.1896 33.9216C27.9866 34.1461 27.7859 34.3706 27.5925 34.6023C27.3942 34.8316 27.2031 35.0633 27.0168 35.3022C26.6299 35.7632 26.2955 36.2743 25.9109 36.7257C25.1776 37.5832 24.2103 38.2496 23.1426 38.6318C22.4404 38.8826 21.6211 39.1 20.895 39.1215H20.883C20.7922 39.1143 20.6943 39.1047 20.5892 39.0952C20.4865 39.0809 20.379 39.0641 20.2787 39.0498C19.9443 38.9997 19.6171 38.9304 19.297 38.8301C18.7261 38.6438 18.1983 38.3524 17.7301 37.9893C17.2596 37.6286 16.8583 37.1867 16.4928 36.7186C16.1322 36.2504 15.7882 35.7393 15.4084 35.2616C15.2221 35.0203 15.0334 34.7815 14.8352 34.5498C14.6417 34.3133 14.4411 34.0816 14.2356 33.8571C13.1895 32.6843 12.031 31.6118 10.7985 30.6349C10.1799 30.1476 9.54213 29.6867 8.8805 29.2567C8.53893 29.0298 8.18542 28.8483 7.83908 28.6644L6.79528 28.1341L4.53571 27.0234C4.1607 26.8371 3.79047 26.6484 3.42741 26.4454C3.24588 26.3451 3.06674 26.24 2.89954 26.1301C2.81594 26.0752 2.73473 26.0178 2.66069 25.9581C2.58664 25.8912 2.54603 25.8626 2.52215 25.7981C2.4481 25.564 2.29762 25.318 2.19492 25.1269C2.1567 25.0528 2.13043 24.986 2.11848 24.9263C2.10176 24.8068 2.04921 24.6993 2.00622 24.6157C1.91307 24.4438 1.81036 24.2933 1.71482 24.1404C1.61927 23.9899 1.5309 23.8395 1.45685 23.6842C1.41863 23.6054 1.38997 23.5337 1.37086 23.4597C1.35175 23.3832 1.33742 23.2996 1.33026 23.216C1.29682 22.8769 1.32548 22.521 1.36609 22.1675C2.47677 22.8028 3.57073 23.486 4.6408 24.193C5.78731 24.9525 6.90755 25.7479 8.00389 26.5791C9.10024 27.4104 10.156 28.2917 11.1831 29.2089C12.203 30.1333 13.168 31.1174 14.0732 32.1564C13.1966 31.0935 12.2579 30.0784 11.2643 29.1206C10.2635 28.1723 9.22684 27.2551 8.15198 26.3881C7.07474 25.5234 5.97123 24.6898 4.84144 23.8944C3.71643 23.1038 2.5747 22.3418 1.38997 21.6277C1.38519 21.6085 1.38281 21.5894 1.37803 21.5703C1.33265 21.3816 1.27532 21.2097 1.22277 21.0377C1.12245 20.6961 1.01497 20.3522 1.06752 20.0369C1.12484 19.712 1.23233 19.3561 1.2801 18.9978C2.49826 19.8362 3.6806 20.7248 4.83189 21.642C6.05961 22.6213 7.24911 23.6508 8.40517 24.7137C9.56601 25.7742 10.6767 26.8897 11.742 28.0457L12.535 28.9199L13.2993 29.8204L13.6815 30.2719L14.0446 30.7376L14.7707 31.6692L14.0684 30.7209L13.7173 30.2456L13.3471 29.7846L12.6066 28.865L11.8351 27.9693C10.7961 26.7846 9.70933 25.638 8.57237 24.5441C7.44019 23.4453 6.2698 22.3848 5.06119 21.3673C3.85974 20.3569 2.63202 19.3872 1.34459 18.47C1.35653 18.2693 1.35892 18.0711 1.35175 17.8704C1.3422 17.6865 1.33026 17.5026 1.31354 17.3187C1.30637 17.2184 1.29682 17.1587 1.30876 17.0751C1.31354 16.9986 1.33265 16.9174 1.35653 16.8386C1.47596 16.4564 1.73392 16.1101 1.96323 15.7255C1.96561 15.7207 1.97039 15.7136 1.97278 15.7088C3.25305 16.7669 4.4951 17.8943 5.69893 19.0504C6.95771 20.2662 8.17348 21.5273 9.34149 22.8291C10.5167 24.1261 11.613 25.4923 12.6664 26.892C13.7149 28.2965 14.6632 29.7726 15.5398 31.2918C14.699 29.7535 13.7842 28.2535 12.7643 26.8228C11.742 25.3968 10.6719 23.9995 9.52063 22.6715C8.37651 21.3386 7.18701 20.044 5.94973 18.7948C4.73396 17.5719 3.48952 16.3895 2.17581 15.2574C2.19492 15.1905 2.21164 15.126 2.22119 15.0591C2.2618 14.825 2.26896 14.6029 2.29046 14.3951C2.30957 14.1873 2.34301 13.9914 2.40989 13.8194C2.47677 13.6475 2.58186 13.4779 2.70129 13.3178C2.82311 13.1578 2.96403 13.0049 3.10973 12.8401C3.15751 12.7876 3.20528 12.7279 3.25305 12.6706C4.55243 13.9222 5.80164 15.2454 7.00548 16.5997C8.27141 18.0305 9.4848 19.509 10.6409 21.0329C11.785 22.564 12.8574 24.15 13.8463 25.7861C14.8089 27.439 15.6688 29.1516 16.3686 30.9359C15.707 29.1373 14.8806 27.4032 13.949 25.7264C12.9912 24.064 11.9498 22.4517 10.8343 20.892C9.70694 19.3394 8.51982 17.8298 7.27777 16.3657C6.07633 14.9564 4.83428 13.5854 3.52057 12.2669C3.52534 12.2573 3.53251 12.2478 3.5349 12.2382C3.63044 11.9803 3.64955 11.751 3.6806 11.5336C3.70926 11.3162 3.74031 11.1132 3.79525 10.9245C3.8478 10.7334 3.93379 10.5806 4.05083 10.4181C4.16548 10.2629 4.30401 10.1387 4.4736 10.0145C4.64319 9.89027 4.83666 9.7589 5.01342 9.60842C5.03014 9.59408 5.04447 9.57975 5.06119 9.56781C6.2913 11.1013 7.46169 12.6992 8.58193 14.321C9.74754 16.0169 10.8558 17.7558 11.9044 19.5281C12.9625 21.2956 13.9204 23.1229 14.8208 24.974C15.7213 26.8275 16.4904 28.7432 17.1831 30.6851C16.5287 28.7288 15.793 26.7989 14.9283 24.9239C14.0613 23.0512 13.1369 21.2025 12.1098 19.4087C11.0923 17.6101 10.0151 15.8473 8.87811 14.1228C7.77459 12.4556 6.6257 10.8194 5.39798 9.23102C5.44097 9.17609 5.47919 9.11876 5.51263 9.05427C5.64877 8.81064 5.66311 8.53118 5.67744 8.32576C5.69177 8.11079 5.72521 7.94598 5.82075 7.7955C5.9139 7.64741 6.06916 7.50171 6.22919 7.37989C6.38923 7.25568 6.57076 7.15536 6.76423 7.0646C6.9577 6.97383 7.16312 6.89023 7.36615 6.7923C7.44258 6.75647 7.51902 6.71348 7.59545 6.67049C8.70374 8.49057 9.74515 10.3632 10.7412 12.2549C11.7587 14.1921 12.7165 16.1602 13.6218 18.1547C14.5366 20.1444 15.3511 22.177 16.1202 24.2264C16.8822 26.2806 17.5295 28.3753 18.0979 30.4916C17.5677 28.3658 16.9586 26.2567 16.2325 24.1882C15.5016 22.1221 14.7205 20.0703 13.8415 18.0591C12.9721 16.0456 12.0453 14.0559 11.0613 12.0925C10.0891 10.1626 9.07636 8.25888 7.98001 6.38625C8.13527 6.19994 8.23081 5.9993 8.32635 5.80822L8.32847 5.80377C8.42327 5.60469 8.51582 5.41032 8.62014 5.22302C8.72763 5.0391 8.84228 4.8504 8.99515 4.72381C9.15279 4.59244 9.35343 4.50645 9.55885 4.44435C9.93146 4.32731 10.328 4.29865 10.7221 4.21982L10.6886 4.23654C11.6703 6.28115 12.5374 8.3998 13.3495 10.5304C14.1544 12.6658 14.9092 14.8203 15.5804 17.0034C16.2516 19.1865 16.8846 21.3816 17.422 23.6006C17.7086 24.7065 17.9475 25.8244 18.1983 26.9374C18.4467 28.0529 18.6473 29.1779 18.8742 30.2981C18.6664 29.1755 18.4849 28.0457 18.2556 26.9255C18.0239 25.8052 17.8042 24.685 17.5366 23.5719C17.0374 21.341 16.4427 19.1316 15.8073 16.9317C15.172 14.7343 14.453 12.5607 13.6839 10.4038C12.9052 8.24932 12.0788 6.11873 11.1186 4.02396L11.0995 4.03352C11.1687 3.96425 11.2285 3.88781 11.2834 3.81377C11.41 3.64418 11.527 3.4722 11.6608 3.31695C11.8447 3.09481 12.0621 2.87984 12.32 2.7222C12.3821 2.68398 12.4466 2.65054 12.5135 2.61949C12.6711 2.56694 12.8431 2.52872 13.0079 2.51917C13.4594 2.48334 13.906 2.55977 14.367 2.58844H14.3646C15.0095 4.82652 15.5804 7.09804 16.1154 9.37434C16.6457 11.6506 17.1449 13.9365 17.5916 16.2319C18.0382 18.5273 18.4586 20.8299 18.8193 23.1396C19.1967 25.4493 19.5048 27.7686 19.7962 30.0903C19.543 27.7639 19.2755 25.4374 18.9363 23.1205C18.6139 20.8012 18.2341 18.4915 17.8257 16.1865C17.4196 13.8816 16.9586 11.5838 16.4642 9.29313C15.9697 7.01922 15.4419 4.75486 14.8352 2.50245C14.8949 2.47379 14.9522 2.44035 15.0048 2.40213C15.1815 2.27792 15.3296 2.12744 15.4753 1.97935C15.7619 1.68795 16.039 1.36549 16.3782 1.20546C16.7102 1.04304 17.0852 1.21024 17.4506 1.3846C17.7635 1.53269 18.1099 1.70228 18.5016 1.7405L19.5956 15.833L20.1258 22.9605C20.2954 25.3371 20.4698 27.7137 20.5964 30.0927C20.5104 27.7113 20.3742 25.3323 20.2453 22.9533L19.8344 15.8187L18.9745 1.71661C19.1179 1.68317 19.254 1.6354 19.3782 1.57808C19.5836 1.48253 19.7628 1.36311 19.9371 1.25084C20.2811 1.02632 20.6083 0.835234 20.9571 0.806571C21.3106 0.77552 21.6426 0.875839 21.9579 1.08603C22.2803 1.28667 22.5956 1.58524 23.0566 1.76677C23.1259 1.79543 23.1999 1.81693 23.274 1.83604L22.3591 15.8139L21.9196 22.9509C21.7811 25.3299 21.6354 27.7089 21.5494 30.0903C21.676 27.7113 21.8623 25.3347 22.0391 22.9581L22.598 15.8306L23.7445 1.87903C23.8329 1.87426 23.9213 1.86709 24.0049 1.85037C24.313 1.79543 24.5805 1.6784 24.8265 1.57569C25.0702 1.47059 25.2995 1.37744 25.4834 1.35594C25.5741 1.34639 25.6458 1.36072 25.7175 1.3846C25.7939 1.41565 25.8799 1.4682 25.9659 1.53508C26.1378 1.67362 26.3098 1.85993 26.4866 2.05579C26.6657 2.25165 26.852 2.46423 27.1148 2.65771C27.1816 2.70548 27.2605 2.75325 27.3488 2.79146C26.7851 4.95072 26.2907 7.11954 25.8249 9.2979C25.3401 11.5885 24.8886 13.8839 24.4873 16.1913C24.0861 18.4962 23.7087 20.806 23.391 23.1253C23.0566 25.4422 22.7891 27.7663 22.5383 30.0903C22.8297 27.7686 23.1378 25.4517 23.5104 23.142C23.8687 20.8323 24.2819 18.5297 24.7238 16.2343C25.1633 13.9389 25.6554 11.653 26.1761 9.37434C26.6777 7.20314 27.2127 5.03432 27.8122 2.89178C27.9197 2.89417 28.02 2.88701 28.1156 2.87984C28.407 2.85118 28.6578 2.80341 28.8966 2.78908C29.1355 2.76997 29.3481 2.79146 29.5368 2.85596C29.5845 2.87029 29.6275 2.89656 29.6729 2.91328C29.7159 2.94194 29.7565 2.96344 29.8019 2.99449C29.895 3.06137 29.9858 3.13303 30.067 3.21424C30.2366 3.37188 30.3775 3.55819 30.528 3.77316C30.6044 3.88065 30.6809 3.9953 30.7884 4.1195C30.8457 4.18638 30.9197 4.26043 31.0081 4.32492C30.1076 6.31937 29.317 8.34726 28.579 10.3966C27.8098 12.5511 27.0909 14.7271 26.4555 16.9246C25.8226 19.1221 25.2278 21.3315 24.7262 23.5648C24.4587 24.6755 24.2389 25.7981 24.0072 26.9183C23.7779 28.0385 23.5964 29.1659 23.3886 30.291C23.6155 29.1707 23.8162 28.0457 24.0646 26.9303C24.3154 25.8148 24.5542 24.6993 24.8409 23.5934C25.3783 21.3745 26.0112 19.177 26.6824 16.9962C27.3536 14.8131 28.1084 12.6586 28.9133 10.5232C29.6872 8.49057 30.5137 6.46985 31.4404 4.51362C31.5336 4.53511 31.6196 4.54706 31.7032 4.56139L32.0997 4.61633C32.3529 4.65215 32.5989 4.69515 32.8067 4.77158C32.9142 4.80741 33.005 4.85518 33.0838 4.90773C33.1626 4.96505 33.208 5.01044 33.2868 5.11315C33.4277 5.29945 33.5495 5.51681 33.6714 5.7485C33.7478 5.89182 33.8266 6.0423 33.9198 6.19755C33.989 6.30981 34.0703 6.42924 34.1873 6.5415C33.1268 8.36159 32.1427 10.2127 31.1968 12.0901C30.2127 14.0511 29.286 16.0432 28.4165 18.0568C27.5375 20.0679 26.7565 22.1197 26.0256 24.1858C25.2995 26.2567 24.6904 28.3634 24.1601 30.4892C24.7286 28.3729 25.3759 26.2782 26.1378 24.224C26.9046 22.1746 27.7215 20.1396 28.6363 18.1523C29.5415 16.1602 30.5017 14.1921 31.5169 12.2526C32.4866 10.4086 33.5042 8.58134 34.5814 6.80425C34.8226 6.92845 35.0615 7.01444 35.286 7.10282C35.587 7.21747 35.8497 7.34167 36.0814 7.52081C36.3298 7.7119 36.4755 7.88388 36.5257 8.15378C36.5544 8.28754 36.5591 8.45235 36.595 8.63866C36.6284 8.82497 36.7072 9.028 36.829 9.18564C36.8386 9.19997 36.8505 9.21192 36.8625 9.22625C35.6324 10.817 34.4859 12.4532 33.38 14.1228C32.243 15.8473 31.1658 17.6125 30.1482 19.4087C29.1212 21.2001 28.1968 23.0512 27.3297 24.9239C26.4651 26.7989 25.7294 28.7312 25.0749 30.6851C25.7676 28.7432 26.5391 26.8275 27.4372 24.974C28.3401 23.1229 29.2955 21.2956 30.3537 19.5281C31.4022 17.7558 32.5105 16.0193 33.6761 14.321C34.7988 12.692 35.9715 11.0893 37.2064 9.55348C37.2112 9.55826 37.216 9.56303 37.2208 9.56542C37.3545 9.67291 37.4954 9.77323 37.634 9.86638C37.9134 10.0503 38.1427 10.2151 38.3099 10.4659C38.4867 10.7024 38.5655 10.989 38.6181 11.3043C38.6611 11.5408 38.6802 11.7892 38.7518 12.0543C38.7638 12.1021 38.7829 12.1522 38.802 12.2024C37.462 13.54 36.2008 14.9325 34.9803 16.3657C33.7382 17.8298 32.5511 19.3394 31.4237 20.892C30.3059 22.4517 29.2645 24.0664 28.309 25.7264C27.3775 27.4032 26.5511 29.1373 25.8894 30.9359C26.5893 29.1516 27.4492 27.439 28.4118 25.7861C29.4006 24.15 30.4707 22.564 31.6172 21.0329C32.7733 19.509 33.9843 18.0305 35.2526 16.5997C36.4755 15.2239 37.7439 13.8792 39.0671 12.6108L39.1818 12.747C39.5138 13.1172 39.8338 13.4779 39.9509 13.9126C40.0082 14.13 40.0225 14.3664 40.0345 14.6148C40.0464 14.8131 40.056 15.0233 40.1109 15.2335C38.7877 16.3704 37.5337 17.5623 36.3107 18.7948C35.0734 20.044 33.8839 21.3386 32.7398 22.6715C31.5885 23.9995 30.5208 25.3968 29.4962 26.8228C28.4762 28.2535 27.5614 29.7535 26.7206 31.2918C27.5973 29.7726 28.5455 28.2965 29.5941 26.892C30.6474 25.4923 31.7438 24.1261 32.919 22.8291C34.0894 21.5273 35.3027 20.2662 36.5615 19.0504C37.7701 17.8896 39.017 16.7574 40.302 15.6945C40.3737 15.8258 40.4501 15.9477 40.5241 16.0719C40.6507 16.2821 40.7725 16.4922 40.8585 16.7072C40.9015 16.8147 40.9302 16.9222 40.9493 17.0297C40.9636 17.1395 40.9565 17.2303 40.9421 17.3665C40.9159 17.6173 40.9063 17.8704 40.9039 18.1212C40.9039 18.2337 40.9085 18.3461 40.9132 18.4608L40.9135 18.4676C39.626 19.3824 38.3983 20.3545 37.1969 21.3649C35.9883 22.3824 34.8179 23.443 33.6857 24.5417C32.5487 25.6357 31.4643 26.7822 30.4229 27.9669L29.6514 28.8626L28.911 29.7822L28.5407 30.2432L28.1896 30.7185L27.4874 31.6668L28.2135 30.7352L28.5766 30.2695L28.9587 29.818L29.7231 28.9175L30.5161 28.0433C31.5838 26.8873 32.6944 25.7718 33.8529 24.7113C35.009 23.646 36.1985 22.6189 37.4262 21.6396C38.5775 20.72 39.7622 19.8315 40.9732 19.005C41.0042 19.2128 41.0425 19.4206 41.0926 19.6236C41.1499 19.8673 41.2144 20.0966 41.1953 20.3116C41.181 20.5409 41.1165 20.7749 41.0472 21.009Z" fill="#02676A"/>
<path d="M15.16 37.4328C14.5629 37.3898 13.9681 37.3205 13.3973 37.1843C12.8264 37.0458 12.2699 36.8571 11.7969 36.5442C11.3168 36.2456 10.9562 35.799 10.7484 35.2854C10.6839 35.1612 10.66 35.0203 10.6122 34.8889L10.4832 34.4423C10.3853 34.1485 10.2826 33.8595 10.1632 33.5776C9.92191 33.0163 9.66394 32.4646 9.3797 31.9295C9.10024 31.3921 9.99834 30.5919 10.3518 30.857C10.9394 31.2965 11.4673 31.8101 12.0191 32.2902C13.1035 33.2432 14.1592 34.2393 15.0836 35.3523C15.6879 36.0546 16.211 36.8404 16.8774 37.4996C16.2994 37.4853 15.7285 37.4829 15.16 37.4328Z" fill="#02676A"/>
<path d="M33.7812 30.3507C33.4683 30.869 33.1626 31.3921 32.8831 31.9319C32.5989 32.4669 32.3385 33.0187 32.0997 33.58C31.9803 33.8619 31.8776 34.1509 31.7796 34.4447L31.6506 34.8913C31.6029 35.0227 31.579 35.1636 31.5145 35.2878C31.3043 35.8014 30.946 36.248 30.4659 36.5466C29.993 36.8595 29.4364 37.0482 28.8656 37.1867C28.2923 37.3229 27.6976 37.3921 27.1028 37.4351C26.5391 37.4853 25.9706 37.4877 25.4022 37.5044C25.641 37.3038 25.8679 37.0888 26.0805 36.8595C26.3863 36.5251 26.649 36.1788 26.9261 35.842C27.2079 35.51 27.4874 35.1732 27.7812 34.8531C28.5646 33.9813 29.36 33.1142 30.2366 32.3332C31.1562 31.5235 32.1212 30.7663 33.1315 30.0832C33.3776 29.9088 33.9413 30.0927 33.7812 30.3507Z" fill="#02676A"/>
<path d="M41.6539 20.6746C41.6921 20.5003 41.7232 20.3044 41.7065 20.087C41.6874 19.884 41.6468 19.7168 41.6109 19.5592C41.5393 19.2463 41.4867 18.9572 41.4628 18.6539C41.439 18.3529 41.4413 18.0472 41.4605 17.7415C41.4676 17.5838 41.4867 17.4429 41.5011 17.2709C41.5226 17.0368 41.4796 16.8195 41.4198 16.6332C41.2933 16.2606 41.1069 15.9668 40.9421 15.6873C40.8585 15.5512 40.7797 15.4174 40.7224 15.298C40.6675 15.1833 40.6412 15.0902 40.6197 14.9516C40.5695 14.6316 40.6054 14.1992 40.4716 13.7358C40.3307 13.2653 40.0417 12.9094 39.7741 12.6084C39.6404 12.458 39.509 12.3194 39.4015 12.1857C39.3776 12.1546 39.3466 12.114 39.3322 12.0925C39.3179 12.0734 39.3036 12.0471 39.2916 12.0185C39.2654 11.9564 39.2415 11.8823 39.2248 11.7963C39.1483 11.4572 39.1221 11.0248 38.9501 10.6044C38.9071 10.4993 38.8521 10.3943 38.7924 10.2963C38.7327 10.2056 38.6682 10.1148 38.5942 10.0288C38.4485 9.85444 38.2693 9.71112 38.0997 9.59647C37.9302 9.48182 37.7725 9.3815 37.6244 9.27163C37.4811 9.16176 37.3235 9.03516 37.2327 8.92529C37.1372 8.80586 37.0822 8.67927 37.0559 8.50251C37.0273 8.33054 37.0201 8.11557 36.9485 7.89104C36.8816 7.66652 36.7335 7.46827 36.5759 7.32018C36.423 7.17447 36.251 7.04788 36.0695 6.94517C35.6395 6.69676 35.2024 6.49851 34.8298 6.30265C34.7701 6.27399 34.7008 6.23338 34.6531 6.20472C34.6148 6.18083 34.5742 6.14261 34.5336 6.09723C34.4524 6.00647 34.3784 5.88465 34.3043 5.75806C34.1586 5.50248 34.0177 5.22302 33.8362 4.95789C33.7406 4.82413 33.6546 4.69992 33.5137 4.57094C33.3752 4.4539 33.2199 4.37269 33.0647 4.31059C32.7518 4.19355 32.4389 4.14817 32.1355 4.10995L31.6865 4.05501C31.5408 4.03352 31.4046 4.00963 31.3138 3.94514C31.1108 3.80899 30.9508 3.52236 30.7597 3.28351C30.5686 3.03749 30.3417 2.81057 30.0814 2.63143C29.8186 2.44274 29.489 2.34719 29.1761 2.34242C28.9157 2.33286 28.6578 2.36391 28.4094 2.39735C28.161 2.4284 27.9125 2.46184 27.688 2.42363C27.4826 2.37824 27.2963 2.21821 27.1267 2.04385C26.9547 1.86948 26.7923 1.6784 26.6132 1.49686C26.4364 1.31772 26.2453 1.14097 26.0065 1.01438C25.8847 0.959439 25.7461 0.906891 25.6052 0.909279C25.4667 0.904502 25.3305 0.928388 25.2063 0.966605C24.7095 1.12186 24.301 1.41088 23.8281 1.48015C22.8273 1.67123 22.2039 0.453064 21.1195 0.49367C20.723 0.49367 20.3408 0.651315 20.0207 0.863897C19.6959 1.06931 19.3997 1.31772 19.0486 1.43476C18.6999 1.55658 18.3177 1.50642 17.9714 1.37266C17.6178 1.24607 17.2858 1.04065 16.8893 0.966605C16.6935 0.928388 16.4737 0.952273 16.2946 1.04782C16.1131 1.13858 15.9626 1.26756 15.824 1.40132C15.5446 1.66884 15.3105 1.97458 15.031 2.22299C14.8901 2.34242 14.7349 2.45468 14.5581 2.47617C14.379 2.49767 14.1855 2.47617 13.9968 2.46423C13.617 2.43557 13.2277 2.40691 12.8479 2.47856C12.7595 2.49528 12.664 2.51917 12.5756 2.54783C12.4944 2.57172 12.418 2.5956 12.3439 2.62665C12.0979 2.73175 11.8781 2.89417 11.6894 3.08526C11.4984 3.27395 11.3407 3.49131 11.1855 3.69673C11.0899 3.81855 10.9872 3.95231 10.8869 4.00246C10.7794 4.05262 10.6098 4.07173 10.4569 4.09084C10.1417 4.12906 9.81442 4.15772 9.48958 4.24132C9.32716 4.28193 9.16235 4.34164 9.0047 4.42524C8.92588 4.46585 8.85183 4.52078 8.77779 4.57811C8.70852 4.6426 8.64164 4.71187 8.59387 4.77875C8.38368 5.04627 8.22842 5.34484 8.08033 5.62669C7.98001 5.81538 7.88447 6.00408 7.76743 6.14739C7.73876 6.18322 7.70771 6.21427 7.67666 6.24055C7.65039 6.26443 7.60978 6.29071 7.56201 6.31937C7.47602 6.37431 7.38526 6.42208 7.2921 6.46985C6.92188 6.65377 6.49432 6.79469 6.11215 7.04788C5.91152 7.18164 5.73237 7.32495 5.57234 7.5232C5.41231 7.72145 5.32871 7.98658 5.30482 8.22066C5.27855 8.45713 5.26183 8.65777 5.17823 8.82497C5.09463 8.98739 4.94415 9.11876 4.76978 9.25969C4.6002 9.39583 4.42105 9.51287 4.22997 9.64186C4.03888 9.77084 3.83825 9.93326 3.68538 10.1315C3.5349 10.3202 3.40114 10.5567 3.33187 10.7931C3.25544 11.0296 3.21722 11.2661 3.18378 11.4882C3.14556 11.7271 3.10973 11.9635 3.02852 12.114C3.0118 12.1451 2.98314 12.1881 2.94731 12.2311C2.91387 12.274 2.87804 12.3194 2.83983 12.3624L2.60097 12.6299C2.43616 12.8139 2.26418 13.0121 2.12326 13.2462C1.98233 13.4707 1.86768 13.7526 1.82708 14.0249C1.7387 14.5695 1.80558 15.04 1.60972 15.3672C1.40908 15.7566 1.07707 16.1555 0.89554 16.7048C0.850157 16.8386 0.823883 16.9891 0.819106 17.1467L0.821494 17.2685L0.82866 17.3617L0.840603 17.5313C0.854934 17.7582 0.859711 17.9851 0.850157 18.2096C0.835826 18.6611 0.764169 19.0862 0.644741 19.5329C0.616078 19.6475 0.582638 19.7646 0.556364 19.9007C0.53009 20.0297 0.510981 20.1993 0.522924 20.3498C0.544421 20.646 0.611301 20.892 0.678181 21.1308C0.74506 21.3601 0.826271 21.6038 0.854934 21.7638C0.857323 21.8044 0.8621 21.7781 0.854934 21.8259L0.831048 22.0027C0.816717 22.1245 0.802386 22.2463 0.792832 22.3705C0.766557 22.6977 0.754615 23.0297 0.807163 23.3928C0.821494 23.4836 0.840603 23.5791 0.874043 23.677C0.909871 23.7845 0.945699 23.8633 0.986305 23.9422C1.06513 24.0998 1.1535 24.2431 1.24188 24.3769L1.49507 24.7614C1.53329 24.8212 1.56911 24.8809 1.59061 24.9286C1.61927 24.9955 1.60494 24.9406 1.64316 25.1054C1.71243 25.3299 1.81275 25.4613 1.8844 25.5903C1.96084 25.724 2.01339 25.8196 2.06832 25.9724C2.08504 26.0226 2.11609 26.0632 2.13759 26.111C2.17103 26.1516 2.20208 26.1922 2.23552 26.2304C2.30479 26.2949 2.35734 26.3403 2.41705 26.3833C2.53409 26.4717 2.64874 26.5433 2.76339 26.615C2.99508 26.7559 3.22677 26.8825 3.46085 27.0067C3.92662 27.2527 4.39717 27.4844 4.86771 27.7161C5.17345 27.8666 5.43858 28.0959 5.74432 28.2416C6.37012 28.5449 6.99831 28.8411 7.61934 29.1492C7.85103 29.5792 8.05883 30.0234 8.2738 30.4605C8.53654 31.0028 8.79451 31.545 9.04292 32.0919C9.28655 32.6413 9.53257 33.1883 9.74277 33.7448L9.89802 34.1628L10.0366 34.5808L10.1536 35.006C10.2038 35.1588 10.2324 35.3189 10.3041 35.467C10.5525 36.0665 10.9968 36.5991 11.5509 36.9264C12.1027 37.2584 12.7117 37.4471 13.3208 37.5498C13.9299 37.6597 14.5438 37.6788 15.1529 37.6668C15.7357 37.6549 16.3137 37.5952 16.8869 37.514C17.0159 37.6406 17.1497 37.7672 17.293 37.8818C17.7277 38.2425 18.2174 38.541 18.7405 38.7489C19.2636 38.959 19.8225 39.0809 20.3814 39.1239C20.5128 39.1382 20.6633 39.1501 20.7707 39.143C20.8973 39.1406 21.0645 39.143 21.1147 39.143C21.0836 39.1406 21.0024 39.1358 20.9212 39.1262C21.3177 39.1215 21.602 39.1024 21.8838 39.0665C22.5956 38.971 23.2955 38.7632 23.9475 38.4479C24.4611 38.1947 24.9436 37.8794 25.3831 37.5116C25.9539 37.5928 26.5272 37.6525 27.1076 37.6621C27.7167 37.674 28.3305 37.6549 28.9396 37.545C29.5487 37.4423 30.1578 37.2536 30.7095 36.9216C31.2637 36.5968 31.708 36.0617 31.9564 35.4622C32.028 35.3141 32.0567 35.1541 32.1069 35.0012L32.2239 34.576L32.3624 34.158L32.5177 33.74C32.7279 33.1835 32.9739 32.6365 33.2175 32.0872C33.4659 31.5402 33.7215 30.9956 33.9866 30.4558C34.1968 30.0306 34.3975 29.6007 34.6196 29.1827C34.6435 29.1707 34.6674 29.1564 34.6913 29.1445L36.337 28.318C36.9843 27.9932 37.634 27.6683 38.2765 27.3268C38.599 27.1548 38.919 26.9804 39.2367 26.7893C39.3967 26.6962 39.5544 26.5935 39.712 26.4836C39.7908 26.4287 39.8697 26.3689 39.9509 26.2973C40.0273 26.2352 40.142 26.1014 40.1897 25.9677C40.2375 25.8196 40.2877 25.7193 40.3569 25.5903C40.4238 25.4637 40.5146 25.3347 40.5839 25.1317C40.6006 25.0839 40.6125 25.0146 40.6197 24.974C40.6197 24.9692 40.6268 24.9525 40.634 24.931C40.6531 24.8856 40.6842 24.8259 40.7176 24.7686C40.7893 24.6492 40.8705 24.5226 40.9541 24.3912C41.0377 24.2598 41.1213 24.1213 41.1977 23.9732C41.2359 23.8968 41.2718 23.8227 41.3052 23.7368C41.341 23.6412 41.3649 23.5481 41.3816 23.4597C41.4437 23.1062 41.4294 22.7837 41.4103 22.466C41.3984 22.2964 41.3792 22.1292 41.3601 21.9668C41.3506 21.8904 41.3362 21.7829 41.341 21.7829C41.3434 21.759 41.3601 21.6826 41.3769 21.6181C41.4557 21.3386 41.5775 21.0233 41.6539 20.6746ZM15.16 37.4328C14.5629 37.3898 13.9681 37.3205 13.3973 37.1843C12.8264 37.0458 12.2699 36.8571 11.7969 36.5442C11.3168 36.2456 10.9562 35.799 10.7484 35.2854C10.6839 35.1612 10.66 35.0203 10.6122 34.8889L10.4832 34.4423C10.3853 34.1485 10.2826 33.8595 10.1632 33.5776C9.92191 33.0163 9.66394 32.4646 9.3797 31.9295C9.10024 31.3921 9.99834 30.5919 10.3518 30.857C10.9394 31.2965 11.4673 31.8101 12.0191 32.2902C13.1035 33.2432 14.1592 34.2393 15.0836 35.3523C15.6879 36.0546 16.211 36.8404 16.8774 37.4996C16.2994 37.4853 15.7285 37.4829 15.16 37.4328ZM33.7812 30.3507C33.4683 30.869 33.1626 31.3921 32.8831 31.9319C32.5989 32.4669 32.3385 33.0187 32.0997 33.58C31.9803 33.8619 31.8776 34.1509 31.7796 34.4447L31.6506 34.8913C31.6029 35.0227 31.579 35.1636 31.5145 35.2878C31.3043 35.8014 30.946 36.248 30.4659 36.5466C29.993 36.8595 29.4364 37.0482 28.8656 37.1867C28.2923 37.3229 27.6976 37.3921 27.1028 37.4351C26.5391 37.4853 25.9706 37.4877 25.4022 37.5044C25.641 37.3038 25.8679 37.0888 26.0805 36.8595C26.3863 36.5251 26.649 36.1788 26.9261 35.842C27.2079 35.51 27.4874 35.1732 27.7812 34.8531C28.5646 33.9813 29.36 33.1142 30.2366 32.3332C31.1562 31.5235 32.1212 30.7663 33.1315 30.0832C33.3776 29.9088 33.9413 30.0927 33.7812 30.3507ZM41.0472 21.009C40.9899 21.212 40.9183 21.4031 40.8753 21.6348C39.681 22.3609 38.5321 23.1324 37.3975 23.9326C36.2629 24.7376 35.1523 25.5759 34.0702 26.4502C32.9882 27.3244 31.9468 28.2464 30.9365 29.2018C29.9357 30.1668 28.9898 31.1867 28.106 32.2567C29.0184 31.2106 29.9906 30.2217 31.0177 29.2878C32.0495 28.3634 33.1148 27.4748 34.216 26.6365C35.3195 25.7981 36.4469 24.9955 37.5982 24.2264C38.6778 23.5098 39.7765 22.8172 40.8944 22.1722C40.9087 22.2869 40.9206 22.4015 40.9302 22.5162C40.9517 22.81 40.9612 23.1109 40.9087 23.3832C40.8633 23.634 40.6961 23.8944 40.5385 24.1428C40.4573 24.2694 40.3713 24.396 40.2901 24.5321C40.2495 24.6014 40.2088 24.6731 40.173 24.7591C40.1563 24.8044 40.1396 24.8522 40.13 24.9095C40.1229 24.943 40.1181 24.9621 40.1085 24.9884C40.0273 25.1985 39.8028 25.4971 39.712 25.8005C39.6953 25.8387 39.681 25.8602 39.6404 25.8936C39.5998 25.9318 39.5448 25.9724 39.4947 26.013C39.3848 26.0919 39.2701 26.1683 39.1483 26.24C38.9095 26.3881 38.6587 26.5266 38.4079 26.6651C37.9039 26.9398 37.3927 27.2049 36.8816 27.4725C35.8187 28.0385 34.7438 28.5593 33.6857 29.1827C32.6562 29.8515 31.6984 30.5871 30.7812 31.3825C29.864 32.1731 28.9993 33.0235 28.1896 33.9216C27.9866 34.1461 27.7859 34.3706 27.5925 34.6023C27.3942 34.8316 27.2031 35.0633 27.0168 35.3022C26.6299 35.7632 26.2955 36.2743 25.9109 36.7257C25.1776 37.5832 24.2103 38.2496 23.1426 38.6318C22.4404 38.8826 21.6211 39.1 20.895 39.1215C20.8902 39.1215 20.8878 39.1215 20.883 39.1215C20.7922 39.1143 20.6943 39.1047 20.5892 39.0952C20.4865 39.0809 20.379 39.0641 20.2787 39.0498C19.9443 38.9997 19.6171 38.9304 19.297 38.8301C18.7261 38.6438 18.1983 38.3524 17.7301 37.9893C17.2596 37.6286 16.8583 37.1867 16.4928 36.7186C16.1322 36.2504 15.7882 35.7393 15.4084 35.2616C15.2221 35.0203 15.0334 34.7815 14.8352 34.5498C14.6417 34.3133 14.4411 34.0816 14.2356 33.8571C13.1895 32.6843 12.031 31.6118 10.7985 30.6349C10.1799 30.1476 9.54213 29.6867 8.8805 29.2567C8.53893 29.0298 8.18542 28.8483 7.83908 28.6644L6.79528 28.1341L4.53571 27.0234C4.1607 26.8371 3.79047 26.6484 3.42741 26.4454C3.24588 26.3451 3.06674 26.24 2.89954 26.1301C2.81594 26.0752 2.73473 26.0178 2.66069 25.9581C2.58664 25.8912 2.54603 25.8626 2.52215 25.7981C2.4481 25.564 2.29762 25.318 2.19492 25.1269C2.1567 25.0528 2.13043 24.986 2.11848 24.9263C2.10176 24.8068 2.04921 24.6993 2.00622 24.6157C1.91307 24.4438 1.81036 24.2933 1.71482 24.1404C1.61927 23.9899 1.5309 23.8395 1.45685 23.6842C1.41863 23.6054 1.38997 23.5337 1.37086 23.4597C1.35175 23.3832 1.33742 23.2996 1.33026 23.216C1.29682 22.8769 1.32548 22.521 1.36609 22.1675C2.47677 22.8028 3.57073 23.486 4.6408 24.193C5.78731 24.9525 6.90755 25.7479 8.00389 26.5791C9.10024 27.4104 10.156 28.2917 11.1831 29.2089C12.203 30.1333 13.168 31.1174 14.0732 32.1564C13.1966 31.0935 12.2579 30.0784 11.2643 29.1206C10.2635 28.1723 9.22684 27.2551 8.15198 26.3881C7.07474 25.5234 5.97123 24.6898 4.84144 23.8944C3.71643 23.1038 2.5747 22.3418 1.38997 21.6277C1.38519 21.6085 1.38281 21.5894 1.37803 21.5703C1.33265 21.3816 1.27532 21.2097 1.22277 21.0377C1.12245 20.6961 1.01497 20.3522 1.06752 20.0369C1.12484 19.712 1.23233 19.3561 1.2801 18.9978C2.49826 19.8362 3.6806 20.7248 4.83189 21.642C6.05961 22.6213 7.24911 23.6508 8.40517 24.7137C9.56601 25.7742 10.6767 26.8897 11.742 28.0457L12.535 28.9199L13.2993 29.8204L13.6815 30.2719L14.0446 30.7376L14.7707 31.6692L14.0684 30.7209L13.7173 30.2456L13.3471 29.7846L12.6066 28.865L11.8351 27.9693C10.7961 26.7846 9.70933 25.638 8.57237 24.5441C7.44019 23.4453 6.2698 22.3848 5.06119 21.3673C3.85974 20.3569 2.63202 19.3872 1.34459 18.47C1.35653 18.2693 1.35892 18.0711 1.35175 17.8704C1.3422 17.6865 1.33026 17.5026 1.31354 17.3187C1.30637 17.2184 1.29682 17.1587 1.30876 17.0751C1.31354 16.9986 1.33265 16.9174 1.35653 16.8386C1.47596 16.4564 1.73392 16.1101 1.96323 15.7255C1.96561 15.7207 1.97039 15.7136 1.97278 15.7088C3.25305 16.7669 4.4951 17.8943 5.69893 19.0504C6.95771 20.2662 8.17348 21.5273 9.34149 22.8291C10.5167 24.1261 11.613 25.4923 12.6664 26.892C13.7149 28.2965 14.6632 29.7726 15.5398 31.2918C14.699 29.7535 13.7842 28.2535 12.7643 26.8228C11.742 25.3968 10.6719 23.9995 9.52063 22.6715C8.37651 21.3386 7.18701 20.044 5.94973 18.7948C4.73396 17.5719 3.48952 16.3895 2.17581 15.2574C2.19492 15.1905 2.21164 15.126 2.22119 15.0591C2.2618 14.825 2.26896 14.6029 2.29046 14.3951C2.30957 14.1873 2.34301 13.9914 2.40989 13.8194C2.47677 13.6475 2.58186 13.4779 2.70129 13.3178C2.82311 13.1578 2.96403 13.0049 3.10973 12.8401C3.15751 12.7876 3.20528 12.7279 3.25305 12.6706C4.55243 13.9222 5.80164 15.2454 7.00548 16.5997C8.27141 18.0305 9.4848 19.509 10.6409 21.0329C11.785 22.564 12.8574 24.15 13.8463 25.7861C14.8089 27.439 15.6688 29.1516 16.3686 30.9359C15.707 29.1373 14.8806 27.4032 13.949 25.7264C12.9912 24.064 11.9498 22.4517 10.8343 20.892C9.70694 19.3394 8.51982 17.8298 7.27777 16.3657C6.07633 14.9564 4.83428 13.5854 3.52057 12.2669C3.52534 12.2573 3.53251 12.2478 3.5349 12.2382C3.63044 11.9803 3.64955 11.751 3.6806 11.5336C3.70926 11.3162 3.74031 11.1132 3.79525 10.9245C3.8478 10.7334 3.93379 10.5806 4.05083 10.4181C4.16548 10.2629 4.30401 10.1387 4.4736 10.0145C4.64319 9.89027 4.83666 9.7589 5.01342 9.60842C5.03014 9.59408 5.04447 9.57975 5.06119 9.56781C6.2913 11.1013 7.46169 12.6992 8.58193 14.321C9.74754 16.0169 10.8558 17.7558 11.9044 19.5281C12.9625 21.2956 13.9204 23.1229 14.8208 24.974C15.7213 26.8275 16.4904 28.7432 17.1831 30.6851C16.5287 28.7288 15.793 26.7989 14.9283 24.9239C14.0613 23.0512 13.1369 21.2025 12.1098 19.4087C11.0923 17.6101 10.0151 15.8473 8.87811 14.1228C7.77459 12.4556 6.6257 10.8194 5.39798 9.23102C5.44097 9.17609 5.47919 9.11876 5.51263 9.05427C5.64877 8.81064 5.66311 8.53118 5.67744 8.32576C5.69177 8.11079 5.72521 7.94598 5.82075 7.7955C5.9139 7.64741 6.06916 7.50171 6.22919 7.37989C6.38923 7.25568 6.57076 7.15536 6.76423 7.0646C6.9577 6.97383 7.16312 6.89023 7.36615 6.7923C7.44258 6.75647 7.51902 6.71348 7.59545 6.67049C8.70374 8.49057 9.74515 10.3632 10.7412 12.2549C11.7587 14.1921 12.7165 16.1602 13.6218 18.1547C14.5366 20.1444 15.3511 22.177 16.1202 24.2264C16.8822 26.2806 17.5295 28.3753 18.0979 30.4916C17.5677 28.3658 16.9586 26.2567 16.2325 24.1882C15.5016 22.1221 14.7205 20.0703 13.8415 18.0591C12.9721 16.0456 12.0453 14.0559 11.0613 12.0925C10.0891 10.1626 9.07636 8.25888 7.98001 6.38625C8.13527 6.19994 8.23081 5.9993 8.32635 5.80822C8.42189 5.60758 8.51505 5.41172 8.62014 5.22302C8.72763 5.0391 8.84228 4.8504 8.99515 4.72381C9.15279 4.59244 9.35343 4.50645 9.55885 4.44435C9.93146 4.32731 10.328 4.29865 10.7221 4.21982L10.6886 4.23654C11.6703 6.28115 12.5374 8.3998 13.3495 10.5304C14.1544 12.6658 14.9092 14.8203 15.5804 17.0034C16.2516 19.1865 16.8846 21.3816 17.422 23.6006C17.7086 24.7065 17.9475 25.8244 18.1983 26.9374C18.4467 28.0529 18.6473 29.1779 18.8742 30.2981C18.6664 29.1755 18.4849 28.0457 18.2556 26.9255C18.0239 25.8052 17.8042 24.685 17.5366 23.5719C17.0374 21.341 16.4427 19.1316 15.8073 16.9317C15.172 14.7343 14.453 12.5607 13.6839 10.4038C12.9052 8.24932 12.0788 6.11873 11.1186 4.02396L11.0995 4.03352C11.1687 3.96425 11.2285 3.88781 11.2834 3.81377C11.41 3.64418 11.527 3.4722 11.6608 3.31695C11.8447 3.09481 12.0621 2.87984 12.32 2.7222C12.3821 2.68398 12.4466 2.65054 12.5135 2.61949C12.6711 2.56694 12.8431 2.52872 13.0079 2.51917C13.4594 2.48334 13.906 2.55977 14.367 2.58844H14.3646C15.0095 4.82652 15.5804 7.09804 16.1154 9.37434C16.6457 11.6506 17.1449 13.9365 17.5916 16.2319C18.0382 18.5273 18.4586 20.8299 18.8193 23.1396C19.1967 25.4493 19.5048 27.7686 19.7962 30.0903C19.543 27.7639 19.2755 25.4374 18.9363 23.1205C18.6139 20.8012 18.2341 18.4915 17.8257 16.1865C17.4196 13.8816 16.9586 11.5838 16.4642 9.29313C15.9697 7.01922 15.4419 4.75486 14.8352 2.50245C14.8949 2.47379 14.9522 2.44035 15.0048 2.40213C15.1815 2.27792 15.3296 2.12744 15.4753 1.97935C15.7619 1.68795 16.039 1.36549 16.3782 1.20546C16.7102 1.04304 17.0852 1.21024 17.4506 1.3846C17.7635 1.53269 18.1099 1.70228 18.5016 1.7405L19.5956 15.833L20.1258 22.9605C20.2954 25.3371 20.4698 27.7137 20.5964 30.0927C20.5104 27.7113 20.3742 25.3323 20.2453 22.9533L19.8344 15.8187L18.9745 1.71661C19.1179 1.68317 19.254 1.6354 19.3782 1.57808C19.5836 1.48253 19.7628 1.36311 19.9371 1.25084C20.2811 1.02632 20.6083 0.835234 20.9571 0.806571C21.3106 0.77552 21.6426 0.875839 21.9579 1.08603C22.2803 1.28667 22.5956 1.58524 23.0566 1.76677C23.1259 1.79543 23.1999 1.81693 23.274 1.83604L22.3591 15.8139L21.9196 22.9509C21.7811 25.3299 21.6354 27.7089 21.5494 30.0903C21.676 27.7113 21.8623 25.3347 22.0391 22.9581L22.598 15.8306L23.7445 1.87903C23.8329 1.87426 23.9213 1.86709 24.0049 1.85037C24.313 1.79543 24.5805 1.6784 24.8265 1.57569C25.0702 1.47059 25.2995 1.37744 25.4834 1.35594C25.5741 1.34639 25.6458 1.36072 25.7175 1.3846C25.7939 1.41565 25.8799 1.4682 25.9659 1.53508C26.1378 1.67362 26.3098 1.85993 26.4866 2.05579C26.6657 2.25165 26.852 2.46423 27.1148 2.65771C27.1816 2.70548 27.2605 2.75325 27.3488 2.79146C26.7851 4.95072 26.2907 7.11954 25.8249 9.2979C25.3401 11.5885 24.8886 13.8839 24.4873 16.1913C24.0861 18.4962 23.7087 20.806 23.391 23.1253C23.0566 25.4422 22.7891 27.7663 22.5383 30.0903C22.8297 27.7686 23.1378 25.4517 23.5104 23.142C23.8687 20.8323 24.2819 18.5297 24.7238 16.2343C25.1633 13.9389 25.6554 11.653 26.1761 9.37434C26.6777 7.20314 27.2127 5.03432 27.8122 2.89178C27.9197 2.89417 28.02 2.88701 28.1156 2.87984C28.407 2.85118 28.6578 2.80341 28.8966 2.78908C29.1355 2.76997 29.3481 2.79146 29.5368 2.85596C29.5845 2.87029 29.6275 2.89656 29.6729 2.91328C29.7159 2.94194 29.7565 2.96344 29.8019 2.99449C29.895 3.06137 29.9858 3.13303 30.067 3.21424C30.2366 3.37188 30.3775 3.55819 30.528 3.77316C30.6044 3.88065 30.6809 3.9953 30.7884 4.1195C30.8457 4.18638 30.9197 4.26043 31.0081 4.32492C30.1076 6.31937 29.317 8.34726 28.579 10.3966C27.8098 12.5511 27.0909 14.7271 26.4555 16.9246C25.8226 19.1221 25.2278 21.3315 24.7262 23.5648C24.4587 24.6755 24.2389 25.7981 24.0072 26.9183C23.7779 28.0385 23.5964 29.1659 23.3886 30.291C23.6155 29.1707 23.8162 28.0457 24.0646 26.9303C24.3154 25.8148 24.5542 24.6993 24.8409 23.5934C25.3783 21.3745 26.0112 19.177 26.6824 16.9962C27.3536 14.8131 28.1084 12.6586 28.9133 10.5232C29.6872 8.49057 30.5137 6.46985 31.4404 4.51362C31.5336 4.53511 31.6196 4.54706 31.7032 4.56139L32.0997 4.61633C32.3529 4.65215 32.5989 4.69515 32.8067 4.77158C32.9142 4.80741 33.005 4.85518 33.0838 4.90773C33.1626 4.96505 33.208 5.01044 33.2868 5.11315C33.4277 5.29945 33.5495 5.51681 33.6714 5.7485C33.7478 5.89182 33.8266 6.0423 33.9198 6.19755C33.989 6.30981 34.0703 6.42924 34.1873 6.5415C33.1268 8.36159 32.1427 10.2127 31.1968 12.0901C30.2127 14.0511 29.286 16.0432 28.4165 18.0568C27.5375 20.0679 26.7565 22.1197 26.0256 24.1858C25.2995 26.2567 24.6904 28.3634 24.1601 30.4892C24.7286 28.3729 25.3759 26.2782 26.1378 24.224C26.9046 22.1746 27.7215 20.1396 28.6363 18.1523C29.5415 16.1602 30.5017 14.1921 31.5169 12.2526C32.4866 10.4086 33.5042 8.58134 34.5814 6.80425C34.8226 6.92845 35.0615 7.01444 35.286 7.10282C35.587 7.21747 35.8497 7.34167 36.0814 7.52081C36.3298 7.7119 36.4755 7.88388 36.5257 8.15378C36.5544 8.28754 36.5591 8.45235 36.595 8.63866C36.6284 8.82497 36.7072 9.028 36.829 9.18564C36.8386 9.19997 36.8505 9.21192 36.8625 9.22625C35.6324 10.817 34.4859 12.4532 33.38 14.1228C32.243 15.8473 31.1658 17.6125 30.1482 19.4087C29.1212 21.2001 28.1968 23.0512 27.3297 24.9239C26.4651 26.7989 25.7294 28.7312 25.0749 30.6851C25.7676 28.7432 26.5391 26.8275 27.4372 24.974C28.3401 23.1229 29.2955 21.2956 30.3537 19.5281C31.4022 17.7558 32.5105 16.0193 33.6761 14.321C34.7988 12.692 35.9715 11.0893 37.2064 9.55348C37.2112 9.55826 37.216 9.56303 37.2208 9.56542C37.3545 9.67291 37.4954 9.77323 37.634 9.86638C37.9134 10.0503 38.1427 10.2151 38.3099 10.4659C38.4867 10.7024 38.5655 10.989 38.6181 11.3043C38.6611 11.5408 38.6802 11.7892 38.7518 12.0543C38.7638 12.1021 38.7829 12.1522 38.802 12.2024C37.462 13.54 36.2008 14.9325 34.9803 16.3657C33.7382 17.8298 32.5511 19.3394 31.4237 20.892C30.3059 22.4517 29.2645 24.0664 28.309 25.7264C27.3775 27.4032 26.5511 29.1373 25.8894 30.9359C26.5893 29.1516 27.4492 27.439 28.4118 25.7861C29.4006 24.15 30.4707 22.564 31.6172 21.0329C32.7733 19.509 33.9843 18.0305 35.2526 16.5997C36.4755 15.2239 37.7439 13.8792 39.0671 12.6108C39.1053 12.6562 39.1435 12.7016 39.1818 12.747C39.5138 13.1172 39.8338 13.4779 39.9509 13.9126C40.0082 14.13 40.0225 14.3664 40.0345 14.6148C40.0464 14.8131 40.056 15.0233 40.1109 15.2335C38.7877 16.3704 37.5337 17.5623 36.3107 18.7948C35.0734 20.044 33.8839 21.3386 32.7398 22.6715C31.5885 23.9995 30.5208 25.3968 29.4962 26.8228C28.4762 28.2535 27.5614 29.7535 26.7206 31.2918C27.5973 29.7726 28.5455 28.2965 29.5941 26.892C30.6474 25.4923 31.7438 24.1261 32.919 22.8291C34.0894 21.5273 35.3027 20.2662 36.5615 19.0504C37.7701 17.8896 39.017 16.7574 40.302 15.6945C40.3737 15.8258 40.4501 15.9477 40.5241 16.0719C40.6507 16.2821 40.7725 16.4922 40.8585 16.7072C40.9015 16.8147 40.9302 16.9222 40.9493 17.0297C40.9636 17.1395 40.9565 17.2303 40.9421 17.3665C40.9159 17.6173 40.9063 17.8704 40.9039 18.1212C40.9039 18.2359 40.9087 18.3505 40.9135 18.4676C39.626 19.3824 38.3983 20.3545 37.1969 21.3649C35.9883 22.3824 34.8179 23.443 33.6857 24.5417C32.5487 25.6357 31.4643 26.7822 30.4229 27.9669L29.6514 28.8626L28.911 29.7822L28.5407 30.2432L28.1896 30.7185L27.4874 31.6668L28.2135 30.7352L28.5766 30.2695L28.9587 29.818L29.7231 28.9175L30.5161 28.0433C31.5838 26.8873 32.6944 25.7718 33.8529 24.7113C35.009 23.646 36.1985 22.6189 37.4262 21.6396C38.5775 20.72 39.7622 19.8315 40.9732 19.005C41.0042 19.2128 41.0425 19.4206 41.0926 19.6236C41.1499 19.8673 41.2144 20.0966 41.1953 20.3116C41.181 20.5409 41.1165 20.7749 41.0472 21.009Z" fill="#ECC4AD"/>
</g>
<defs>
<clipPath id="clip0_258_1501">
<rect width="41.1931" height="38.6588" fill="white" transform="translate(0.517578 0.489014)"/>
</clipPath>
</defs>
</svg>
