<svg width="136" height="137" viewBox="0 0 136 137" fill="none" xmlns="http://www.w3.org/2000/svg">
<path d="M135.736 67.4879C135.862 66.9129 135.965 66.2669 135.91 65.5501C135.847 64.8805 135.713 64.3291 135.595 63.8092C135.358 62.7772 135.185 61.8241 135.106 60.8236C135.027 59.8311 135.035 58.8228 135.098 57.8144C135.122 57.2945 135.185 56.8298 135.232 56.2626C135.303 55.4906 135.161 54.7737 134.964 54.1593C134.547 52.9304 133.932 51.9615 133.389 51.0398C133.113 50.5908 132.853 50.1497 132.664 49.7558C132.483 49.3777 132.396 49.0705 132.325 48.6136C132.16 47.558 132.278 46.1322 131.837 44.604C131.372 43.0521 130.419 41.8784 129.537 40.8858C129.096 40.3896 128.662 39.9327 128.308 39.4915C128.229 39.3891 128.127 39.2552 128.08 39.1843C128.032 39.1213 127.985 39.0346 127.946 38.9401C127.859 38.7353 127.78 38.4911 127.725 38.2075C127.473 37.0889 127.386 35.6631 126.819 34.2767C126.677 33.9301 126.496 33.5835 126.299 33.2605C126.102 32.9611 125.89 32.6618 125.645 32.3782C125.165 31.8032 124.574 31.3305 124.015 30.9524C123.455 30.5743 122.936 30.2434 122.447 29.8811C121.975 29.5187 121.455 29.1012 121.155 28.7388C120.84 28.345 120.659 27.9275 120.572 27.3445C120.478 26.7774 120.454 26.0684 120.218 25.3279C119.997 24.5874 119.509 23.9336 118.989 23.4452C118.485 22.9647 117.918 22.5472 117.319 22.2084C115.901 21.3892 114.459 20.7354 113.231 20.0894C113.034 19.9949 112.805 19.861 112.648 19.7664C112.522 19.6877 112.388 19.5616 112.254 19.412C111.986 19.1126 111.742 18.7109 111.498 18.2934C111.017 17.4505 110.552 16.5288 109.954 15.6544C109.638 15.2133 109.355 14.8037 108.89 14.3783C108.433 13.9923 107.921 13.7245 107.409 13.5196C106.377 13.1336 105.345 12.984 104.345 12.8579L102.864 12.6768C102.383 12.6059 101.934 12.5271 101.635 12.3144C100.965 11.8654 100.438 10.9201 99.8074 10.1323C99.1773 9.32097 98.4289 8.57261 97.5703 7.9818C96.7037 7.35949 95.6167 7.04439 94.5847 7.02863C93.7261 6.99712 92.8753 7.09953 92.0561 7.20981C91.2368 7.31222 90.4176 7.42251 89.6771 7.29647C88.9996 7.14679 88.3852 6.61901 87.8259 6.04395C87.2587 5.4689 86.723 4.83871 86.1322 4.24002C85.5493 3.64921 84.9191 3.06628 84.1314 2.64878C83.7296 2.4676 83.2727 2.2943 82.808 2.30217C82.3511 2.28642 81.9021 2.36519 81.4924 2.49123C79.8539 3.00327 78.5069 3.95643 76.9471 4.18488C73.6465 4.81507 71.5905 0.797584 68.0141 0.9315C66.7065 0.9315 65.4461 1.45141 64.3905 2.1525C63.3192 2.82996 62.3424 3.64921 61.1844 4.03521C60.0343 4.43696 58.7739 4.27153 57.6317 3.8304C56.4658 3.41289 55.3709 2.73543 54.0632 2.49123C53.4173 2.36519 52.6925 2.44397 52.1017 2.75906C51.5031 3.05841 51.0068 3.48379 50.5499 3.92492C49.6282 4.8072 48.8562 5.81551 47.9346 6.63476C47.4698 7.02863 46.9578 7.39887 46.3748 7.46977C45.784 7.54067 45.146 7.46977 44.5237 7.43038C43.2711 7.33585 41.9871 7.24132 40.7346 7.47765C40.4431 7.53279 40.128 7.61156 39.8366 7.70609C39.5687 7.78487 39.3167 7.86364 39.0725 7.96605C38.2611 8.31265 37.5364 8.84832 36.9141 9.47851C36.2839 10.1008 35.7639 10.8177 35.2519 11.4951C34.9368 11.8969 34.5981 12.338 34.2672 12.5034C33.9128 12.6689 33.3535 12.7319 32.8493 12.7949C31.8095 12.921 30.7303 13.0155 29.6589 13.2912C29.1233 13.4251 28.5797 13.622 28.0598 13.8978C27.7999 14.0317 27.5557 14.2129 27.3115 14.4019C27.083 14.6146 26.8625 14.843 26.7049 15.0636C26.0117 15.9459 25.4997 16.9306 25.0113 17.8601C24.6804 18.4824 24.3653 19.1047 23.9793 19.5774C23.8848 19.6955 23.7824 19.798 23.68 19.8846C23.5933 19.9634 23.4594 20.05 23.3019 20.1446C23.0183 20.3257 22.7189 20.4833 22.4117 20.6408C21.1907 21.2474 19.7806 21.7122 18.5203 22.5472C17.8586 22.9883 17.2677 23.461 16.74 24.1148C16.2122 24.7686 15.9365 25.643 15.8577 26.415C15.771 27.1949 15.7159 27.8566 15.4402 28.408C15.1645 28.9437 14.6682 29.3769 14.0931 29.8417C13.5338 30.2907 12.943 30.6767 12.3128 31.1021C11.6826 31.5274 11.0209 32.0631 10.5168 32.7169C10.0205 33.3393 9.57937 34.1191 9.35093 34.899C9.09885 35.6789 8.97281 36.4587 8.86253 37.1913C8.73649 37.9791 8.61833 38.7589 8.35049 39.2552C8.29535 39.3576 8.20082 39.4994 8.08266 39.6412C7.97238 39.783 7.85421 39.9327 7.72818 40.0745L6.94043 40.9567C6.39689 41.5633 5.82971 42.2171 5.36495 42.9891C4.90018 43.7296 4.52206 44.6591 4.38815 45.5572C4.09668 47.3532 4.31725 48.9051 3.6713 49.9843C3.0096 51.2683 1.91463 52.5838 1.31595 54.3956C1.16628 54.8368 1.07962 55.333 1.06387 55.853L1.07175 56.2547L1.09538 56.5619L1.13477 57.1212C1.18203 57.8696 1.19779 58.6179 1.16628 59.3584C1.11901 60.8473 0.882689 62.2494 0.488817 63.7225C0.394288 64.1006 0.284004 64.4866 0.197352 64.9356C0.110701 65.361 0.0476813 65.9203 0.0870685 66.4166C0.157965 67.3934 0.378533 68.2048 0.599101 68.9925C0.819669 69.7487 1.0875 70.5522 1.18203 71.08C1.18991 71.2139 1.20566 71.1273 1.18203 71.2848L1.10326 71.8678C1.05599 72.2695 1.00873 72.6713 0.977218 73.0809C0.890566 74.1601 0.851179 75.2551 1.02448 76.4524C1.07175 76.7518 1.13477 77.0669 1.24505 77.3899C1.36321 77.7443 1.48137 78.0043 1.61529 78.2643C1.87525 78.7842 2.16671 79.2568 2.45817 79.6979L3.29318 80.9662C3.41922 81.1631 3.53738 81.3601 3.60828 81.5176C3.70281 81.7382 3.65554 81.557 3.78158 82.1006C4.01003 82.841 4.34088 83.2743 4.5772 83.6997C4.82928 84.1408 5.00258 84.4559 5.18377 84.9601C5.23891 85.1255 5.34131 85.2594 5.41221 85.417C5.5225 85.5509 5.6249 85.6848 5.73519 85.8108C5.96363 86.0235 6.13693 86.1732 6.33387 86.315C6.71986 86.6065 7.09798 86.8428 7.4761 87.0791C8.24021 87.5439 9.00432 87.9614 9.77631 88.371C11.3124 89.1824 12.8643 89.9465 14.4161 90.7106C15.4244 91.2069 16.2988 91.9631 17.3071 92.4436C19.371 93.4441 21.4428 94.4209 23.4909 95.4371C24.255 96.855 24.9404 98.3202 25.6493 99.7618C26.5158 101.55 27.3666 103.338 28.1859 105.142C28.9894 106.954 29.8007 108.758 30.4939 110.593L31.006 111.972L31.4629 113.35L31.8489 114.753C32.0143 115.257 32.1088 115.784 32.3451 116.273C33.1644 118.25 34.6296 120.007 36.4572 121.086C38.2768 122.181 40.2856 122.803 42.2943 123.142C44.3031 123.504 46.3276 123.567 48.3363 123.528C50.2584 123.489 52.1648 123.292 54.0553 123.024C54.4807 123.441 54.9219 123.859 55.3945 124.237C56.8282 125.426 58.4431 126.411 60.1682 127.096C61.8934 127.79 63.7367 128.191 65.58 128.333C66.0133 128.38 66.5096 128.42 66.864 128.396C67.2815 128.388 67.833 128.396 67.9984 128.396C67.896 128.388 67.6281 128.373 67.3603 128.341C68.668 128.325 69.6054 128.262 70.5349 128.144C72.8824 127.829 75.1905 127.144 77.341 126.104C79.0347 125.269 80.6259 124.229 82.0754 123.016C83.9581 123.284 85.8486 123.481 87.7629 123.512C89.7716 123.552 91.7961 123.489 93.8048 123.126C95.8136 122.787 97.8223 122.165 99.642 121.07C101.47 119.999 102.935 118.234 103.754 116.257C103.99 115.769 104.085 115.241 104.25 114.737L104.636 113.335L105.093 111.956L105.605 110.577C106.298 108.742 107.11 106.938 107.913 105.126C108.733 103.322 109.575 101.526 110.45 99.746C111.143 98.3438 111.805 96.9259 112.537 95.5473C112.616 95.5079 112.695 95.4607 112.774 95.4213L118.201 92.6957C120.336 91.6244 122.479 90.553 124.598 89.4266C125.661 88.8594 126.717 88.2843 127.764 87.6542C128.292 87.3469 128.812 87.0082 129.332 86.6458C129.592 86.4647 129.852 86.2677 130.12 86.0314C130.372 85.8266 130.75 85.3854 130.908 84.9443C131.065 84.4559 131.231 84.1251 131.459 83.6997C131.68 83.2822 131.979 82.8568 132.207 82.1872C132.262 82.0297 132.302 81.8012 132.325 81.6673C132.325 81.6515 132.349 81.5964 132.373 81.5255C132.436 81.3758 132.538 81.1789 132.648 80.9898C132.885 80.596 133.153 80.1785 133.428 79.7452C133.704 79.3119 133.98 78.8551 134.232 78.3667C134.358 78.1146 134.476 77.8704 134.586 77.5868C134.704 77.2717 134.783 76.9645 134.838 76.673C135.043 75.5071 134.996 74.4437 134.933 73.396C134.894 72.8367 134.831 72.2853 134.767 71.7496C134.736 71.4975 134.689 71.1431 134.704 71.1431C134.712 71.0643 134.767 70.8122 134.823 70.5995C135.083 69.6779 135.484 68.638 135.736 67.4879ZM48.36 122.756C46.3906 122.614 44.4291 122.386 42.5464 121.937C40.6637 121.48 38.8283 120.858 37.2685 119.826C35.6852 118.841 34.4957 117.368 33.8103 115.674C33.5977 115.265 33.5189 114.8 33.3613 114.367L32.936 112.893C32.613 111.925 32.2742 110.971 31.8804 110.042C31.0848 108.191 30.234 106.371 29.2966 104.606C28.3749 102.834 31.3368 100.195 32.5027 101.069C34.4405 102.519 36.1815 104.213 38.0011 105.796C41.5775 108.939 45.0593 112.224 48.1079 115.895C50.1009 118.211 51.826 120.802 54.0238 122.977C52.1175 122.929 50.2348 122.921 48.36 122.756ZM109.772 99.3994C108.74 101.109 107.732 102.834 106.81 104.614C105.873 106.379 105.014 108.198 104.227 110.05C103.833 110.979 103.494 111.932 103.171 112.901L102.746 114.374C102.588 114.808 102.509 115.272 102.297 115.682C101.604 117.376 100.422 118.849 98.8385 119.833C97.2788 120.865 95.4434 121.488 93.5606 121.945C91.6701 122.394 89.7086 122.622 87.7471 122.764C85.888 122.929 84.0132 122.937 82.1384 122.992C82.9261 122.331 83.6745 121.622 84.3756 120.865C85.3839 119.763 86.2504 118.62 87.1642 117.51C88.0937 116.415 89.0154 115.304 89.9843 114.248C92.5681 111.373 95.1913 108.514 98.0823 105.938C101.115 103.267 104.298 100.77 107.63 98.5171C108.441 97.9421 110.3 98.5486 109.772 99.3994ZM133.736 68.5908C133.546 69.2603 133.31 69.8905 133.168 70.6547C129.23 73.0494 125.441 75.5938 121.699 78.2327C117.957 80.8874 114.294 83.6524 110.726 86.5356C107.157 89.4187 103.723 92.4594 100.39 95.6104C97.0897 98.7928 93.9703 102.157 91.0556 105.686C94.0648 102.235 97.2709 98.974 100.658 95.8939C104.061 92.8454 107.575 89.915 111.206 87.15C114.845 84.385 118.564 81.7382 122.361 79.2017C125.921 76.8384 129.545 74.554 133.231 72.4271C133.279 72.8052 133.318 73.1833 133.35 73.5614C133.42 74.5303 133.452 75.5229 133.279 76.4209C133.129 77.2481 132.578 78.1067 132.058 78.926C131.79 79.3435 131.506 79.761 131.238 80.21C131.104 80.4384 130.971 80.6747 130.852 80.9583C130.797 81.108 130.742 81.2656 130.711 81.4546C130.687 81.5649 130.671 81.6279 130.64 81.7146C130.372 82.4078 129.631 83.3925 129.332 84.3929C129.277 84.5189 129.23 84.5898 129.096 84.7001C128.962 84.8262 128.781 84.9601 128.615 85.094C128.253 85.3539 127.875 85.606 127.473 85.8423C126.685 86.3307 125.858 86.7876 125.031 87.2445C123.369 88.1504 121.683 89.0248 119.997 89.9071C116.492 91.774 112.947 93.4913 109.457 95.5473C106.062 97.753 102.903 100.179 99.8783 102.802C96.8534 105.41 94.0018 108.214 91.3313 111.176C90.6618 111.917 90 112.657 89.362 113.421C88.7081 114.177 88.078 114.942 87.4635 115.729C86.1874 117.25 85.0845 118.935 83.8163 120.424C81.3979 123.252 78.2075 125.45 74.6863 126.71C72.3704 127.538 69.6684 128.254 67.2737 128.325C67.2579 128.325 67.25 128.325 67.2343 128.325C66.9349 128.302 66.612 128.27 66.2654 128.239C65.9266 128.191 65.5721 128.136 65.2413 128.089C64.1384 127.924 63.0592 127.695 62.0037 127.364C60.121 126.75 58.38 125.789 56.8361 124.591C55.2842 123.402 53.9608 121.945 52.7556 120.401C51.5661 118.857 50.4317 117.171 49.1792 115.595C48.5648 114.8 47.9425 114.012 47.2886 113.248C46.6506 112.468 45.9889 111.704 45.3114 110.963C41.8611 107.096 38.0405 103.559 33.9758 100.337C31.9355 98.7298 29.8322 97.2095 27.6502 95.7915C26.5237 95.0432 25.3579 94.4445 24.2156 93.8379L20.7732 92.0891L13.3212 88.4261C12.0844 87.8117 10.8634 87.1894 9.66602 86.5198C9.06734 86.1889 8.47653 85.8423 7.92511 85.48C7.6494 85.2988 7.38157 85.1097 7.13737 84.9128C6.89317 84.6922 6.75925 84.5977 6.68048 84.385C6.43628 83.613 5.94 82.8017 5.60127 82.1715C5.47523 81.9273 5.38858 81.7067 5.34919 81.5098C5.29405 81.1159 5.12075 80.7614 4.97895 80.4857C4.67173 79.9185 4.333 79.4222 4.01791 78.9181C3.70281 78.4218 3.41134 77.9255 3.16714 77.4135C3.0411 77.1535 2.94658 76.9172 2.88356 76.673C2.82054 76.4209 2.77327 76.1452 2.74964 75.8695C2.63936 74.7509 2.73388 73.5772 2.8678 72.4113C6.53081 74.5067 10.1387 76.7597 13.6678 79.0914C17.4489 81.5964 21.1434 84.2196 24.7592 86.9609C28.3749 89.7023 31.8567 92.6091 35.244 95.634C38.6077 98.6826 41.7902 101.928 44.7757 105.355C41.8847 101.849 38.7889 98.5014 35.5119 95.3425C32.2112 92.2152 28.7924 89.1903 25.2476 86.3307C21.6949 83.4791 18.0555 80.7299 14.3295 78.1067C10.6192 75.4993 6.85378 72.9864 2.94658 70.631C2.93082 70.568 2.92294 70.505 2.90719 70.442C2.75752 69.8196 2.56846 69.2525 2.39516 68.6853C2.0643 67.5588 1.70982 66.4245 1.88312 65.3846C2.07218 64.3133 2.42667 63.1396 2.58421 61.958C6.6017 64.7229 10.501 67.6533 14.298 70.6783C18.347 73.908 22.2699 77.3032 26.0826 80.8087C29.911 84.3062 33.574 87.985 37.0874 91.7977L39.7027 94.6808L42.2234 97.6506L43.4838 99.1394L44.6812 100.676L47.0759 103.748L44.76 100.62L43.602 99.0528L42.381 97.5325L39.939 94.4996L37.3946 91.5456C33.9679 87.6384 30.3837 83.8572 26.634 80.2494C22.9001 76.6257 19.0402 73.1282 15.0542 69.7724C11.0918 66.4402 7.04284 63.242 2.7969 60.2171C2.83629 59.5553 2.84417 58.9015 2.82054 58.2398C2.78903 57.6333 2.74964 57.0267 2.6945 56.4201C2.67087 56.0893 2.63936 55.8923 2.67874 55.6166C2.6945 55.3646 2.75752 55.0967 2.83629 54.8368C3.23016 53.5764 4.08093 52.4342 4.83716 51.1659C4.84504 51.1501 4.86079 51.1265 4.86867 51.1107C9.09097 54.6004 13.1872 58.3186 17.1575 62.1313C21.3089 66.1409 25.3185 70.3002 29.1705 74.5934C33.0462 78.8708 36.662 83.3767 40.1359 87.9929C43.5941 92.6248 46.7215 97.4931 49.6125 102.503C46.8396 97.43 43.8226 92.483 40.4589 87.7644C37.0874 83.0616 33.5583 78.4533 29.7613 74.0735C25.9881 69.6779 22.0651 65.4083 17.9846 61.2884C13.975 57.2551 9.87084 53.3558 5.53825 49.6219C5.60127 49.4013 5.65641 49.1886 5.68792 48.9681C5.82184 48.1961 5.84547 47.4635 5.91637 46.7782C5.97939 46.0928 6.08967 45.4469 6.31024 44.8797C6.53081 44.3125 6.87741 43.7532 7.27129 43.2254C7.67303 42.6976 8.1378 42.1935 8.61833 41.6499C8.77587 41.4766 8.93342 41.2797 9.09097 41.0906C13.3763 45.2184 17.4962 49.5825 21.4664 54.049C25.6415 58.7676 29.6432 63.6437 33.4559 68.6695C37.2292 73.719 40.7661 78.9496 44.0274 84.3456C47.202 89.7968 50.0378 95.4449 52.3459 101.329C50.1639 95.3977 47.4383 89.6787 44.3661 84.1487C41.2073 78.666 37.7727 73.3487 34.0939 68.2048C30.3758 63.0844 26.4607 58.1059 22.3644 53.277C18.4021 48.6294 14.3058 44.1077 9.97324 39.7594C9.989 39.7279 10.0126 39.6963 10.0205 39.6648C10.3356 38.8141 10.3986 38.0578 10.501 37.341C10.5956 36.6241 10.698 35.9546 10.8791 35.3322C11.0525 34.7021 11.336 34.1979 11.722 33.6622C12.1001 33.1502 12.557 32.7406 13.1163 32.3309C13.6756 31.9213 14.3137 31.4881 14.8966 30.9918C14.9518 30.9445 14.999 30.8973 15.0542 30.8579C19.1111 35.9152 22.971 41.1852 26.6655 46.534C30.5097 52.1269 34.1648 57.8617 37.623 63.7068C41.1127 69.5361 44.2716 75.5623 47.2414 81.6673C50.2112 87.7802 52.7477 94.0979 55.0321 100.502C52.8737 94.0506 50.4475 87.6857 47.5958 81.5019C44.7363 75.326 41.6878 69.2288 38.3005 63.3129C34.9447 57.3812 31.392 51.5676 27.6423 45.8801C24.0029 40.3817 20.2139 34.9856 16.1649 29.7471C16.3067 29.566 16.4327 29.3769 16.543 29.1642C16.992 28.3607 17.0393 27.4391 17.0866 26.7616C17.1338 26.0526 17.2441 25.5091 17.5592 25.0128C17.8664 24.5244 18.3785 24.0439 18.9062 23.6421C19.434 23.2325 20.0327 22.9017 20.6708 22.6023C21.3089 22.303 21.9863 22.0273 22.6559 21.7043C22.908 21.5861 23.1601 21.4443 23.4121 21.3025C27.0673 27.3051 30.5018 33.481 33.7867 39.72C37.1425 46.1086 40.3013 52.5996 43.2869 59.1772C46.3039 65.7391 48.9901 72.4428 51.5267 79.2017C54.0396 85.9763 56.1744 92.8848 58.0492 99.8642C56.3004 92.8533 54.2917 85.8975 51.8969 79.0756C49.4864 72.2616 46.9105 65.4949 44.0116 58.8621C41.1442 52.2215 38.0878 45.6596 34.8423 39.1843C31.6362 32.8193 28.2961 26.541 24.6804 20.3651C25.1924 19.7507 25.5075 19.089 25.8226 18.4588C26.1377 17.7971 26.4449 17.1511 26.7916 16.5288C27.146 15.9223 27.5242 15.2999 28.0283 14.8824C28.5482 14.4492 29.2099 14.1656 29.8874 13.9608C31.1163 13.5748 32.4239 13.4803 33.7237 13.2203L33.6134 13.2754C36.851 20.0185 39.7105 27.0058 42.3889 34.0325C45.0436 41.0749 47.5328 48.1803 49.7464 55.3803C51.9599 62.5803 54.0475 69.8196 55.8199 77.1378C56.7652 80.785 57.5529 84.4717 58.38 88.1426C59.1993 91.8213 59.861 95.5316 60.6094 99.2261C59.924 95.5237 59.3253 91.7977 58.5691 88.1032C57.805 84.4086 57.0803 80.7141 56.198 77.0432C54.5516 69.6857 52.5901 62.3991 50.4947 55.144C48.3993 47.8967 46.0282 40.7283 43.4917 33.615C40.9237 26.5095 38.1981 19.4829 35.0313 12.5743L34.9683 12.6059C35.1968 12.3774 35.3937 12.1253 35.5749 11.8811C35.9924 11.3218 36.3784 10.7547 36.8195 10.2426C37.4261 9.51002 38.1429 8.80106 38.9937 8.28115C39.1985 8.15511 39.4112 8.04482 39.6318 7.94242C40.1517 7.76911 40.7189 7.64307 41.2624 7.61156C42.7512 7.4934 44.2243 7.74548 45.7447 7.84001H45.7368C47.8637 15.2212 49.7464 22.7126 51.5109 30.2198C53.2597 37.727 54.9061 45.2657 56.3792 52.8359C57.8523 60.4061 59.2387 68 60.4282 75.6174C61.6728 83.2349 62.689 90.8839 63.65 98.5408C62.815 90.8681 61.9328 83.1955 60.8142 75.5544C59.7507 67.9054 58.4982 60.288 57.1512 52.6862C55.812 45.0845 54.2917 37.5064 52.661 29.952C51.0304 22.4526 49.2895 14.9848 47.2886 7.55642C47.4856 7.46189 47.6746 7.35161 47.8479 7.22557C48.4309 6.81594 48.9193 6.31966 49.3998 5.83126C50.3451 4.87022 51.2589 3.80676 52.3774 3.27898C53.4724 2.74331 54.7092 3.29473 55.9144 3.86978C56.9464 4.35818 58.0886 4.91748 59.3805 5.04352L62.9883 51.5204L64.7371 75.0266C65.2964 82.8647 65.8715 90.7027 66.289 98.5486C66.0054 90.6948 65.5564 82.8489 65.131 75.003L63.7761 51.4731L60.9402 4.96475C61.4129 4.85446 61.8619 4.69691 62.2715 4.50785C62.949 4.19276 63.5398 3.79889 64.1148 3.42865C65.2492 2.68817 66.3284 2.05797 67.4785 1.96344C68.6443 1.86104 69.7393 2.19189 70.7791 2.8851C71.8426 3.54681 72.8824 4.53149 74.4027 5.13017C74.6312 5.2247 74.8754 5.2956 75.1196 5.35862L72.1025 51.4574L70.6531 74.9951C70.1962 82.841 69.7157 90.687 69.4321 98.5408C69.8496 90.6948 70.464 82.8568 71.047 75.0187L72.8903 51.5125L76.6714 5.50041C76.9629 5.48466 77.2544 5.46102 77.5301 5.40588C78.5463 5.2247 79.4285 4.83871 80.2399 4.49998C81.0434 4.15337 81.7996 3.84615 82.4062 3.77525C82.7055 3.74374 82.9419 3.79101 83.1782 3.86978C83.4303 3.97219 83.7139 4.14549 83.9974 4.36606C84.5646 4.82295 85.1318 5.43739 85.7147 6.08334C86.3055 6.72929 86.92 7.43038 87.7865 8.06845C88.0071 8.226 88.267 8.38355 88.5585 8.50959C86.6994 15.6308 85.0688 22.7835 83.5327 29.9677C81.9336 37.5222 80.4447 45.0924 79.1213 52.702C77.7979 60.3037 76.5533 67.9212 75.5056 75.5702C74.4027 83.2113 73.5205 90.876 72.6933 98.5408C73.6544 90.8839 74.6706 83.2428 75.8995 75.6253C77.0811 68.0078 78.4439 60.414 79.9012 52.8438C81.3506 45.2736 82.9734 37.7349 84.6907 30.2198C86.3449 23.0592 88.1095 15.9065 90.0867 8.84044C90.4412 8.84832 90.772 8.82469 91.0871 8.80106C92.0482 8.70653 92.8753 8.54898 93.6631 8.50171C94.4508 8.43869 95.1519 8.50959 95.7742 8.72228C95.9318 8.76955 96.0735 8.8562 96.2232 8.91134C96.365 9.00587 96.4989 9.07677 96.6486 9.17917C96.9558 9.39974 97.2552 9.63606 97.523 9.9039C98.0823 10.4238 98.5471 11.0382 99.0433 11.7472C99.2954 12.1017 99.5475 12.4798 99.902 12.8894C100.091 13.11 100.335 13.3542 100.627 13.5669C97.6569 20.1446 95.0495 26.8325 92.6154 33.5913C90.0788 40.6968 87.7077 47.8731 85.6123 55.1204C83.5248 62.3676 81.5633 69.6542 79.9091 77.0196C79.0268 80.6826 78.3021 84.385 77.538 88.0795C76.7817 91.774 76.183 95.4922 75.4977 99.2025C76.2461 95.5079 76.9078 91.7977 77.727 88.1189C78.5541 84.4402 79.3419 80.7614 80.2872 77.1141C82.0596 69.796 84.1471 62.5488 86.3607 55.3567C88.5742 48.1567 91.0635 41.0513 93.7182 34.0088C96.2705 27.3051 98.9961 20.6408 102.053 14.1892C102.36 14.2601 102.643 14.2995 102.919 14.3468L104.227 14.5279C105.062 14.6461 105.873 14.7879 106.558 15.04C106.913 15.1581 107.212 15.3157 107.472 15.489C107.732 15.6781 107.882 15.8277 108.142 16.1665C108.607 16.7809 109.008 17.4977 109.41 18.2619C109.662 18.7345 109.922 19.2308 110.229 19.7428C110.458 20.113 110.726 20.5069 111.112 20.8772C107.614 26.8798 104.368 32.9848 101.249 39.1764C98.0035 45.6438 94.9471 52.2136 92.0797 58.8543C89.1808 65.4871 86.6049 72.2538 84.1944 79.0677C81.7996 85.8975 79.7909 92.8454 78.0421 99.8563C79.9169 92.8769 82.0517 85.9684 84.5646 79.1938C87.0933 72.435 89.7874 65.7234 92.8044 59.1694C95.79 52.5996 98.9567 46.1086 102.305 39.7121C105.503 33.6307 108.859 27.6045 112.411 21.7437C113.207 22.1533 113.995 22.4369 114.735 22.7284C115.728 23.1065 116.594 23.5161 117.358 24.1069C118.178 24.7371 118.658 25.3043 118.824 26.1944C118.918 26.6356 118.934 27.1791 119.052 27.7935C119.162 28.408 119.422 29.0776 119.824 29.5975C119.856 29.6447 119.895 29.6841 119.934 29.7314C115.877 34.9778 112.096 40.3738 108.449 45.8801C104.699 51.5676 101.147 57.3891 97.7908 63.3129C94.4035 69.221 91.355 75.326 88.4955 81.5019C85.6438 87.6857 83.2176 94.0585 81.0592 100.502C83.3436 94.0979 85.888 87.7802 88.8499 81.6673C91.8276 75.5623 94.9786 69.5361 98.4683 63.7068C101.926 57.8617 105.582 52.1348 109.426 46.534C113.128 41.1615 116.996 35.8758 121.069 30.8106C121.084 30.8264 121.1 30.8421 121.116 30.85C121.557 31.2045 122.022 31.5353 122.479 31.8425C123.4 32.4491 124.157 32.9926 124.708 33.8198C125.291 34.5996 125.551 35.5449 125.724 36.5848C125.866 37.3646 125.929 38.1839 126.165 39.0583C126.205 39.2158 126.268 39.3812 126.331 39.5467C121.912 43.958 117.752 48.5506 113.727 53.277C109.631 58.1059 105.716 63.0844 101.997 68.2048C98.3107 73.3487 94.8762 78.6739 91.7252 84.1487C88.653 89.6787 85.9274 95.3977 83.7454 101.329C86.0535 95.4449 88.8893 89.7968 92.0639 84.3456C95.3252 78.9496 98.8543 73.719 102.635 68.6695C106.448 63.6437 110.442 58.7676 114.625 54.049C118.658 49.5116 122.841 45.0766 127.205 40.8937C127.331 41.0434 127.457 41.1931 127.583 41.3427C128.678 42.5637 129.734 43.7532 130.12 45.1869C130.309 45.9038 130.356 46.6836 130.396 47.5029C130.435 48.1567 130.466 48.8499 130.648 49.5431C126.283 53.2928 122.148 57.2236 118.115 61.2884C114.034 65.4083 110.111 69.6779 106.338 74.0735C102.541 78.4533 99.0197 83.0616 95.6403 87.7644C92.2766 92.483 89.2596 97.43 86.4867 102.503C89.3777 97.4931 92.5051 92.6248 95.9633 87.9929C99.4372 83.3767 103.053 78.8708 106.929 74.5934C110.789 70.3002 114.79 66.1409 118.942 62.1313C122.928 58.3028 127.04 54.5689 131.278 51.0635C131.514 51.4967 131.766 51.8985 132.01 52.3081C132.428 53.0013 132.83 53.6945 133.113 54.4035C133.255 54.758 133.35 55.1125 133.413 55.467C133.46 55.8293 133.436 56.1287 133.389 56.5777C133.302 57.4048 133.271 58.2398 133.263 59.0669C133.263 59.4451 133.279 59.8232 133.294 60.2092C129.048 63.2262 124.999 66.4323 121.037 69.7645C117.051 73.1203 113.191 76.6179 109.457 80.2415C105.708 83.8493 102.131 87.6305 98.6967 91.5377L96.1523 94.4918L93.7103 97.5246L92.4893 99.0449L91.3313 100.613L89.0154 103.74L91.4101 100.668L92.6075 99.1316L93.8679 97.6427L96.3886 94.6729L99.0039 91.7898C102.525 87.9771 106.188 84.2984 110.009 80.8008C113.821 77.2875 117.744 73.9002 121.793 70.6704C125.59 67.6376 129.497 64.7072 133.491 61.9816C133.594 62.6669 133.72 63.3523 133.885 64.0219C134.074 64.8254 134.287 65.5816 134.224 66.2906C134.177 67.0468 133.964 67.8188 133.736 68.5908Z" fill="#02676A"/>
</svg>
