<svg width="136" height="137" viewBox="0 0 136 137" fill="none" xmlns="http://www.w3.org/2000/svg">
<path d="M135.736 66.7688C135.862 66.1938 135.965 65.5478 135.91 64.831C135.847 64.1614 135.713 63.61 135.595 63.09C135.358 62.0581 135.185 61.1049 135.106 60.1045C135.027 59.1119 135.035 58.1036 135.098 57.0953C135.122 56.5754 135.185 56.1106 135.232 55.5435C135.303 54.7715 135.161 54.0546 134.964 53.4402C134.547 52.2113 133.932 51.2424 133.389 50.3207C133.113 49.8717 132.853 49.4306 132.664 49.0367C132.483 48.6586 132.396 48.3514 132.325 47.8945C132.16 46.8389 132.278 45.4131 131.837 43.8849C131.372 42.333 130.419 41.1593 129.537 40.1667C129.096 39.6704 128.662 39.2136 128.308 38.7724C128.229 38.67 128.127 38.5361 128.08 38.4652C128.032 38.4022 127.985 38.3155 127.946 38.221C127.859 38.0162 127.78 37.772 127.725 37.4884C127.473 36.3698 127.386 34.944 126.819 33.5576C126.677 33.2109 126.496 32.8643 126.299 32.5414C126.102 32.242 125.89 31.9427 125.645 31.6591C125.165 31.084 124.574 30.6114 124.015 30.2333C123.455 29.8552 122.936 29.5243 122.447 29.1619C121.975 28.7996 121.455 28.3821 121.155 28.0197C120.84 27.6258 120.659 27.2083 120.572 26.6254C120.478 26.0582 120.454 25.3493 120.218 24.6088C119.997 23.8683 119.509 23.2145 118.989 22.7261C118.485 22.2456 117.918 21.8281 117.319 21.4893C115.901 20.6701 114.459 20.0162 113.231 19.3703C113.034 19.2758 112.805 19.1419 112.648 19.0473C112.522 18.9686 112.388 18.8425 112.254 18.6928C111.986 18.3935 111.742 17.9917 111.498 17.5742C111.017 16.7314 110.552 15.8097 109.954 14.9353C109.638 14.4942 109.355 14.0845 108.89 13.6592C108.433 13.2732 107.921 13.0053 107.409 12.8005C106.377 12.4145 105.345 12.2649 104.345 12.1388L102.864 11.9576C102.383 11.8867 101.934 11.808 101.635 11.5953C100.965 11.1463 100.438 10.201 99.8074 9.41323C99.1773 8.60185 98.4289 7.85349 97.5703 7.26269C96.7037 6.64037 95.6167 6.32527 94.5847 6.30952C93.7261 6.27801 92.8753 6.38041 92.0561 6.4907C91.2368 6.5931 90.4176 6.70339 89.6771 6.57735C88.9996 6.42768 88.3852 5.89989 87.8259 5.32484C87.2587 4.74979 86.723 4.11959 86.1322 3.52091C85.5493 2.9301 84.9191 2.34717 84.1314 1.92966C83.7296 1.74848 83.2727 1.57518 82.808 1.58306C82.3511 1.5673 81.9021 1.64608 81.4924 1.77212C79.8539 2.28415 78.5069 3.23732 76.9471 3.46576C73.6465 4.09596 71.5905 0.0784679 68.0141 0.212384C66.7065 0.212384 65.4461 0.732295 64.3905 1.43339C63.3192 2.11085 62.3424 2.9301 61.1844 3.31609C60.0343 3.71784 58.7739 3.55242 57.6317 3.11128C56.4658 2.69378 55.3709 2.01632 54.0632 1.77212C53.4173 1.64608 52.6925 1.72485 52.1017 2.03995C51.5031 2.33929 51.0068 2.76467 50.5499 3.20581C49.6282 4.08808 48.8562 5.09639 47.9346 5.91565C47.4698 6.30952 46.9578 6.67976 46.3748 6.75065C45.784 6.82155 45.146 6.75065 44.5237 6.71127C43.2711 6.61674 41.9871 6.52221 40.7346 6.75853C40.4431 6.81367 40.128 6.89245 39.8366 6.98698C39.5687 7.06575 39.3167 7.14452 39.0725 7.24693C38.2611 7.59354 37.5364 8.1292 36.9141 8.7594C36.2839 9.38172 35.7639 10.0986 35.2519 10.776C34.9368 11.1778 34.5981 11.6189 34.2672 11.7843C33.9128 11.9498 33.3535 12.0128 32.8493 12.0758C31.8095 12.2018 30.7303 12.2964 29.6589 12.5721C29.1233 12.706 28.5797 12.9029 28.0598 13.1786C27.7999 13.3126 27.5557 13.4937 27.3115 13.6828C27.083 13.8955 26.8625 14.1239 26.7049 14.3445C26.0117 15.2268 25.4997 16.2114 25.0113 17.141C24.6804 17.7633 24.3653 18.3856 23.9793 18.8583C23.8848 18.9764 23.7824 19.0788 23.68 19.1655C23.5933 19.2443 23.4594 19.3309 23.3019 19.4254C23.0183 19.6066 22.7189 19.7642 22.4117 19.9217C21.1907 20.5283 19.7806 20.993 18.5203 21.8281C17.8586 22.2692 17.2677 22.7418 16.74 23.3957C16.2122 24.0495 15.9365 24.9239 15.8577 25.6959C15.771 26.4757 15.7159 27.1374 15.4402 27.6889C15.1645 28.2245 14.6682 28.6578 14.0931 29.1226C13.5338 29.5716 12.943 29.9576 12.3128 30.3829C11.6826 30.8083 11.0209 31.344 10.5168 31.9978C10.0205 32.6201 9.57937 33.4 9.35093 34.1799C9.09885 34.9597 8.97281 35.7396 8.86253 36.4722C8.73649 37.2599 8.61833 38.0398 8.35049 38.5361C8.29535 38.6385 8.20082 38.7803 8.08266 38.9221C7.97238 39.0639 7.85421 39.2136 7.72818 39.3553L6.94043 40.2376C6.39689 40.8442 5.82971 41.498 5.36495 42.27C4.90018 43.0105 4.52206 43.94 4.38815 44.838C4.09668 46.6341 4.31725 48.1859 3.6713 49.2652C3.0096 50.5492 1.91463 51.8647 1.31595 53.6765C1.16628 54.1177 1.07962 54.6139 1.06387 55.1338L1.07175 55.5356L1.09538 55.8428L1.13477 56.4021C1.18203 57.1505 1.19779 57.8988 1.16628 58.6393C1.11901 60.1281 0.882689 61.5303 0.488817 63.0034C0.394288 63.3815 0.284004 63.7675 0.197352 64.2165C0.110701 64.6419 0.0476813 65.2012 0.0870685 65.6975C0.157965 66.6743 0.378533 67.4857 0.599101 68.2734C0.819669 69.0296 1.0875 69.8331 1.18203 70.3609C1.18991 70.4948 1.20566 70.4082 1.18203 70.5657L1.10326 71.1487C1.05599 71.5504 1.00873 71.9522 0.977218 72.3618C0.890566 73.441 0.851179 74.536 1.02448 75.7333C1.07175 76.0327 1.13477 76.3478 1.24505 76.6707C1.36321 77.0252 1.48137 77.2852 1.61529 77.5451C1.87525 78.065 2.16671 78.5377 2.45817 78.9788L3.29318 80.2471C3.41922 80.444 3.53738 80.641 3.60828 80.7985C3.70281 81.0191 3.65554 80.8379 3.78158 81.3814C4.01003 82.1219 4.34088 82.5552 4.5772 82.9806C4.82928 83.4217 5.00258 83.7368 5.18377 84.241C5.23891 84.4064 5.34131 84.5403 5.41221 84.6978C5.5225 84.8318 5.6249 84.9657 5.73519 85.0917C5.96363 85.3044 6.13693 85.4541 6.33387 85.5959C6.71986 85.8873 7.09798 86.1237 7.4761 86.36C8.24021 86.8247 9.00432 87.2423 9.77631 87.6519C11.3124 88.4633 12.8643 89.2274 14.4161 89.9915C15.4244 90.4878 16.2988 91.244 17.3071 91.7245C19.371 92.7249 21.4428 93.7017 23.4909 94.7179C24.255 96.1359 24.9404 97.6011 25.6493 99.0427C26.5158 100.831 27.3666 102.619 28.1859 104.423C28.9894 106.235 29.8007 108.039 30.4939 109.874L31.006 111.253L31.4629 112.631L31.8489 114.033C32.0143 114.538 32.1088 115.065 32.3451 115.554C33.1644 117.531 34.6296 119.288 36.4572 120.367C38.2768 121.462 40.2856 122.084 42.2943 122.423C44.3031 122.785 46.3276 122.848 48.3363 122.809C50.2584 122.769 52.1648 122.573 54.0553 122.305C54.4807 122.722 54.9219 123.14 55.3945 123.518C56.8282 124.707 58.4431 125.692 60.1682 126.377C61.8934 127.071 63.7367 127.472 65.58 127.614C66.0133 127.661 66.5096 127.701 66.864 127.677C67.2815 127.669 67.833 127.677 67.9984 127.677C67.896 127.669 67.6281 127.653 67.3603 127.622C68.668 127.606 69.6054 127.543 70.5349 127.425C72.8824 127.11 75.1905 126.425 77.341 125.385C79.0347 124.55 80.6259 123.51 82.0754 122.297C83.9581 122.565 85.8486 122.762 87.7629 122.793C89.7716 122.832 91.7961 122.769 93.8048 122.407C95.8136 122.068 97.8223 121.446 99.642 120.351C101.47 119.28 102.935 117.515 103.754 115.538C103.99 115.05 104.085 114.522 104.25 114.018L104.636 112.615L105.093 111.237L105.605 109.858C106.298 108.023 107.11 106.219 107.913 104.407C108.733 102.603 109.575 100.807 110.45 99.0269C111.143 97.6247 111.805 96.2068 112.537 94.8282C112.616 94.7888 112.695 94.7416 112.774 94.7022L118.201 91.9766C120.336 90.9053 122.479 89.8339 124.598 88.7075C125.661 88.1403 126.717 87.5652 127.764 86.935C128.292 86.6278 128.812 86.2891 129.332 85.9267C129.592 85.7455 129.852 85.5486 130.12 85.3123C130.372 85.1075 130.75 84.6663 130.908 84.2252C131.065 83.7368 131.231 83.4059 131.459 82.9806C131.68 82.5631 131.979 82.1377 132.207 81.4681C132.262 81.3105 132.302 81.0821 132.325 80.9482C132.325 80.9324 132.349 80.8773 132.373 80.8064C132.436 80.6567 132.538 80.4598 132.648 80.2707C132.885 79.8769 133.153 79.4594 133.428 79.0261C133.704 78.5928 133.98 78.1359 134.232 77.6475C134.358 77.3955 134.476 77.1513 134.586 76.8677C134.704 76.5526 134.783 76.2454 134.838 75.9539C135.043 74.788 134.996 73.7246 134.933 72.6769C134.894 72.1176 134.831 71.5662 134.767 71.0305C134.736 70.7784 134.689 70.4239 134.704 70.4239C134.712 70.3452 134.767 70.0931 134.823 69.8804C135.083 68.9587 135.484 67.9189 135.736 66.7688ZM48.36 122.037C46.3906 121.895 44.4291 121.667 42.5464 121.218C40.6637 120.761 38.8283 120.138 37.2685 119.106C35.6852 118.122 34.4957 116.649 33.8103 114.955C33.5977 114.545 33.5189 114.081 33.3613 113.647L32.936 112.174C32.613 111.205 32.2742 110.252 31.8804 109.323C31.0848 107.471 30.234 105.652 29.2966 103.887C28.3749 102.115 31.3368 99.4759 32.5027 100.35C34.4405 101.8 36.1815 103.493 38.0011 105.077C41.5775 108.22 45.0593 111.505 48.1079 115.176C50.1009 117.492 51.826 120.083 54.0238 122.257C52.1175 122.21 50.2348 122.202 48.36 122.037ZM109.772 98.6803C108.74 100.39 107.732 102.115 106.81 103.895C105.873 105.66 105.014 107.479 104.227 109.331C103.833 110.26 103.494 111.213 103.171 112.182L102.746 113.655C102.588 114.089 102.509 114.553 102.297 114.963C101.604 116.657 100.422 118.13 98.8385 119.114C97.2788 120.146 95.4434 120.769 93.5606 121.225C91.6701 121.675 89.7086 121.903 87.7471 122.045C85.888 122.21 84.0132 122.218 82.1384 122.273C82.9261 121.611 83.6745 120.903 84.3756 120.146C85.3839 119.043 86.2504 117.901 87.1642 116.79C88.0937 115.696 89.0154 114.585 89.9843 113.529C92.5681 110.654 95.1913 107.794 98.0823 105.219C101.115 102.548 104.298 100.051 107.63 97.798C108.441 97.223 110.3 97.8295 109.772 98.6803ZM133.736 67.8717C133.546 68.5412 133.31 69.1714 133.168 69.9355C129.23 72.3303 125.441 74.8747 121.699 77.5136C117.957 80.1683 114.294 82.9333 110.726 85.8164C107.157 88.6996 103.723 91.7403 100.39 94.8912C97.0897 98.0737 93.9703 101.437 91.0556 104.966C94.0648 101.516 97.2709 98.2549 100.658 95.1748C104.061 92.1263 107.575 89.1959 111.206 86.4309C114.845 83.6659 118.564 81.0191 122.361 78.4825C125.921 76.1193 129.545 73.8349 133.231 71.708C133.279 72.0861 133.318 72.4642 133.35 72.8423C133.42 73.8112 133.452 74.8038 133.279 75.7018C133.129 76.5289 132.578 77.3876 132.058 78.2068C131.79 78.6243 131.506 79.0419 131.238 79.4909C131.104 79.7193 130.971 79.9556 130.852 80.2392C130.797 80.3889 130.742 80.5464 130.711 80.7355C130.687 80.8458 130.671 80.9088 130.64 80.9955C130.372 81.6887 129.631 82.6733 129.332 83.6738C129.277 83.7998 129.23 83.8707 129.096 83.981C128.962 84.107 128.781 84.241 128.615 84.3749C128.253 84.6348 127.875 84.8869 127.473 85.1232C126.685 85.6116 125.858 86.0685 125.031 86.5254C123.369 87.4313 121.683 88.3057 119.997 89.188C116.492 91.0549 112.947 92.7722 109.457 94.8282C106.062 97.0339 102.903 99.4601 99.8783 102.083C96.8534 104.691 94.0018 107.495 91.3313 110.457C90.6618 111.198 90 111.938 89.362 112.702C88.7081 113.458 88.078 114.222 87.4635 115.01C86.1874 116.531 85.0845 118.216 83.8163 119.705C81.3979 122.533 78.2075 124.731 74.6863 125.991C72.3704 126.818 69.6684 127.535 67.2737 127.606C67.2579 127.606 67.25 127.606 67.2343 127.606C66.9349 127.583 66.612 127.551 66.2654 127.52C65.9266 127.472 65.5721 127.417 65.2413 127.37C64.1384 127.204 63.0592 126.976 62.0037 126.645C60.121 126.031 58.38 125.07 56.8361 123.872C55.2842 122.683 53.9608 121.225 52.7556 119.682C51.5661 118.138 50.4317 116.452 49.1792 114.876C48.5648 114.081 47.9425 113.293 47.2886 112.529C46.6506 111.749 45.9889 110.985 45.3114 110.244C41.8611 106.377 38.0405 102.84 33.9758 99.6177C31.9355 98.0107 29.8322 96.4904 27.6502 95.0724C26.5237 94.3241 25.3579 93.7254 24.2156 93.1188L20.7732 91.37L13.3212 87.707C12.0844 87.0926 10.8634 86.4703 9.66602 85.8007C9.06734 85.4698 8.47653 85.1232 7.92511 84.7609C7.6494 84.5797 7.38157 84.3906 7.13737 84.1937C6.89317 83.9731 6.75925 83.8786 6.68048 83.6659C6.43628 82.8939 5.94 82.0825 5.60127 81.4523C5.47523 81.2081 5.38858 80.9876 5.34919 80.7906C5.29405 80.3968 5.12075 80.0423 4.97895 79.7666C4.67173 79.1994 4.333 78.7031 4.01791 78.199C3.70281 77.7027 3.41134 77.2064 3.16714 76.6944C3.0411 76.4344 2.94658 76.1981 2.88356 75.9539C2.82054 75.7018 2.77327 75.4261 2.74964 75.1504C2.63936 74.0318 2.73388 72.8581 2.8678 71.6922C6.53081 73.7876 10.1387 76.0405 13.6678 78.3723C17.4489 80.8773 21.1434 83.5005 24.7592 86.2418C28.3749 88.9832 31.8567 91.8899 35.244 94.9149C38.6077 97.9634 41.7902 101.209 44.7757 104.636C41.8847 101.13 38.7889 97.7823 35.5119 94.6234C32.2112 91.4961 28.7924 88.4711 25.2476 85.6116C21.6949 82.76 18.0555 80.0108 14.3295 77.3876C10.6192 74.7802 6.85378 72.2673 2.94658 69.9119C2.93082 69.8489 2.92294 69.7859 2.90719 69.7228C2.75752 69.1005 2.56846 68.5334 2.39516 67.9662C2.0643 66.8397 1.70982 65.7054 1.88312 64.6655C2.07218 63.5942 2.42667 62.4205 2.58421 61.2388C6.6017 64.0038 10.501 66.9342 14.298 69.9592C18.347 73.1889 22.2699 76.5841 26.0826 80.0895C29.911 83.5871 33.574 87.2659 37.0874 91.0786L39.7027 93.9617L42.2234 96.9315L43.4838 98.4203L44.6812 99.9564L47.0759 103.029L44.76 99.9013L43.602 98.3337L42.381 96.8133L39.939 93.7805L37.3946 90.8265C33.9679 86.9193 30.3837 83.1381 26.634 79.5302C22.9001 75.9066 19.0402 72.4091 15.0542 69.0533C11.0918 65.7211 7.04284 62.5229 2.7969 59.4979C2.83629 58.8362 2.84417 58.1824 2.82054 57.5207C2.78903 56.9141 2.74964 56.3076 2.6945 55.701C2.67087 55.3702 2.63936 55.1732 2.67874 54.8975C2.6945 54.6454 2.75752 54.3776 2.83629 54.1177C3.23016 52.8573 4.08093 51.715 4.83716 50.4468C4.84504 50.431 4.86079 50.4074 4.86867 50.3916C9.09097 53.8813 13.1872 57.5995 17.1575 61.4122C21.3089 65.4218 25.3185 69.5811 29.1705 73.8743C33.0462 78.1517 36.662 82.6576 40.1359 87.2738C43.5941 91.9057 46.7215 96.774 49.6125 101.784C46.8396 96.7109 43.8226 91.7639 40.4589 87.0453C37.0874 82.3425 33.5583 77.7342 29.7613 73.3543C25.9881 68.9587 22.0651 64.6892 17.9846 60.5693C13.975 56.536 9.87084 52.6367 5.53825 48.9028C5.60127 48.6822 5.65641 48.4695 5.68792 48.249C5.82184 47.477 5.84547 46.7444 5.91637 46.059C5.97939 45.3737 6.08967 44.7278 6.31024 44.1606C6.53081 43.5934 6.87741 43.0341 7.27129 42.5063C7.67303 41.9785 8.1378 41.4744 8.61833 40.9308C8.77587 40.7575 8.93342 40.5606 9.09097 40.3715C13.3763 44.4993 17.4962 48.8634 21.4664 53.3299C25.6415 58.0485 29.6432 62.9246 33.4559 67.9504C37.2292 72.9999 40.7661 78.2305 44.0274 83.6265C47.202 89.0777 50.0378 94.7258 52.3459 100.61C50.1639 94.6786 47.4383 88.9595 44.3661 83.4296C41.2073 77.9469 37.7727 72.6296 34.0939 67.4857C30.3758 62.3653 26.4607 57.3868 22.3644 52.5579C18.4021 47.9102 14.3058 43.3886 9.97324 39.0402C9.989 39.0087 10.0126 38.9772 10.0205 38.9457C10.3356 38.095 10.3986 37.3387 10.501 36.6219C10.5956 35.905 10.698 35.2354 10.8791 34.6131C11.0525 33.9829 11.336 33.4788 11.722 32.9431C12.1001 32.4311 12.557 32.0215 13.1163 31.6118C13.6756 31.2022 14.3137 30.7689 14.8966 30.2727C14.9518 30.2254 14.999 30.1781 15.0542 30.1387C19.1111 35.1961 22.971 40.4661 26.6655 45.8148C30.5097 51.4078 34.1648 57.1426 37.623 62.9876C41.1127 68.8169 44.2716 74.8432 47.2414 80.9482C50.2112 87.0611 52.7477 93.3788 55.0321 99.7831C52.8737 93.3315 50.4475 86.9665 47.5958 80.7828C44.7363 74.6069 41.6878 68.5097 38.3005 62.5938C34.9447 56.6621 31.392 50.8485 27.6423 45.161C24.0029 39.6626 20.2139 34.2665 16.1649 29.028C16.3067 28.8468 16.4327 28.6578 16.543 28.4451C16.992 27.6416 17.0393 26.7199 17.0866 26.0425C17.1338 25.3335 17.2441 24.79 17.5592 24.2937C17.8664 23.8053 18.3785 23.3248 18.9062 22.923C19.434 22.5134 20.0327 22.1825 20.6708 21.8832C21.3089 21.5839 21.9863 21.3081 22.6559 20.9852C22.908 20.867 23.1601 20.7252 23.4121 20.5834C27.0673 26.586 30.5018 32.7619 33.7867 39.0009C37.1425 45.3895 40.3013 51.8805 43.2869 58.4581C46.3039 65.02 48.9901 71.7237 51.5267 78.4825C54.0396 85.2571 56.1744 92.1657 58.0492 99.1451C56.3004 92.1341 54.2917 85.1784 51.8969 78.3565C49.4864 71.5425 46.9105 64.7758 44.0116 58.143C41.1442 51.5023 38.0878 44.9404 34.8423 38.4652C31.6362 32.1002 28.2961 25.8219 24.6804 19.646C25.1924 19.0316 25.5075 18.3699 25.8226 17.7397C26.1377 17.078 26.4449 16.432 26.7916 15.8097C27.146 15.2031 27.5242 14.5808 28.0283 14.1633C28.5482 13.7301 29.2099 13.4465 29.8874 13.2417C31.1163 12.8557 32.4239 12.7611 33.7237 12.5012L33.6134 12.5563C36.851 19.2994 39.7105 26.2867 42.3889 33.3134C45.0436 40.3558 47.5328 47.4612 49.7464 54.6612C51.9599 61.8612 54.0475 69.1005 55.8199 76.4187C56.7652 80.0659 57.5529 83.7526 58.38 87.4234C59.1993 91.1022 59.861 94.8125 60.6094 98.507C59.924 94.8046 59.3253 91.0786 58.5691 87.384C57.805 83.6895 57.0803 79.995 56.198 76.3241C54.5516 68.9666 52.5901 61.68 50.4947 54.4249C48.3993 47.1776 46.0282 40.0092 43.4917 32.8958C40.9237 25.7904 38.1981 18.7637 35.0313 11.8552L34.9683 11.8867C35.1968 11.6583 35.3937 11.4062 35.5749 11.162C35.9924 10.6027 36.3784 10.0355 36.8195 9.52351C37.4261 8.79091 38.1429 8.08194 38.9937 7.56203C39.1985 7.43599 39.4112 7.32571 39.6318 7.2233C40.1517 7.05 40.7189 6.92396 41.2624 6.89245C42.7512 6.77429 44.2243 7.02636 45.7447 7.12089H45.7368C47.8637 14.502 49.7464 21.9935 51.5109 29.5007C53.2597 37.0079 54.9061 44.5466 56.3792 52.1168C57.8523 59.687 59.2387 67.2808 60.4282 74.8983C61.6728 82.5158 62.689 90.1648 63.65 97.8216C62.815 90.149 61.9328 82.4764 60.8142 74.8353C59.7507 67.1863 58.4982 59.5688 57.1512 51.9671C55.812 44.3654 54.2917 36.7873 52.661 29.2328C51.0304 21.7335 49.2895 14.2657 47.2886 6.83731C47.4856 6.74278 47.6746 6.63249 47.8479 6.50645C48.4309 6.09683 48.9193 5.60055 49.3998 5.11215C50.3451 4.1511 51.2589 3.08765 52.3774 2.55986C53.4724 2.02419 54.7092 2.57561 55.9144 3.15067C56.9464 3.63907 58.0886 4.19836 59.3805 4.3244L62.9883 50.8013L64.7371 74.3075C65.2964 82.1456 65.8715 89.9836 66.289 97.8295C66.0054 89.9757 65.5564 82.1298 65.131 74.2839L63.7761 50.754L60.9402 4.24563C61.4129 4.13535 61.8619 3.9778 62.2715 3.78874C62.949 3.47364 63.5398 3.07977 64.1148 2.70953C65.2492 1.96905 66.3284 1.33886 67.4785 1.24433C68.6443 1.14192 69.7393 1.47277 70.7791 2.16599C71.8426 2.82769 72.8824 3.81237 74.4027 4.41106C74.6312 4.50558 74.8754 4.57648 75.1196 4.6395L72.1025 50.7382L70.6531 74.276C70.1962 82.1219 69.7157 89.9678 69.4321 97.8216C69.8496 89.9757 70.464 82.1377 71.047 74.2996L72.8903 50.7934L76.6714 4.78129C76.9629 4.76554 77.2544 4.74191 77.5301 4.68677C78.5463 4.50558 79.4285 4.11959 80.2399 3.78086C81.0434 3.43425 81.7996 3.12703 82.4062 3.05614C82.7055 3.02463 82.9419 3.07189 83.1782 3.15067C83.4303 3.25307 83.7139 3.42638 83.9974 3.64694C84.5646 4.10384 85.1318 4.71828 85.7147 5.36422C86.3055 6.01017 86.92 6.71127 87.7865 7.34934C88.0071 7.50689 88.267 7.66444 88.5585 7.79047C86.6994 14.9117 85.0688 22.0644 83.5327 29.2486C81.9336 36.8031 80.4447 44.3733 79.1213 51.9829C77.7979 59.5846 76.5533 67.2021 75.5056 74.8511C74.4027 82.4922 73.5205 90.1569 72.6933 97.8216C73.6544 90.1648 74.6706 82.5237 75.8995 74.9062C77.0811 67.2887 78.4439 59.6949 79.9012 52.1247C81.3506 44.5544 82.9734 37.0157 84.6907 29.5007C86.3449 22.3401 88.1095 15.1874 90.0867 8.12133C90.4412 8.1292 90.772 8.10557 91.0871 8.08194C92.0482 7.98741 92.8753 7.82986 93.6631 7.7826C94.4508 7.71958 95.1519 7.79047 95.7742 8.00316C95.9318 8.05043 96.0735 8.13708 96.2232 8.19222C96.365 8.28675 96.4989 8.35765 96.6486 8.46006C96.9558 8.68062 97.2552 8.91695 97.523 9.18478C98.0823 9.70469 98.5471 10.3191 99.0433 11.0281C99.2954 11.3826 99.5475 11.7607 99.902 12.1703C100.091 12.3909 100.335 12.6351 100.627 12.8478C97.6569 19.4254 95.0495 26.1134 92.6154 32.8722C90.0788 39.9777 87.7077 47.154 85.6123 54.4012C83.5248 61.6485 81.5633 68.9351 79.9091 76.3005C79.0268 79.9635 78.3021 83.6659 77.538 87.3604C76.7817 91.0549 76.183 94.7731 75.4977 98.4833C76.2461 94.7888 76.9078 91.0786 77.727 87.3998C78.5541 83.721 79.3419 80.0423 80.2872 76.395C82.0596 69.0769 84.1471 61.8297 86.3607 54.6376C88.5742 47.4376 91.0635 40.3321 93.7182 33.2897C96.2705 26.586 98.9961 19.9217 102.053 13.4701C102.36 13.541 102.643 13.5804 102.919 13.6277L104.227 13.8088C105.062 13.927 105.873 14.0688 106.558 14.3209C106.913 14.439 107.212 14.5966 107.472 14.7699C107.732 14.9589 107.882 15.1086 108.142 15.4473C108.607 16.0618 109.008 16.7786 109.41 17.5427C109.662 18.0154 109.922 18.5117 110.229 19.0237C110.458 19.3939 110.726 19.7878 111.112 20.158C107.614 26.1606 104.368 32.2657 101.249 38.4573C98.0035 44.9247 94.9471 51.4945 92.0797 58.1351C89.1808 64.7679 86.6049 71.5347 84.1944 78.3486C81.7996 85.1784 79.7909 92.1263 78.0421 99.1372C79.9169 92.1578 82.0517 85.2493 84.5646 78.4747C87.0933 71.7158 89.7874 65.0043 92.8044 58.4502C95.79 51.8805 98.9567 45.3895 102.305 38.993C105.503 32.9116 108.859 26.8854 112.411 21.0246C113.207 21.4342 113.995 21.7178 114.735 22.0092C115.728 22.3874 116.594 22.797 117.358 23.3878C118.178 24.018 118.658 24.5852 118.824 25.4753C118.918 25.9164 118.934 26.46 119.052 27.0744C119.162 27.6889 119.422 28.3584 119.824 28.8784C119.856 28.9256 119.895 28.965 119.934 29.0123C115.877 34.2586 112.096 39.6547 108.449 45.161C104.699 50.8485 101.147 56.6699 97.7908 62.5938C94.4035 68.5018 91.355 74.6069 88.4955 80.7828C85.6438 86.9665 83.2176 93.3394 81.0592 99.7831C83.3436 93.3788 85.888 87.0611 88.8499 80.9482C91.8276 74.8432 94.9786 68.8169 98.4683 62.9876C101.926 57.1426 105.582 51.4157 109.426 45.8148C113.128 40.4424 116.996 35.1567 121.069 30.0915C121.084 30.1072 121.1 30.123 121.116 30.1309C121.557 30.4854 122.022 30.8162 122.479 31.1234C123.4 31.73 124.157 32.2735 124.708 33.1007C125.291 33.8805 125.551 34.8258 125.724 35.8656C125.866 36.6455 125.929 37.4648 126.165 38.3392C126.205 38.4967 126.268 38.6621 126.331 38.8276C121.912 43.2389 117.752 47.8315 113.727 52.5579C109.631 57.3868 105.716 62.3653 101.997 67.4857C98.3107 72.6296 94.8762 77.9548 91.7252 83.4296C88.653 88.9595 85.9274 94.6786 83.7454 100.61C86.0535 94.7258 88.8893 89.0777 92.0639 83.6265C95.3252 78.2305 98.8543 72.9999 102.635 67.9504C106.448 62.9246 110.442 58.0485 114.625 53.3299C118.658 48.7925 122.841 44.3575 127.205 40.1746C127.331 40.3243 127.457 40.4739 127.583 40.6236C128.678 41.8446 129.734 43.0341 130.12 44.4678C130.309 45.1846 130.356 45.9645 130.396 46.7838C130.435 47.4376 130.466 48.1308 130.648 48.824C126.283 52.5737 122.148 56.5045 118.115 60.5693C114.034 64.6892 110.111 68.9587 106.338 73.3543C102.541 77.7342 99.0197 82.3425 95.6403 87.0453C92.2766 91.7639 89.2596 96.7109 86.4867 101.784C89.3777 96.774 92.5051 91.9057 95.9633 87.2738C99.4372 82.6576 103.053 78.1517 106.929 73.8743C110.789 69.5811 114.79 65.4218 118.942 61.4122C122.928 57.5837 127.04 53.8498 131.278 50.3444C131.514 50.7776 131.766 51.1794 132.01 51.589C132.428 52.2822 132.83 52.9754 133.113 53.6844C133.255 54.0389 133.35 54.3934 133.413 54.7478C133.46 55.1102 133.436 55.4096 133.389 55.8586C133.302 56.6857 133.271 57.5207 133.263 58.3478C133.263 58.7259 133.279 59.1041 133.294 59.4901C129.048 62.5071 124.999 65.7132 121.037 69.0454C117.051 72.4012 113.191 75.8987 109.457 79.5224C105.708 83.1302 102.131 86.9114 98.6967 90.8186L96.1523 93.7726L93.7103 96.8055L92.4893 98.3258L91.3313 99.8934L89.0154 103.021L91.4101 99.9486L92.6075 98.4125L93.8679 96.9236L96.3886 93.9538L99.0039 91.0707C102.525 87.258 106.188 83.5793 110.009 80.0817C113.821 76.5683 117.744 73.181 121.793 69.9513C125.59 66.9185 129.497 63.9881 133.491 61.2625C133.594 61.9478 133.72 62.6332 133.885 63.3027C134.074 64.1062 134.287 64.8625 134.224 65.5714C134.177 66.3277 133.964 67.0997 133.736 67.8717Z" fill="#02676A"/>
</svg>
