<svg width="232" height="27" viewBox="0 0 232 27" fill="none" xmlns="http://www.w3.org/2000/svg">
<path d="M59.7865 14.3646C30.5969 14.3646 6.9397 13.8172 6.9397 13.1482C6.9397 12.4792 30.5969 11.9319 59.7865 11.9319C88.9761 11.9319 112.633 13.1482 112.633 13.1482C112.633 13.1482 88.9645 14.3646 59.7865 14.3646Z" fill="#02676A"/>
<path d="M93.0035 5.02524C95.2257 8.07826 96.6493 11.107 95.9318 12.1165C95.2142 13.1139 92.4711 11.5448 90.0869 8.27288C88.8948 6.64298 88.2466 4.72116 87.9226 3.23722C87.5985 1.75329 87.5869 0.695068 87.5869 0.695068C87.5869 0.695068 88.3971 1.03564 89.4735 1.74112C90.5499 2.4466 91.8809 3.49265 93.0035 5.02524Z" fill="#02676A"/>
<path d="M79.1105 16.6282C82.0966 14.0982 85.0827 13.3075 85.6035 14.4752C86.1243 15.6551 84.1336 18.2459 81.3327 20.6299C79.9323 21.8219 78.4045 22.4788 77.2008 22.8558C76.0087 23.2329 75.1406 23.3302 75.1406 23.3302C75.1406 23.3302 75.3721 22.3085 75.9855 20.9462C76.6105 19.5839 77.629 17.8932 79.1105 16.6282Z" fill="#02676A"/>
<path d="M69.0228 5.68186C71.5575 8.51594 73.4903 11.2284 72.9232 12.3839C72.3792 13.5273 69.2427 12.4569 66.3955 9.28223C64.9835 7.71315 64.1386 5.74268 63.7103 4.22225C63.2705 2.68966 63.2126 1.60712 63.2126 1.60712C63.2126 1.60712 64.0575 1.94769 65.1918 2.61668C66.326 3.29783 67.7496 4.25874 69.0228 5.68186Z" fill="#02676A"/>
<path d="M55.2381 19.1947C59.3816 15.8741 62.8654 13.1617 63.6408 14.1348C64.0112 14.6213 63.583 15.9593 62.495 17.6743C61.407 19.3893 59.6247 21.445 57.3909 23.2452C55.1571 25.0453 52.7844 25.9454 51.0252 26.3225C49.2659 26.7117 48.1201 26.6509 48.1201 26.6509C48.1201 26.6509 48.8956 25.5927 50.1687 24.1452C51.4303 22.71 53.1664 20.8611 55.2381 19.1947Z" fill="#02676A"/>
<path d="M45.3287 5.45043C48.1874 7.57902 50.0624 10.2306 49.5069 11.3862C48.9513 12.5295 46.1736 11.7389 43.3032 9.61031C40.4329 7.48172 39.125 3.67457 39.125 3.67457C39.125 3.67457 42.4699 3.32183 45.3287 5.45043Z" fill="#02676A"/>
<path d="M29.9718 18.0382C33.3514 14.9852 36.3837 12.735 37.1592 13.6959C37.9231 14.6203 35.9671 18.6342 32.2981 21.9427C30.481 23.5969 28.4787 24.4483 26.9857 24.8376C25.4811 25.2389 24.4741 25.2146 24.4741 25.2146C24.4741 25.2146 25.0297 24.1686 25.9787 22.7576C26.9394 21.3467 28.2704 19.5708 29.9718 18.0382Z" fill="#02676A"/>
<path d="M18.9643 6.14234C20.33 7.43166 21.5568 8.62367 22.448 9.6454C23.3276 10.655 23.8485 11.5307 23.6633 12.1754C23.4781 12.7957 22.5638 13.039 21.2328 12.7349C19.9133 12.4308 18.1772 11.5307 16.5684 9.99814C14.9481 8.45338 13.999 6.3856 13.5476 4.80436C13.0847 3.21095 13.0615 2.09192 13.0615 2.09192C13.0615 2.09192 13.9064 2.51764 15.0407 3.22312C16.1749 3.91643 17.6101 4.85301 18.9643 6.14234Z" fill="#02676A"/>
<path d="M6.12938 8.52582C8.1664 9.88812 9.17333 12.114 8.54834 13.1966C7.91177 14.2913 6.05993 13.975 4.26597 12.7952C3.35162 12.187 2.7382 11.1531 2.29839 10.2409C1.87015 9.34076 1.63867 8.57447 1.63867 8.57447C1.63867 8.57447 2.22894 8.20957 3.09699 8.02712C3.96504 7.84466 5.11087 7.84466 6.12938 8.52582Z" fill="#02676A"/>
<path d="M2.88754 15.8379C5.05188 13.3444 7.54028 12.5538 8.14213 13.6485C8.75555 14.7553 7.49399 17.1637 5.56113 19.3896C4.58892 20.5086 3.40837 21.1655 2.44773 21.579C1.48709 21.9926 0.746358 22.1507 0.746358 22.1507C0.746358 22.1507 0.72321 21.2263 0.989411 19.9491C1.24404 18.6963 1.81116 17.0785 2.88754 15.8379Z" fill="#02676A"/>
<path d="M172.226 11.6896C201.415 11.6896 225.073 12.2369 225.073 12.9059C225.073 13.5749 201.415 14.1223 172.226 14.1223C143.036 14.1223 119.379 12.9059 119.379 12.9059C119.379 12.9059 143.036 11.6896 172.226 11.6896Z" fill="#02676A"/>
<path d="M141.94 8.01677C139.555 11.2887 136.812 12.8578 136.095 11.8604C135.366 10.8508 136.801 7.82216 139.023 4.76914C140.134 3.23655 141.477 2.1905 142.553 1.48502C143.629 0.779541 144.44 0.438965 144.44 0.438965C144.44 0.438965 144.428 1.49718 144.104 2.98112C143.768 4.46506 143.12 6.38687 141.94 8.01677Z" fill="#02676A"/>
<path d="M150.665 20.3751C147.864 17.9911 145.874 15.4124 146.395 14.2204C146.915 13.0527 149.913 13.8433 152.888 16.3733C154.369 17.6383 155.388 19.329 156.001 20.6913C156.614 22.0536 156.846 23.0754 156.846 23.0754C156.846 23.0754 155.989 22.9781 154.786 22.601C153.605 22.2239 152.077 21.5671 150.665 20.3751Z" fill="#02676A"/>
<path d="M165.618 9.02613C162.771 12.2008 159.646 13.259 159.09 12.1278C158.523 10.9723 160.456 8.25983 162.991 5.42576C164.264 4.00264 165.688 3.04173 166.833 2.36058C167.968 1.69159 168.813 1.35101 168.813 1.35101C168.813 1.35101 168.743 2.43356 168.315 3.96615C167.864 5.48657 167.03 7.45705 165.618 9.02613Z" fill="#02676A"/>
<path d="M174.62 23.0006C172.386 21.2005 170.604 19.1448 169.516 17.4298C168.428 15.7148 167.999 14.3646 168.37 13.8902C169.145 12.9172 172.629 15.6296 176.773 18.9502C178.844 20.6166 180.58 22.4655 181.854 23.9129C183.127 25.3603 183.902 26.4186 183.902 26.4186C183.902 26.4186 182.756 26.4794 180.997 26.0902C179.226 25.6888 176.854 24.8008 174.62 23.0006Z" fill="#02676A"/>
<path d="M188.706 9.34145C185.847 11.4701 183.07 12.2607 182.502 11.1173C181.947 9.97395 183.81 7.31016 186.681 5.18157C189.551 3.05297 192.884 3.40571 192.884 3.40571C192.884 3.40571 191.565 7.21286 188.706 9.34145Z" fill="#02676A"/>
<path d="M199.715 21.6891C196.046 18.3685 194.09 14.3546 194.854 13.4423C195.641 12.4936 198.662 14.7316 202.042 17.7847C203.731 19.3172 205.074 21.0931 206.035 22.5041C206.995 23.915 207.539 24.9611 207.539 24.9611C207.539 24.9611 206.532 24.9854 205.028 24.584C203.535 24.1948 201.532 23.3433 199.715 21.6891Z" fill="#02676A"/>
<path d="M215.448 9.7306C213.839 11.2632 212.114 12.1633 210.783 12.4674C209.452 12.7714 208.538 12.5282 208.353 11.9078C208.156 11.2753 208.688 10.3996 209.568 9.37786C210.459 8.35613 211.686 7.17628 213.052 5.87479C214.406 4.58547 215.841 3.64889 216.987 2.93125C218.121 2.22577 218.966 1.80005 218.966 1.80005C218.966 1.80005 218.943 2.91908 218.48 4.51249C218.017 6.11806 217.068 8.18584 215.448 9.7306Z" fill="#02676A"/>
<path d="M227.759 12.528C225.965 13.72 224.114 14.0241 223.477 12.9294C222.84 11.8468 223.859 9.60876 225.896 8.25862C226.903 7.58963 228.06 7.57747 228.928 7.77208C229.796 7.95453 230.387 8.31943 230.387 8.31943C230.387 8.31943 230.155 9.08573 229.727 9.98582C229.276 10.8981 228.651 11.932 227.759 12.528Z" fill="#02676A"/>
<path d="M226.439 19.1337C224.506 16.9078 223.244 14.5116 223.858 13.3925C224.46 12.2978 226.948 13.0885 229.112 15.582C230.189 16.8226 230.756 18.4404 231.01 19.7054C231.277 20.9704 231.253 21.9069 231.253 21.9069C231.253 21.9069 230.513 21.7488 229.552 21.3353C228.591 20.8974 227.411 20.2527 226.439 19.1337Z" fill="#02676A"/>
<path d="M116.197 15.2893C117.469 15.2893 118.5 14.015 118.5 12.443C118.5 10.8711 117.469 9.5968 116.197 9.5968C114.925 9.5968 113.894 10.8711 113.894 12.443C113.894 14.015 114.925 15.2893 116.197 15.2893Z" fill="#02676A"/>
</svg>
