<svg width="137" height="137" viewBox="0 0 137 137" fill="none" xmlns="http://www.w3.org/2000/svg">
<path d="M136.493 67.4879C136.619 66.9129 136.722 66.2669 136.667 65.5501C136.604 64.8805 136.47 64.3291 136.352 63.8092C136.115 62.7772 135.942 61.8241 135.863 60.8236C135.784 59.8311 135.792 58.8228 135.855 57.8144C135.879 57.2945 135.942 56.8298 135.989 56.2626C136.06 55.4906 135.918 54.7737 135.721 54.1593C135.304 52.9304 134.689 51.9615 134.146 51.0398C133.87 50.5908 133.61 50.1497 133.421 49.7558C133.24 49.3777 133.153 49.0705 133.082 48.6136C132.917 47.558 133.035 46.1322 132.594 44.604C132.129 43.0521 131.176 41.8784 130.294 40.8858C129.853 40.3896 129.419 39.9327 129.065 39.4915C128.986 39.3891 128.884 39.2552 128.837 39.1843C128.789 39.1213 128.742 39.0346 128.703 38.9401C128.616 38.7353 128.537 38.4911 128.482 38.2075C128.23 37.0889 128.143 35.6631 127.576 34.2767C127.434 33.9301 127.253 33.5835 127.056 33.2605C126.859 32.9611 126.647 32.6618 126.402 32.3782C125.922 31.8032 125.331 31.3305 124.772 30.9524C124.212 30.5743 123.693 30.2434 123.204 29.8811C122.732 29.5187 122.212 29.1012 121.912 28.7388C121.597 28.345 121.416 27.9275 121.329 27.3445C121.235 26.7774 121.211 26.0684 120.975 25.3279C120.754 24.5874 120.266 23.9336 119.746 23.4452C119.242 22.9647 118.675 22.5472 118.076 22.2084C116.658 21.3892 115.216 20.7354 113.988 20.0894C113.791 19.9949 113.562 19.861 113.405 19.7664C113.279 19.6877 113.145 19.5616 113.011 19.412C112.743 19.1126 112.499 18.7109 112.255 18.2934C111.774 17.4505 111.309 16.5288 110.711 15.6544C110.395 15.2133 110.112 14.8037 109.647 14.3783C109.19 13.9923 108.678 13.7245 108.166 13.5196C107.134 13.1336 106.102 12.984 105.102 12.8579L103.621 12.6768C103.14 12.6059 102.691 12.5271 102.392 12.3144C101.722 11.8654 101.195 10.9201 100.564 10.1323C99.9342 9.32097 99.1859 8.57261 98.3272 7.9818C97.4607 7.35949 96.3736 7.04439 95.3417 7.02863C94.4831 6.99712 93.6323 7.09953 92.813 7.20981C91.9938 7.31222 91.1745 7.42251 90.4341 7.29647C89.7566 7.14679 89.1422 6.61901 88.5829 6.04395C88.0157 5.4689 87.48 4.83871 86.8892 4.24002C86.3063 3.64921 85.6761 3.06628 84.8884 2.64878C84.4866 2.4676 84.0297 2.2943 83.5649 2.30217C83.1081 2.28642 82.659 2.36519 82.2494 2.49123C80.6109 3.00327 79.2639 3.95643 77.7041 4.18488C74.4035 4.81507 72.3475 0.797584 68.7711 0.9315C67.4635 0.9315 66.2031 1.45141 65.1475 2.1525C64.0762 2.82996 63.0994 3.64921 61.9414 4.03521C60.7913 4.43696 59.5309 4.27153 58.3887 3.8304C57.2228 3.41289 56.1279 2.73543 54.8202 2.49123C54.1743 2.36519 53.4495 2.44397 52.8587 2.75906C52.26 3.05841 51.7638 3.48379 51.3069 3.92492C50.3852 4.8072 49.6132 5.81551 48.6916 6.63476C48.2268 7.02863 47.7148 7.39887 47.1318 7.46977C46.541 7.54067 45.903 7.46977 45.2806 7.43038C44.0281 7.33585 42.7441 7.24132 41.4916 7.47765C41.2001 7.53279 40.885 7.61156 40.5936 7.70609C40.3257 7.78487 40.0737 7.86364 39.8295 7.96605C39.0181 8.31265 38.2934 8.84832 37.671 9.47851C37.0408 10.1008 36.5209 10.8177 36.0089 11.4951C35.6938 11.8969 35.3551 12.338 35.0242 12.5034C34.6697 12.6689 34.1104 12.7319 33.6063 12.7949C32.5665 12.921 31.4873 13.0155 30.4159 13.2912C29.8803 13.4251 29.3367 13.622 28.8168 13.8978C28.5569 14.0317 28.3127 14.2129 28.0685 14.4019C27.84 14.6146 27.6194 14.843 27.4619 15.0636C26.7687 15.9459 26.2566 16.9306 25.7682 17.8601C25.4374 18.4824 25.1223 19.1047 24.7363 19.5774C24.6418 19.6955 24.5394 19.798 24.437 19.8846C24.3503 19.9634 24.2164 20.05 24.0588 20.1446C23.7753 20.3257 23.4759 20.4833 23.1687 20.6408C21.9477 21.2474 20.5376 21.7122 19.2772 22.5472C18.6155 22.9883 18.0247 23.461 17.4969 24.1148C16.9692 24.7686 16.6934 25.643 16.6147 26.415C16.528 27.1949 16.4729 27.8566 16.1972 28.408C15.9215 28.9437 15.4252 29.3769 14.8501 29.8417C14.2908 30.2907 13.7 30.6767 13.0698 31.1021C12.4396 31.5274 11.7779 32.0631 11.2738 32.7169C10.7775 33.3393 10.3364 34.1191 10.1079 34.899C9.85584 35.6789 9.7298 36.4587 9.61951 37.1913C9.49348 37.9791 9.37531 38.7589 9.10748 39.2552C9.05234 39.3576 8.95781 39.4994 8.83965 39.6412C8.72936 39.783 8.6112 39.9327 8.48516 40.0745L7.69742 40.9567C7.15388 41.5633 6.5867 42.2171 6.12193 42.9891C5.65717 43.7296 5.27905 44.6591 5.14513 45.5572C4.85367 47.3532 5.07424 48.9051 4.42829 49.9843C3.76658 51.2683 2.67162 52.5838 2.07294 54.3956C1.92326 54.8368 1.83661 55.333 1.82086 55.853L1.82874 56.2547L1.85237 56.5619L1.89176 57.1212C1.93902 57.8696 1.95477 58.6179 1.92326 59.3584C1.876 60.8473 1.63968 62.2494 1.24581 63.7225C1.15128 64.1006 1.04099 64.4866 0.954341 64.9356C0.867689 65.361 0.80467 65.9203 0.844057 66.4166C0.914954 67.3934 1.13552 68.2048 1.35609 68.9925C1.57666 69.7487 1.84449 70.5522 1.93902 71.08C1.9469 71.2139 1.96265 71.1273 1.93902 71.2848L1.86025 71.8678C1.81298 72.2695 1.76572 72.6713 1.73421 73.0809C1.64755 74.1601 1.60817 75.2551 1.78147 76.4524C1.82874 76.7518 1.89176 77.0669 2.00204 77.3899C2.1202 77.7443 2.23836 78.0043 2.37228 78.2643C2.63223 78.7842 2.9237 79.2568 3.21516 79.6979L4.05017 80.9662C4.17621 81.1631 4.29437 81.3601 4.36527 81.5176C4.4598 81.7382 4.41253 81.557 4.53857 82.1006C4.76702 82.841 5.09787 83.2743 5.33419 83.6997C5.58627 84.1408 5.75957 84.4559 5.94075 84.9601C5.9959 85.1255 6.0983 85.2594 6.1692 85.417C6.27948 85.5509 6.38189 85.6848 6.49217 85.8108C6.72062 86.0235 6.89392 86.1732 7.09086 86.315C7.47685 86.6065 7.85497 86.8428 8.23309 87.0791C8.9972 87.5439 9.76131 87.9614 10.5333 88.371C12.0694 89.1824 13.6212 89.9465 15.1731 90.7106C16.1814 91.2069 17.0558 91.9631 18.0641 92.4436C20.128 93.4441 22.1998 94.4209 24.2479 95.4371C25.012 96.855 25.6973 98.3202 26.4063 99.7618C27.2728 101.55 28.1236 103.338 28.9428 105.142C29.7463 106.954 30.5577 108.758 31.2509 110.593L31.763 111.972L32.2199 113.35L32.6059 114.753C32.7713 115.257 32.8658 115.784 33.1021 116.273C33.9214 118.25 35.3866 120.007 37.2141 121.086C39.0338 122.181 41.0426 122.803 43.0513 123.142C45.0601 123.504 47.0846 123.567 49.0933 123.528C51.0154 123.489 52.9217 123.292 54.8123 123.024C55.2377 123.441 55.6788 123.859 56.1515 124.237C57.5852 125.426 59.2001 126.411 60.9252 127.096C62.6504 127.79 64.4937 128.191 66.337 128.333C66.7703 128.38 67.2665 128.42 67.621 128.396C68.0385 128.388 68.59 128.396 68.7554 128.396C68.653 128.388 68.3851 128.373 68.1173 128.341C69.425 128.325 70.3624 128.262 71.2919 128.144C73.6394 127.829 75.9475 127.144 78.098 126.104C79.7917 125.269 81.3829 124.229 82.8323 123.016C84.715 123.284 86.6056 123.481 88.5198 123.512C90.5286 123.552 92.5531 123.489 94.5618 123.126C96.5706 122.787 98.5793 122.165 100.399 121.07C102.227 119.999 103.692 118.234 104.511 116.257C104.747 115.769 104.842 115.241 105.007 114.737L105.393 113.335L105.85 111.956L106.362 110.577C107.055 108.742 107.867 106.938 108.67 105.126C109.49 103.322 110.332 101.526 111.207 99.746C111.9 98.3438 112.562 96.9259 113.294 95.5473C113.373 95.5079 113.452 95.4607 113.531 95.4213L118.958 92.6957C121.093 91.6244 123.236 90.553 125.355 89.4266C126.418 88.8594 127.474 88.2843 128.521 87.6542C129.049 87.3469 129.569 87.0082 130.089 86.6458C130.349 86.4647 130.609 86.2677 130.877 86.0314C131.129 85.8266 131.507 85.3854 131.665 84.9443C131.822 84.4559 131.987 84.1251 132.216 83.6997C132.437 83.2822 132.736 82.8568 132.964 82.1872C133.019 82.0297 133.059 81.8012 133.082 81.6673C133.082 81.6515 133.106 81.5964 133.13 81.5255C133.193 81.3758 133.295 81.1789 133.405 80.9898C133.642 80.596 133.91 80.1785 134.185 79.7452C134.461 79.3119 134.737 78.8551 134.989 78.3667C135.115 78.1146 135.233 77.8704 135.343 77.5868C135.461 77.2717 135.54 76.9645 135.595 76.673C135.8 75.5071 135.753 74.4437 135.69 73.396C135.651 72.8367 135.587 72.2853 135.524 71.7496C135.493 71.4975 135.446 71.1431 135.461 71.1431C135.469 71.0643 135.524 70.8122 135.58 70.5995C135.84 69.6779 136.241 68.638 136.493 67.4879ZM49.1169 122.756C47.1476 122.614 45.1861 122.386 43.3034 121.937C41.4207 121.48 39.5853 120.858 38.0255 119.826C36.4422 118.841 35.2527 117.368 34.5673 115.674C34.3546 115.265 34.2759 114.8 34.1183 114.367L33.6929 112.893C33.37 111.925 33.0312 110.971 32.6374 110.042C31.8417 108.191 30.991 106.371 30.0536 104.606C29.1319 102.834 32.0938 100.195 33.2597 101.069C35.1975 102.519 36.9384 104.213 38.7581 105.796C42.3345 108.939 45.8163 112.224 48.8649 115.895C50.8579 118.211 52.583 120.802 54.7808 122.977C52.8745 122.929 50.9918 122.921 49.1169 122.756ZM110.529 99.3994C109.497 101.109 108.489 102.834 107.567 104.614C106.63 106.379 105.771 108.198 104.984 110.05C104.59 110.979 104.251 111.932 103.928 112.901L103.503 114.374C103.345 114.808 103.266 115.272 103.054 115.682C102.36 117.376 101.179 118.849 99.5955 119.833C98.0358 120.865 96.2003 121.488 94.3176 121.945C92.4271 122.394 90.4656 122.622 88.5041 122.764C86.645 122.929 84.7702 122.937 82.8954 122.992C83.6831 122.331 84.4315 121.622 85.1325 120.865C86.1409 119.763 87.0074 118.62 87.9212 117.51C88.8507 116.415 89.7724 115.304 90.7413 114.248C93.3251 111.373 95.9483 108.514 98.8393 105.938C101.872 103.267 105.055 100.77 108.387 98.5171C109.198 97.9421 111.057 98.5486 110.529 99.3994ZM134.493 68.5908C134.303 69.2603 134.067 69.8905 133.925 70.6547C129.987 73.0494 126.198 75.5938 122.456 78.2327C118.714 80.8874 115.051 83.6524 111.483 86.5356C107.914 89.4187 104.48 92.4594 101.147 95.6104C97.8467 98.7928 94.7273 102.157 91.8126 105.686C94.8218 102.235 98.0279 98.974 101.415 95.8939C104.818 92.8454 108.332 89.915 111.963 87.15C115.602 84.385 119.321 81.7382 123.118 79.2017C126.678 76.8384 130.302 74.554 133.988 72.4271C134.036 72.8052 134.075 73.1833 134.107 73.5614C134.177 74.5303 134.209 75.5229 134.036 76.4209C133.886 77.2481 133.335 78.1067 132.815 78.926C132.547 79.3435 132.263 79.761 131.995 80.21C131.861 80.4384 131.728 80.6747 131.609 80.9583C131.554 81.108 131.499 81.2656 131.468 81.4546C131.444 81.5649 131.428 81.6279 131.397 81.7146C131.129 82.4078 130.388 83.3925 130.089 84.3929C130.034 84.5189 129.987 84.5898 129.853 84.7001C129.719 84.8262 129.538 84.9601 129.372 85.094C129.01 85.3539 128.632 85.606 128.23 85.8423C127.442 86.3307 126.615 86.7876 125.788 87.2445C124.126 88.1504 122.44 89.0248 120.754 89.9071C117.249 91.774 113.704 93.4913 110.214 95.5473C106.819 97.753 103.66 100.179 100.635 102.802C97.6104 105.41 94.7588 108.214 92.0883 111.176C91.4187 111.917 90.757 112.657 90.119 113.421C89.4651 114.177 88.8349 114.942 88.2205 115.729C86.9444 117.25 85.8415 118.935 84.5733 120.424C82.1549 123.252 78.9645 125.45 75.4433 126.71C73.1274 127.538 70.4254 128.254 68.0307 128.325C68.0149 128.325 68.007 128.325 67.9913 128.325C67.6919 128.302 67.3689 128.27 67.0223 128.239C66.6836 128.191 66.3291 128.136 65.9983 128.089C64.8954 127.924 63.8162 127.695 62.7607 127.364C60.8779 126.75 59.137 125.789 57.5931 124.591C56.0412 123.402 54.7178 121.945 53.5125 120.401C52.3231 118.857 51.1887 117.171 49.9362 115.595C49.3218 114.8 48.6994 114.012 48.0456 113.248C47.4075 112.468 46.7458 111.704 46.0684 110.963C42.6181 107.096 38.7975 103.559 34.7328 100.337C32.6925 98.7298 30.5892 97.2095 28.4072 95.7915C27.2807 95.0432 26.1149 94.4445 24.9726 93.8379L21.5302 92.0891L14.0781 88.4261C12.8414 87.8117 11.6204 87.1894 10.423 86.5198C9.82433 86.1889 9.23352 85.8423 8.6821 85.48C8.40639 85.2988 8.13856 85.1097 7.89436 84.9128C7.65016 84.6922 7.51624 84.5977 7.43747 84.385C7.19327 83.613 6.69699 82.8017 6.35826 82.1715C6.23222 81.9273 6.14557 81.7067 6.10618 81.5098C6.05104 81.1159 5.87773 80.7614 5.73594 80.4857C5.42872 79.9185 5.08999 79.4222 4.77489 78.9181C4.4598 78.4218 4.16833 77.9255 3.92413 77.4135C3.79809 77.1535 3.70356 76.9172 3.64054 76.673C3.57753 76.4209 3.53026 76.1452 3.50663 75.8695C3.39634 74.7509 3.49087 73.5772 3.62479 72.4113C7.28779 74.5067 10.8957 76.7597 14.4247 79.0914C18.2059 81.5964 21.9004 84.2196 25.5162 86.9609C29.1319 89.7023 32.6137 92.6091 36.001 95.634C39.3647 98.6826 42.5472 101.928 45.5327 105.355C42.6417 101.849 39.5459 98.5014 36.2689 95.3425C32.9682 92.2152 29.5494 89.1903 26.0046 86.3307C22.4518 83.4791 18.8125 80.7299 15.0865 78.1067C11.3762 75.4993 7.61077 72.9864 3.70356 70.631C3.68781 70.568 3.67993 70.505 3.66418 70.442C3.51451 69.8196 3.32545 69.2525 3.15214 68.6853C2.82129 67.5588 2.46681 66.4245 2.64011 65.3846C2.82917 64.3133 3.18365 63.1396 3.3412 61.958C7.35869 64.7229 11.258 67.6533 15.0549 70.6783C19.1039 73.908 23.0269 77.3032 26.8396 80.8087C30.668 84.3062 34.331 87.985 37.8443 91.7977L40.4597 94.6808L42.9804 97.6506L44.2408 99.1394L45.4382 100.676L47.8329 103.748L45.517 100.62L44.359 99.0528L43.138 97.5325L40.696 94.4996L38.1516 91.5456C34.7249 87.6384 31.1407 83.8572 27.391 80.2494C23.6571 76.6257 19.7972 73.1282 15.8112 69.7724C11.8488 66.4402 7.79983 63.242 3.55389 60.2171C3.59328 59.5553 3.60116 58.9015 3.57753 58.2398C3.54602 57.6333 3.50663 57.0267 3.45149 56.4201C3.42785 56.0893 3.39634 55.8923 3.43573 55.6166C3.45149 55.3646 3.51451 55.0967 3.59328 54.8368C3.98715 53.5764 4.83791 52.4342 5.59415 51.1659C5.60202 51.1501 5.61778 51.1265 5.62566 51.1107C9.84796 54.6004 13.9442 58.3186 17.9144 62.1313C22.0659 66.1409 26.0755 70.3002 29.9275 74.5934C33.8032 78.8708 37.419 83.3767 40.8929 87.9929C44.3511 92.6248 47.4784 97.4931 50.3695 102.503C47.5966 97.43 44.5795 92.483 41.2159 87.7644C37.8443 83.0616 34.3153 78.4533 30.5183 74.0735C26.745 69.6779 22.8221 65.4083 18.7416 61.2884C14.732 57.2551 10.6278 53.3558 6.29524 49.6219C6.35826 49.4013 6.4134 49.1886 6.44491 48.9681C6.57883 48.1961 6.60246 47.4635 6.67336 46.7782C6.73637 46.0928 6.84666 45.4469 7.06723 44.8797C7.28779 44.3125 7.6344 43.7532 8.02827 43.2254C8.43002 42.6976 8.89479 42.1935 9.37531 41.6499C9.53286 41.4766 9.69041 41.2797 9.84796 41.0906C14.1333 45.2184 18.2532 49.5825 22.2234 54.049C26.3984 58.7676 30.4002 63.6437 34.2129 68.6695C37.9861 73.719 41.5231 78.9496 44.7844 84.3456C47.959 89.7968 50.7948 95.4449 53.1029 101.329C50.9209 95.3977 48.1953 89.6787 45.1231 84.1487C41.9642 78.666 38.5297 73.3487 34.8509 68.2048C31.1328 63.0844 27.2177 58.1059 23.1214 53.277C19.1591 48.6294 15.0628 44.1077 10.7302 39.7594C10.746 39.7279 10.7696 39.6963 10.7775 39.6648C11.0926 38.8141 11.1556 38.0578 11.258 37.341C11.3525 36.6241 11.455 35.9546 11.6361 35.3322C11.8094 34.7021 12.093 34.1979 12.479 33.6622C12.8571 33.1502 13.314 32.7406 13.8733 32.3309C14.4326 31.9213 15.0707 31.4881 15.6536 30.9918C15.7088 30.9445 15.756 30.8973 15.8112 30.8579C19.8681 35.9152 23.728 41.1852 27.4225 46.534C31.2667 52.1269 34.9218 57.8617 38.38 63.7068C41.8697 69.5361 45.0286 75.5623 47.9984 81.6673C50.9681 87.7802 53.5047 94.0979 55.7891 100.502C53.6307 94.0506 51.2045 87.6857 48.3528 81.5019C45.4933 75.326 42.4448 69.2288 39.0575 63.3129C35.7017 57.3812 32.149 51.5676 28.3993 45.8801C24.7599 40.3817 20.9709 34.9856 16.9219 29.7471C17.0637 29.566 17.1897 29.3769 17.3 29.1642C17.749 28.3607 17.7963 27.4391 17.8436 26.7616C17.8908 26.0526 18.0011 25.5091 18.3162 25.0128C18.6234 24.5244 19.1354 24.0439 19.6632 23.6421C20.191 23.2325 20.7897 22.9017 21.4278 22.6023C22.0659 22.303 22.7433 22.0273 23.4129 21.7043C23.665 21.5861 23.917 21.4443 24.1691 21.3025C27.8243 27.3051 31.2588 33.481 34.5437 39.72C37.8995 46.1086 41.0583 52.5996 44.0439 59.1772C47.0609 65.7391 49.7471 72.4428 52.2837 79.2017C54.7966 85.9763 56.9314 92.8848 58.8062 99.8642C57.0574 92.8533 55.0486 85.8975 52.6539 79.0756C50.2434 72.2616 47.6675 65.4949 44.7686 58.8621C41.9012 52.2215 38.8448 45.6596 35.5993 39.1843C32.3932 32.8193 29.0531 26.541 25.4374 20.3651C25.9494 19.7507 26.2645 19.089 26.5796 18.4588C26.8947 17.7971 27.2019 17.1511 27.5485 16.5288C27.903 15.9223 28.2811 15.2999 28.7853 14.8824C29.3052 14.4492 29.9669 14.1656 30.6444 13.9608C31.8733 13.5748 33.1809 13.4803 34.4807 13.2203L34.3704 13.2754C37.608 20.0185 40.4675 27.0058 43.1459 34.0325C45.8005 41.0749 48.2898 48.1803 50.5034 55.3803C52.7169 62.5803 54.8044 69.8196 56.5769 77.1378C57.5222 80.785 58.3099 84.4717 59.137 88.1426C59.9563 91.8213 60.618 95.5316 61.3663 99.2261C60.681 95.5237 60.0823 91.7977 59.3261 88.1032C58.562 84.4086 57.8373 80.7141 56.955 77.0432C55.3086 69.6857 53.3471 62.3991 51.2517 55.144C49.1563 47.8967 46.7852 40.7283 44.2487 33.615C41.6807 26.5095 38.9551 19.4829 35.7883 12.5743L35.7253 12.6059C35.9538 12.3774 36.1507 12.1253 36.3319 11.8811C36.7494 11.3218 37.1354 10.7547 37.5765 10.2426C38.1831 9.51002 38.8999 8.80106 39.7507 8.28115C39.9555 8.15511 40.1682 8.04482 40.3888 7.94242C40.9087 7.76911 41.4758 7.64307 42.0194 7.61156C43.5082 7.4934 44.9813 7.74548 46.5016 7.84001H46.4938C48.6207 15.2212 50.5034 22.7126 52.2679 30.2198C54.0167 37.727 55.6631 45.2657 57.1362 52.8359C58.6092 60.4061 59.9957 68 61.1852 75.6174C62.4298 83.2349 63.446 90.8839 64.407 98.5408C63.572 90.8681 62.6898 83.1955 61.5712 75.5544C60.5077 67.9054 59.2552 60.288 57.9082 52.6862C56.569 45.0845 55.0486 37.5064 53.418 29.952C51.7874 22.4526 50.0465 14.9848 48.0456 7.55642C48.2426 7.46189 48.4316 7.35161 48.6049 7.22557C49.1878 6.81594 49.6762 6.31966 50.1568 5.83126C51.1021 4.87022 52.0158 3.80676 53.1344 3.27898C54.2294 2.74331 55.4662 3.29473 56.6714 3.86978C57.7033 4.35818 58.8456 4.91748 60.1375 5.04352L63.7453 51.5204L65.4941 75.0266C66.0534 82.8647 66.6285 90.7027 67.046 98.5486C66.7624 90.6948 66.3134 82.8489 65.888 75.003L64.5331 51.4731L61.6972 4.96475C62.1698 4.85446 62.6189 4.69691 63.0285 4.50785C63.7059 4.19276 64.2968 3.79889 64.8718 3.42865C66.0062 2.68817 67.0854 2.05797 68.2355 1.96344C69.4013 1.86104 70.4963 2.19189 71.5361 2.8851C72.5996 3.54681 73.6394 4.53149 75.1597 5.13017C75.3882 5.2247 75.6324 5.2956 75.8766 5.35862L72.8595 51.4574L71.4101 74.9951C70.9532 82.841 70.4727 90.687 70.1891 98.5408C70.6066 90.6948 71.221 82.8568 71.8039 75.0187L73.6473 51.5125L77.4284 5.50041C77.7199 5.48466 78.0114 5.46102 78.2871 5.40588C79.3033 5.2247 80.1855 4.83871 80.9969 4.49998C81.8004 4.15337 82.5566 3.84615 83.1632 3.77525C83.4625 3.74374 83.6989 3.79101 83.9352 3.86978C84.1873 3.97219 84.4708 4.14549 84.7544 4.36606C85.3216 4.82295 85.8888 5.43739 86.4717 6.08334C87.0625 6.72929 87.677 7.43038 88.5435 8.06845C88.764 8.226 89.024 8.38355 89.3155 8.50959C87.4564 15.6308 85.8258 22.7835 84.2897 29.9677C82.6905 37.5222 81.2017 45.0924 79.8783 52.702C78.5549 60.3037 77.3103 67.9212 76.2626 75.5702C75.1597 83.2113 74.2775 90.876 73.4503 98.5408C74.4114 90.8839 75.4276 83.2428 76.6564 75.6253C77.8381 68.0078 79.2008 60.414 80.6582 52.8438C82.1076 45.2736 83.7304 37.7349 85.4476 30.2198C87.1019 23.0592 88.8665 15.9065 90.8437 8.84044C91.1982 8.84832 91.529 8.82469 91.8441 8.80106C92.8052 8.70653 93.6323 8.54898 94.42 8.50171C95.2078 8.43869 95.9089 8.50959 96.5312 8.72228C96.6887 8.76955 96.8305 8.8562 96.9802 8.91134C97.122 9.00587 97.2559 9.07677 97.4056 9.17917C97.7128 9.39974 98.0121 9.63606 98.28 9.9039C98.8393 10.4238 99.304 11.0382 99.8003 11.7472C100.052 12.1017 100.304 12.4798 100.659 12.8894C100.848 13.11 101.092 13.3542 101.384 13.5669C98.4139 20.1446 95.8065 26.8325 93.3723 33.5913C90.8358 40.6968 88.4647 47.8731 86.3693 55.1204C84.2818 62.3676 82.3203 69.6542 80.666 77.0196C79.7838 80.6826 79.0591 84.385 78.2949 88.0795C77.5387 91.774 76.94 95.4922 76.2547 99.2025C77.003 95.5079 77.6648 91.7977 78.484 88.1189C79.3111 84.4402 80.0989 80.7614 81.0442 77.1141C82.8166 69.796 84.9041 62.5488 87.1177 55.3567C89.3312 48.1567 91.8205 41.0513 94.4752 34.0088C97.0275 27.3051 99.7531 20.6408 102.81 14.1892C103.117 14.2601 103.4 14.2995 103.676 14.3468L104.984 14.5279C105.819 14.6461 106.63 14.7879 107.315 15.04C107.67 15.1581 107.969 15.3157 108.229 15.489C108.489 15.6781 108.639 15.8277 108.899 16.1665C109.364 16.7809 109.765 17.4977 110.167 18.2619C110.419 18.7345 110.679 19.2308 110.986 19.7428C111.215 20.113 111.483 20.5069 111.869 20.8772C108.371 26.8798 105.125 32.9848 102.006 39.1764C98.7605 45.6438 95.7041 52.2136 92.8367 58.8543C89.9378 65.4871 87.3619 72.2538 84.9514 79.0677C82.5566 85.8975 80.5479 92.8454 78.7991 99.8563C80.6739 92.8769 82.8087 85.9684 85.3216 79.1938C87.8503 72.435 90.5443 65.7234 93.5614 59.1694C96.5469 52.5996 99.7137 46.1086 103.062 39.7121C106.26 33.6307 109.616 27.6045 113.168 21.7437C113.964 22.1533 114.752 22.4369 115.492 22.7284C116.485 23.1065 117.351 23.5161 118.115 24.1069C118.935 24.7371 119.415 25.3043 119.581 26.1944C119.675 26.6356 119.691 27.1791 119.809 27.7935C119.919 28.408 120.179 29.0776 120.581 29.5975C120.612 29.6447 120.652 29.6841 120.691 29.7314C116.634 34.9778 112.853 40.3738 109.206 45.8801C105.456 51.5676 101.904 57.3891 98.5478 63.3129C95.1605 69.221 92.112 75.326 89.2524 81.5019C86.4008 87.6857 83.9746 94.0585 81.8162 100.502C84.1006 94.0979 86.645 87.7802 89.6069 81.6673C92.5846 75.5623 95.7356 69.5361 99.2253 63.7068C102.683 57.8617 106.339 52.1348 110.183 46.534C113.885 41.1615 117.753 35.8758 121.826 30.8106C121.841 30.8264 121.857 30.8421 121.873 30.85C122.314 31.2045 122.779 31.5353 123.236 31.8425C124.157 32.4491 124.914 32.9926 125.465 33.8198C126.048 34.5996 126.308 35.5449 126.481 36.5848C126.623 37.3646 126.686 38.1839 126.922 39.0583C126.962 39.2158 127.025 39.3812 127.088 39.5467C122.669 43.958 118.509 48.5506 114.484 53.277C110.388 58.1059 106.473 63.0844 102.754 68.2048C99.0677 73.3487 95.6332 78.6739 92.4822 84.1487C89.41 89.6787 86.6844 95.3977 84.5024 101.329C86.8104 95.4449 89.6463 89.7968 92.8209 84.3456C96.0822 78.9496 99.6113 73.719 103.392 68.6695C107.205 63.6437 111.199 58.7676 115.382 54.049C119.415 49.5116 123.598 45.0766 127.962 40.8937C128.088 41.0434 128.214 41.1931 128.34 41.3427C129.435 42.5637 130.491 43.7532 130.877 45.1869C131.066 45.9038 131.113 46.6836 131.152 47.5029C131.192 48.1567 131.223 48.8499 131.405 49.5431C127.04 53.2928 122.905 57.2236 118.872 61.2884C114.791 65.4083 110.868 69.6779 107.095 74.0735C103.298 78.4533 99.7767 83.0616 96.3973 87.7644C93.0336 92.483 90.0166 97.43 87.2437 102.503C90.1347 97.4931 93.2621 92.6248 96.7203 87.9929C100.194 83.3767 103.81 78.8708 107.686 74.5934C111.546 70.3002 115.547 66.1409 119.699 62.1313C123.685 58.3028 127.797 54.5689 132.035 51.0635C132.271 51.4967 132.523 51.8985 132.767 52.3081C133.185 53.0013 133.587 53.6945 133.87 54.4035C134.012 54.758 134.107 55.1125 134.17 55.467C134.217 55.8293 134.193 56.1287 134.146 56.5777C134.059 57.4048 134.028 58.2398 134.02 59.0669C134.02 59.4451 134.036 59.8232 134.051 60.2092C129.805 63.2262 125.756 66.4323 121.794 69.7645C117.808 73.1203 113.948 76.6179 110.214 80.2415C106.465 83.8493 102.888 87.6305 99.4537 91.5377L96.9093 94.4918L94.4673 97.5246L93.2463 99.0449L92.0883 100.613L89.7724 103.74L92.1671 100.668L93.3645 99.1316L94.6249 97.6427L97.1456 94.6729L99.7609 91.7898C103.282 87.9771 106.945 84.2984 110.766 80.8008C114.578 77.2875 118.501 73.9002 122.55 70.6704C126.347 67.6376 130.254 64.7072 134.248 61.9816C134.351 62.6669 134.477 63.3523 134.642 64.0219C134.831 64.8254 135.044 65.5816 134.981 66.2906C134.934 67.0468 134.721 67.8188 134.493 68.5908Z" fill="#02676A"/>
</svg>
