<svg width="232" height="27" viewBox="0 0 232 27" fill="none" xmlns="http://www.w3.org/2000/svg">
<path d="M59.7865 14.294C30.5969 14.294 6.9397 13.7467 6.9397 13.0777C6.9397 12.4087 30.5969 11.8613 59.7865 11.8613C88.9761 11.8613 112.633 13.0777 112.633 13.0777C112.633 13.0777 88.9645 14.294 59.7865 14.294Z" fill="#02676A"/>
<path d="M93.0035 4.95469C95.2257 8.0077 96.6493 11.0364 95.9318 12.046C95.2142 13.0434 92.4711 11.4743 90.0869 8.20232C88.8948 6.57242 88.2466 4.6506 87.9226 3.16667C87.5985 1.68273 87.5869 0.624512 87.5869 0.624512C87.5869 0.624512 88.3971 0.965087 89.4735 1.67057C90.5499 2.37604 91.8809 3.4221 93.0035 4.95469Z" fill="#02676A"/>
<path d="M79.1105 16.5575C82.0966 14.0275 85.0827 13.2369 85.6035 14.4046C86.1243 15.5845 84.1336 18.1753 81.3327 20.5593C79.9323 21.7513 78.4045 22.4081 77.2008 22.7852C76.0087 23.1623 75.1406 23.2596 75.1406 23.2596C75.1406 23.2596 75.3721 22.2379 75.9855 20.8755C76.6105 19.5132 77.629 17.8225 79.1105 16.5575Z" fill="#02676A"/>
<path d="M69.0228 5.61124C71.5575 8.44532 73.4903 11.1578 72.9232 12.3133C72.3792 13.4566 69.2427 12.3863 66.3955 9.21161C64.9835 7.64253 64.1386 5.67206 63.7103 4.15163C63.2705 2.61904 63.2126 1.5365 63.2126 1.5365C63.2126 1.5365 64.0575 1.87707 65.1918 2.54606C66.326 3.22721 67.7496 4.18812 69.0228 5.61124Z" fill="#02676A"/>
<path d="M55.2381 19.1242C59.3816 15.8036 62.8654 13.0911 63.6408 14.0642C64.0112 14.5507 63.583 15.8887 62.495 17.6038C61.407 19.3188 59.6247 21.3744 57.3909 23.1746C55.1571 24.9748 52.7844 25.8749 51.0252 26.2519C49.2659 26.6412 48.1201 26.5803 48.1201 26.5803C48.1201 26.5803 48.8956 25.5221 50.1687 24.0747C51.4303 22.6394 53.1664 20.7906 55.2381 19.1242Z" fill="#02676A"/>
<path d="M45.3287 5.37987C48.1874 7.50847 50.0624 10.1601 49.5069 11.3156C48.9513 12.459 46.1736 11.6684 43.3032 9.53976C40.4329 7.41116 39.125 3.60401 39.125 3.60401C39.125 3.60401 42.4699 3.25127 45.3287 5.37987Z" fill="#02676A"/>
<path d="M29.9718 17.9677C33.3514 14.9147 36.3837 12.6645 37.1592 13.6254C37.9231 14.5498 35.9671 18.5637 32.2981 21.8722C30.481 23.5264 28.4787 24.3778 26.9857 24.7671C25.4811 25.1684 24.4741 25.1441 24.4741 25.1441C24.4741 25.1441 25.0297 24.0981 25.9787 22.6871C26.9394 21.2762 28.2704 19.5003 29.9718 17.9677Z" fill="#02676A"/>
<path d="M18.9643 6.07178C20.33 7.3611 21.5568 8.55312 22.448 9.57484C23.3276 10.5844 23.8485 11.4602 23.6633 12.1048C23.4781 12.7252 22.5638 12.9684 21.2328 12.6643C19.9133 12.3603 18.1772 11.4602 16.5684 9.92758C14.9481 8.38283 13.999 6.31505 13.5476 4.7338C13.0847 3.1404 13.0615 2.02136 13.0615 2.02136C13.0615 2.02136 13.9064 2.44708 15.0407 3.15256C16.1749 3.84587 17.6101 4.78246 18.9643 6.07178Z" fill="#02676A"/>
<path d="M6.12938 8.45532C8.1664 9.81762 9.17333 12.0435 8.54834 13.1261C7.91177 14.2208 6.05993 13.9045 4.26597 12.7247C3.35162 12.1165 2.7382 11.0826 2.29839 10.1704C1.87015 9.27027 1.63867 8.50397 1.63867 8.50397C1.63867 8.50397 2.22894 8.13907 3.09699 7.95662C3.96504 7.77417 5.11087 7.77417 6.12938 8.45532Z" fill="#02676A"/>
<path d="M2.88754 15.7673C5.05188 13.2738 7.54028 12.4831 8.14213 13.5778C8.75555 14.6847 7.49399 17.0931 5.56113 19.319C4.58892 20.438 3.40837 21.0948 2.44773 21.5084C1.48709 21.9219 0.746358 22.0801 0.746358 22.0801C0.746358 22.0801 0.72321 21.1557 0.989411 19.8785C1.24404 18.6257 1.81116 17.0079 2.88754 15.7673Z" fill="#02676A"/>
<path d="M172.226 11.619C201.415 11.619 225.073 12.1664 225.073 12.8354C225.073 13.5043 201.415 14.0517 172.226 14.0517C143.036 14.0517 119.379 12.8354 119.379 12.8354C119.379 12.8354 143.036 11.619 172.226 11.619Z" fill="#02676A"/>
<path d="M141.94 7.94622C139.555 11.2182 136.812 12.7873 136.095 11.7899C135.366 10.7803 136.801 7.7516 139.023 4.69858C140.134 3.16599 141.477 2.11994 142.553 1.41446C143.629 0.708984 144.44 0.368408 144.44 0.368408C144.44 0.368408 144.428 1.42663 144.104 2.91056C143.768 4.3945 143.12 6.31632 141.94 7.94622Z" fill="#02676A"/>
<path d="M150.665 20.3045C147.864 17.9205 145.874 15.3419 146.395 14.1499C146.915 12.9822 149.913 13.7728 152.888 16.3028C154.369 17.5678 155.388 19.2585 156.001 20.6208C156.614 21.9831 156.846 23.0048 156.846 23.0048C156.846 23.0048 155.989 22.9075 154.786 22.5304C153.605 22.1534 152.077 21.4966 150.665 20.3045Z" fill="#02676A"/>
<path d="M165.618 8.95551C162.771 12.1302 159.646 13.1884 159.09 12.0572C158.523 10.9017 160.456 8.18921 162.991 5.35514C164.264 3.93202 165.688 2.97111 166.833 2.28996C167.968 1.62097 168.813 1.2804 168.813 1.2804C168.813 1.2804 168.743 2.36294 168.315 3.89553C167.864 5.41596 167.03 7.38643 165.618 8.95551Z" fill="#02676A"/>
<path d="M174.62 22.9301C172.386 21.1299 170.604 19.0743 169.516 17.3592C168.428 15.6442 167.999 14.2941 168.37 13.8197C169.145 12.8466 172.629 15.5591 176.773 18.8797C178.844 20.5461 180.58 22.3949 181.854 23.8423C183.127 25.2898 183.902 26.348 183.902 26.348C183.902 26.348 182.756 26.4088 180.997 26.0196C179.226 25.6182 176.854 24.7303 174.62 22.9301Z" fill="#02676A"/>
<path d="M188.706 9.27084C185.847 11.3994 183.07 12.1901 182.502 11.0467C181.947 9.90333 183.81 7.23955 186.681 5.11095C189.551 2.98235 192.884 3.33509 192.884 3.33509C192.884 3.33509 191.565 7.14224 188.706 9.27084Z" fill="#02676A"/>
<path d="M199.715 21.6186C196.046 18.2979 194.09 14.284 194.854 13.3718C195.641 12.423 198.662 14.6611 202.042 17.7141C203.731 19.2467 205.074 21.0225 206.035 22.4335C206.995 23.8445 207.539 24.8905 207.539 24.8905C207.539 24.8905 206.532 24.9148 205.028 24.5135C203.535 24.1242 201.532 23.2728 199.715 21.6186Z" fill="#02676A"/>
<path d="M215.448 9.66004C213.839 11.1926 212.114 12.0927 210.783 12.3968C209.452 12.7009 208.538 12.4576 208.353 11.8373C208.156 11.2048 208.688 10.329 209.568 9.3073C210.459 8.28557 211.686 7.10572 213.052 5.80424C214.406 4.51491 215.841 3.57833 216.987 2.86069C218.121 2.15521 218.966 1.72949 218.966 1.72949C218.966 1.72949 218.943 2.84853 218.48 4.44193C218.017 6.0475 217.068 8.11529 215.448 9.66004Z" fill="#02676A"/>
<path d="M227.759 12.4574C225.965 13.6494 224.114 13.9535 223.477 12.8588C222.84 11.7763 223.859 9.5382 225.896 8.18806C226.903 7.51907 228.06 7.50691 228.928 7.70152C229.796 7.88397 230.387 8.24888 230.387 8.24888C230.387 8.24888 230.155 9.01517 229.727 9.91526C229.276 10.8275 228.651 11.8614 227.759 12.4574Z" fill="#02676A"/>
<path d="M226.439 19.0631C224.506 16.8372 223.244 14.441 223.858 13.322C224.46 12.2273 226.948 13.0179 229.112 15.5114C230.189 16.7521 230.756 18.3698 231.01 19.6348C231.277 20.8998 231.253 21.8364 231.253 21.8364C231.253 21.8364 230.513 21.6783 229.552 21.2647C228.591 20.8268 227.411 20.1822 226.439 19.0631Z" fill="#02676A"/>
<path d="M116.197 15.2187C117.469 15.2187 118.5 13.9444 118.5 12.3725C118.5 10.8005 117.469 9.52625 116.197 9.52625C114.925 9.52625 113.894 10.8005 113.894 12.3725C113.894 13.9444 114.925 15.2187 116.197 15.2187Z" fill="#02676A"/>
</svg>
