<svg width="137" height="137" viewBox="0 0 137 137" fill="none" xmlns="http://www.w3.org/2000/svg">
<path d="M136.493 67.076C136.619 66.501 136.722 65.855 136.667 65.1382C136.604 64.4686 136.47 63.9172 136.352 63.3973C136.115 62.3653 135.942 61.4122 135.863 60.4117C135.784 59.4192 135.792 58.4109 135.855 57.4026C135.879 56.8826 135.942 56.4179 135.989 55.8507C136.06 55.0787 135.918 54.3619 135.721 53.7474C135.304 52.5185 134.689 51.5496 134.146 50.628C133.87 50.1789 133.61 49.7378 133.421 49.3439C133.24 48.9658 133.153 48.6586 133.082 48.2017C132.917 47.1461 133.035 45.7203 132.594 44.1921C132.129 42.6402 131.176 41.4665 130.294 40.4739C129.853 39.9777 129.419 39.5208 129.065 39.0796C128.986 38.9772 128.884 38.8433 128.837 38.7724C128.789 38.7094 128.742 38.6228 128.703 38.5282C128.616 38.3234 128.537 38.0792 128.482 37.7956C128.23 36.677 128.143 35.2512 127.576 33.8648C127.434 33.5182 127.253 33.1716 127.056 32.8486C126.859 32.5493 126.647 32.2499 126.402 31.9663C125.922 31.3913 125.331 30.9186 124.772 30.5405C124.212 30.1624 123.693 29.8315 123.204 29.4692C122.731 29.1068 122.212 28.6893 121.912 28.3269C121.597 27.9331 121.416 27.5156 121.329 26.9326C121.235 26.3655 121.211 25.6565 120.975 24.916C120.754 24.1755 120.266 23.5217 119.746 23.0333C119.242 22.5528 118.675 22.1353 118.076 21.7966C116.658 20.9773 115.216 20.3235 113.988 19.6775C113.791 19.583 113.562 19.4491 113.405 19.3546C113.279 19.2758 113.145 19.1497 113.011 19.0001C112.743 18.7007 112.499 18.299 112.255 17.8815C111.774 17.0386 111.309 16.1169 110.711 15.2425C110.395 14.8014 110.112 14.3918 109.647 13.9664C109.19 13.5804 108.678 13.3126 108.166 13.1077C107.134 12.7218 106.102 12.5721 105.102 12.446L103.621 12.2649C103.14 12.194 102.691 12.1152 102.392 11.9025C101.722 11.4535 101.195 10.5082 100.564 9.72045C99.9342 8.90908 99.1859 8.16072 98.3272 7.56991C97.4607 6.9476 96.3736 6.6325 95.3417 6.61674C94.483 6.58524 93.6323 6.68764 92.813 6.79793C91.9938 6.90033 91.1745 7.01062 90.434 6.88458C89.7566 6.73491 89.1421 6.20712 88.5828 5.63207C88.0157 5.05701 87.48 4.42682 86.8892 3.82813C86.3063 3.23733 85.6761 2.6544 84.8883 2.23689C84.4866 2.05571 84.0297 1.88241 83.5649 1.89029C83.108 1.87453 82.659 1.9533 82.2494 2.07934C80.6109 2.59138 79.2638 3.54455 77.7041 3.77299C74.4035 4.40319 72.3475 0.385696 68.7711 0.519612C67.4634 0.519612 66.2031 1.03952 65.1475 1.74061C64.0762 2.41807 63.0994 3.23733 61.9414 3.62332C60.7913 4.02507 59.5309 3.85964 58.3886 3.41851C57.2228 3.001 56.1278 2.32354 54.8202 2.07934C54.1742 1.9533 53.4495 2.03208 52.8587 2.34718C52.26 2.64652 51.7637 3.0719 51.3068 3.51304C50.3852 4.39531 49.6132 5.40362 48.6915 6.22287C48.2268 6.61674 47.7147 6.98698 47.1318 7.05788C46.541 7.12878 45.9029 7.05788 45.2806 7.01849C44.0281 6.92397 42.7441 6.82944 41.4916 7.06576C41.2001 7.1209 40.885 7.19967 40.5935 7.2942C40.3257 7.37298 40.0736 7.45175 39.8294 7.55416C39.018 7.90077 38.2933 8.43643 37.671 9.06663C37.0408 9.68894 36.5209 10.4058 36.0089 11.0832C35.6938 11.485 35.355 11.9261 35.0242 12.0916C34.6697 12.257 34.1104 12.32 33.6063 12.383C32.5664 12.5091 31.4872 12.6036 30.4159 12.8793C29.8802 13.0132 29.3367 13.2102 28.8168 13.4859C28.5568 13.6198 28.3126 13.801 28.0684 13.99C27.84 14.2027 27.6194 14.4312 27.4619 14.6517C26.7686 15.534 26.2566 16.5187 25.7682 17.4482C25.4374 18.0705 25.1223 18.6928 24.7363 19.1655C24.6417 19.2837 24.5393 19.3861 24.4369 19.4727C24.3503 19.5515 24.2164 19.6381 24.0588 19.7327C23.7752 19.9139 23.4759 20.0714 23.1687 20.2289C21.9477 20.8355 20.5376 21.3003 19.2772 22.1353C18.6155 22.5764 18.0247 23.0491 17.4969 23.7029C16.9691 24.3567 16.6934 25.2311 16.6146 26.0031C16.528 26.783 16.4728 27.4447 16.1971 27.9961C15.9214 28.5318 15.4251 28.965 14.8501 29.4298C14.2908 29.8788 13.7 30.2648 13.0698 30.6902C12.4396 31.1156 11.7779 31.6512 11.2737 32.3051C10.7775 32.9274 10.3363 33.7072 10.1079 34.4871C9.85581 35.267 9.72977 36.0468 9.61948 36.7794C9.49344 37.5672 9.37528 38.347 9.10745 38.8433C9.05231 38.9457 8.95778 39.0875 8.83962 39.2293C8.72933 39.3711 8.61117 39.5208 8.48513 39.6626L7.69739 40.5448C7.15385 41.1514 6.58667 41.8052 6.1219 42.5772C5.65714 43.3177 5.27902 44.2472 5.1451 45.1453C4.85364 46.9413 5.07421 48.4932 4.42826 49.5724C3.76655 50.8564 2.67159 52.1719 2.07291 53.9837C1.92323 54.4249 1.83658 54.9212 1.82083 55.4411L1.82871 55.8428L1.85234 56.15L1.89172 56.7093C1.93899 57.4577 1.95474 58.206 1.92323 58.9465C1.87597 60.4354 1.63965 61.8375 1.24578 63.3106C1.15125 63.6887 1.04096 64.0747 0.954311 64.5237C0.867659 64.9491 0.804639 65.5084 0.844026 66.0047C0.914923 66.9815 1.13549 67.7929 1.35606 68.5806C1.57663 69.3369 1.84446 70.1404 1.93899 70.6681C1.94687 70.8021 1.96262 70.7154 1.93899 70.873L1.86021 71.4559C1.81295 71.8576 1.76569 72.2594 1.73418 72.669C1.64752 73.7482 1.60814 74.8432 1.78144 76.0406C1.82871 76.3399 1.89172 76.655 2.00201 76.978C2.12017 77.3325 2.23833 77.5924 2.37225 77.8524C2.6322 78.3723 2.92367 78.8449 3.21513 79.2861L4.05014 80.5543C4.17618 80.7513 4.29434 80.9482 4.36524 81.1057C4.45977 81.3263 4.4125 81.1451 4.53854 81.6887C4.76699 82.4291 5.09784 82.8624 5.33416 83.2878C5.58624 83.7289 5.75954 84.044 5.94072 84.5482C5.99587 84.7136 6.09827 84.8475 6.16917 85.0051C6.27945 85.139 6.38186 85.2729 6.49214 85.3989C6.72059 85.6116 6.89389 85.7613 7.09083 85.9031C7.47682 86.1946 7.85494 86.4309 8.23306 86.6672C8.99717 87.132 9.76128 87.5495 10.5333 87.9591C12.0694 88.7705 13.6212 89.5346 15.1731 90.2987C16.1814 90.795 17.0558 91.5512 18.0641 92.0317C20.128 93.0322 22.1997 94.009 24.2479 95.0252C25.012 96.4431 25.6973 97.9083 26.4063 99.3499C27.2728 101.138 28.1236 102.926 28.9428 104.73C29.7463 106.542 30.5577 108.346 31.2509 110.181L31.7629 111.56L32.2198 112.938L32.6058 114.341C32.7712 114.845 32.8658 115.373 33.1021 115.861C33.9214 117.838 35.3866 119.595 37.2141 120.674C39.0338 121.769 41.0425 122.391 43.0513 122.73C45.06 123.092 47.0845 123.155 49.0933 123.116C51.0154 123.077 52.9217 122.88 54.8123 122.612C55.2377 123.029 55.6788 123.447 56.1515 123.825C57.5852 125.015 59.2 125.999 60.9252 126.685C62.6503 127.378 64.4937 127.78 66.337 127.921C66.7702 127.969 67.2665 128.008 67.621 127.984C68.0385 127.976 68.5899 127.984 68.7553 127.984C68.6529 127.976 68.3851 127.961 68.1173 127.929C69.4249 127.913 70.3623 127.85 71.2919 127.732C73.6393 127.417 75.9474 126.732 78.098 125.692C79.7916 124.857 81.3829 123.817 82.8323 122.604C84.715 122.872 86.6056 123.069 88.5198 123.1C90.5286 123.14 92.5531 123.077 94.5618 122.714C96.5705 122.376 98.5793 121.753 100.399 120.658C102.227 119.587 103.692 117.822 104.511 115.845C104.747 115.357 104.842 114.829 105.007 114.325L105.393 112.923L105.85 111.544L106.362 110.166C107.055 108.33 107.867 106.526 108.67 104.714C109.49 102.91 110.332 101.114 111.207 99.3341C111.9 97.9319 112.562 96.514 113.294 95.1354C113.373 95.0961 113.452 95.0488 113.531 95.0094L118.958 92.2838C121.093 91.2125 123.236 90.1412 125.355 89.0147C126.418 88.4475 127.474 87.8725 128.521 87.2423C129.049 86.935 129.569 86.5963 130.089 86.234C130.349 86.0528 130.609 85.8558 130.877 85.6195C131.129 85.4147 131.507 84.9736 131.664 84.5324C131.822 84.044 131.987 83.7132 132.216 83.2878C132.436 82.8703 132.736 82.4449 132.964 81.7753C133.019 81.6178 133.059 81.3893 133.082 81.2554C133.082 81.2397 133.106 81.1845 133.13 81.1136C133.193 80.964 133.295 80.767 133.405 80.578C133.642 80.1841 133.91 79.7666 134.185 79.3333C134.461 78.9001 134.737 78.4432 134.989 77.9548C135.115 77.7027 135.233 77.4585 135.343 77.1749C135.461 76.8598 135.54 76.5526 135.595 76.2611C135.8 75.0953 135.753 74.0318 135.69 72.9841C135.65 72.4248 135.587 71.8734 135.524 71.3377C135.493 71.0856 135.446 70.7312 135.461 70.7312C135.469 70.6524 135.524 70.4003 135.58 70.1876C135.84 69.266 136.241 68.2261 136.493 67.076ZM49.1169 122.344C47.1476 122.202 45.1861 121.974 43.3034 121.525C41.4207 121.068 39.5852 120.446 38.0255 119.414C36.4421 118.429 35.2526 116.956 34.5673 115.262C34.3546 114.853 34.2758 114.388 34.1183 113.955L33.6929 112.482C33.3699 111.513 33.0312 110.559 32.6373 109.63C31.8417 107.779 30.9909 105.959 30.0535 104.195C29.1319 102.422 32.0938 99.7831 33.2596 100.658C35.1975 102.107 36.9384 103.801 38.7581 105.384C42.3345 108.527 45.8163 111.812 48.8648 115.483C50.8578 117.799 52.583 120.39 54.7808 122.565C52.8744 122.517 50.9917 122.51 49.1169 122.344ZM110.529 98.9875C109.497 100.697 108.489 102.422 107.567 104.202C106.63 105.967 105.771 107.787 104.984 109.638C104.59 110.567 104.251 111.521 103.928 112.489L103.503 113.963C103.345 114.396 103.266 114.861 103.054 115.27C102.36 116.964 101.179 118.437 99.5955 119.422C98.0357 120.454 96.2003 121.076 94.3176 121.533C92.427 121.982 90.4655 122.21 88.5041 122.352C86.645 122.517 84.7702 122.525 82.8953 122.58C83.6831 121.919 84.4314 121.21 85.1325 120.454C86.1408 119.351 87.0073 118.208 87.9211 117.098C88.8507 116.003 89.7723 114.892 90.7413 113.836C93.325 110.961 95.9482 108.102 98.8392 105.526C101.872 102.855 105.055 100.358 108.387 98.1052C109.198 97.5302 111.057 98.1367 110.529 98.9875ZM134.492 68.1789C134.303 68.8485 134.067 69.4787 133.925 70.2428C129.987 72.6375 126.198 75.1819 122.456 77.8209C118.714 80.4755 115.051 83.2405 111.483 86.1237C107.914 89.0068 104.479 92.0475 101.147 95.1985C97.8467 98.381 94.7272 101.745 91.8126 105.274C94.8218 101.823 98.0279 98.5621 101.415 95.4821C104.818 92.4335 108.332 89.5031 111.963 86.7381C115.602 83.9731 119.321 81.3263 123.117 78.7898C126.678 76.4265 130.302 74.1421 133.988 72.0152C134.036 72.3933 134.075 72.7714 134.107 73.1495C134.177 74.1185 134.209 75.111 134.036 76.009C133.886 76.8362 133.335 77.6948 132.815 78.5141C132.547 78.9316 132.263 79.3491 131.995 79.7981C131.861 80.0265 131.728 80.2629 131.609 80.5464C131.554 80.6961 131.499 80.8537 131.468 81.0427C131.444 81.153 131.428 81.216 131.397 81.3027C131.129 81.9959 130.388 82.9806 130.089 83.981C130.034 84.107 129.987 84.1779 129.853 84.2882C129.719 84.4143 129.538 84.5482 129.372 84.6821C129.01 84.9421 128.632 85.1941 128.23 85.4305C127.442 85.9189 126.615 86.3757 125.788 86.8326C124.126 87.7385 122.44 88.6129 120.754 89.4952C117.249 91.3622 113.704 93.0794 110.214 95.1354C106.819 97.3411 103.66 99.7674 100.635 102.391C97.6104 104.998 94.7587 107.802 92.0883 110.764C91.4187 111.505 90.757 112.245 90.1189 113.009C89.4651 113.766 88.8349 114.53 88.2205 115.317C86.9443 116.838 85.8415 118.524 84.5732 120.012C82.1549 122.84 78.9645 125.038 75.4433 126.299C73.1273 127.126 70.4254 127.843 68.0306 127.913C68.0149 127.913 68.007 127.913 67.9912 127.913C67.6919 127.89 67.3689 127.858 67.0223 127.827C66.6836 127.78 66.3291 127.724 65.9982 127.677C64.8954 127.512 63.8162 127.283 62.7606 126.952C60.8779 126.338 59.137 125.377 57.593 124.18C56.0412 122.99 54.7178 121.533 53.5125 119.989C52.323 118.445 51.1887 116.759 49.9362 115.184C49.3217 114.388 48.6994 113.6 48.0456 112.836C47.4075 112.056 46.7458 111.292 46.0684 110.552C42.618 106.684 38.7975 103.147 34.7327 99.9249C32.6925 98.3179 30.5892 96.7976 28.4072 95.3797C27.2807 94.6313 26.1148 94.0326 24.9726 93.426L21.5302 91.6773L14.0781 88.0142C12.8414 87.3998 11.6204 86.7775 10.423 86.1079C9.8243 85.7771 9.23349 85.4305 8.68207 85.0681C8.40636 84.8869 8.13853 84.6978 7.89433 84.5009C7.65013 84.2803 7.51621 84.1858 7.43744 83.9731C7.19324 83.2011 6.69696 82.3898 6.35823 81.7596C6.23219 81.5154 6.14554 81.2948 6.10615 81.0979C6.05101 80.704 5.8777 80.3495 5.73591 80.0738C5.42869 79.5066 5.08996 79.0103 4.77486 78.5062C4.45977 78.0099 4.1683 77.5136 3.9241 77.0016C3.79806 76.7416 3.70353 76.5053 3.64051 76.2611C3.57749 76.009 3.53023 75.7333 3.5066 75.4576C3.39631 74.339 3.49084 73.1653 3.62476 71.9994C7.28776 74.0948 10.8956 76.3478 14.4247 78.6795C18.2059 81.1845 21.9004 83.8077 25.5161 86.5491C29.1319 89.2904 32.6137 92.1972 36.001 95.2221C39.3647 98.2707 42.5471 101.516 45.5327 104.943C42.6417 101.437 39.5458 98.0895 36.2688 94.9306C32.9682 91.8033 29.5494 88.7784 26.0045 85.9189C22.4518 83.0672 18.8124 80.318 15.0864 77.6948C11.3762 75.0874 7.61074 72.5745 3.70353 70.2191C3.68778 70.1561 3.6799 70.0931 3.66415 70.0301C3.51448 69.4078 3.32542 68.8406 3.15211 68.2734C2.82126 67.1469 2.46678 66.0126 2.64008 64.9728C2.82914 63.9014 3.18362 62.7277 3.34117 61.5461C7.35866 64.3111 11.258 67.2415 15.0549 70.2664C19.1039 73.4961 23.0269 76.8913 26.8395 80.3968C30.668 83.8944 34.331 87.5731 37.8443 91.3858L40.4596 94.2689L42.9804 97.2387L44.2408 98.7276L45.4382 100.264L47.8329 103.336L45.5169 100.209L44.3589 98.6409L43.1379 97.1206L40.6959 94.0878L38.1515 91.1337C34.7249 87.2265 31.1406 83.4453 27.391 79.8375C23.6571 76.2139 19.7971 72.7163 15.8111 69.3605C11.8488 66.0283 7.7998 62.8301 3.55386 59.8052C3.59325 59.1435 3.60113 58.4896 3.57749 57.8279C3.54598 57.2214 3.5066 56.6148 3.45146 56.0082C3.42782 55.6774 3.39631 55.4805 3.4357 55.2047C3.45146 54.9527 3.51448 54.6848 3.59325 54.4249C3.98712 53.1645 4.83788 52.0223 5.59412 50.754C5.60199 50.7382 5.61775 50.7146 5.62563 50.6989C9.84793 54.1886 13.9442 57.9067 17.9144 61.7194C22.0658 65.729 26.0754 69.8883 29.9275 74.1815C33.8032 78.4589 37.4189 82.9648 40.8929 87.581C44.3511 92.2129 47.4784 97.0812 50.3694 102.091C47.5966 97.0182 44.5795 92.0711 41.2159 87.3525C37.8443 82.6497 34.3152 78.0414 30.5183 73.6616C26.745 69.266 22.8221 64.9964 18.7415 60.8765C14.7319 56.8433 10.6278 52.9439 6.29521 49.21C6.35823 48.9895 6.41337 48.7768 6.44488 48.5562C6.5788 47.7842 6.60243 47.0516 6.67332 46.3663C6.73634 45.6809 6.84663 45.035 7.0672 44.4678C7.28776 43.9006 7.63437 43.3413 8.02824 42.8135C8.42999 42.2858 8.89476 41.7816 9.37528 41.2381C9.53283 41.0648 9.69038 40.8678 9.84793 40.6788C14.1333 44.8065 18.2531 49.1706 22.2234 53.6371C26.3984 58.3557 30.4001 63.2319 34.2128 68.2577C37.9861 73.3071 41.5231 78.5377 44.7843 83.9337C47.9589 89.3849 50.7948 95.033 53.1029 100.917C50.9208 94.9858 48.1953 89.2668 45.1231 83.7368C41.9642 78.2541 38.5296 72.9368 34.8509 67.7929C31.1327 62.6726 27.2177 57.694 23.1214 52.8651C19.1591 48.2175 15.0628 43.6958 10.7302 39.3475C10.746 39.316 10.7696 39.2845 10.7775 39.2529C11.0926 38.4022 11.1556 37.646 11.258 36.9291C11.3525 36.2123 11.4549 35.5427 11.6361 34.9204C11.8094 34.2902 12.093 33.786 12.479 33.2503C12.8571 32.7383 13.314 32.3287 13.8733 31.9191C14.4326 31.5094 15.0707 31.0762 15.6536 30.5799C15.7087 30.5326 15.756 30.4854 15.8111 30.446C19.868 35.5033 23.728 40.7733 27.4225 46.1221C31.2667 51.715 34.9218 57.4498 38.38 63.2949C41.8697 69.1242 45.0285 75.1504 47.9983 81.2554C50.9681 87.3683 53.5046 93.686 55.7891 100.09C53.6307 93.6387 51.2044 87.2738 48.3528 81.09C45.4933 74.9141 42.4447 68.8169 39.0574 62.901C35.7017 56.9693 32.1489 51.1557 28.3993 45.4682C24.7599 39.9698 20.9709 34.5738 16.9219 29.3353C17.0637 29.1541 17.1897 28.965 17.3 28.7523C17.749 27.9488 17.7963 27.0272 17.8435 26.3497C17.8908 25.6407 18.0011 25.0972 18.3162 24.6009C18.6234 24.1125 19.1354 23.632 19.6632 23.2302C20.191 22.8206 20.7897 22.4898 21.4278 22.1904C22.0658 21.8911 22.7433 21.6154 23.4129 21.2924C23.6649 21.1742 23.917 21.0324 24.1691 20.8907C27.8242 26.8933 31.2588 33.0692 34.5437 39.3081C37.8995 45.6967 41.0583 52.1877 44.0439 58.7653C47.0609 65.3272 49.7471 72.0309 52.2836 78.7898C54.7965 85.5644 56.9313 92.4729 58.8062 99.4523C57.0574 92.4414 55.0486 85.4856 52.6539 78.6637C50.2434 71.8498 47.6675 65.083 44.7686 58.4502C41.9012 51.8096 38.8447 45.2477 35.5992 38.7724C32.3931 32.4075 29.0531 26.1291 25.4374 19.9532C25.9494 19.3388 26.2645 18.6771 26.5796 18.0469C26.8947 17.3852 27.2019 16.7392 27.5485 16.1169C27.903 15.5104 28.2811 14.888 28.7853 14.4705C29.3052 14.0373 29.9669 13.7537 30.6443 13.5489C31.8732 13.1629 33.1809 13.0684 34.4807 12.8084L34.3704 12.8635C37.608 19.6066 40.4675 26.5939 43.1458 33.6206C45.8005 40.663 48.2898 47.7684 50.5033 54.9684C52.7169 62.1684 54.8044 69.4078 56.5768 76.7259C57.5221 80.3731 58.3099 84.0598 59.137 87.7307C59.9563 91.4094 60.618 95.1197 61.3663 98.8142C60.681 95.1118 60.0823 91.3858 59.3261 87.6913C58.562 83.9968 57.8372 80.3022 56.955 76.6314C55.3086 69.2738 53.3471 61.9872 51.2517 54.7321C49.1563 47.4849 46.7852 40.3164 44.2487 33.2031C41.6806 26.0976 38.955 19.071 35.7883 12.1625L35.7253 12.194C35.9537 11.9655 36.1507 11.7134 36.3318 11.4692C36.7494 10.9099 37.1353 10.3428 37.5765 9.83074C38.183 9.09814 38.8999 8.38917 39.7507 7.86926C39.9555 7.74322 40.1682 7.63293 40.3887 7.53053C40.9086 7.35722 41.4758 7.23118 42.0194 7.19968C43.5082 7.08151 44.9813 7.33359 46.5016 7.42812H46.4937C48.6206 14.8093 50.5033 22.3007 52.2679 29.8079C54.0167 37.3151 55.6631 44.8538 57.1361 52.424C58.6092 59.9942 59.9956 67.5881 61.1851 75.2055C62.4298 82.823 63.446 90.472 64.407 98.1289C63.572 90.4563 62.6897 82.7836 61.5711 75.1425C60.5077 67.4935 59.2552 59.8761 57.9081 52.2743C56.569 44.6726 55.0486 37.0945 53.418 29.5401C51.7874 22.0408 50.0465 14.573 48.0456 7.14453C48.2425 7.05 48.4316 6.93972 48.6049 6.81368C49.1878 6.40405 49.6762 5.90778 50.1567 5.41937C51.102 4.45833 52.0158 3.39487 53.1344 2.86709C54.2294 2.33142 55.4661 2.88284 56.6714 3.45789C57.7033 3.9463 58.8455 4.50559 60.1374 4.63163L63.7453 51.1085L65.4941 74.6147C66.0534 82.4528 66.6284 90.2908 67.0459 98.1368C66.7624 90.283 66.3133 82.437 65.888 74.5911L64.533 51.0612L61.6972 4.55286C62.1698 4.44257 62.6188 4.28502 63.0285 4.09597C63.7059 3.78087 64.2967 3.387 64.8718 3.01676C66.0061 2.27628 67.0853 1.64609 68.2354 1.55156C69.4013 1.44915 70.4963 1.78 71.5361 2.47322C72.5995 3.13492 73.6394 4.1196 75.1597 4.71828C75.3881 4.81281 75.6323 4.88371 75.8765 4.94673L72.8595 51.0455L71.41 74.5832C70.9531 82.4292 70.4726 90.2751 70.189 98.1289C70.6065 90.283 71.221 82.4449 71.8039 74.6069L73.6472 51.1006L77.4284 5.08852C77.7199 5.07277 78.0113 5.04914 78.287 4.99399C79.3032 4.81281 80.1855 4.42682 80.9969 4.08809C81.8004 3.74148 82.5566 3.43426 83.1632 3.36337C83.4625 3.33186 83.6988 3.37912 83.9352 3.45789C84.1872 3.5603 84.4708 3.7336 84.7544 3.95417C85.3216 4.41106 85.8888 5.0255 86.4717 5.67145C87.0625 6.3174 87.6769 7.01849 88.5434 7.65657C88.764 7.81411 89.024 7.97166 89.3154 8.0977C87.4564 15.2189 85.8257 22.3716 84.2896 29.5558C82.6905 37.1103 81.2017 44.6805 79.8783 52.2901C78.5549 59.8918 77.3102 67.5093 76.2625 75.1583C75.1597 82.7994 74.2774 90.4641 73.4503 98.1289C74.4113 90.472 75.4275 82.8309 76.6564 75.2134C77.838 67.5959 79.2008 60.0021 80.6581 52.4319C82.1076 44.8617 83.7303 37.323 85.4476 29.8079C87.1019 22.6473 88.8664 15.4946 90.8437 8.42855C91.1981 8.43643 91.529 8.4128 91.8441 8.38917C92.8051 8.29464 93.6323 8.13709 94.42 8.08982C95.2078 8.02681 95.9088 8.0977 96.5312 8.31039C96.6887 8.35766 96.8305 8.44431 96.9802 8.49945C97.122 8.59398 97.2559 8.66488 97.4056 8.76728C97.7128 8.98785 98.0121 9.22417 98.28 9.49201C98.8392 10.0119 99.304 10.6264 99.8003 11.3353C100.052 11.6898 100.304 12.0679 100.659 12.4776C100.848 12.6981 101.092 12.9423 101.384 13.155C98.4139 19.7327 95.8064 26.4206 93.3723 33.1794C90.8358 40.2849 88.4647 47.4612 86.3693 54.7085C84.2818 61.9557 82.3203 69.2423 80.666 76.6077C79.7837 80.2707 79.059 83.9731 78.2949 87.6676C77.5387 91.3622 76.94 95.0803 76.2547 98.7906C77.003 95.0961 77.6647 91.3858 78.484 87.707C79.3111 84.0283 80.0988 80.3495 81.0441 76.7023C82.8166 69.3841 84.9041 62.1369 87.1176 54.9448C89.3312 47.7448 91.8205 40.6394 94.4752 33.5969C97.0274 26.8933 99.753 20.2289 102.809 13.7773C103.117 13.8482 103.4 13.8876 103.676 13.9349L104.984 14.1161C105.819 14.2342 106.63 14.376 107.315 14.6281C107.67 14.7463 107.969 14.9038 108.229 15.0771C108.489 15.2662 108.639 15.4158 108.899 15.7546C109.363 16.369 109.765 17.0859 110.167 17.85C110.419 18.3226 110.679 18.8189 110.986 19.3309C111.215 19.7012 111.483 20.095 111.869 20.4653C108.371 26.4679 105.125 32.5729 102.006 38.7645C98.7605 45.2319 95.704 51.8017 92.8367 58.4424C89.9378 65.0752 87.3618 71.8419 84.9513 78.6559C82.5566 85.4856 80.5479 92.4335 78.7991 99.4444C80.6739 92.465 82.8087 85.5565 85.3216 78.7819C87.8502 72.0231 90.5443 65.3115 93.5614 58.7575C96.5469 52.1877 99.7136 45.6967 103.062 39.3002C106.26 33.2188 109.616 27.1926 113.168 21.3318C113.964 21.7414 114.752 22.025 115.492 22.3165C116.485 22.6946 117.351 23.1042 118.115 23.695C118.935 24.3252 119.415 24.8924 119.581 25.7825C119.675 26.2237 119.691 26.7672 119.809 27.3817C119.919 27.9961 120.179 28.6657 120.581 29.1856C120.612 29.2329 120.652 29.2722 120.691 29.3195C116.634 34.5659 112.853 39.9619 109.206 45.4682C105.456 51.1557 101.904 56.9772 98.5478 62.901C95.1605 68.8091 92.1119 74.9141 89.2524 81.09C86.4008 87.2738 83.9745 93.6466 81.8161 100.09C84.1006 93.686 86.645 87.3683 89.6069 81.2554C92.5846 75.1504 95.7355 69.1242 99.2252 63.2949C102.683 57.4498 106.339 51.7229 110.183 46.1221C113.885 40.7497 117.753 35.4639 121.826 30.3987C121.841 30.4145 121.857 30.4302 121.873 30.4381C122.314 30.7926 122.779 31.1234 123.236 31.4307C124.157 32.0372 124.914 32.5808 125.465 33.4079C126.048 34.1878 126.308 35.133 126.481 36.1729C126.623 36.9527 126.686 37.772 126.922 38.6464C126.962 38.8039 127.025 38.9694 127.088 39.1348C122.668 43.5461 118.509 48.1387 114.484 52.8651C110.388 57.694 106.472 62.6726 102.754 67.7929C99.0677 72.9368 95.6331 78.262 92.4822 83.7368C89.41 89.2668 86.6844 94.9858 84.5023 100.917C86.8104 95.033 89.6463 89.3849 92.8209 83.9337C96.0821 78.5377 99.6112 73.3071 103.392 68.2577C107.205 63.2319 111.199 58.3557 115.382 53.6371C119.415 49.0997 123.598 44.6647 127.962 40.4818C128.088 40.6315 128.214 40.7812 128.34 40.9308C129.435 42.1518 130.491 43.3413 130.877 44.775C131.066 45.4919 131.113 46.2717 131.152 47.091C131.192 47.7448 131.223 48.438 131.405 49.1312C127.04 52.8809 122.905 56.8117 118.872 60.8765C114.791 64.9964 110.868 69.266 107.095 73.6616C103.298 78.0414 99.7767 82.6497 96.3972 87.3525C93.0336 92.0711 90.0165 97.0182 87.2437 102.091C90.1347 97.0812 93.262 92.2129 96.7202 87.581C100.194 82.9648 103.81 78.4589 107.686 74.1815C111.546 69.8883 115.547 65.729 119.699 61.7194C123.685 57.8909 127.797 54.157 132.035 50.6516C132.271 51.0848 132.523 51.4866 132.767 51.8962C133.185 52.5894 133.587 53.2827 133.87 53.9916C134.012 54.3461 134.107 54.7006 134.17 55.0551C134.217 55.4174 134.193 55.7168 134.146 56.1658C134.059 56.9929 134.028 57.8279 134.02 58.6551C134.02 59.0332 134.036 59.4113 134.051 59.7973C129.805 62.8143 125.756 66.0205 121.794 69.3526C117.808 72.7084 113.948 76.206 110.214 79.8296C106.465 83.4375 102.888 87.2186 99.4537 91.1258L96.9093 94.0799L94.4673 97.1127L93.2463 98.633L92.0883 100.201L89.7723 103.328L92.1671 100.256L93.3644 98.7197L94.6248 97.2308L97.1456 94.2611L99.7609 91.3779C103.282 87.5652 106.945 83.8865 110.766 80.3889C114.578 76.8756 118.501 73.4883 122.55 70.2585C126.347 67.2257 130.254 64.2953 134.248 61.5697C134.351 62.255 134.477 62.9404 134.642 63.61C134.831 64.4135 135.044 65.1697 134.981 65.8787C134.934 66.6349 134.721 67.4069 134.492 68.1789Z" fill="#02676A"/>
</svg>
