<svg width="4" height="4" viewBox="0 0 4 4" fill="none" xmlns="http://www.w3.org/2000/svg">
<g clip-path="url(#clip0_264_2168)">
<path d="M1.42328 0.402886C1.66673 0.420871 1.92038 0.541205 2.16356 0.784172C2.40698 0.541914 2.66122 0.422306 2.90523 0.404785C3.18068 0.385007 3.42402 0.496877 3.59958 0.673329C3.94491 1.02044 4.05014 1.64775 3.61455 2.07782L3.61168 2.08057L2.24765 3.3435C2.20011 3.38752 2.1267 3.38752 2.07917 3.3435L0.715131 2.08057C0.713879 2.07941 0.712654 2.07823 0.711451 2.07702C0.282195 1.64539 0.386982 1.01807 0.730897 0.670953C0.905818 0.494402 1.14836 0.382575 1.42328 0.402886Z" fill="white"/>
</g>
<defs>
<clipPath id="clip0_264_2168">
<rect width="3.47199" height="3.47199" fill="white" transform="translate(0.432739 0.1521)"/>
</clipPath>
</defs>
</svg>
