<svg width="170" height="44" viewBox="0 0 170 44" fill="none" xmlns="http://www.w3.org/2000/svg">
<path d="M21.7718 9.39318C24.2729 9.39318 26.7178 10.1348 28.7974 11.5244C30.8769 12.9139 32.4978 14.8889 33.4549 17.1995C34.412 19.5102 34.6624 22.0528 34.1745 24.5058C33.6865 26.9589 32.4822 29.2121 30.7136 30.9806C28.9451 32.7491 26.6919 33.9535 24.2389 34.4414C21.7859 34.9294 19.2433 34.679 16.9326 33.7218C14.6219 32.7647 12.6469 31.1439 11.2574 29.0643C9.86787 26.9848 9.12622 24.5399 9.12622 22.0388C9.12622 18.685 10.4585 15.4685 12.83 13.097C15.2015 10.7255 18.418 9.39318 21.7718 9.39318ZM27.5593 27.6029C27.6586 27.4378 27.6934 27.2419 27.6568 27.0527C27.6202 26.8636 27.5149 26.6947 27.3612 26.5786C27.2963 26.5312 27.2288 26.4876 27.1589 26.4479C26.3702 25.9781 25.5337 25.5938 24.6635 25.3014C23.0905 24.7864 21.4458 24.5246 19.7907 24.5258C19.2301 24.5553 18.6652 24.5764 18.1046 24.6227C17.1002 24.7118 16.1031 24.8696 15.1202 25.0948C15.0427 25.1111 14.9665 25.1336 14.8926 25.1623C14.7238 25.2298 14.5843 25.3549 14.4987 25.5153C14.4131 25.6757 14.3869 25.8612 14.4247 26.039C14.4532 26.2188 14.5456 26.3822 14.6851 26.4992C14.8245 26.6162 15.0015 26.6788 15.1835 26.6755C15.3085 26.6716 15.4328 26.6546 15.5544 26.625C16.7543 26.3549 17.976 26.1926 19.2048 26.1402C20.156 26.1011 21.1088 26.1534 22.05 26.2962C23.575 26.5194 25.0423 27.0362 26.3706 27.8179C26.4386 27.8599 26.5089 27.898 26.5814 27.9317C26.755 28.008 26.9505 28.0185 27.1313 27.961C27.3121 27.9036 27.4658 27.7823 27.5635 27.6197M29.1105 24.1464C29.2432 23.924 29.2831 23.6583 29.2216 23.4067C29.1601 23.1551 29.0021 22.9378 28.7817 22.8018L28.6342 22.7132C27.6532 22.1333 26.6096 21.6667 25.5234 21.3222C23.3871 20.6373 21.147 20.3334 18.9055 20.4244C17.8576 20.4593 16.815 20.5891 15.7905 20.8122C15.3689 20.9049 14.9474 21.0145 14.5512 21.1368C14.3591 21.1974 14.1911 21.3173 14.0714 21.4794C13.9517 21.6415 13.8865 21.8373 13.8852 22.0388C13.8807 22.2366 13.9362 22.4312 14.0446 22.5968C14.153 22.7623 14.3091 22.8911 14.4922 22.9662C14.7197 23.0479 14.9686 23.0479 15.1961 22.9662C16.618 22.5544 18.0912 22.3472 19.5715 22.3507C20.6902 22.3516 21.8063 22.456 22.9057 22.6627C24.3088 22.9146 25.6687 23.366 26.9439 24.0031C27.1294 24.0986 27.3111 24.2017 27.4928 24.3047C27.5837 24.3562 27.6745 24.4078 27.7659 24.4583C27.986 24.5937 28.2505 24.6368 28.5022 24.5784C28.7539 24.52 28.9725 24.3648 29.1105 24.1464ZM29.258 20.5677C29.4369 20.6765 29.6415 20.7356 29.8508 20.7389C30.0601 20.7422 30.2664 20.6895 30.4486 20.5864C30.6307 20.4833 30.7821 20.3335 30.887 20.1523C30.9919 19.9712 31.0465 19.7654 31.0453 19.5561C31.0453 19.4717 31.0453 19.3874 31.0116 19.3031C30.9752 19.1383 30.9036 18.9833 30.8017 18.8487C30.6999 18.7141 30.5702 18.6031 30.4214 18.5233C29.5631 18.0269 28.6581 17.6161 27.7195 17.2967C25.4266 16.5303 23.0299 16.1195 20.6127 16.0785C19.6282 16.049 18.6429 16.0786 17.662 16.167C16.7374 16.2448 15.8191 16.3856 14.9137 16.5885C14.547 16.6728 14.1845 16.7656 13.8262 16.8836C13.5921 16.9632 13.3898 17.116 13.2494 17.3194C13.1089 17.5229 13.0377 17.7662 13.0464 18.0133C13.0523 18.2623 13.1371 18.503 13.2886 18.7008C13.4401 18.8985 13.6505 19.043 13.8894 19.1135C14.1098 19.1767 14.3435 19.1767 14.5638 19.1135C14.9306 19.0165 15.3015 18.9153 15.6724 18.8352C16.6806 18.6255 17.704 18.4972 18.7327 18.4517C19.6312 18.4015 20.5319 18.4015 21.4304 18.4517C22.294 18.5035 23.1539 18.6049 24.0059 18.7552C25.2298 18.9609 26.4291 19.2928 27.5846 19.7457C28.1649 19.9886 28.7282 20.2702 29.2707 20.5888" fill="white"/>
</svg>
