<svg width="26" height="26" viewBox="0 0 26 26" fill="none" xmlns="http://www.w3.org/2000/svg">
<path d="M12.7718 0.070797C15.2729 0.070797 17.7178 0.81245 19.7974 2.20197C21.8769 3.59149 23.4978 5.56646 24.4549 7.87715C25.412 10.1878 25.6624 12.7305 25.1745 15.1835C24.6865 17.6365 23.4822 19.8897 21.7136 21.6582C19.9451 23.4268 17.6919 24.6311 15.2389 25.1191C12.7859 25.607 10.2433 25.3566 7.93257 24.3995C5.62188 23.4423 3.64691 21.8215 2.25739 19.742C0.867869 17.6624 0.126216 15.2175 0.126216 12.7164C0.126216 9.36259 1.45852 6.14613 3.83003 3.77462C6.20155 1.4031 9.41801 0.070797 12.7718 0.070797ZM18.5593 18.2805C18.6586 18.1154 18.6934 17.9195 18.6568 17.7303C18.6202 17.5412 18.5149 17.3723 18.3612 17.2562C18.2963 17.2088 18.2288 17.1652 18.1589 17.1255C17.3702 16.6558 16.5337 16.2714 15.6635 15.979C14.0905 15.464 12.4458 15.2022 10.7907 15.2034C10.2301 15.2329 9.66523 15.254 9.10461 15.3003C8.10022 15.3895 7.1031 15.5472 6.12024 15.7724C6.04266 15.7887 5.96653 15.8112 5.89262 15.8399C5.7238 15.9074 5.58428 16.0325 5.49867 16.1929C5.41306 16.3533 5.38688 16.5388 5.42473 16.7167C5.45317 16.8964 5.54563 17.0598 5.68506 17.1768C5.82449 17.2938 6.0015 17.3564 6.18347 17.3531C6.30853 17.3492 6.43285 17.3322 6.55441 17.3026C7.75431 17.0325 8.97597 16.8702 10.2048 16.8178C11.156 16.7787 12.1088 16.831 13.05 16.9738C14.575 17.197 16.0423 17.7138 17.3706 18.4955C17.4386 18.5376 17.5089 18.5756 17.5814 18.6093C17.755 18.6856 17.9505 18.6961 18.1313 18.6387C18.3121 18.5812 18.4658 18.4599 18.5635 18.2974M20.1105 14.824C20.2432 14.6016 20.2831 14.3359 20.2216 14.0843C20.1601 13.8328 20.0021 13.6155 19.7817 13.4794L19.6342 13.3909C18.6532 12.811 17.6096 12.3443 16.5234 11.9998C14.3871 11.3149 12.147 11.011 9.9055 11.102C8.85757 11.1369 7.81497 11.2667 6.79046 11.4898C6.36894 11.5825 5.94742 11.6921 5.55119 11.8144C5.35905 11.875 5.19108 11.9949 5.07141 12.157C4.95175 12.3191 4.88655 12.515 4.88519 12.7164C4.88065 12.9143 4.93625 13.1088 5.04462 13.2744C5.153 13.44 5.30906 13.5688 5.49218 13.6438C5.71971 13.7255 5.96859 13.7255 6.19612 13.6438C7.61798 13.232 9.09122 13.0248 10.5715 13.0283C11.6902 13.0292 12.8063 13.1336 13.9057 13.3403C15.3088 13.5922 16.6687 14.0436 17.9439 14.6807C18.1294 14.7762 18.3111 14.8793 18.4928 14.9823C18.5837 15.0338 18.6745 15.0854 18.7659 15.136C18.986 15.2713 19.2505 15.3144 19.5022 15.256C19.7539 15.1977 19.9725 15.0424 20.1105 14.824ZM20.258 11.2453C20.4369 11.3541 20.6415 11.4132 20.8508 11.4165C21.0601 11.4198 21.2664 11.3672 21.4486 11.264C21.6307 11.1609 21.7821 11.0111 21.887 10.83C21.9919 10.6488 22.0465 10.443 22.0453 10.2337C22.0453 10.1494 22.0453 10.0651 22.0116 9.98075C21.9752 9.81594 21.9036 9.66093 21.8017 9.52634C21.6999 9.39175 21.5702 9.28075 21.4214 9.20094C20.5631 8.70456 19.6581 8.29371 18.7195 7.97431C16.4266 7.20792 14.0299 6.7971 11.6127 6.75612C10.6282 6.72663 9.64291 6.75619 8.66201 6.84464C7.73737 6.92236 6.81913 7.0632 5.9137 7.26616C5.54697 7.35046 5.18447 7.4432 4.82617 7.56122C4.59208 7.64077 4.38984 7.79359 4.24938 7.99706C4.10893 8.20052 4.03774 8.44381 4.04636 8.6909C4.05226 8.93993 4.13707 9.18065 4.28858 9.37837C4.4401 9.5761 4.65048 9.7206 4.8894 9.79107C5.10977 9.85431 5.34347 9.85431 5.56383 9.79107C5.93056 9.69411 6.3015 9.59295 6.67243 9.51286C7.68057 9.30309 8.70395 9.17482 9.73268 9.12928C10.6312 9.07913 11.5319 9.07913 12.4304 9.12928C13.294 9.18114 14.1539 9.28247 15.0059 9.43277C16.2298 9.63849 17.4291 9.97046 18.5846 10.4233C19.1649 10.6662 19.7282 10.9479 20.2707 11.2664" fill="white"/>
</svg>
