<svg width="382" height="56" viewBox="0 0 382 56" fill="none" xmlns="http://www.w3.org/2000/svg">
<mask id="path-1-outside-1_318_454" maskUnits="userSpaceOnUse" x="0" y="-0.223145" width="382" height="56" fill="black">
<rect fill="white" y="-0.223145" width="382" height="56"/>
<path d="M15.0973 27.8207C16.3767 29.1884 16.9503 30.953 16.3326 32.7619C15.7591 34.3942 14.3915 35.7177 12.6709 36.0265C11.4797 36.2471 10.9503 34.4383 12.1856 34.2177C14.4356 33.8207 15.4062 31.1736 13.9503 29.4089C13.2003 28.4825 12.1856 27.8207 11.3474 26.9825C10.5533 26.1884 9.93563 25.2619 9.58269 24.2031C8.78858 21.9531 9.27387 19.3943 10.818 17.5855C11.4356 16.8355 12.4503 15.865 13.4209 15.6885C14.2591 15.5561 15.2297 16.0414 15.1415 16.9679C15.0091 17.8502 14.0385 18.0708 13.5091 17.7179C13.465 17.762 13.4209 17.8061 13.3327 17.8061C13.2444 17.8943 13.1121 17.9826 13.0238 18.0267C12.8033 18.2032 12.6268 18.3796 12.4503 18.5561C12.0974 18.9532 11.7886 19.3943 11.568 19.8796C11.0827 20.9384 10.9944 22.1296 11.2591 23.2325C11.8327 25.3502 13.7297 26.3207 15.0973 27.8207Z"/>
<path d="M42.8702 24.909C42.9584 28.7031 41.5908 32.806 38.4143 35.0118C35.5026 37.0412 31.1791 36.9089 28.885 34.0413C26.5468 31.1295 26.5909 26.409 27.7821 23.0561C28.9291 19.9237 31.4879 17.2767 34.7967 16.7914C34.9732 16.7032 35.1938 16.7032 35.3703 16.7473C35.635 16.7473 35.8997 16.7032 36.1644 16.7473C36.4291 16.7473 36.6497 16.8355 36.782 17.012C36.8261 17.012 36.8261 17.012 36.8702 17.012C37.3555 17.0561 37.8408 17.1885 38.282 17.3649C39.2085 17.7179 40.0467 18.2914 40.7084 18.9973C42.2084 20.6296 42.8261 22.7914 42.8702 24.909ZM38.7673 32.1442C40.7084 29.806 41.4143 26.2325 40.7967 23.3208C40.4879 21.7767 39.6937 20.3649 38.3702 19.5267C37.7526 19.1296 37.0467 18.8649 36.2526 18.8649C35.6791 18.8649 35.2379 18.9532 34.7085 18.7326C31.7085 19.3502 29.7674 22.2178 29.1938 25.2178C28.6203 27.909 28.7085 31.8354 31.135 33.6442C33.5614 35.4089 37.0026 34.2618 38.7673 32.1442Z"/>
<path d="M60.5278 22.3502C61.5866 22.9678 62.4689 24.3355 62.9101 25.2178C63.7483 26.8501 64.1013 28.659 63.8366 30.4678C63.263 34.2618 60.0425 37.0412 56.3808 37.5265C56.2484 37.5265 56.1161 37.5265 56.0278 37.4824C55.8513 37.5706 55.6749 37.5706 55.5425 37.4824C55.5425 37.4383 55.4984 37.4383 55.4984 37.4383C55.3219 37.3942 55.1896 37.35 55.1014 37.1736L55.0572 37.1295C55.0131 37.0853 55.0131 37.0412 54.969 36.953C54.969 36.953 54.969 36.9089 54.969 36.8648C54.9249 36.8206 54.9249 36.7765 54.9249 36.7765C54.8366 36.6442 54.7925 36.5559 54.7925 36.3795C54.7484 36.203 54.7043 35.9824 54.7043 35.8059C54.6602 35.6295 54.6602 35.453 54.7043 35.3207C54.4837 29.2325 54.2631 23.1443 54.0425 17.0561C53.9984 16.9238 53.9984 16.7473 53.9984 16.6149C53.9102 16.3944 53.8661 16.1297 53.9543 15.9532C53.9543 15.9091 53.9543 15.9091 53.9543 15.865C53.9984 15.8208 53.9984 15.7326 54.0425 15.6885C54.0867 15.2914 54.4396 14.9826 54.9249 14.8061C55.0131 14.8061 55.0572 14.8061 55.1455 14.8061C55.2337 14.8061 55.3219 14.8061 55.4102 14.8061C55.4543 14.8061 55.4984 14.8061 55.4984 14.8503C55.6749 14.8944 55.6308 14.8944 55.5866 14.8503C55.6308 14.8503 55.6308 14.8944 55.6749 14.8944C55.7631 14.9385 55.8513 14.9826 55.8955 15.0267C55.9396 15.0708 55.9837 15.0708 56.0278 15.115C56.0278 15.7326 56.116 16.3502 56.1602 16.9679H56.1161C56.2043 18.7767 56.2484 20.5855 56.3366 22.3943C56.3808 22.3943 56.469 22.3502 56.5131 22.3502C58.8072 20.409 61.0131 18.159 62.116 15.3355C63.3954 12.115 63.0425 8.62972 60.5278 6.20327C58.3219 4.08565 55.3219 3.2033 52.3661 2.98272C49.7632 2.76213 47.072 2.80625 44.5132 3.24742C40.3221 3.9533 36.2633 5.45328 32.2045 6.82092C27.7045 8.36502 23.1605 9.73266 18.3958 10.3062C12.7929 10.9679 7.14591 10.3503 1.71949 8.76208C0.440089 8.40914 1.01361 6.37974 2.29302 6.7768C8.73413 8.67384 15.3517 8.98266 21.9252 7.61503C31.2339 5.71799 39.7927 0.820972 49.4102 0.776855C55.2778 0.776855 62.3807 2.36508 64.4983 8.67384C66.0865 13.4826 63.7042 17.8943 60.4837 21.4237C60.3072 21.6443 60.1307 21.8649 59.9542 22.0855C60.0425 22.1296 60.1307 22.1296 60.1748 22.1737H60.219C60.2631 22.262 60.3072 22.3061 60.4395 22.3061C60.4395 22.3061 60.4837 22.3502 60.5278 22.3502ZM61.8954 30.556C62.3366 28.5266 61.6307 25.7472 59.9542 24.2913C58.719 23.6737 56.8219 24.4678 56.469 25.8354C56.469 25.8796 56.469 25.8796 56.469 25.8796C56.6013 28.9678 56.6896 32.056 56.8219 35.1001C56.8219 35.1001 56.866 35.056 56.9102 35.056C56.8219 35.3207 57.1749 35.4971 57.3513 35.3207C57.3072 35.3648 57.3072 35.4089 57.3072 35.4089C59.5572 34.7471 61.366 32.8501 61.8954 30.556Z"/>
<path d="M84.5286 35.7618C85.1021 36.5559 83.8227 37.4824 83.2051 36.7765C83.1609 36.6883 83.0727 36.6442 83.0286 36.5559C82.9845 36.5118 82.9403 36.4236 82.8962 36.3354C80.9992 33.6442 79.2345 30.8648 77.558 28.0413C77.5139 28.7472 77.5139 29.9825 77.4698 29.9384C77.5139 31.9677 77.558 34.0413 77.558 36.0706C77.6022 37.3059 75.7051 37.2618 75.661 36.0706C75.661 35.8059 75.661 35.5412 75.661 35.2765C75.661 35.1883 75.661 35.1001 75.661 35.056C75.5728 29.1442 75.3963 23.2766 75.1316 17.3649C75.0875 17.1002 75.1757 16.8796 75.3081 16.7473C75.3963 16.6149 75.5287 16.4826 75.7492 16.4826C75.7934 16.4826 75.8375 16.4826 75.8375 16.4826C75.9257 16.4385 75.9698 16.4385 76.0581 16.4385C76.5433 16.4385 76.9845 16.4385 77.4698 16.4385C77.558 16.4385 77.6904 16.4385 77.7786 16.4385C77.8669 16.3944 77.911 16.4385 77.9551 16.4385C79.6315 16.3944 81.4845 16.7914 82.3668 18.3796C83.2492 19.9237 82.5874 22.0414 81.8374 23.5414C81.1315 24.8649 80.0286 25.9678 78.7492 26.7619C80.558 29.8501 82.4992 32.8501 84.5286 35.7618ZM77.1169 18.7326C77.0727 18.8208 77.1169 18.909 77.1169 18.9973C77.1169 18.9973 77.1169 18.9973 77.0727 19.0414C77.161 21.0708 77.2492 23.1002 77.3375 25.1737C77.4257 25.1296 77.558 25.1737 77.6463 25.2178C79.1021 24.3355 80.2051 23.0119 80.6904 21.3796C80.9551 20.3649 81.0874 19.262 80.0286 18.6885C79.4992 18.3796 78.8816 18.3355 78.308 18.3355C78.0875 18.3355 77.7786 18.3796 77.558 18.3355C77.5139 18.3796 77.4698 18.3796 77.4257 18.3796C77.4257 18.3796 77.4257 18.3796 77.4257 18.4238C77.3375 18.4238 77.2933 18.4679 77.2051 18.5561C77.2051 18.5561 77.2051 18.5561 77.161 18.6002C77.161 18.6002 77.161 18.6002 77.161 18.6443C77.1169 18.6885 77.1169 18.6885 77.1169 18.7326Z"/>
<path d="M108.675 35.1442C109.778 34.3501 110.837 36.1589 109.734 36.953C107.793 38.2765 105.366 39.1147 103.072 38.2765C100.822 37.4383 99.8959 35.4971 99.4988 33.2471C98.6606 28.4384 98.0871 23.5855 97.6018 18.7326C96.4988 18.909 95.8371 17.3649 96.8518 16.7914C96.9841 16.7032 97.1165 16.6591 97.2488 16.6149C97.293 16.6149 97.3371 16.6149 97.3812 16.6149C98.0871 16.4385 98.7929 16.3061 99.4547 16.1297C100.161 15.9973 100.822 15.9091 101.528 15.865C102.234 15.865 102.94 15.865 103.646 15.865C104.793 15.9091 105.102 17.6738 103.911 17.9385C103.822 17.9826 103.734 17.9826 103.646 17.9826C103.558 17.9826 103.513 17.9826 103.469 17.9826C103.425 17.9826 103.381 17.9826 103.293 17.9826C102.808 17.9826 102.278 17.9826 101.749 17.9826C101.087 17.9826 100.425 18.0708 99.7635 18.2032C99.7194 18.2032 99.6753 18.2473 99.6753 18.2473C99.8518 20.1884 100.072 22.1296 100.293 24.0266C100.425 24.0708 100.514 24.1149 100.602 24.159C100.646 24.2031 100.69 24.2031 100.734 24.2031C100.778 24.2472 100.866 24.2913 100.911 24.3355C101.087 24.2913 101.308 24.2472 101.396 24.2472C101.837 24.159 102.234 24.1149 102.631 24.0266C103.469 23.8943 104.308 23.7619 105.102 23.6296C106.469 23.409 106.999 25.4384 105.675 25.659C104.528 25.8354 103.337 26.056 102.19 26.2325C101.661 26.3207 101.131 26.4531 100.602 26.4972C100.778 27.7766 100.999 29.056 101.175 30.2913C101.44 32.1001 101.44 34.8795 103.161 35.9824C104.969 37.1295 107.087 36.203 108.675 35.1442Z"/>
<path d="M154.99 24.909C155.078 28.7031 153.711 32.806 150.534 35.0118C147.622 37.0412 143.299 36.9089 141.005 34.0413C138.667 31.1295 138.711 26.409 139.902 23.0561C141.049 19.9237 143.608 17.2767 146.917 16.7914C147.093 16.7032 147.314 16.7032 147.49 16.7473C147.755 16.7473 148.019 16.7032 148.284 16.7473C148.549 16.7473 148.769 16.8355 148.902 17.012C148.946 17.012 148.946 17.012 148.99 17.012C149.475 17.0561 149.961 17.1885 150.402 17.3649C151.328 17.7179 152.167 18.2914 152.828 18.9973C154.328 20.6296 154.946 22.7914 154.99 24.909ZM150.887 32.1442C152.828 29.806 153.534 26.2325 152.917 23.3208C152.608 21.7767 151.814 20.3649 150.49 19.5267C149.872 19.1296 149.167 18.8649 148.372 18.8649C147.799 18.8649 147.358 18.9532 146.828 18.7326C143.828 19.3502 141.887 22.2178 141.314 25.2178C140.74 27.909 140.828 31.8354 143.255 33.6442C145.681 35.4089 149.122 34.2618 150.887 32.1442Z"/>
<path d="M244.771 42.6882C245.565 41.5853 247.374 42.6441 246.579 43.747C242.741 49.3058 236.565 52.6587 229.991 53.9381C219.403 55.9675 207.889 54.3793 198.315 49.3058C190.595 45.2029 183.933 38.2324 183.139 29.2766C183.051 28.6148 183.007 27.9531 183.007 27.2913C183.007 24.2472 183.712 21.0708 185.698 18.7326C187.506 16.5267 190.33 15.3355 193.153 15.8208C194.477 16.0414 193.948 18.0708 192.58 17.8502C189.536 17.3649 186.977 19.7473 185.918 22.3943C185.345 23.9384 185.036 25.7472 185.08 27.4678C185.124 27.6001 185.168 27.7766 185.168 27.9531C185.257 32.6736 187.198 37.0412 190.33 40.5706C196.33 47.3647 205.55 51.0705 214.374 52.2617C224.962 53.7175 238.197 52.1734 244.771 42.6882Z"/>
<path d="M215.675 35.4971C215.896 36.6883 214.087 37.1736 213.822 35.9824C213.205 32.806 212.543 29.5854 211.881 26.3649C211.793 25.9237 211.705 25.5266 211.617 25.0855C210.47 25.1737 209.278 25.2619 208.087 25.3502C206.896 29.0119 205.837 32.6736 204.911 36.3795C204.602 37.5706 202.749 37.0853 203.058 35.8942C204.823 29.1001 206.94 22.4384 209.411 15.865C209.764 14.9385 211.175 15.115 211.308 15.9091C212.146 16.6149 212.146 18.159 212.367 19.1296C212.719 20.8943 213.072 22.659 213.425 24.4237C214.175 28.1295 214.925 31.7913 215.675 35.4971ZM208.749 23.409C209.587 23.3649 210.425 23.2766 211.264 23.2325L210.955 21.6443C210.778 20.8502 210.602 20.012 210.425 19.2179C210.425 19.0414 210.381 18.909 210.337 18.7767C209.808 20.3208 209.234 21.8649 208.749 23.409Z"/>
<path d="M231.453 27.8207C232.732 29.1884 233.306 30.953 232.688 32.7619C232.115 34.3942 230.747 35.7177 229.026 36.0265C227.835 36.2471 227.306 34.4383 228.541 34.2177C230.791 33.8207 231.762 31.1736 230.306 29.4089C229.556 28.4825 228.541 27.8207 227.703 26.9825C226.909 26.1884 226.291 25.2619 225.938 24.2031C225.144 21.9531 225.629 19.3943 227.173 17.5855C227.791 16.8355 228.806 15.865 229.776 15.6885C230.615 15.5561 231.585 16.0414 231.497 16.9679C231.365 17.8502 230.394 18.0708 229.865 17.7179C229.82 17.762 229.776 17.8061 229.688 17.8061C229.6 17.8943 229.468 17.9826 229.379 18.0267C229.159 18.2032 228.982 18.3796 228.806 18.5561C228.453 18.9532 228.144 19.3943 227.923 19.8796C227.438 20.9384 227.35 22.1296 227.615 23.2325C228.188 25.3502 230.085 26.3207 231.453 27.8207Z"/>
<path d="M256.379 35.4971C256.599 36.6883 254.79 37.1736 254.526 35.9824C253.908 32.806 253.246 29.5854 252.585 26.3649C252.496 25.9237 252.408 25.5266 252.32 25.0855C251.173 25.1737 249.982 25.2619 248.79 25.3502C247.599 29.0119 246.54 32.6736 245.614 36.3795C245.305 37.5706 243.452 37.0853 243.761 35.8942C245.526 29.1001 247.643 22.4384 250.114 15.865C250.467 14.9385 251.879 15.115 252.011 15.9091C252.849 16.6149 252.849 18.159 253.07 19.1296C253.423 20.8943 253.776 22.659 254.129 24.4237C254.879 28.1295 255.629 31.7913 256.379 35.4971ZM249.452 23.409C250.29 23.3649 251.129 23.2766 251.967 23.2325L251.658 21.6443C251.482 20.8502 251.305 20.012 251.129 19.2179C251.129 19.0414 251.085 18.909 251.04 18.7767C250.511 20.3208 249.938 21.8649 249.452 23.409Z"/>
<path d="M284.996 16.5267C285.217 23.5855 285.481 30.6883 285.79 37.7471C285.878 38.8059 284.202 39.0265 283.937 38.0118C283.893 37.7471 283.849 37.4824 283.761 37.2618C283.717 36.9971 283.761 36.7765 283.849 36.6001C283.628 31.1736 283.408 25.7472 283.231 20.3208V20.3649C283.187 20.409 283.187 20.409 283.143 20.4531C282.217 21.7325 281.334 23.0561 280.496 24.3796C280.496 24.4678 280.452 24.556 280.408 24.6443C278.996 26.9384 277.805 29.3648 276.79 31.9236C276.525 32.5413 275.908 32.6736 275.422 32.4972C275.07 32.4972 274.717 32.2766 274.54 31.8354C273.349 28.5266 271.981 25.2619 270.437 22.0855C270.79 26.3649 270.923 30.6001 270.878 34.8795C270.967 35.056 271.011 35.2765 270.967 35.4971C270.923 35.8059 270.878 36.1148 270.834 36.4236C270.658 37.4824 268.937 37.2177 268.981 36.1589C269.07 29.7178 268.761 23.3208 268.055 16.9238C267.878 15.7326 269.82 15.7326 269.952 16.9238V16.9679C272.158 21.0267 274.055 25.2619 275.731 29.5854C276.349 28.1737 276.967 26.7619 277.717 25.4384C279.217 22.0855 281.202 18.8649 283.143 15.7326C283.143 15.6885 283.187 15.6444 283.187 15.6002C283.452 14.4091 285.305 14.9385 284.996 16.1297C284.996 16.1738 284.996 16.2179 284.952 16.262C284.996 16.3502 284.996 16.4385 284.996 16.5267Z"/>
<path d="M309.827 35.1442C310.93 34.3501 311.989 36.1589 310.886 36.953C308.945 38.2765 306.519 39.1147 304.225 38.2765C301.975 37.4383 301.048 35.4971 300.651 33.2471C299.813 28.4384 299.239 23.5855 298.754 18.7326C297.651 18.909 296.989 17.3649 298.004 16.7914C298.136 16.7032 298.269 16.6591 298.401 16.6149C298.445 16.6149 298.489 16.6149 298.533 16.6149C299.239 16.4385 299.945 16.3061 300.607 16.1297C301.313 15.9973 301.975 15.9091 302.68 15.865C303.386 15.865 304.092 15.865 304.798 15.865C305.945 15.9091 306.254 17.6738 305.063 17.9385C304.975 17.9826 304.886 17.9826 304.798 17.9826C304.71 17.9826 304.666 17.9826 304.622 17.9826C304.577 17.9826 304.533 17.9826 304.445 17.9826C303.96 17.9826 303.43 17.9826 302.901 17.9826C302.239 17.9826 301.577 18.0708 300.916 18.2032C300.872 18.2032 300.827 18.2473 300.827 18.2473C301.004 20.1884 301.225 22.1296 301.445 24.0266C301.577 24.0708 301.666 24.1149 301.754 24.159C301.798 24.2031 301.842 24.2031 301.886 24.2031C301.93 24.2472 302.019 24.2913 302.063 24.3355C302.239 24.2913 302.46 24.2472 302.548 24.2472C302.989 24.159 303.386 24.1149 303.783 24.0266C304.622 23.8943 305.46 23.7619 306.254 23.6296C307.622 23.409 308.151 25.4384 306.827 25.659C305.68 25.8354 304.489 26.056 303.342 26.2325C302.813 26.3207 302.283 26.4531 301.754 26.4972C301.93 27.7766 302.151 29.056 302.327 30.2913C302.592 32.1001 302.592 34.8795 304.313 35.9824C306.122 37.1295 308.239 36.203 309.827 35.1442Z"/>
<path d="M334.136 36.2912C334.136 36.3354 334.136 36.3354 334.136 36.3795C334.18 36.9971 334.048 37.5265 333.519 37.703C332.857 37.8795 332.195 37.3942 331.754 36.9089C331.666 36.8206 331.578 36.7765 331.489 36.6442C329.504 34.1295 327.916 31.3942 326.725 28.3942C326.239 27.159 325.798 25.8796 325.401 24.6002C325.578 28.659 325.754 32.7177 325.886 36.8206C325.93 38.1 324.122 37.9677 323.989 36.8206C323.989 36.6442 323.945 36.5118 323.945 36.3354C323.901 36.203 323.901 36.0706 323.945 35.9383C323.769 29.5413 323.46 23.1002 323.019 16.7032C322.931 15.6002 324.519 15.512 324.828 16.4385C324.872 16.4826 324.916 16.5708 324.916 16.6591C324.96 16.9679 325.048 17.2767 325.092 17.6296C325.136 17.6738 325.136 17.762 325.181 17.8502C327.078 23.5855 328.666 29.5854 332.283 34.5707C331.666 28.6148 331.357 22.659 331.313 16.7032C331.313 15.512 333.21 15.512 333.21 16.7032C333.254 22.6149 333.563 28.5266 334.136 34.3942C334.136 34.4383 334.136 34.4824 334.136 34.5265V34.8354C334.136 34.8795 334.136 34.9236 334.136 34.9236C334.092 35.3648 334.136 35.8501 334.136 36.2912Z"/>
<path d="M355.554 14.9385C356.789 14.8503 356.789 16.7914 355.554 16.8355C354.274 16.9238 352.951 17.012 351.627 17.1002C352.245 23.2766 352.509 29.5413 352.465 35.7618C352.465 36.9971 350.701 36.953 350.568 35.7618L350.524 35.056C350.48 34.8795 350.524 34.703 350.568 34.5707C350.568 28.7913 350.304 22.9678 349.774 17.1885C348.76 17.2767 347.745 17.3208 346.73 17.4091C345.495 17.4532 345.539 15.5561 346.73 15.512C349.686 15.3355 352.598 15.115 355.554 14.9385Z"/>
<path d="M380.996 24.909C381.084 28.7031 379.717 32.806 376.54 35.0118C373.628 37.0412 369.305 36.9089 367.011 34.0413C364.673 31.1295 364.717 26.409 365.908 23.0561C367.055 19.9237 369.614 17.2767 372.923 16.7914C373.099 16.7032 373.32 16.7032 373.496 16.7473C373.761 16.7473 374.026 16.7032 374.29 16.7473C374.555 16.7473 374.776 16.8355 374.908 17.012C374.952 17.012 374.952 17.012 374.996 17.012C375.481 17.0561 375.967 17.1885 376.408 17.3649C377.334 17.7179 378.173 18.2914 378.834 18.9973C380.334 20.6296 380.952 22.7914 380.996 24.909ZM376.893 32.1442C378.834 29.806 379.54 26.2325 378.923 23.3208C378.614 21.7767 377.82 20.3649 376.496 19.5267C375.878 19.1296 375.173 18.8649 374.378 18.8649C373.805 18.8649 373.364 18.9532 372.834 18.7326C369.834 19.3502 367.893 22.2178 367.32 25.2178C366.746 27.909 366.834 31.8354 369.261 33.6442C371.687 35.4089 375.128 34.2618 376.893 32.1442Z"/>
</mask>
<path d="M15.0973 27.8207C16.3767 29.1884 16.9503 30.953 16.3326 32.7619C15.7591 34.3942 14.3915 35.7177 12.6709 36.0265C11.4797 36.2471 10.9503 34.4383 12.1856 34.2177C14.4356 33.8207 15.4062 31.1736 13.9503 29.4089C13.2003 28.4825 12.1856 27.8207 11.3474 26.9825C10.5533 26.1884 9.93563 25.2619 9.58269 24.2031C8.78858 21.9531 9.27387 19.3943 10.818 17.5855C11.4356 16.8355 12.4503 15.865 13.4209 15.6885C14.2591 15.5561 15.2297 16.0414 15.1415 16.9679C15.0091 17.8502 14.0385 18.0708 13.5091 17.7179C13.465 17.762 13.4209 17.8061 13.3327 17.8061C13.2444 17.8943 13.1121 17.9826 13.0238 18.0267C12.8033 18.2032 12.6268 18.3796 12.4503 18.5561C12.0974 18.9532 11.7886 19.3943 11.568 19.8796C11.0827 20.9384 10.9944 22.1296 11.2591 23.2325C11.8327 25.3502 13.7297 26.3207 15.0973 27.8207Z" fill="white"/>
<path d="M42.8702 24.909C42.9584 28.7031 41.5908 32.806 38.4143 35.0118C35.5026 37.0412 31.1791 36.9089 28.885 34.0413C26.5468 31.1295 26.5909 26.409 27.7821 23.0561C28.9291 19.9237 31.4879 17.2767 34.7967 16.7914C34.9732 16.7032 35.1938 16.7032 35.3703 16.7473C35.635 16.7473 35.8997 16.7032 36.1644 16.7473C36.4291 16.7473 36.6497 16.8355 36.782 17.012C36.8261 17.012 36.8261 17.012 36.8702 17.012C37.3555 17.0561 37.8408 17.1885 38.282 17.3649C39.2085 17.7179 40.0467 18.2914 40.7084 18.9973C42.2084 20.6296 42.8261 22.7914 42.8702 24.909ZM38.7673 32.1442C40.7084 29.806 41.4143 26.2325 40.7967 23.3208C40.4879 21.7767 39.6937 20.3649 38.3702 19.5267C37.7526 19.1296 37.0467 18.8649 36.2526 18.8649C35.6791 18.8649 35.2379 18.9532 34.7085 18.7326C31.7085 19.3502 29.7674 22.2178 29.1938 25.2178C28.6203 27.909 28.7085 31.8354 31.135 33.6442C33.5614 35.4089 37.0026 34.2618 38.7673 32.1442Z" fill="white"/>
<path d="M60.5278 22.3502C61.5866 22.9678 62.4689 24.3355 62.9101 25.2178C63.7483 26.8501 64.1013 28.659 63.8366 30.4678C63.263 34.2618 60.0425 37.0412 56.3808 37.5265C56.2484 37.5265 56.1161 37.5265 56.0278 37.4824C55.8513 37.5706 55.6749 37.5706 55.5425 37.4824C55.5425 37.4383 55.4984 37.4383 55.4984 37.4383C55.3219 37.3942 55.1896 37.35 55.1014 37.1736L55.0572 37.1295C55.0131 37.0853 55.0131 37.0412 54.969 36.953C54.969 36.953 54.969 36.9089 54.969 36.8648C54.9249 36.8206 54.9249 36.7765 54.9249 36.7765C54.8366 36.6442 54.7925 36.5559 54.7925 36.3795C54.7484 36.203 54.7043 35.9824 54.7043 35.8059C54.6602 35.6295 54.6602 35.453 54.7043 35.3207C54.4837 29.2325 54.2631 23.1443 54.0425 17.0561C53.9984 16.9238 53.9984 16.7473 53.9984 16.6149C53.9102 16.3944 53.8661 16.1297 53.9543 15.9532C53.9543 15.9091 53.9543 15.9091 53.9543 15.865C53.9984 15.8208 53.9984 15.7326 54.0425 15.6885C54.0867 15.2914 54.4396 14.9826 54.9249 14.8061C55.0131 14.8061 55.0572 14.8061 55.1455 14.8061C55.2337 14.8061 55.3219 14.8061 55.4102 14.8061C55.4543 14.8061 55.4984 14.8061 55.4984 14.8503C55.6749 14.8944 55.6308 14.8944 55.5866 14.8503C55.6308 14.8503 55.6308 14.8944 55.6749 14.8944C55.7631 14.9385 55.8513 14.9826 55.8955 15.0267C55.9396 15.0708 55.9837 15.0708 56.0278 15.115C56.0278 15.7326 56.116 16.3502 56.1602 16.9679H56.1161C56.2043 18.7767 56.2484 20.5855 56.3366 22.3943C56.3808 22.3943 56.469 22.3502 56.5131 22.3502C58.8072 20.409 61.0131 18.159 62.116 15.3355C63.3954 12.115 63.0425 8.62972 60.5278 6.20327C58.3219 4.08565 55.3219 3.2033 52.3661 2.98272C49.7632 2.76213 47.072 2.80625 44.5132 3.24742C40.3221 3.9533 36.2633 5.45328 32.2045 6.82092C27.7045 8.36502 23.1605 9.73266 18.3958 10.3062C12.7929 10.9679 7.14591 10.3503 1.71949 8.76208C0.440089 8.40914 1.01361 6.37974 2.29302 6.7768C8.73413 8.67384 15.3517 8.98266 21.9252 7.61503C31.2339 5.71799 39.7927 0.820972 49.4102 0.776855C55.2778 0.776855 62.3807 2.36508 64.4983 8.67384C66.0865 13.4826 63.7042 17.8943 60.4837 21.4237C60.3072 21.6443 60.1307 21.8649 59.9542 22.0855C60.0425 22.1296 60.1307 22.1296 60.1748 22.1737H60.219C60.2631 22.262 60.3072 22.3061 60.4395 22.3061C60.4395 22.3061 60.4837 22.3502 60.5278 22.3502ZM61.8954 30.556C62.3366 28.5266 61.6307 25.7472 59.9542 24.2913C58.719 23.6737 56.8219 24.4678 56.469 25.8354C56.469 25.8796 56.469 25.8796 56.469 25.8796C56.6013 28.9678 56.6896 32.056 56.8219 35.1001C56.8219 35.1001 56.866 35.056 56.9102 35.056C56.8219 35.3207 57.1749 35.4971 57.3513 35.3207C57.3072 35.3648 57.3072 35.4089 57.3072 35.4089C59.5572 34.7471 61.366 32.8501 61.8954 30.556Z" fill="white"/>
<path d="M84.5286 35.7618C85.1021 36.5559 83.8227 37.4824 83.2051 36.7765C83.1609 36.6883 83.0727 36.6442 83.0286 36.5559C82.9845 36.5118 82.9403 36.4236 82.8962 36.3354C80.9992 33.6442 79.2345 30.8648 77.558 28.0413C77.5139 28.7472 77.5139 29.9825 77.4698 29.9384C77.5139 31.9677 77.558 34.0413 77.558 36.0706C77.6022 37.3059 75.7051 37.2618 75.661 36.0706C75.661 35.8059 75.661 35.5412 75.661 35.2765C75.661 35.1883 75.661 35.1001 75.661 35.056C75.5728 29.1442 75.3963 23.2766 75.1316 17.3649C75.0875 17.1002 75.1757 16.8796 75.3081 16.7473C75.3963 16.6149 75.5287 16.4826 75.7492 16.4826C75.7934 16.4826 75.8375 16.4826 75.8375 16.4826C75.9257 16.4385 75.9698 16.4385 76.0581 16.4385C76.5433 16.4385 76.9845 16.4385 77.4698 16.4385C77.558 16.4385 77.6904 16.4385 77.7786 16.4385C77.8669 16.3944 77.911 16.4385 77.9551 16.4385C79.6315 16.3944 81.4845 16.7914 82.3668 18.3796C83.2492 19.9237 82.5874 22.0414 81.8374 23.5414C81.1315 24.8649 80.0286 25.9678 78.7492 26.7619C80.558 29.8501 82.4992 32.8501 84.5286 35.7618ZM77.1169 18.7326C77.0727 18.8208 77.1169 18.909 77.1169 18.9973C77.1169 18.9973 77.1169 18.9973 77.0727 19.0414C77.161 21.0708 77.2492 23.1002 77.3375 25.1737C77.4257 25.1296 77.558 25.1737 77.6463 25.2178C79.1021 24.3355 80.2051 23.0119 80.6904 21.3796C80.9551 20.3649 81.0874 19.262 80.0286 18.6885C79.4992 18.3796 78.8816 18.3355 78.308 18.3355C78.0875 18.3355 77.7786 18.3796 77.558 18.3355C77.5139 18.3796 77.4698 18.3796 77.4257 18.3796C77.4257 18.3796 77.4257 18.3796 77.4257 18.4238C77.3375 18.4238 77.2933 18.4679 77.2051 18.5561C77.2051 18.5561 77.2051 18.5561 77.161 18.6002C77.161 18.6002 77.161 18.6002 77.161 18.6443C77.1169 18.6885 77.1169 18.6885 77.1169 18.7326Z" fill="white"/>
<path d="M108.675 35.1442C109.778 34.3501 110.837 36.1589 109.734 36.953C107.793 38.2765 105.366 39.1147 103.072 38.2765C100.822 37.4383 99.8959 35.4971 99.4988 33.2471C98.6606 28.4384 98.0871 23.5855 97.6018 18.7326C96.4988 18.909 95.8371 17.3649 96.8518 16.7914C96.9841 16.7032 97.1165 16.6591 97.2488 16.6149C97.293 16.6149 97.3371 16.6149 97.3812 16.6149C98.0871 16.4385 98.7929 16.3061 99.4547 16.1297C100.161 15.9973 100.822 15.9091 101.528 15.865C102.234 15.865 102.94 15.865 103.646 15.865C104.793 15.9091 105.102 17.6738 103.911 17.9385C103.822 17.9826 103.734 17.9826 103.646 17.9826C103.558 17.9826 103.513 17.9826 103.469 17.9826C103.425 17.9826 103.381 17.9826 103.293 17.9826C102.808 17.9826 102.278 17.9826 101.749 17.9826C101.087 17.9826 100.425 18.0708 99.7635 18.2032C99.7194 18.2032 99.6753 18.2473 99.6753 18.2473C99.8518 20.1884 100.072 22.1296 100.293 24.0266C100.425 24.0708 100.514 24.1149 100.602 24.159C100.646 24.2031 100.69 24.2031 100.734 24.2031C100.778 24.2472 100.866 24.2913 100.911 24.3355C101.087 24.2913 101.308 24.2472 101.396 24.2472C101.837 24.159 102.234 24.1149 102.631 24.0266C103.469 23.8943 104.308 23.7619 105.102 23.6296C106.469 23.409 106.999 25.4384 105.675 25.659C104.528 25.8354 103.337 26.056 102.19 26.2325C101.661 26.3207 101.131 26.4531 100.602 26.4972C100.778 27.7766 100.999 29.056 101.175 30.2913C101.44 32.1001 101.44 34.8795 103.161 35.9824C104.969 37.1295 107.087 36.203 108.675 35.1442Z" fill="white"/>
<path d="M154.99 24.909C155.078 28.7031 153.711 32.806 150.534 35.0118C147.622 37.0412 143.299 36.9089 141.005 34.0413C138.667 31.1295 138.711 26.409 139.902 23.0561C141.049 19.9237 143.608 17.2767 146.917 16.7914C147.093 16.7032 147.314 16.7032 147.49 16.7473C147.755 16.7473 148.019 16.7032 148.284 16.7473C148.549 16.7473 148.769 16.8355 148.902 17.012C148.946 17.012 148.946 17.012 148.99 17.012C149.475 17.0561 149.961 17.1885 150.402 17.3649C151.328 17.7179 152.167 18.2914 152.828 18.9973C154.328 20.6296 154.946 22.7914 154.99 24.909ZM150.887 32.1442C152.828 29.806 153.534 26.2325 152.917 23.3208C152.608 21.7767 151.814 20.3649 150.49 19.5267C149.872 19.1296 149.167 18.8649 148.372 18.8649C147.799 18.8649 147.358 18.9532 146.828 18.7326C143.828 19.3502 141.887 22.2178 141.314 25.2178C140.74 27.909 140.828 31.8354 143.255 33.6442C145.681 35.4089 149.122 34.2618 150.887 32.1442Z" fill="white"/>
<path d="M244.771 42.6882C245.565 41.5853 247.374 42.6441 246.579 43.747C242.741 49.3058 236.565 52.6587 229.991 53.9381C219.403 55.9675 207.889 54.3793 198.315 49.3058C190.595 45.2029 183.933 38.2324 183.139 29.2766C183.051 28.6148 183.007 27.9531 183.007 27.2913C183.007 24.2472 183.712 21.0708 185.698 18.7326C187.506 16.5267 190.33 15.3355 193.153 15.8208C194.477 16.0414 193.948 18.0708 192.58 17.8502C189.536 17.3649 186.977 19.7473 185.918 22.3943C185.345 23.9384 185.036 25.7472 185.08 27.4678C185.124 27.6001 185.168 27.7766 185.168 27.9531C185.257 32.6736 187.198 37.0412 190.33 40.5706C196.33 47.3647 205.55 51.0705 214.374 52.2617C224.962 53.7175 238.197 52.1734 244.771 42.6882Z" fill="white"/>
<path d="M215.675 35.4971C215.896 36.6883 214.087 37.1736 213.822 35.9824C213.205 32.806 212.543 29.5854 211.881 26.3649C211.793 25.9237 211.705 25.5266 211.617 25.0855C210.47 25.1737 209.278 25.2619 208.087 25.3502C206.896 29.0119 205.837 32.6736 204.911 36.3795C204.602 37.5706 202.749 37.0853 203.058 35.8942C204.823 29.1001 206.94 22.4384 209.411 15.865C209.764 14.9385 211.175 15.115 211.308 15.9091C212.146 16.6149 212.146 18.159 212.367 19.1296C212.719 20.8943 213.072 22.659 213.425 24.4237C214.175 28.1295 214.925 31.7913 215.675 35.4971ZM208.749 23.409C209.587 23.3649 210.425 23.2766 211.264 23.2325L210.955 21.6443C210.778 20.8502 210.602 20.012 210.425 19.2179C210.425 19.0414 210.381 18.909 210.337 18.7767C209.808 20.3208 209.234 21.8649 208.749 23.409Z" fill="white"/>
<path d="M231.453 27.8207C232.732 29.1884 233.306 30.953 232.688 32.7619C232.115 34.3942 230.747 35.7177 229.026 36.0265C227.835 36.2471 227.306 34.4383 228.541 34.2177C230.791 33.8207 231.762 31.1736 230.306 29.4089C229.556 28.4825 228.541 27.8207 227.703 26.9825C226.909 26.1884 226.291 25.2619 225.938 24.2031C225.144 21.9531 225.629 19.3943 227.173 17.5855C227.791 16.8355 228.806 15.865 229.776 15.6885C230.615 15.5561 231.585 16.0414 231.497 16.9679C231.365 17.8502 230.394 18.0708 229.865 17.7179C229.82 17.762 229.776 17.8061 229.688 17.8061C229.6 17.8943 229.468 17.9826 229.379 18.0267C229.159 18.2032 228.982 18.3796 228.806 18.5561C228.453 18.9532 228.144 19.3943 227.923 19.8796C227.438 20.9384 227.35 22.1296 227.615 23.2325C228.188 25.3502 230.085 26.3207 231.453 27.8207Z" fill="white"/>
<path d="M256.379 35.4971C256.599 36.6883 254.79 37.1736 254.526 35.9824C253.908 32.806 253.246 29.5854 252.585 26.3649C252.496 25.9237 252.408 25.5266 252.32 25.0855C251.173 25.1737 249.982 25.2619 248.79 25.3502C247.599 29.0119 246.54 32.6736 245.614 36.3795C245.305 37.5706 243.452 37.0853 243.761 35.8942C245.526 29.1001 247.643 22.4384 250.114 15.865C250.467 14.9385 251.879 15.115 252.011 15.9091C252.849 16.6149 252.849 18.159 253.07 19.1296C253.423 20.8943 253.776 22.659 254.129 24.4237C254.879 28.1295 255.629 31.7913 256.379 35.4971ZM249.452 23.409C250.29 23.3649 251.129 23.2766 251.967 23.2325L251.658 21.6443C251.482 20.8502 251.305 20.012 251.129 19.2179C251.129 19.0414 251.085 18.909 251.04 18.7767C250.511 20.3208 249.938 21.8649 249.452 23.409Z" fill="white"/>
<path d="M284.996 16.5267C285.217 23.5855 285.481 30.6883 285.79 37.7471C285.878 38.8059 284.202 39.0265 283.937 38.0118C283.893 37.7471 283.849 37.4824 283.761 37.2618C283.717 36.9971 283.761 36.7765 283.849 36.6001C283.628 31.1736 283.408 25.7472 283.231 20.3208V20.3649C283.187 20.409 283.187 20.409 283.143 20.4531C282.217 21.7325 281.334 23.0561 280.496 24.3796C280.496 24.4678 280.452 24.556 280.408 24.6443C278.996 26.9384 277.805 29.3648 276.79 31.9236C276.525 32.5413 275.908 32.6736 275.422 32.4972C275.07 32.4972 274.717 32.2766 274.54 31.8354C273.349 28.5266 271.981 25.2619 270.437 22.0855C270.79 26.3649 270.923 30.6001 270.878 34.8795C270.967 35.056 271.011 35.2765 270.967 35.4971C270.923 35.8059 270.878 36.1148 270.834 36.4236C270.658 37.4824 268.937 37.2177 268.981 36.1589C269.07 29.7178 268.761 23.3208 268.055 16.9238C267.878 15.7326 269.82 15.7326 269.952 16.9238V16.9679C272.158 21.0267 274.055 25.2619 275.731 29.5854C276.349 28.1737 276.967 26.7619 277.717 25.4384C279.217 22.0855 281.202 18.8649 283.143 15.7326C283.143 15.6885 283.187 15.6444 283.187 15.6002C283.452 14.4091 285.305 14.9385 284.996 16.1297C284.996 16.1738 284.996 16.2179 284.952 16.262C284.996 16.3502 284.996 16.4385 284.996 16.5267Z" fill="white"/>
<path d="M309.827 35.1442C310.93 34.3501 311.989 36.1589 310.886 36.953C308.945 38.2765 306.519 39.1147 304.225 38.2765C301.975 37.4383 301.048 35.4971 300.651 33.2471C299.813 28.4384 299.239 23.5855 298.754 18.7326C297.651 18.909 296.989 17.3649 298.004 16.7914C298.136 16.7032 298.269 16.6591 298.401 16.6149C298.445 16.6149 298.489 16.6149 298.533 16.6149C299.239 16.4385 299.945 16.3061 300.607 16.1297C301.313 15.9973 301.975 15.9091 302.68 15.865C303.386 15.865 304.092 15.865 304.798 15.865C305.945 15.9091 306.254 17.6738 305.063 17.9385C304.975 17.9826 304.886 17.9826 304.798 17.9826C304.71 17.9826 304.666 17.9826 304.622 17.9826C304.577 17.9826 304.533 17.9826 304.445 17.9826C303.96 17.9826 303.43 17.9826 302.901 17.9826C302.239 17.9826 301.577 18.0708 300.916 18.2032C300.872 18.2032 300.827 18.2473 300.827 18.2473C301.004 20.1884 301.225 22.1296 301.445 24.0266C301.577 24.0708 301.666 24.1149 301.754 24.159C301.798 24.2031 301.842 24.2031 301.886 24.2031C301.93 24.2472 302.019 24.2913 302.063 24.3355C302.239 24.2913 302.46 24.2472 302.548 24.2472C302.989 24.159 303.386 24.1149 303.783 24.0266C304.622 23.8943 305.46 23.7619 306.254 23.6296C307.622 23.409 308.151 25.4384 306.827 25.659C305.68 25.8354 304.489 26.056 303.342 26.2325C302.813 26.3207 302.283 26.4531 301.754 26.4972C301.93 27.7766 302.151 29.056 302.327 30.2913C302.592 32.1001 302.592 34.8795 304.313 35.9824C306.122 37.1295 308.239 36.203 309.827 35.1442Z" fill="white"/>
<path d="M334.136 36.2912C334.136 36.3354 334.136 36.3354 334.136 36.3795C334.18 36.9971 334.048 37.5265 333.519 37.703C332.857 37.8795 332.195 37.3942 331.754 36.9089C331.666 36.8206 331.578 36.7765 331.489 36.6442C329.504 34.1295 327.916 31.3942 326.725 28.3942C326.239 27.159 325.798 25.8796 325.401 24.6002C325.578 28.659 325.754 32.7177 325.886 36.8206C325.93 38.1 324.122 37.9677 323.989 36.8206C323.989 36.6442 323.945 36.5118 323.945 36.3354C323.901 36.203 323.901 36.0706 323.945 35.9383C323.769 29.5413 323.46 23.1002 323.019 16.7032C322.931 15.6002 324.519 15.512 324.828 16.4385C324.872 16.4826 324.916 16.5708 324.916 16.6591C324.96 16.9679 325.048 17.2767 325.092 17.6296C325.136 17.6738 325.136 17.762 325.181 17.8502C327.078 23.5855 328.666 29.5854 332.283 34.5707C331.666 28.6148 331.357 22.659 331.313 16.7032C331.313 15.512 333.21 15.512 333.21 16.7032C333.254 22.6149 333.563 28.5266 334.136 34.3942C334.136 34.4383 334.136 34.4824 334.136 34.5265V34.8354C334.136 34.8795 334.136 34.9236 334.136 34.9236C334.092 35.3648 334.136 35.8501 334.136 36.2912Z" fill="white"/>
<path d="M355.554 14.9385C356.789 14.8503 356.789 16.7914 355.554 16.8355C354.274 16.9238 352.951 17.012 351.627 17.1002C352.245 23.2766 352.509 29.5413 352.465 35.7618C352.465 36.9971 350.701 36.953 350.568 35.7618L350.524 35.056C350.48 34.8795 350.524 34.703 350.568 34.5707C350.568 28.7913 350.304 22.9678 349.774 17.1885C348.76 17.2767 347.745 17.3208 346.73 17.4091C345.495 17.4532 345.539 15.5561 346.73 15.512C349.686 15.3355 352.598 15.115 355.554 14.9385Z" fill="white"/>
<path d="M380.996 24.909C381.084 28.7031 379.717 32.806 376.54 35.0118C373.628 37.0412 369.305 36.9089 367.011 34.0413C364.673 31.1295 364.717 26.409 365.908 23.0561C367.055 19.9237 369.614 17.2767 372.923 16.7914C373.099 16.7032 373.32 16.7032 373.496 16.7473C373.761 16.7473 374.026 16.7032 374.29 16.7473C374.555 16.7473 374.776 16.8355 374.908 17.012C374.952 17.012 374.952 17.012 374.996 17.012C375.481 17.0561 375.967 17.1885 376.408 17.3649C377.334 17.7179 378.173 18.2914 378.834 18.9973C380.334 20.6296 380.952 22.7914 380.996 24.909ZM376.893 32.1442C378.834 29.806 379.54 26.2325 378.923 23.3208C378.614 21.7767 377.82 20.3649 376.496 19.5267C375.878 19.1296 375.173 18.8649 374.378 18.8649C373.805 18.8649 373.364 18.9532 372.834 18.7326C369.834 19.3502 367.893 22.2178 367.32 25.2178C366.746 27.909 366.834 31.8354 369.261 33.6442C371.687 35.4089 375.128 34.2618 376.893 32.1442Z" fill="white"/>
<path d="M15.0973 27.8207C16.3767 29.1884 16.9503 30.953 16.3326 32.7619C15.7591 34.3942 14.3915 35.7177 12.6709 36.0265C11.4797 36.2471 10.9503 34.4383 12.1856 34.2177C14.4356 33.8207 15.4062 31.1736 13.9503 29.4089C13.2003 28.4825 12.1856 27.8207 11.3474 26.9825C10.5533 26.1884 9.93563 25.2619 9.58269 24.2031C8.78858 21.9531 9.27387 19.3943 10.818 17.5855C11.4356 16.8355 12.4503 15.865 13.4209 15.6885C14.2591 15.5561 15.2297 16.0414 15.1415 16.9679C15.0091 17.8502 14.0385 18.0708 13.5091 17.7179C13.465 17.762 13.4209 17.8061 13.3327 17.8061C13.2444 17.8943 13.1121 17.9826 13.0238 18.0267C12.8033 18.2032 12.6268 18.3796 12.4503 18.5561C12.0974 18.9532 11.7886 19.3943 11.568 19.8796C11.0827 20.9384 10.9944 22.1296 11.2591 23.2325C11.8327 25.3502 13.7297 26.3207 15.0973 27.8207Z" stroke="white" stroke-width="0.83187" mask="url(#path-1-outside-1_318_454)"/>
<path d="M42.8702 24.909C42.9584 28.7031 41.5908 32.806 38.4143 35.0118C35.5026 37.0412 31.1791 36.9089 28.885 34.0413C26.5468 31.1295 26.5909 26.409 27.7821 23.0561C28.9291 19.9237 31.4879 17.2767 34.7967 16.7914C34.9732 16.7032 35.1938 16.7032 35.3703 16.7473C35.635 16.7473 35.8997 16.7032 36.1644 16.7473C36.4291 16.7473 36.6497 16.8355 36.782 17.012C36.8261 17.012 36.8261 17.012 36.8702 17.012C37.3555 17.0561 37.8408 17.1885 38.282 17.3649C39.2085 17.7179 40.0467 18.2914 40.7084 18.9973C42.2084 20.6296 42.8261 22.7914 42.8702 24.909ZM38.7673 32.1442C40.7084 29.806 41.4143 26.2325 40.7967 23.3208C40.4879 21.7767 39.6937 20.3649 38.3702 19.5267C37.7526 19.1296 37.0467 18.8649 36.2526 18.8649C35.6791 18.8649 35.2379 18.9532 34.7085 18.7326C31.7085 19.3502 29.7674 22.2178 29.1938 25.2178C28.6203 27.909 28.7085 31.8354 31.135 33.6442C33.5614 35.4089 37.0026 34.2618 38.7673 32.1442Z" stroke="white" stroke-width="0.83187" mask="url(#path-1-outside-1_318_454)"/>
<path d="M60.5278 22.3502C61.5866 22.9678 62.4689 24.3355 62.9101 25.2178C63.7483 26.8501 64.1013 28.659 63.8366 30.4678C63.263 34.2618 60.0425 37.0412 56.3808 37.5265C56.2484 37.5265 56.1161 37.5265 56.0278 37.4824C55.8513 37.5706 55.6749 37.5706 55.5425 37.4824C55.5425 37.4383 55.4984 37.4383 55.4984 37.4383C55.3219 37.3942 55.1896 37.35 55.1014 37.1736L55.0572 37.1295C55.0131 37.0853 55.0131 37.0412 54.969 36.953C54.969 36.953 54.969 36.9089 54.969 36.8648C54.9249 36.8206 54.9249 36.7765 54.9249 36.7765C54.8366 36.6442 54.7925 36.5559 54.7925 36.3795C54.7484 36.203 54.7043 35.9824 54.7043 35.8059C54.6602 35.6295 54.6602 35.453 54.7043 35.3207C54.4837 29.2325 54.2631 23.1443 54.0425 17.0561C53.9984 16.9238 53.9984 16.7473 53.9984 16.6149C53.9102 16.3944 53.8661 16.1297 53.9543 15.9532C53.9543 15.9091 53.9543 15.9091 53.9543 15.865C53.9984 15.8208 53.9984 15.7326 54.0425 15.6885C54.0867 15.2914 54.4396 14.9826 54.9249 14.8061C55.0131 14.8061 55.0572 14.8061 55.1455 14.8061C55.2337 14.8061 55.3219 14.8061 55.4102 14.8061C55.4543 14.8061 55.4984 14.8061 55.4984 14.8503C55.6749 14.8944 55.6308 14.8944 55.5866 14.8503C55.6308 14.8503 55.6308 14.8944 55.6749 14.8944C55.7631 14.9385 55.8513 14.9826 55.8955 15.0267C55.9396 15.0708 55.9837 15.0708 56.0278 15.115C56.0278 15.7326 56.116 16.3502 56.1602 16.9679H56.1161C56.2043 18.7767 56.2484 20.5855 56.3366 22.3943C56.3808 22.3943 56.469 22.3502 56.5131 22.3502C58.8072 20.409 61.0131 18.159 62.116 15.3355C63.3954 12.115 63.0425 8.62972 60.5278 6.20327C58.3219 4.08565 55.3219 3.2033 52.3661 2.98272C49.7632 2.76213 47.072 2.80625 44.5132 3.24742C40.3221 3.9533 36.2633 5.45328 32.2045 6.82092C27.7045 8.36502 23.1605 9.73266 18.3958 10.3062C12.7929 10.9679 7.14591 10.3503 1.71949 8.76208C0.440089 8.40914 1.01361 6.37974 2.29302 6.7768C8.73413 8.67384 15.3517 8.98266 21.9252 7.61503C31.2339 5.71799 39.7927 0.820972 49.4102 0.776855C55.2778 0.776855 62.3807 2.36508 64.4983 8.67384C66.0865 13.4826 63.7042 17.8943 60.4837 21.4237C60.3072 21.6443 60.1307 21.8649 59.9542 22.0855C60.0425 22.1296 60.1307 22.1296 60.1748 22.1737H60.219C60.2631 22.262 60.3072 22.3061 60.4395 22.3061C60.4395 22.3061 60.4837 22.3502 60.5278 22.3502ZM61.8954 30.556C62.3366 28.5266 61.6307 25.7472 59.9542 24.2913C58.719 23.6737 56.8219 24.4678 56.469 25.8354C56.469 25.8796 56.469 25.8796 56.469 25.8796C56.6013 28.9678 56.6896 32.056 56.8219 35.1001C56.8219 35.1001 56.866 35.056 56.9102 35.056C56.8219 35.3207 57.1749 35.4971 57.3513 35.3207C57.3072 35.3648 57.3072 35.4089 57.3072 35.4089C59.5572 34.7471 61.366 32.8501 61.8954 30.556Z" stroke="white" stroke-width="0.83187" mask="url(#path-1-outside-1_318_454)"/>
<path d="M84.5286 35.7618C85.1021 36.5559 83.8227 37.4824 83.2051 36.7765C83.1609 36.6883 83.0727 36.6442 83.0286 36.5559C82.9845 36.5118 82.9403 36.4236 82.8962 36.3354C80.9992 33.6442 79.2345 30.8648 77.558 28.0413C77.5139 28.7472 77.5139 29.9825 77.4698 29.9384C77.5139 31.9677 77.558 34.0413 77.558 36.0706C77.6022 37.3059 75.7051 37.2618 75.661 36.0706C75.661 35.8059 75.661 35.5412 75.661 35.2765C75.661 35.1883 75.661 35.1001 75.661 35.056C75.5728 29.1442 75.3963 23.2766 75.1316 17.3649C75.0875 17.1002 75.1757 16.8796 75.3081 16.7473C75.3963 16.6149 75.5287 16.4826 75.7492 16.4826C75.7934 16.4826 75.8375 16.4826 75.8375 16.4826C75.9257 16.4385 75.9698 16.4385 76.0581 16.4385C76.5433 16.4385 76.9845 16.4385 77.4698 16.4385C77.558 16.4385 77.6904 16.4385 77.7786 16.4385C77.8669 16.3944 77.911 16.4385 77.9551 16.4385C79.6315 16.3944 81.4845 16.7914 82.3668 18.3796C83.2492 19.9237 82.5874 22.0414 81.8374 23.5414C81.1315 24.8649 80.0286 25.9678 78.7492 26.7619C80.558 29.8501 82.4992 32.8501 84.5286 35.7618ZM77.1169 18.7326C77.0727 18.8208 77.1169 18.909 77.1169 18.9973C77.1169 18.9973 77.1169 18.9973 77.0727 19.0414C77.161 21.0708 77.2492 23.1002 77.3375 25.1737C77.4257 25.1296 77.558 25.1737 77.6463 25.2178C79.1021 24.3355 80.2051 23.0119 80.6904 21.3796C80.9551 20.3649 81.0874 19.262 80.0286 18.6885C79.4992 18.3796 78.8816 18.3355 78.308 18.3355C78.0875 18.3355 77.7786 18.3796 77.558 18.3355C77.5139 18.3796 77.4698 18.3796 77.4257 18.3796C77.4257 18.3796 77.4257 18.3796 77.4257 18.4238C77.3375 18.4238 77.2933 18.4679 77.2051 18.5561C77.2051 18.5561 77.2051 18.5561 77.161 18.6002C77.161 18.6002 77.161 18.6002 77.161 18.6443C77.1169 18.6885 77.1169 18.6885 77.1169 18.7326Z" stroke="white" stroke-width="0.83187" mask="url(#path-1-outside-1_318_454)"/>
<path d="M108.675 35.1442C109.778 34.3501 110.837 36.1589 109.734 36.953C107.793 38.2765 105.366 39.1147 103.072 38.2765C100.822 37.4383 99.8959 35.4971 99.4988 33.2471C98.6606 28.4384 98.0871 23.5855 97.6018 18.7326C96.4988 18.909 95.8371 17.3649 96.8518 16.7914C96.9841 16.7032 97.1165 16.6591 97.2488 16.6149C97.293 16.6149 97.3371 16.6149 97.3812 16.6149C98.0871 16.4385 98.7929 16.3061 99.4547 16.1297C100.161 15.9973 100.822 15.9091 101.528 15.865C102.234 15.865 102.94 15.865 103.646 15.865C104.793 15.9091 105.102 17.6738 103.911 17.9385C103.822 17.9826 103.734 17.9826 103.646 17.9826C103.558 17.9826 103.513 17.9826 103.469 17.9826C103.425 17.9826 103.381 17.9826 103.293 17.9826C102.808 17.9826 102.278 17.9826 101.749 17.9826C101.087 17.9826 100.425 18.0708 99.7635 18.2032C99.7194 18.2032 99.6753 18.2473 99.6753 18.2473C99.8518 20.1884 100.072 22.1296 100.293 24.0266C100.425 24.0708 100.514 24.1149 100.602 24.159C100.646 24.2031 100.69 24.2031 100.734 24.2031C100.778 24.2472 100.866 24.2913 100.911 24.3355C101.087 24.2913 101.308 24.2472 101.396 24.2472C101.837 24.159 102.234 24.1149 102.631 24.0266C103.469 23.8943 104.308 23.7619 105.102 23.6296C106.469 23.409 106.999 25.4384 105.675 25.659C104.528 25.8354 103.337 26.056 102.19 26.2325C101.661 26.3207 101.131 26.4531 100.602 26.4972C100.778 27.7766 100.999 29.056 101.175 30.2913C101.44 32.1001 101.44 34.8795 103.161 35.9824C104.969 37.1295 107.087 36.203 108.675 35.1442Z" stroke="white" stroke-width="0.83187" mask="url(#path-1-outside-1_318_454)"/>
<path d="M154.99 24.909C155.078 28.7031 153.711 32.806 150.534 35.0118C147.622 37.0412 143.299 36.9089 141.005 34.0413C138.667 31.1295 138.711 26.409 139.902 23.0561C141.049 19.9237 143.608 17.2767 146.917 16.7914C147.093 16.7032 147.314 16.7032 147.49 16.7473C147.755 16.7473 148.019 16.7032 148.284 16.7473C148.549 16.7473 148.769 16.8355 148.902 17.012C148.946 17.012 148.946 17.012 148.99 17.012C149.475 17.0561 149.961 17.1885 150.402 17.3649C151.328 17.7179 152.167 18.2914 152.828 18.9973C154.328 20.6296 154.946 22.7914 154.99 24.909ZM150.887 32.1442C152.828 29.806 153.534 26.2325 152.917 23.3208C152.608 21.7767 151.814 20.3649 150.49 19.5267C149.872 19.1296 149.167 18.8649 148.372 18.8649C147.799 18.8649 147.358 18.9532 146.828 18.7326C143.828 19.3502 141.887 22.2178 141.314 25.2178C140.74 27.909 140.828 31.8354 143.255 33.6442C145.681 35.4089 149.122 34.2618 150.887 32.1442Z" stroke="white" stroke-width="0.83187" mask="url(#path-1-outside-1_318_454)"/>
<path d="M244.771 42.6882C245.565 41.5853 247.374 42.6441 246.579 43.747C242.741 49.3058 236.565 52.6587 229.991 53.9381C219.403 55.9675 207.889 54.3793 198.315 49.3058C190.595 45.2029 183.933 38.2324 183.139 29.2766C183.051 28.6148 183.007 27.9531 183.007 27.2913C183.007 24.2472 183.712 21.0708 185.698 18.7326C187.506 16.5267 190.33 15.3355 193.153 15.8208C194.477 16.0414 193.948 18.0708 192.58 17.8502C189.536 17.3649 186.977 19.7473 185.918 22.3943C185.345 23.9384 185.036 25.7472 185.08 27.4678C185.124 27.6001 185.168 27.7766 185.168 27.9531C185.257 32.6736 187.198 37.0412 190.33 40.5706C196.33 47.3647 205.55 51.0705 214.374 52.2617C224.962 53.7175 238.197 52.1734 244.771 42.6882Z" stroke="white" stroke-width="0.83187" mask="url(#path-1-outside-1_318_454)"/>
<path d="M215.675 35.4971C215.896 36.6883 214.087 37.1736 213.822 35.9824C213.205 32.806 212.543 29.5854 211.881 26.3649C211.793 25.9237 211.705 25.5266 211.617 25.0855C210.47 25.1737 209.278 25.2619 208.087 25.3502C206.896 29.0119 205.837 32.6736 204.911 36.3795C204.602 37.5706 202.749 37.0853 203.058 35.8942C204.823 29.1001 206.94 22.4384 209.411 15.865C209.764 14.9385 211.175 15.115 211.308 15.9091C212.146 16.6149 212.146 18.159 212.367 19.1296C212.719 20.8943 213.072 22.659 213.425 24.4237C214.175 28.1295 214.925 31.7913 215.675 35.4971ZM208.749 23.409C209.587 23.3649 210.425 23.2766 211.264 23.2325L210.955 21.6443C210.778 20.8502 210.602 20.012 210.425 19.2179C210.425 19.0414 210.381 18.909 210.337 18.7767C209.808 20.3208 209.234 21.8649 208.749 23.409Z" stroke="white" stroke-width="0.83187" mask="url(#path-1-outside-1_318_454)"/>
<path d="M231.453 27.8207C232.732 29.1884 233.306 30.953 232.688 32.7619C232.115 34.3942 230.747 35.7177 229.026 36.0265C227.835 36.2471 227.306 34.4383 228.541 34.2177C230.791 33.8207 231.762 31.1736 230.306 29.4089C229.556 28.4825 228.541 27.8207 227.703 26.9825C226.909 26.1884 226.291 25.2619 225.938 24.2031C225.144 21.9531 225.629 19.3943 227.173 17.5855C227.791 16.8355 228.806 15.865 229.776 15.6885C230.615 15.5561 231.585 16.0414 231.497 16.9679C231.365 17.8502 230.394 18.0708 229.865 17.7179C229.82 17.762 229.776 17.8061 229.688 17.8061C229.6 17.8943 229.468 17.9826 229.379 18.0267C229.159 18.2032 228.982 18.3796 228.806 18.5561C228.453 18.9532 228.144 19.3943 227.923 19.8796C227.438 20.9384 227.35 22.1296 227.615 23.2325C228.188 25.3502 230.085 26.3207 231.453 27.8207Z" stroke="white" stroke-width="0.83187" mask="url(#path-1-outside-1_318_454)"/>
<path d="M256.379 35.4971C256.599 36.6883 254.79 37.1736 254.526 35.9824C253.908 32.806 253.246 29.5854 252.585 26.3649C252.496 25.9237 252.408 25.5266 252.32 25.0855C251.173 25.1737 249.982 25.2619 248.79 25.3502C247.599 29.0119 246.54 32.6736 245.614 36.3795C245.305 37.5706 243.452 37.0853 243.761 35.8942C245.526 29.1001 247.643 22.4384 250.114 15.865C250.467 14.9385 251.879 15.115 252.011 15.9091C252.849 16.6149 252.849 18.159 253.07 19.1296C253.423 20.8943 253.776 22.659 254.129 24.4237C254.879 28.1295 255.629 31.7913 256.379 35.4971ZM249.452 23.409C250.29 23.3649 251.129 23.2766 251.967 23.2325L251.658 21.6443C251.482 20.8502 251.305 20.012 251.129 19.2179C251.129 19.0414 251.085 18.909 251.04 18.7767C250.511 20.3208 249.938 21.8649 249.452 23.409Z" stroke="white" stroke-width="0.83187" mask="url(#path-1-outside-1_318_454)"/>
<path d="M284.996 16.5267C285.217 23.5855 285.481 30.6883 285.79 37.7471C285.878 38.8059 284.202 39.0265 283.937 38.0118C283.893 37.7471 283.849 37.4824 283.761 37.2618C283.717 36.9971 283.761 36.7765 283.849 36.6001C283.628 31.1736 283.408 25.7472 283.231 20.3208V20.3649C283.187 20.409 283.187 20.409 283.143 20.4531C282.217 21.7325 281.334 23.0561 280.496 24.3796C280.496 24.4678 280.452 24.556 280.408 24.6443C278.996 26.9384 277.805 29.3648 276.79 31.9236C276.525 32.5413 275.908 32.6736 275.422 32.4972C275.07 32.4972 274.717 32.2766 274.54 31.8354C273.349 28.5266 271.981 25.2619 270.437 22.0855C270.79 26.3649 270.923 30.6001 270.878 34.8795C270.967 35.056 271.011 35.2765 270.967 35.4971C270.923 35.8059 270.878 36.1148 270.834 36.4236C270.658 37.4824 268.937 37.2177 268.981 36.1589C269.07 29.7178 268.761 23.3208 268.055 16.9238C267.878 15.7326 269.82 15.7326 269.952 16.9238V16.9679C272.158 21.0267 274.055 25.2619 275.731 29.5854C276.349 28.1737 276.967 26.7619 277.717 25.4384C279.217 22.0855 281.202 18.8649 283.143 15.7326C283.143 15.6885 283.187 15.6444 283.187 15.6002C283.452 14.4091 285.305 14.9385 284.996 16.1297C284.996 16.1738 284.996 16.2179 284.952 16.262C284.996 16.3502 284.996 16.4385 284.996 16.5267Z" stroke="white" stroke-width="0.83187" mask="url(#path-1-outside-1_318_454)"/>
<path d="M309.827 35.1442C310.93 34.3501 311.989 36.1589 310.886 36.953C308.945 38.2765 306.519 39.1147 304.225 38.2765C301.975 37.4383 301.048 35.4971 300.651 33.2471C299.813 28.4384 299.239 23.5855 298.754 18.7326C297.651 18.909 296.989 17.3649 298.004 16.7914C298.136 16.7032 298.269 16.6591 298.401 16.6149C298.445 16.6149 298.489 16.6149 298.533 16.6149C299.239 16.4385 299.945 16.3061 300.607 16.1297C301.313 15.9973 301.975 15.9091 302.68 15.865C303.386 15.865 304.092 15.865 304.798 15.865C305.945 15.9091 306.254 17.6738 305.063 17.9385C304.975 17.9826 304.886 17.9826 304.798 17.9826C304.71 17.9826 304.666 17.9826 304.622 17.9826C304.577 17.9826 304.533 17.9826 304.445 17.9826C303.96 17.9826 303.43 17.9826 302.901 17.9826C302.239 17.9826 301.577 18.0708 300.916 18.2032C300.872 18.2032 300.827 18.2473 300.827 18.2473C301.004 20.1884 301.225 22.1296 301.445 24.0266C301.577 24.0708 301.666 24.1149 301.754 24.159C301.798 24.2031 301.842 24.2031 301.886 24.2031C301.93 24.2472 302.019 24.2913 302.063 24.3355C302.239 24.2913 302.46 24.2472 302.548 24.2472C302.989 24.159 303.386 24.1149 303.783 24.0266C304.622 23.8943 305.46 23.7619 306.254 23.6296C307.622 23.409 308.151 25.4384 306.827 25.659C305.68 25.8354 304.489 26.056 303.342 26.2325C302.813 26.3207 302.283 26.4531 301.754 26.4972C301.93 27.7766 302.151 29.056 302.327 30.2913C302.592 32.1001 302.592 34.8795 304.313 35.9824C306.122 37.1295 308.239 36.203 309.827 35.1442Z" stroke="white" stroke-width="0.83187" mask="url(#path-1-outside-1_318_454)"/>
<path d="M334.136 36.2912C334.136 36.3354 334.136 36.3354 334.136 36.3795C334.18 36.9971 334.048 37.5265 333.519 37.703C332.857 37.8795 332.195 37.3942 331.754 36.9089C331.666 36.8206 331.578 36.7765 331.489 36.6442C329.504 34.1295 327.916 31.3942 326.725 28.3942C326.239 27.159 325.798 25.8796 325.401 24.6002C325.578 28.659 325.754 32.7177 325.886 36.8206C325.93 38.1 324.122 37.9677 323.989 36.8206C323.989 36.6442 323.945 36.5118 323.945 36.3354C323.901 36.203 323.901 36.0706 323.945 35.9383C323.769 29.5413 323.46 23.1002 323.019 16.7032C322.931 15.6002 324.519 15.512 324.828 16.4385C324.872 16.4826 324.916 16.5708 324.916 16.6591C324.96 16.9679 325.048 17.2767 325.092 17.6296C325.136 17.6738 325.136 17.762 325.181 17.8502C327.078 23.5855 328.666 29.5854 332.283 34.5707C331.666 28.6148 331.357 22.659 331.313 16.7032C331.313 15.512 333.21 15.512 333.21 16.7032C333.254 22.6149 333.563 28.5266 334.136 34.3942C334.136 34.4383 334.136 34.4824 334.136 34.5265V34.8354C334.136 34.8795 334.136 34.9236 334.136 34.9236C334.092 35.3648 334.136 35.8501 334.136 36.2912Z" stroke="white" stroke-width="0.83187" mask="url(#path-1-outside-1_318_454)"/>
<path d="M355.554 14.9385C356.789 14.8503 356.789 16.7914 355.554 16.8355C354.274 16.9238 352.951 17.012 351.627 17.1002C352.245 23.2766 352.509 29.5413 352.465 35.7618C352.465 36.9971 350.701 36.953 350.568 35.7618L350.524 35.056C350.48 34.8795 350.524 34.703 350.568 34.5707C350.568 28.7913 350.304 22.9678 349.774 17.1885C348.76 17.2767 347.745 17.3208 346.73 17.4091C345.495 17.4532 345.539 15.5561 346.73 15.512C349.686 15.3355 352.598 15.115 355.554 14.9385Z" stroke="white" stroke-width="0.83187" mask="url(#path-1-outside-1_318_454)"/>
<path d="M380.996 24.909C381.084 28.7031 379.717 32.806 376.54 35.0118C373.628 37.0412 369.305 36.9089 367.011 34.0413C364.673 31.1295 364.717 26.409 365.908 23.0561C367.055 19.9237 369.614 17.2767 372.923 16.7914C373.099 16.7032 373.32 16.7032 373.496 16.7473C373.761 16.7473 374.026 16.7032 374.29 16.7473C374.555 16.7473 374.776 16.8355 374.908 17.012C374.952 17.012 374.952 17.012 374.996 17.012C375.481 17.0561 375.967 17.1885 376.408 17.3649C377.334 17.7179 378.173 18.2914 378.834 18.9973C380.334 20.6296 380.952 22.7914 380.996 24.909ZM376.893 32.1442C378.834 29.806 379.54 26.2325 378.923 23.3208C378.614 21.7767 377.82 20.3649 376.496 19.5267C375.878 19.1296 375.173 18.8649 374.378 18.8649C373.805 18.8649 373.364 18.9532 372.834 18.7326C369.834 19.3502 367.893 22.2178 367.32 25.2178C366.746 27.909 366.834 31.8354 369.261 33.6442C371.687 35.4089 375.128 34.2618 376.893 32.1442Z" stroke="white" stroke-width="0.83187" mask="url(#path-1-outside-1_318_454)"/>
</svg>
