<svg width="700" height="102" viewBox="0 0 700 102" fill="none" xmlns="http://www.w3.org/2000/svg">
<mask id="path-1-outside-1_314_556" maskUnits="userSpaceOnUse" x="0.312012" y="0.643066" width="700" height="101" fill="black">
<rect fill="white" x="0.312012" y="0.643066" width="700" height="101"/>
<path d="M27.1835 51.274C29.5314 53.7838 30.5839 57.0224 29.4504 60.3419C28.3979 63.3376 25.888 65.7665 22.7304 66.3333C20.5444 66.7381 19.5728 63.4186 21.8398 63.0137C25.969 62.2851 27.7502 57.4272 25.0784 54.1887C23.702 52.4884 21.8398 51.274 20.3015 49.7356C18.8442 48.2783 17.7107 46.5781 17.063 44.6349C15.6056 40.5058 16.4962 35.8098 19.33 32.4903C20.4635 31.1139 22.3256 29.3327 24.1068 29.0089C25.6451 28.766 27.4263 29.6566 27.2644 31.3568C27.0215 32.9761 25.2403 33.3809 24.2688 32.7332C24.1878 32.8142 24.1068 32.8951 23.9449 32.8951C23.783 33.0571 23.5401 33.219 23.3782 33.3C22.9733 33.6238 22.6495 33.9477 22.3256 34.2715C21.6779 35.0002 21.1112 35.8098 20.7063 36.7005C19.8157 38.6436 19.6538 40.8296 20.1396 42.8537C21.1921 46.74 24.6736 48.5212 27.1835 51.274Z"/>
<path d="M78.1522 45.9303C78.3141 52.8932 75.8042 60.4229 69.9748 64.4711C64.6312 68.1954 56.6967 67.9525 52.4866 62.6899C48.1955 57.3463 48.2765 48.6831 50.4625 42.5299C52.5676 36.7814 57.2635 31.9236 63.3358 31.033C63.6596 30.871 64.0644 30.871 64.3883 30.952C64.8741 30.952 65.3598 30.871 65.8456 30.952C66.3314 30.952 66.7362 31.1139 66.9791 31.4378C67.0601 31.4378 67.0601 31.4378 67.1411 31.4378C68.0317 31.5188 68.9223 31.7617 69.7319 32.0855C71.4321 32.7332 72.9705 33.7858 74.1849 35.0812C76.9377 38.0768 78.0712 42.0441 78.1522 45.9303ZM70.6225 59.2084C74.1849 54.9173 75.4803 48.3593 74.3468 43.0156C73.7801 40.1819 72.3227 37.5911 69.8938 36.0527C68.7603 35.3241 67.4649 34.8383 66.0076 34.8383C64.955 34.8383 64.1454 35.0002 63.1738 34.5954C57.6683 35.7289 54.1059 40.9915 53.0533 46.4971C52.0008 51.4359 52.1627 58.6417 56.6157 61.9612C61.0688 65.1998 67.3839 63.0947 70.6225 59.2084Z"/>
<path d="M110.557 41.2344C112.5 42.3679 114.12 44.8778 114.929 46.4971C116.468 49.4928 117.115 52.8123 116.63 56.1318C115.577 63.0947 109.667 68.1954 102.947 69.086C102.704 69.086 102.461 69.086 102.299 69.0051C101.975 69.167 101.651 69.167 101.408 69.0051C101.408 68.9241 101.327 68.9241 101.327 68.9241C101.004 68.8431 100.761 68.7622 100.599 68.4383L100.518 68.3574C100.437 68.2764 100.437 68.1954 100.356 68.0335C100.356 68.0335 100.356 67.9525 100.356 67.8716C100.275 67.7906 100.275 67.7096 100.275 67.7096C100.113 67.4668 100.032 67.3048 100.032 66.981C99.9511 66.6571 99.8701 66.2523 99.8701 65.9284C99.7891 65.6046 99.7891 65.2807 99.8701 65.0378C99.4653 53.8648 99.0605 42.6918 98.6557 31.5188C98.5747 31.2759 98.5747 30.952 98.5747 30.7091C98.4128 30.3043 98.3318 29.8185 98.4937 29.4947C98.4937 29.4137 98.4937 29.4137 98.4937 29.3327C98.5747 29.2518 98.5747 29.0898 98.6557 29.0089C98.7366 28.2802 99.3843 27.7135 100.275 27.3896C100.437 27.3896 100.518 27.3896 100.68 27.3896C100.842 27.3896 101.004 27.3896 101.166 27.3896C101.246 27.3896 101.327 27.3896 101.327 27.4706C101.651 27.5515 101.57 27.5515 101.489 27.4706C101.57 27.4706 101.57 27.5515 101.651 27.5515C101.813 27.6325 101.975 27.7135 102.056 27.7944C102.137 27.8754 102.218 27.8754 102.299 27.9563C102.299 29.0898 102.461 30.2233 102.542 31.3568H102.461C102.623 34.6764 102.704 37.9959 102.866 41.3154C102.947 41.3154 103.109 41.2344 103.19 41.2344C107.4 37.672 111.448 33.5429 113.472 28.3612C115.82 22.4508 115.172 16.0546 110.557 11.6016C106.509 7.71536 101.004 6.09608 95.579 5.69126C90.8022 5.28644 85.8633 5.36741 81.1674 6.17705C73.4759 7.47247 66.0272 10.2252 58.5785 12.7351C50.3202 15.5689 41.9809 18.0787 33.2368 19.1313C22.9544 20.3457 12.591 19.2122 2.63242 16.2975C0.284464 15.6498 1.337 11.9255 3.68495 12.6542C15.5057 16.1356 27.6503 16.7024 39.7139 14.1925C56.7973 10.711 72.5043 1.72403 90.1544 1.64307C100.923 1.64307 113.958 4.55777 117.844 16.1356C120.759 24.9607 116.387 33.0571 110.476 39.5342C110.153 39.939 109.829 40.3438 109.505 40.7486C109.667 40.8296 109.829 40.8296 109.91 40.9106H109.991C110.072 41.0725 110.153 41.1535 110.395 41.1535C110.395 41.1535 110.476 41.2344 110.557 41.2344ZM113.067 56.2937C113.877 52.5694 112.581 47.4687 109.505 44.7968C107.238 43.6633 103.756 45.1207 103.109 47.6306C103.109 47.7115 103.109 47.7115 103.109 47.7115C103.352 53.379 103.513 59.0465 103.756 64.633C103.756 64.633 103.837 64.552 103.918 64.552C103.756 65.0378 104.404 65.3617 104.728 65.0378C104.647 65.1188 104.647 65.1998 104.647 65.1998C108.776 63.9853 112.096 60.5038 113.067 56.2937Z"/>
<path d="M154.604 65.8475C155.656 67.3048 153.308 69.0051 152.175 67.7096C152.094 67.5477 151.932 67.4667 151.851 67.3048C151.77 67.2239 151.689 67.0619 151.608 66.9C148.126 61.9612 144.888 56.8605 141.811 51.6788C141.73 52.9742 141.73 55.2412 141.649 55.1602C141.73 58.8846 141.811 62.6899 141.811 66.4142C141.892 68.6812 138.411 68.6002 138.33 66.4142C138.33 65.9284 138.33 65.4426 138.33 64.9569C138.33 64.7949 138.33 64.633 138.33 64.552C138.168 53.7029 137.844 42.9347 137.358 32.0855C137.277 31.5997 137.439 31.1949 137.682 30.952C137.844 30.7091 138.087 30.4662 138.492 30.4662C138.573 30.4662 138.654 30.4662 138.654 30.4662C138.816 30.3853 138.897 30.3853 139.059 30.3853C139.949 30.3853 140.759 30.3853 141.649 30.3853C141.811 30.3853 142.054 30.3853 142.216 30.3853C142.378 30.3043 142.459 30.3853 142.54 30.3853C145.617 30.3043 149.017 31.033 150.636 33.9477C152.256 36.7814 151.041 40.6677 149.665 43.4205C148.369 45.8494 146.345 47.8735 143.997 49.3308C147.317 54.9983 150.879 60.5038 154.604 65.8475ZM141.002 34.5954C140.921 34.7573 141.002 34.9192 141.002 35.0812C141.002 35.0812 141.002 35.0812 140.921 35.1621C141.083 38.8865 141.245 42.6108 141.406 46.4161C141.568 46.3352 141.811 46.4161 141.973 46.4971C144.645 44.8778 146.669 42.4489 147.56 39.4532C148.046 37.5911 148.288 35.567 146.345 34.5144C145.374 33.9477 144.24 33.8667 143.188 33.8667C142.783 33.8667 142.216 33.9477 141.811 33.8667C141.73 33.9477 141.649 33.9477 141.568 33.9477C141.568 33.9477 141.568 33.9477 141.568 34.0286C141.406 34.0286 141.326 34.1096 141.164 34.2715C141.164 34.2715 141.164 34.2715 141.083 34.3525C141.083 34.3525 141.083 34.3525 141.083 34.4335C141.002 34.5144 141.002 34.5144 141.002 34.5954Z"/>
<path d="M198.917 64.714C200.942 63.2566 202.885 66.5761 200.861 68.0335C197.298 70.4624 192.845 72.0007 188.635 70.4624C184.506 68.9241 182.806 65.3617 182.077 61.2325C180.539 52.4075 179.486 43.5014 178.596 34.5954C176.571 34.9192 175.357 32.0855 177.219 31.033C177.462 30.871 177.705 30.7901 177.948 30.7091C178.029 30.7091 178.11 30.7091 178.191 30.7091C179.486 30.3853 180.782 30.1424 181.996 29.8185C183.291 29.5756 184.506 29.4137 185.801 29.3327C187.097 29.3327 188.392 29.3327 189.688 29.3327C191.793 29.4137 192.359 32.6523 190.173 33.138C190.011 33.219 189.85 33.219 189.688 33.219C189.526 33.219 189.445 33.219 189.364 33.219C189.283 33.219 189.202 33.219 189.04 33.219C188.149 33.219 187.178 33.219 186.206 33.219C184.992 33.219 183.777 33.3809 182.563 33.6238C182.482 33.6238 182.401 33.7048 182.401 33.7048C182.725 37.2672 183.13 40.8296 183.534 44.3111C183.777 44.392 183.939 44.473 184.101 44.554C184.182 44.6349 184.263 44.6349 184.344 44.6349C184.425 44.7159 184.587 44.7968 184.668 44.8778C184.992 44.7968 185.397 44.7159 185.558 44.7159C186.368 44.554 187.097 44.473 187.825 44.3111C189.364 44.0682 190.902 43.8253 192.359 43.5824C194.869 43.1776 195.841 46.9019 193.412 47.3067C191.307 47.6306 189.121 48.0354 187.016 48.3593C186.044 48.5212 185.073 48.7641 184.101 48.845C184.425 51.193 184.83 53.541 185.154 55.8079C185.639 59.1275 185.639 64.2282 188.797 66.2523C192.117 68.3574 196.003 66.6571 198.917 64.714Z"/>
<path d="M283.914 45.9303C284.076 52.8932 281.566 60.4229 275.737 64.4711C270.393 68.1954 262.459 67.9525 258.249 62.6899C253.958 57.3463 254.039 48.6831 256.225 42.5299C258.33 36.7814 263.026 31.9236 269.098 31.033C269.422 30.871 269.827 30.871 270.151 30.952C270.636 30.952 271.122 30.871 271.608 30.952C272.094 30.952 272.499 31.1139 272.741 31.4378C272.822 31.4378 272.822 31.4378 272.903 31.4378C273.794 31.5188 274.685 31.7617 275.494 32.0855C277.194 32.7332 278.733 33.7858 279.947 35.0812C282.7 38.0768 283.833 42.0441 283.914 45.9303ZM276.385 59.2084C279.947 54.9173 281.243 48.3593 280.109 43.0156C279.542 40.1819 278.085 37.5911 275.656 36.0527C274.523 35.3241 273.227 34.8383 271.77 34.8383C270.717 34.8383 269.908 35.0002 268.936 34.5954C263.431 35.7289 259.868 40.9915 258.816 46.4971C257.763 51.4359 257.925 58.6417 262.378 61.9612C266.831 65.1998 273.146 63.0947 276.385 59.2084Z"/>
<path d="M448.68 78.5588C450.137 76.5347 453.457 78.4778 451.999 80.5019C444.955 90.7034 433.621 96.8567 421.557 99.2046C402.126 102.929 380.994 100.014 363.425 90.7034C349.256 83.1738 337.031 70.3815 335.573 53.9458C335.411 52.7313 335.33 51.5168 335.33 50.3024C335.33 44.7159 336.626 38.8865 340.269 34.5954C343.589 30.5472 348.77 28.3612 353.952 29.2518C356.381 29.6566 355.409 33.3809 352.899 32.9761C347.313 32.0855 342.617 36.4576 340.674 41.3154C339.621 44.1491 339.055 47.4687 339.136 50.6262C339.217 50.8691 339.298 51.193 339.298 51.5169C339.459 60.18 343.022 68.1954 348.77 74.6725C359.781 87.141 376.703 93.942 392.896 96.128C412.327 98.7998 436.616 95.9661 448.68 78.5588Z"/>
<path d="M395.284 65.3617C395.689 67.5477 392.369 68.4383 391.884 66.2523C390.75 60.4229 389.536 54.5125 388.321 48.6021C388.159 47.7925 387.997 47.0638 387.835 46.2542C385.73 46.4161 383.544 46.578 381.358 46.74C379.172 53.46 377.229 60.18 375.529 66.981C374.962 69.167 371.562 68.2764 372.128 66.0904C375.367 53.6219 379.253 41.3964 383.787 29.3327C384.435 27.6325 387.026 27.9563 387.269 29.4137C388.807 30.7091 388.807 33.5429 389.212 35.3241C389.86 38.5626 390.507 41.8012 391.155 45.0397C392.531 51.8407 393.908 58.5607 395.284 65.3617ZM382.573 43.1776C384.111 43.0966 385.649 42.9347 387.188 42.8537L386.621 39.939C386.297 38.4817 385.973 36.9433 385.649 35.486C385.649 35.1621 385.568 34.9192 385.487 34.6764C384.516 37.5101 383.463 40.3438 382.573 43.1776Z"/>
<path d="M424.239 51.274C426.587 53.7838 427.639 57.0224 426.506 60.3419C425.453 63.3376 422.943 65.7665 419.786 66.3333C417.6 66.7381 416.628 63.4186 418.895 63.0137C423.024 62.2851 424.806 57.4272 422.134 54.1887C420.757 52.4884 418.895 51.274 417.357 49.7356C415.9 48.2783 414.766 46.5781 414.118 44.6349C412.661 40.5058 413.552 35.8098 416.385 32.4903C417.519 31.1139 419.381 29.3327 421.162 29.0089C422.701 28.766 424.482 29.6566 424.32 31.3568C424.077 32.9761 422.296 33.3809 421.324 32.7332C421.243 32.8142 421.162 32.8951 421 32.8951C420.838 33.0571 420.595 33.219 420.434 33.3C420.029 33.6238 419.705 33.9477 419.381 34.2715C418.733 35.0002 418.167 35.8098 417.762 36.7005C416.871 38.6436 416.709 40.8296 417.195 42.8537C418.247 46.74 421.729 48.5212 424.239 51.274Z"/>
<path d="M469.983 65.3617C470.388 67.5477 467.068 68.4383 466.582 66.2523C465.449 60.4229 464.234 54.5125 463.02 48.6021C462.858 47.7925 462.696 47.0638 462.534 46.2542C460.429 46.4161 458.243 46.578 456.057 46.74C453.871 53.46 451.928 60.18 450.228 66.981C449.661 69.167 446.26 68.2764 446.827 66.0904C450.066 53.6219 453.952 41.3964 458.486 29.3327C459.134 27.6325 461.724 27.9563 461.967 29.4137C463.506 30.7091 463.506 33.5429 463.91 35.3241C464.558 38.5626 465.206 41.8012 465.854 45.0397C467.23 51.8407 468.606 58.5607 469.983 65.3617ZM457.271 43.1776C458.81 43.0966 460.348 42.9347 461.886 42.8537L461.32 39.939C460.996 38.4817 460.672 36.9433 460.348 35.486C460.348 35.1621 460.267 34.9192 460.186 34.6764C459.215 37.5101 458.162 40.3438 457.271 43.1776Z"/>
<path d="M522.501 30.5472C522.906 43.5014 523.392 56.5366 523.959 69.4908C524.12 71.434 521.044 71.8388 520.558 69.9766C520.477 69.4908 520.396 69.0051 520.234 68.6002C520.153 68.1145 520.234 67.7096 520.396 67.3858C519.991 57.4272 519.587 47.4687 519.263 37.5101V37.5911C519.182 37.672 519.182 37.672 519.101 37.753C517.401 40.1009 515.781 42.5299 514.243 44.9588C514.243 45.1207 514.162 45.2826 514.081 45.4446C511.49 49.6547 509.304 54.1077 507.442 58.8036C506.956 59.9371 505.823 60.18 504.932 59.8561C504.284 59.8561 503.637 59.4513 503.313 58.6417C501.127 52.5694 498.617 46.5781 495.783 40.7486C496.431 48.6021 496.674 56.3747 496.593 64.2282C496.755 64.552 496.836 64.9569 496.755 65.3617C496.674 65.9284 496.593 66.4952 496.512 67.0619C496.188 69.0051 493.03 68.5193 493.111 66.5761C493.273 54.7554 492.706 43.0156 491.411 31.2759C491.087 29.0898 494.65 29.0898 494.893 31.2759V31.3568C498.941 38.8055 502.422 46.578 505.499 54.5125C506.632 51.9217 507.766 49.3308 509.142 46.9019C511.895 40.7486 515.538 34.8383 519.101 29.0898C519.101 29.0089 519.182 28.9279 519.182 28.8469C519.667 26.6609 523.068 27.6325 522.501 29.8185C522.501 29.8995 522.501 29.9804 522.42 30.0614C522.501 30.2233 522.501 30.3853 522.501 30.5472Z"/>
<path d="M568.072 64.714C570.096 63.2566 572.039 66.5761 570.015 68.0335C566.453 70.4624 562 72.0007 557.789 70.4624C553.66 68.9241 551.96 65.3617 551.231 61.2325C549.693 52.4075 548.641 43.5014 547.75 34.5954C545.726 34.9192 544.511 32.0855 546.374 31.033C546.617 30.871 546.859 30.7901 547.102 30.7091C547.183 30.7091 547.264 30.7091 547.345 30.7091C548.641 30.3853 549.936 30.1424 551.15 29.8185C552.446 29.5756 553.66 29.4137 554.956 29.3327C556.251 29.3327 557.547 29.3327 558.842 29.3327C560.947 29.4137 561.514 32.6523 559.328 33.138C559.166 33.219 559.004 33.219 558.842 33.219C558.68 33.219 558.599 33.219 558.518 33.219C558.437 33.219 558.356 33.219 558.194 33.219C557.304 33.219 556.332 33.219 555.361 33.219C554.146 33.219 552.932 33.3809 551.717 33.6238C551.636 33.6238 551.555 33.7048 551.555 33.7048C551.879 37.2672 552.284 40.8296 552.689 44.3111C552.932 44.392 553.094 44.473 553.255 44.554C553.336 44.6349 553.417 44.6349 553.498 44.6349C553.579 44.7159 553.741 44.7968 553.822 44.8778C554.146 44.7968 554.551 44.7159 554.713 44.7159C555.523 44.554 556.251 44.473 556.98 44.3111C558.518 44.0682 560.057 43.8253 561.514 43.5824C564.024 43.1776 564.995 46.9019 562.566 47.3067C560.461 47.6306 558.275 48.0354 556.17 48.3593C555.199 48.5212 554.227 48.7641 553.255 48.845C553.579 51.193 553.984 53.541 554.308 55.8079C554.794 59.1275 554.794 64.2282 557.951 66.2523C561.271 68.3574 565.157 66.6571 568.072 64.714Z"/>
<path d="M612.684 66.819C612.684 66.9 612.684 66.9 612.684 66.981C612.765 68.1145 612.522 69.086 611.55 69.4099C610.336 69.7337 609.121 68.8431 608.312 67.9525C608.15 67.7906 607.988 67.7096 607.826 67.4668C604.182 62.8518 601.268 57.832 599.082 52.3265C598.191 50.0595 597.381 47.7115 596.653 45.3636C596.977 52.8123 597.3 60.261 597.543 67.7906C597.624 70.1386 594.305 69.8957 594.062 67.7906C594.062 67.4668 593.981 67.2239 593.981 66.9C593.9 66.6571 593.9 66.4142 593.981 66.1713C593.657 54.4316 593.09 42.6108 592.281 30.871C592.119 28.8469 595.033 28.685 595.6 30.3853C595.681 30.4662 595.762 30.6282 595.762 30.7901C595.843 31.3568 596.005 31.9236 596.086 32.5713C596.167 32.6523 596.167 32.8142 596.248 32.9761C599.729 43.5014 602.644 54.5125 609.283 63.6614C608.15 52.7313 607.583 41.8012 607.502 30.871C607.502 28.685 610.983 28.685 610.983 30.871C611.064 41.7202 611.631 52.5694 612.684 63.3376C612.684 63.4185 612.684 63.4995 612.684 63.5805V64.1472C612.684 64.2282 612.684 64.3092 612.684 64.3092C612.603 65.1188 612.684 66.0094 612.684 66.819Z"/>
<path d="M651.989 27.6325C654.255 27.4706 654.255 31.033 651.989 31.1139C649.641 31.2759 647.212 31.4378 644.783 31.5997C645.916 42.9347 646.402 54.4315 646.321 65.8475C646.321 68.1145 643.083 68.0335 642.84 65.8475L642.759 64.552C642.678 64.2282 642.759 63.9043 642.84 63.6614C642.84 53.0552 642.354 42.3679 641.382 31.7617C639.52 31.9236 637.658 32.0045 635.796 32.1665C633.529 32.2474 633.61 28.766 635.796 28.685C641.22 28.3612 646.564 27.9563 651.989 27.6325Z"/>
<path d="M698.681 45.9303C698.843 52.8932 696.333 60.4229 690.503 64.4711C685.16 68.1954 677.225 67.9525 673.015 62.6899C668.724 57.3463 668.805 48.6831 670.991 42.5299C673.096 36.7814 677.792 31.9236 683.864 31.033C684.188 30.871 684.593 30.871 684.917 30.952C685.403 30.952 685.888 30.871 686.374 30.952C686.86 30.952 687.265 31.1139 687.508 31.4378C687.589 31.4378 687.589 31.4378 687.669 31.4378C688.56 31.5188 689.451 31.7617 690.26 32.0855C691.961 32.7332 693.499 33.7858 694.713 35.0812C697.466 38.0768 698.6 42.0441 698.681 45.9303ZM691.151 59.2084C694.713 54.9173 696.009 48.3593 694.875 43.0156C694.309 40.1819 692.851 37.5911 690.422 36.0527C689.289 35.3241 687.993 34.8383 686.536 34.8383C685.483 34.8383 684.674 35.0002 683.702 34.5954C678.197 35.7289 674.634 40.9915 673.582 46.4971C672.529 51.4359 672.691 58.6417 677.144 61.9612C681.597 65.1998 687.912 63.0947 691.151 59.2084Z"/>
</mask>
<path d="M27.1835 51.274C29.5314 53.7838 30.5839 57.0224 29.4504 60.3419C28.3979 63.3376 25.888 65.7665 22.7304 66.3333C20.5444 66.7381 19.5728 63.4186 21.8398 63.0137C25.969 62.2851 27.7502 57.4272 25.0784 54.1887C23.702 52.4884 21.8398 51.274 20.3015 49.7356C18.8442 48.2783 17.7107 46.5781 17.063 44.6349C15.6056 40.5058 16.4962 35.8098 19.33 32.4903C20.4635 31.1139 22.3256 29.3327 24.1068 29.0089C25.6451 28.766 27.4263 29.6566 27.2644 31.3568C27.0215 32.9761 25.2403 33.3809 24.2688 32.7332C24.1878 32.8142 24.1068 32.8951 23.9449 32.8951C23.783 33.0571 23.5401 33.219 23.3782 33.3C22.9733 33.6238 22.6495 33.9477 22.3256 34.2715C21.6779 35.0002 21.1112 35.8098 20.7063 36.7005C19.8157 38.6436 19.6538 40.8296 20.1396 42.8537C21.1921 46.74 24.6736 48.5212 27.1835 51.274Z" fill="white"/>
<path d="M78.1522 45.9303C78.3141 52.8932 75.8042 60.4229 69.9748 64.4711C64.6312 68.1954 56.6967 67.9525 52.4866 62.6899C48.1955 57.3463 48.2765 48.6831 50.4625 42.5299C52.5676 36.7814 57.2635 31.9236 63.3358 31.033C63.6596 30.871 64.0644 30.871 64.3883 30.952C64.8741 30.952 65.3598 30.871 65.8456 30.952C66.3314 30.952 66.7362 31.1139 66.9791 31.4378C67.0601 31.4378 67.0601 31.4378 67.1411 31.4378C68.0317 31.5188 68.9223 31.7617 69.7319 32.0855C71.4321 32.7332 72.9705 33.7858 74.1849 35.0812C76.9377 38.0768 78.0712 42.0441 78.1522 45.9303ZM70.6225 59.2084C74.1849 54.9173 75.4803 48.3593 74.3468 43.0156C73.7801 40.1819 72.3227 37.5911 69.8938 36.0527C68.7603 35.3241 67.4649 34.8383 66.0076 34.8383C64.955 34.8383 64.1454 35.0002 63.1738 34.5954C57.6683 35.7289 54.1059 40.9915 53.0533 46.4971C52.0008 51.4359 52.1627 58.6417 56.6157 61.9612C61.0688 65.1998 67.3839 63.0947 70.6225 59.2084Z" fill="white"/>
<path d="M110.557 41.2344C112.5 42.3679 114.12 44.8778 114.929 46.4971C116.468 49.4928 117.115 52.8123 116.63 56.1318C115.577 63.0947 109.667 68.1954 102.947 69.086C102.704 69.086 102.461 69.086 102.299 69.0051C101.975 69.167 101.651 69.167 101.408 69.0051C101.408 68.9241 101.327 68.9241 101.327 68.9241C101.004 68.8431 100.761 68.7622 100.599 68.4383L100.518 68.3574C100.437 68.2764 100.437 68.1954 100.356 68.0335C100.356 68.0335 100.356 67.9525 100.356 67.8716C100.275 67.7906 100.275 67.7096 100.275 67.7096C100.113 67.4668 100.032 67.3048 100.032 66.981C99.9511 66.6571 99.8701 66.2523 99.8701 65.9284C99.7891 65.6046 99.7891 65.2807 99.8701 65.0378C99.4653 53.8648 99.0605 42.6918 98.6557 31.5188C98.5747 31.2759 98.5747 30.952 98.5747 30.7091C98.4128 30.3043 98.3318 29.8185 98.4937 29.4947C98.4937 29.4137 98.4937 29.4137 98.4937 29.3327C98.5747 29.2518 98.5747 29.0898 98.6557 29.0089C98.7366 28.2802 99.3843 27.7135 100.275 27.3896C100.437 27.3896 100.518 27.3896 100.68 27.3896C100.842 27.3896 101.004 27.3896 101.166 27.3896C101.246 27.3896 101.327 27.3896 101.327 27.4706C101.651 27.5515 101.57 27.5515 101.489 27.4706C101.57 27.4706 101.57 27.5515 101.651 27.5515C101.813 27.6325 101.975 27.7135 102.056 27.7944C102.137 27.8754 102.218 27.8754 102.299 27.9563C102.299 29.0898 102.461 30.2233 102.542 31.3568H102.461C102.623 34.6764 102.704 37.9959 102.866 41.3154C102.947 41.3154 103.109 41.2344 103.19 41.2344C107.4 37.672 111.448 33.5429 113.472 28.3612C115.82 22.4508 115.172 16.0546 110.557 11.6016C106.509 7.71536 101.004 6.09608 95.579 5.69126C90.8022 5.28644 85.8633 5.36741 81.1674 6.17705C73.4759 7.47247 66.0272 10.2252 58.5785 12.7351C50.3202 15.5689 41.9809 18.0787 33.2368 19.1313C22.9544 20.3457 12.591 19.2122 2.63242 16.2975C0.284464 15.6498 1.337 11.9255 3.68495 12.6542C15.5057 16.1356 27.6503 16.7024 39.7139 14.1925C56.7973 10.711 72.5043 1.72403 90.1544 1.64307C100.923 1.64307 113.958 4.55777 117.844 16.1356C120.759 24.9607 116.387 33.0571 110.476 39.5342C110.153 39.939 109.829 40.3438 109.505 40.7486C109.667 40.8296 109.829 40.8296 109.91 40.9106H109.991C110.072 41.0725 110.153 41.1535 110.395 41.1535C110.395 41.1535 110.476 41.2344 110.557 41.2344ZM113.067 56.2937C113.877 52.5694 112.581 47.4687 109.505 44.7968C107.238 43.6633 103.756 45.1207 103.109 47.6306C103.109 47.7115 103.109 47.7115 103.109 47.7115C103.352 53.379 103.513 59.0465 103.756 64.633C103.756 64.633 103.837 64.552 103.918 64.552C103.756 65.0378 104.404 65.3617 104.728 65.0378C104.647 65.1188 104.647 65.1998 104.647 65.1998C108.776 63.9853 112.096 60.5038 113.067 56.2937Z" fill="white"/>
<path d="M154.604 65.8475C155.656 67.3048 153.308 69.0051 152.175 67.7096C152.094 67.5477 151.932 67.4667 151.851 67.3048C151.77 67.2239 151.689 67.0619 151.608 66.9C148.126 61.9612 144.888 56.8605 141.811 51.6788C141.73 52.9742 141.73 55.2412 141.649 55.1602C141.73 58.8846 141.811 62.6899 141.811 66.4142C141.892 68.6812 138.411 68.6002 138.33 66.4142C138.33 65.9284 138.33 65.4426 138.33 64.9569C138.33 64.7949 138.33 64.633 138.33 64.552C138.168 53.7029 137.844 42.9347 137.358 32.0855C137.277 31.5997 137.439 31.1949 137.682 30.952C137.844 30.7091 138.087 30.4662 138.492 30.4662C138.573 30.4662 138.654 30.4662 138.654 30.4662C138.816 30.3853 138.897 30.3853 139.059 30.3853C139.949 30.3853 140.759 30.3853 141.649 30.3853C141.811 30.3853 142.054 30.3853 142.216 30.3853C142.378 30.3043 142.459 30.3853 142.54 30.3853C145.617 30.3043 149.017 31.033 150.636 33.9477C152.256 36.7814 151.041 40.6677 149.665 43.4205C148.369 45.8494 146.345 47.8735 143.997 49.3308C147.317 54.9983 150.879 60.5038 154.604 65.8475ZM141.002 34.5954C140.921 34.7573 141.002 34.9192 141.002 35.0812C141.002 35.0812 141.002 35.0812 140.921 35.1621C141.083 38.8865 141.245 42.6108 141.406 46.4161C141.568 46.3352 141.811 46.4161 141.973 46.4971C144.645 44.8778 146.669 42.4489 147.56 39.4532C148.046 37.5911 148.288 35.567 146.345 34.5144C145.374 33.9477 144.24 33.8667 143.188 33.8667C142.783 33.8667 142.216 33.9477 141.811 33.8667C141.73 33.9477 141.649 33.9477 141.568 33.9477C141.568 33.9477 141.568 33.9477 141.568 34.0286C141.406 34.0286 141.326 34.1096 141.164 34.2715C141.164 34.2715 141.164 34.2715 141.083 34.3525C141.083 34.3525 141.083 34.3525 141.083 34.4335C141.002 34.5144 141.002 34.5144 141.002 34.5954Z" fill="white"/>
<path d="M198.917 64.714C200.942 63.2566 202.885 66.5761 200.861 68.0335C197.298 70.4624 192.845 72.0007 188.635 70.4624C184.506 68.9241 182.806 65.3617 182.077 61.2325C180.539 52.4075 179.486 43.5014 178.596 34.5954C176.571 34.9192 175.357 32.0855 177.219 31.033C177.462 30.871 177.705 30.7901 177.948 30.7091C178.029 30.7091 178.11 30.7091 178.191 30.7091C179.486 30.3853 180.782 30.1424 181.996 29.8185C183.291 29.5756 184.506 29.4137 185.801 29.3327C187.097 29.3327 188.392 29.3327 189.688 29.3327C191.793 29.4137 192.359 32.6523 190.173 33.138C190.011 33.219 189.85 33.219 189.688 33.219C189.526 33.219 189.445 33.219 189.364 33.219C189.283 33.219 189.202 33.219 189.04 33.219C188.149 33.219 187.178 33.219 186.206 33.219C184.992 33.219 183.777 33.3809 182.563 33.6238C182.482 33.6238 182.401 33.7048 182.401 33.7048C182.725 37.2672 183.13 40.8296 183.534 44.3111C183.777 44.392 183.939 44.473 184.101 44.554C184.182 44.6349 184.263 44.6349 184.344 44.6349C184.425 44.7159 184.587 44.7968 184.668 44.8778C184.992 44.7968 185.397 44.7159 185.558 44.7159C186.368 44.554 187.097 44.473 187.825 44.3111C189.364 44.0682 190.902 43.8253 192.359 43.5824C194.869 43.1776 195.841 46.9019 193.412 47.3067C191.307 47.6306 189.121 48.0354 187.016 48.3593C186.044 48.5212 185.073 48.7641 184.101 48.845C184.425 51.193 184.83 53.541 185.154 55.8079C185.639 59.1275 185.639 64.2282 188.797 66.2523C192.117 68.3574 196.003 66.6571 198.917 64.714Z" fill="white"/>
<path d="M283.914 45.9303C284.076 52.8932 281.566 60.4229 275.737 64.4711C270.393 68.1954 262.459 67.9525 258.249 62.6899C253.958 57.3463 254.039 48.6831 256.225 42.5299C258.33 36.7814 263.026 31.9236 269.098 31.033C269.422 30.871 269.827 30.871 270.151 30.952C270.636 30.952 271.122 30.871 271.608 30.952C272.094 30.952 272.499 31.1139 272.741 31.4378C272.822 31.4378 272.822 31.4378 272.903 31.4378C273.794 31.5188 274.685 31.7617 275.494 32.0855C277.194 32.7332 278.733 33.7858 279.947 35.0812C282.7 38.0768 283.833 42.0441 283.914 45.9303ZM276.385 59.2084C279.947 54.9173 281.243 48.3593 280.109 43.0156C279.542 40.1819 278.085 37.5911 275.656 36.0527C274.523 35.3241 273.227 34.8383 271.77 34.8383C270.717 34.8383 269.908 35.0002 268.936 34.5954C263.431 35.7289 259.868 40.9915 258.816 46.4971C257.763 51.4359 257.925 58.6417 262.378 61.9612C266.831 65.1998 273.146 63.0947 276.385 59.2084Z" fill="white"/>
<path d="M448.68 78.5588C450.137 76.5347 453.457 78.4778 451.999 80.5019C444.955 90.7034 433.621 96.8567 421.557 99.2046C402.126 102.929 380.994 100.014 363.425 90.7034C349.256 83.1738 337.031 70.3815 335.573 53.9458C335.411 52.7313 335.33 51.5168 335.33 50.3024C335.33 44.7159 336.626 38.8865 340.269 34.5954C343.589 30.5472 348.77 28.3612 353.952 29.2518C356.381 29.6566 355.409 33.3809 352.899 32.9761C347.313 32.0855 342.617 36.4576 340.674 41.3154C339.621 44.1491 339.055 47.4687 339.136 50.6262C339.217 50.8691 339.298 51.193 339.298 51.5169C339.459 60.18 343.022 68.1954 348.77 74.6725C359.781 87.141 376.703 93.942 392.896 96.128C412.327 98.7998 436.616 95.9661 448.68 78.5588Z" fill="white"/>
<path d="M395.284 65.3617C395.689 67.5477 392.369 68.4383 391.884 66.2523C390.75 60.4229 389.536 54.5125 388.321 48.6021C388.159 47.7925 387.997 47.0638 387.835 46.2542C385.73 46.4161 383.544 46.578 381.358 46.74C379.172 53.46 377.229 60.18 375.529 66.981C374.962 69.167 371.562 68.2764 372.128 66.0904C375.367 53.6219 379.253 41.3964 383.787 29.3327C384.435 27.6325 387.026 27.9563 387.269 29.4137C388.807 30.7091 388.807 33.5429 389.212 35.3241C389.86 38.5626 390.507 41.8012 391.155 45.0397C392.531 51.8407 393.908 58.5607 395.284 65.3617ZM382.573 43.1776C384.111 43.0966 385.649 42.9347 387.188 42.8537L386.621 39.939C386.297 38.4817 385.973 36.9433 385.649 35.486C385.649 35.1621 385.568 34.9192 385.487 34.6764C384.516 37.5101 383.463 40.3438 382.573 43.1776Z" fill="white"/>
<path d="M424.239 51.274C426.587 53.7838 427.639 57.0224 426.506 60.3419C425.453 63.3376 422.943 65.7665 419.786 66.3333C417.6 66.7381 416.628 63.4186 418.895 63.0137C423.024 62.2851 424.806 57.4272 422.134 54.1887C420.757 52.4884 418.895 51.274 417.357 49.7356C415.9 48.2783 414.766 46.5781 414.118 44.6349C412.661 40.5058 413.552 35.8098 416.385 32.4903C417.519 31.1139 419.381 29.3327 421.162 29.0089C422.701 28.766 424.482 29.6566 424.32 31.3568C424.077 32.9761 422.296 33.3809 421.324 32.7332C421.243 32.8142 421.162 32.8951 421 32.8951C420.838 33.0571 420.595 33.219 420.434 33.3C420.029 33.6238 419.705 33.9477 419.381 34.2715C418.733 35.0002 418.167 35.8098 417.762 36.7005C416.871 38.6436 416.709 40.8296 417.195 42.8537C418.247 46.74 421.729 48.5212 424.239 51.274Z" fill="white"/>
<path d="M469.983 65.3617C470.388 67.5477 467.068 68.4383 466.582 66.2523C465.449 60.4229 464.234 54.5125 463.02 48.6021C462.858 47.7925 462.696 47.0638 462.534 46.2542C460.429 46.4161 458.243 46.578 456.057 46.74C453.871 53.46 451.928 60.18 450.228 66.981C449.661 69.167 446.26 68.2764 446.827 66.0904C450.066 53.6219 453.952 41.3964 458.486 29.3327C459.134 27.6325 461.724 27.9563 461.967 29.4137C463.506 30.7091 463.506 33.5429 463.91 35.3241C464.558 38.5626 465.206 41.8012 465.854 45.0397C467.23 51.8407 468.606 58.5607 469.983 65.3617ZM457.271 43.1776C458.81 43.0966 460.348 42.9347 461.886 42.8537L461.32 39.939C460.996 38.4817 460.672 36.9433 460.348 35.486C460.348 35.1621 460.267 34.9192 460.186 34.6764C459.215 37.5101 458.162 40.3438 457.271 43.1776Z" fill="white"/>
<path d="M522.501 30.5472C522.906 43.5014 523.392 56.5366 523.959 69.4908C524.12 71.434 521.044 71.8388 520.558 69.9766C520.477 69.4908 520.396 69.0051 520.234 68.6002C520.153 68.1145 520.234 67.7096 520.396 67.3858C519.991 57.4272 519.587 47.4687 519.263 37.5101V37.5911C519.182 37.672 519.182 37.672 519.101 37.753C517.401 40.1009 515.781 42.5299 514.243 44.9588C514.243 45.1207 514.162 45.2826 514.081 45.4446C511.49 49.6547 509.304 54.1077 507.442 58.8036C506.956 59.9371 505.823 60.18 504.932 59.8561C504.284 59.8561 503.637 59.4513 503.313 58.6417C501.127 52.5694 498.617 46.5781 495.783 40.7486C496.431 48.6021 496.674 56.3747 496.593 64.2282C496.755 64.552 496.836 64.9569 496.755 65.3617C496.674 65.9284 496.593 66.4952 496.512 67.0619C496.188 69.0051 493.03 68.5193 493.111 66.5761C493.273 54.7554 492.706 43.0156 491.411 31.2759C491.087 29.0898 494.65 29.0898 494.893 31.2759V31.3568C498.941 38.8055 502.422 46.578 505.499 54.5125C506.632 51.9217 507.766 49.3308 509.142 46.9019C511.895 40.7486 515.538 34.8383 519.101 29.0898C519.101 29.0089 519.182 28.9279 519.182 28.8469C519.667 26.6609 523.068 27.6325 522.501 29.8185C522.501 29.8995 522.501 29.9804 522.42 30.0614C522.501 30.2233 522.501 30.3853 522.501 30.5472Z" fill="white"/>
<path d="M568.072 64.714C570.096 63.2566 572.039 66.5761 570.015 68.0335C566.453 70.4624 562 72.0007 557.789 70.4624C553.66 68.9241 551.96 65.3617 551.231 61.2325C549.693 52.4075 548.641 43.5014 547.75 34.5954C545.726 34.9192 544.511 32.0855 546.374 31.033C546.617 30.871 546.859 30.7901 547.102 30.7091C547.183 30.7091 547.264 30.7091 547.345 30.7091C548.641 30.3853 549.936 30.1424 551.15 29.8185C552.446 29.5756 553.66 29.4137 554.956 29.3327C556.251 29.3327 557.547 29.3327 558.842 29.3327C560.947 29.4137 561.514 32.6523 559.328 33.138C559.166 33.219 559.004 33.219 558.842 33.219C558.68 33.219 558.599 33.219 558.518 33.219C558.437 33.219 558.356 33.219 558.194 33.219C557.304 33.219 556.332 33.219 555.361 33.219C554.146 33.219 552.932 33.3809 551.717 33.6238C551.636 33.6238 551.555 33.7048 551.555 33.7048C551.879 37.2672 552.284 40.8296 552.689 44.3111C552.932 44.392 553.094 44.473 553.255 44.554C553.336 44.6349 553.417 44.6349 553.498 44.6349C553.579 44.7159 553.741 44.7968 553.822 44.8778C554.146 44.7968 554.551 44.7159 554.713 44.7159C555.523 44.554 556.251 44.473 556.98 44.3111C558.518 44.0682 560.057 43.8253 561.514 43.5824C564.024 43.1776 564.995 46.9019 562.566 47.3067C560.461 47.6306 558.275 48.0354 556.17 48.3593C555.199 48.5212 554.227 48.7641 553.255 48.845C553.579 51.193 553.984 53.541 554.308 55.8079C554.794 59.1275 554.794 64.2282 557.951 66.2523C561.271 68.3574 565.157 66.6571 568.072 64.714Z" fill="white"/>
<path d="M612.684 66.819C612.684 66.9 612.684 66.9 612.684 66.981C612.765 68.1145 612.522 69.086 611.55 69.4099C610.336 69.7337 609.121 68.8431 608.312 67.9525C608.15 67.7906 607.988 67.7096 607.826 67.4668C604.182 62.8518 601.268 57.832 599.082 52.3265C598.191 50.0595 597.381 47.7115 596.653 45.3636C596.977 52.8123 597.3 60.261 597.543 67.7906C597.624 70.1386 594.305 69.8957 594.062 67.7906C594.062 67.4668 593.981 67.2239 593.981 66.9C593.9 66.6571 593.9 66.4142 593.981 66.1713C593.657 54.4316 593.09 42.6108 592.281 30.871C592.119 28.8469 595.033 28.685 595.6 30.3853C595.681 30.4662 595.762 30.6282 595.762 30.7901C595.843 31.3568 596.005 31.9236 596.086 32.5713C596.167 32.6523 596.167 32.8142 596.248 32.9761C599.729 43.5014 602.644 54.5125 609.283 63.6614C608.15 52.7313 607.583 41.8012 607.502 30.871C607.502 28.685 610.983 28.685 610.983 30.871C611.064 41.7202 611.631 52.5694 612.684 63.3376C612.684 63.4185 612.684 63.4995 612.684 63.5805V64.1472C612.684 64.2282 612.684 64.3092 612.684 64.3092C612.603 65.1188 612.684 66.0094 612.684 66.819Z" fill="white"/>
<path d="M651.989 27.6325C654.255 27.4706 654.255 31.033 651.989 31.1139C649.641 31.2759 647.212 31.4378 644.783 31.5997C645.916 42.9347 646.402 54.4315 646.321 65.8475C646.321 68.1145 643.083 68.0335 642.84 65.8475L642.759 64.552C642.678 64.2282 642.759 63.9043 642.84 63.6614C642.84 53.0552 642.354 42.3679 641.382 31.7617C639.52 31.9236 637.658 32.0045 635.796 32.1665C633.529 32.2474 633.61 28.766 635.796 28.685C641.22 28.3612 646.564 27.9563 651.989 27.6325Z" fill="white"/>
<path d="M698.681 45.9303C698.843 52.8932 696.333 60.4229 690.503 64.4711C685.16 68.1954 677.225 67.9525 673.015 62.6899C668.724 57.3463 668.805 48.6831 670.991 42.5299C673.096 36.7814 677.792 31.9236 683.864 31.033C684.188 30.871 684.593 30.871 684.917 30.952C685.403 30.952 685.888 30.871 686.374 30.952C686.86 30.952 687.265 31.1139 687.508 31.4378C687.589 31.4378 687.589 31.4378 687.669 31.4378C688.56 31.5188 689.451 31.7617 690.26 32.0855C691.961 32.7332 693.499 33.7858 694.713 35.0812C697.466 38.0768 698.6 42.0441 698.681 45.9303ZM691.151 59.2084C694.713 54.9173 696.009 48.3593 694.875 43.0156C694.309 40.1819 692.851 37.5911 690.422 36.0527C689.289 35.3241 687.993 34.8383 686.536 34.8383C685.483 34.8383 684.674 35.0002 683.702 34.5954C678.197 35.7289 674.634 40.9915 673.582 46.4971C672.529 51.4359 672.691 58.6417 677.144 61.9612C681.597 65.1998 687.912 63.0947 691.151 59.2084Z" fill="white"/>
<path d="M27.1835 51.274C29.5314 53.7838 30.5839 57.0224 29.4504 60.3419C28.3979 63.3376 25.888 65.7665 22.7304 66.3333C20.5444 66.7381 19.5728 63.4186 21.8398 63.0137C25.969 62.2851 27.7502 57.4272 25.0784 54.1887C23.702 52.4884 21.8398 51.274 20.3015 49.7356C18.8442 48.2783 17.7107 46.5781 17.063 44.6349C15.6056 40.5058 16.4962 35.8098 19.33 32.4903C20.4635 31.1139 22.3256 29.3327 24.1068 29.0089C25.6451 28.766 27.4263 29.6566 27.2644 31.3568C27.0215 32.9761 25.2403 33.3809 24.2688 32.7332C24.1878 32.8142 24.1068 32.8951 23.9449 32.8951C23.783 33.0571 23.5401 33.219 23.3782 33.3C22.9733 33.6238 22.6495 33.9477 22.3256 34.2715C21.6779 35.0002 21.1112 35.8098 20.7063 36.7005C19.8157 38.6436 19.6538 40.8296 20.1396 42.8537C21.1921 46.74 24.6736 48.5212 27.1835 51.274Z" stroke="white" stroke-width="1.52665" mask="url(#path-1-outside-1_314_556)"/>
<path d="M78.1522 45.9303C78.3141 52.8932 75.8042 60.4229 69.9748 64.4711C64.6312 68.1954 56.6967 67.9525 52.4866 62.6899C48.1955 57.3463 48.2765 48.6831 50.4625 42.5299C52.5676 36.7814 57.2635 31.9236 63.3358 31.033C63.6596 30.871 64.0644 30.871 64.3883 30.952C64.8741 30.952 65.3598 30.871 65.8456 30.952C66.3314 30.952 66.7362 31.1139 66.9791 31.4378C67.0601 31.4378 67.0601 31.4378 67.1411 31.4378C68.0317 31.5188 68.9223 31.7617 69.7319 32.0855C71.4321 32.7332 72.9705 33.7858 74.1849 35.0812C76.9377 38.0768 78.0712 42.0441 78.1522 45.9303ZM70.6225 59.2084C74.1849 54.9173 75.4803 48.3593 74.3468 43.0156C73.7801 40.1819 72.3227 37.5911 69.8938 36.0527C68.7603 35.3241 67.4649 34.8383 66.0076 34.8383C64.955 34.8383 64.1454 35.0002 63.1738 34.5954C57.6683 35.7289 54.1059 40.9915 53.0533 46.4971C52.0008 51.4359 52.1627 58.6417 56.6157 61.9612C61.0688 65.1998 67.3839 63.0947 70.6225 59.2084Z" stroke="white" stroke-width="1.52665" mask="url(#path-1-outside-1_314_556)"/>
<path d="M110.557 41.2344C112.5 42.3679 114.12 44.8778 114.929 46.4971C116.468 49.4928 117.115 52.8123 116.63 56.1318C115.577 63.0947 109.667 68.1954 102.947 69.086C102.704 69.086 102.461 69.086 102.299 69.0051C101.975 69.167 101.651 69.167 101.408 69.0051C101.408 68.9241 101.327 68.9241 101.327 68.9241C101.004 68.8431 100.761 68.7622 100.599 68.4383L100.518 68.3574C100.437 68.2764 100.437 68.1954 100.356 68.0335C100.356 68.0335 100.356 67.9525 100.356 67.8716C100.275 67.7906 100.275 67.7096 100.275 67.7096C100.113 67.4668 100.032 67.3048 100.032 66.981C99.9511 66.6571 99.8701 66.2523 99.8701 65.9284C99.7891 65.6046 99.7891 65.2807 99.8701 65.0378C99.4653 53.8648 99.0605 42.6918 98.6557 31.5188C98.5747 31.2759 98.5747 30.952 98.5747 30.7091C98.4128 30.3043 98.3318 29.8185 98.4937 29.4947C98.4937 29.4137 98.4937 29.4137 98.4937 29.3327C98.5747 29.2518 98.5747 29.0898 98.6557 29.0089C98.7366 28.2802 99.3843 27.7135 100.275 27.3896C100.437 27.3896 100.518 27.3896 100.68 27.3896C100.842 27.3896 101.004 27.3896 101.166 27.3896C101.246 27.3896 101.327 27.3896 101.327 27.4706C101.651 27.5515 101.57 27.5515 101.489 27.4706C101.57 27.4706 101.57 27.5515 101.651 27.5515C101.813 27.6325 101.975 27.7135 102.056 27.7944C102.137 27.8754 102.218 27.8754 102.299 27.9563C102.299 29.0898 102.461 30.2233 102.542 31.3568H102.461C102.623 34.6764 102.704 37.9959 102.866 41.3154C102.947 41.3154 103.109 41.2344 103.19 41.2344C107.4 37.672 111.448 33.5429 113.472 28.3612C115.82 22.4508 115.172 16.0546 110.557 11.6016C106.509 7.71536 101.004 6.09608 95.579 5.69126C90.8022 5.28644 85.8633 5.36741 81.1674 6.17705C73.4759 7.47247 66.0272 10.2252 58.5785 12.7351C50.3202 15.5689 41.9809 18.0787 33.2368 19.1313C22.9544 20.3457 12.591 19.2122 2.63242 16.2975C0.284464 15.6498 1.337 11.9255 3.68495 12.6542C15.5057 16.1356 27.6503 16.7024 39.7139 14.1925C56.7973 10.711 72.5043 1.72403 90.1544 1.64307C100.923 1.64307 113.958 4.55777 117.844 16.1356C120.759 24.9607 116.387 33.0571 110.476 39.5342C110.153 39.939 109.829 40.3438 109.505 40.7486C109.667 40.8296 109.829 40.8296 109.91 40.9106H109.991C110.072 41.0725 110.153 41.1535 110.395 41.1535C110.395 41.1535 110.476 41.2344 110.557 41.2344ZM113.067 56.2937C113.877 52.5694 112.581 47.4687 109.505 44.7968C107.238 43.6633 103.756 45.1207 103.109 47.6306C103.109 47.7115 103.109 47.7115 103.109 47.7115C103.352 53.379 103.513 59.0465 103.756 64.633C103.756 64.633 103.837 64.552 103.918 64.552C103.756 65.0378 104.404 65.3617 104.728 65.0378C104.647 65.1188 104.647 65.1998 104.647 65.1998C108.776 63.9853 112.096 60.5038 113.067 56.2937Z" stroke="white" stroke-width="1.52665" mask="url(#path-1-outside-1_314_556)"/>
<path d="M154.604 65.8475C155.656 67.3048 153.308 69.0051 152.175 67.7096C152.094 67.5477 151.932 67.4667 151.851 67.3048C151.77 67.2239 151.689 67.0619 151.608 66.9C148.126 61.9612 144.888 56.8605 141.811 51.6788C141.73 52.9742 141.73 55.2412 141.649 55.1602C141.73 58.8846 141.811 62.6899 141.811 66.4142C141.892 68.6812 138.411 68.6002 138.33 66.4142C138.33 65.9284 138.33 65.4426 138.33 64.9569C138.33 64.7949 138.33 64.633 138.33 64.552C138.168 53.7029 137.844 42.9347 137.358 32.0855C137.277 31.5997 137.439 31.1949 137.682 30.952C137.844 30.7091 138.087 30.4662 138.492 30.4662C138.573 30.4662 138.654 30.4662 138.654 30.4662C138.816 30.3853 138.897 30.3853 139.059 30.3853C139.949 30.3853 140.759 30.3853 141.649 30.3853C141.811 30.3853 142.054 30.3853 142.216 30.3853C142.378 30.3043 142.459 30.3853 142.54 30.3853C145.617 30.3043 149.017 31.033 150.636 33.9477C152.256 36.7814 151.041 40.6677 149.665 43.4205C148.369 45.8494 146.345 47.8735 143.997 49.3308C147.317 54.9983 150.879 60.5038 154.604 65.8475ZM141.002 34.5954C140.921 34.7573 141.002 34.9192 141.002 35.0812C141.002 35.0812 141.002 35.0812 140.921 35.1621C141.083 38.8865 141.245 42.6108 141.406 46.4161C141.568 46.3352 141.811 46.4161 141.973 46.4971C144.645 44.8778 146.669 42.4489 147.56 39.4532C148.046 37.5911 148.288 35.567 146.345 34.5144C145.374 33.9477 144.24 33.8667 143.188 33.8667C142.783 33.8667 142.216 33.9477 141.811 33.8667C141.73 33.9477 141.649 33.9477 141.568 33.9477C141.568 33.9477 141.568 33.9477 141.568 34.0286C141.406 34.0286 141.326 34.1096 141.164 34.2715C141.164 34.2715 141.164 34.2715 141.083 34.3525C141.083 34.3525 141.083 34.3525 141.083 34.4335C141.002 34.5144 141.002 34.5144 141.002 34.5954Z" stroke="white" stroke-width="1.52665" mask="url(#path-1-outside-1_314_556)"/>
<path d="M198.917 64.714C200.942 63.2566 202.885 66.5761 200.861 68.0335C197.298 70.4624 192.845 72.0007 188.635 70.4624C184.506 68.9241 182.806 65.3617 182.077 61.2325C180.539 52.4075 179.486 43.5014 178.596 34.5954C176.571 34.9192 175.357 32.0855 177.219 31.033C177.462 30.871 177.705 30.7901 177.948 30.7091C178.029 30.7091 178.11 30.7091 178.191 30.7091C179.486 30.3853 180.782 30.1424 181.996 29.8185C183.291 29.5756 184.506 29.4137 185.801 29.3327C187.097 29.3327 188.392 29.3327 189.688 29.3327C191.793 29.4137 192.359 32.6523 190.173 33.138C190.011 33.219 189.85 33.219 189.688 33.219C189.526 33.219 189.445 33.219 189.364 33.219C189.283 33.219 189.202 33.219 189.04 33.219C188.149 33.219 187.178 33.219 186.206 33.219C184.992 33.219 183.777 33.3809 182.563 33.6238C182.482 33.6238 182.401 33.7048 182.401 33.7048C182.725 37.2672 183.13 40.8296 183.534 44.3111C183.777 44.392 183.939 44.473 184.101 44.554C184.182 44.6349 184.263 44.6349 184.344 44.6349C184.425 44.7159 184.587 44.7968 184.668 44.8778C184.992 44.7968 185.397 44.7159 185.558 44.7159C186.368 44.554 187.097 44.473 187.825 44.3111C189.364 44.0682 190.902 43.8253 192.359 43.5824C194.869 43.1776 195.841 46.9019 193.412 47.3067C191.307 47.6306 189.121 48.0354 187.016 48.3593C186.044 48.5212 185.073 48.7641 184.101 48.845C184.425 51.193 184.83 53.541 185.154 55.8079C185.639 59.1275 185.639 64.2282 188.797 66.2523C192.117 68.3574 196.003 66.6571 198.917 64.714Z" stroke="white" stroke-width="1.52665" mask="url(#path-1-outside-1_314_556)"/>
<path d="M283.914 45.9303C284.076 52.8932 281.566 60.4229 275.737 64.4711C270.393 68.1954 262.459 67.9525 258.249 62.6899C253.958 57.3463 254.039 48.6831 256.225 42.5299C258.33 36.7814 263.026 31.9236 269.098 31.033C269.422 30.871 269.827 30.871 270.151 30.952C270.636 30.952 271.122 30.871 271.608 30.952C272.094 30.952 272.499 31.1139 272.741 31.4378C272.822 31.4378 272.822 31.4378 272.903 31.4378C273.794 31.5188 274.685 31.7617 275.494 32.0855C277.194 32.7332 278.733 33.7858 279.947 35.0812C282.7 38.0768 283.833 42.0441 283.914 45.9303ZM276.385 59.2084C279.947 54.9173 281.243 48.3593 280.109 43.0156C279.542 40.1819 278.085 37.5911 275.656 36.0527C274.523 35.3241 273.227 34.8383 271.77 34.8383C270.717 34.8383 269.908 35.0002 268.936 34.5954C263.431 35.7289 259.868 40.9915 258.816 46.4971C257.763 51.4359 257.925 58.6417 262.378 61.9612C266.831 65.1998 273.146 63.0947 276.385 59.2084Z" stroke="white" stroke-width="1.52665" mask="url(#path-1-outside-1_314_556)"/>
<path d="M448.68 78.5588C450.137 76.5347 453.457 78.4778 451.999 80.5019C444.955 90.7034 433.621 96.8567 421.557 99.2046C402.126 102.929 380.994 100.014 363.425 90.7034C349.256 83.1738 337.031 70.3815 335.573 53.9458C335.411 52.7313 335.33 51.5168 335.33 50.3024C335.33 44.7159 336.626 38.8865 340.269 34.5954C343.589 30.5472 348.77 28.3612 353.952 29.2518C356.381 29.6566 355.409 33.3809 352.899 32.9761C347.313 32.0855 342.617 36.4576 340.674 41.3154C339.621 44.1491 339.055 47.4687 339.136 50.6262C339.217 50.8691 339.298 51.193 339.298 51.5169C339.459 60.18 343.022 68.1954 348.77 74.6725C359.781 87.141 376.703 93.942 392.896 96.128C412.327 98.7998 436.616 95.9661 448.68 78.5588Z" stroke="white" stroke-width="1.52665" mask="url(#path-1-outside-1_314_556)"/>
<path d="M395.284 65.3617C395.689 67.5477 392.369 68.4383 391.884 66.2523C390.75 60.4229 389.536 54.5125 388.321 48.6021C388.159 47.7925 387.997 47.0638 387.835 46.2542C385.73 46.4161 383.544 46.578 381.358 46.74C379.172 53.46 377.229 60.18 375.529 66.981C374.962 69.167 371.562 68.2764 372.128 66.0904C375.367 53.6219 379.253 41.3964 383.787 29.3327C384.435 27.6325 387.026 27.9563 387.269 29.4137C388.807 30.7091 388.807 33.5429 389.212 35.3241C389.86 38.5626 390.507 41.8012 391.155 45.0397C392.531 51.8407 393.908 58.5607 395.284 65.3617ZM382.573 43.1776C384.111 43.0966 385.649 42.9347 387.188 42.8537L386.621 39.939C386.297 38.4817 385.973 36.9433 385.649 35.486C385.649 35.1621 385.568 34.9192 385.487 34.6764C384.516 37.5101 383.463 40.3438 382.573 43.1776Z" stroke="white" stroke-width="1.52665" mask="url(#path-1-outside-1_314_556)"/>
<path d="M424.239 51.274C426.587 53.7838 427.639 57.0224 426.506 60.3419C425.453 63.3376 422.943 65.7665 419.786 66.3333C417.6 66.7381 416.628 63.4186 418.895 63.0137C423.024 62.2851 424.806 57.4272 422.134 54.1887C420.757 52.4884 418.895 51.274 417.357 49.7356C415.9 48.2783 414.766 46.5781 414.118 44.6349C412.661 40.5058 413.552 35.8098 416.385 32.4903C417.519 31.1139 419.381 29.3327 421.162 29.0089C422.701 28.766 424.482 29.6566 424.32 31.3568C424.077 32.9761 422.296 33.3809 421.324 32.7332C421.243 32.8142 421.162 32.8951 421 32.8951C420.838 33.0571 420.595 33.219 420.434 33.3C420.029 33.6238 419.705 33.9477 419.381 34.2715C418.733 35.0002 418.167 35.8098 417.762 36.7005C416.871 38.6436 416.709 40.8296 417.195 42.8537C418.247 46.74 421.729 48.5212 424.239 51.274Z" stroke="white" stroke-width="1.52665" mask="url(#path-1-outside-1_314_556)"/>
<path d="M469.983 65.3617C470.388 67.5477 467.068 68.4383 466.582 66.2523C465.449 60.4229 464.234 54.5125 463.02 48.6021C462.858 47.7925 462.696 47.0638 462.534 46.2542C460.429 46.4161 458.243 46.578 456.057 46.74C453.871 53.46 451.928 60.18 450.228 66.981C449.661 69.167 446.26 68.2764 446.827 66.0904C450.066 53.6219 453.952 41.3964 458.486 29.3327C459.134 27.6325 461.724 27.9563 461.967 29.4137C463.506 30.7091 463.506 33.5429 463.91 35.3241C464.558 38.5626 465.206 41.8012 465.854 45.0397C467.23 51.8407 468.606 58.5607 469.983 65.3617ZM457.271 43.1776C458.81 43.0966 460.348 42.9347 461.886 42.8537L461.32 39.939C460.996 38.4817 460.672 36.9433 460.348 35.486C460.348 35.1621 460.267 34.9192 460.186 34.6764C459.215 37.5101 458.162 40.3438 457.271 43.1776Z" stroke="white" stroke-width="1.52665" mask="url(#path-1-outside-1_314_556)"/>
<path d="M522.501 30.5472C522.906 43.5014 523.392 56.5366 523.959 69.4908C524.12 71.434 521.044 71.8388 520.558 69.9766C520.477 69.4908 520.396 69.0051 520.234 68.6002C520.153 68.1145 520.234 67.7096 520.396 67.3858C519.991 57.4272 519.587 47.4687 519.263 37.5101V37.5911C519.182 37.672 519.182 37.672 519.101 37.753C517.401 40.1009 515.781 42.5299 514.243 44.9588C514.243 45.1207 514.162 45.2826 514.081 45.4446C511.49 49.6547 509.304 54.1077 507.442 58.8036C506.956 59.9371 505.823 60.18 504.932 59.8561C504.284 59.8561 503.637 59.4513 503.313 58.6417C501.127 52.5694 498.617 46.5781 495.783 40.7486C496.431 48.6021 496.674 56.3747 496.593 64.2282C496.755 64.552 496.836 64.9569 496.755 65.3617C496.674 65.9284 496.593 66.4952 496.512 67.0619C496.188 69.0051 493.03 68.5193 493.111 66.5761C493.273 54.7554 492.706 43.0156 491.411 31.2759C491.087 29.0898 494.65 29.0898 494.893 31.2759V31.3568C498.941 38.8055 502.422 46.578 505.499 54.5125C506.632 51.9217 507.766 49.3308 509.142 46.9019C511.895 40.7486 515.538 34.8383 519.101 29.0898C519.101 29.0089 519.182 28.9279 519.182 28.8469C519.667 26.6609 523.068 27.6325 522.501 29.8185C522.501 29.8995 522.501 29.9804 522.42 30.0614C522.501 30.2233 522.501 30.3853 522.501 30.5472Z" stroke="white" stroke-width="1.52665" mask="url(#path-1-outside-1_314_556)"/>
<path d="M568.072 64.714C570.096 63.2566 572.039 66.5761 570.015 68.0335C566.453 70.4624 562 72.0007 557.789 70.4624C553.66 68.9241 551.96 65.3617 551.231 61.2325C549.693 52.4075 548.641 43.5014 547.75 34.5954C545.726 34.9192 544.511 32.0855 546.374 31.033C546.617 30.871 546.859 30.7901 547.102 30.7091C547.183 30.7091 547.264 30.7091 547.345 30.7091C548.641 30.3853 549.936 30.1424 551.15 29.8185C552.446 29.5756 553.66 29.4137 554.956 29.3327C556.251 29.3327 557.547 29.3327 558.842 29.3327C560.947 29.4137 561.514 32.6523 559.328 33.138C559.166 33.219 559.004 33.219 558.842 33.219C558.68 33.219 558.599 33.219 558.518 33.219C558.437 33.219 558.356 33.219 558.194 33.219C557.304 33.219 556.332 33.219 555.361 33.219C554.146 33.219 552.932 33.3809 551.717 33.6238C551.636 33.6238 551.555 33.7048 551.555 33.7048C551.879 37.2672 552.284 40.8296 552.689 44.3111C552.932 44.392 553.094 44.473 553.255 44.554C553.336 44.6349 553.417 44.6349 553.498 44.6349C553.579 44.7159 553.741 44.7968 553.822 44.8778C554.146 44.7968 554.551 44.7159 554.713 44.7159C555.523 44.554 556.251 44.473 556.98 44.3111C558.518 44.0682 560.057 43.8253 561.514 43.5824C564.024 43.1776 564.995 46.9019 562.566 47.3067C560.461 47.6306 558.275 48.0354 556.17 48.3593C555.199 48.5212 554.227 48.7641 553.255 48.845C553.579 51.193 553.984 53.541 554.308 55.8079C554.794 59.1275 554.794 64.2282 557.951 66.2523C561.271 68.3574 565.157 66.6571 568.072 64.714Z" stroke="white" stroke-width="1.52665" mask="url(#path-1-outside-1_314_556)"/>
<path d="M612.684 66.819C612.684 66.9 612.684 66.9 612.684 66.981C612.765 68.1145 612.522 69.086 611.55 69.4099C610.336 69.7337 609.121 68.8431 608.312 67.9525C608.15 67.7906 607.988 67.7096 607.826 67.4668C604.182 62.8518 601.268 57.832 599.082 52.3265C598.191 50.0595 597.381 47.7115 596.653 45.3636C596.977 52.8123 597.3 60.261 597.543 67.7906C597.624 70.1386 594.305 69.8957 594.062 67.7906C594.062 67.4668 593.981 67.2239 593.981 66.9C593.9 66.6571 593.9 66.4142 593.981 66.1713C593.657 54.4316 593.09 42.6108 592.281 30.871C592.119 28.8469 595.033 28.685 595.6 30.3853C595.681 30.4662 595.762 30.6282 595.762 30.7901C595.843 31.3568 596.005 31.9236 596.086 32.5713C596.167 32.6523 596.167 32.8142 596.248 32.9761C599.729 43.5014 602.644 54.5125 609.283 63.6614C608.15 52.7313 607.583 41.8012 607.502 30.871C607.502 28.685 610.983 28.685 610.983 30.871C611.064 41.7202 611.631 52.5694 612.684 63.3376C612.684 63.4185 612.684 63.4995 612.684 63.5805V64.1472C612.684 64.2282 612.684 64.3092 612.684 64.3092C612.603 65.1188 612.684 66.0094 612.684 66.819Z" stroke="white" stroke-width="1.52665" mask="url(#path-1-outside-1_314_556)"/>
<path d="M651.989 27.6325C654.255 27.4706 654.255 31.033 651.989 31.1139C649.641 31.2759 647.212 31.4378 644.783 31.5997C645.916 42.9347 646.402 54.4315 646.321 65.8475C646.321 68.1145 643.083 68.0335 642.84 65.8475L642.759 64.552C642.678 64.2282 642.759 63.9043 642.84 63.6614C642.84 53.0552 642.354 42.3679 641.382 31.7617C639.52 31.9236 637.658 32.0045 635.796 32.1665C633.529 32.2474 633.61 28.766 635.796 28.685C641.22 28.3612 646.564 27.9563 651.989 27.6325Z" stroke="white" stroke-width="1.52665" mask="url(#path-1-outside-1_314_556)"/>
<path d="M698.681 45.9303C698.843 52.8932 696.333 60.4229 690.503 64.4711C685.16 68.1954 677.225 67.9525 673.015 62.6899C668.724 57.3463 668.805 48.6831 670.991 42.5299C673.096 36.7814 677.792 31.9236 683.864 31.033C684.188 30.871 684.593 30.871 684.917 30.952C685.403 30.952 685.888 30.871 686.374 30.952C686.86 30.952 687.265 31.1139 687.508 31.4378C687.589 31.4378 687.589 31.4378 687.669 31.4378C688.56 31.5188 689.451 31.7617 690.26 32.0855C691.961 32.7332 693.499 33.7858 694.713 35.0812C697.466 38.0768 698.6 42.0441 698.681 45.9303ZM691.151 59.2084C694.713 54.9173 696.009 48.3593 694.875 43.0156C694.309 40.1819 692.851 37.5911 690.422 36.0527C689.289 35.3241 687.993 34.8383 686.536 34.8383C685.483 34.8383 684.674 35.0002 683.702 34.5954C678.197 35.7289 674.634 40.9915 673.582 46.4971C672.529 51.4359 672.691 58.6417 677.144 61.9612C681.597 65.1998 687.912 63.0947 691.151 59.2084Z" stroke="white" stroke-width="1.52665" mask="url(#path-1-outside-1_314_556)"/>
</svg>
