<svg width="23" height="31" viewBox="0 0 23 31" fill="none" xmlns="http://www.w3.org/2000/svg">
<path fill-rule="evenodd" clip-rule="evenodd" d="M10.8241 28.3732L10.8259 28.3756C11.0051 28.615 11.2869 28.7561 11.5859 28.7561C11.8849 28.7561 12.167 28.6144 12.3462 28.3751L12.3476 28.3732L12.4452 28.2416C12.5091 28.1552 12.6022 28.0284 12.7205 27.8658C12.9569 27.5407 13.2939 27.072 13.6979 26.4952C14.5053 25.3423 15.5835 23.7533 16.6633 22.0125C17.741 20.2749 18.831 18.3691 19.6546 16.5855C20.4615 14.8382 21.0767 13.0765 21.0767 11.6726C21.0767 9.15548 20.0768 6.74145 18.2969 4.96157C16.517 3.18169 14.103 2.18176 11.5859 2.18176C9.06874 2.18176 6.6547 3.18169 4.87482 4.96157C3.09494 6.74145 2.09502 9.15548 2.09502 11.6726C2.09502 13.0765 2.71023 14.8382 3.5171 16.5855C4.34074 18.3691 5.4307 20.2749 6.50845 22.0125C7.5882 23.7533 8.6664 25.3423 9.47384 26.4952C9.87786 27.072 10.2148 27.5407 10.4513 27.8658C10.5695 28.0284 10.6626 28.1552 10.7265 28.2416L10.7998 28.3406L10.8191 28.3664L10.8241 28.3732ZM11.5861 7.87623C9.48944 7.87623 7.78976 9.57591 7.78976 11.6726C7.78976 13.7692 9.48944 15.4689 11.5861 15.4689C13.6828 15.4689 15.3824 13.7692 15.3824 11.6726C15.3824 9.57591 13.6828 7.87623 11.5861 7.87623Z" fill="#ECC4AD"/>
<path d="M10.7998 28.3406L10.8191 28.3664L10.8241 28.3732L10.8259 28.3756C11.0051 28.615 11.2869 28.7561 11.5859 28.7561C11.8849 28.7561 12.167 28.6144 12.3462 28.3751M10.7998 28.3406C10.783 28.318 10.7584 28.2849 10.7265 28.2416M10.7998 28.3406L10.7265 28.2416M10.7265 28.2416C10.6626 28.1552 10.5695 28.0284 10.4513 27.8658C10.2148 27.5407 9.87786 27.072 9.47384 26.4952C8.6664 25.3423 7.5882 23.7533 6.50845 22.0125C5.4307 20.2749 4.34074 18.3691 3.5171 16.5855C2.71023 14.8382 2.09502 13.0765 2.09502 11.6726C2.09502 9.15548 3.09494 6.74145 4.87482 4.96157C6.6547 3.18169 9.06874 2.18176 11.5859 2.18176C14.103 2.18176 16.517 3.18169 18.2969 4.96157C20.0768 6.74145 21.0767 9.15548 21.0767 11.6726C21.0767 13.0765 20.4615 14.8382 19.6546 16.5855C18.831 18.3691 17.741 20.2749 16.6633 22.0125C15.5835 23.7533 14.5053 25.3423 13.6979 26.4952C13.2939 27.072 12.9569 27.5407 12.7205 27.8658C12.6022 28.0284 12.5091 28.1552 12.4452 28.2416M12.4452 28.2416C12.4133 28.2849 12.3887 28.318 12.3719 28.3406M12.4452 28.2416L12.3719 28.3406M12.4452 28.2416L12.3462 28.3751M12.4452 28.2416L12.3476 28.3732M12.3719 28.3406L12.3527 28.3664L12.3476 28.3732M12.3476 28.3732L12.3462 28.3751M7.78976 11.6726C7.78976 9.57591 9.48944 7.87623 11.5861 7.87623C13.6828 7.87623 15.3824 9.57591 15.3824 11.6726C15.3824 13.7692 13.6828 15.4689 11.5861 15.4689C9.48944 15.4689 7.78976 13.7692 7.78976 11.6726Z" stroke="#ECC4AD" stroke-width="3.16362" stroke-linecap="round" stroke-linejoin="round"/>
</svg>
