<svg width="26" height="26" viewBox="0 0 26 26" fill="none" xmlns="http://www.w3.org/2000/svg">
<path d="M13 0.640381C15.5011 0.640381 17.946 1.38203 20.0255 2.77155C22.1051 4.16107 23.7259 6.13605 24.683 8.44673C25.6401 10.7574 25.8906 13.3 25.4026 15.753C24.9147 18.2061 23.7103 20.4593 21.9418 22.2278C20.1733 23.9963 17.92 25.2007 15.467 25.6886C13.014 26.1766 10.4714 25.9262 8.16072 24.969C5.85004 24.0119 3.87506 22.3911 2.48554 20.3115C1.09602 18.232 0.35437 15.7871 0.35437 13.286C0.35437 9.93218 1.68667 6.71571 4.05819 4.3442C6.4297 1.97268 9.64617 0.640381 13 0.640381ZM18.7875 18.8501C18.8868 18.685 18.9215 18.4891 18.8849 18.2999C18.8484 18.1108 18.7431 17.9419 18.5894 17.8258C18.5245 17.7784 18.4569 17.7348 18.387 17.6951C17.5983 17.2253 16.7618 16.841 15.8916 16.5486C14.3187 16.0336 12.6739 15.7718 11.0188 15.773C10.4582 15.8025 9.89338 15.8236 9.33276 15.8699C8.32837 15.959 7.33125 16.1168 6.3484 16.342C6.27081 16.3583 6.19468 16.3808 6.12078 16.4095C5.95196 16.477 5.81243 16.602 5.72682 16.7625C5.64122 16.9229 5.61503 17.1084 5.65289 17.2862C5.68133 17.466 5.77378 17.6294 5.91321 17.7464C6.05265 17.8634 6.22966 17.926 6.41162 17.9227C6.53669 17.9188 6.661 17.9018 6.78256 17.8722C7.98247 17.6021 9.20412 17.4398 10.4329 17.3874C11.3842 17.3483 12.3369 17.4006 13.2782 17.5434C14.8032 17.7666 16.2705 18.2834 17.5988 19.0651C17.6667 19.1071 17.7371 19.1452 17.8095 19.1789C17.9832 19.2552 18.1787 19.2657 18.3595 19.2082C18.5403 19.1508 18.6939 19.0295 18.7917 18.8669M20.3387 15.3936C20.4714 15.1712 20.5113 14.9055 20.4498 14.6539C20.3883 14.4023 20.2303 14.185 20.0099 14.049L19.8624 13.9604C18.8814 13.3805 17.8378 12.9139 16.7515 12.5694C14.6153 11.8845 12.3752 11.5806 10.1337 11.6716C9.08573 11.7065 8.04312 11.8363 7.01861 12.0594C6.59709 12.1521 6.17557 12.2617 5.77934 12.384C5.58721 12.4446 5.41924 12.5645 5.29957 12.7266C5.1799 12.8887 5.1147 13.0845 5.11334 13.286C5.10881 13.4838 5.1644 13.6784 5.27278 13.844C5.38115 14.0095 5.53721 14.1383 5.72033 14.2134C5.94786 14.2951 6.19674 14.2951 6.42427 14.2134C7.84614 13.8016 9.31938 13.5944 10.7997 13.5979C11.9183 13.5988 13.0345 13.7032 14.1339 13.9099C15.537 14.1618 16.8968 14.6132 18.1721 15.2503C18.3575 15.3458 18.5392 15.4489 18.7209 15.5519C18.8118 15.6034 18.9027 15.6549 18.994 15.7055C19.2141 15.8409 19.4787 15.884 19.7304 15.8256C19.9821 15.7672 20.2006 15.612 20.3387 15.3936ZM20.4862 11.8149C20.665 11.9237 20.8696 11.9828 21.0789 11.9861C21.2882 11.9894 21.4946 11.9367 21.6767 11.8336C21.8589 11.7305 22.0102 11.5807 22.1151 11.3995C22.22 11.2184 22.2747 11.0126 22.2735 10.8032C22.2735 10.7189 22.2734 10.6346 22.2397 10.5503C22.2033 10.3855 22.1318 10.2305 22.0299 10.0959C21.9281 9.96133 21.7983 9.85034 21.6496 9.77052C20.7913 9.27414 19.8863 8.86329 18.9477 8.5439C16.6548 7.77751 14.258 7.36668 11.8408 7.3257C10.8564 7.29622 9.87106 7.32578 8.89017 7.41422C7.96553 7.49195 7.04728 7.63278 6.14185 7.83574C5.77513 7.92005 5.41262 8.01278 5.05433 8.13081C4.82024 8.21035 4.61799 8.36317 4.47754 8.56664C4.33709 8.77011 4.2659 9.0134 4.27451 9.26048C4.28041 9.50951 4.36523 9.75023 4.51674 9.94796C4.66825 10.1457 4.87863 10.2902 5.11756 10.3606C5.33792 10.4239 5.57163 10.4239 5.79199 10.3606C6.15871 10.2637 6.52965 10.1625 6.90059 10.0824C7.90872 9.87267 8.93211 9.7444 9.96083 9.69886C10.8594 9.64871 11.76 9.64871 12.6586 9.69886C13.5222 9.75073 14.3821 9.85206 15.2341 10.0024C16.458 10.2081 17.6573 10.54 18.8128 10.9929C19.3931 11.2358 19.9564 11.5174 20.4988 11.836" fill="white"/>
</svg>
