<svg width="308" height="79" viewBox="0 0 308 79" fill="none" xmlns="http://www.w3.org/2000/svg">
<path d="M4.70434 53.1144C4.08182 53.1144 3.70831 52.8654 3.27255 52.5541C3.14805 51.3091 3.27255 50.2508 3.39705 49.4415C3.70831 46.7647 4.20633 44.0256 5.1401 41.4111C5.1401 41.2243 5.2646 41.0376 5.32686 40.8508C5.57586 40.4773 5.76262 40.2283 5.76262 40.0415C5.76262 39.2945 5.94937 38.8587 6.13613 38.1117C6.50964 37.178 6.8209 36.0574 7.31891 35.1236C7.63017 34.4389 7.75467 33.8786 7.94143 33.1316C8.37719 32.5713 8.43944 31.8243 8.25269 31.0773C8.12818 30.766 7.94143 30.0813 7.87918 29.7078C7.94143 29.023 8.25269 28.525 8.8752 28.525C9.80898 28.6495 10.058 28.276 10.3692 27.4044C11.4898 25.3501 13.6063 20.5568 14.1043 17.8799C14.2911 16.3859 14.6646 14.8919 14.2911 13.3356C14.2288 12.8998 14.0421 12.4018 13.8553 11.717C13.7308 11.4058 13.4818 11.2813 13.0461 11.468C12.6726 11.468 12.5481 11.468 12.299 11.6548C11.1163 12.4018 9.99573 13.1488 9.24871 14.2071C7.13215 16.5104 5.20235 19.1872 3.64606 21.8018C2.96129 22.5488 2.71229 23.3581 2.52553 24.3541C2.27652 24.8521 1.90301 25.1011 1.5295 24.8521C1.03149 24.6031 0.720232 24.2296 0.533477 23.8561C0.0354638 23.4203 -0.026788 22.7978 0.222219 22.3621C0.595729 21.9263 0.782484 21.4905 1.03149 20.9303C2.96129 18.1912 4.8911 15.3899 7.19441 12.8375C8.12818 11.717 9.18646 10.97 10.1202 10.2852C10.9918 9.66271 11.9255 9.60046 13.0461 9.84946C14.6646 10.2852 15.5984 11.2813 16.3454 12.713C16.7189 13.5223 17.0302 14.4561 16.9679 15.2654C16.9057 16.3859 16.7812 17.4442 16.4077 18.5647C16.2209 19.5607 15.7229 20.9925 15.4739 22.2375C14.8514 23.5448 14.5401 24.9144 13.7931 26.4084C13.5441 26.7197 13.4818 27.3422 13.1083 27.9647C13.4196 28.276 13.5441 28.4005 13.6686 28.4005C17.9639 27.8402 22.3216 28.276 26.4924 28.6495C26.6792 28.6495 26.9904 28.6495 26.9904 28.4627C27.1772 27.9647 27.4262 27.6534 27.613 27.1554C28.6712 23.8561 29.7918 20.619 30.9123 17.4442L31.0991 16.9462C31.5348 16.1369 31.9083 15.8256 32.5308 15.8879C33.4024 15.8879 33.5269 16.0746 33.9004 16.8217C34.2116 17.3819 34.2739 18.0667 33.9626 18.6892C33.7136 19.4985 33.4024 20.37 32.9044 21.2415L31.6593 24.7899C31.3481 25.5369 30.85 26.4084 30.6633 27.0932C30.2898 27.6534 30.103 28.4627 29.7918 29.023C30.1653 29.2097 30.352 29.272 31.2858 29.5832C31.9083 29.77 32.2196 29.8945 33.4646 30.5793L34.7719 31.5753C35.2699 32.2601 34.1494 32.3223 33.7759 32.2601C32.4063 32.3223 32.1573 31.5753 31.2858 31.6376C31.0991 31.6376 30.9745 31.6376 30.7878 31.5753C30.4765 31.513 29.4183 31.2018 29.107 31.264L28.7957 32.0733C28.609 32.5091 28.36 33.8786 28.0487 34.5634C27.862 34.6879 27.6752 34.8124 27.4885 34.8746C26.8659 35.0614 26.6792 35.2481 27.1149 35.7462C27.5507 36.1197 27.5507 36.5554 27.4262 36.9912C27.0527 37.6137 26.9282 38.1117 26.6792 38.7965C26.4924 39.17 26.3679 39.4813 26.1812 39.668C26.0567 39.668 25.8077 40.5395 25.8699 40.6018C25.8077 41.0998 25.6832 41.4111 25.6832 41.7846C25.6209 42.1581 25.4341 42.5938 25.4341 43.3409C25.4341 44.1501 25.5587 44.9594 25.7454 45.5819L25.9944 46.1422V46.6402L25.6832 47.0137C24.9361 46.6402 24.6871 46.2667 24.1891 45.5819C23.8779 45.1462 23.6911 44.5237 23.4421 43.8389C23.2553 42.7184 23.1931 41.7846 23.3798 40.7263C23.8156 37.8627 25.5587 32.2601 25.6832 31.6998C25.7454 31.6376 25.8077 31.4508 25.9322 30.8283C25.5587 30.766 24.9361 30.8283 24.6249 30.8283C24.1891 30.766 23.8779 30.766 23.4421 30.766H22.8818C22.1971 30.7038 21.5123 31.0773 21.0143 30.9528C20.3295 30.8283 19.8938 30.8905 19.3335 30.9528C18.711 30.9528 17.9639 30.8905 17.3414 31.015C16.2832 31.2018 15.1626 31.2018 13.9798 31.3885C13.2328 31.3885 12.4858 31.6998 11.801 31.7621C11.1785 31.8866 11.1163 32.3846 10.9918 32.6336C10.4315 34.1899 9.99573 35.7462 9.18646 37.1157C8.6262 39.0455 8.12818 40.9753 7.44341 42.8429C7.13216 43.9011 6.8209 45.1462 6.44739 46.2667C6.26063 47.076 6.13613 49.7528 6.13613 50.5621C6.13613 51.3091 6.01163 51.8071 5.63812 52.5541C5.51361 52.8654 5.2646 53.1144 4.70434 53.1144Z" fill="white"/>
<path d="M59.4309 33.0693L58.4971 33.8786C58.3726 34.0031 58.3726 34.1899 58.0613 34.3766L57.8746 34.6256C57.6256 34.7501 57.5011 34.8746 57.6878 35.0614C57.4388 35.2481 57.1898 35.3727 57.1276 35.8084V35.8707C57.0653 36.0574 56.8163 36.3064 56.754 36.3687C56.505 36.6177 56.1938 36.8667 55.9448 37.0534L54.762 37.9872C54.264 38.2362 53.8905 38.4852 53.4547 38.7965C52.8944 39.1078 52.3964 39.5435 51.7739 39.7925C51.4004 39.9793 50.9646 39.9793 50.5289 40.0415C50.2799 40.0415 50.1554 40.1038 49.9686 40.2283C49.7196 40.3528 49.3461 40.415 49.0348 40.4773C48.5368 40.6018 48.1011 40.7263 47.603 40.664C46.9805 40.6018 46.2958 40.4773 45.7355 40.2905C45.1752 40.1038 44.9262 40.0415 44.3037 39.5435C44.2415 39.419 44.0547 39.3568 43.9924 39.2945C43.5567 38.9832 43.3077 38.6097 42.9342 38.0495C42.8097 37.925 42.8097 37.925 42.6852 37.3025C42.3739 36.5554 42.4362 36.1197 42.4362 35.6839C42.4984 34.4389 42.8097 33.2561 43.4322 32.0733C43.6812 31.6998 43.9302 31.3263 44.2415 30.9528C44.8017 30.268 45.362 29.6455 45.9222 29.023C46.4825 28.4627 47.1673 28.0892 47.9766 28.027C48.1633 28.027 48.3501 27.9647 48.5991 27.9025C49.2216 27.6534 49.7819 28.0892 50.2176 28.3382C50.7779 28.5872 51.2759 28.9607 51.7117 29.3342C52.2097 29.6455 52.5209 30.7038 52.3342 31.2018C52.2097 31.513 52.0229 31.8243 51.8362 32.0111C51.2759 32.6336 50.7156 33.1938 50.1554 33.7541C49.9686 33.9409 49.5951 34.0031 49.5328 34.1899C49.4706 34.6256 49.0348 34.6879 48.7858 34.8124L47.9143 35.4349C47.8521 35.4972 47.8521 35.6839 47.7898 35.7462C47.354 35.9952 46.856 36.1819 46.4825 36.4309C46.2958 36.4932 46.1713 36.6799 46.0468 36.8044C45.5487 37.0535 45.362 37.1157 44.9262 37.3647C45.1752 38.1117 45.2997 38.2362 45.7977 38.423C46.607 38.3607 47.4163 38.423 48.2256 38.2985C48.7858 38.2362 49.3461 37.9872 49.9064 37.8005C50.3421 37.6137 50.8401 37.3647 51.3381 37.178C51.6494 37.0534 51.9607 37.0535 52.2719 36.8667L54.3262 35.6839L54.513 35.5594C55.0732 35.1859 56.256 34.5011 56.8785 34.1276C57.1276 34.0031 57.5011 33.8164 57.6256 33.6919L59.7421 32.1356L59.8666 32.5713C59.8666 32.5713 59.9289 32.5713 59.9289 32.6336C59.7421 32.7581 59.6176 32.9448 59.4309 33.0693ZM44.864 34.8746C45.362 34.5634 45.6732 34.3766 45.9222 34.1899L47.603 32.8203L49.2838 31.3263C49.6573 31.015 49.9064 30.6415 50.1554 30.2058C50.3421 29.8945 50.0309 29.3342 49.7819 29.4587C49.2216 29.7078 48.6613 29.7078 48.1633 30.0813C47.603 30.517 47.0428 30.8283 46.607 31.3885C46.109 32.0733 45.6732 32.8203 45.2997 33.5674C45.113 33.9409 44.9885 34.3766 44.864 34.8746Z" fill="white"/>
<path d="M85.1048 45.3952C84.8558 45.5197 83.424 45.5197 82.8638 45.0217C82.3035 44.7104 81.8677 44.0256 81.5565 43.2786C81.432 42.7184 81.0585 41.9091 80.9962 41.0376C80.9962 40.2283 80.8094 39.3568 80.8717 38.7342L80.8094 37.3647C80.6227 37.3025 80.4359 37.3647 80.0624 37.676C80.0624 37.8005 79.9379 37.8005 79.8757 37.8627C79.0664 38.672 78.1949 39.2945 77.5101 40.1038C77.0743 40.664 76.4518 40.8508 75.9538 41.2243L75.5181 41.5978C75.3313 41.5978 75.1445 41.5356 74.8333 41.4733L74.1485 41.1621C73.8995 41.2243 73.775 41.0998 73.7128 40.8508C73.7128 40.7263 73.526 40.7263 73.4638 40.5395C73.4015 40.415 73.1525 40.2905 73.1525 40.166L72.779 38.7965C72.9035 37.925 73.2147 36.1197 73.3392 35.1859C73.4015 35.1236 73.3392 34.9991 73.2147 34.8124C72.4677 35.7462 71.783 36.5554 71.4717 36.9912L70.5379 38.174L70.1644 38.9832C69.5419 39.8548 69.0439 40.7263 68.4836 41.5978C68.2969 41.9091 67.9234 42.0336 67.6743 42.2826C67.5498 42.3448 67.4253 42.4693 67.3631 42.6561L66.8651 43.0296L66.0558 42.5316C65.6823 42.0336 65.5578 41.4111 65.62 40.7263C65.8068 38.6097 66.2426 36.5554 66.8028 34.5011C67.1141 33.3183 67.3008 32.0733 67.6121 30.8905C67.6121 30.5793 67.7366 30.268 67.6121 30.019C67.5498 29.8945 67.7989 29.6455 67.7989 29.521C68.2969 29.5832 68.4836 29.5832 68.8571 29.7078C69.2929 29.8323 69.6041 29.9568 69.7287 30.517C69.8532 31.1395 69.7909 31.8243 69.6041 32.4468C69.4796 33.2561 69.3551 34.0654 69.1061 34.9369C69.0439 35.4349 68.2969 37.3647 68.1724 38.0495C68.3591 37.9872 68.4836 37.925 68.5459 37.8627C68.7326 37.4892 69.0439 37.0534 69.8531 35.6839C70.4134 34.9991 70.8492 34.0654 71.534 33.3806C71.9697 32.9448 72.3432 32.4468 72.8412 32.0733C73.0902 31.8866 73.277 31.9488 73.526 32.1356C73.8995 32.5713 74.4598 32.8203 75.0823 32.6336C75.3313 32.5091 75.5181 32.6336 75.7671 32.6336C75.9538 33.0693 75.8293 33.5674 75.9538 34.0654C76.0161 34.1899 76.0783 34.4389 76.0161 34.6256C75.9538 35.1859 76.0783 35.7462 75.8293 36.2442C75.6426 36.7422 75.5181 38.1117 75.3936 38.7965C76.2028 38.1117 77.1989 37.1157 77.8836 36.5554C78.2571 36.2442 78.6929 35.9329 79.1287 35.6839C79.3777 35.4972 79.6267 35.3727 80.1247 34.9369C80.3114 34.8746 80.6227 34.8124 80.7472 34.9369C81.3697 35.1236 81.6187 35.4349 82.2412 35.6839L82.6147 36.2442C83.175 36.2442 83.175 36.8667 83.1128 37.3025C83.175 37.4892 83.175 37.8005 83.175 38.1117V38.423C82.926 38.7965 83.175 39.2323 83.1128 39.6058C83.175 40.166 83.175 40.7263 83.2995 41.2243C83.424 41.5978 83.424 41.8468 83.7353 43.0296C84.1088 43.7766 84.6068 44.0879 85.4783 43.7766C85.6028 43.6521 85.8518 44.0879 85.7273 44.3369C85.7273 44.4614 85.6028 44.5237 85.4783 44.6482C85.4783 44.8349 85.4783 44.9594 85.1048 45.3952Z" fill="white"/>
<path d="M98.6081 25.5369C98.4213 25.4124 98.1101 25.2879 97.9233 25.1011C97.5498 24.6654 97.4253 24.1674 97.5498 23.5448C97.8611 22.6111 98.5458 22.1753 99.3551 21.7395C99.4173 21.6773 99.6664 21.6773 99.6664 21.6773C100.351 21.615 100.725 21.8018 100.849 22.2375C101.036 22.8601 101.285 23.5448 101.036 24.2296C100.787 24.9144 100.227 25.2879 99.6664 25.6614C99.3551 25.7859 98.9816 25.7859 98.6081 25.5369ZM94.7485 39.2945C94.624 38.2362 94.873 37.0534 95.1842 35.9329C95.3087 35.1236 95.5577 34.3144 95.8067 33.5051C96.0558 32.3846 96.367 31.3263 96.6783 30.1435V29.6455C96.616 29.3965 96.6783 29.2097 96.9273 29.2097C97.114 29.1475 97.3008 29.023 97.4875 29.3342C97.6743 29.6455 98.1101 29.8323 98.2968 30.1435C98.5458 30.3303 98.8571 30.5793 98.9816 30.8283C99.1061 31.0773 99.1061 31.4508 99.0438 31.7621C99.0438 32.1356 98.9193 32.4468 98.7948 32.7581C98.6081 33.5051 98.3591 34.2521 98.1101 35.0614C97.9856 35.3104 97.8611 35.5594 97.7988 35.8084C97.7366 35.9329 97.6743 35.9952 97.6743 36.1197C97.8611 36.6799 97.4875 37.2402 97.4253 37.8627C97.4253 38.423 97.2385 38.9832 97.1763 39.6058C97.8611 39.419 98.4213 39.17 98.9193 38.7342C99.9154 37.8627 101.036 36.9912 101.97 36.0574C102.966 35.1859 103.837 34.1899 104.771 33.3183C105.518 32.6336 106.327 31.9488 107.137 31.1395C107.261 31.264 107.323 31.6376 107.012 32.1978L106.95 32.2601C106.888 32.3223 105.518 34.5011 105.145 34.9369C104.895 35.2482 104.771 35.8084 103.899 37.0534L103.215 38.0495C103.09 38.174 103.028 38.3607 102.903 38.4852L102.592 38.7965C102.094 39.1078 101.658 39.6058 101.285 40.1038C101.036 40.415 100.725 40.664 100.351 40.9131C100.102 41.1621 99.7286 41.2243 99.3551 41.3488C98.9816 41.5356 98.5458 41.7223 98.1101 41.9713C97.612 42.0958 97.3008 41.9091 96.865 41.7846C96.2425 41.6601 95.9935 41.0998 95.5577 40.7886C95.4332 40.7263 95.4332 40.5395 95.371 40.415C95.3087 40.2283 95.1842 40.0415 95.0597 39.917C94.9975 39.668 94.8107 39.5435 94.7485 39.2945Z" fill="white"/>
<path d="M119.096 43.5276C118.286 43.7144 117.726 43.7766 116.606 43.2786C116.294 43.1541 115.859 42.7806 115.672 42.5938C115.361 42.2203 115.112 41.8468 114.738 41.4111C114.427 40.9753 114.302 40.4773 114.053 39.917C113.867 39.3568 113.742 38.672 113.618 37.9872C113.431 36.4309 113.431 35.3727 113.618 33.5674C113.68 32.7581 113.68 32.1356 114.116 29.6455L114.489 27.5912C114.489 27.3422 114.489 27.2177 114.614 26.7197C114.8 26.0349 114.863 25.7236 115.049 24.8521C115.236 24.1674 115.361 23.2958 115.672 22.4866C115.921 21.5528 116.294 20.5568 116.543 19.6852C116.792 19.2495 116.979 18.6892 117.228 18.1912C117.353 17.8177 117.353 17.4442 117.602 17.0707C117.664 16.9462 119.158 13.1488 119.158 13.0243C119.282 12.962 119.78 12.1528 119.843 11.9038L120.278 10.472L120.776 9.4137C120.839 9.2892 120.963 9.2892 121.025 9.1647L123.453 4.68257C123.889 3.8733 124.449 3.06403 125.01 2.50376C125.57 2.00575 126.13 1.44549 126.628 0.947474C127.313 0.262707 128.06 0.44946 128.931 0.698467C129.18 0.822969 129.492 0.947474 129.678 1.07198C129.99 1.19648 130.301 1.44549 130.55 1.69449L130.924 2.00575C130.986 2.068 130.986 2.19251 130.924 2.25476C130.986 2.75277 130.986 3.06403 131.11 3.37529L131.048 4.37132C131.048 4.86933 130.612 4.80708 130.799 5.30509L130.176 8.41768C130.488 8.79118 130.052 9.2892 129.927 9.35145L130.052 9.53821L129.367 10.4097L129.118 11.468C128.994 11.6548 128.869 11.9038 128.745 12.0283C128.62 12.215 128.745 12.4018 128.807 12.5263C128.869 12.8998 128.745 13.2733 128.62 13.6468C128.558 13.5846 124.761 20.3077 124.325 20.9303L120.963 25.1634C120.839 25.1011 120.776 25.1634 120.776 25.1634C120.465 25.4124 120.465 25.7236 120.278 25.9104L119.033 27.0932C118.349 27.8402 117.353 28.8985 116.543 29.5832C116.232 30.0813 115.921 31.264 115.796 32.0733C115.672 33.0693 115.423 34.7501 115.485 35.8084C115.547 37.4892 115.796 38.921 116.294 40.1038C116.543 40.7263 117.104 41.5978 117.539 41.7846C118.535 42.2203 119.096 41.7846 120.092 41.0998C121.088 40.664 120.403 43.1541 119.096 43.5276ZM117.602 25.1011C118.1 24.5409 118.847 23.4826 119.407 22.8601C120.154 21.9263 121.025 20.8058 121.71 19.8097C122.208 19.3117 122.644 18.6892 123.018 18.1289C123.516 17.3819 123.889 16.6349 124.387 15.8256C124.947 14.5806 125.508 13.5223 126.13 12.215C126.504 11.3435 127.002 10.2852 127.313 9.1647C127.749 8.10642 127.998 7.04814 128.184 5.86536C128.558 4.86933 128.62 3.7488 128.869 2.69052C128.807 2.69052 128.745 2.69052 128.62 2.62827L128.184 3.00178C128.122 3.12628 128.06 3.25079 127.935 3.37529C127.375 3.93555 126.753 4.49582 126.379 5.18059C125.819 5.86536 125.259 6.55012 124.947 7.3594C124.698 8.16867 124.076 8.85344 123.64 9.53821C123.329 10.1607 122.893 10.7832 122.644 11.4058C122.333 12.0283 122.022 12.8375 121.773 13.5223C121.648 13.7713 121.524 14.0826 121.399 14.2693C121.088 14.8296 120.963 15.3276 120.776 15.7634C120.59 16.1991 120.403 16.5726 120.403 16.8839C120.278 17.2574 120.341 17.5064 120.216 17.8177C119.967 18.3779 119.718 19.2495 119.345 19.872C119.033 20.8058 118.784 21.7395 118.349 22.6111C118.286 22.7978 118.1 22.9846 117.975 23.3581L117.602 25.1011Z" fill="white"/>
<path d="M150.951 36.9289L151.075 37.676C150.764 38.174 150.204 38.7965 150.079 39.0455C149.892 39.17 149.581 39.5435 149.457 39.5435C149.021 39.8548 148.585 39.917 148.087 40.415L146.78 41.1621L144.041 43.2164L142.733 43.9011L142.36 43.9634C142.235 44.3991 142.111 44.7727 141.737 45.1462C141.551 45.2707 141.613 45.8309 141.426 45.8932C141.364 46.1422 141.239 46.2667 141.239 46.5157H141.364C141.239 46.5157 140.306 52.7409 140.243 53.1144C140.119 53.6124 139.994 55.6667 139.559 55.978C139.683 56.4137 139.434 56.5382 139.372 56.4137H139.309L138.998 58.4058C138.874 58.5303 138.251 60.0243 138.127 60.5846L137.131 65.0045L134.454 70.6071L133.333 73.2217L132.213 74.9025L131.59 75.8985C131.279 76.023 130.781 76.3343 130.158 76.5833C129.66 77.019 128.54 77.8283 128.602 77.8283C127.98 78.3263 126.361 78.2018 125.614 78.3886C125.241 78.4508 124.618 78.4508 124.182 78.2641C122.253 77.8905 121.132 76.8945 120.011 75.3382C119.762 74.778 119.327 74.0309 119.015 73.2839C118.393 72.3502 118.206 71.2296 118.58 70.1091C118.58 69.6111 118.58 69.4243 118.517 69.2376C118.704 68.2415 118.829 67.4323 118.829 66.7475C119.327 64.6309 120.198 62.5766 121.319 60.6468C122.377 58.8415 123.56 57.1607 124.743 55.6045C125.863 54.1104 127.295 52.7409 128.602 51.3713C130.034 50.1886 131.466 48.8813 132.96 47.7607C133.769 47.1382 134.641 46.5157 135.325 46.0177C136.01 45.5197 136.57 45.3329 136.944 44.8972C137.504 44.5859 138.127 44.0879 138.562 43.9011C139.247 43.5276 139.185 43.0919 139.185 42.5316C139.309 41.9091 139.559 41.4111 139.496 40.7886C139.683 39.8548 139.807 39.1078 139.87 38.2985C140.181 36.9289 140.368 35.7462 140.43 34.6256C140.368 34.1899 140.555 33.8164 140.617 33.4429L140.181 33.3183C139.247 33.8786 138.5 34.8124 137.504 35.6839C136.757 35.9952 136.321 36.6799 135.574 37.0534C135.076 37.427 134.765 37.8005 134.267 37.925C133.956 37.925 132.524 37.178 132.586 37.0534C132.4 36.6799 132.151 36.1819 132.026 35.8084C131.964 35.1236 132.462 34.8124 132.462 34.3144C132.711 33.5674 132.773 32.5091 132.898 31.6998C132.96 31.264 133.022 30.5793 133.271 30.019C133.396 29.6455 133.396 29.272 133.209 28.8985C133.022 28.7117 133.147 28.3382 133.147 28.1515C133.396 27.9025 133.52 27.7157 133.956 27.7157C134.267 27.8402 134.267 27.7779 134.703 28.027C135.014 28.2137 135.512 28.774 135.886 29.0852C135.886 29.0852 136.01 29.272 135.886 29.521C135.699 29.8323 135.886 30.3925 135.699 31.0773C135.574 31.5131 135.388 32.3846 135.139 33.1316C135.139 33.6296 135.076 33.8786 134.89 34.3766C135.201 34.1899 135.699 33.8786 135.823 33.6919C136.384 33.3806 136.757 32.6336 137.255 32.2601C137.878 31.8866 138.251 31.3263 138.811 30.9528C139.559 30.3303 140.119 29.7078 140.866 29.3342C141.239 28.8985 141.364 28.7117 141.8 28.9607C141.924 29.2097 142.298 29.2097 142.547 29.2097C142.671 29.2097 142.92 29.3342 143.045 29.3342V29.4587L143.169 29.8945C143.605 30.0813 143.356 30.3303 143.854 30.3303L143.729 31.015C143.667 31.4508 143.48 32.5091 143.418 32.6958V32.8203C143.48 33.5051 143.045 34.5011 143.107 34.8746C142.92 35.3104 142.982 35.8084 142.92 36.2442C142.92 36.4309 142.796 36.6799 142.796 36.6799C142.547 36.8667 142.484 37.178 142.609 37.4892C142.92 37.9872 142.547 38.6097 142.609 39.17C142.547 39.2945 142.235 39.7925 142.235 39.917C142.111 40.4773 142.111 40.9131 141.986 41.4733L141.862 41.5978C141.986 41.7846 142.173 41.7846 142.298 41.5978C143.605 40.8508 144.663 40.3528 145.535 39.6058C146.282 39.2323 146.593 39.0455 147.527 38.5475L148.772 37.9872C149.27 37.925 150.702 36.9289 150.951 36.9289ZM121.007 70.4203C121.007 71.1051 121.132 71.6654 121.381 72.4747L121.132 72.8482V73.4084C121.381 73.3462 121.381 73.3462 121.381 73.6574C121.568 73.7819 121.63 73.9064 121.879 74.0932C121.879 74.5912 121.941 74.9025 122.19 75.0892C122.19 75.4005 122.315 75.7117 122.688 75.8985C122.688 75.8985 122.688 76.023 122.751 76.2098H122.875L123.062 76.3343C123.933 76.8323 124.992 76.77 125.925 76.272C126.984 76.0853 128.042 75.2137 128.851 74.4667C129.785 73.5329 130.843 72.5369 131.217 71.3541C131.839 70.1091 132.4 69.1753 132.96 68.117C133.271 67.37 133.396 66.623 133.769 65.876C134.454 63.6972 135.45 61.5184 136.135 59.3396C136.259 58.7793 136.57 57.5342 136.882 56.5382H136.695C136.695 56.1647 137.006 56.0402 136.944 55.9157C137.131 54.7329 137.317 53.6746 137.629 52.5541C137.691 51.3091 137.94 49.6905 138.376 48.321C138.376 47.8852 138.376 47.3872 138.562 47.0137C138.189 47.1382 137.878 47.1382 137.878 47.4495C137.566 47.9475 137.193 48.3833 136.695 48.3833V48.57C136.384 48.7568 136.135 49.0058 136.01 49.0058C135.823 49.2548 135.45 49.3793 135.201 49.6283C134.765 50.1886 134.08 50.8111 133.209 50.9978C133.209 50.9978 133.022 50.9978 133.022 51.1846C132.835 51.4336 132.711 51.7448 132.4 51.8694C132.213 52.1806 131.902 52.4919 131.964 52.5541C131.902 52.5541 131.715 52.5541 131.404 52.7409C131.279 52.7409 131.217 53.0521 131.03 53.2389C130.843 53.2389 130.594 53.4256 130.657 53.5501C130.158 53.9237 129.723 54.6707 129.1 54.7952L128.789 54.9819H129.1C129.038 55.2309 128.727 55.2309 128.789 55.4177C128.664 55.7912 128.291 56.0402 128.104 56.1647C128.104 56.3515 127.98 56.5382 127.606 56.5382C127.482 57.0362 127.233 57.0362 127.17 57.5965C127.17 57.8455 126.984 57.8455 126.797 57.8455C126.361 58.5925 125.614 59.1528 125.241 60.0243C125.116 60.3356 124.743 60.9581 124.618 61.2694C124.494 61.5806 124.182 62.0786 123.871 61.9541L123.684 62.0786C123.871 62.0786 123.871 62.3276 124.058 62.3276C123.871 62.4521 123.747 62.7011 123.435 63.1369C123.062 63.3237 123.124 63.8839 122.688 64.1329C122.377 64.5687 122.315 65.0667 122.253 65.5025C121.941 65.876 121.879 66.4362 121.692 66.872C121.692 67.121 121.63 67.8058 121.319 68.117C120.945 68.9886 121.007 69.6733 121.007 70.4203Z" fill="white"/>
<path d="M224.999 46.3792C224.812 46.566 224.75 46.7527 224.501 46.8772L223.567 47.4997H223.692V47.6242C223.007 47.9978 222.447 47.9978 221.762 47.9355L219.147 47.811C218.276 47.4997 216.035 46.566 215.848 46.6282C214.79 46.2547 213.918 45.6322 212.922 45.0719C211.553 44.3872 210.183 43.5156 208.751 42.6441C207.693 42.0838 204.829 40.403 203.709 39.9673L202.526 39.656C201.468 39.407 200.97 39.3448 200.16 39.3448C199.227 39.3448 198.168 39.407 197.048 40.0918C196.799 40.2163 196.674 40.5275 196.55 40.7766C196.425 40.9633 196.114 40.9633 195.927 41.1501L195.741 41.5858C195.554 41.6481 195.367 41.7726 195.305 41.8348L195.118 42.6441C194.869 43.0176 194.558 43.2666 194.371 43.5779C194.247 43.7646 194.06 44.0136 193.998 44.2627C193.5 44.9474 193.188 45.5699 193.313 46.8772C193.064 47.1885 192.815 46.9395 192.566 46.9395C192.379 47.0017 192.192 46.9395 192.068 46.6905C191.881 46.4415 191.57 46.1925 191.445 45.9435L191.009 44.6362C190.947 44.3872 190.885 44.0759 190.885 43.8891C190.885 43.3911 190.947 42.9554 191.072 42.3329C191.196 41.8971 191.507 41.2123 191.694 40.7766L192.69 39.4693C193.437 38.7845 193.686 38.411 194.558 37.9752L195.367 37.5395C195.741 37.3527 196.239 36.917 196.55 36.4812C197.048 35.6097 197.484 34.8004 198.044 33.6799L200.036 29.4468L200.783 27.8282C199.849 28.264 198.791 28.6375 197.982 28.8242L197.11 29.011C196.239 29.1977 195.243 29.3223 194.309 29.3223C193.935 29.3223 193.935 29.1355 193.686 28.9487C193.437 28.513 193.437 28.1395 193.126 27.9527C193.002 27.2679 193.375 27.0189 193.375 27.0189L194.184 27.2057C194.62 27.2679 194.931 27.2057 195.429 27.2057C195.803 27.1434 196.052 27.1434 196.55 27.0189C197.733 26.7077 197.795 26.7077 198.417 26.5209C200.098 26.0229 200.658 25.8362 201.966 25.0891C202.713 23.4083 203.398 21.7275 203.958 20.2335C205.141 17.2454 206.884 12.7633 208.129 10.7712C209.623 8.40568 211.739 6.91164 214.292 7.2229C216.719 7.47191 217.155 9.27721 216.968 10.7712C216.906 11.705 216.595 13.1368 216.097 14.1328C214.665 17.0587 211.553 21.354 204.643 25.6494C204.145 27.0189 203.46 28.513 203.149 29.26C202.402 30.8785 200.409 34.8004 200.223 34.9872L199.413 36.6057L198.666 37.664C199.787 37.4772 200.596 37.5395 201.53 37.664C202.713 37.8507 203.149 38.0997 203.958 38.2865L204.705 38.5978L205.265 38.9713L206.012 39.2203L206.884 39.7805L207.257 40.0295C207.506 40.4653 208.066 40.8388 208.564 40.7766C209.311 40.8388 209.685 41.4613 210.432 41.7103L211.055 42.2706C211.179 42.2083 211.241 42.2706 211.241 42.2706C211.615 42.7686 211.926 42.9554 212.486 43.0799C212.798 43.0176 213.047 43.3289 213.233 43.5156C213.358 43.5156 213.607 43.7024 213.669 43.7646C214.354 43.7646 214.478 44.0136 214.914 44.4494C215.163 44.6984 215.474 44.5117 215.723 44.6362C216.595 45.1342 217.404 45.3832 218.276 45.7567C219.085 46.1302 219.707 46.068 220.641 46.1925C221.202 46.2547 222.011 46.2547 222.882 46.1925L224.065 46.1302V46.2547L224.999 46.3792ZM205.825 22.4746L207.382 21.2918C210.556 18.864 212.175 16.6852 213.607 14.0083C214.229 12.7633 214.665 11.3315 214.665 10.0865C214.665 9.52622 214.416 8.65469 213.42 8.71694C213.047 8.77919 212.549 8.96595 212.3 9.15271L211.615 9.71297C211.303 10.0865 211.054 10.1487 210.245 11.7673C210.183 11.8295 210.245 11.7673 210.245 11.8295C209.872 12.5143 209.56 13.1368 209.311 13.7593C208.876 14.1328 209 14.7554 208.564 15.0666C208.502 15.1289 208.751 15.1289 208.689 15.1911C208.564 15.3779 208.564 15.7514 208.253 15.8759C208.378 16.2494 208.066 16.4984 208.004 16.9342C208.004 16.9964 207.88 16.9964 207.817 17.0587C208.004 16.9964 207.942 17.3077 207.755 17.3077C207.755 17.5567 206.572 20.607 205.825 22.4746Z" fill="white"/>
<path d="M236.505 38.0997C236.318 38.0375 236.194 38.0997 236.007 38.0375C235.696 37.913 235.447 37.7885 235.198 37.7885C235.011 37.664 234.762 37.5395 234.575 37.4772C234.326 37.3527 234.015 37.2282 234.015 37.1037C233.766 36.7302 233.455 36.5434 233.081 36.4189C232.459 36.1699 232.272 35.6719 232.085 35.1739C231.961 34.9872 231.836 34.8627 231.774 34.7381C231.525 34.3646 231.401 33.9911 231.214 33.6176C231.276 33.4931 231.214 33.4309 231.089 33.2441C229.969 34.4891 228.599 35.7964 227.105 37.0415C226.234 37.415 225.487 37.9752 224.553 38.0375C223.868 38.0997 222.312 36.6679 222.125 36.2944C221.503 35.1117 221.565 34.3646 221.876 33.3064C222.374 31.5011 224.117 29.5713 223.93 29.1355C223.308 29.3222 222.81 29.3845 222.623 29.1977C222.374 28.762 222.125 28.4507 222.187 28.1395C222.312 27.8905 222.561 27.766 222.748 27.6415C222.997 27.4547 223.308 27.2679 223.681 27.1434C224.179 27.0189 224.615 27.0189 225.051 27.1434C225.362 27.3924 225.86 27.517 226.047 27.8282C226.545 28.6997 226.171 29.5713 225.487 31.1275C225.175 31.8746 224.491 33.1819 224.304 33.6176C224.055 34.1779 223.806 35.0494 224.304 35.3607C224.677 35.5474 225.175 35.4229 225.549 35.1739C226.42 34.6759 226.732 34.2401 227.23 33.8044C227.914 33.1819 228.413 32.5593 229.097 31.8746C229.72 31.2521 230.28 30.505 230.903 29.8825C231.276 29.509 231.587 29.0732 231.961 28.6997C232.023 28.5752 232.148 28.4507 232.334 28.3262H233.642C233.642 28.5752 235.385 28.8242 235.011 29.8825C234.7 30.256 234.513 30.6918 234.389 31.1898C233.891 32.3726 233.704 33.6176 234.015 34.8626C234.077 35.1117 234.14 35.2984 234.264 35.4852C234.949 36.1699 236.63 35.7342 237.688 35.2362C238.373 34.9249 238.995 34.4891 239.618 34.0534C240.801 33.2441 241.983 32.3726 243.104 31.4388L243.975 30.6295C244.66 30.6295 244.598 31.1898 244.349 31.5011C244.038 31.8746 243.54 32.1236 243.477 32.7461L243.228 32.8706C243.477 33.3064 242.979 33.3686 242.793 33.4931C242.481 33.6176 242.668 33.8666 242.419 33.9911C242.481 34.0534 242.544 34.1156 242.793 34.1779C242.544 34.1779 242.419 34.2401 242.295 34.2401C241.983 34.2401 241.859 34.4891 241.797 34.8004C241.797 35.1117 241.361 35.4852 241.05 35.4852L240.427 36.3567C240.427 36.4189 240.489 36.4189 240.489 36.4189C239.742 37.3527 238.871 37.5395 237.999 37.913L236.505 38.0997Z" fill="white"/>
<path d="M267.225 28.5752C267.225 28.6997 267.35 28.762 267.288 28.8242C267.225 29.1977 267.163 29.509 266.79 29.6958C266.727 29.6958 266.665 29.8203 266.665 29.8825C266.79 30.1938 266.416 30.256 266.354 30.505C266.292 30.5673 266.292 30.6295 266.167 30.754C266.105 30.8163 265.98 30.9408 265.98 31.003C265.856 31.1276 265.856 31.2521 265.731 31.3143C265.42 31.5011 264.611 32.8083 264.3 32.8706C264.237 32.9328 264.113 33.0574 263.988 33.1196C263.802 33.3686 263.615 33.5554 263.49 33.6799L262.743 34.2401C261.623 35.2362 260.378 36.3567 260.191 36.4812C260.129 36.4812 260.129 36.5434 260.129 36.5434C260.066 36.6679 259.319 37.166 259.07 37.4772C259.008 37.5395 258.572 37.5395 258.572 37.7885C258.386 37.913 258.074 37.9752 257.825 38.0997C257.265 38.3487 256.643 38.4732 256.145 38.66C255.958 38.8468 255.771 39.0958 255.522 39.0335L254.028 38.8468C253.841 38.7845 253.468 38.7845 253.219 38.7223C252.845 38.5355 252.41 38.411 251.974 38.162C251.663 37.913 251.351 37.5395 251.04 37.2282C250.853 36.9792 250.729 36.6679 250.604 36.3567C250.542 35.9832 250.418 35.6097 250.355 35.1117C250.355 34.8004 250.355 34.3646 250.48 33.9911C250.604 31.4388 252.285 28.8242 253.343 27.3924C253.406 27.2679 253.468 27.1434 253.592 27.1434C253.717 26.9567 253.841 26.8322 253.904 26.7077C253.966 26.6454 254.588 25.8984 254.837 25.7117C255.335 25.2136 255.896 25.0891 256.456 25.2759C256.705 25.3381 257.016 25.2136 257.265 25.3381C257.576 25.4626 257.888 25.7117 258.199 25.8984C258.572 26.0852 258.946 26.2097 259.195 26.4587C259.568 26.7077 259.88 27.0189 260.129 27.3302C260.191 27.4547 260.191 27.766 260.066 28.015C260.066 28.264 259.88 28.4507 259.693 28.6997C259.568 28.8865 259.195 28.8242 259.008 28.6997C258.697 28.513 258.386 28.3885 258.137 28.2017C257.95 28.015 257.763 27.8282 257.701 27.6415C257.576 27.3924 257.514 27.3924 257.327 27.517C256.767 27.766 256.207 28.1395 255.896 28.6997C255.647 29.1977 255.211 29.509 254.9 30.007C254.588 30.505 254.215 31.003 253.841 31.5633C253.219 32.4971 252.783 33.5554 252.472 34.6136C252.223 35.1739 252.285 35.8587 252.41 36.4189C252.472 36.6057 252.659 36.6679 252.845 36.7302C253.592 36.7302 254.402 36.6679 255.211 36.3567C255.709 36.2322 256.207 36.1699 256.58 35.9209C257.016 35.7964 257.452 35.6097 257.825 35.3607C258.074 35.2362 258.261 35.0494 258.51 35.0494L260.44 33.9911C261.187 33.4309 261.872 32.8706 262.557 32.3103C263.055 31.9991 264.486 30.5673 264.984 30.256C265.109 30.0693 265.296 29.9448 265.607 29.758C265.669 29.6958 265.731 29.4468 265.918 29.6958C265.98 29.5713 265.98 29.4468 265.98 29.4468C266.292 29.26 266.665 28.9487 266.976 28.6997C267.039 28.6997 267.163 28.6375 267.225 28.5752Z" fill="white"/>
<path d="M295.849 28.1395C295.226 29.0732 294.23 29.8825 293.421 30.4428C293.11 30.6918 292.674 30.8785 292.487 31.003C292.3 31.1898 292.051 31.5011 291.74 31.6256C291.678 31.6878 291.242 32.1858 291.055 32.2481L290.121 33.0574L288.627 34.1779C288.129 34.7381 287.569 34.8627 286.947 35.2984C286.573 35.4852 286.386 35.4229 286.075 35.6097C285.951 35.6719 285.639 35.7964 285.453 35.7964C285.39 35.7964 285.079 35.9209 284.892 35.9209C284.643 35.9209 284.083 36.0454 283.834 35.9832C283.71 35.9209 283.336 35.9209 283.211 35.7964C283.025 35.7342 282.9 35.4852 282.713 35.4229C282.34 34.9249 281.904 34.6759 281.655 34.1156C281.282 33.7421 281.344 33.6176 281.157 33.3064C281.033 33.2441 281.033 33.1196 280.97 32.9951C280.535 33.2441 280.535 33.8666 280.099 33.8666C279.974 33.9911 279.912 34.1779 279.788 34.2401C279.041 34.8004 278.045 35.6097 277.049 36.0454C276.053 36.5434 274.994 36.5434 274.06 36.1699C273.936 36.1699 273.749 36.1699 273.562 36.1077C273.438 35.9832 272.94 35.6719 272.566 35.4852C272.006 34.7381 271.819 33.9289 272.068 32.9951C272.255 32.5593 272.38 32.2481 272.504 31.8746C272.566 31.8123 272.566 31.8123 272.566 31.7501C272.629 31.3766 272.815 31.0653 272.94 30.6295L273.376 29.8825C273.625 29.5713 273.749 29.26 273.874 29.1355C274.559 28.0772 275.368 27.3302 276.115 26.3964C276.862 25.5872 277.92 24.8401 279.103 24.7156C280.41 24.9646 281.904 25.2136 282.153 26.6454C282.34 27.517 281.842 28.0772 281.531 28.6997C282.029 28.6375 282.464 28.1395 283.211 28.2017C283.585 28.3262 283.834 28.6375 283.959 29.0732C283.959 29.0732 284.021 29.758 283.834 30.256C283.772 30.3183 283.772 30.4428 283.71 30.5673C283.523 31.4388 283.523 32.3726 283.896 33.2441C283.959 33.4931 284.145 33.7421 284.457 33.9289C284.581 33.9911 284.706 33.9911 284.892 33.9289C285.079 33.8666 285.328 33.8666 285.577 33.7421C286.573 33.3064 287.569 32.5593 288.441 31.9368C289.25 31.4388 290.184 30.8785 291.055 30.256C292.549 29.3223 292.425 29.4468 293.857 28.513C294.292 28.1395 294.79 27.8282 295.413 27.4547L295.6 27.5792L295.849 28.1395ZM273.936 34.3646C274.621 34.3646 275.741 34.3024 276.364 34.0534C277.173 33.7421 277.733 33.3064 278.356 32.6216C279.29 31.6256 279.725 30.8785 280.659 29.8825C280.721 29.8825 280.97 29.5713 280.97 29.5713H280.908C279.539 29.4468 280.037 26.7077 280.099 26.6454C278.231 26.9567 276.053 29.8825 275.368 31.0653C274.807 32.0613 274.247 33.1196 273.936 34.3646Z" fill="white"/>
<path d="M306.426 24.1554C307.982 25.1514 307.92 26.0229 307.92 26.2719L307.795 26.2097L307.733 26.0852H307.422V26.1474H307.235C307.048 25.8362 306.426 25.6494 305.678 25.4626H304.994C304.433 25.6494 304.433 25.5249 304.184 25.7117C304.06 25.7739 303.873 25.8984 303.749 26.0852C303.562 26.2097 303.313 26.3964 303.251 26.7077C303.064 27.0812 303.064 27.5792 303.251 28.0772C303.188 28.6997 303.375 29.0732 303.562 29.5713C303.562 29.8203 303.749 30.007 303.749 30.1938C303.749 30.3805 303.749 30.4428 303.873 30.505V30.8785L304.122 31.3143L304.247 31.6256L304.433 32.1858L304.745 32.4348C304.682 32.5593 304.869 32.6216 304.931 32.7461C304.869 32.9328 305.243 33.1819 305.243 33.3686C305.367 33.9289 305.492 33.9911 305.678 34.5514L305.865 35.1739C305.865 35.4852 305.99 35.6719 306.052 35.8587C306.177 35.9832 306.301 36.0454 306.177 36.2944C306.177 36.4189 306.363 36.4812 306.363 36.6057C306.55 37.5395 306.488 37.9752 306.363 38.909C306.426 39.0958 306.488 39.2203 306.363 39.5315C306.612 39.7805 306.177 40.2785 306.114 40.6521C306.114 40.7143 305.99 41.3368 305.554 41.7103C305.118 42.3329 304.496 42.8931 304.122 43.0176C303.935 43.0799 303.749 43.0799 303.562 43.0799C303.562 43.1421 303.624 43.1421 303.686 43.2666L303.064 43.4534C302.69 43.5779 302.255 43.5156 301.694 43.4534C301.196 43.3289 300.698 43.3289 300.387 43.2044C300.263 43.0799 299.765 43.0799 299.516 42.7064C298.955 42.3329 298.457 41.8348 298.208 41.4613C297.773 41.0878 297.524 40.5898 297.275 40.2785C296.963 39.8428 296.777 39.158 296.777 38.5355V38.4732C296.777 38.3487 296.901 38.3487 296.901 38.3487L296.963 37.2282C297.399 36.6679 298.022 36.1077 298.582 35.7342C299.08 35.3607 299.142 35.4229 299.702 35.1739V35.2362L299.827 35.3607L299.889 35.9209L299.142 36.7302L298.769 37.6017C298.644 38.66 298.706 39.2203 298.955 39.656C299.08 39.7805 299.267 39.9673 299.204 40.0918C299.204 40.6521 299.578 40.9011 300.076 41.3991C300.387 41.5858 300.885 41.7103 301.259 41.6481C302.441 41.4613 302.815 41.2746 303.313 40.5898C303.624 40.154 303.749 39.7183 303.811 39.3448C303.935 38.7845 303.935 38.2242 303.873 37.7262C303.935 36.917 303.811 36.4812 303.437 35.5474L302.566 33.3064L302.441 33.1196L302.068 32.3726L301.819 31.9991L301.694 31.6878L301.632 31.4388C301.383 30.6918 301.321 30.3183 301.01 29.758C300.885 29.509 300.761 29.26 300.823 28.9487L300.574 28.4507C300.574 28.2017 300.512 27.4547 300.761 27.2057C300.823 26.7699 300.698 26.2097 301.01 25.8362C301.259 25.5249 301.57 25.1514 301.757 24.7779C302.068 24.5289 302.068 24.5289 302.504 24.3421L303.064 24.0309C303.624 23.9064 303.935 23.7196 304.682 23.7196C305.928 23.7196 306.239 24.0309 306.426 24.1554Z" fill="white"/>
</svg>
