<svg width="648" height="203" viewBox="0 0 648 203" fill="none" xmlns="http://www.w3.org/2000/svg">
<path d="M289.165 1.90009C290.861 3.95629 290.861 6.73216 290.244 9.1996C288.959 14.1345 286.595 18.9151 283.716 23.1817C285.052 23.1303 286.389 23.0275 287.725 22.9761C289.165 22.9247 289.165 25.1351 287.725 25.1865C285.669 25.2893 283.613 25.3922 281.505 25.495C280.734 25.5464 280.066 24.5183 280.58 23.85C283.202 20.2003 285.412 16.1907 287.006 11.9755C287.777 9.86786 288.805 7.45183 288.342 5.19001C287.931 3.28803 286.029 1.48885 284.179 2.92819C283.048 3.80208 281.968 1.84869 283.048 1.02621C284.95 -0.464537 287.726 0.152324 289.165 1.90009Z" fill="white"/>
<path d="M309.561 2.41414C312.645 4.98439 312.491 9.81646 312.183 13.569C312.028 15.6766 311.617 23.6958 307.608 21.5368C304.369 19.7376 304.163 15.0084 304.215 11.8212C304.215 9.71365 304.523 7.60604 305.243 5.60125C305.808 4.0077 306.579 2.46555 308.327 1.90009C308.893 1.69447 309.355 2.0029 309.561 2.41414ZM310.075 12.3867C310.126 9.91927 310.435 6.1667 308.43 4.31613C307.608 4.98439 307.248 6.52654 306.991 7.40042C306.579 8.83976 306.425 10.3305 306.425 11.8212C306.374 14.0831 306.374 17.2188 307.967 19.0179C308.07 19.0693 308.481 19.5834 308.636 19.5834C308.841 19.6348 308.944 19.3264 309.047 19.1208C309.304 18.4525 309.407 17.6814 309.51 16.9617C309.818 15.471 310.024 13.9289 310.075 12.3867Z" fill="white"/>
<path d="M332.124 1.90009C333.821 3.95629 333.821 6.73216 333.204 9.1996C331.919 14.1345 329.554 18.9151 326.675 23.1817C328.012 23.1303 329.348 23.0275 330.685 22.9761C332.124 22.9247 332.124 25.1351 330.685 25.1865C328.629 25.2893 326.572 25.3922 324.465 25.495C323.694 25.5464 323.025 24.5183 323.539 23.85C326.161 20.2003 328.372 16.1907 329.965 11.9755C330.736 9.86786 331.764 7.45183 331.302 5.19001C330.89 3.28803 328.988 1.48885 327.138 2.92819C326.007 3.80208 324.927 1.84869 326.007 1.02621C327.909 -0.464537 330.685 0.152324 332.124 1.90009Z" fill="white"/>
<path d="M353.546 2.82538C353.855 9.50803 354.112 16.1907 354.42 22.8733C354.472 24.3127 352.261 24.3127 352.21 22.8733C352.056 19.789 351.953 16.6533 351.799 13.569C351.696 13.6204 351.542 13.6718 351.387 13.6718C349.64 13.826 347.892 14.0317 346.144 14.2373C345.27 14.3401 344.859 13.2606 345.219 12.5923C346.709 9.61084 347.583 6.37232 347.789 3.08241C347.892 1.64307 350.102 1.64307 349.999 3.08241C349.794 6.1153 349.126 9.04538 347.995 11.8212C349.126 11.7184 350.256 11.5642 351.387 11.4614C351.49 11.4614 351.593 11.4614 351.696 11.5128C351.593 8.58274 351.49 5.70406 351.336 2.82538C351.285 1.38604 353.495 1.38604 353.546 2.82538Z" fill="white"/>
<path d="M69.8035 101.744C72.4251 104.211 74.1729 107.193 74.0187 110.945C73.9673 112.642 73.5561 114.39 72.9392 115.983C70.883 121.072 66.5136 124.568 61.4759 126.521C55.2559 129.04 48.5732 128.423 42.199 126.829C35.8248 125.236 29.6562 122.769 23.1278 121.689C15.8797 120.507 8.7858 121.586 2.41159 125.339C1.17787 126.058 0.0469607 124.156 1.28068 123.437C8.06613 119.479 15.5198 118.296 23.2306 119.479C29.4506 120.455 35.4136 122.717 41.5308 124.362C47.4937 125.956 53.8679 126.932 59.8309 124.825C64.6116 123.128 69.0838 119.89 70.9344 115.058C71.397 113.721 71.7569 112.333 71.8083 110.997C71.9111 108.272 70.9344 106.216 69.238 104.314C69.1866 104.314 69.1866 104.314 69.1352 104.314C69.0838 104.211 68.981 104.109 68.9296 104.057C68.7754 103.851 68.6212 103.697 68.467 103.492C68.3641 103.44 68.3127 103.337 68.2099 103.286C68.2099 103.235 68.1585 103.235 68.1585 103.235C67.4389 102.515 66.6164 101.949 65.8967 101.23C64.9714 100.305 64.2518 99.225 63.8405 97.9913C62.9152 95.3697 63.4807 92.3882 65.2799 90.2292C65.7939 89.6123 66.565 88.7898 67.4389 88.3786C67.4389 88.3786 67.4389 88.3786 67.4903 88.3272C67.6445 88.2244 67.7987 88.1216 68.0043 88.0702C68.0043 88.0702 68.0557 88.0188 68.1071 88.0188C68.1585 87.9673 68.2613 87.9159 68.3642 87.9159C68.7754 87.6075 69.3922 87.5047 69.8549 87.8131C70.0091 87.8645 70.1119 87.9674 70.1633 88.1216C70.2661 88.2758 70.3175 88.43 70.3175 88.6356C70.3175 88.7384 70.2661 88.8926 70.2147 88.9955C70.2147 89.0469 70.2147 89.0983 70.1633 89.1497C70.1633 89.3553 70.0605 89.5095 69.8549 89.6123C69.8035 89.6637 69.7007 89.7151 69.5979 89.7665C69.5979 89.8179 69.5465 89.8179 69.4951 89.8693C68.8782 90.1264 68.3127 90.4862 67.7473 90.846C67.5417 91.0517 67.336 91.2059 67.1818 91.4115C66.7706 91.8741 66.4108 92.3882 66.1023 92.9536C65.5369 94.1873 65.4341 95.5753 65.7939 96.8604C66.3594 99.0708 68.2099 100.202 69.7521 101.692C69.7521 101.692 69.7521 101.692 69.8035 101.744Z" fill="white"/>
<path d="M100.627 111.1C100.884 112.488 98.7762 113.053 98.4678 111.665C97.7481 107.964 96.977 104.211 96.206 100.459C96.1031 99.9447 96.0003 99.4821 95.8975 98.968C94.561 99.0708 93.1731 99.1736 91.7851 99.2764C90.3972 103.543 89.1635 107.81 88.084 112.128C87.7241 113.516 85.5651 112.95 85.925 111.562C87.9812 103.646 90.4486 95.8837 93.3273 88.2244C93.7385 87.1449 95.3835 87.3505 95.5377 88.2758C96.5144 89.0983 96.5144 90.8974 96.7714 92.0283C97.1827 94.0845 97.5939 96.1407 98.0051 98.1969C98.879 102.515 99.7529 106.782 100.627 111.1ZM92.5562 97.0146C93.5329 96.9632 94.5096 96.8604 95.4863 96.809L95.1265 94.9584C94.9208 94.0331 94.7152 93.0564 94.5096 92.1311C94.5096 91.9255 94.4582 91.7713 94.4068 91.6171C93.7899 93.4163 93.1217 95.2155 92.5562 97.0146ZM94.0984 84.5746C93.5843 84.5232 93.1217 84.1634 93.3273 83.5465C93.7385 82.3128 94.3554 81.1819 95.1265 80.1538C95.0236 79.7426 95.2293 79.1771 95.6919 79.1257C96.5658 78.9715 97.3883 78.9715 98.2622 79.1771C98.9818 79.3313 98.9818 80.2566 98.5192 80.6164C98.4678 80.7192 98.4164 80.7707 98.365 80.8221C97.1312 81.8502 96.0517 82.9811 95.1779 84.3176C94.9208 84.7288 94.4068 84.7288 94.0984 84.5746Z" fill="white"/>
<path d="M124.718 99.0708C125.695 100.973 126.106 103.132 125.798 105.188C125.13 109.609 121.377 112.847 117.059 113.413C116.905 113.413 116.802 113.413 116.648 113.413C116.494 113.464 116.288 113.464 116.134 113.361C116.082 113.361 116.082 113.31 116.031 113.31C115.877 113.259 115.671 113.207 115.568 113.002V112.95C115.517 112.899 115.466 112.847 115.466 112.796C115.466 112.745 115.466 112.693 115.414 112.642C115.414 112.642 115.414 112.59 115.414 112.539C115.311 112.436 115.26 112.282 115.209 112.128C115.209 111.871 115.157 111.665 115.106 111.408C115.106 111.202 115.106 110.997 115.157 110.843C114.9 103.749 114.592 96.6548 114.335 89.5609C114.335 89.4067 114.335 89.2525 114.283 89.0469C114.18 88.7898 114.18 88.4814 114.283 88.2758C114.283 88.2244 114.283 88.2244 114.283 88.2244C114.283 88.1216 114.335 88.0702 114.386 87.9674C114.437 86.9393 116.391 86.5794 117.162 86.6308C117.213 86.6308 117.265 86.6308 117.316 86.6308C117.984 86.4766 118.807 86.6308 119.475 86.785C119.527 86.8364 119.629 86.8364 119.681 86.8364C120.298 86.9393 121.017 87.0935 121.429 87.5561C121.994 87.9674 122.405 88.5328 122.662 89.1497C122.816 89.4067 122.919 89.6637 123.022 89.9721C123.485 91.9769 122.559 93.8275 121.274 95.4211C121.377 95.4725 121.429 95.4725 121.531 95.5239C121.531 95.5239 121.531 95.5239 121.583 95.5239C121.583 95.6267 121.686 95.6781 121.788 95.6781C121.84 95.7295 121.891 95.7295 121.943 95.7295C123.176 96.5006 124.204 98.0427 124.718 99.0708ZM117.059 95.7809C117.213 95.7809 117.419 95.7295 117.625 95.6781C118.704 94.7528 119.681 93.7247 120.246 92.4396C120.4 92.0797 120.606 91.6171 120.606 91.1545C120.606 91.1031 120.606 91.0516 120.606 91.0002C120.606 90.8974 120.606 90.846 120.606 90.7946C120.555 90.589 120.503 90.4348 120.4 90.2806C119.784 89.3553 118.293 89.2525 117.162 89.3553C117.162 89.4067 117.162 89.4067 117.213 89.4581C117.059 89.4581 116.956 89.4581 116.802 89.4581C116.905 91.5657 116.956 93.6733 117.059 95.7809ZM123.536 105.291C124.05 102.926 123.228 99.6877 121.223 97.9913C119.784 97.2716 117.625 98.2483 117.213 99.7905C117.213 99.8419 117.213 99.8419 117.213 99.8933C117.316 103.44 117.47 107.039 117.573 110.586C117.625 110.586 117.676 110.534 117.727 110.534C117.727 110.534 117.727 110.534 117.676 110.534C117.625 110.843 118.036 111.048 118.19 110.843C118.19 110.894 118.19 110.945 118.139 110.945C120.76 110.174 122.919 107.964 123.536 105.291Z" fill="white"/>
<path d="M151.467 111.1C151.725 112.488 149.617 113.053 149.308 111.665C148.589 107.964 147.818 104.211 147.047 100.459C146.944 99.9447 146.841 99.4821 146.738 98.968C145.402 99.0708 144.014 99.1736 142.626 99.2764C141.238 103.543 140.004 107.81 138.925 112.128C138.565 113.516 136.406 112.95 136.766 111.562C138.822 103.646 141.289 95.8837 144.168 88.2244C144.579 87.1449 146.224 87.3505 146.378 88.2758C147.355 89.0983 147.355 90.8974 147.612 92.0283C148.023 94.0845 148.435 96.1407 148.846 98.1969C149.72 102.515 150.594 106.782 151.467 111.1ZM143.397 97.0146C144.374 96.9632 145.35 96.8604 146.327 96.809L145.967 94.9584C145.762 94.0331 145.556 93.0564 145.35 92.1311C145.35 91.9255 145.299 91.7713 145.247 91.6171C144.631 93.4163 143.962 95.2155 143.397 97.0146Z" fill="white"/>
<path d="M166.872 87.5561C172.629 88.3272 177.718 93.1593 177.358 99.2764C177.153 102.258 175.765 104.982 173.914 107.296C172.937 108.581 171.858 109.712 170.676 110.791C169.802 111.614 168.928 112.847 167.54 112.539C167.54 112.539 167.54 112.488 167.489 112.488C166.923 112.693 166.255 112.436 166.101 111.768C165.998 111.562 165.946 111.357 165.895 111.1C165.844 110.791 165.895 110.534 165.998 110.277C165.844 102.978 165.535 95.6781 165.073 88.3786C164.97 87.4019 166.101 87.0935 166.769 87.5561C166.82 87.5561 166.82 87.5561 166.872 87.5561ZM172.835 105.085C174.171 103.235 175.148 100.973 175.148 98.6596C175.096 94.0845 171.498 90.846 167.334 89.8693C167.797 96.6034 168.054 103.337 168.208 110.123C168.465 109.814 169.031 109.3 169.134 109.198C169.596 108.786 170.059 108.324 170.521 107.861C171.344 106.987 172.166 106.113 172.835 105.085Z" fill="white"/>
<path d="M206.529 98.7624C206.632 103.183 205.038 107.964 201.337 110.534C197.944 112.899 192.907 112.745 190.234 109.403C187.509 106.01 187.561 100.51 188.949 96.6034C190.285 92.9536 193.267 89.8693 197.122 89.3039C197.328 89.2011 197.585 89.2011 197.79 89.2525C198.099 89.2525 198.407 89.2011 198.715 89.2525C199.024 89.2525 199.281 89.3553 199.435 89.5609C199.487 89.5609 199.487 89.5609 199.538 89.5609C200.103 89.6123 200.669 89.7665 201.183 89.9721C202.262 90.3834 203.239 91.0517 204.01 91.8741C205.758 93.7761 206.478 96.295 206.529 98.7624ZM201.748 107.193C204.01 104.468 204.833 100.305 204.113 96.9118C203.753 95.1126 202.828 93.4677 201.286 92.491C200.566 92.0283 199.744 91.7199 198.818 91.7199C198.15 91.7199 197.636 91.8227 197.019 91.5657C193.524 92.2854 191.262 95.6267 190.593 99.1222C189.925 102.258 190.028 106.833 192.855 108.941C195.683 110.997 199.692 109.66 201.748 107.193Z" fill="white"/>
<path d="M272.779 136.069C270.816 136.069 269.019 135.827 267.388 135.344C264.76 134.589 262.676 133.154 261.135 131.04C259.625 128.925 258.87 126.524 258.87 123.836C258.87 122.899 258.976 121.963 259.187 121.027C259.942 117.583 261.573 114.548 264.08 111.92C266.618 109.292 269.608 107.449 273.051 106.392C273.142 106.362 273.293 106.347 273.504 106.347C274.169 106.347 274.818 106.694 275.453 107.389C276.117 108.054 276.449 108.703 276.449 109.337C276.449 109.911 276.162 110.289 275.589 110.47C272.628 111.376 270.031 112.932 267.796 115.137C265.56 117.311 264.08 119.849 263.355 122.748C263.084 123.836 262.948 124.848 262.948 125.784C262.948 127.234 263.28 128.412 263.944 129.318C265.062 130.889 267.252 131.674 270.514 131.674C275.226 131.674 279.727 130.526 284.016 128.231C288.335 125.935 291.99 122.839 294.98 118.943C298.001 115.046 299.979 110.787 300.916 106.166C301.278 104.323 301.459 102.511 301.459 100.729C301.459 98.2822 301.067 96.0923 300.281 94.1592C299.526 92.1959 298.242 90.746 296.43 89.8097L296.158 89.6284C292.352 91.0783 289.423 91.8032 287.369 91.8032C285.466 91.8032 284.016 91.184 283.019 89.9456C282.506 89.3113 282.249 88.677 282.249 88.0427C282.249 87.3177 282.536 86.6683 283.11 86.0944C283.714 85.5205 284.469 85.0826 285.375 84.7805C286.674 84.3878 288.003 84.1915 289.362 84.1915C291.084 84.1915 292.851 84.5087 294.663 85.143C300.191 82.787 304.117 79.6154 306.443 75.6283C307.863 73.1515 308.603 70.2518 308.663 66.9293C308.663 65.268 308.437 63.7275 307.984 62.3079C307.531 60.858 306.836 59.6347 305.899 58.6379C304.842 57.4901 303.468 56.6444 301.776 56.1007C300.115 55.557 298.318 55.2852 296.385 55.2852C294.693 55.2852 293.002 55.4664 291.31 55.8288C289.619 56.1913 288.109 56.6746 286.78 57.2787C283.397 58.8192 280.557 61.0846 278.262 64.0749C275.966 67.0652 274.743 70.3273 274.592 73.8613C274.562 74.5863 274.26 74.9487 273.686 74.9487C273.021 74.9487 272.326 74.6165 271.601 73.952C270.877 73.2874 270.514 72.6078 270.514 71.9131V71.8678C270.665 68.0015 271.888 64.4826 274.184 61.3111C276.51 58.1395 279.47 55.6476 283.064 53.8353C286.659 52.023 290.374 51.1168 294.21 51.1168C298.318 51.1168 301.988 52.0985 305.22 54.0618C308.482 55.995 310.657 58.8343 311.744 62.5797C312.348 64.6639 312.65 66.7329 312.65 68.7869C312.65 71.9584 311.94 74.9487 310.521 77.7578C309.131 80.5669 307.123 82.9833 304.495 85.007C302.924 86.1851 301.354 87.1818 299.783 87.9974C301.746 89.6889 303.196 91.8334 304.132 94.4311C305.069 96.9985 305.537 99.7472 305.537 102.677C305.537 104.067 305.431 105.456 305.22 106.845C304.586 111.044 303.121 115.061 300.825 118.897C298.529 122.703 295.675 125.95 292.262 128.638C289.513 130.813 286.402 132.595 282.928 133.985C279.485 135.374 276.102 136.069 272.779 136.069Z" fill="white"/>
<path d="M330.672 95.9715C330.038 98.3879 329.494 101.091 329.041 104.082C328.618 107.072 328.407 110.002 328.407 112.871C328.437 118.338 329.403 122.809 331.306 126.282C333.239 129.756 336.471 131.493 341.002 131.493C341.667 131.493 342.165 131.478 342.497 131.448C349.022 130.874 354.851 127.959 359.986 122.703C365.151 117.478 369.335 111.225 372.536 103.946C375.768 96.636 377.943 89.568 379.061 82.7417C379.786 78.3317 380.148 74.7826 380.148 72.0943C380.148 66.9595 379.045 62.8516 376.841 59.7706C375.753 58.2302 374.364 57.0824 372.672 56.3272C370.981 55.5721 369.168 55.1945 367.235 55.1945C364.487 55.1945 361.949 55.8742 359.624 57.2334C360.258 57.2938 360.847 57.6714 361.391 58.3661C361.964 59.0306 362.251 59.6649 362.251 60.269V60.3596C362.251 61.0543 361.859 61.4168 361.073 61.447C358.717 61.5074 356.573 61.885 354.64 62.5797C354.217 63.2442 353.915 63.9993 353.734 64.8451C353.583 65.6002 353.16 65.9778 352.465 65.9778C351.68 65.9778 350.924 65.5398 350.2 64.6639C345.427 67.5636 341.38 71.9433 338.057 77.8031C334.734 83.6327 332.258 89.6889 330.627 95.9715H330.672ZM342.361 135.888C337.347 135.888 333.36 134.151 330.4 130.677C327.44 127.204 325.567 122.809 324.782 117.493C324.45 115.227 324.284 112.886 324.284 110.47C324.284 104.308 325.356 97.6781 327.5 90.5799C329.585 83.6327 332.635 77.1839 336.653 71.2335C340.7 65.2529 345.548 61.1299 351.196 58.8645C352.616 56.3876 354.655 54.4545 357.313 53.0651C360.001 51.6454 362.81 50.9356 365.74 50.9356C368.851 50.9356 371.751 51.736 374.439 53.3369C377.158 54.9076 379.332 57.1277 380.964 59.9972C383.108 63.7728 384.18 68.4093 384.18 73.9066C384.18 77.1688 383.788 81.1408 383.002 85.8226C382.006 91.3199 380.42 96.8777 378.245 102.496C376.1 108.114 373.352 113.37 369.999 118.263C366.646 123.126 362.856 127.053 358.627 130.043C356.18 131.795 353.537 133.199 350.698 134.257C347.889 135.344 345.11 135.888 342.361 135.888Z" fill="white"/>
<path d="M526.933 80.5136C528.321 80.1538 528.886 82.2614 527.498 82.6212C518.862 84.8316 510.072 83.5979 501.539 81.4903C494.393 79.7426 487.248 77.2751 479.846 76.7611C475.271 76.4012 470.799 77.1209 466.481 78.6116C462.471 79.9996 458.667 82.1586 455.788 85.2943C451.779 89.6637 450.391 95.4725 450.596 101.281C450.596 101.281 450.596 101.281 450.596 101.333C450.751 104.16 450.956 106.987 451.213 109.866C451.213 109.917 451.213 109.917 451.213 109.969V110.38C451.213 110.431 451.213 110.431 451.213 110.483C451.162 110.997 451.213 111.511 451.213 112.076C451.213 112.076 451.213 112.128 451.213 112.179C451.265 112.899 451.111 113.516 450.494 113.67C449.723 113.875 448.952 113.361 448.437 112.745C448.335 112.693 448.232 112.59 448.129 112.488C445.816 109.557 443.965 106.37 442.577 102.875C442.012 101.384 441.498 99.9447 441.035 98.4026C441.241 103.183 441.446 107.912 441.601 112.693C441.652 114.132 439.544 114.03 439.39 112.693C439.39 112.488 439.339 112.333 439.339 112.128C439.287 111.922 439.287 111.768 439.339 111.665C439.133 104.16 438.773 96.7062 438.259 89.2525C438.156 87.9673 440.007 87.8645 440.367 88.944C440.418 88.9955 440.47 89.0983 440.47 89.1497C440.521 89.5609 440.624 89.9207 440.675 90.332C440.727 90.3834 440.727 90.4862 440.778 90.5376C442.989 97.2716 444.839 104.263 449.054 110.071C448.746 107.141 448.54 104.211 448.335 101.281C448.129 94.5986 450.031 87.9674 454.812 83.1353C461.186 76.6583 471.518 73.7796 480.36 74.5507C487.968 75.2189 495.319 77.7378 502.721 79.4855C510.689 81.4389 518.862 82.5698 526.933 80.5136Z" fill="white"/>
<path d="M482.226 98.7624C482.329 103.183 480.735 107.964 477.034 110.534C473.641 112.899 468.603 112.745 465.93 109.403C463.206 106.01 463.257 100.51 464.645 96.6034C465.982 92.9536 468.963 89.8693 472.819 89.3039C473.024 89.2011 473.281 89.2011 473.487 89.2525C473.795 89.2525 474.104 89.2011 474.412 89.2525C474.721 89.2525 474.978 89.3553 475.132 89.5609C475.183 89.5609 475.183 89.5609 475.235 89.5609C475.8 89.6123 476.366 89.7665 476.88 89.9721C477.959 90.3834 478.936 91.0517 479.707 91.8741C481.455 93.7761 482.174 96.295 482.226 98.7624ZM477.445 107.193C479.707 104.468 480.529 100.305 479.81 96.9118C479.45 95.1126 478.525 93.4677 476.982 92.491C476.263 92.0283 475.44 91.7199 474.515 91.7199C473.847 91.7199 473.333 91.8227 472.716 91.5657C469.22 92.2854 466.959 95.6267 466.29 99.1222C465.622 102.258 465.725 106.833 468.552 108.941C471.379 110.997 475.389 109.66 477.445 107.193Z" fill="white"/>
<path d="M502.595 87.4533C502.852 86.0654 505.011 86.6822 504.754 88.0702C503.366 95.5239 502.492 103.08 502.029 110.688C501.926 111.922 500.127 112.23 499.87 110.997C499.048 107.655 498.225 104.314 497.351 100.973C496.889 99.3793 496.477 97.7343 496.015 96.0893C495.655 94.8042 495.398 93.4163 494.935 92.1311C494.884 92.0797 494.884 92.0797 494.832 92.0283C494.832 92.0283 494.781 91.9769 494.73 91.9769C494.781 91.9769 494.832 91.9769 494.884 91.9255C494.832 91.8227 494.781 91.6685 494.781 91.5657C494.678 91.3601 494.627 91.1545 494.575 91.0002C494.37 90.5376 494.267 90.0235 494.73 89.6637C495.295 89.2011 495.758 89.3553 496.169 89.7665C496.22 89.8179 496.272 89.8693 496.323 89.9721C496.426 90.1264 496.529 90.2806 496.58 90.4348C497.3 91.4115 497.454 93.005 497.763 94.1359C498.277 95.8837 498.739 97.6829 499.202 99.4821C499.613 100.921 499.973 102.361 500.333 103.8C500.898 98.3512 501.618 92.9022 502.595 87.4533Z" fill="white"/>
<path d="M532.753 110.688C534.038 109.763 535.272 111.871 533.987 112.796C531.725 114.338 528.897 115.315 526.224 114.338C523.603 113.361 522.523 111.1 522.061 108.478C521.084 102.875 520.416 97.2202 519.85 91.5657C518.565 91.7713 517.794 89.9721 518.976 89.3039C519.131 89.2011 519.285 89.1497 519.439 89.0983C519.49 89.0983 519.542 89.0983 519.593 89.0983C520.416 88.8926 521.238 88.7384 522.009 88.5328C522.832 88.3786 523.603 88.2758 524.425 88.2244C525.248 88.2244 526.07 88.2244 526.893 88.2244C528.229 88.2758 528.589 90.332 527.201 90.6404C527.098 90.6918 526.996 90.6918 526.893 90.6918C526.79 90.6918 526.738 90.6918 526.687 90.6918C526.636 90.6918 526.584 90.6918 526.481 90.6918C525.916 90.6918 525.299 90.6918 524.682 90.6918C523.911 90.6918 523.14 90.7946 522.369 90.9488C522.318 90.9488 522.266 91.0002 522.266 91.0002C522.472 93.2621 522.729 95.5239 522.986 97.7343C523.14 97.7857 523.243 97.8371 523.346 97.8885C523.397 97.9399 523.449 97.9399 523.5 97.9399C523.551 97.9913 523.654 98.0427 523.706 98.0941C523.911 98.0427 524.168 97.9913 524.271 97.9913C524.785 97.8885 525.248 97.8371 525.71 97.7343C526.687 97.5801 527.664 97.4259 528.589 97.2716C530.183 97.0146 530.799 99.3793 529.257 99.6363C527.921 99.8419 526.533 100.099 525.196 100.305C524.579 100.407 523.963 100.562 523.346 100.613C523.551 102.104 523.808 103.594 524.014 105.034C524.322 107.141 524.322 110.38 526.327 111.665C528.435 113.002 530.902 111.922 532.753 110.688Z" fill="white"/>
<path d="M567.863 88.9955C568.12 97.2202 568.428 105.496 568.788 113.721C568.891 114.955 566.938 115.212 566.629 114.03C566.578 113.721 566.526 113.413 566.423 113.156C566.372 112.847 566.423 112.59 566.526 112.385C566.269 106.062 566.012 99.7391 565.807 93.4163V93.4677C565.755 93.5191 565.755 93.5191 565.704 93.5705C564.624 95.0612 563.596 96.6034 562.62 98.1455C562.62 98.2483 562.568 98.3512 562.517 98.454C560.872 101.127 559.484 103.954 558.302 106.936C557.993 107.655 557.273 107.81 556.708 107.604C556.297 107.604 555.885 107.347 555.68 106.833C554.292 102.978 552.698 99.1736 550.899 95.4725C551.31 100.459 551.465 105.394 551.413 110.38C551.516 110.586 551.567 110.843 551.516 111.1C551.465 111.459 551.413 111.819 551.362 112.179C551.156 113.413 549.151 113.104 549.203 111.871C549.306 104.366 548.946 96.9118 548.123 89.4581C547.918 88.0702 550.18 88.0702 550.334 89.4581V89.5095C552.904 94.2388 555.114 99.1736 557.068 104.211C557.787 102.566 558.507 100.921 559.381 99.3792C561.129 95.4725 563.442 91.7199 565.704 88.0702C565.704 88.0188 565.755 87.9674 565.755 87.9159C566.064 86.528 568.223 87.1449 567.863 88.5328C567.863 88.5842 567.863 88.6356 567.811 88.687C567.863 88.7898 567.863 88.8926 567.863 88.9955Z" fill="white"/>
<path d="M592.941 99.0708C593.917 100.973 594.329 103.132 594.02 105.188C593.352 109.609 589.6 112.847 585.281 113.413C585.127 113.413 585.024 113.413 584.87 113.413C584.716 113.464 584.51 113.464 584.356 113.361C584.305 113.361 584.305 113.31 584.253 113.31C584.099 113.259 583.894 113.207 583.791 113.002V112.95C583.739 112.899 583.688 112.847 583.688 112.796C583.688 112.745 583.688 112.693 583.637 112.642C583.637 112.642 583.637 112.59 583.637 112.539C583.534 112.436 583.482 112.282 583.431 112.128C583.431 111.871 583.379 111.665 583.328 111.408C583.328 111.202 583.328 110.997 583.38 110.843C583.122 103.749 582.814 96.6548 582.557 89.5609C582.557 89.4067 582.557 89.2525 582.506 89.0469C582.403 88.7898 582.403 88.4814 582.506 88.2758C582.506 88.2244 582.506 88.2244 582.506 88.2244C582.506 88.1216 582.557 88.0702 582.608 87.9674C582.66 86.9393 584.613 86.5794 585.384 86.6308C585.436 86.6308 585.487 86.6308 585.539 86.6308C586.207 86.4766 587.029 86.6308 587.698 86.785C587.749 86.8364 587.852 86.8364 587.903 86.8364C588.52 86.9393 589.24 87.0935 589.651 87.5561C590.216 87.9674 590.628 88.5328 590.885 89.1497C591.039 89.4067 591.142 89.6637 591.244 89.9721C591.707 91.9769 590.782 93.8275 589.497 95.4211C589.6 95.4725 589.651 95.4725 589.754 95.5239C589.754 95.5239 589.754 95.5239 589.805 95.5239C589.805 95.6267 589.908 95.6781 590.011 95.6781C590.062 95.7295 590.114 95.7295 590.165 95.7295C591.399 96.5006 592.427 98.0427 592.941 99.0708ZM585.281 95.7809C585.436 95.7809 585.641 95.7295 585.847 95.6781C586.926 94.7528 587.903 93.7247 588.469 92.4396C588.623 92.0797 588.828 91.6171 588.828 91.1545C588.828 91.1031 588.828 91.0516 588.828 91.0002C588.828 90.8974 588.828 90.846 588.828 90.7946C588.777 90.589 588.726 90.4348 588.623 90.2806C588.006 89.3553 586.515 89.2525 585.384 89.3553C585.384 89.4067 585.384 89.4067 585.436 89.4581C585.281 89.4581 585.179 89.4581 585.024 89.4581C585.127 91.5657 585.179 93.6733 585.281 95.7809ZM591.758 105.291C592.273 102.926 591.45 99.6877 589.445 97.9913C588.006 97.2716 585.847 98.2483 585.436 99.7905C585.436 99.8419 585.436 99.8419 585.436 99.8933C585.538 103.44 585.693 107.039 585.796 110.586C585.847 110.586 585.898 110.534 585.95 110.534C585.95 110.534 585.95 110.534 585.898 110.534C585.847 110.843 586.258 111.048 586.412 110.843C586.412 110.894 586.412 110.945 586.361 110.945C588.983 110.174 591.142 107.964 591.758 105.291Z" fill="white"/>
<path d="M617.996 111.408C618.664 112.333 617.173 113.413 616.453 112.59C616.402 112.488 616.299 112.436 616.248 112.333C616.196 112.282 616.145 112.179 616.094 112.076C613.883 108.941 611.827 105.702 609.874 102.412C609.822 103.235 609.822 104.674 609.771 104.623C609.822 106.987 609.874 109.403 609.874 111.768C609.925 113.207 607.715 113.156 607.663 111.768C607.663 111.459 607.663 111.151 607.663 110.843C607.663 110.74 607.663 110.637 607.663 110.586C607.56 103.697 607.355 96.8604 607.046 89.9721C606.995 89.6637 607.098 89.4067 607.252 89.2525C607.355 89.0983 607.509 88.944 607.766 88.944C607.817 88.944 607.869 88.944 607.869 88.944C607.972 88.8926 608.023 88.8926 608.126 88.8926C608.691 88.8926 609.205 88.8926 609.771 88.8926C609.874 88.8926 610.028 88.8926 610.131 88.8926C610.233 88.8412 610.285 88.8926 610.336 88.8926C612.29 88.8412 614.449 89.3039 615.477 91.1545C616.505 92.9536 615.734 95.4211 614.86 97.1688C614.037 98.711 612.752 99.9961 611.261 100.921C613.369 104.52 615.631 108.015 617.996 111.408ZM609.359 91.5657C609.308 91.6685 609.359 91.7713 609.359 91.8741C609.359 91.8741 609.36 91.8741 609.308 91.9255C609.411 94.2902 609.514 96.6548 609.617 99.0708C609.719 99.0194 609.874 99.0708 609.976 99.1222C611.673 98.0941 612.958 96.552 613.523 94.65C613.832 93.4677 613.986 92.1826 612.752 91.5143C612.135 91.1545 611.416 91.1031 610.747 91.1031C610.49 91.1031 610.131 91.1545 609.874 91.1031C609.822 91.1545 609.771 91.1545 609.719 91.1545C609.719 91.1545 609.719 91.1545 609.719 91.2059C609.616 91.2059 609.565 91.2573 609.462 91.3601C609.462 91.3601 609.462 91.3601 609.411 91.4115C609.411 91.4115 609.411 91.4115 609.411 91.4629C609.359 91.5143 609.359 91.5143 609.359 91.5657Z" fill="white"/>
<path d="M647.248 98.7624C647.351 103.183 645.757 107.964 642.056 110.534C638.663 112.899 633.625 112.745 630.952 109.403C628.228 106.01 628.279 100.51 629.667 96.6034C631.004 92.9536 633.985 89.8693 637.841 89.3039C638.046 89.2011 638.303 89.2011 638.509 89.2525C638.817 89.2525 639.126 89.2011 639.434 89.2525C639.743 89.2525 640 89.3553 640.154 89.5609C640.205 89.5609 640.205 89.5609 640.257 89.5609C640.822 89.6123 641.388 89.7665 641.902 89.9721C642.981 90.3834 643.958 91.0517 644.729 91.8741C646.477 93.7761 647.196 96.295 647.248 98.7624ZM642.467 107.193C644.729 104.468 645.551 100.305 644.832 96.9118C644.472 95.1126 643.547 93.4677 642.004 92.491C641.285 92.0283 640.462 91.7199 639.537 91.7199C638.869 91.7199 638.355 91.8227 637.738 91.5657C634.242 92.2854 631.98 95.6267 631.312 99.1222C630.644 102.258 630.747 106.833 633.574 108.941C636.401 110.997 640.411 109.66 642.467 107.193Z" fill="white"/>
<path d="M253.261 177.17C253.467 184.675 251.873 192.078 248.789 198.863C248.172 200.148 246.27 199.017 246.835 197.732C248.789 193.62 250.022 189.199 250.639 184.675C250.588 184.727 250.536 184.83 250.485 184.881C248.789 186.423 246.27 185.395 245.602 183.339C244.933 181.077 246.167 178.455 247.915 177.067C248.84 176.348 250.125 175.577 251.308 175.937C251.462 175.988 251.616 176.091 251.719 176.142C252.387 175.937 253.21 176.348 253.261 177.17ZM249.971 180.923C250.177 180.203 250.382 179.484 250.588 178.764C250.434 178.61 250.331 178.404 250.279 178.198C250.279 178.198 250.279 178.198 250.228 178.198C250.074 178.25 249.868 178.353 249.714 178.455C249.508 178.61 249.303 178.764 249.097 178.918C248.737 179.278 248.377 179.741 248.12 180.255C247.761 180.974 247.092 183.236 248.48 183.39C249.457 183.493 249.765 181.591 249.971 180.923Z" fill="white"/>
<path d="M269.808 196.344C270.065 196.499 270.271 196.704 270.425 196.91C271.145 198.041 270.476 199.48 269.294 199.788C268.06 200.097 266.827 199.326 266.827 198.041C266.775 196.756 268.112 195.676 269.345 196.087C269.551 196.139 269.705 196.242 269.808 196.344ZM269.294 190.176C268.06 190.433 266.827 189.662 266.827 188.377C266.775 187.143 268.112 186.063 269.345 186.423C269.551 186.475 269.705 186.577 269.808 186.732C270.065 186.886 270.271 187.091 270.425 187.297C271.145 188.377 270.476 189.816 269.294 190.176Z" fill="white"/>
<path d="M289.636 177.325C292.721 179.895 292.566 184.727 292.258 188.479C292.104 190.587 291.693 198.606 287.683 196.447C284.444 194.648 284.239 189.919 284.29 186.732C284.29 184.624 284.599 182.516 285.318 180.512C285.884 178.918 286.655 177.376 288.403 176.81C288.968 176.605 289.431 176.913 289.636 177.325ZM290.15 187.297C290.202 184.83 290.51 181.077 288.505 179.227C287.683 179.895 287.323 181.437 287.066 182.311C286.655 183.75 286.501 185.241 286.501 186.732C286.449 188.993 286.449 192.129 288.043 193.928C288.146 193.98 288.557 194.494 288.711 194.494C288.917 194.545 289.019 194.237 289.122 194.031C289.379 193.363 289.482 192.592 289.585 191.872C289.893 190.381 290.099 188.839 290.15 187.297Z" fill="white"/>
<path d="M311.367 177.325C314.451 179.895 314.297 184.727 313.989 188.479C313.834 190.587 313.423 198.606 309.414 196.447C306.175 194.648 305.969 189.919 306.021 186.732C306.021 184.624 306.329 182.516 307.049 180.512C307.614 178.918 308.386 177.376 310.133 176.81C310.699 176.605 311.161 176.913 311.367 177.325ZM311.881 187.297C311.932 184.83 312.241 181.077 310.236 179.227C309.414 179.895 309.054 181.437 308.797 182.311C308.386 183.75 308.231 185.241 308.231 186.732C308.18 188.993 308.18 192.129 309.773 193.928C309.876 193.98 310.287 194.494 310.442 194.494C310.647 194.545 310.75 194.237 310.853 194.031C311.11 193.363 311.213 192.592 311.316 191.872C311.624 190.381 311.83 188.839 311.881 187.297Z" fill="white"/>
<path d="M364.033 198.555C364.29 199.943 362.183 200.508 361.874 199.12C361.155 195.419 360.384 191.667 359.613 187.914C359.51 187.4 359.407 186.937 359.304 186.423C357.968 186.526 356.58 186.629 355.192 186.732C353.804 190.998 352.57 195.265 351.491 199.583C351.131 200.971 348.972 200.405 349.332 199.017C351.388 191.101 353.855 183.339 356.734 175.68C357.145 174.6 358.79 174.806 358.944 175.731C359.921 176.553 359.921 178.353 360.178 179.484C360.589 181.54 361 183.596 361.412 185.652C362.286 189.97 363.159 194.237 364.033 198.555ZM355.963 184.47C356.939 184.418 357.916 184.316 358.893 184.264L358.533 182.414C358.327 181.488 358.122 180.512 357.916 179.586C357.916 179.381 357.865 179.226 357.813 179.072C357.197 180.871 356.528 182.671 355.963 184.47Z" fill="white"/>
<path d="M397.378 176.451C397.635 184.675 397.943 192.952 398.303 201.176C398.406 202.41 396.453 202.667 396.144 201.485C396.093 201.176 396.041 200.868 395.939 200.611C395.887 200.303 395.939 200.046 396.041 199.84C395.784 193.517 395.527 187.194 395.322 180.871V180.923C395.27 180.974 395.27 180.974 395.219 181.026C394.139 182.516 393.111 184.059 392.135 185.601C392.135 185.704 392.083 185.806 392.032 185.909C390.387 188.582 388.999 191.409 387.817 194.391C387.508 195.111 386.789 195.265 386.223 195.059C385.812 195.059 385.401 194.802 385.195 194.288C383.807 190.433 382.213 186.629 380.414 182.928C380.826 187.914 380.98 192.849 380.928 197.835C381.031 198.041 381.083 198.298 381.031 198.555C380.98 198.915 380.928 199.274 380.877 199.634C380.671 200.868 378.667 200.56 378.718 199.326C378.821 191.821 378.461 184.367 377.638 176.913C377.433 175.525 379.695 175.525 379.849 176.913V176.965C382.419 181.694 384.629 186.629 386.583 191.666C387.303 190.022 388.022 188.377 388.896 186.834C390.644 182.928 392.957 179.175 395.219 175.525C395.219 175.474 395.27 175.423 395.27 175.371C395.579 173.983 397.738 174.6 397.378 175.988C397.378 176.039 397.378 176.091 397.327 176.142C397.378 176.245 397.378 176.348 397.378 176.451Z" fill="white"/>
</svg>
