<svg width="26" height="27" viewBox="0 0 26 27" fill="none" xmlns="http://www.w3.org/2000/svg">
<path d="M13 0.962769C15.5011 0.962769 17.946 1.70442 20.0255 3.09394C22.1051 4.48346 23.7259 6.45844 24.683 8.76912C25.6401 11.0798 25.8906 13.6224 25.4026 16.0754C24.9147 18.5284 23.7103 20.7817 21.9418 22.5502C20.1733 24.3187 17.92 25.5231 15.467 26.011C13.014 26.499 10.4714 26.2485 8.16072 25.2914C5.85004 24.3343 3.87506 22.7135 2.48554 20.6339C1.09602 18.5544 0.35437 16.1095 0.35437 13.6084C0.35437 10.2546 1.68667 7.0381 4.05819 4.66659C6.4297 2.29507 9.64617 0.962769 13 0.962769ZM18.7875 19.1725C18.8868 19.0074 18.9215 18.8114 18.8849 18.6223C18.8484 18.4332 18.7431 18.2643 18.5894 18.1482C18.5245 18.1008 18.4569 18.0572 18.387 18.0175C17.5983 17.5477 16.7618 17.1634 15.8916 16.871C14.3187 16.356 12.6739 16.0942 11.0188 16.0954C10.4582 16.1249 9.89339 16.1459 9.33276 16.1923C8.32837 16.2814 7.33125 16.4392 6.3484 16.6644C6.27081 16.6807 6.19468 16.7032 6.12078 16.7319C5.95196 16.7994 5.81243 16.9244 5.72682 17.0849C5.64122 17.2453 5.61503 17.4308 5.65289 17.6086C5.68133 17.7884 5.77378 17.9518 5.91321 18.0688C6.05265 18.1857 6.22966 18.2484 6.41162 18.2451C6.53669 18.2411 6.661 18.2242 6.78256 18.1945C7.98247 17.9244 9.20412 17.7622 10.4329 17.7098C11.3842 17.6707 12.3369 17.7229 13.2782 17.8658C14.8032 18.089 16.2705 18.6058 17.5988 19.3874C17.6667 19.4295 17.7371 19.4675 17.8095 19.5013C17.9832 19.5776 18.1787 19.588 18.3595 19.5306C18.5403 19.4732 18.6939 19.3519 18.7917 19.1893M20.3387 15.716C20.4714 15.4936 20.5113 15.2279 20.4498 14.9763C20.3883 14.7247 20.2303 14.5074 20.0099 14.3713L19.8624 14.2828C18.8814 13.7029 17.8378 13.2363 16.7515 12.8918C14.6153 12.2069 12.3752 11.903 10.1337 11.994C9.08573 12.0289 8.04312 12.1587 7.01861 12.3818C6.59709 12.4745 6.17557 12.5841 5.77934 12.7063C5.58721 12.767 5.41924 12.8869 5.29957 13.049C5.1799 13.2111 5.1147 13.4069 5.11334 13.6084C5.10881 13.8062 5.1644 14.0008 5.27278 14.1664C5.38115 14.3319 5.53721 14.4607 5.72033 14.5357C5.94786 14.6175 6.19674 14.6175 6.42427 14.5357C7.84614 14.124 9.31938 13.9168 10.7997 13.9203C11.9183 13.9212 13.0345 14.0256 14.1339 14.2322C15.537 14.4842 16.8968 14.9356 18.1721 15.5727C18.3575 15.6682 18.5392 15.7712 18.7209 15.8743C18.8118 15.9258 18.9027 15.9773 18.994 16.0279C19.2141 16.1633 19.4787 16.2064 19.7304 16.148C19.9821 16.0896 20.2006 15.9344 20.3387 15.716ZM20.4862 12.1373C20.665 12.2461 20.8696 12.3052 21.0789 12.3085C21.2882 12.3117 21.4946 12.2591 21.6767 12.156C21.8589 12.0529 22.0102 11.9031 22.1151 11.7219C22.22 11.5408 22.2747 11.3349 22.2735 11.1256C22.2735 11.0413 22.2734 10.957 22.2397 10.8727C22.2033 10.7079 22.1318 10.5529 22.0299 10.4183C21.9281 10.2837 21.7983 10.1727 21.6496 10.0929C20.7913 9.59653 19.8863 9.18568 18.9477 8.86628C16.6548 8.0999 14.258 7.68907 11.8408 7.64809C10.8564 7.6186 9.87106 7.64816 8.89017 7.73661C7.96553 7.81434 7.04728 7.95517 6.14185 8.15813C5.77513 8.24243 5.41262 8.33517 5.05433 8.45319C4.82024 8.53274 4.61799 8.68556 4.47754 8.88903C4.33709 9.09249 4.2659 9.33578 4.27451 9.58287C4.28041 9.8319 4.36523 10.0726 4.51674 10.2703C4.66825 10.4681 4.87863 10.6126 5.11756 10.683C5.33792 10.7463 5.57163 10.7463 5.79199 10.683C6.15871 10.5861 6.52965 10.4849 6.90059 10.4048C7.90872 10.1951 8.93211 10.0668 9.96083 10.0213C10.8594 9.9711 11.76 9.9711 12.6586 10.0213C13.5222 10.0731 14.3821 10.1744 15.2341 10.3247C16.458 10.5305 17.6573 10.8624 18.8128 11.3153C19.3931 11.5582 19.9564 11.8398 20.4988 12.1584" fill="white"/>
</svg>
