<svg width="170" height="44" viewBox="0 0 170 44" fill="none" xmlns="http://www.w3.org/2000/svg">
<path d="M45.6601 21.0845C45.6601 20.3023 45.027 19.6682 44.2459 19.6682C43.4649 19.6682 42.8317 20.3023 42.8317 21.0845V22.8886C42.8317 23.6708 43.4649 24.3049 44.2459 24.3049C45.027 24.3049 45.6601 23.6708 45.6601 22.8886V21.0845Z" fill="white"/>
<path d="M50.8954 18.1339C50.8954 17.3517 50.2622 16.7176 49.4812 16.7176C48.7002 16.7176 48.067 17.3517 48.067 18.1339V25.8393C48.067 26.6215 48.7002 27.2556 49.4812 27.2556C50.2622 27.2556 50.8954 26.6215 50.8954 25.8393V18.1339Z" fill="white"/>
<path d="M56.1307 13.7079C56.1307 12.9257 55.4975 12.2916 54.7165 12.2916C53.9354 12.2916 53.3023 12.9257 53.3023 13.7079V30.2652C53.3023 31.0474 53.9354 31.6815 54.7165 31.6815C55.4975 31.6815 56.1307 31.0474 56.1307 30.2652V13.7079Z" fill="white"/>
<path d="M61.3702 16.6585C61.3702 15.8763 60.737 15.2422 59.956 15.2422C59.1749 15.2422 58.5418 15.8763 58.5418 16.6585V27.3146C58.5418 28.0968 59.1749 28.7309 59.956 28.7309C60.737 28.7309 61.3702 28.0968 61.3702 27.3146V16.6585Z" fill="white"/>
<path d="M66.6055 13.7079C66.6055 12.9257 65.9723 12.2916 65.1913 12.2916C64.4102 12.2916 63.7771 12.9257 63.7771 13.7079V30.2652C63.7771 31.0474 64.4102 31.6815 65.1913 31.6815C65.9723 31.6815 66.6055 31.0474 66.6055 30.2652V13.7079Z" fill="white"/>
<path d="M71.8408 12.2326C71.8408 11.4504 71.2076 10.8163 70.4266 10.8163C69.6455 10.8163 69.0124 11.4504 69.0124 12.2326V31.7406C69.0124 32.5228 69.6455 33.1569 70.4266 33.1569C71.2076 33.1569 71.8408 32.5228 71.8408 31.7406V12.2326Z" fill="white"/>
<path d="M77.0761 19.6092C77.0761 18.827 76.4429 18.1929 75.6618 18.1929C74.8808 18.1929 74.2476 18.827 74.2476 19.6092V24.3639C74.2476 25.1461 74.8808 25.7803 75.6618 25.7803C76.4429 25.7803 77.0761 25.1461 77.0761 24.3639V19.6092Z" fill="white"/>
<path d="M82.3156 10.7572C82.3156 9.97504 81.6824 9.34094 80.9014 9.34094C80.1203 9.34094 79.4872 9.97504 79.4872 10.7572V33.2159C79.4872 33.9981 80.1203 34.6322 80.9014 34.6322C81.6824 34.6322 82.3156 33.9981 82.3156 33.2159V10.7572Z" fill="white"/>
<path d="M87.5508 10.7572C87.5508 9.97504 86.9177 9.34094 86.1366 9.34094C85.3556 9.34094 84.7224 9.97504 84.7224 10.7572V33.2159C84.7224 33.9981 85.3556 34.6322 86.1366 34.6322C86.9177 34.6322 87.5508 33.9981 87.5508 33.2159V10.7572Z" fill="white"/>
<path d="M92.7861 13.7079C92.7861 12.9257 92.153 12.2916 91.3719 12.2916C90.5909 12.2916 89.9577 12.9257 89.9577 13.7079V30.2652C89.9577 31.0474 90.5909 31.6815 91.3719 31.6815C92.153 31.6815 92.7861 31.0474 92.7861 30.2652V13.7079Z" fill="white"/>
<path d="M98.0214 21.0845C98.0214 20.3023 97.3883 19.6682 96.6072 19.6682C95.8262 19.6682 95.193 20.3023 95.193 21.0845V22.8886C95.193 23.6708 95.8262 24.3049 96.6072 24.3049C97.3883 24.3049 98.0214 23.6708 98.0214 22.8886V21.0845Z" fill="white"/>
<path d="M103.257 10.7572C103.257 9.97504 102.624 9.34094 101.843 9.34094C101.061 9.34094 100.428 9.97504 100.428 10.7572V33.2159C100.428 33.9981 101.061 34.6322 101.843 34.6322C102.624 34.6322 103.257 33.9981 103.257 33.2159V10.7572Z" fill="white"/>
<path d="M108.496 19.6092C108.496 18.827 107.863 18.1929 107.082 18.1929C106.301 18.1929 105.668 18.827 105.668 19.6092V24.3639C105.668 25.1461 106.301 25.7803 107.082 25.7803C107.863 25.7803 108.496 25.1461 108.496 24.3639V19.6092Z" fill="white"/>
<path d="M113.732 16.6585C113.732 15.8763 113.098 15.2422 112.317 15.2422C111.536 15.2422 110.903 15.8763 110.903 16.6585V27.3146C110.903 28.0968 111.536 28.7309 112.317 28.7309C113.098 28.7309 113.732 28.0968 113.732 27.3146V16.6585Z" fill="white"/>
<path d="M118.967 21.0845C118.967 20.3023 118.334 19.6682 117.553 19.6682C116.772 19.6682 116.138 20.3023 116.138 21.0845V22.8886C116.138 23.6708 116.772 24.3049 117.553 24.3049C118.334 24.3049 118.967 23.6708 118.967 22.8886V21.0845Z" fill="white"/>
<path d="M124.202 19.6092C124.202 18.827 123.569 18.1929 122.788 18.1929C122.007 18.1929 121.374 18.827 121.374 19.6092V24.3639C121.374 25.1461 122.007 25.7803 122.788 25.7803C123.569 25.7803 124.202 25.1461 124.202 24.3639V19.6092Z" fill="white"/>
<path d="M129.442 12.2326C129.442 11.4504 128.808 10.8163 128.027 10.8163C127.246 10.8163 126.613 11.4504 126.613 12.2326V31.7406C126.613 32.5228 127.246 33.1569 128.027 33.1569C128.808 33.1569 129.442 32.5228 129.442 31.7406V12.2326Z" fill="white"/>
<path d="M134.677 12.2326C134.677 11.4504 134.044 10.8163 133.263 10.8163C132.482 10.8163 131.848 11.4504 131.848 12.2326V31.7406C131.848 32.5228 132.482 33.1569 133.263 33.1569C134.044 33.1569 134.677 32.5228 134.677 31.7406V12.2326Z" fill="white"/>
<path d="M139.912 10.7572C139.912 9.97504 139.279 9.34094 138.498 9.34094C137.717 9.34094 137.084 9.97504 137.084 10.7572V33.2159C137.084 33.9981 137.717 34.6322 138.498 34.6322C139.279 34.6322 139.912 33.9981 139.912 33.2159V10.7572Z" fill="white"/>
<path d="M145.147 16.6585C145.147 15.8763 144.514 15.2422 143.733 15.2422C142.952 15.2422 142.319 15.8763 142.319 16.6585V27.3146C142.319 28.0968 142.952 28.7309 143.733 28.7309C144.514 28.7309 145.147 28.0968 145.147 27.3146V16.6585Z" fill="white"/>
<path d="M150.383 19.6092C150.383 18.827 149.75 18.1929 148.969 18.1929C148.188 18.1929 147.554 18.827 147.554 19.6092V24.3639C147.554 25.1461 148.188 25.7803 148.969 25.7803C149.75 25.7803 150.383 25.1461 150.383 24.3639V19.6092Z" fill="white"/>
<path d="M155.622 16.6585C155.622 15.8763 154.989 15.2422 154.208 15.2422C153.427 15.2422 152.794 15.8763 152.794 16.6585V27.3146C152.794 28.0968 153.427 28.7309 154.208 28.7309C154.989 28.7309 155.622 28.0968 155.622 27.3146V16.6585Z" fill="white"/>
<path d="M160.858 21.0845C160.858 20.3023 160.224 19.6682 159.443 19.6682C158.662 19.6682 158.029 20.3023 158.029 21.0845V22.8886C158.029 23.6708 158.662 24.3049 159.443 24.3049C160.224 24.3049 160.858 23.6708 160.858 22.8886V21.0845Z" fill="white"/>
<path d="M21.7557 9.34094C24.2567 9.34094 26.7016 10.0826 28.7812 11.4721C30.8608 12.8616 32.4816 14.8366 33.4387 17.1473C34.3958 19.458 34.6462 22.0006 34.1583 24.4536C33.6704 26.9066 32.466 29.1598 30.6975 30.9284C28.929 32.6969 26.6757 33.9013 24.2227 34.3892C21.7697 34.8771 19.2271 34.6267 16.9164 33.6696C14.6057 32.7125 12.6307 31.0917 11.2412 29.0121C9.85169 26.9325 9.11004 24.4876 9.11004 21.9866C9.11004 18.6327 10.4423 15.4163 12.8139 13.0448C15.1854 10.6732 18.4018 9.34094 21.7557 9.34094ZM27.5431 27.5506C27.6425 27.3856 27.6772 27.1896 27.6406 27.0005C27.604 26.8114 27.4987 26.6425 27.345 26.5263C27.2801 26.479 27.2126 26.4353 27.1427 26.3957C26.354 25.9259 25.5175 25.5415 24.6473 25.2491C23.0744 24.7342 21.4296 24.4724 19.7745 24.4735C19.2139 24.503 18.6491 24.5241 18.0884 24.5705C17.084 24.6596 16.0869 24.8173 15.1041 25.0426C15.0265 25.0588 14.9504 25.0814 14.8764 25.11C14.7076 25.1776 14.5681 25.3026 14.4825 25.463C14.3969 25.6234 14.3707 25.8089 14.4086 25.9868C14.437 26.1666 14.5295 26.33 14.6689 26.4469C14.8083 26.5639 14.9853 26.6265 15.1673 26.6233C15.2924 26.6193 15.4167 26.6024 15.5382 26.5727C16.7381 26.3026 17.9598 26.1404 19.1886 26.088C20.1398 26.0489 21.0926 26.1011 22.0339 26.2439C23.5589 26.4672 25.0261 26.9839 26.3545 27.7656C26.4224 27.8077 26.4928 27.8457 26.5652 27.8794C26.7389 27.9558 26.9344 27.9662 27.1152 27.9088C27.2959 27.8514 27.4496 27.73 27.5474 27.5675M29.0943 24.0942C29.2271 23.8718 29.267 23.6061 29.2054 23.3545C29.1439 23.1029 28.9859 22.8856 28.7656 22.7495L28.618 22.661C27.6371 22.0811 26.5934 21.6144 25.5072 21.27C23.3709 20.585 21.1309 20.2811 18.8893 20.3721C17.8414 20.4071 16.7988 20.5369 15.7743 20.7599C15.3528 20.8527 14.9312 20.9623 14.535 21.0845C14.3429 21.1451 14.1749 21.2651 14.0552 21.4272C13.9356 21.5893 13.8704 21.7851 13.869 21.9866C13.8645 22.1844 13.9201 22.379 14.0284 22.5445C14.1368 22.7101 14.2929 22.8389 14.476 22.9139C14.7035 22.9956 14.9524 22.9956 15.1799 22.9139C16.6018 22.5022 18.075 22.2949 19.5553 22.2985C20.674 22.2993 21.7902 22.4038 22.8896 22.6104C24.2926 22.8624 25.6525 23.3138 26.9277 23.9509C27.1132 24.0464 27.2949 24.1494 27.4766 24.2525C27.5675 24.304 27.6584 24.3555 27.7497 24.4061C27.9698 24.5414 28.2344 24.5846 28.4861 24.5262C28.7378 24.4678 28.9563 24.3126 29.0943 24.0942ZM29.2419 20.5155C29.4207 20.6242 29.6253 20.6833 29.8346 20.6866C30.0439 20.6899 30.2503 20.6373 30.4324 20.5342C30.6146 20.4311 30.7659 20.2812 30.8708 20.1001C30.9757 19.919 31.0304 19.7131 31.0291 19.5038C31.0291 19.4195 31.0291 19.3352 30.9954 19.2509C30.959 19.0861 30.8874 18.9311 30.7856 18.7965C30.6837 18.6619 30.554 18.5509 30.4053 18.4711C29.547 17.9747 28.642 17.5638 27.7033 17.2445C25.4104 16.4781 23.0137 16.0672 20.5965 16.0263C19.6121 15.9968 18.6267 16.0263 17.6458 16.1148C16.7212 16.1925 15.803 16.3333 14.8975 16.5363C14.5308 16.6206 14.1683 16.7133 13.81 16.8314C13.5759 16.9109 13.3737 17.0637 13.2332 17.2672C13.0928 17.4707 13.0216 17.714 13.0302 17.961C13.0361 18.2101 13.1209 18.4508 13.2724 18.6485C13.4239 18.8462 13.6343 18.9907 13.8732 19.0612C14.0936 19.1245 14.3273 19.1245 14.5477 19.0612C14.9144 18.9643 15.2853 18.8631 15.6563 18.783C16.6644 18.5732 17.6878 18.445 18.7165 18.3994C19.615 18.3493 20.5157 18.3493 21.4142 18.3994C22.2778 18.4513 23.1377 18.5526 23.9897 18.7029C25.2136 18.9086 26.4129 19.2406 27.5684 19.6935C28.1487 19.9363 28.712 20.218 29.2545 20.5365" fill="white"/>
<path fill-rule="evenodd" clip-rule="evenodd" d="M44.2459 19.6682C45.027 19.6682 45.6601 20.3023 45.6601 21.0845V22.8886C45.6601 23.6708 45.027 24.3049 44.2459 24.3049C43.4649 24.3049 42.8317 23.6708 42.8317 22.8886V21.0845C42.8317 20.3023 43.4649 19.6682 44.2459 19.6682ZM49.4812 16.7176C50.2622 16.7176 50.8954 17.3517 50.8954 18.1339V25.8393C50.8954 26.6215 50.2622 27.2556 49.4812 27.2556C48.7002 27.2556 48.067 26.6215 48.067 25.8393V18.1339C48.067 17.3517 48.7002 16.7176 49.4812 16.7176ZM54.7165 12.2916C55.4975 12.2916 56.1307 12.9257 56.1307 13.7079V30.2652C56.1307 31.0474 55.4975 31.6815 54.7165 31.6815C53.9354 31.6815 53.3023 31.0474 53.3023 30.2652V13.7079C53.3023 12.9257 53.9354 12.2916 54.7165 12.2916ZM59.956 15.2422C60.737 15.2422 61.3702 15.8763 61.3702 16.6585V27.3146C61.3702 28.0968 60.737 28.7309 59.956 28.7309C59.1749 28.7309 58.5418 28.0968 58.5418 27.3146V16.6585C58.5418 15.8763 59.1749 15.2422 59.956 15.2422ZM65.1913 12.2916C65.9723 12.2916 66.6055 12.9257 66.6055 13.7079V30.2652C66.6055 31.0474 65.9723 31.6815 65.1913 31.6815C64.4102 31.6815 63.7771 31.0474 63.7771 30.2652V13.7079C63.7771 12.9257 64.4102 12.2916 65.1913 12.2916ZM70.4266 10.8163C71.2076 10.8163 71.8408 11.4504 71.8408 12.2326V31.7406C71.8408 32.5228 71.2076 33.1569 70.4266 33.1569C69.6455 33.1569 69.0124 32.5228 69.0124 31.7406V12.2326C69.0124 11.4504 69.6455 10.8163 70.4266 10.8163ZM75.6618 18.1929C76.4429 18.1929 77.0761 18.827 77.0761 19.6092V24.3639C77.0761 25.1461 76.4429 25.7803 75.6618 25.7803C74.8808 25.7803 74.2476 25.1461 74.2476 24.3639V19.6092C74.2476 18.827 74.8808 18.1929 75.6618 18.1929ZM80.9014 9.34094C81.6824 9.34094 82.3156 9.97504 82.3156 10.7572V33.2159C82.3156 33.9981 81.6824 34.6322 80.9014 34.6322C80.1203 34.6322 79.4872 33.9981 79.4872 33.2159V10.7572C79.4872 9.97504 80.1203 9.34094 80.9014 9.34094ZM86.1366 9.34094C86.9177 9.34094 87.5508 9.97504 87.5508 10.7572V33.2159C87.5508 33.9981 86.9177 34.6322 86.1366 34.6322C85.3556 34.6322 84.7224 33.9981 84.7224 33.2159V10.7572C84.7224 9.97504 85.3556 9.34094 86.1366 9.34094ZM91.3719 12.2916C92.153 12.2916 92.7861 12.9257 92.7861 13.7079V30.2652C92.7861 31.0474 92.153 31.6815 91.3719 31.6815C90.5909 31.6815 89.9577 31.0474 89.9577 30.2652V13.7079C89.9577 12.9257 90.5909 12.2916 91.3719 12.2916ZM96.6072 19.6682C97.3883 19.6682 98.0214 20.3023 98.0214 21.0845V22.8886C98.0214 23.6708 97.3883 24.3049 96.6072 24.3049C95.8262 24.3049 95.193 23.6708 95.193 22.8886V21.0845C95.193 20.3023 95.8262 19.6682 96.6072 19.6682ZM101.843 9.34094C102.624 9.34094 103.257 9.97504 103.257 10.7572V33.2159C103.257 33.9981 102.624 34.6322 101.843 34.6322C101.061 34.6322 100.428 33.9981 100.428 33.2159V10.7572C100.428 9.97504 101.061 9.34094 101.843 9.34094ZM107.082 18.1929C107.863 18.1929 108.496 18.827 108.496 19.6092V24.3639C108.496 25.1461 107.863 25.7803 107.082 25.7803C106.301 25.7803 105.668 25.1461 105.668 24.3639V19.6092C105.668 18.827 106.301 18.1929 107.082 18.1929ZM112.317 15.2422C113.098 15.2422 113.732 15.8763 113.732 16.6585V27.3146C113.732 28.0968 113.098 28.7309 112.317 28.7309C111.536 28.7309 110.903 28.0968 110.903 27.3146V16.6585C110.903 15.8763 111.536 15.2422 112.317 15.2422ZM117.553 19.6682C118.334 19.6682 118.967 20.3023 118.967 21.0845V22.8886C118.967 23.6708 118.334 24.3049 117.553 24.3049C116.772 24.3049 116.138 23.6708 116.138 22.8886V21.0845C116.138 20.3023 116.772 19.6682 117.553 19.6682ZM122.788 18.1929C123.569 18.1929 124.202 18.827 124.202 19.6092V24.3639C124.202 25.1461 123.569 25.7803 122.788 25.7803C122.007 25.7803 121.374 25.1461 121.374 24.3639V19.6092C121.374 18.827 122.007 18.1929 122.788 18.1929ZM128.027 10.8163C128.808 10.8163 129.442 11.4504 129.442 12.2326V31.7406C129.442 32.5228 128.808 33.1569 128.027 33.1569C127.246 33.1569 126.613 32.5228 126.613 31.7406V12.2326C126.613 11.4504 127.246 10.8163 128.027 10.8163ZM133.263 10.8163C134.044 10.8163 134.677 11.4504 134.677 12.2326V31.7406C134.677 32.5228 134.044 33.1569 133.263 33.1569C132.482 33.1569 131.848 32.5228 131.848 31.7406V12.2326C131.848 11.4504 132.482 10.8163 133.263 10.8163ZM138.498 9.34094C139.279 9.34094 139.912 9.97504 139.912 10.7572V33.2159C139.912 33.9981 139.279 34.6322 138.498 34.6322C137.717 34.6322 137.084 33.9981 137.084 33.2159V10.7572C137.084 9.97504 137.717 9.34094 138.498 9.34094ZM143.733 15.2422C144.514 15.2422 145.147 15.8763 145.147 16.6585V27.3146C145.147 28.0968 144.514 28.7309 143.733 28.7309C142.952 28.7309 142.319 28.0968 142.319 27.3146V16.6585C142.319 15.8763 142.952 15.2422 143.733 15.2422ZM148.969 18.1929C149.75 18.1929 150.383 18.827 150.383 19.6092V24.3639C150.383 25.1461 149.75 25.7803 148.969 25.7803C148.188 25.7803 147.554 25.1461 147.554 24.3639V19.6092C147.554 18.827 148.188 18.1929 148.969 18.1929ZM154.208 15.2422C154.989 15.2422 155.622 15.8763 155.622 16.6585V27.3146C155.622 28.0968 154.989 28.7309 154.208 28.7309C153.427 28.7309 152.794 28.0968 152.794 27.3146V16.6585C152.794 15.8763 153.427 15.2422 154.208 15.2422ZM159.443 19.6682C160.224 19.6682 160.858 20.3023 160.858 21.0845V22.8886C160.858 23.6708 160.224 24.3049 159.443 24.3049C158.662 24.3049 158.029 23.6708 158.029 22.8886V21.0845C158.029 20.3023 158.662 19.6682 159.443 19.6682Z" fill="white"/>
</svg>
