<svg width="19" height="25" viewBox="0 0 19 25" fill="none" xmlns="http://www.w3.org/2000/svg">
<path fill-rule="evenodd" clip-rule="evenodd" d="M9.0534 23.1941L9.05485 23.1961C9.19965 23.3895 9.42729 23.5035 9.66889 23.5035C9.91049 23.5035 10.1385 23.389 10.2833 23.1956L10.2844 23.1941L10.3633 23.0878C10.4149 23.0179 10.4902 22.9155 10.5857 22.7842C10.7767 22.5214 11.049 22.1427 11.3755 21.6766C12.0279 20.7451 12.8991 19.4611 13.7716 18.0545C14.6425 16.6505 15.5232 15.1105 16.1887 13.6693C16.8407 12.2574 17.3378 10.8339 17.3378 9.69953C17.3378 7.66562 16.5298 5.715 15.0916 4.27681C13.6534 2.83861 11.7028 2.03064 9.66889 2.03064C7.63498 2.03064 5.68436 2.83861 4.24617 4.27681C2.80797 5.715 2 7.66562 2 9.69953C2 10.8339 2.49711 12.2574 3.14909 13.6693C3.81461 15.1105 4.69533 16.6505 5.56619 18.0545C6.43866 19.4611 7.30988 20.7451 7.96231 21.6766C8.28877 22.1427 8.56106 22.5214 8.7521 22.7842C8.84763 22.9155 8.92289 23.0179 8.9745 23.0878L9.03375 23.1678L9.04929 23.1886L9.0534 23.1941ZM9.66908 6.63194C7.97492 6.63194 6.60152 8.00534 6.60152 9.6995C6.60152 11.3937 7.97492 12.7671 9.66908 12.7671C11.3632 12.7671 12.7366 11.3937 12.7366 9.6995C12.7366 8.00534 11.3632 6.63194 9.66908 6.63194Z" fill="#ECC4AD"/>
<path d="M9.03375 23.1678L9.04929 23.1886L9.0534 23.1941L9.05485 23.1961C9.19965 23.3895 9.42729 23.5035 9.66889 23.5035C9.91049 23.5035 10.1385 23.389 10.2833 23.1956M9.03375 23.1678C9.02019 23.1495 9.0003 23.1227 8.9745 23.0878M9.03375 23.1678L8.9745 23.0878M8.9745 23.0878C8.92289 23.0179 8.84763 22.9155 8.7521 22.7842C8.56106 22.5214 8.28877 22.1427 7.96231 21.6766C7.30988 20.7451 6.43866 19.4611 5.56619 18.0545C4.69533 16.6505 3.81461 15.1105 3.14909 13.6693C2.49711 12.2574 2 10.8339 2 9.69953C2 7.66562 2.80797 5.715 4.24617 4.27681C5.68436 2.83861 7.63498 2.03064 9.66889 2.03064C11.7028 2.03064 13.6534 2.83861 15.0916 4.27681C16.5298 5.715 17.3378 7.66562 17.3378 9.69953C17.3378 10.8339 16.8407 12.2574 16.1887 13.6693C15.5232 15.1105 14.6425 16.6505 13.7716 18.0545C12.8991 19.4611 12.0279 20.7451 11.3755 21.6766C11.049 22.1427 10.7767 22.5214 10.5857 22.7842C10.4902 22.9155 10.4149 23.0179 10.3633 23.0878M10.3633 23.0878C10.3375 23.1227 10.3176 23.1495 10.304 23.1678M10.3633 23.0878L10.304 23.1678M10.3633 23.0878L10.2833 23.1956M10.3633 23.0878L10.2844 23.1941M10.304 23.1678L10.2885 23.1886L10.2844 23.1941M10.2844 23.1941L10.2833 23.1956M6.60152 9.6995C6.60152 8.00534 7.97492 6.63194 9.66908 6.63194C11.3632 6.63194 12.7366 8.00534 12.7366 9.6995C12.7366 11.3937 11.3632 12.7671 9.66908 12.7671C7.97492 12.7671 6.60152 11.3937 6.60152 9.6995Z" stroke="#ECC4AD" stroke-width="2.5563" stroke-linecap="round" stroke-linejoin="round"/>
</svg>
