<svg width="208" height="190" viewBox="0 0 208 190" fill="none" xmlns="http://www.w3.org/2000/svg">
<path d="M17.5418 155.915C15.3055 155.915 13.9637 155.02 12.3983 153.902C11.951 149.429 12.3983 145.628 12.8455 142.721C13.9637 133.104 15.7528 123.264 19.1073 113.872C19.1073 113.201 19.5545 112.53 19.7782 111.859C20.6727 110.517 21.3436 109.623 21.3436 108.952C21.3436 106.268 22.0145 104.703 22.6854 102.019C24.0272 98.6648 25.1454 94.6394 26.9344 91.2849C28.0526 88.825 28.4998 86.8123 29.1707 84.1287C30.7362 82.116 30.9598 79.4324 30.2889 76.7488C29.8416 75.6306 29.1707 73.1707 28.9471 71.8289C29.1707 69.3689 30.2889 67.5799 32.5252 67.5799C35.8797 68.0271 36.7743 66.6853 37.8924 63.5545C41.9178 56.1746 49.5213 38.9548 51.3104 29.3386C51.9813 23.9714 53.3231 18.6042 51.9813 13.0134C51.7577 11.448 51.0868 9.65893 50.4159 7.19897C49.9686 6.08081 49.0741 5.63354 47.5086 6.30444C46.1668 6.30444 45.7196 6.30444 44.825 6.97533C40.576 9.65893 36.5506 12.3425 33.867 16.1443C26.2635 24.4187 19.3309 34.0349 13.7401 43.4275C11.2801 46.1111 10.3856 49.0183 9.71468 52.5965C8.82015 54.3855 7.47835 55.28 6.13656 54.3855C4.34749 53.491 3.22933 52.1492 2.55843 50.8074C0.769365 49.242 0.545732 47.0056 1.44026 45.4402C2.78206 43.8748 3.45296 42.3093 4.34749 40.2966C11.2801 30.4568 18.2127 20.3933 26.4871 11.2244C29.8416 7.19897 33.6434 4.51538 36.9979 2.05541C40.1288 -0.180919 43.4832 -0.404549 47.5086 0.489984C53.3231 2.05541 56.6776 5.63354 59.3612 10.7771C60.703 13.6843 61.8211 17.0388 61.5975 19.946C61.3739 23.9714 60.9266 27.7732 59.5848 31.7986C58.9139 35.3767 57.1249 40.5203 56.2303 44.9929C53.994 49.6892 52.8758 54.6091 50.1922 59.9763C49.2977 61.0945 49.0741 63.3308 47.7323 65.5672C48.8504 66.6853 49.2977 67.1326 49.745 67.1326C65.1756 65.1199 80.8299 66.6853 95.8134 68.0271C96.4843 68.0271 97.6024 68.0271 97.6024 67.3562C98.2733 65.5672 99.1678 64.449 99.8387 62.6599C103.64 50.8074 107.666 39.1785 111.691 27.7732L112.362 25.9841C113.928 23.0769 115.269 21.9587 117.506 22.1824C120.637 22.1824 121.084 22.8533 122.426 25.5369C123.544 27.5496 123.767 30.0095 122.649 32.2459C121.755 35.1531 120.637 38.2839 118.848 41.4148L114.375 54.1619C113.257 56.8455 111.468 59.9763 110.797 62.4363C109.455 64.449 108.784 67.3562 107.666 69.3689C109.008 70.0398 109.679 70.2634 113.033 71.3816C115.269 72.0525 116.388 72.4998 120.86 74.9597L125.557 78.5379C127.346 80.9978 123.32 81.2215 121.978 80.9978C117.058 81.2215 116.164 78.5379 113.033 78.7615C112.362 78.7615 111.915 78.7615 111.244 78.5379C110.126 78.3142 106.324 77.1961 105.206 77.4197L104.088 80.3269C103.417 81.8924 102.522 86.8123 101.404 89.2722C100.733 89.7195 100.062 90.1668 99.3915 90.3904C97.1551 91.0613 96.4842 91.7322 98.0497 93.5213C99.6151 94.8631 99.6151 96.4285 99.1678 97.9939C97.826 100.23 97.3788 102.019 96.4842 104.479C95.8133 105.821 95.3661 106.939 94.6952 107.61C94.2479 107.61 93.3534 110.741 93.577 110.965C93.3534 112.754 92.9061 113.872 92.9061 115.214C92.6825 116.555 92.0116 118.121 92.0116 120.804C92.0116 123.712 92.4589 126.619 93.1298 128.855L94.0243 130.868V132.657L92.9061 133.999C90.2225 132.657 89.328 131.315 87.5389 128.855C86.4208 127.29 85.7499 125.054 84.8553 122.594C84.1844 118.568 83.9608 115.214 84.6317 111.412C86.1971 101.125 92.4589 80.9978 92.9061 78.9851C93.1298 78.7615 93.3534 78.0906 93.8007 75.8543C92.4589 75.6306 90.2225 75.8543 89.1044 75.8543C87.5389 75.6306 86.4208 75.6306 84.8553 75.6306H82.8426C80.3827 75.407 77.9227 76.7488 76.1337 76.3015C73.6737 75.8543 72.1083 76.0779 70.0956 76.3015C67.8592 76.3015 65.1756 76.0779 62.9393 76.5252C59.1376 77.1961 55.1122 77.1961 50.8631 77.867C48.1795 77.867 45.4959 78.9851 43.036 79.2088C40.7997 79.656 40.576 81.4451 40.1288 82.3396C38.1161 87.9304 36.5506 93.5213 33.6434 98.4412C31.6307 105.374 29.8416 112.306 27.3817 119.015C26.2635 122.817 25.1454 127.29 23.8036 131.315C23.1327 134.222 22.6854 143.839 22.6854 146.746C22.6854 149.429 22.2381 151.219 20.8963 153.902C20.4491 155.02 19.5545 155.915 17.5418 155.915Z" fill="white"/>
<path d="M207.071 184.192C206.438 184.824 206.228 185.457 205.384 185.878L202.222 187.987H202.643V188.408C200.324 189.673 198.427 189.673 196.107 189.462L187.252 189.041C184.3 187.987 176.71 184.824 176.078 185.035C172.493 183.77 169.542 181.661 166.168 179.764C161.53 177.445 156.891 174.493 152.042 171.541C148.458 169.644 138.759 163.951 134.964 162.475L130.958 161.421C127.374 160.578 125.687 160.367 122.947 160.367C119.784 160.367 116.2 160.578 112.405 162.897C111.561 163.319 111.14 164.373 110.718 165.216C110.296 165.849 109.242 165.849 108.61 166.481L107.977 167.957C107.345 168.168 106.712 168.59 106.501 168.8L105.869 171.541C105.025 172.806 103.971 173.65 103.339 174.704C102.917 175.336 102.284 176.18 102.074 177.023C100.387 179.342 99.3328 181.451 99.7544 185.878C98.9111 186.932 98.0677 186.089 97.2244 186.089C96.5919 186.3 95.9594 186.089 95.5377 185.246C94.9052 184.402 93.851 183.559 93.4293 182.716L91.9534 178.288C91.7426 177.445 91.5318 176.391 91.5318 175.758C91.5318 174.071 91.7426 172.595 92.1643 170.487C92.5859 169.011 93.6401 166.692 94.2727 165.216L97.6461 160.789C100.176 158.469 101.019 157.204 103.971 155.728L106.712 154.253C107.977 153.62 109.664 152.144 110.718 150.668C112.405 147.717 113.881 144.976 115.778 141.181L122.525 126.844L125.055 121.362C121.892 122.838 118.308 124.103 115.567 124.735L112.616 125.368C109.664 126 106.29 126.422 103.128 126.422C101.863 126.422 101.863 125.789 101.019 125.157C100.176 123.681 100.176 122.416 99.1219 121.784C98.7002 119.464 99.9653 118.621 99.9653 118.621L102.706 119.254C104.182 119.464 105.236 119.254 106.923 119.254C108.188 119.043 109.031 119.043 110.718 118.621C114.724 117.567 114.935 117.567 117.043 116.934C122.736 115.248 124.633 114.615 129.061 112.085C131.591 106.392 133.91 100.7 135.808 95.6397C139.814 85.5195 145.717 70.3391 149.934 63.5923C154.994 55.5805 162.162 50.5204 170.807 51.5746C179.029 52.4179 180.505 58.5322 179.873 63.5923C179.662 66.7549 178.608 71.6042 176.921 74.9776C172.072 84.8869 161.53 99.4348 138.127 113.983C136.44 118.621 134.121 123.681 133.067 126.211C130.537 131.693 123.79 144.976 123.157 145.608L120.417 151.09L117.886 154.674C121.682 154.042 124.422 154.253 127.585 154.674C131.591 155.307 133.067 156.15 135.808 156.783L138.338 157.837L140.235 159.102L142.765 159.945L145.717 161.843L146.982 162.686C147.825 164.162 149.723 165.427 151.41 165.216C153.94 165.427 155.205 167.535 157.735 168.379L159.843 170.276C160.265 170.065 160.476 170.276 160.476 170.276C161.741 171.963 162.795 172.595 164.692 173.017C165.747 172.806 166.59 173.861 167.223 174.493C167.644 174.493 168.488 175.126 168.698 175.336C171.018 175.336 171.439 176.18 172.915 177.656C173.758 178.499 174.813 177.866 175.656 178.288C178.608 179.975 181.349 180.818 184.3 182.083C187.041 183.348 189.15 183.137 192.312 183.559C194.21 183.77 196.951 183.77 199.902 183.559L203.908 183.348V183.77L207.071 184.192ZM142.133 103.23L147.404 99.2239C158.157 91.0013 163.638 83.6219 168.488 74.5559C170.596 70.3391 172.072 65.4899 172.072 61.2731C172.072 59.3756 171.228 56.4239 167.855 56.6347C166.59 56.8455 164.903 57.478 164.06 58.1106L161.741 60.0081C160.687 61.2731 159.843 61.484 157.102 66.9657C156.891 67.1766 157.102 66.9657 157.102 67.1766C155.837 69.4958 154.783 71.6042 153.94 73.7125C152.464 74.9776 152.886 77.086 151.41 78.1401C151.199 78.351 152.042 78.351 151.831 78.5618C151.41 79.1943 151.41 80.4594 150.355 80.881C150.777 82.1461 149.723 82.9894 149.512 84.4653C149.512 84.6761 149.09 84.6761 148.88 84.887C149.512 84.6761 149.301 85.7303 148.669 85.7303C148.669 86.5737 144.663 96.9047 142.133 103.23Z" fill="white"/>
<path d="M17.5418 155.915C15.3055 155.915 13.9637 155.02 12.3983 153.902C11.951 149.429 12.3983 145.628 12.8455 142.721C13.9637 133.104 15.7528 123.264 19.1073 113.872C19.1073 113.201 19.5545 112.53 19.7782 111.859C20.6727 110.517 21.3436 109.623 21.3436 108.952C21.3436 106.268 22.0145 104.703 22.6854 102.019C24.0272 98.6648 25.1454 94.6394 26.9344 91.2849C28.0526 88.825 28.4998 86.8123 29.1707 84.1287C30.7362 82.116 30.9598 79.4324 30.2889 76.7488C29.8416 75.6306 29.1707 73.1707 28.9471 71.8289C29.1707 69.3689 30.2889 67.5799 32.5252 67.5799C35.8797 68.0271 36.7743 66.6853 37.8924 63.5545C41.9178 56.1746 49.5213 38.9548 51.3104 29.3386C51.9813 23.9714 53.3231 18.6042 51.9813 13.0134C51.7577 11.448 51.0868 9.65893 50.4159 7.19897C49.9686 6.08081 49.0741 5.63354 47.5086 6.30444C46.1668 6.30444 45.7196 6.30444 44.825 6.97533C40.576 9.65893 36.5506 12.3425 33.867 16.1443C26.2635 24.4187 19.3309 34.0349 13.7401 43.4275C11.2801 46.1111 10.3856 49.0183 9.71468 52.5965C8.82015 54.3855 7.47835 55.28 6.13656 54.3855C4.34749 53.491 3.22933 52.1492 2.55843 50.8074C0.769365 49.242 0.545732 47.0056 1.44026 45.4402C2.78206 43.8748 3.45296 42.3093 4.34749 40.2966C11.2801 30.4568 18.2127 20.3933 26.4871 11.2244C29.8416 7.19897 33.6434 4.51538 36.9979 2.05541C40.1288 -0.180919 43.4832 -0.404549 47.5086 0.489984C53.3231 2.05541 56.6776 5.63354 59.3612 10.7771C60.703 13.6843 61.8211 17.0388 61.5975 19.946C61.3739 23.9714 60.9266 27.7732 59.5848 31.7986C58.9139 35.3767 57.1249 40.5203 56.2303 44.9929C53.994 49.6892 52.8758 54.6091 50.1922 59.9763C49.2977 61.0945 49.0741 63.3308 47.7323 65.5672C48.8504 66.6853 49.2977 67.1326 49.745 67.1326C65.1756 65.1199 80.8299 66.6853 95.8134 68.0271C96.4843 68.0271 97.6024 68.0271 97.6024 67.3562C98.2733 65.5672 99.1678 64.449 99.8387 62.6599C103.64 50.8074 107.666 39.1785 111.691 27.7732L112.362 25.9841C113.928 23.0769 115.269 21.9587 117.506 22.1824C120.637 22.1824 121.084 22.8533 122.426 25.5369C123.544 27.5496 123.767 30.0095 122.649 32.2459C121.755 35.1531 120.637 38.2839 118.848 41.4148L114.375 54.1619C113.257 56.8455 111.468 59.9763 110.797 62.4363C109.455 64.449 108.784 67.3562 107.666 69.3689C109.008 70.0398 109.679 70.2634 113.033 71.3816C115.269 72.0525 116.388 72.4998 120.86 74.9597L125.557 78.5379C127.346 80.9978 123.32 81.2215 121.978 80.9978C117.058 81.2215 116.164 78.5379 113.033 78.7615C112.362 78.7615 111.915 78.7615 111.244 78.5379C110.126 78.3142 106.324 77.1961 105.206 77.4197L104.088 80.3269C103.417 81.8924 102.522 86.8123 101.404 89.2722C100.733 89.7195 100.062 90.1668 99.3915 90.3904C97.1551 91.0613 96.4842 91.7322 98.0497 93.5213C99.6151 94.8631 99.6151 96.4285 99.1678 97.9939C97.826 100.23 97.3788 102.019 96.4842 104.479C95.8133 105.821 95.3661 106.939 94.6952 107.61C94.2479 107.61 93.3534 110.741 93.577 110.965C93.3534 112.754 92.9061 113.872 92.9061 115.214C92.6825 116.555 92.0116 118.121 92.0116 120.804C92.0116 123.712 92.4589 126.619 93.1298 128.855L94.0243 130.868V132.657L92.9061 133.999C90.2225 132.657 89.328 131.315 87.5389 128.855C86.4208 127.29 85.7499 125.054 84.8553 122.594C84.1844 118.568 83.9608 115.214 84.6317 111.412C86.1971 101.125 92.4589 80.9978 92.9061 78.9851C93.1298 78.7615 93.3534 78.0906 93.8007 75.8543C92.4589 75.6306 90.2225 75.8543 89.1044 75.8543C87.5389 75.6306 86.4208 75.6306 84.8553 75.6306H82.8426C80.3827 75.407 77.9227 76.7488 76.1337 76.3015C73.6737 75.8543 72.1083 76.0779 70.0956 76.3015C67.8592 76.3015 65.1756 76.0779 62.9393 76.5252C59.1376 77.1961 55.1122 77.1961 50.8631 77.867C48.1795 77.867 45.4959 78.9851 43.036 79.2088C40.7997 79.656 40.576 81.4451 40.1288 82.3396C38.1161 87.9304 36.5506 93.5213 33.6434 98.4412C31.6307 105.374 29.8416 112.306 27.3817 119.015C26.2635 122.817 25.1454 127.29 23.8036 131.315C23.1327 134.222 22.6854 143.839 22.6854 146.746C22.6854 149.429 22.2381 151.219 20.8963 153.902C20.4491 155.02 19.5545 155.915 17.5418 155.915Z" stroke="white"/>
<path d="M207.071 184.192C206.438 184.824 206.228 185.457 205.384 185.878L202.222 187.987H202.643V188.408C200.324 189.673 198.427 189.673 196.107 189.462L187.252 189.041C184.3 187.987 176.71 184.824 176.078 185.035C172.493 183.77 169.542 181.661 166.168 179.764C161.53 177.445 156.891 174.493 152.042 171.541C148.458 169.644 138.759 163.951 134.964 162.475L130.958 161.421C127.374 160.578 125.687 160.367 122.947 160.367C119.784 160.367 116.2 160.578 112.405 162.897C111.561 163.319 111.14 164.373 110.718 165.216C110.296 165.849 109.242 165.849 108.61 166.481L107.977 167.957C107.345 168.168 106.712 168.59 106.501 168.8L105.869 171.541C105.025 172.806 103.971 173.65 103.339 174.704C102.917 175.336 102.284 176.18 102.074 177.023C100.387 179.342 99.3328 181.451 99.7544 185.878C98.9111 186.932 98.0677 186.089 97.2244 186.089C96.5919 186.3 95.9594 186.089 95.5377 185.246C94.9052 184.402 93.851 183.559 93.4293 182.716L91.9534 178.288C91.7426 177.445 91.5318 176.391 91.5318 175.758C91.5318 174.071 91.7426 172.595 92.1643 170.487C92.5859 169.011 93.6401 166.692 94.2727 165.216L97.6461 160.789C100.176 158.469 101.019 157.204 103.971 155.728L106.712 154.253C107.977 153.62 109.664 152.144 110.718 150.668C112.405 147.717 113.881 144.976 115.778 141.181L122.525 126.844L125.055 121.362C121.892 122.838 118.308 124.103 115.567 124.735L112.616 125.368C109.664 126 106.29 126.422 103.128 126.422C101.863 126.422 101.863 125.789 101.019 125.157C100.176 123.681 100.176 122.416 99.1219 121.784C98.7002 119.464 99.9653 118.621 99.9653 118.621L102.706 119.254C104.182 119.464 105.236 119.254 106.923 119.254C108.188 119.043 109.031 119.043 110.718 118.621C114.724 117.567 114.935 117.567 117.043 116.934C122.736 115.248 124.633 114.615 129.061 112.085C131.591 106.392 133.91 100.7 135.808 95.6397C139.814 85.5195 145.717 70.3391 149.934 63.5923C154.994 55.5805 162.162 50.5204 170.807 51.5746C179.029 52.4179 180.505 58.5322 179.873 63.5923C179.662 66.7549 178.608 71.6042 176.921 74.9776C172.072 84.8869 161.53 99.4348 138.127 113.983C136.44 118.621 134.121 123.681 133.067 126.211C130.537 131.693 123.79 144.976 123.157 145.608L120.417 151.09L117.886 154.674C121.682 154.042 124.422 154.253 127.585 154.674C131.591 155.307 133.067 156.15 135.808 156.783L138.338 157.837L140.235 159.102L142.765 159.945L145.717 161.843L146.982 162.686C147.825 164.162 149.723 165.427 151.41 165.216C153.94 165.427 155.205 167.535 157.735 168.379L159.843 170.276C160.265 170.065 160.476 170.276 160.476 170.276C161.741 171.963 162.795 172.595 164.692 173.017C165.747 172.806 166.59 173.861 167.223 174.493C167.644 174.493 168.488 175.126 168.698 175.336C171.018 175.336 171.439 176.18 172.915 177.656C173.758 178.499 174.813 177.866 175.656 178.288C178.608 179.975 181.349 180.818 184.3 182.083C187.041 183.348 189.15 183.137 192.312 183.559C194.21 183.77 196.951 183.77 199.902 183.559L203.908 183.348V183.77L207.071 184.192ZM142.133 103.23L147.404 99.2239C158.157 91.0013 163.638 83.6219 168.488 74.5559C170.596 70.3391 172.072 65.4899 172.072 61.2731C172.072 59.3756 171.228 56.4239 167.855 56.6347C166.59 56.8455 164.903 57.478 164.06 58.1106L161.741 60.0081C160.687 61.2731 159.843 61.484 157.102 66.9657C156.891 67.1766 157.102 66.9657 157.102 67.1766C155.837 69.4958 154.783 71.6042 153.94 73.7125C152.464 74.9776 152.886 77.086 151.41 78.1401C151.199 78.351 152.042 78.351 151.831 78.5618C151.41 79.1943 151.41 80.4594 150.355 80.881C150.777 82.1461 149.723 82.9894 149.512 84.4653C149.512 84.6761 149.09 84.6761 148.88 84.887C149.512 84.6761 149.301 85.7303 148.669 85.7303C148.669 86.5737 144.663 96.9047 142.133 103.23Z" stroke="white"/>
</svg>
