<svg width="15" height="20" viewBox="0 0 15 20" fill="none" xmlns="http://www.w3.org/2000/svg">
<path fill-rule="evenodd" clip-rule="evenodd" d="M6.81049 17.783L6.81164 17.7845C6.92605 17.9373 7.10592 18.0274 7.29681 18.0274C7.48771 18.0274 7.66783 17.937 7.78224 17.7841L7.78313 17.783L7.84547 17.6989C7.88625 17.6437 7.94571 17.5628 8.02119 17.459C8.17214 17.2515 8.38728 16.9522 8.64523 16.5839C9.16073 15.8479 9.8491 14.8334 10.5385 13.722C11.2265 12.6127 11.9224 11.3959 12.4483 10.2571C12.9634 9.14157 13.3562 8.01687 13.3562 7.12054C13.3562 5.51349 12.7178 3.97226 11.5814 2.83591C10.4451 1.69955 8.90386 1.06116 7.29681 1.06116C5.68976 1.06116 4.14853 1.69955 3.01218 2.83591C1.87582 3.97226 1.23743 5.51349 1.23743 7.12054C1.23743 8.01687 1.63021 9.14157 2.14535 10.2571C2.6712 11.3959 3.36707 12.6127 4.05516 13.722C4.74452 14.8334 5.43289 15.8479 5.9484 16.5839C6.20635 16.9522 6.42148 17.2515 6.57243 17.459C6.64791 17.5628 6.70738 17.6437 6.74815 17.6989L6.79497 17.7621L6.80725 17.7786L6.81049 17.783ZM7.29696 4.69676C5.95836 4.69676 4.87321 5.78191 4.87321 7.12052C4.87321 8.45912 5.95836 9.54427 7.29696 9.54427C8.63556 9.54427 9.72071 8.45912 9.72071 7.12052C9.72071 5.78191 8.63556 4.69676 7.29696 4.69676Z" fill="#ECC4AD"/>
<path d="M6.79497 17.7621L6.80725 17.7786L6.81049 17.783L6.81164 17.7845C6.92605 17.9373 7.10592 18.0274 7.29681 18.0274C7.48771 18.0274 7.66783 17.937 7.78224 17.7841M6.79497 17.7621C6.78426 17.7477 6.76854 17.7266 6.74815 17.6989M6.79497 17.7621L6.74815 17.6989M6.74815 17.6989C6.70738 17.6437 6.64791 17.5628 6.57243 17.459C6.42148 17.2515 6.20635 16.9522 5.9484 16.5839C5.43289 15.8479 4.74452 14.8334 4.05516 13.722C3.36707 12.6127 2.6712 11.3959 2.14535 10.2571C1.63021 9.14157 1.23743 8.01687 1.23743 7.12054C1.23743 5.51349 1.87582 3.97226 3.01218 2.83591C4.14853 1.69955 5.68976 1.06116 7.29681 1.06116C8.90386 1.06116 10.4451 1.69955 11.5814 2.83591C12.7178 3.97226 13.3562 5.51349 13.3562 7.12054C13.3562 8.01687 12.9634 9.14157 12.4483 10.2571C11.9224 11.3959 11.2265 12.6127 10.5385 13.722C9.8491 14.8334 9.16073 15.8479 8.64523 16.5839C8.38728 16.9522 8.17214 17.2515 8.02119 17.459C7.94571 17.5628 7.88625 17.6437 7.84547 17.6989M7.84547 17.6989C7.82508 17.7266 7.80937 17.7477 7.79865 17.7621M7.84547 17.6989L7.79865 17.7621M7.84547 17.6989L7.78224 17.7841M7.84547 17.6989L7.78313 17.783M7.79865 17.7621L7.78638 17.7786L7.78313 17.783M7.78313 17.783L7.78224 17.7841M4.87321 7.12052C4.87321 5.78191 5.95836 4.69676 7.29696 4.69676C8.63556 4.69676 9.72071 5.78191 9.72071 7.12052C9.72071 8.45912 8.63556 9.54427 7.29696 9.54427C5.95836 9.54427 4.87321 8.45912 4.87321 7.12052Z" stroke="#ECC4AD" stroke-width="2.01979" stroke-linecap="round" stroke-linejoin="round"/>
</svg>
