<svg width="396" height="125" viewBox="0 0 396 125" fill="none" xmlns="http://www.w3.org/2000/svg">
<path d="M176.663 1.73157C177.702 2.99104 177.702 4.69133 177.324 6.20269C176.537 9.22543 175.088 12.1537 173.325 14.7671C174.144 14.7356 174.962 14.6726 175.781 14.6412C176.663 14.6097 176.663 15.9636 175.781 15.9951C174.521 16.0581 173.262 16.121 171.971 16.184C171.499 16.2155 171.089 15.5858 171.404 15.1764C173.01 12.9409 174.364 10.4849 175.34 7.90298C175.812 6.61202 176.442 5.13214 176.159 3.74672C175.907 2.58171 174.742 1.47968 173.608 2.36131C172.916 2.89658 172.254 1.70008 172.916 1.19629C174.081 0.283177 175.781 0.661019 176.663 1.73157Z" fill="white"/>
<path d="M189.156 2.04644C191.045 3.62078 190.95 6.58054 190.762 8.87907C190.667 10.17 190.415 15.082 187.959 13.7595C185.976 12.6575 185.85 9.7607 185.881 7.80852C185.881 6.51756 186.07 5.2266 186.511 3.99862C186.857 3.02253 187.329 2.07792 188.4 1.73157C188.746 1.60562 189.03 1.79454 189.156 2.04644ZM189.471 8.15488C189.502 6.64351 189.691 4.34497 188.463 3.21145C187.959 3.62078 187.739 4.56538 187.581 5.10066C187.329 5.98229 187.235 6.8954 187.235 7.80852C187.204 9.19394 187.204 11.1146 188.18 12.2167C188.243 12.2482 188.495 12.563 188.589 12.563C188.715 12.5945 188.778 12.4056 188.841 12.2796C188.998 11.8703 189.061 11.398 189.124 10.9572C189.313 10.0441 189.439 9.09948 189.471 8.15488Z" fill="white"/>
<path d="M202.976 1.73157C204.015 2.99104 204.015 4.69133 203.637 6.20269C202.85 9.22543 201.402 12.1537 199.639 14.7671C200.457 14.7356 201.276 14.6726 202.095 14.6412C202.976 14.6097 202.976 15.9636 202.095 15.9951C200.835 16.0581 199.576 16.121 198.285 16.184C197.812 16.2155 197.403 15.5858 197.718 15.1764C199.324 12.9409 200.678 10.4849 201.654 7.90298C202.126 6.61202 202.756 5.13214 202.472 3.74672C202.221 2.58171 201.056 1.47968 199.922 2.36131C199.229 2.89658 198.568 1.70008 199.229 1.19629C200.394 0.283177 202.095 0.661019 202.976 1.73157Z" fill="white"/>
<path d="M216.098 2.29833C216.287 6.39161 216.444 10.4849 216.633 14.5782C216.665 15.4598 215.311 15.4598 215.279 14.5782C215.185 12.689 215.122 10.7683 215.027 8.87907C214.964 8.91056 214.87 8.94204 214.775 8.94204C213.705 9.03651 212.634 9.16245 211.564 9.2884C211.028 9.35137 210.777 8.69015 210.997 8.28082C211.91 6.45459 212.445 4.47092 212.571 2.45577C212.634 1.57414 213.988 1.57414 213.925 2.45577C213.799 4.31349 213.39 6.10823 212.697 7.80852C213.39 7.74555 214.083 7.65109 214.775 7.58811C214.838 7.58811 214.901 7.58811 214.964 7.6196C214.901 5.82485 214.838 4.06159 214.744 2.29833C214.712 1.4167 216.066 1.4167 216.098 2.29833Z" fill="white"/>
<path d="M42.2984 62.8883C43.9043 64.3997 44.9748 66.2259 44.8804 68.5245C44.8489 69.5635 44.597 70.6341 44.2191 71.6102C42.9597 74.7274 40.2833 76.8685 37.1976 78.065C33.3877 79.6078 29.2944 79.23 25.39 78.2539C21.4857 77.2778 17.7073 75.7664 13.7084 75.1052C9.2688 74.381 4.92362 75.0422 1.01926 77.3408C0.263575 77.7816 -0.429133 76.6166 0.326547 76.1758C4.4828 73.7513 9.04839 73.0271 13.7714 73.7513C17.5813 74.3495 21.2338 75.7349 24.9807 76.7425C28.6332 77.7186 32.5375 78.3169 36.19 77.0259C39.1183 75.9868 41.8576 74.0032 42.9911 71.0434C43.2745 70.2247 43.4949 69.3746 43.5264 68.5559C43.5894 66.8871 42.9911 65.6277 41.9521 64.4627C41.9206 64.4627 41.9206 64.4627 41.8891 64.4627C41.8576 64.3997 41.7946 64.3367 41.7632 64.3052C41.6687 64.1793 41.5742 64.0848 41.4798 63.9589C41.4168 63.9274 41.3853 63.8644 41.3223 63.8329C41.3223 63.8014 41.2909 63.8014 41.2909 63.8014C40.85 63.3606 40.3463 63.0143 39.9054 62.5735C39.3387 62.0067 38.8979 61.3455 38.646 60.5898C38.0792 58.984 38.4256 57.1577 39.5276 55.8353C39.8425 55.4574 40.3148 54.9537 40.85 54.7018C40.85 54.7018 40.85 54.7018 40.8815 54.6703C40.976 54.6073 41.0704 54.5443 41.1964 54.5128C41.1964 54.5128 41.2279 54.4814 41.2594 54.4814C41.2909 54.4499 41.3538 54.4184 41.4168 54.4184C41.6687 54.2295 42.0465 54.1665 42.3299 54.3554C42.4244 54.3869 42.4874 54.4499 42.5188 54.5443C42.5818 54.6388 42.6133 54.7332 42.6133 54.8592C42.6133 54.9222 42.5818 55.0166 42.5503 55.0796C42.5503 55.1111 42.5503 55.1426 42.5188 55.1741C42.5188 55.3 42.4559 55.3945 42.3299 55.4574C42.2984 55.4889 42.2355 55.5204 42.1725 55.5519C42.1725 55.5834 42.141 55.5834 42.1095 55.6149C41.7317 55.7723 41.3853 55.9927 41.039 56.2131C40.913 56.3391 40.7871 56.4335 40.6926 56.5595C40.4407 56.8429 40.2203 57.1577 40.0314 57.5041C39.685 58.2598 39.6221 59.1099 39.8425 59.8971C40.1888 61.251 41.3223 61.9437 42.267 62.8568C42.267 62.8568 42.267 62.8568 42.2984 62.8883Z" fill="white"/>
<path d="M61.1785 68.6189C61.3359 69.4691 60.0449 69.8154 59.856 68.9653C59.4152 66.6982 58.9429 64.3997 58.4706 62.1012C58.4076 61.7863 58.3446 61.5029 58.2817 61.188C57.463 61.251 56.6129 61.314 55.7627 61.377C54.9126 63.9904 54.1569 66.6038 53.4957 69.2487C53.2753 70.0988 51.9528 69.7524 52.1732 68.9023C53.4327 64.0533 54.9441 59.2988 56.7073 54.6073C56.9592 53.9461 57.9668 54.072 58.0613 54.6388C58.6595 55.1426 58.6595 56.2446 58.8169 56.9373C59.0688 58.1968 59.3207 59.4563 59.5726 60.7157C60.1079 63.3606 60.6432 65.974 61.1785 68.6189ZM56.235 59.9915C56.8333 59.9601 57.4315 59.8971 58.0298 59.8656L57.8094 58.7321C57.6834 58.1653 57.5575 57.5671 57.4315 57.0003C57.4315 56.8743 57.4 56.7799 57.3686 56.6854C56.9907 57.7875 56.5814 58.8895 56.235 59.9915ZM57.1796 52.3717C56.8648 52.3403 56.5814 52.1198 56.7073 51.742C56.9592 50.9863 57.3371 50.2936 57.8094 49.6639C57.7464 49.412 57.8723 49.0656 58.1557 49.0341C58.691 48.9397 59.1948 48.9397 59.7301 49.0656C60.1709 49.1601 60.1709 49.7268 59.8875 49.9473C59.856 50.0102 59.8245 50.0417 59.793 50.0732C59.0374 50.7029 58.3761 51.3956 57.8409 52.2143C57.6834 52.4662 57.3686 52.4662 57.1796 52.3717Z" fill="white"/>
<path d="M75.9352 61.251C76.5334 62.416 76.7853 63.7385 76.5964 64.9979C76.1871 67.7058 73.8885 69.6895 71.2436 70.0358C71.1492 70.0358 71.0862 70.0358 70.9918 70.0358C70.8973 70.0673 70.7713 70.0673 70.6769 70.0043C70.6454 70.0043 70.6454 69.9729 70.6139 69.9729C70.5195 69.9414 70.3935 69.9099 70.3305 69.7839V69.7524C70.299 69.721 70.2676 69.6895 70.2676 69.658C70.2676 69.6265 70.2676 69.595 70.2361 69.5635C70.2361 69.5635 70.2361 69.532 70.2361 69.5005C70.1731 69.4376 70.1416 69.3431 70.1101 69.2487C70.1101 69.0912 70.0786 68.9653 70.0472 68.8078C70.0472 68.6819 70.0472 68.5559 70.0786 68.4615C69.9212 64.1163 69.7323 59.7711 69.5749 55.426C69.5749 55.3315 69.5748 55.237 69.5434 55.1111C69.4804 54.9537 69.4804 54.7647 69.5434 54.6388C69.5434 54.6073 69.5434 54.6073 69.5434 54.6073C69.5434 54.5443 69.5748 54.5128 69.6063 54.4499C69.6378 53.8201 70.8343 53.5997 71.3066 53.6312C71.3381 53.6312 71.3696 53.6312 71.4011 53.6312C71.8104 53.5367 72.3142 53.6312 72.7235 53.7257C72.755 53.7572 72.818 53.7572 72.8495 53.7572C73.2273 53.8201 73.6681 53.9146 73.92 54.198C74.2664 54.4499 74.5183 54.7962 74.6757 55.1741C74.7702 55.3315 74.8331 55.4889 74.8961 55.6779C75.1795 56.9058 74.6127 58.0394 73.8256 59.0154C73.8885 59.0469 73.92 59.0469 73.983 59.0784C73.983 59.0784 73.983 59.0784 74.0145 59.0784C74.0145 59.1414 74.0775 59.1729 74.1404 59.1729C74.1719 59.2044 74.2034 59.2044 74.2349 59.2044C74.9906 59.6767 75.6203 60.6213 75.9352 61.251ZM71.2436 59.2359C71.3381 59.2359 71.4641 59.2044 71.59 59.1729C72.2512 58.6061 72.8495 57.9764 73.1958 57.1892C73.2903 56.9688 73.4162 56.6854 73.4162 56.402C73.4162 56.3706 73.4162 56.3391 73.4162 56.3076C73.4162 56.2446 73.4162 56.2131 73.4162 56.1816C73.3847 56.0557 73.3533 55.9612 73.2903 55.8668C72.9124 55.3 71.9993 55.237 71.3066 55.3C71.3066 55.3315 71.3066 55.3315 71.3381 55.363C71.2437 55.363 71.1807 55.363 71.0862 55.363C71.1492 56.6539 71.1807 57.9449 71.2436 59.2359ZM75.211 65.0609C75.5259 63.6125 75.0221 61.6289 73.7941 60.5898C72.9124 60.149 71.59 60.7472 71.3381 61.6918C71.3381 61.7233 71.3381 61.7233 71.3381 61.7548C71.4011 63.9274 71.4955 66.1315 71.5585 68.3041C71.59 68.3041 71.6215 68.2726 71.653 68.2726C71.653 68.2726 71.653 68.2726 71.6215 68.2726C71.59 68.4615 71.8419 68.5874 71.9364 68.4615C71.9364 68.493 71.9364 68.5245 71.9049 68.5245C73.5107 68.0522 74.8331 66.6982 75.211 65.0609Z" fill="white"/>
<path d="M92.3196 68.6189C92.4771 69.4691 91.1861 69.8154 90.9972 68.9653C90.5564 66.6982 90.0841 64.3997 89.6118 62.1012C89.5488 61.7863 89.4858 61.5029 89.4228 61.188C88.6042 61.251 87.754 61.314 86.9039 61.377C86.0538 63.9904 85.2981 66.6038 84.6369 69.2487C84.4164 70.0988 83.094 69.7524 83.3144 68.9023C84.5739 64.0533 86.0852 59.2988 87.8485 54.6073C88.1004 53.9461 89.108 54.072 89.2024 54.6388C89.8007 55.1426 89.8007 56.2446 89.9581 56.9373C90.21 58.1968 90.4619 59.4563 90.7138 60.7157C91.2491 63.3606 91.7843 65.974 92.3196 68.6189ZM87.3762 59.9915C87.9744 59.9601 88.5727 59.8971 89.1709 59.8656L88.9505 58.7321C88.8246 58.1653 88.6986 57.5671 88.5727 57.0003C88.5727 56.8743 88.5412 56.7799 88.5097 56.6854C88.1319 57.7875 87.7226 58.8895 87.3762 59.9915Z" fill="white"/>
<path d="M101.755 54.198C105.282 54.6703 108.399 57.63 108.178 61.377C108.052 63.2032 107.202 64.872 106.069 66.2889C105.471 67.0761 104.809 67.7688 104.085 68.43C103.55 68.9338 103.015 69.6895 102.164 69.5005C102.164 69.5005 102.164 69.4691 102.133 69.4691C101.787 69.595 101.377 69.4376 101.283 69.0282C101.22 68.9023 101.188 68.7764 101.157 68.6189C101.125 68.43 101.157 68.2726 101.22 68.1151C101.125 63.644 100.936 59.1729 100.653 54.7018C100.59 54.1035 101.283 53.9146 101.692 54.198C101.724 54.198 101.724 54.198 101.755 54.198ZM105.408 64.935C106.226 63.8014 106.824 62.416 106.824 60.9991C106.793 58.1968 104.589 56.2131 102.038 55.6149C102.322 59.7396 102.479 63.8644 102.574 68.0207C102.731 67.8318 103.078 67.5169 103.141 67.4539C103.424 67.202 103.707 66.9186 103.991 66.6353C104.494 66.1 104.998 65.5647 105.408 64.935Z" fill="white"/>
<path d="M126.046 61.0621C126.109 63.77 125.133 66.6982 122.866 68.2726C120.788 69.721 117.702 69.6265 116.065 67.5799C114.396 65.5017 114.428 62.1326 115.278 59.7396C116.096 57.5041 117.923 55.6149 120.284 55.2685C120.41 55.2055 120.567 55.2055 120.693 55.237C120.882 55.237 121.071 55.2055 121.26 55.237C121.449 55.237 121.607 55.3 121.701 55.426C121.732 55.426 121.732 55.426 121.764 55.426C122.11 55.4574 122.457 55.5519 122.772 55.6779C123.433 55.9297 124.031 56.3391 124.503 56.8429C125.574 58.0079 126.015 59.5507 126.046 61.0621ZM123.118 66.2259C124.503 64.5571 125.007 62.0067 124.566 59.9286C124.346 58.8265 123.779 57.819 122.835 57.2207C122.394 56.9373 121.89 56.7484 121.323 56.7484C120.914 56.7484 120.599 56.8114 120.221 56.6539C118.08 57.0948 116.695 59.1414 116.285 61.2825C115.876 63.2032 115.939 66.0055 117.671 67.2965C119.402 68.5559 121.858 67.7373 123.118 66.2259Z" fill="white"/>
<path d="M166.626 83.9132C165.424 83.9132 164.323 83.7652 163.324 83.4692C161.714 83.0067 160.437 82.1279 159.494 80.8328C158.569 79.5377 158.106 78.0668 158.106 76.4202C158.106 75.8466 158.171 75.2731 158.301 74.6995C158.763 72.5904 159.762 70.731 161.298 69.1214C162.852 67.5117 164.684 66.3832 166.793 65.7356C166.848 65.7171 166.941 65.7079 167.07 65.7079C167.477 65.7079 167.875 65.9206 168.264 66.3462C168.671 66.7532 168.874 67.151 168.874 67.5395C168.874 67.891 168.698 68.1223 168.347 68.2333C166.534 68.7883 164.943 69.7412 163.573 71.0918C162.204 72.4239 161.298 73.978 160.854 75.7541C160.687 76.4202 160.604 77.04 160.604 77.6135C160.604 78.5016 160.807 79.2231 161.215 79.7782C161.899 80.7403 163.24 81.2213 165.239 81.2213C168.125 81.2213 170.881 80.5182 173.509 79.1121C176.154 77.706 178.393 75.8096 180.225 73.4229C182.075 71.0363 183.287 68.4276 183.86 65.5968C184.082 64.4683 184.193 63.3582 184.193 62.2666C184.193 60.768 183.953 59.4266 183.472 58.2425C183.009 57.0399 182.223 56.1519 181.113 55.5783L180.946 55.4673C178.615 56.3554 176.82 56.7994 175.562 56.7994C174.397 56.7994 173.509 56.4202 172.898 55.6616C172.584 55.2731 172.426 54.8845 172.426 54.496C172.426 54.052 172.602 53.6542 172.954 53.3027C173.324 52.9511 173.786 52.6829 174.341 52.4978C175.137 52.2573 175.951 52.1371 176.783 52.1371C177.838 52.1371 178.92 52.3313 180.03 52.7199C183.416 51.2768 185.821 49.3341 187.246 46.8919C188.116 45.3748 188.569 43.5987 188.606 41.5635C188.606 40.5459 188.467 39.6024 188.19 38.7328C187.912 37.8447 187.486 37.0954 186.913 36.4849C186.265 35.7818 185.424 35.2638 184.388 34.9308C183.37 34.5977 182.269 34.4312 181.085 34.4312C180.049 34.4312 179.013 34.5422 177.977 34.7642C176.941 34.9863 176.016 35.2823 175.202 35.6523C173.129 36.5959 171.39 37.9835 169.984 39.8151C168.578 41.6468 167.829 43.6449 167.736 45.8096C167.718 46.2536 167.533 46.4756 167.181 46.4756C166.774 46.4756 166.349 46.2721 165.905 45.8651C165.461 45.4581 165.239 45.0418 165.239 44.6163V44.5885C165.331 42.2203 166.08 40.0649 167.486 38.1223C168.911 36.1796 170.724 34.6532 172.926 33.5432C175.128 32.4331 177.403 31.878 179.753 31.878C182.269 31.878 184.517 32.4793 186.497 33.6819C188.495 34.866 189.827 36.6051 190.493 38.8993C190.863 40.1759 191.048 41.4433 191.048 42.7014C191.048 44.644 190.613 46.4756 189.744 48.1963C188.893 49.9169 187.662 51.397 186.053 52.6366C185.091 53.3582 184.128 53.9687 183.166 54.4683C184.369 55.5043 185.257 56.8179 185.831 58.409C186.404 59.9817 186.691 61.6653 186.691 63.4599C186.691 64.311 186.626 65.1621 186.497 66.0131C186.108 68.5848 185.211 71.0455 183.805 73.3952C182.399 75.7264 180.65 77.7153 178.56 79.3619C176.876 80.694 174.97 81.7856 172.843 82.6366C170.733 83.4877 168.661 83.9132 166.626 83.9132Z" fill="white"/>
<path d="M202.087 59.3526C201.698 60.8327 201.365 62.4886 201.088 64.3202C200.829 66.1519 200.699 67.9465 200.699 69.7042C200.718 73.0529 201.31 75.7911 202.475 77.9188C203.659 80.0464 205.639 81.1103 208.414 81.1103C208.821 81.1103 209.126 81.101 209.33 81.0825C213.326 80.731 216.897 78.9456 220.042 75.7264C223.206 72.5256 225.768 68.6958 227.73 64.237C229.709 59.7597 231.041 55.4303 231.726 51.249C232.17 48.5478 232.392 46.3739 232.392 44.7273C232.392 41.582 231.717 39.0658 230.366 37.1787C229.7 36.2351 228.849 35.5321 227.813 35.0695C226.777 34.607 225.667 34.3757 224.483 34.3757C222.799 34.3757 221.245 34.792 219.82 35.6246C220.209 35.6616 220.57 35.8928 220.903 36.3184C221.254 36.7254 221.43 37.1139 221.43 37.484V37.5395C221.43 37.965 221.189 38.187 220.708 38.2055C219.265 38.2425 217.952 38.4738 216.768 38.8993C216.509 39.3063 216.324 39.7689 216.213 40.2869C216.12 40.7495 215.861 40.9807 215.435 40.9807C214.954 40.9807 214.492 40.7125 214.048 40.1759C211.125 41.952 208.645 44.6347 206.61 48.224C204.575 51.7948 203.058 55.5043 202.059 59.3526H202.087ZM209.247 83.8022C206.176 83.8022 203.733 82.7384 201.92 80.6107C200.107 78.4831 198.96 75.7911 198.479 72.5349C198.275 71.1473 198.174 69.7134 198.174 68.2333C198.174 64.459 198.83 60.398 200.144 56.0501C201.421 51.7948 203.289 47.8447 205.75 44.2C208.229 40.5367 211.199 38.0112 214.658 36.6236C215.528 35.1065 216.777 33.9224 218.405 33.0714C220.052 32.2018 221.772 31.767 223.567 31.767C225.472 31.767 227.249 32.2573 228.895 33.2379C230.56 34.2 231.892 35.5598 232.892 37.3174C234.205 39.6301 234.862 42.4701 234.862 45.8373C234.862 47.8355 234.621 50.2684 234.14 53.1361C233.53 56.5034 232.559 59.9077 231.226 63.3489C229.913 66.7902 228.229 70.0094 226.176 73.0067C224.122 75.9854 221.8 78.3906 219.21 80.2222C217.711 81.2953 216.092 82.1556 214.353 82.8032C212.632 83.4692 210.93 83.8022 209.247 83.8022Z" fill="white"/>
<path d="M322.301 49.8843C323.151 49.6639 323.498 50.9548 322.648 51.1752C317.358 52.5292 311.974 51.7735 306.747 50.4825C302.37 49.412 297.993 47.9006 293.459 47.5857C290.657 47.3653 287.918 47.8062 285.273 48.7193C282.817 49.5694 280.487 50.8919 278.724 52.8126C276.268 55.4889 275.417 59.0469 275.543 62.6049C275.543 62.6049 275.543 62.6049 275.543 62.6364C275.638 64.3682 275.764 66.1 275.921 67.8632C275.921 67.8947 275.921 67.8947 275.921 67.9262V68.1781C275.921 68.2096 275.921 68.2096 275.921 68.2411C275.89 68.5559 275.921 68.8708 275.921 69.2172C275.921 69.2172 275.921 69.2487 275.921 69.2801C275.953 69.721 275.858 70.0988 275.48 70.1933C275.008 70.3192 274.536 70.0043 274.221 69.6265C274.158 69.595 274.095 69.532 274.032 69.4691C272.615 67.6743 271.482 65.7221 270.631 63.581C270.285 62.6679 269.97 61.7863 269.687 60.8417C269.813 63.77 269.939 66.6667 270.033 69.595C270.065 70.4766 268.774 70.4137 268.679 69.595C268.679 69.4691 268.648 69.3746 268.648 69.2487C268.616 69.1227 268.616 69.0283 268.648 68.9653C268.522 64.3682 268.301 59.8026 267.987 55.237C267.924 54.4499 269.057 54.3869 269.278 55.0481C269.309 55.0796 269.341 55.1426 269.341 55.1741C269.372 55.426 269.435 55.6464 269.466 55.8983C269.498 55.9297 269.498 55.9927 269.529 56.0242C270.883 60.149 272.017 64.4312 274.599 67.9892C274.41 66.1944 274.284 64.3997 274.158 62.6049C274.032 58.5117 275.197 54.4499 278.125 51.4901C282.03 47.5228 288.359 45.7595 293.774 46.2318C298.434 46.6411 302.937 48.184 307.471 49.2545C312.351 50.451 317.358 51.1438 322.301 49.8843Z" fill="white"/>
<path d="M294.917 61.0621C294.98 63.77 294.004 66.6982 291.737 68.2726C289.659 69.721 286.573 69.6265 284.936 67.5799C283.267 65.5017 283.299 62.1326 284.149 59.7396C284.967 57.5041 286.794 55.6149 289.155 55.2685C289.281 55.2055 289.438 55.2055 289.564 55.237C289.753 55.237 289.942 55.2055 290.131 55.237C290.32 55.237 290.477 55.3 290.572 55.426C290.603 55.426 290.603 55.426 290.635 55.426C290.981 55.4574 291.328 55.5519 291.643 55.6779C292.304 55.9297 292.902 56.3391 293.374 56.8429C294.445 58.0079 294.886 59.5507 294.917 61.0621ZM291.989 66.2259C293.374 64.5571 293.878 62.0067 293.437 59.9286C293.217 58.8265 292.65 57.819 291.705 57.2207C291.265 56.9373 290.761 56.7484 290.194 56.7484C289.785 56.7484 289.47 56.8114 289.092 56.6539C286.951 57.0948 285.566 59.1414 285.156 61.2825C284.747 63.2032 284.81 66.0055 286.542 67.2965C288.273 68.5559 290.729 67.7373 291.989 66.2259Z" fill="white"/>
<path d="M307.394 54.135C307.551 53.2849 308.873 53.6627 308.716 54.5128C307.866 59.0784 307.331 63.707 307.047 68.367C306.984 69.1227 305.882 69.3116 305.725 68.5559C305.221 66.5093 304.717 64.4627 304.182 62.416C303.898 61.4399 303.647 60.4324 303.363 59.4248C303.143 58.6376 302.985 57.7875 302.702 57.0003C302.671 56.9688 302.671 56.9688 302.639 56.9373C302.639 56.9373 302.608 56.9058 302.576 56.9058C302.608 56.9058 302.639 56.9058 302.671 56.8743C302.639 56.8114 302.608 56.7169 302.608 56.6539C302.545 56.528 302.513 56.402 302.482 56.3076C302.356 56.0242 302.293 55.7093 302.576 55.4889C302.922 55.2055 303.206 55.3 303.458 55.5519C303.489 55.5834 303.521 55.6149 303.552 55.6779C303.615 55.7723 303.678 55.8668 303.71 55.9612C304.15 56.5595 304.245 57.5356 304.434 58.2283C304.749 59.2988 305.032 60.4009 305.315 61.5029C305.567 62.3845 305.788 63.2662 306.008 64.1478C306.354 60.8102 306.795 57.4726 307.394 54.135Z" fill="white"/>
<path d="M325.866 68.367C326.653 67.8003 327.409 69.0912 326.622 69.658C325.236 70.6026 323.505 71.2008 321.867 70.6026C320.262 70.0043 319.6 68.6189 319.317 67.0131C318.719 63.581 318.309 60.1175 317.963 56.6539C317.176 56.7799 316.704 55.6778 317.428 55.2685C317.522 55.2055 317.617 55.1741 317.711 55.1426C317.743 55.1426 317.774 55.1426 317.806 55.1426C318.309 55.0166 318.813 54.9222 319.285 54.7962C319.789 54.7018 320.262 54.6388 320.765 54.6073C321.269 54.6073 321.773 54.6073 322.277 54.6073C323.095 54.6388 323.316 55.8983 322.466 56.0872C322.403 56.1187 322.34 56.1187 322.277 56.1187C322.214 56.1187 322.182 56.1187 322.151 56.1187C322.119 56.1187 322.088 56.1187 322.025 56.1187C321.678 56.1187 321.301 56.1187 320.923 56.1187C320.45 56.1187 319.978 56.1816 319.506 56.2761C319.474 56.2761 319.443 56.3076 319.443 56.3076C319.569 57.693 319.726 59.0784 319.884 60.4324C319.978 60.4638 320.041 60.4953 320.104 60.5268C320.136 60.5583 320.167 60.5583 320.199 60.5583C320.23 60.5898 320.293 60.6213 320.325 60.6528C320.45 60.6213 320.608 60.5898 320.671 60.5898C320.986 60.5268 321.269 60.4953 321.553 60.4324C322.151 60.3379 322.749 60.2434 323.316 60.149C324.292 59.9915 324.67 61.4399 323.725 61.5974C322.906 61.7233 322.056 61.8807 321.238 62.0067C320.86 62.0697 320.482 62.1641 320.104 62.1956C320.23 63.1087 320.387 64.0219 320.513 64.9035C320.702 66.1944 320.702 68.1781 321.93 68.9653C323.221 69.7839 324.733 69.1227 325.866 68.367Z" fill="white"/>
<path d="M347.372 55.0796C347.529 60.1175 347.718 65.1869 347.939 70.2247C348.002 70.9804 346.805 71.1379 346.616 70.4137C346.585 70.2247 346.553 70.0358 346.49 69.8784C346.459 69.6895 346.49 69.532 346.553 69.4061C346.396 65.5332 346.238 61.6603 346.112 57.7875V57.819C346.081 57.8504 346.081 57.8504 346.049 57.8819C345.388 58.795 344.758 59.7396 344.16 60.6842C344.16 60.7472 344.129 60.8102 344.097 60.8732C343.09 62.5105 342.24 64.2423 341.515 66.0685C341.326 66.5093 340.886 66.6038 340.539 66.4778C340.287 66.4778 340.035 66.3204 339.91 66.0055C339.059 63.644 338.083 61.314 336.981 59.0469C337.233 62.1012 337.328 65.1239 337.296 68.1781C337.359 68.3041 337.391 68.4615 337.359 68.6189C337.328 68.8393 337.296 69.0597 337.265 69.2801C337.139 70.0358 335.911 69.8469 335.942 69.0912C336.005 64.4942 335.785 59.9286 335.281 55.363C335.155 54.5128 336.54 54.5128 336.635 55.363V55.3945C338.209 58.2913 339.563 61.314 340.76 64.3997C341.201 63.3921 341.641 62.3845 342.177 61.4399C343.247 59.0469 344.664 56.7484 346.049 54.5128C346.049 54.4814 346.081 54.4499 346.081 54.4184C346.27 53.5682 347.592 53.9461 347.372 54.7962C347.372 54.8277 347.372 54.8592 347.34 54.8907C347.372 54.9537 347.372 55.0166 347.372 55.0796Z" fill="white"/>
<path d="M362.733 61.251C363.331 62.416 363.583 63.7385 363.394 64.9979C362.985 67.7058 360.686 69.6895 358.041 70.0358C357.947 70.0358 357.884 70.0358 357.789 70.0358C357.695 70.0673 357.569 70.0673 357.474 70.0043C357.443 70.0043 357.443 69.9729 357.411 69.9729C357.317 69.9414 357.191 69.9099 357.128 69.7839V69.7524C357.097 69.721 357.065 69.6895 357.065 69.658C357.065 69.6265 357.065 69.595 357.034 69.5635C357.034 69.5635 357.034 69.532 357.034 69.5005C356.971 69.4376 356.939 69.3431 356.908 69.2487C356.908 69.0912 356.876 68.9653 356.845 68.8078C356.845 68.6819 356.845 68.5559 356.876 68.4615C356.719 64.1163 356.53 59.7711 356.372 55.426C356.372 55.3315 356.372 55.237 356.341 55.1111C356.278 54.9537 356.278 54.7647 356.341 54.6388C356.341 54.6073 356.341 54.6073 356.341 54.6073C356.341 54.5443 356.372 54.5128 356.404 54.4499C356.435 53.8201 357.632 53.5997 358.104 53.6312C358.136 53.6312 358.167 53.6312 358.199 53.6312C358.608 53.5367 359.112 53.6312 359.521 53.7257C359.553 53.7572 359.616 53.7572 359.647 53.7572C360.025 53.8201 360.466 53.9146 360.718 54.198C361.064 54.4499 361.316 54.7962 361.473 55.1741C361.568 55.3315 361.631 55.4889 361.694 55.6779C361.977 56.9058 361.41 58.0394 360.623 59.0154C360.686 59.0469 360.718 59.0469 360.781 59.0784C360.781 59.0784 360.781 59.0784 360.812 59.0784C360.812 59.1414 360.875 59.1729 360.938 59.1729C360.97 59.2044 361.001 59.2044 361.032 59.2044C361.788 59.6767 362.418 60.6213 362.733 61.251ZM358.041 59.2359C358.136 59.2359 358.262 59.2044 358.388 59.1729C359.049 58.6061 359.647 57.9764 359.993 57.1892C360.088 56.9688 360.214 56.6854 360.214 56.402C360.214 56.3706 360.214 56.3391 360.214 56.3076C360.214 56.2446 360.214 56.2131 360.214 56.1816C360.182 56.0557 360.151 55.9612 360.088 55.8668C359.71 55.3 358.797 55.237 358.104 55.3C358.104 55.3315 358.104 55.3315 358.136 55.363C358.041 55.363 357.978 55.363 357.884 55.363C357.947 56.6539 357.978 57.9449 358.041 59.2359ZM362.009 65.0609C362.323 63.6125 361.82 61.6289 360.592 60.5898C359.71 60.149 358.388 60.7472 358.136 61.6918C358.136 61.7233 358.136 61.7233 358.136 61.7548C358.199 63.9274 358.293 66.1315 358.356 68.3041C358.388 68.3041 358.419 68.2726 358.451 68.2726C358.451 68.2726 358.451 68.2726 358.419 68.2726C358.388 68.4615 358.639 68.5874 358.734 68.4615C358.734 68.493 358.734 68.5245 358.702 68.5245C360.308 68.0522 361.631 66.6982 362.009 65.0609Z" fill="white"/>
<path d="M378.079 68.8078C378.489 69.3746 377.576 70.0358 377.135 69.532C377.103 69.4691 377.04 69.4376 377.009 69.3746C376.977 69.3431 376.946 69.2801 376.914 69.2172C375.56 67.2965 374.301 65.3128 373.104 63.2977C373.073 63.8014 373.073 64.6831 373.041 64.6516C373.073 66.1 373.104 67.5799 373.104 69.0282C373.136 69.9099 371.782 69.8784 371.751 69.0282C371.751 68.8393 371.751 68.6504 371.751 68.4615C371.751 68.3985 371.751 68.3355 371.751 68.3041C371.688 64.0848 371.562 59.8971 371.373 55.6779C371.341 55.4889 371.404 55.3315 371.499 55.237C371.562 55.1426 371.656 55.0481 371.814 55.0481C371.845 55.0481 371.876 55.0481 371.876 55.0481C371.939 55.0166 371.971 55.0166 372.034 55.0166C372.38 55.0166 372.695 55.0166 373.041 55.0166C373.104 55.0166 373.199 55.0166 373.262 55.0166C373.325 54.9851 373.356 55.0166 373.388 55.0166C374.584 54.9851 375.907 55.2685 376.537 56.402C377.166 57.5041 376.694 59.0154 376.159 60.086C375.655 61.0306 374.868 61.8178 373.955 62.3845C375.246 64.5886 376.631 66.7297 378.079 68.8078ZM372.79 56.6539C372.758 56.7169 372.79 56.7799 372.79 56.8429C372.79 56.8429 372.79 56.8429 372.758 56.8743C372.821 58.3227 372.884 59.7711 372.947 61.251C373.01 61.2195 373.104 61.251 373.167 61.2825C374.207 60.6528 374.994 59.7082 375.34 58.5431C375.529 57.819 375.623 57.0318 374.868 56.6225C374.49 56.402 374.049 56.3706 373.64 56.3706C373.482 56.3706 373.262 56.402 373.104 56.3706C373.073 56.402 373.041 56.402 373.01 56.402C373.01 56.402 373.01 56.402 373.01 56.4335C372.947 56.4335 372.916 56.465 372.853 56.528C372.853 56.528 372.853 56.528 372.821 56.5595C372.821 56.5595 372.821 56.5595 372.821 56.591C372.79 56.6225 372.79 56.6225 372.79 56.6539Z" fill="white"/>
<path d="M395.997 61.0621C396.06 63.77 395.084 66.6982 392.817 68.2726C390.739 69.721 387.653 69.6265 386.016 67.5799C384.347 65.5017 384.378 62.1326 385.229 59.7396C386.047 57.5041 387.874 55.6149 390.235 55.2685C390.361 55.2055 390.518 55.2055 390.644 55.237C390.833 55.237 391.022 55.2055 391.211 55.237C391.4 55.237 391.557 55.3 391.652 55.426C391.683 55.426 391.683 55.426 391.715 55.426C392.061 55.4574 392.408 55.5519 392.722 55.6779C393.384 55.9297 393.982 56.3391 394.454 56.8429C395.525 58.0079 395.966 59.5507 395.997 61.0621ZM393.069 66.2259C394.454 64.5571 394.958 62.0067 394.517 59.9286C394.297 58.8265 393.73 57.819 392.785 57.2207C392.345 56.9373 391.841 56.7484 391.274 56.7484C390.865 56.7484 390.55 56.8114 390.172 56.6539C388.031 57.0948 386.646 59.1414 386.236 61.2825C385.827 63.2032 385.89 66.0055 387.622 67.2965C389.353 68.5559 391.809 67.7373 393.069 66.2259Z" fill="white"/>
<path d="M154.671 109.089C154.797 113.686 153.82 118.22 151.931 122.376C151.553 123.163 150.388 122.471 150.735 121.684C151.931 119.165 152.687 116.457 153.065 113.686C153.033 113.717 153.002 113.78 152.97 113.812C151.931 114.756 150.388 114.127 149.979 112.867C149.57 111.482 150.325 109.876 151.396 109.026C151.963 108.585 152.75 108.113 153.474 108.333C153.569 108.365 153.663 108.428 153.726 108.459C154.135 108.333 154.639 108.585 154.671 109.089ZM152.655 111.387C152.781 110.947 152.907 110.506 153.033 110.065C152.939 109.97 152.876 109.845 152.844 109.719C152.844 109.719 152.844 109.719 152.813 109.719C152.718 109.75 152.592 109.813 152.498 109.876C152.372 109.97 152.246 110.065 152.12 110.159C151.9 110.38 151.679 110.663 151.522 110.978C151.301 111.419 150.892 112.804 151.742 112.899C152.341 112.962 152.529 111.797 152.655 111.387Z" fill="white"/>
<path d="M164.806 120.833C164.964 120.928 165.09 121.054 165.184 121.18C165.625 121.872 165.215 122.754 164.491 122.943C163.736 123.132 162.98 122.66 162.98 121.872C162.948 121.085 163.767 120.424 164.523 120.676C164.649 120.707 164.743 120.77 164.806 120.833ZM164.491 117.055C163.736 117.212 162.98 116.74 162.98 115.953C162.948 115.197 163.767 114.536 164.523 114.756C164.649 114.788 164.743 114.851 164.806 114.945C164.964 115.04 165.09 115.166 165.184 115.292C165.625 115.953 165.215 116.835 164.491 117.055Z" fill="white"/>
<path d="M176.951 109.183C178.841 110.758 178.746 113.717 178.557 116.016C178.463 117.307 178.211 122.219 175.755 120.896C173.771 119.794 173.645 116.898 173.677 114.945C173.677 113.654 173.866 112.363 174.307 111.135C174.653 110.159 175.125 109.215 176.196 108.868C176.542 108.742 176.825 108.931 176.951 109.183ZM177.266 115.292C177.298 113.78 177.487 111.482 176.259 110.348C175.755 110.758 175.535 111.702 175.377 112.238C175.125 113.119 175.031 114.032 175.031 114.945C174.999 116.331 174.999 118.252 175.975 119.354C176.038 119.385 176.29 119.7 176.385 119.7C176.511 119.731 176.574 119.542 176.637 119.417C176.794 119.007 176.857 118.535 176.92 118.094C177.109 117.181 177.235 116.236 177.266 115.292Z" fill="white"/>
<path d="M190.262 109.183C192.151 110.758 192.057 113.717 191.868 116.016C191.773 117.307 191.521 122.219 189.065 120.896C187.082 119.794 186.956 116.898 186.987 114.945C186.987 113.654 187.176 112.363 187.617 111.135C187.963 110.159 188.436 109.215 189.506 108.868C189.853 108.742 190.136 108.931 190.262 109.183ZM190.577 115.292C190.608 113.78 190.797 111.482 189.569 110.348C189.065 110.758 188.845 111.702 188.688 112.238C188.436 113.119 188.341 114.032 188.341 114.945C188.31 116.331 188.31 118.252 189.286 119.354C189.349 119.385 189.601 119.7 189.695 119.7C189.821 119.731 189.884 119.542 189.947 119.417C190.105 119.007 190.167 118.535 190.23 118.094C190.419 117.181 190.545 116.236 190.577 115.292Z" fill="white"/>
<path d="M222.521 122.187C222.679 123.037 221.388 123.384 221.199 122.534C220.758 120.267 220.286 117.968 219.814 115.67C219.751 115.355 219.688 115.071 219.625 114.756C218.806 114.819 217.956 114.882 217.106 114.945C216.256 117.559 215.5 120.172 214.839 122.817C214.618 123.667 213.296 123.321 213.516 122.471C214.776 117.622 216.287 112.867 218.05 108.176C218.302 107.515 219.31 107.64 219.404 108.207C220.002 108.711 220.002 109.813 220.16 110.506C220.412 111.765 220.664 113.025 220.916 114.284C221.451 116.929 221.986 119.542 222.521 122.187ZM217.578 113.56C218.176 113.528 218.774 113.466 219.373 113.434L219.152 112.3C219.026 111.734 218.9 111.135 218.774 110.569C218.774 110.443 218.743 110.348 218.712 110.254C218.334 111.356 217.924 112.458 217.578 113.56Z" fill="white"/>
<path d="M242.946 108.648C243.103 113.686 243.292 118.755 243.513 123.793C243.575 124.549 242.379 124.706 242.19 123.982C242.159 123.793 242.127 123.604 242.064 123.447C242.033 123.258 242.064 123.1 242.127 122.975C241.97 119.102 241.812 115.229 241.686 111.356V111.387C241.655 111.419 241.655 111.419 241.623 111.45C240.962 112.363 240.332 113.308 239.734 114.253C239.734 114.316 239.703 114.379 239.671 114.442C238.664 116.079 237.813 117.811 237.089 119.637C236.9 120.078 236.459 120.172 236.113 120.046C235.861 120.046 235.609 119.889 235.483 119.574C234.633 117.212 233.657 114.882 232.555 112.615C232.807 115.67 232.901 118.692 232.87 121.747C232.933 121.872 232.964 122.03 232.933 122.187C232.901 122.408 232.87 122.628 232.839 122.849C232.713 123.604 231.485 123.415 231.516 122.66C231.579 118.063 231.359 113.497 230.855 108.931C230.729 108.081 232.114 108.081 232.209 108.931V108.963C233.783 111.86 235.137 114.882 236.334 117.968C236.774 116.961 237.215 115.953 237.75 115.008C238.821 112.615 240.238 110.317 241.623 108.081C241.623 108.05 241.655 108.018 241.655 107.987C241.844 107.137 243.166 107.515 242.946 108.365C242.946 108.396 242.946 108.428 242.914 108.459C242.946 108.522 242.946 108.585 242.946 108.648Z" fill="white"/>
</svg>
