<svg width="27" height="36" viewBox="0 0 27 36" fill="none" xmlns="http://www.w3.org/2000/svg">
<path fill-rule="evenodd" clip-rule="evenodd" d="M12.5028 33.0172L12.5049 33.02C12.7149 33.3004 13.0449 33.4658 13.3952 33.4658C13.7455 33.4658 14.076 33.2998 14.2859 33.0194L14.2875 33.0172L14.4019 32.863C14.4767 32.7617 14.5859 32.6133 14.7244 32.4228C15.0014 32.0419 15.3961 31.4928 15.8694 30.8171C16.8153 29.4665 18.0785 27.605 19.3434 25.5656C20.606 23.53 21.8829 21.2974 22.8478 19.2078C23.793 17.1608 24.5137 15.0971 24.5137 13.4524C24.5137 10.5035 23.3423 7.67549 21.2572 5.59035C19.1721 3.50522 16.344 2.3338 13.3952 2.3338C10.4464 2.3338 7.6183 3.50522 5.53316 5.59035C3.44803 7.67549 2.27661 10.5035 2.27661 13.4524C2.27661 15.0971 2.99734 17.1608 3.94259 19.2078C4.90749 21.2974 6.18437 23.53 7.44696 25.5656C8.7119 27.605 9.97501 29.4665 10.9209 30.8171C11.3942 31.4928 11.789 32.0419 12.066 32.4228C12.2045 32.6133 12.3136 32.7617 12.3884 32.863L12.4743 32.979L12.4969 33.0092L12.5028 33.0172ZM13.3954 9.0049C10.9392 9.0049 8.94802 10.9961 8.94802 13.4523C8.94802 15.9086 10.9392 17.8997 13.3954 17.8997C15.8517 17.8997 17.8429 15.9086 17.8429 13.4523C17.8429 10.9961 15.8517 9.0049 13.3954 9.0049Z" fill="#ECC4AD"/>
<path d="M12.4743 32.979L12.4969 33.0092L12.5028 33.0172L12.5049 33.02C12.7149 33.3004 13.0449 33.4658 13.3952 33.4658C13.7455 33.4658 14.076 33.2998 14.2859 33.0194M12.4743 32.979C12.4547 32.9525 12.4258 32.9137 12.3884 32.863M12.4743 32.979L12.3884 32.863M12.3884 32.863C12.3136 32.7617 12.2045 32.6133 12.066 32.4228C11.789 32.0419 11.3942 31.4928 10.9209 30.8171C9.97501 29.4665 8.7119 27.605 7.44696 25.5656C6.18437 23.53 4.90749 21.2974 3.94259 19.2078C2.99734 17.1608 2.27661 15.0971 2.27661 13.4524C2.27661 10.5035 3.44803 7.67549 5.53316 5.59035C7.6183 3.50522 10.4464 2.3338 13.3952 2.3338C16.344 2.3338 19.1721 3.50522 21.2572 5.59035C23.3423 7.67549 24.5137 10.5035 24.5137 13.4524C24.5137 15.0971 23.793 17.1608 22.8478 19.2078C21.8829 21.2974 20.606 23.53 19.3434 25.5656C18.0785 27.605 16.8153 29.4665 15.8694 30.8171C15.3961 31.4928 15.0014 32.0419 14.7244 32.4228C14.5859 32.6133 14.4767 32.7617 14.4019 32.863M14.4019 32.863C14.3645 32.9137 14.3357 32.9525 14.316 32.979M14.4019 32.863L14.316 32.979M14.4019 32.863L14.2859 33.0194M14.4019 32.863L14.2875 33.0172M14.316 32.979L14.2935 33.0092L14.2875 33.0172M14.2875 33.0172L14.2859 33.0194M8.94802 13.4523C8.94802 10.9961 10.9392 9.0049 13.3954 9.0049C15.8517 9.0049 17.8429 10.9961 17.8429 13.4523C17.8429 15.9086 15.8517 17.8997 13.3954 17.8997C10.9392 17.8997 8.94802 15.9086 8.94802 13.4523Z" stroke="#ECC4AD" stroke-width="3.70619" stroke-linecap="round" stroke-linejoin="round"/>
</svg>
